<?xml version="1.0" encoding="UTF-8" standalone="no"?>
<svg width="41px" height="40px" viewBox="0 0 41 40" version="1.1" xmlns="http://www.w3.org/2000/svg" xmlns:xlink="http://www.w3.org/1999/xlink" xmlns:sketch="http://www.bohemiancoding.com/sketch/ns">
    <!-- Generator: Sketch 3.3.2 (12043) - http://www.bohemiancoding.com/sketch -->
    <title>Slice 1</title>
    <desc>Created with Sketch.</desc>
    <defs></defs>
    <g id="Page-1" stroke="none" stroke-width="1" fill="none" fill-rule="evenodd" sketch:type="MSPage">
        <g id="tempoiq" sketch:type="MSLayerGroup">
            <g id="Page-1" sketch:type="MSShapeGroup">
                <g id="tempoiq">
                    <g id="Group">
                        <path d="M4.55,14.775 C5.273,12.628 6.409,10.723 7.845,9.119 L5.255,6.535 C3.394,8.574 1.932,11.023 1.028,13.801 L4.55,14.775 L4.55,14.775 Z" id="Shape" fill="#D5D9E0"></path>
                        <path d="M4.085,23.547 C3.581,21.298 3.546,18.914 4.064,16.534 L0.542,15.56 C-0.155,18.608 -0.113,21.666 0.56,24.539 L4.085,23.547 L4.085,23.547 Z" id="Shape" fill="#C2C9D4"></path>
                        <path d="M16.489,4.049 C18.741,3.544 21.123,3.508 23.502,4.028 L24.475,0.506 C21.428,-0.19 18.369,-0.149 15.496,0.523 L16.489,4.049 L16.489,4.049 Z" id="Shape" fill="#F7941E"></path>
                        <path d="M9.138,7.831 C10.768,6.376 12.671,5.258 14.734,4.547 L13.741,1.021 C11.076,1.907 8.622,3.35 6.546,5.243 L9.138,7.831 L9.138,7.831 Z" id="Shape" fill="#EEEFF2"></path>
                        <path d="M26.235,0.988 L25.261,4.512 C27.409,5.235 29.314,6.371 30.918,7.804 L33.502,5.217 C31.464,3.356 29.011,1.892 26.235,0.988 L26.235,0.988 L26.235,0.988 Z" id="Shape" fill="#597692"></path>
                        <path d="M30.939,32.169 C29.308,33.621 27.404,34.743 25.34,35.454 L26.333,38.978 C28.999,38.093 31.452,36.651 33.53,34.753 L30.939,32.169 L30.939,32.169 Z" id="Shape" fill="#8395AB"></path>
                        <path d="M32.207,9.1 C33.662,10.731 34.78,12.635 35.492,14.696 L39.017,13.702 C38.13,11.039 36.689,8.583 34.794,6.511 L32.207,9.1 L32.207,9.1 Z" id="Shape" fill="#647D98"></path>
                        <path d="M35.988,16.451 C36.492,18.701 36.527,21.087 36.012,23.464 L39.533,24.436 C40.228,21.388 40.186,18.331 39.514,15.458 L35.988,16.451 L35.988,16.451 Z" id="Shape" fill="#6E859E"></path>
                        <path d="M7.869,30.898 C6.413,29.27 5.293,27.364 4.582,25.302 L1.058,26.296 C1.944,28.96 3.387,31.415 5.282,33.491 L7.869,30.898 L7.869,30.898 Z" id="Shape" fill="#A5B1C2"></path>
                        <path d="M35.526,25.224 C34.801,27.371 33.666,29.277 32.23,30.88 L34.819,33.462 C36.681,31.425 38.144,28.974 39.046,26.197 L35.526,25.224 L35.526,25.224 Z" id="Shape" fill="#788CA5"></path>
                        <path d="M23.584,35.951 C21.334,36.456 18.95,36.489 16.572,35.973 L15.6,39.496 C18.649,40.192 21.707,40.148 24.579,39.478 L23.584,35.951 L23.584,35.951 Z" id="Shape" fill="#8E9EB3"></path>
                        <path d="M13.84,39.01 L14.812,35.488 C12.666,34.764 10.758,33.628 9.157,32.193 L6.574,34.784 C8.613,36.642 11.063,38.105 13.84,39.01 L13.84,39.01 L13.84,39.01 Z" id="Shape" fill="#9AA7BA"></path>
                        <path d="M23.259,6.281 C22.347,6.068 21.401,5.943 20.429,5.916 C19.198,5.882 18,6.007 16.854,6.272 L19.749,19.702 L23.259,6.281 L23.259,6.281 Z" id="Shape" stroke="#F7941E" stroke-width="0.5" fill="#F7941E"></path>
                    </g>
                </g>
            </g>
        </g>
    </g>
</svg>