<?xml version="1.0" ?><!DOCTYPE svg  PUBLIC '-//W3C//DTD SVG 1.1//EN'  'http://www.w3.org/Graphics/SVG/1.1/DTD/svg11.dtd'><svg enable-background="new 0 0 512 512" height="512px" id="Layer_1" version="1.1" viewBox="0 0 512 512" width="512px" xml:space="preserve" xmlns="http://www.w3.org/2000/svg" xmlns:xlink="http://www.w3.org/1999/xlink"><g><path d="M431.219,353.953l-42.188,45.125c-0.813,0.859-2.078,1.156-3.188,0.719   c-1.108-0.422-1.844-1.484-1.844-2.672V368h-48v-32h48v-29.125c0-1.188,0.733-2.25,1.844-2.672   c1.109-0.438,2.375-0.141,3.188,0.719l42.188,45.125C432.25,351.156,432.25,352.844,431.219,353.953z M127.992,306.875   c0-1.188-0.734-2.25-1.844-2.672c-1.109-0.438-2.375-0.141-3.188,0.719l-42.188,45.125c-1.031,1.109-1.031,2.797,0,3.906   l42.188,45.125c0.813,0.859,2.078,1.156,3.188,0.719c1.109-0.422,1.844-1.484,1.844-2.672V368h48v-32h-48V306.875z M301.125,464   H272v-32h-32v32h-29.125c-1.188,0-2.25,0.734-2.672,1.844c-0.438,1.109-0.141,2.375,0.719,3.188l45.125,42.188   c1.109,1.031,2.797,1.031,3.906,0l45.125-42.188c0.859-0.813,1.156-2.078,0.719-3.188C303.375,464.734,302.313,464,301.125,464z    M256,96c26.5,0,48-21.469,48-47.984C304,21.516,282.5,0,256,0s-48,21.516-48,48.016C208,74.531,229.5,96,256,96z M336,150.984   c0-13.578-2.125-19.828-8.531-27.281C321.063,116.266,311.875,112,302.25,112h-5.969l-21.594,47.391l-11.438-21.031   c2.406-1.75,8.75-6.5,8.75-16.438c0-7.109-8.813-9.922-16.25-9.922c-7.469,0-15.75,2.813-15.75,9.922   c0,9.938,6.5,14.688,8.953,16.438l-11.641,21.031L215.719,112h-5.75c-9.625,0-18.813,4.266-25.219,11.703   c-6.406,7.453-8.75,13.703-8.75,26.391c0,12.703,0,94.594,0,94.594c0,18.156,14.859,30.859,32,30.859v99.047   C208,388.609,219,400,232.563,400h46.875C293,400,304,388.609,304,374.594v-99.047c17.141,0,32-12.703,32-30.859   C336,244.688,336,164.547,336,150.984z" fill="#4D4D4D"/></g></svg>