<?xml version="1.0" encoding="utf-8"?>
<!DOCTYPE svg PUBLIC "-//W3C//DTD SVG 1.1//EN" "http://www.w3.org/Graphics/SVG/1.1/DTD/svg11.dtd">
<svg version="1.1" xmlns="http://www.w3.org/2000/svg" width="512px" height="512px" viewBox="0 0 512 512"><title>Telemóvel sms ícone</title>
<path fill="#00801E" d="M250.102,312.975h-132V170.889h63.059c-4.357-16.824-4.654-34.125-1.307-50.43h-70.998
	c-13.807,0-25,11.193-25,25v291.486c0,13.807,11.193,25,25,25h150.49c13.807,0,25-11.193,25-25V262.861
	c-10.396,4.692-22.512,8.795-34.244,12.161V312.975z M149.097,416.434h-30.996v-24.5h30.996V416.434z M149.097,372.141h-30.996
	v-24.5h30.996V372.141z M199.599,416.434h-30.996v-24.5h30.996V416.434z M199.599,372.141h-30.996v-24.5h30.996V372.141z
	 M250.101,416.434h-30.996v-24.5h30.996V416.434z M250.101,372.141h-30.996v-24.5h30.996V372.141z M317.865,50.055
	c-58.25,0-110.279,39.212-110.279,92.844c0,19.021,6.791,37.699,18.811,52.19c0.506,16.983-9.396,41.342-18.318,59.086
	c23.91-4.361,57.904-13.998,73.32-23.527c84.881,20.845,146.746-31.596,146.746-87.749
	C428.145,88.973,375.752,50.055,317.865,50.055z M279.053,164.509c-3.596,2.857-8.621,4.285-15.074,4.285
	c-5.518,0-10.394-1.058-14.631-3.178l2.365-9.385c4.261,2.169,8.595,3.253,13.006,3.253c2.536,0,4.513-0.481,5.928-1.441
	c2.736-1.854,2.896-5.598,0.204-7.723c-1.281-1.01-3.497-2.044-6.65-3.103c-9.507-3.152-14.261-8.103-14.261-14.853
	c0-4.359,1.748-7.949,5.246-10.77c3.497-2.82,8.152-4.23,13.966-4.23c5.074,0,9.508,0.863,13.301,2.586l-2.587,9.089
	c-3.473-1.626-7.093-2.438-10.861-2.438c-2.316,0-4.127,0.445-5.431,1.33c-2.594,1.761-2.55,4.934-0.314,6.818
	c1.097,0.923,3.726,2.121,7.888,3.601c4.605,1.627,7.975,3.64,10.104,6.04c2.13,2.402,3.196,5.39,3.196,8.961
	C284.447,157.933,282.648,161.652,279.053,164.509z M336.541,167.98c-0.789-19.752-1.182-33.152-1.182-40.195h-0.223
	c-1.207,5.295-5.247,18.423-12.118,39.384h-8.94c-4.115-14.458-10.199-39.384-10.199-39.384h-0.146l-1.773,40.195h-10.641
	l3.178-49.803h15.518l8.774,34.359l10.64-34.359h15.684l2.66,49.803H336.541z M384.736,164.721
	c-3.627,2.882-8.755,4.344-15.241,4.344c-5.245,0-10.213-0.936-14.945-3.303l2.499-9.924c4.172,2.123,8.42,3.376,13.186,3.376
	c2.47,0,4.413-0.47,5.777-1.395c2.613-1.772,2.709-5.298,0.189-7.286c-1.251-0.984-3.462-2.014-6.57-3.059
	c-9.586-3.178-14.445-8.262-14.445-15.109c0-4.424,1.798-8.117,5.347-10.98c3.53-2.846,8.286-4.289,14.135-4.289
	c5.089,0,9.603,0.878,13.413,2.609l0.213,0.097l-2.738,9.617c-3.511-1.644-7.021-2.547-11.035-2.547
	c-2.249,0-4.026,0.432-5.278,1.284c-2.44,1.656-2.396,4.613-0.293,6.385c1.067,0.899,3.692,2.096,7.805,3.556
	c4.629,1.634,8.067,3.692,10.217,6.114c2.166,2.443,3.264,5.518,3.264,9.141C390.233,157.996,388.383,161.822,384.736,164.721z"/>
</svg>