<?xml version="1.0" ?><!DOCTYPE svg  PUBLIC '-//W3C//DTD SVG 1.1//EN'  'http://www.w3.org/Graphics/SVG/1.1/DTD/svg11.dtd'><svg enable-background="new 0 0 128 128" height="128px" id="Layer_1" version="1.1" viewBox="0 0 128 128" width="128px" xml:space="preserve" xmlns="http://www.w3.org/2000/svg" xmlns:xlink="http://www.w3.org/1999/xlink"><g><path d="M124,13H4c-2.2,0-4,1.8-4,4v72c0,2.201,1.8,4,4,4h48l-0.715,10.012c-0.158,2.195-1.829,4.914-3.715,6.047L43.5,111.5   l-1.643,0.984c0,0,0,0.002-0.002,0.002C41.385,112.77,41,113.449,41,114s0.45,1,1,1h44c0.55,0,1-0.449,1-1s-0.387-1.23-0.855-1.514   L84.5,111.5l-4.07-2.441c-1.885-1.133-3.557-3.852-3.715-6.047L76,93h48c2.2,0,4-1.799,4-4V17C128,14.8,126.2,13,124,13z M122,85H6   V19h116V85z"/></g></svg>