<?xml version="1.0" encoding="utf-8"?>
<!-- Generator: Adobe Illustrator 16.0.4, SVG Export Plug-In . SVG Version: 6.00 Build 0)  -->
<!DOCTYPE svg PUBLIC "-//W3C//DTD SVG 1.1//EN" "http://www.w3.org/Graphics/SVG/1.1/DTD/svg11.dtd">
<svg version="1.1" id="Layer_1" xmlns="http://www.w3.org/2000/svg" xmlns:xlink="http://www.w3.org/1999/xlink" x="0px" y="0px"
	 width="500px" height="500px" viewBox="0 0 500 500" enable-background="new 0 0 500 500" xml:space="preserve">
<path stroke="#FFFFFF" stroke-width="4" stroke-miterlimit="10" d="M49.541,182.868v116.274c0,44.166,92.069,79.955,205.624,79.955
	c113.563,0,205.632-35.789,205.632-79.955V182.868H49.541z"/>
<path stroke="#FFFFFF" stroke-width="6" stroke-miterlimit="10" d="M254.16,102.898c113.564,0,205.624,35.802,205.624,79.97
	c0,44.158-92.06,79.964-205.624,79.964c-113.564,0-205.623-35.806-205.623-79.964C48.537,138.7,140.596,102.898,254.16,102.898z"/>
<path fill="#62A5D8" stroke="#FFFFFF" stroke-width="6" stroke-miterlimit="10" d="M139.563,119.118v46.609
	c0,24.618,51.311,44.561,114.597,44.561c63.296,0,114.604-19.942,114.604-44.561v-46.609H139.563z"/>
<path fill="#62A5D8" stroke="#FFFFFF" stroke-width="6" stroke-miterlimit="10" d="M254.16,74.553
	c63.288,0,114.598,19.951,114.598,44.565c0,24.611-51.31,44.562-114.598,44.562c-63.286,0-114.597-19.951-114.597-44.562
	C139.563,94.504,190.874,74.553,254.16,74.553z"/>
<path d="M78.729,425.447c-11.869,0-21.487-9.619-21.487-21.485v-98.591c0-11.87,9.619-21.486,21.487-21.486
	s21.487,9.616,21.487,21.486v98.591C100.216,415.828,90.597,425.447,78.729,425.447z"/>
<path d="M429.928,425.447c-11.864,0-21.485-9.619-21.485-21.485v-98.591c0-11.87,9.621-21.486,21.485-21.486
	c11.87,0,21.487,9.616,21.487,21.486v98.591C451.415,415.828,441.798,425.447,429.928,425.447z"/>
</svg>
