<svg id="Layer_1" data-name="Layer 1" xmlns="http://www.w3.org/2000/svg" xmlns:xlink="http://www.w3.org/1999/xlink" viewBox="0 0 455.1 435.43"><defs><style>.cls-1{fill:none;}.cls-2{clip-path:url(#clip-path);}.cls-3{fill-rule:evenodd;}</style><clipPath id="clip-path" transform="translate(-30.25 -25)"><rect class="cls-1" width="512" height="512"/></clipPath></defs><title>unsecure</title><g class="cls-2"><path class="cls-3" d="M265.2,210.89v15.62a9.37,9.37,0,0,1-18.75,0V210.89A29.29,29.29,0,1,1,265.2,210.89Zm74.32-92.16H323.89v-41A52.7,52.7,0,0,0,271.17,25H240.71A52.7,52.7,0,0,0,188,77.72V95.3a7,7,0,0,0,7,7h16.4a7,7,0,0,0,7-7V84.75a28.1,28.1,0,0,1,28.12-28.12h18.75a28.1,28.1,0,0,1,28.12,28.12v34H172.6a14.1,14.1,0,0,0-14.06,14.06V257a14.1,14.1,0,0,0,14.06,14.06H339.4A14.1,14.1,0,0,0,353.45,257V132.79a13.92,13.92,0,0,0-13.94-14.06h0Z" transform="translate(-30.25 -25)"/></g><path d="M174.93,309.59v41.9H200V361H163.63V309.59h11.3Z" transform="translate(-30.25 -25)"/><path d="M205.46,334.32a17,17,0,0,1,9.94-10.15,21.26,21.26,0,0,1,7.92-1.4,21.56,21.56,0,0,1,8,1.4,17,17,0,0,1,10,10.15,22.87,22.87,0,0,1,1.37,8.1,22.58,22.58,0,0,1-1.37,8.06,17.49,17.49,0,0,1-3.89,6.16,16.93,16.93,0,0,1-6.08,3.92,22.07,22.07,0,0,1-8,1.37,21.77,21.77,0,0,1-7.92-1.37,17,17,0,0,1-6-3.92,17.45,17.45,0,0,1-3.89-6.16,22.54,22.54,0,0,1-1.37-8.06A22.84,22.84,0,0,1,205.46,334.32Zm9.29,12.46a11.58,11.58,0,0,0,1.48,3.82,7.84,7.84,0,0,0,2.77,2.7,8.45,8.45,0,0,0,4.32,1,8.66,8.66,0,0,0,4.36-1,7.77,7.77,0,0,0,2.81-2.7,11.61,11.61,0,0,0,1.48-3.82,21.79,21.79,0,0,0,.43-4.36A22.33,22.33,0,0,0,232,338a11.22,11.22,0,0,0-1.48-3.82,8.2,8.2,0,0,0-2.81-2.7,8.43,8.43,0,0,0-4.36-1,7.86,7.86,0,0,0-7.09,3.74,11.19,11.19,0,0,0-1.48,3.82,22.33,22.33,0,0,0-.43,4.39A21.79,21.79,0,0,0,214.74,346.78Z" transform="translate(-30.25 -25)"/><path d="M284.4,363.74a12.61,12.61,0,0,1-2.63,5.36,15.65,15.65,0,0,1-5.83,4.21A25.14,25.14,0,0,1,265.72,375a23.85,23.85,0,0,1-5.58-.68,17.78,17.78,0,0,1-5.18-2.12,12.75,12.75,0,0,1-3.89-3.71,10.75,10.75,0,0,1-1.76-5.44h10.15a5.84,5.84,0,0,0,2.81,4,10.09,10.09,0,0,0,4.82,1.12q4.32,0,6.3-2.59a10.18,10.18,0,0,0,1.91-6.55v-4.9h-0.14a10.12,10.12,0,0,1-4.72,4.36,15.27,15.27,0,0,1-6.44,1.4,16.25,16.25,0,0,1-7.2-1.48,13.65,13.65,0,0,1-5-4,16.8,16.8,0,0,1-2.84-6,28.26,28.26,0,0,1-.9-7.24,23.2,23.2,0,0,1,1-6.95,18.15,18.15,0,0,1,3.06-5.9,14.78,14.78,0,0,1,5-4.07,15,15,0,0,1,6.88-1.51,14.4,14.4,0,0,1,6.44,1.37,11.14,11.14,0,0,1,4.64,4.61h0.14v-5H285v34.85A25,25,0,0,1,284.4,363.74Zm-14-12.38a8,8,0,0,0,2.74-2.3,10.22,10.22,0,0,0,1.62-3.28,13.61,13.61,0,0,0,.54-3.85,21,21,0,0,0-.43-4.36,10.87,10.87,0,0,0-1.44-3.64,7.48,7.48,0,0,0-2.66-2.52,8.41,8.41,0,0,0-4.18-.94,7.49,7.49,0,0,0-3.71.86,7.79,7.79,0,0,0-2.59,2.34,9.9,9.9,0,0,0-1.51,3.38,16.7,16.7,0,0,0-.47,4,20.34,20.34,0,0,0,.4,4,10.78,10.78,0,0,0,1.37,3.56,8,8,0,0,0,2.55,2.59,7.24,7.24,0,0,0,4,1A8.14,8.14,0,0,0,270.4,351.35Z" transform="translate(-30.25 -25)"/><path d="M293.44,334.32a17,17,0,0,1,9.94-10.15,21.27,21.27,0,0,1,7.92-1.4,21.55,21.55,0,0,1,8,1.4,17,17,0,0,1,10,10.15,22.85,22.85,0,0,1,1.37,8.1,22.55,22.55,0,0,1-1.37,8.06,17.48,17.48,0,0,1-3.89,6.16,16.93,16.93,0,0,1-6.08,3.92,22.07,22.07,0,0,1-8,1.37,21.78,21.78,0,0,1-7.92-1.37,17,17,0,0,1-6-3.92,17.44,17.44,0,0,1-3.89-6.16,22.53,22.53,0,0,1-1.37-8.06A22.83,22.83,0,0,1,293.44,334.32Zm9.29,12.46a11.59,11.59,0,0,0,1.48,3.82,7.84,7.84,0,0,0,2.77,2.7,8.45,8.45,0,0,0,4.32,1,8.65,8.65,0,0,0,4.36-1,7.77,7.77,0,0,0,2.81-2.7,11.63,11.63,0,0,0,1.48-3.82,21.86,21.86,0,0,0,.43-4.36,22.4,22.4,0,0,0-.43-4.39,11.24,11.24,0,0,0-1.48-3.82,8.2,8.2,0,0,0-2.81-2.7,8.43,8.43,0,0,0-4.36-1,7.86,7.86,0,0,0-7.09,3.74,11.2,11.2,0,0,0-1.48,3.82,22.4,22.4,0,0,0-.43,4.39A21.86,21.86,0,0,0,302.73,346.78Z" transform="translate(-30.25 -25)"/><path d="M58,396a16.57,16.57,0,0,1,6.23,1.12,14.37,14.37,0,0,1,4.75,3.06,13.31,13.31,0,0,1,3,4.5,14.45,14.45,0,0,1,1,5.51A15.46,15.46,0,0,1,71.11,418a12,12,0,0,1-6.23,5v0.14A8.74,8.74,0,0,1,68.34,425a9.8,9.8,0,0,1,2.23,2.81,13.09,13.09,0,0,1,1.26,3.56,31.17,31.17,0,0,1,.54,3.89q0.07,1.22.14,2.88t0.25,3.38a22.48,22.48,0,0,0,.58,3.28,7.53,7.53,0,0,0,1.19,2.63H63.22a19.92,19.92,0,0,1-1.15-5.83q-0.22-3.38-.65-6.48a10.22,10.22,0,0,0-2.45-5.9q-1.87-1.87-6.12-1.87H41.55V447.4H30.25V396H58Zm-4,23.26q3.89,0,5.83-1.73t1.94-5.62q0-3.74-1.94-5.44t-5.83-1.69H41.55v14.47H53.94Z" transform="translate(-30.25 -25)"/><path d="M92.09,438.47q2.3,2.23,6.62,2.23a9.11,9.11,0,0,0,5.33-1.55,6.43,6.43,0,0,0,2.74-3.28h9q-2.16,6.7-6.62,9.58a19.49,19.49,0,0,1-10.8,2.88,21.27,21.27,0,0,1-7.92-1.4,16.47,16.47,0,0,1-6-4,18,18,0,0,1-3.78-6.19,22.65,22.65,0,0,1-1.33-7.92A21.7,21.7,0,0,1,80.72,421a18,18,0,0,1,9.9-10.37,19.28,19.28,0,0,1,7.74-1.51,17.71,17.71,0,0,1,8.28,1.84,16.54,16.54,0,0,1,5.8,4.93,20.29,20.29,0,0,1,3.28,7.06,26.32,26.32,0,0,1,.72,8.28H89.57Q89.79,436.24,92.09,438.47Zm11.56-19.58q-1.84-2-5.58-2a8.91,8.91,0,0,0-4.07.83,7.76,7.76,0,0,0-2.59,2.05A7.54,7.54,0,0,0,90,422.34a11.68,11.68,0,0,0-.47,2.45h16.63A11.82,11.82,0,0,0,103.65,418.89Z" transform="translate(-30.25 -25)"/><path d="M148.54,460.43V442.72H148.4a10.08,10.08,0,0,1-5,4.32,17.87,17.87,0,0,1-6.7,1.3,16.16,16.16,0,0,1-5.36-1,13.63,13.63,0,0,1-5.08-3.24,17.54,17.54,0,0,1-3.82-6,24.18,24.18,0,0,1-1.51-9.11,27.35,27.35,0,0,1,1-7.42,19,19,0,0,1,3.1-6.37,15.07,15.07,0,0,1,12.6-6.08,16.15,16.15,0,0,1,6.52,1.33,10,10,0,0,1,4.79,4.43H149v-4.75h9.72v50.26H148.54Zm-17-27.25A11.59,11.59,0,0,0,133,437a7.94,7.94,0,0,0,2.74,2.7,8.1,8.1,0,0,0,4.21,1,8.35,8.35,0,0,0,4.21-1,7.88,7.88,0,0,0,2.74-2.59,11.4,11.4,0,0,0,1.51-3.74,20.68,20.68,0,0,0,0-8.75,13.24,13.24,0,0,0-1.48-3.89,8.19,8.19,0,0,0-2.7-2.81,7.4,7.4,0,0,0-4.07-1.08,8.31,8.31,0,0,0-4.25,1,8.18,8.18,0,0,0-2.81,2.7,11.72,11.72,0,0,0-1.55,3.82,20.47,20.47,0,0,0-.47,4.43A21.79,21.79,0,0,0,131.55,433.18Z" transform="translate(-30.25 -25)"/><path d="M191.67,447.4v-5.18h-0.22a11.51,11.51,0,0,1-5,4.68,14.88,14.88,0,0,1-6.34,1.44,17.89,17.89,0,0,1-6.73-1.08,9.71,9.71,0,0,1-4.14-3.06,12,12,0,0,1-2.12-4.82,30,30,0,0,1-.61-6.3v-22.9h10.22v21q0,4.61,1.44,6.88t5.11,2.27q4.17,0,6-2.48t1.87-8.17V410.18h10.22V447.4h-9.72Z" transform="translate(-30.25 -25)"/><path d="M209.45,404.42V396h10.22v8.42H209.45Zm10.22,5.76V447.4H209.45V410.18h10.22Z" transform="translate(-30.25 -25)"/><path d="M237.46,410.18v6.91h0.14a12.55,12.55,0,0,1,1.94-3.2,12.76,12.76,0,0,1,2.81-2.52,13.75,13.75,0,0,1,3.38-1.62,12.21,12.21,0,0,1,3.74-.58,8,8,0,0,1,2.23.36V419q-0.72-.14-1.73-0.25a18.21,18.21,0,0,0-1.94-.11,10.91,10.91,0,0,0-4.75.94,8.23,8.23,0,0,0-3.13,2.56,10.23,10.23,0,0,0-1.69,3.78,20.55,20.55,0,0,0-.5,4.68V447.4H227.74V410.18h9.72Z" transform="translate(-30.25 -25)"/><path d="M265.4,438.47q2.3,2.23,6.62,2.23a9.11,9.11,0,0,0,5.33-1.55,6.42,6.42,0,0,0,2.74-3.28h9q-2.16,6.7-6.62,9.58a19.5,19.5,0,0,1-10.8,2.88,21.27,21.27,0,0,1-7.92-1.4,16.47,16.47,0,0,1-6-4,18,18,0,0,1-3.78-6.19,22.65,22.65,0,0,1-1.33-7.92A21.7,21.7,0,0,1,254,421a18,18,0,0,1,9.9-10.37,19.28,19.28,0,0,1,7.74-1.51,17.71,17.71,0,0,1,8.28,1.84,16.55,16.55,0,0,1,5.8,4.93A20.3,20.3,0,0,1,289,423a26.33,26.33,0,0,1,.72,8.28H262.88Q263.09,436.24,265.4,438.47ZM277,418.89q-1.84-2-5.58-2a8.91,8.91,0,0,0-4.07.83,7.75,7.75,0,0,0-2.59,2.05,7.53,7.53,0,0,0-1.37,2.59,11.67,11.67,0,0,0-.47,2.45h16.63A11.82,11.82,0,0,0,277,418.89Z" transform="translate(-30.25 -25)"/><path d="M304.38,438.15a6,6,0,0,0,1.76,1.94,7.54,7.54,0,0,0,2.48,1.12,11.63,11.63,0,0,0,2.92.36,10.87,10.87,0,0,0,2.27-.25,7.7,7.7,0,0,0,2.16-.79,4.9,4.9,0,0,0,1.62-1.44,3.78,3.78,0,0,0,.65-2.27q0-2.3-3.06-3.46a61.32,61.32,0,0,0-8.53-2.3q-2.23-.5-4.36-1.19a14.8,14.8,0,0,1-3.78-1.8,8.73,8.73,0,0,1-2.66-2.81,8,8,0,0,1-1-4.14,11.19,11.19,0,0,1,1.4-5.9,10.35,10.35,0,0,1,3.71-3.64,16.27,16.27,0,0,1,5.18-1.87,32,32,0,0,1,5.9-.54,29.52,29.52,0,0,1,5.87.58,15.58,15.58,0,0,1,5.08,1.94,11.67,11.67,0,0,1,3.71,3.64,12.21,12.21,0,0,1,1.76,5.72h-9.72q-0.22-3-2.23-4a10.22,10.22,0,0,0-4.75-1,17.55,17.55,0,0,0-1.87.11,6.28,6.28,0,0,0-1.84.47,3.8,3.8,0,0,0-1.4,1,2.76,2.76,0,0,0-.58,1.84,2.8,2.8,0,0,0,1,2.23,7.76,7.76,0,0,0,2.63,1.4,33,33,0,0,0,3.71,1q2.09,0.43,4.25.94a43.42,43.42,0,0,1,4.36,1.22,14.35,14.35,0,0,1,3.78,1.91,9.22,9.22,0,0,1,2.66,3,8.67,8.67,0,0,1,1,4.36,11.3,11.3,0,0,1-5.33,10.15,15.78,15.78,0,0,1-5.44,2.12,31.73,31.73,0,0,1-6.23.61,30.86,30.86,0,0,1-6.34-.65,16.71,16.71,0,0,1-5.51-2.16,12.34,12.34,0,0,1-4-4A12.5,12.5,0,0,1,294,435.3h9.72A5.59,5.59,0,0,0,304.38,438.15Z" transform="translate(-30.25 -25)"/><path d="M364.18,434.73a8.17,8.17,0,0,0,2.48,2.92,10.76,10.76,0,0,0,3.64,1.66,17.21,17.21,0,0,0,4.32.54,22.53,22.53,0,0,0,3.24-.25,11.26,11.26,0,0,0,3.24-1,7.07,7.07,0,0,0,2.52-2,5,5,0,0,0,1-3.2,4.51,4.51,0,0,0-1.33-3.38,10.58,10.58,0,0,0-3.49-2.16,34.88,34.88,0,0,0-4.9-1.51q-2.74-.65-5.54-1.44a49,49,0,0,1-5.62-1.76,19.26,19.26,0,0,1-4.9-2.7,12.69,12.69,0,0,1-3.49-4.14,12.56,12.56,0,0,1-1.33-6,13.45,13.45,0,0,1,1.69-6.88,15.32,15.32,0,0,1,4.43-4.86,19.33,19.33,0,0,1,6.19-2.88,26.38,26.38,0,0,1,6.91-.94,32.73,32.73,0,0,1,7.74.9,19.35,19.35,0,0,1,6.59,2.92,14.76,14.76,0,0,1,4.57,5.15,15.8,15.8,0,0,1,1.69,7.6H382.9a9.09,9.09,0,0,0-1-3.82,6.35,6.35,0,0,0-2.2-2.38,9.31,9.31,0,0,0-3.13-1.22,19.34,19.34,0,0,0-3.85-.36,13.28,13.28,0,0,0-2.74.29,7.33,7.33,0,0,0-2.48,1,6.23,6.23,0,0,0-1.84,1.8,4.83,4.83,0,0,0-.72,2.74,4.61,4.61,0,0,0,.58,2.45,5.13,5.13,0,0,0,2.27,1.73,28.83,28.83,0,0,0,4.68,1.58q3,0.79,7.81,2,1.44,0.29,4,1a19.19,19.19,0,0,1,5.08,2.41,15.36,15.36,0,0,1,4.36,4.43,12.6,12.6,0,0,1,1.84,7.09,15.72,15.72,0,0,1-1.37,6.55,14.24,14.24,0,0,1-4.07,5.22,19.53,19.53,0,0,1-6.7,3.42,31.68,31.68,0,0,1-9.25,1.22,32.5,32.5,0,0,1-8.24-1,20.71,20.71,0,0,1-7.06-3.28,16.15,16.15,0,0,1-4.86-5.69,17,17,0,0,1-1.73-8.21h10.94A9.43,9.43,0,0,0,364.18,434.73Z" transform="translate(-30.25 -25)"/><path d="M410.91,434.73a8.17,8.17,0,0,0,2.48,2.92A10.75,10.75,0,0,0,417,439.3a17.22,17.22,0,0,0,4.32.54,22.53,22.53,0,0,0,3.24-.25,11.26,11.26,0,0,0,3.24-1,7.07,7.07,0,0,0,2.52-2,5,5,0,0,0,1-3.2A4.51,4.51,0,0,0,430,430a10.57,10.57,0,0,0-3.49-2.16,34.91,34.91,0,0,0-4.9-1.51q-2.74-.65-5.54-1.44a49,49,0,0,1-5.62-1.76,19.23,19.23,0,0,1-4.9-2.7,12.7,12.7,0,0,1-3.49-4.14,12.56,12.56,0,0,1-1.33-6,13.46,13.46,0,0,1,1.69-6.88,15.33,15.33,0,0,1,4.43-4.86,19.31,19.31,0,0,1,6.19-2.88,26.37,26.37,0,0,1,6.91-.94,32.73,32.73,0,0,1,7.74.9,19.36,19.36,0,0,1,6.59,2.92,14.77,14.77,0,0,1,4.57,5.15,15.8,15.8,0,0,1,1.69,7.6H429.63a9.12,9.12,0,0,0-1-3.82,6.36,6.36,0,0,0-2.2-2.38,9.32,9.32,0,0,0-3.13-1.22,19.36,19.36,0,0,0-3.85-.36,13.27,13.27,0,0,0-2.74.29,7.34,7.34,0,0,0-2.48,1,6.24,6.24,0,0,0-1.84,1.8,4.83,4.83,0,0,0-.72,2.74,4.61,4.61,0,0,0,.58,2.45,5.14,5.14,0,0,0,2.27,1.73,28.83,28.83,0,0,0,4.68,1.58q3,0.79,7.81,2,1.44,0.29,4,1a19.18,19.18,0,0,1,5.08,2.41,15.36,15.36,0,0,1,4.36,4.43,12.61,12.61,0,0,1,1.84,7.09,15.72,15.72,0,0,1-1.37,6.55,14.24,14.24,0,0,1-4.07,5.22,19.55,19.55,0,0,1-6.7,3.42,31.68,31.68,0,0,1-9.25,1.22,32.51,32.51,0,0,1-8.24-1,20.72,20.72,0,0,1-7.06-3.28,16.16,16.16,0,0,1-4.86-5.69,17,17,0,0,1-1.73-8.21H410A9.42,9.42,0,0,0,410.91,434.73Z" transform="translate(-30.25 -25)"/><path d="M460.3,396v41.9h25.06v9.5H449V396h11.3Z" transform="translate(-30.25 -25)"/></svg>