<?xml version="1.0" encoding="utf-8"?>
<!-- Generator: Adobe Illustrator 18.1.1, SVG Export Plug-In . SVG Version: 6.00 Build 0)  -->
<!DOCTYPE svg PUBLIC "-//W3C//DTD SVG 1.1//EN" "http://www.w3.org/Graphics/SVG/1.1/DTD/svg11.dtd">
<svg version="1.1" id="Layer_1" xmlns="http://www.w3.org/2000/svg" xmlns:xlink="http://www.w3.org/1999/xlink" x="0px" y="0px"
	 viewBox="694 -604 2000 2000" enable-background="new 694 -604 2000 2000" xml:space="preserve">
<g>
	<path fill="#5EB68C" d="M2350.4,994.2c-80.8,89.6-176.4,159.2-286,210c-76,35.2-156.4,59.2-239.2,70c-56,7.2-113.6,11.2-170,8
		c-136.8-7.2-266.4-43.6-386.4-110.8c-57.2-32-108.8-70.4-157.6-113.6c-91.2-80.4-160.8-176-211.2-285.6
		c-34-74-59.6-151.6-68.4-233.6c-5.6-51.2-12-102.4-11.2-153.6c1.2-76.8,13.2-152.4,34.8-226.4c25.2-86.4,62.4-167.2,112.4-242
		c17.2-25.6,36-50,54.8-74c3.6-4.4,12.4-5.2,18.8-7.2c0.4,7.2,4,16.8,0.8,22c-33.6,56.4-58.4,116.8-76.8,179.2
		c-18,59.6-31.2,120-33.6,182.8c-1.2,33.6-4.8,67.6-3.6,101.2c4,98,24,192.8,58.8,284.4c29.2,76.4,67.6,147.6,118.4,210.8
		c39.6,49.2,85.6,93.6,131.6,137.2c58.4,55.6,127.2,96,200,129.6c71.2,33.2,145.6,55.6,223.2,68.4c66.4,11.2,133.2,15.2,199.6,10.4
		c88-6.4,174.4-24,256.8-57.6c72.4-29.2,141.6-64.4,203.6-112C2329.6,985,2340,976.2,2350.4,994.2z"/>
	<path fill="#00A79D" d="M1794.8,1005c-260-16.4-468.4-130-605.2-352.8C1040,409,1032.8,151.8,1167.2-101
		c162-305.2,466.8-396,654.8-390c2.4,10.8,0.8,16-12.4,18.8c-114.4,22-218.4,68-311.6,138.8c-65.6,49.6-122,108.4-167.2,176.4
		c-54,80.8-92,169.2-111.6,265.2c-12.4,60-17.6,120-15.6,180.8c2,60.4,12,119.6,29.2,177.6c26.8,90.4,66.8,174.8,126.8,247.2
		c34.8,42,72.8,82.4,114.8,117.2c42.4,35.2,90,64.8,138.4,92c52.8,29.6,110.8,48.8,170.4,61.2c6.8,1.2,12,8,18,12.4
		C1799.2,999.4,1797.2,1002.2,1794.8,1005z"/>
	<path fill="#05726E" d="M1412.8,54.6c0.4-7.2-0.4-14.8,2-21.6c24.8-73.2,62-138.8,113.2-197.6c70.4-80,157.2-132.4,257.6-165.6
		c74.8-24.8,152-28,228.8-21.6c120,10,227.2,56.4,321.6,130.8c73.6,58.4,131.2,130.8,172,215.6c28.8,59.6,49.2,122,55.2,188.4
		c5.2,59.6,8,118.4-4.4,177.2c-1.2,4.8-6.4,8.8-9.6,13.2c-2-1.2-4.4-2-6.4-3.2c0-7.2,0-14.4,0-21.6c0.8-126.8-36-242.4-107.2-346.8
		c-91.6-134-218.8-216.8-376-255.2c-60.8-14.8-122.8-16.8-184-10.8c-108.8,10.4-207.6,50.4-293.6,118.4
		C1517.6-95,1467.2-32.6,1430,40.6c-2.4,5.2-6.4,9.6-9.2,14.4C1418.4,55.4,1415.6,55,1412.8,54.6z"/>
</g>
</svg>
