<?xml version="1.0" encoding="UTF-8"?>
<svg xmlns="http://www.w3.org/2000/svg" xmlns:xlink="http://www.w3.org/1999/xlink" width="2000pt" height="2000pt" viewBox="0 0 2000 2000" version="1.1">
<g id="surface1">
<path style=" stroke:none;fill-rule:nonzero;fill:rgb(26.666667%,26.666667%,26.666667%);fill-opacity:1;" d="M 1000 0 C 447.714844 0 0 447.714844 0 1000 C 0 1552.285156 447.714844 2000 1000 2000 C 1552.285156 2000 2000 1552.285156 2000 1000 C 2000 447.714844 1552.285156 0 1000 0 Z M 1438.3125 356.5625 C 1454.074219 356.46875 1469.839844 356.585938 1485.5625 357.3125 C 1528.367188 359.292969 1540.777344 375.859375 1528.9375 416.625 C 1464.996094 636.777344 1391.785156 853.761719 1298.25 1063.3125 C 1282.4375 1098.746094 1275.6875 1133.429688 1292.875 1168.25 C 1319.679688 1222.554688 1347.566406 1276.5625 1379 1328.25 C 1389.363281 1345.285156 1410.609375 1357.804688 1429.5 1367.0625 C 1467.78125 1385.816406 1501.433594 1374.75 1522.375 1338.0625 C 1537.269531 1311.960938 1557.964844 1300.566406 1587.625 1301.75 C 1615.15625 1302.851562 1642.757812 1301.476562 1670.3125 1302.25 C 1698.554688 1303.035156 1716.113281 1319.855469 1713.625 1347 C 1703.816406 1454.191406 1634.480469 1564.875 1515.125 1591.4375 C 1422.253906 1612.109375 1340.191406 1583.972656 1275.5625 1517 C 1238.527344 1478.632812 1211.269531 1430.714844 1180.8125 1386.25 C 1170.394531 1371.042969 1163.703125 1353.296875 1151.9375 1330.0625 C 1136.097656 1350.496094 1123.765625 1366.617188 1111.1875 1382.5625 C 1040.371094 1472.339844 957.542969 1547.15625 845.4375 1580.25 C 669.527344 1632.191406 490.414062 1559.335938 390.75 1398 C 338.625 1313.617188 313.511719 1220.613281 300.1875 1123.0625 C 283.390625 1000.070312 286.59375 878.023438 313.25 757.0625 C 339.875 636.25 389.027344 526 487.8125 446.625 C 655.46875 311.910156 885.203125 324.875 1028.8125 514.5 C 1084.566406 588.117188 1124.566406 670.054688 1158.3125 755.4375 C 1161.195312 762.738281 1164.050781 770.054688 1167.3125 777.1875 C 1167.9375 778.554688 1170.457031 779.09375 1175.9375 782.125 C 1180.132812 772.570312 1184.878906 763.574219 1188.0625 754.0625 C 1224.894531 644.125 1261.578125 534.152344 1298.125 424.125 C 1318.511719 362.738281 1326.289062 356.9375 1391 356.9375 C 1406.753906 356.9375 1422.550781 356.65625 1438.3125 356.5625 Z M 732.3125 580.125 C 709.96875 580.433594 686.535156 584.121094 661.875 590.9375 C 576.851562 614.441406 525.097656 676.898438 503.75 759.375 C 464.433594 886.535156 470.367188 1017.414062 486.5625 1138.125 C 489.84375 1162.199219 497.363281 1186.035156 505.6875 1209 C 568.023438 1380.960938 750.878906 1428.113281 888.1875 1307.75 C 962.902344 1242.257812 1011.730469 1158.046875 1055.5625 1070.75 C 1060.464844 1060.984375 1058.144531 1045.609375 1054.875 1034.0625 C 1041.503906 986.871094 1027.257812 939.867188 1011.8125 893.3125 C 986.078125 815.738281 957.46875 739.160156 906.8125 673.625 C 856.457031 608.476562 799.347656 579.195312 732.3125 580.125 Z M 732.3125 580.125 "/>
</g>
</svg>
