<?xml version="1.0" encoding="UTF-8"?>
<svg xmlns="http://www.w3.org/2000/svg" xmlns:xlink="http://www.w3.org/1999/xlink" width="2000pt" height="2000pt" viewBox="0 0 2000 2000" version="1.1">
<g id="surface1">
<path style=" stroke:none;fill-rule:nonzero;fill:rgb(49.019608%,52.54902%,54.901961%);fill-opacity:1;" d="M 235 661.75 C 235 605 275.25 535.25 324.5 506.5 L 910.5 168.5 C 959.75 140.25 1040.25 140.25 1089.75 168.5 L 1675.5 507 C 1724.75 535.25 1765 605.25 1765 662.25 L 1765 1338.5 C 1765 1395.25 1724.75 1465 1675.5 1493.75 L 1089.5 1831.5 C 1040.25 1859.75 959.75 1859.75 910.25 1831.5 L 324.5 1493.5 C 275.25 1465 235 1395.25 235 1338.25 Z M 235 661.75 "/>
<path style=" stroke:none;fill-rule:nonzero;fill:rgb(100%,100%,100%);fill-opacity:1;" d="M 1244 1364 L 1195 1265.75 L 804 1265.75 L 756 1364 L 522.5 1364 L 906.25 579.25 C 927.5 536 961.25 515.25 1000 515.25 C 1038.25 515.25 1073.5 538.25 1093.75 578.5 L 1477.5 1364 Z M 1104.75 1080 L 1000 863.25 L 895.25 1080 Z M 1104.75 1080 "/>
<path style=" stroke:none;fill-rule:nonzero;fill:rgb(76.470588%,77.647059%,78.431373%);fill-opacity:1;" d="M 1314.25 1267 L 1000 628.25 L 1000 804 L 1179.25 1172 L 732.25 1172 L 1000 628.25 L 1000 540 C 965.5 542.5 946.5 561 929.75 590.5 L 564 1336.5 L 739 1336.5 L 685.5 1268.75 L 732 1171.75 L 787 1239.5 L 1211.75 1239.5 L 1259.75 1336.5 L 1435.5 1336.5 Z M 1314.25 1267 "/>
</g>
</svg>
