<?xml version="1.0" encoding="utf-8"?>
<!-- Generator: Adobe Illustrator 18.1.1, SVG Export Plug-In . SVG Version: 6.00 Build 0)  -->
<!DOCTYPE svg PUBLIC "-//W3C//DTD SVG 1.1//EN" "http://www.w3.org/Graphics/SVG/1.1/DTD/svg11.dtd">
<svg version="1.1" id="Layer_1" xmlns="http://www.w3.org/2000/svg" xmlns:xlink="http://www.w3.org/1999/xlink" x="0px" y="0px"
	 viewBox="694 -604 2000 2000" enable-background="new 694 -604 2000 2000" xml:space="preserve">
<g id="surface1">
	<path fill="#FF9900" d="M1305.8-328.5l-342,96l342,116L1625.2-224L1305.8-328.5z M2097.2-328.5l-342,96l342,115L2416.8-225
		L2097.2-328.5z M929-193.8v495.5l338.2,123.5V-78L929-193.8z M1666.8-193.8l-338.2,115v503l338.2-122.5V-193.8z M1720.5-193.8
		v495.5l338.2,123.5V-78L1720.5-193.8z M2459-193.8l-338.2,115v503L2459,300.8V-193.8z M1709,367.8l-342,96l342,115l319.5-107.5
		L1709,367.8z M1332.2,501.5V997l338.2,123.5v-503L1332.2,501.5z M2070.8,501.5l-338.2,115v503L2070.8,996V501.5z"/>
</g>
</svg>
