<?xml version="1.0" encoding="utf-8"?>
<!-- Generator: Adobe Illustrator 18.1.1, SVG Export Plug-In . SVG Version: 6.00 Build 0)  -->
<!DOCTYPE svg PUBLIC "-//W3C//DTD SVG 1.1//EN" "http://www.w3.org/Graphics/SVG/1.1/DTD/svg11.dtd">
<svg version="1.1" id="Layer_1" xmlns="http://www.w3.org/2000/svg" xmlns:xlink="http://www.w3.org/1999/xlink" x="0px" y="0px"
	 viewBox="694 -494 2000 1781" enable-background="new 694 -494 2000 1781" xml:space="preserve">
<g id="surface1">
	<path fill="#F7C669" d="M1740.5-333.7c73.4,6.5,133.3,54.4,191.1,95.6c22.1,15.6,42.8,35.7,70,41.7c50.5,6.4,101.6-6.2,152,1.7
		c43.8,8.5,86.5,33.8,107.7,74.1c23.1,39.9,19,88.8,39.8,129.6c6.8,12.1,17.5,21.2,29.2,28.3c46.1,28,101.9,24.3,151.7,41.5
		c-19.8,16.7-42.6,30.2-59.6,50c-12.5,14.2-7.7,37.7,6.7,48.9c32.7,28.7,78.6,26.5,119,32.5c-23.3,26.6-65.5,39.9-72.4,78.2
		c-5.9,36.3,35.3,50.9,57.3,71c-19.3,14-41.3,24.9-56.9,43.3c-16.1,22.8-3.9,55.5,17.6,70.4c28.5,20.8,62,32.9,92.6,50.1
		c-38.5,8.3-82.3,9.4-113.8,36c-22.8,24.5,2.1,56.7,6.6,83.6c-26.3,9.6-60.8,12.7-75.2,40.3c-13.2,39.5,18.7,70.3,36.5,101.6
		c-32.5-0.4-65.2-6.7-97.5-1.9c-36.3,18.3-22.6,65.4-28,98c-30.3,4.1-68.1-9.1-92.3,14.5c-24.4,32.5-5.5,74.2-2.8,110.3
		c-28.3-21.4-55.9-59.7-96.2-48.9c-28.6,15.7-34.1,51.1-49.7,77.2c-28.5-12.7-58.3-37-91.2-24.8c-28.1,10.7-39.4,41.7-57,63.8
		c-25.1-18.6-46.2-55.9-82.7-43.5c-40.5,16.9-45.6,66.9-72.3,97.3c-12.3-37.2-11.7-85.9-47.9-109.4c-36.1-19.7-69.1,12.7-99.5,28.3
		c-9.5-27.9-5.9-74.1-43.3-80.2c-48.3-8-74.9,40.8-112.4,60.9c-1.3-39.7,15.5-84.6-6.3-120.8c-27.9-14.9-60.9-6.9-91.1-8.3
		c-5.1-28.8,5-71.5-27.3-86.5c-47.8-11.3-92.3,15.4-137.1,27.5c21.5-41.1,67.8-73.1,65.2-123.7c-3-33.4-44.4-33.5-68.4-44.1
		c4.7-28.9,25.5-67-3.5-89.4c-39.5-26-90.6-15.8-133.2-34.4c44-19,104.6-29.1,122.1-80.7c10.1-30.3-19.8-46.9-39.8-61.9
		c-3.7-5-7.1-10.3-10.3-15.6c16.5-13.7,34.1-26.5,47.9-43c13.9-17.5,10-44.1-5.7-59.1c-23.1-22.9-49.9-42.4-67.5-70.4
		c43.5-6.3,95.1-16.9,117.7-59.2c6.7-28.5-5.9-56.7-12.2-84.1c25.3-10.1,49.9-21.7,72.2-37.5c52.2-7.3,105.1-9.4,157.1-18.5
		c-17.1-25.1-37.9-47.2-59.3-68.6c31.7-16.1,59.1-38.5,86.2-61.1c30.8-25.9,68.1-42.1,100.1-66.3c-43.5-22.1-95.3-17.2-137.9-40.7
		c62.9-26.8,132.6-9.5,198.3-19.3c-18.5-17-39.5-31.2-60.2-45.4c71.7-15,141.5,12.9,212.5,16.2
		C1772.1-290.7,1754.7-311.1,1740.5-333.7z"/>
	<path fill="#C57B1F" d="M2440-193.7c19.1-17.6,53.2-27.2,73.6-6.4c31.8,33,51.7,80.4,43.1,126.6c-7.5,31.6-34.7,53.9-62.9,67.2
		c-51.5,23.9-108.5,31.4-163.5,43.6c-11.7-7.1-22.4-16.3-29.2-28.3C2342.7-61.4,2377.4-138.8,2440-193.7z"/>
	<path fill="#C57B1F" d="M1129.1-190.7c20.6-21.5,53.9-13.2,77.8-2.3c69.7,33.3,126.7,87.1,180.9,141.2
		c21.4,21.4,42.2,43.5,59.3,68.6c-52,9.1-104.9,11.2-157.1,18.5c-48.5-4-99.9-4-143.9-27.6c-29.7-15.4-50-47.4-50.7-80.9
		C1093-114.4,1100.5-159.3,1129.1-190.7z"/>
	<path fill="#FEFEFE" d="M1782.9-170c37.9-15.9,85.7-2.5,107.6,32.9c20.9,30.6,20.7,75.5-2.9,104.6
		c-35.7,47.3-122.7,42.7-148.8-12.4C1715.1-89.3,1734.5-151.8,1782.9-170z"/>
	<path fill="#FEFEFE" d="M2103.3-136c48.6-21,111.1,22.1,102.7,76c4.7,54.5-65.1,86.7-109.2,63.3c-16.5-9.6-30.2-24.5-37.1-42.3
		C2046.8-76,2065.7-122.4,2103.3-136z"/>
	<path fill="#C57B1F" d="M1823.5-117c22.9-18.9,60.6,8.1,50.1,35.7c-4.5,21.3-33,30.7-50.2,18.2
		C1804.9-74.7,1805.1-105.3,1823.5-117z"/>
	<path fill="#C57B1F" d="M2142.8-98c13.1-3.5,30.9-0.8,36.1,13.8c12.4,21.7-15.6,49.1-37.1,37.1C2121.5-54.1,2121.3-92.6,2142.8-98z
		"/>
	<path fill="#C57B1F" d="M1771,99.4c61,2.1,121.3,14.7,182.5,14.1c53.2,2.1,106-5.2,158.4-13.4c-16.1,31.3-22.6,65.9-20.2,101
		c-24.5,5.5-49.5,0.9-73.3-6.3c-68.6-20.1-135.7-45-202.3-70.7C1800,118,1785.1,109.2,1771,99.4z"/>
	<path fill="#C57B1F" d="M822.2,202c16.5-36.5,49.5-71.6,91.9-73.1c48.7-3.7,93.5,19.4,135.4,41.3c22.6,12.7,48.9,22.7,62.8,46
		c17.6,28,44.5,47.5,67.5,70.4c15.7,15,19.5,41.6,5.7,59.1c-13.9,16.5-31.4,29.3-47.9,43c3.2,5.3,6.6,10.6,10.3,15.6
		c-66,40.3-146.3,56.3-222.7,44.5c-44.9-8.5-89.9-34.5-108.7-78C793.1,317.3,799.5,254.4,822.2,202z"/>
	<path fill="#FEDFA9" d="M1708.4,282.1c137.1-42.3,285.3-45.9,425.1-14.8c70.2,18.5,141,47.3,192.1,100.6
		c31.7,32.1,61.5,68.9,72.7,113.6c19.5,76.8,1.9,158.9-35.5,227.5c-20.1,36.5-32.8,80.1-68.7,104.9c-33.7,23.9-61,56.3-97.8,75.9
		c-54.7,29.6-113.3,52.2-174.3,64.7c-75.1,16.5-152.5,13.7-228.8,10.4c-116.1-7.9-234.9-32.7-333.5-97.4
		c-114.7-70.3-187.3-195.4-214.8-324.9c-10.3-40.2-13-82.1-8.9-123.3c23.7,35.8,32.6,79,56.7,114.5
		c37.2,55.9,89.9,101.9,150.9,130.1c13.1,6.7,27.7,8.3,42,10.1c-0.9-57.5-18.1-115.4-2.9-172.4
		C1506.7,391.8,1604.9,313.9,1708.4,282.1z"/>
	<path fill="#FEFEFE" d="M1736.1,415.5c26.7-9.4,41.7,32.7,14.9,42.5C1724.2,467.6,1708.6,424.6,1736.1,415.5z"/>
	<path fill="#FEFEFE" d="M2129.6,436.2c28.5-11.3,68.5,8.1,61.9,42.4c-2.2,32.5-41.2,42.9-66.3,29.2
		C2101.7,490.5,2103.4,450,2129.6,436.2z"/>
	<path fill="#FEFEFE" d="M2282.4,461.7c36.6-9.9,50.7,46.5,24.4,65.4c-13.8,10.4-36,4.7-42.6-11.4
		C2255.9,497.2,2260.3,468,2282.4,461.7z"/>
	<path fill="#FEFEFE" d="M1876.5,509.1c13.1-3.1,30.3-3.3,38.6,9.5c12.3,19.9-1.5,52.6-27.9,46.8
		C1857.5,567.5,1851.1,519.4,1876.5,509.1z"/>
	<path fill="#FEFEFE" d="M2076.1,542.3c20.3-6.9,45.2,8.1,42.9,30.9c2.1,22.7-22.4,38-42.7,30.7
		C2047.5,597.5,2047.4,548.8,2076.1,542.3z"/>
	<path fill="#FEFEFE" d="M1936.5,616.3c11.1-3,23-2.9,34.3-0.5c17.9,12.7,20.1,43.5,2.6,57.3c-11,6.6-24.9,6.4-37.1,4.2
		C1918.2,663.8,1913.4,627.2,1936.5,616.3z"/>
	<path fill="#FEFEFE" d="M1696,622.1c26.7-9.6,42.4,33.1,14.8,42.1C1684.4,673.7,1669.1,631.5,1696,622.1z"/>
	<path fill="#FEFEFE" d="M2208.7,675.4c17.1-5,21,20.8,9.6,29.3C2201.5,708.7,2196.4,683.5,2208.7,675.4z"/>
</g>
</svg>
