<?xml version="1.0" encoding="UTF-8"?>
<svg xmlns="http://www.w3.org/2000/svg" xmlns:xlink="http://www.w3.org/1999/xlink" width="2000pt" height="1498pt" viewBox="0 0 2000 1498" version="1.1">
<g id="surface1">
<rect x="0" y="0" width="2000" height="1498" style="fill:rgb(100%,100%,100%);fill-opacity:1;stroke:none;"/>
<path style=" stroke:none;fill-rule:nonzero;fill:rgb(0.392157%,0.392157%,0.392157%);fill-opacity:1;" d="M 73.398438 95.023438 C 86.667969 94.890625 99.933594 94.890625 113.199219 94.957031 C 113.398438 121.011719 113.199219 147 113.535156 173.054688 C 152.265625 173.257812 191 173.191406 229.734375 173.257812 C 231.199219 186.183594 226.265625 200.976562 234.265625 212.304688 C 246.132812 214.105469 258.132812 213.171875 270.132812 213.570312 C 269.867188 252.355469 270.066406 291.136719 270 329.917969 C 256.734375 329.851562 243.398438 329.851562 230.066406 329.785156 C 230 343.113281 229.933594 356.507812 229.933594 369.835938 C 177.800781 370.035156 125.601562 369.4375 73.464844 370.035156 C 73.199219 278.34375 73.265625 186.71875 73.398438 95.023438 Z M 73.398438 95.023438 "/>
<path style=" stroke:none;fill-rule:nonzero;fill:rgb(0.392157%,0.392157%,0.392157%);fill-opacity:1;" d="M 351.667969 95.089844 C 377.734375 94.890625 403.800781 94.890625 429.867188 95.089844 C 430.132812 173.324219 429.933594 251.488281 430 329.71875 C 442.800781 329.851562 455.601562 329.917969 468.398438 329.988281 C 468.332031 343.246094 468.332031 356.574219 468.332031 369.835938 C 429.464844 369.96875 390.535156 369.703125 351.667969 369.902344 C 351.667969 356.574219 351.667969 343.246094 351.535156 329.851562 C 364.332031 329.851562 377.132812 329.851562 389.933594 329.851562 C 390.066406 264.882812 390 199.910156 390 134.941406 C 377.199219 134.941406 364.398438 135.007812 351.601562 135.007812 C 351.601562 121.679688 351.667969 108.351562 351.667969 95.089844 Z M 351.667969 95.089844 "/>
<path style=" stroke:none;fill-rule:nonzero;fill:rgb(0.392157%,0.392157%,0.392157%);fill-opacity:1;" d="M 629.933594 94.691406 C 643.332031 94.890625 656.734375 95.089844 670.066406 95.359375 C 670 108.617188 670 121.8125 670 135.074219 C 656.667969 135.007812 643.332031 134.941406 630.066406 134.941406 C 630 121.546875 630 108.085938 629.933594 94.691406 Z M 629.933594 94.691406 "/>
<path style=" stroke:none;fill-rule:nonzero;fill:rgb(0.392157%,0.392157%,0.392157%);fill-opacity:1;" d="M 1029.933594 94.957031 C 1043.265625 94.957031 1056.601562 95.089844 1069.933594 95.222656 C 1070 147.335938 1070.066406 199.445312 1069.933594 251.488281 C 1096.066406 251.421875 1122.265625 251.820312 1148.464844 251.355469 C 1148.265625 238.761719 1148.066406 226.097656 1148 213.503906 C 1160.867188 213.304688 1173.734375 213.171875 1186.667969 213.039062 C 1186.667969 225.898438 1186.667969 238.695312 1186.601562 251.554688 C 1173.867188 251.488281 1161.132812 251.488281 1148.464844 251.421875 C 1148.398438 264.816406 1148.332031 278.210938 1148.199219 291.605469 C 1122.066406 291.605469 1096 291.535156 1069.867188 291.535156 C 1070.066406 317.660156 1070 343.78125 1069.867188 369.96875 C 1056.535156 369.835938 1043.265625 369.769531 1030 369.835938 C 1029.933594 278.210938 1030.132812 186.582031 1029.933594 94.957031 Z M 1029.933594 94.957031 "/>
<path style=" stroke:none;fill-rule:nonzero;fill:rgb(0.392157%,0.392157%,0.392157%);fill-opacity:1;" d="M 1386.332031 95.023438 C 1399.265625 94.957031 1412.132812 94.890625 1425.066406 94.957031 C 1425 108.550781 1424.933594 122.144531 1424.800781 135.671875 C 1412.535156 133.339844 1399.332031 137.605469 1387.800781 132.140625 C 1385 119.945312 1387.265625 107.351562 1386.332031 95.023438 Z M 1386.332031 95.023438 "/>
<path style=" stroke:none;fill-rule:nonzero;fill:rgb(0.392157%,0.392157%,0.392157%);fill-opacity:1;" d="M 1786.667969 95.089844 C 1799.464844 94.957031 1812.265625 94.957031 1825.066406 94.957031 C 1825.066406 108.285156 1825 121.613281 1824.867188 134.941406 C 1812.199219 134.941406 1799.535156 135.007812 1786.867188 135.074219 C 1786.734375 121.746094 1786.667969 108.417969 1786.667969 95.089844 Z M 1786.667969 95.089844 "/>
<path style=" stroke:none;fill-rule:nonzero;fill:rgb(0.392157%,0.392157%,0.392157%);fill-opacity:1;" d="M 1585 94.957031 C 1598.265625 94.957031 1611.601562 94.957031 1624.933594 95.023438 C 1625.132812 173.324219 1625.066406 251.621094 1624.933594 329.851562 C 1637.734375 329.851562 1650.464844 329.851562 1663.265625 329.851562 C 1663.265625 343.179688 1663.199219 356.574219 1663.199219 369.902344 C 1624.398438 369.835938 1585.535156 369.769531 1546.667969 369.902344 C 1546.667969 356.574219 1546.667969 343.246094 1546.667969 329.917969 C 1559.398438 329.917969 1572.199219 329.917969 1585 329.851562 C 1585.132812 277.742188 1584.867188 225.566406 1585.132812 173.457031 C 1572.265625 173.324219 1559.464844 173.257812 1546.667969 173.191406 C 1546.667969 160.460938 1546.667969 147.667969 1546.734375 134.941406 C 1559.398438 134.875 1572.132812 134.941406 1584.933594 135.007812 C 1585 121.679688 1585 108.285156 1585 94.957031 Z M 1585 94.957031 "/>
<path style=" stroke:none;fill-rule:nonzero;fill:rgb(0.392157%,0.392157%,0.392157%);fill-opacity:1;" d="M 1825 134.941406 C 1838.332031 134.941406 1851.667969 135.007812 1865.066406 135.007812 C 1865 147.667969 1865 160.394531 1865.066406 173.121094 C 1851.667969 173.191406 1838.199219 173.191406 1824.800781 173.191406 C 1824.933594 160.394531 1825 147.667969 1825 134.941406 Z M 1825 134.941406 "/>
<path style=" stroke:none;fill-rule:nonzero;fill:rgb(0.392157%,0.392157%,0.392157%);fill-opacity:1;" d="M 1346.535156 134.808594 C 1359.464844 137.207031 1376.066406 129.140625 1385.933594 140.671875 C 1387.464844 151.464844 1386.667969 162.460938 1387.132812 173.324219 C 1374.332031 172.125 1360.398438 176.65625 1348.332031 171.589844 C 1343.199219 160.195312 1347.933594 146.800781 1346.535156 134.808594 Z M 1346.535156 134.808594 "/>
<path style=" stroke:none;fill-rule:nonzero;fill:rgb(0.392157%,0.392157%,0.392157%);fill-opacity:1;" d="M 591.464844 173.523438 C 617.667969 173.121094 643.867188 172.988281 670.132812 173.523438 C 669.933594 225.632812 670.132812 277.742188 670.066406 329.851562 C 682.800781 329.851562 695.601562 329.851562 708.398438 329.917969 C 708.265625 343.246094 708.265625 356.574219 708.199219 369.902344 C 669.398438 369.769531 630.535156 369.835938 591.734375 369.835938 C 591.734375 356.507812 591.734375 343.179688 591.667969 329.917969 C 604.464844 329.851562 617.265625 329.851562 630.066406 329.785156 C 629.933594 290.9375 630 252.085938 630 213.238281 C 617.199219 213.238281 604.464844 213.238281 591.667969 213.238281 C 591.667969 199.976562 591.601562 186.785156 591.464844 173.523438 Z M 591.464844 173.523438 "/>
<path style=" stroke:none;fill-rule:nonzero;fill:rgb(0.392157%,0.392157%,0.392157%);fill-opacity:1;" d="M 790 173.324219 C 842.535156 172.921875 895.066406 173.789062 947.601562 172.921875 C 947 183.652344 946.332031 194.445312 945.667969 205.242188 C 948.734375 208.175781 951.800781 211.105469 954.867188 214.039062 C 965.464844 213.503906 976.066406 213.105469 986.667969 212.90625 C 986.601562 265.214844 986.800781 317.59375 986.601562 369.96875 C 973.332031 369.835938 960 369.835938 946.734375 370.035156 C 946.535156 320.523438 946.535156 271.011719 947 221.566406 C 946.933594 215.769531 944.066406 212.90625 938.332031 212.90625 C 902.265625 213.238281 866.132812 213.304688 830.066406 213.238281 C 830.066406 265.480469 830.066406 317.660156 830 369.902344 C 816.601562 369.835938 803.265625 369.835938 790 369.835938 C 790 304.332031 790 238.828125 790 173.324219 Z M 790 173.324219 "/>
<path style=" stroke:none;fill-rule:nonzero;fill:rgb(0.392157%,0.392157%,0.392157%);fill-opacity:1;" d="M 1186.265625 173.589844 C 1199.734375 173.324219 1213.132812 173.191406 1226.601562 173.054688 C 1226.601562 186.449219 1226.667969 199.84375 1226.667969 213.238281 C 1213.398438 213.238281 1200.132812 213.304688 1186.867188 213.304688 C 1186.734375 200.042969 1186.535156 186.851562 1186.265625 173.589844 Z M 1186.265625 173.589844 "/>
<path style=" stroke:none;fill-rule:nonzero;fill:rgb(0.392157%,0.392157%,0.392157%);fill-opacity:1;" d="M 1308.199219 173.988281 C 1318.265625 173.457031 1328.398438 172.921875 1338.535156 172.257812 C 1341.464844 175.320312 1344.464844 178.386719 1347.464844 181.453125 C 1343.398438 217.238281 1351.933594 255.484375 1343.066406 289.804688 C 1332 293.734375 1319.933594 291.003906 1308.464844 291.738281 C 1308.066406 252.488281 1308.464844 213.238281 1308.199219 173.988281 Z M 1308.199219 173.988281 "/>
<path style=" stroke:none;fill-rule:nonzero;fill:rgb(0.392157%,0.392157%,0.392157%);fill-opacity:1;" d="M 1865.066406 173.121094 C 1877.800781 173.191406 1890.601562 173.324219 1903.398438 173.390625 C 1903.332031 212.839844 1903.265625 252.222656 1903.332031 291.605469 C 1890.535156 291.535156 1877.800781 291.535156 1865.066406 291.535156 C 1864.933594 252.019531 1864.933594 212.570312 1865.066406 173.121094 Z M 1865.066406 173.121094 "/>
<path style=" stroke:none;fill-rule:nonzero;fill:rgb(100%,100%,100%);fill-opacity:1;" d="M 113.332031 213.238281 C 150.800781 214.039062 188.398438 211.707031 225.734375 214.171875 C 226.734375 216.105469 228.667969 219.902344 229.667969 221.769531 C 230.667969 257.820312 229.800781 293.871094 229.800781 329.851562 C 191 329.917969 152.132812 329.785156 113.265625 329.785156 C 113.398438 290.9375 113.332031 252.085938 113.332031 213.238281 Z M 113.332031 213.238281 "/>
<path style=" stroke:none;fill-rule:nonzero;fill:rgb(0.392157%,0.392157%,0.392157%);fill-opacity:1;" d="M 1148.265625 291.605469 C 1161.398438 291.535156 1174.667969 291.535156 1187.867188 291.46875 C 1186.800781 304.664062 1187.734375 318.191406 1183.132812 330.785156 C 1174.464844 330.453125 1157.066406 329.785156 1148.332031 329.453125 C 1148.332031 316.792969 1148.265625 304.199219 1148.265625 291.605469 Z M 1148.265625 291.605469 "/>
<path style=" stroke:none;fill-rule:nonzero;fill:rgb(0.392157%,0.392157%,0.392157%);fill-opacity:1;" d="M 1347.867188 294.402344 C 1360.066406 289.269531 1373.734375 292.203125 1386.601562 291.335938 C 1386.601562 304.199219 1386.601562 316.992188 1386.667969 329.851562 C 1373.132812 329.851562 1359.667969 329.785156 1346.132812 329.785156 C 1346.734375 317.992188 1345.601562 306.0625 1347.867188 294.402344 Z M 1347.867188 294.402344 "/>
<path style=" stroke:none;fill-rule:nonzero;fill:rgb(0.392157%,0.392157%,0.392157%);fill-opacity:1;" d="M 1824.933594 291.46875 C 1838.265625 291.535156 1851.667969 291.535156 1865.066406 291.46875 C 1865 304.265625 1865 317.058594 1865 329.917969 C 1851.667969 329.851562 1838.332031 329.851562 1825.066406 329.71875 C 1825.066406 316.992188 1824.933594 304.199219 1824.933594 291.46875 Z M 1824.933594 291.46875 "/>
<path style=" stroke:none;fill-rule:nonzero;fill:rgb(0.392157%,0.392157%,0.392157%);fill-opacity:1;" d="M 1186 369.902344 C 1186.667969 356.175781 1185.332031 342.046875 1190.066406 328.855469 C 1202.265625 329.585938 1214.464844 330.054688 1226.667969 330.320312 C 1226.667969 343.445312 1226.667969 356.640625 1226.667969 369.835938 C 1213.066406 369.769531 1199.535156 369.835938 1186 369.902344 Z M 1186 369.902344 "/>
<path style=" stroke:none;fill-rule:nonzero;fill:rgb(0.392157%,0.392157%,0.392157%);fill-opacity:1;" d="M 1386.667969 329.851562 C 1399.464844 329.917969 1412.265625 329.917969 1425.066406 329.917969 C 1425.066406 343.3125 1425 356.640625 1424.933594 370.035156 C 1412.199219 369.902344 1399.398438 369.902344 1386.667969 369.902344 C 1386.667969 356.507812 1386.667969 343.179688 1386.667969 329.851562 Z M 1386.667969 329.851562 "/>
<path style=" stroke:none;fill-rule:nonzero;fill:rgb(0.392157%,0.392157%,0.392157%);fill-opacity:1;" d="M 1786.601562 329.785156 C 1799.332031 329.851562 1812.132812 329.851562 1824.933594 329.917969 C 1824.933594 343.179688 1825 356.441406 1825.066406 369.769531 C 1812.332031 369.835938 1799.601562 369.902344 1786.867188 370.035156 C 1786.734375 356.574219 1786.601562 343.179688 1786.601562 329.785156 Z M 1786.601562 329.785156 "/>
<path style=" stroke:none;fill-rule:nonzero;fill:rgb(0.392157%,0.392157%,0.392157%);fill-opacity:1;" d="M 79.332031 594.070312 C 259.332031 552.289062 439.535156 511.304688 619.667969 469.992188 C 706.601562 507.90625 793.667969 545.289062 880.535156 583.207031 C 882.601562 592.535156 885.667969 602 896.132812 604.464844 C 994.199219 649.578125 1092.332031 694.625 1190.464844 739.539062 C 1188.535156 775.589844 1184.667969 811.570312 1182.332031 847.621094 C 1277 898.867188 1370.332031 952.574219 1464.867188 1004.21875 C 1465.535156 1094.3125 1462 1184.40625 1463.199219 1274.566406 C 1309.199219 1321.480469 1155.199219 1368.125 1001.199219 1414.96875 C 953.199219 1381.851562 905.132812 1348.800781 857.132812 1315.679688 C 794.332031 1338.605469 732.066406 1363.058594 669.265625 1386.050781 C 607.398438 1351.730469 545.132812 1318.011719 483.199219 1283.828125 C 463.800781 1270.902344 440.867188 1284.09375 420.066406 1286.292969 C 309.734375 1220.125 199.332031 1153.953125 89.132812 1087.648438 C 85.734375 923.121094 84.867188 758.527344 79.332031 594.070312 Z M 79.332031 594.070312 "/>
<path style=" stroke:none;fill-rule:nonzero;fill:rgb(31.372549%,31.372549%,31.372549%);fill-opacity:1;" d="M 566.800781 507.507812 C 588.535156 502.910156 612.265625 495.046875 633.464844 505.839844 C 707.800781 538.425781 782.265625 570.613281 856.734375 602.933594 C 859.734375 609.0625 862.734375 615.191406 865.734375 621.390625 C 951.398438 658.640625 1037.933594 694.089844 1122.199219 734.339844 C 972.398438 777.789062 822.464844 820.636719 672.734375 864.214844 C 612.667969 834.160156 553 803.375 493.199219 772.855469 C 471.867188 762.128906 446.199219 772.65625 424.933594 761.261719 C 322.867188 710.484375 220.199219 660.839844 118.199219 609.796875 C 267.332031 574.144531 417.464844 542.492188 566.800781 507.507812 Z M 566.800781 507.507812 "/>
<path style=" stroke:none;fill-rule:nonzero;fill:rgb(65.098039%,65.098039%,65.098039%);fill-opacity:1;" d="M 111.066406 640.78125 C 218.464844 694.089844 326.265625 746.734375 433.199219 801.109375 C 451.535156 799.445312 471.464844 793.980469 488.265625 804.574219 C 547 835.628906 605.867188 866.679688 665.265625 896.46875 C 665.199219 909.0625 665.199219 921.65625 665.132812 934.25 C 602.535156 898.332031 538.667969 864.683594 476.800781 827.433594 C 461.667969 829.699219 446.601562 832.628906 431.601562 835.894531 C 326.199219 785.25 221.535156 732.941406 115.464844 683.761719 C 114 669.433594 112.398438 655.109375 111.066406 640.78125 Z M 111.066406 640.78125 "/>
<path style=" stroke:none;fill-rule:nonzero;fill:rgb(96.862745%,57.254902%,11.764706%);fill-opacity:1;" d="M 113.667969 727.542969 C 213.601562 773.65625 312.667969 821.5 412.800781 867.082031 C 413.667969 988.828125 413.667969 1110.574219 412.867188 1232.316406 C 315.066406 1177.742188 217.535156 1122.632812 119.933594 1067.589844 C 119.601562 954.242188 115.132812 840.890625 113.667969 727.542969 Z M 113.667969 727.542969 "/>
<path style=" stroke:none;fill-rule:nonzero;fill:rgb(31.372549%,31.372549%,31.372549%);fill-opacity:1;" d="M 693.734375 893.734375 C 845.332031 846.15625 997.132812 798.910156 1149.332031 753.199219 C 1148 767.992188 1146.667969 782.851562 1145.265625 797.644531 C 1017.867188 837.425781 890.535156 877.609375 763.199219 917.589844 C 737.066406 927.988281 715.199219 904.996094 693.734375 893.734375 Z M 693.734375 893.734375 "/>
<path style=" stroke:none;fill-rule:nonzero;fill:rgb(85.882353%,85.882353%,85.882353%);fill-opacity:1;" d="M 1130.199219 874.609375 C 1147.535156 867.480469 1163.066406 881.472656 1178.265625 887.738281 C 1261.464844 929.851562 1345.199219 970.96875 1428.398438 1013.148438 C 1294.265625 1055.730469 1159.800781 1097.046875 1025.667969 1139.625 C 1014.132812 1142.292969 1001.066406 1149.953125 990.265625 1141.160156 C 902.199219 1090.316406 813.601562 1040.402344 725.734375 989.292969 C 860.464844 950.910156 995.332031 912.792969 1130.199219 874.609375 Z M 1130.199219 874.609375 "/>
<path style=" stroke:none;fill-rule:nonzero;fill:rgb(96.862745%,57.254902%,11.764706%);fill-opacity:1;" d="M 444.800781 882.875 C 452.800781 882.273438 460.800781 881.808594 468.800781 881.472656 C 466.464844 1003.6875 471.332031 1125.898438 469.734375 1248.109375 C 461.398438 1249.042969 453.066406 1249.910156 444.734375 1250.644531 C 445.199219 1128.097656 445.265625 1005.484375 444.800781 882.875 Z M 444.800781 882.875 "/>
<path style=" stroke:none;fill-rule:nonzero;fill:rgb(96.862745%,57.254902%,11.764706%);fill-opacity:1;" d="M 496.800781 907.0625 C 545.066406 933.585938 594.132812 958.972656 641.464844 987.027344 C 645.667969 1102.710938 642.265625 1218.992188 643.265625 1334.871094 C 595.464844 1311.214844 548.667969 1285.5625 500.464844 1262.839844 C 499.601562 1144.222656 496.332031 1025.675781 496.800781 907.0625 Z M 496.800781 907.0625 "/>
<path style=" stroke:none;fill-rule:nonzero;fill:rgb(0.392157%,0.392157%,0.392157%);fill-opacity:1;" d="M 1078.601562 971.902344 C 1103.535156 964.902344 1128.535156 957.972656 1153.867188 952.441406 C 1163.265625 948.710938 1172.066406 955.242188 1180.398438 958.707031 C 1207.734375 972.367188 1235.132812 985.894531 1262 1000.421875 C 1234.265625 1008.085938 1206.535156 1015.882812 1178.398438 1021.8125 C 1144.066406 1007.617188 1111.535156 989.09375 1078.601562 971.902344 Z M 1078.601562 971.902344 "/>
<path style=" stroke:none;fill-rule:nonzero;fill:rgb(0.392157%,0.392157%,0.392157%);fill-opacity:1;" d="M 924.800781 1010.75 C 952.667969 1003.753906 980.265625 995.492188 1008.464844 989.960938 C 1044 1002.621094 1075.933594 1023.34375 1109.933594 1039.539062 C 1081.601562 1047.265625 1053.132812 1054.132812 1024.800781 1061.726562 C 991.601562 1044.46875 958.066406 1027.875 924.800781 1010.75 Z M 924.800781 1010.75 "/>
<path style=" stroke:none;fill-rule:nonzero;fill:rgb(96.862745%,57.254902%,11.764706%);fill-opacity:1;" d="M 673.535156 1007.351562 C 692.464844 1030.941406 711.132812 1054.730469 729.734375 1078.585938 C 730.199219 1161.816406 730 1245.113281 729.800781 1328.34375 C 711.066406 1335.9375 692.535156 1343.933594 674 1351.796875 C 672.535156 1236.984375 673.398438 1122.167969 673.535156 1007.351562 Z M 673.535156 1007.351562 "/>
<path style=" stroke:none;fill-rule:nonzero;fill:rgb(31.372549%,31.372549%,31.372549%);fill-opacity:1;" d="M 726.601562 1024.945312 C 789.667969 1056.464844 849.398438 1094.3125 911.066406 1128.363281 C 935.867188 1143.359375 963.199219 1154.753906 985.535156 1173.542969 C 988.332031 1230.519531 985.867188 1287.828125 988.601562 1344.933594 C 929.332031 1277.164062 874.601562 1205.664062 817 1136.496094 C 787.199219 1099.042969 755.464844 1063.125 726.601562 1024.945312 Z M 726.601562 1024.945312 "/>
<path style=" stroke:none;fill-rule:nonzero;fill:rgb(65.098039%,65.098039%,65.098039%);fill-opacity:1;" d="M 1316.132812 1082.785156 C 1353.464844 1067.390625 1390.933594 1052.332031 1428.332031 1037.070312 C 1428.667969 1104.308594 1428.332031 1171.546875 1428.601562 1238.78125 C 1391.265625 1226.722656 1353.800781 1215.058594 1316.535156 1202.929688 C 1316.464844 1162.882812 1316.667969 1122.832031 1316.132812 1082.785156 Z M 1316.132812 1082.785156 "/>
</g>
</svg>
