<?xml version="1.0" encoding="utf-8"?>
<!-- Generator: Adobe Illustrator 18.1.1, SVG Export Plug-In . SVG Version: 6.00 Build 0)  -->
<!DOCTYPE svg PUBLIC "-//W3C//DTD SVG 1.1//EN" "http://www.w3.org/Graphics/SVG/1.1/DTD/svg11.dtd">
<svg version="1.1" id="Layer_1" xmlns="http://www.w3.org/2000/svg" xmlns:xlink="http://www.w3.org/1999/xlink" x="0px" y="0px"
	 viewBox="0 0 612 792" enable-background="new 0 0 612 792" xml:space="preserve">
<g id="surface1">
	<path fill="#333333" d="M433.3,462.4c-36.3,62.9-121.7,81.5-190.7,41.7c-69-39.8-95.5-123.1-59.2-186s121.7-81.5,190.7-41.7
		C443.1,316.3,469.6,399.6,433.3,462.4z"/>
	<path fill="#333333" d="M167.8,384.9c4.8,103.3,122.3,171.5,215.5,124.1C304.2,484.8,226.7,440.6,167.8,384.9z"/>
	<path fill="#333333" d="M314.8,257.1c53.7,8,84.7,34.1,105.6,61c12.1,15.1,22.8,37.9,26,57c-67.5-12.6-144.8-53.9-193.6-112
		C271.9,256.8,293.1,254.1,314.8,257.1z"/>
	<path fill="#333333" d="M314,257c29.3,32.7,70.3,55.4,108,63C391,280,353.5,261.6,314,257z"/>
	<path fill="#333333" d="M167.7,373.1c64.8,60.2,139,105.5,225.6,130.2c-3,2.1-6.4,3.8-9.7,5.6c-80.7-24.3-154.4-66.8-215.8-124.4
		C167.5,379.8,167.6,377.3,167.7,373.1z"/>
	<path fill="#333333" d="M206.6,290.2C262.8,352.3,372,418,445.9,428.4c-0.5,2.1-1,4.1-1.6,6.1c-74.4-10.3-185.8-76.7-242.4-139.9
		C203.5,293.2,205,291.6,206.6,290.2z"/>
	<path fill="#579BD3" d="M442.5,460.8c-36.3,62.9-121.7,81.5-190.7,41.7c-69-39.8-95.5-123.1-59.2-186
		c36.3-62.9,121.7-81.6,190.7-41.7C452.3,314.6,478.8,397.9,442.5,460.8z"/>
	<path fill="#333333" d="M218.4,269.8C104.2,213.3,15.7,188.4,2,213.2c-18.3,33,103,141.7,270.8,242.6
		c167.8,100.9,318.9,156,337.2,123c13.4-24.1-48.2-88.9-147.8-161.3c0,0.6-0.2,1.1-0.2,1.6c95.7,70,154.7,132.3,141.7,155.7
		c-17.9,32.3-165.6-21.6-329.7-120.3S-8.7,249.5,9.2,217.2c13.3-24,98.1-0.4,207.9,53.6C217.5,270.5,218,270.2,218.4,269.8z"/>
	<path fill="#333333" d="M216.7,271.1c-108.9-53.5-192.9-76.7-206.1-53c-17.8,32.1,100.2,137.9,263.5,236S584.4,606,602.2,573.9
		c12.9-23.2-45.4-84.9-140.2-154.4c-0.2,2.8-0.5,5.6-0.9,8.3c77.1,58.3,123.2,109,112.2,128.7c-16.1,29-148.7-19.4-296.1-108
		s-253.9-184-237.8-213c11.3-20.3,80-2.5,170.7,40.5C212.4,274.2,214.6,272.7,216.7,271.1z"/>
	<path fill="#333333" d="M196.8,288.5c-50.6-20.6-86.6-27.3-93.6-14.7c-12.2,22.1,68.9,94.7,181.1,162.1s213.2,104.3,225.4,82.3
		c6.6-12-14.3-38.8-52.5-71.5c-0.9,3.3-2,6.6-3.2,9.9c20.2,19.9,30.2,35.7,25.8,43.7c-10.4,18.8-96.6-12.6-192.3-70.2
		c-95.7-57.5-164.9-119.5-154.5-138.3c4.9-8.8,26.3-6.5,57.3,4.1C192.5,293.3,194.6,290.8,196.8,288.5z"/>
	<path fill="#333333" d="M208.9,276.9c-87.1-40.8-152.5-57.5-163.4-37.9C29.8,267.4,133.9,360.7,278,447.3s273.7,133.9,289.4,105.6
		c10.6-19-33.1-67.4-106.4-123.3c-0.9,5.8-2.2,11.4-3.8,17c38.2,32.8,59.1,59.6,52.5,71.5c-12.2,22.1-113.2-14.8-225.4-82.3
		S91,295.9,103.2,273.8c7-12.6,43.1-5.9,93.6,14.7C200.7,284.4,204.7,280.5,208.9,276.9z"/>
</g>
</svg>
