<?xml version="1.0" encoding="utf-8"?>
<!-- Generator: Adobe Illustrator 18.1.1, SVG Export Plug-In . SVG Version: 6.00 Build 0)  -->
<svg version="1.1" id="Layer_1" xmlns="http://www.w3.org/2000/svg" xmlns:xlink="http://www.w3.org/1999/xlink" x="0px" y="0px"
	 viewBox="0 0 227 230.7" enable-background="new 0 0 227 230.7" xml:space="preserve">
<g>
	<path fill="#6F5291" d="M38,76.9c36.3-1.8,36.4-1.9,39.1-40.3C78.5,16.5,94.9,0,113.4,0c19.9,0,36.9,17.5,37.3,38.5
		c0.5,25.6,11.6,36.8,37.6,38.2c34.4,1.9-28.8,62-33.7,46.6c-1-3.2-0.8-6.8-0.9-10.2c-0.9-36.4-6.8-42.3-42.8-42.2
		c-29.2,0.1-33.2,3.7-36.2,33.2c-0.6,5.9-0.6,12.1-2.1,17.8C68.5,137.3,17.5,77.9,38,76.9"/>
	<path display="none" fill="#6F5291" d="M153.3,192.5c-0.3,19.9-20.2,39.1-39.4,38.2c-16.3-0.8-36.9-23.2-36.8-40
		c0.1-17.9,19.2-36,37.5-35.6C132.7,155.6,153.6,175.8,153.3,192.5z"/>
	<circle fill="#6F5291" cx="113.5" cy="192.9" r="37.8"/>
	<circle fill="#6F5291" cx="189.1" cy="113.9" r="37.8"/>
	<circle fill="#6F5291" cx="37.8" cy="113.9" r="37.8"/>
	<circle fill="#6F5291" cx="113.5" cy="37.8" r="37.8"/>
</g>
</svg>
