<?xml version="1.0" encoding="utf-8"?>
<!-- Generator: Adobe Illustrator 18.1.1, SVG Export Plug-In . SVG Version: 6.00 Build 0)  -->
<!DOCTYPE svg PUBLIC "-//W3C//DTD SVG 1.1//EN" "http://www.w3.org/Graphics/SVG/1.1/DTD/svg11.dtd">
<svg version="1.1" id="Layer_1" xmlns="http://www.w3.org/2000/svg" xmlns:xlink="http://www.w3.org/1999/xlink" x="0px" y="0px"
	 viewBox="0 0 612 792" enable-background="new 0 0 612 792" xml:space="preserve">
<g id="surface1">
	<path fill="#8BABB7" d="M531.1,500.9c-4.2,0.4-9.8-1.7-13.1-6.7c-3.9-6-7.1-4.9-12.3-1.7c-10.6,6.6-22.1,10.2-34.9,7.4
		c-4.4-0.9-9.5-2.6-11.5-6c-6.1-10.4-12.3-7.6-20.3-2.4c-7.1,4.6-15.4,7.1-23.7,8.7c-9.6,1.9-18.7,0.6-24.1-8.7
		c-3-5.2-5.1-3.1-8.7-1.2c-11.1,5.9-22.4,11.1-35.6,10.5c-16.9-0.8-27.2-14.8-21.8-30.9c9.3-27.8,23.9-53.2,37.1-79.2
		c3.5-7,11-8.1,17.7-4.9c6.4,3,8,8.7,4.7,15.5c-8.9,18.7-17.7,37.4-26.5,56.1c-1.4,3.1-3.2,6.1-4,9.3c-1.4,5.8,1.5,9.2,7.1,7.2
		c12.5-4.6,24.5-10.3,30.9-23.2c9.1-18.2,18.2-36.4,27.2-54.7c1.8-3.7,3.7-7.4,7.3-9.6c5-3,10.8-3.5,15.3,0.1
		c6.1,4.8,4.6,11.7,1.8,17.7c-8.8,18.8-18,37.3-26.7,56c-1.8,3.9-7,8.3-1.7,12.6c4.3,3.5,8.6,0.5,13-2c12.1-6.8,21.1-15.3,27.5-28.4
		c14.4-29.2,40-46.3,70.8-53.2c17.5-3.9,27.9-11.4,33.8-27.8c3.9-11.1,8.9-22,15.6-31.9c4.8-7.1,10.2-10.9,18.6-6.2
		c8,4.4,6.8,10.6,3.5,17.4c-17.3,35.8-34.5,71.5-51.7,107.3c-2.6,5.5-4.9,11.2-6.9,16.9c-0.8,2.3-3,5-0.3,7.5
		c2.9,2.6,6.6,2.5,9.5,0.9c6.5-3.7,12.6-8,18.8-12c4.5-3,9-6,13.5-9c5-3.3,9.7-2.7,13.8,1.3c4.7,4.5,2.5,9,0,13.8
		c-3,5.8-8.4,8.8-13.3,12.3C567.2,490.3,552.1,500.1,531.1,500.9z"/>
	<path fill="#8BABB7" d="M101.6,500.9c-18.5-0.6-35.2,1.4-51.5-3.8c-22.8-7.3-38.2-27.8-38.9-51.6c-1-34,12.5-62.9,33.1-88.5
		c20.9-25.9,46.6-46.2,78-58.4c16.2-6.3,33-10.6,50.6-6.6c21.8,5,30.4,19.8,23,40.8c-4.6,13.1-9.9,26-16.8,38.2
		c-5,8.8-12.8,12.4-20.1,8.6c-8.5-4.5-8.1-11.7-4.8-19.2c3.9-9,8-17.9,12.1-26.9c2.2-4.8,3.8-9.9,0.1-14.4c-3.4-4.1-8-3.3-13-2.2
		c-31.5,6.8-56.2,24.7-77.6,47.6c-16.6,17.8-28.2,38.6-33.1,63c-3.8,19.1,3.7,38.4,19.2,43.3c7.9,2.5,16.6,3.1,25,3.4
		c16.3,0.5,32.6,0.1,49,0.2c6.2,0.1,12.9,0.2,14,8.4c1.2,8.4-1.4,14.4-10.7,16.6C126,502.4,112.7,499.5,101.6,500.9z"/>
	<path fill="#FFFFFF" d="M487.2,474.3c-8.8,0.2-12.8-5.4-10.2-15.2c4-14.9,14.7-24.8,26.9-33c7.3-4.9,15.1-9,23.4-11.9
		c3.5-1.2,7.6-0.6,5.3,3.5c-9.9,17.7-13.4,39.6-32.4,51.5C496.4,471.7,492.3,474.4,487.2,474.3z"/>
	<path fill="#8BABB7" d="M329.5,427.4c-2.9,27.7-14.9,53.9-44.4,69c-17.7,9.1-33.7,5.9-46.9-8.6c-3.2-3.6-4.9-3.8-8.8-1.3
		c-11.8,7.4-23.8,14.6-38.5,14.4c-19-0.2-29.4-13.3-24.8-31.5c1.2-4.6,2.5-9.2,4.5-13.4c20.2-41.5,40.4-83,60.9-124.3
		c5.1-10.2,12-12.9,19.4-8.5c9.3,5.4,6.3,13.4,2.9,20.4c-14.5,30.3-29.4,60.4-44.1,90.7c-4.6,9.5-8.9,19.1-13.3,28.6
		c-1.6,3.5-3.4,7.5-0.1,10.3c3.1,2.7,7.2,1.1,10.5-0.9c12-7.3,23-13.7,26.3-30.5c5-25.6,19.8-46,45.9-55
		C307.6,377,329.6,393.4,329.5,427.4z"/>
	<path fill="#FFFFFF" d="M301.1,424.8c-1.2,17.1-9.1,31.5-19.2,44.7c-3.9,5.2-10.7,6.7-16.6,3.8c-6-2.9-7.9-8.9-6.7-15.6
		c2.4-13.8,7.5-26.5,15.6-38c1-1.4,1.8-2.8,2.9-4.1c4.8-5.5,11.1-8.7,18.1-5.9C301.4,412.3,301,418.9,301.1,424.8z"/>
</g>
</svg>
