<?xml version="1.0" encoding="utf-8"?>
<!-- Generator: Adobe Illustrator 18.1.1, SVG Export Plug-In . SVG Version: 6.00 Build 0)  -->
<!DOCTYPE svg PUBLIC "-//W3C//DTD SVG 1.1//EN" "http://www.w3.org/Graphics/SVG/1.1/DTD/svg11.dtd">
<svg version="1.1" id="Layer_1" xmlns="http://www.w3.org/2000/svg" xmlns:xlink="http://www.w3.org/1999/xlink" x="0px" y="0px"
	 viewBox="694 -604 2000 2000" enable-background="new 694 -604 2000 2000" xml:space="preserve">
<g id="surface1">
	<path fill="#C4C2C2" d="M1996.7-13.8c122.6,0,245.2,2.7,367.7-1.1c65.1-2,54.5,44.4,55.9,78.4c1.9,47.1-33,24.3-57.1,24.1
		c-206.2-2.2-412.4-3.6-618.6-4.5c-48.6-0.2-68.4,29.1-68.6,74.8c-0.1,57.2-0.8,114.4-0.1,171.6c1,84.6,14.1,98,101.3,98.4
		c153.2,0.8,306.5-2.5,459.6,1.7c47,1.3,101.1,10.5,137.8,36.3c33.3,23.4,63.8,73.1,66.8,113.4c8.7,117.8,5.4,236.8,2.4,355.2
		c-2.3,89.3-75.7,157.9-177.4,159.3c-239,3.4-478,1.6-717,1c-60.8-0.1-56.7-47.9-58.2-88c-2-51.8,36.3-37,65-36.4
		c205.7,4.3,411.4,9.6,617.2,12.7c53.7,0.8,82.8-28.5,82.5-84.2c-0.3-69.4-0.5-138.9,0-208.4c0.4-52.6-21.4-78.1-77.4-77.3
		c-147.1,2-294.2,2.1-441.3-0.2c-48.5-0.8-98.1-6.1-144.9-18.2c-57.3-14.8-100-56.1-103.3-115.6c-6.4-115.9-8.8-232.6-3-348.5
		c5-98.5,62.5-144.4,161.4-145c116.4-0.6,232.9-0.1,349.3-0.1C1996.7-14.3,1996.7-14.1,1996.7-13.8z"/>
	<path fill="#30C4C9" d="M1796.7-210.4c-195.8,0-387.3,0-578.8,0c-82.5,0-95.7,13.9-95.7,96.1c0,243-0.3,486-0.9,729.1
		c-0.2,70.5,10,82.6,80.7,82.2c171.5-1.1,343-3,514.5-5.2c39.8-0.5,74.2-0.4,68.1,57c-3.3,31.3-13.9,42.5-44.8,42.5
		c-200.1-0.3-400.3,2.5-600.4-0.6c-42.8-0.7-90.4-13.2-126.5-35.4c-43.5-26.8-72.9-67.4-72-129.3c3.7-251.2,1.5-502.4,1.6-753.7
		c0.1-103.6,70.8-175.4,173.1-175.6c202.2-0.3,404.3-0.3,606.5-0.5C1802.8-303.8,1805.9-300.2,1796.7-210.4z"/>
</g>
</svg>
