<?xml version="1.0" encoding="utf-8"?>
<!-- Generator: Adobe Illustrator 18.1.1, SVG Export Plug-In . SVG Version: 6.00 Build 0)  -->
<!DOCTYPE svg PUBLIC "-//W3C//DTD SVG 1.1//EN" "http://www.w3.org/Graphics/SVG/1.1/DTD/svg11.dtd">
<svg version="1.1" id="Layer_1" xmlns="http://www.w3.org/2000/svg" xmlns:xlink="http://www.w3.org/1999/xlink" x="0px" y="0px"
	 viewBox="694 -604 2000 2000" enable-background="new 694 -604 2000 2000" xml:space="preserve">
<g id="surface1">
	<path fill="#54B948" d="M1419.1,380.9c3.4-64.1,28.5-122.4,68.3-167.6L1029.9-244C873.5-81.1,776.1,138.7,772.4,380.9H1419.1z"/>
	<path fill="#F6A01A" d="M1507.8,192.3c44.8-41.4,103.4-68.1,168-72.5v-647.6c-243,4.9-462.9,104.2-625.1,262.9L1507.8,192.3z"/>
	<path fill="#54B948" d="M1705.1,119.3c65.9,2.4,125.9,27.9,172.2,68.6L2333-267.8c-164.2-158.4-385.6-257.4-627.8-260.2V119.3z"/>
	<path fill="#54B948" d="M2353.9-247.1l-455.7,455.7c32.9,35.7,56.3,79.9,66.6,129.3h650.8C2601.4,111.7,2503.6-93.2,2353.9-247.1"
		/>
	<path fill="#54B948" d="M1487.3,578.1c-39.8-45.2-64.8-103.6-68.2-167.7H772.4c3.7,242.3,101.1,462.3,257.4,625.2L1487.3,578.1z"/>
	<path fill="#54B948" d="M1675.8,671.6c-64.7-4.4-123.2-31.1-168-72.5l-457.3,457.4c162,158.9,382.3,258.3,625.3,263.2V671.6z"/>
	<path fill="#54B948" d="M2181.5,907.5l-31,30.9l-308.2-308.7c-40.1,25.3-86.8,40.3-137.1,42.3v648c242.2-2.9,463.9-102,628.2-260.7
		L2181.5,907.5z"/>
	<path fill="#54B948" d="M1964.6,453.5c-7.4,34.7-21.1,66.9-40.1,95.3l307.6,308l-29.9,29.9l151.9,151.9
		c149.7-153.8,247.1-358.9,261.5-585.1L1964.6,453.5L1964.6,453.5z"/>
</g>
</svg>
