<?xml version="1.0" encoding="utf-8"?>
<!-- Generator: Adobe Illustrator 18.1.1, SVG Export Plug-In . SVG Version: 6.00 Build 0)  -->
<!DOCTYPE svg PUBLIC "-//W3C//DTD SVG 1.1//EN" "http://www.w3.org/Graphics/SVG/1.1/DTD/svg11.dtd">
<svg version="1.1" id="Layer_1" xmlns="http://www.w3.org/2000/svg" xmlns:xlink="http://www.w3.org/1999/xlink" x="0px" y="0px"
	 viewBox="0 0 612 792" enable-background="new 0 0 612 792" xml:space="preserve">
<g id="surface1">
	<path fill="#17140F" d="M85.3,367.8l-0.6-12.7c-1.4,1.8-11.9,15.5-35.4,15.5C29.8,370.6,4,357.9,4,319.1
		c0-24.9,16.1-50.9,47.9-50.9c20.5,0,29.8,11.9,31.6,14.1v-50.9h24.1v136.3H85.3z M56.3,288C40,288,29,300.8,29,319.1
		c0,20.5,11.3,31.6,27.1,31.6c15.3,0,27.8-11.5,27.8-31.6C83.9,299.8,72,288,56.3,288"/>
	<path fill="#17140F" d="M311,367.8l-0.6-12.5c-0.6,1-10.1,15.3-31.6,15.3c-11.5,0-19.9-3.4-25.9-9.2c-9.1-9.1-10.3-20.1-10.3-33.4
		v-56.3h24.1v54.5c0,7.6,0.4,13.9,5,18.3c3.4,3.4,8.2,5.2,14.7,5.2c5,0,11.4-1.8,15.9-6.2c5.2-5.2,6.2-12.1,6.6-20.5
		c0.2-3.6,0.2-7.3,0.2-11.1v-40.2h24.1v96.1L311,367.8L311,367.8z"/>
	<path fill="#17140F" d="M409,370.6c-21.9,0-31.6-12.9-32.6-14.3l-0.6,11.4h-22.3V231.5h24.1v52.1c1.2-1.6,11.9-15.3,34.4-15.3
		c19.9,0,45.1,13.7,45.1,51.5C457,345.3,440.3,370.6,409,370.6 M404.9,288.4c-15.5,0-27.8,11.8-27.8,31.5c0,19.1,11.9,31,27.6,31
		c16.1,0,27.4-12.5,27.4-31C432.1,299.8,421,288.4,404.9,288.4"/>
	<path fill="#17140F" d="M471.4,231.5h24.2v136.3h-24.2V231.5z"/>
	<path fill="#17140F" d="M535.6,327.2c0,10.6,7.9,24.5,27,24.5c16.7,0,26.3-9.6,29.2-12.7l13.5,12.5c-6.5,7.4-19.9,19.3-43.5,19.3
		c-34.6,0-50.9-23.7-50.9-50.9c0-26.7,16.9-51.7,50.5-51.7c8.7,0,21.8,1.8,32.2,12.3c12.9,12.9,14.5,29.3,14.5,46.6L535.6,327.2
		L535.6,327.2z M560.7,286.5c-19.1,0-24.7,17.7-24.7,23.3h48.3C584.3,303,579.2,286.5,560.7,286.5"/>
	<path fill="#17140F" d="M56,560.5c-33.8,0-51.9-23.2-51.9-51.3c0-26.3,17.1-51.3,52.5-51.3c28.6,0,40.9,17.7,41.9,19.3l-14.7,12.9
		c-1.6-1.4-10.5-12.3-26.3-12.3c-19.1,0-28.4,15.3-28.4,31.5c0,16.3,9.1,31.2,28,31.2c16.5,0,25.3-10.5,27.4-12.9
		c4.8,4.2,9.6,8.4,14.5,12.5C98,541.6,85.5,560.5,56,560.5"/>
	<path fill="#17140F" d="M114.1,423.9h24.1v133.6h-24.1V423.9z"/>
	<path fill="#17140F" d="M159,461.4h24.1v96.1H159V461.4z"/>
	<path fill="#17140F" d="M251.1,560.5c-33.8,0-51.9-23.2-51.9-51.3c0-26.3,17.1-51.3,52.5-51.3c28.6,0,40.9,17.7,41.9,19.3
		l-14.7,12.9c-1.6-1.4-10.5-12.3-26.3-12.3c-19.1,0-28.4,15.3-28.4,31.5c0,16.3,9.1,31.2,28,31.2c16.5,0,25.3-10.5,27.4-12.9
		c4.8,4.2,9.6,8.4,14.5,12.5C293.1,541.6,280.6,560.5,251.1,560.5"/>
	<path fill="#17140F" d="M372.8,557.5l-40.4-44.8v44.8h-24.1V423.9h24.1v78.3c13.5-13.7,27-27.3,40.4-40.8h29.3
		c-15.5,15.1-31,30.1-46.3,45.4l47.3,50.7L372.8,557.5L372.8,557.5z"/>
	<path fill="#BFD531" d="M175.7,319.5c19.6,0,36.6,10.6,45.7,26.4c4.5-7.8,7.1-16.8,7.1-26.4c0-29.1-23.7-52.8-52.8-52.8
		c-29.2,0-52.8,23.7-52.8,52.8c0,9.6,2.6,18.6,7.1,26.4C139.2,330.1,156.2,319.5,175.7,319.5"/>
	<path fill="#4AA948" d="M175.7,372.3c-19.6,0-36.6-10.6-45.7-26.4c-4.5,7.8-7.1,16.8-7.1,26.4c0,29.1,23.6,52.8,52.8,52.8
		c29.2,0,52.8-23.6,52.8-52.8c0-9.6-2.6-18.6-7.1-26.4C212.3,361.7,195.3,372.3,175.7,372.3"/>
	<path fill="#00703C" d="M175.7,372.3c19.6,0,36.6-10.6,45.7-26.4c-9.1-15.8-26.2-26.4-45.7-26.4s-36.6,10.6-45.7,26.4
		C139.2,361.7,156.2,372.3,175.7,372.3"/>
</g>
</svg>
