<?xml version="1.0" encoding="utf-8"?>
<!-- Generator: Adobe Illustrator 18.1.1, SVG Export Plug-In . SVG Version: 6.00 Build 0)  -->
<!DOCTYPE svg PUBLIC "-//W3C//DTD SVG 1.1//EN" "http://www.w3.org/Graphics/SVG/1.1/DTD/svg11.dtd">
<svg version="1.1" id="Layer_1" xmlns="http://www.w3.org/2000/svg" xmlns:xlink="http://www.w3.org/1999/xlink" x="0px" y="0px"
	 viewBox="694 -604 2000 2000" enable-background="new 694 -604 2000 2000" xml:space="preserve">
<g id="surface1">
	<path d="M2413.7-462.6h11.6c14.3,0,26-4.7,26-17.3c0-9.4-6.9-18.2-25.1-18.2c-5.7,0-9.5,0-12.5,0.4L2413.7-462.6L2413.7-462.6z
		 M2413.7-401.7h-19.4v-108c9-1.3,18.1-3,32.4-3c17.3,0,28,3.5,35,8.7c6,4.7,9.5,12,9.5,22.4c0,13.8-9.1,22.8-20.7,25.9v0.8
		c9.4,1.8,15.5,10.4,17.6,26.4c2.6,16.9,4.7,23.2,6.5,26.8h-19.9c-2.6-3.5-4.8-13.4-7-27.6c-2.1-13.1-9.4-18.2-22.8-18.2h-11.2
		L2413.7-401.7L2413.7-401.7z M2431.4-538.6c-42.7,0-77.3,35.8-77.3,80.8c0,44.9,34.5,80.7,77.7,80.7c42.7,0.5,76.9-35.8,76.9-80.7
		c0-44.9-34.1-80.8-76.9-80.8H2431.4z M2431.8-554.9c53.5,0,96.2,43.2,96.2,96.7c0,54.4-42.7,97.6-96.6,97.6
		c-53.9,0-97.6-43.2-97.6-97.6c0-53.5,43.6-96.7,97.6-96.7H2431.8z"/>
	<path d="M1045.7,1176.6l-16.2-96.1c-4.6-27.7-10.5-71-15-101h-1.8c-4.7,30.2-11.4,74.7-16.2,101.2l-17.5,95.8H1045.7z
		 M970.3,1239.2l-21.1,106.6h-77.9l97.1-443.6h95.4l88.2,443.6h-78.3l-20.6-106.6H970.3z"/>
	<path d="M1329.4,1147.7c0-5.9,0-12.8-1.2-19.2c-3.1-21.9-14.8-41.6-33.5-41.6c-32.1,0-44,46.3-44,100.5c0,62.2,16.9,97.7,42.9,97.7
		c11.9,0,25.6-6.1,33-32.2c1.8-5.2,2.8-12.2,2.8-20.3V1147.7z M1409.4,890.5v363.4c0,28.8,1.5,64.2,2.6,91.9h-69l-4.5-37h-1.6
		c-11.6,22.8-36.8,42.2-67,42.2c-66.1,0-98.9-73-98.9-165.1c0-112.2,48.9-166.8,102.2-166.8c27.9,0,45.9,13.6,55,33.4h1.3v-162
		H1409.4z"/>
	<path d="M1575.8,1289.7c30.5,0,38.1-57.5,38.1-105.1c0-45.3-7.6-104.2-39.4-104.2c-33.7,0-40.8,59-40.8,104.2
		c0,54.6,8.9,105.1,41.5,105.1H1575.8z M1574.3,1351c-73.7,0-119.9-59.1-119.9-165c0-115.5,59.3-166.9,121.7-166.9
		c72.7,0,118.2,62,118.2,165c0,132.3-71.4,166.9-119.4,166.9H1574.3z"/>
	<path d="M1819,1231c0,8,1.5,15.5,3.2,20.5c8,26.9,21.6,33.5,32.5,33.5c30.9,0,43.4-39.2,43.4-101.8c0-57-13.2-96.3-43.7-96.3
		c-15.2,0-27.9,16.5-32.3,34.1c-1.5,5.6-3,14.2-3,20.2V1231z M1739.1,890.5h79.9v167.5h1.3c15.7-24.7,36.7-38.8,67.2-38.8
		c60.3,0,90.5,68.5,90.5,158.1c0,113.2-45.1,173.8-103.6,173.8c-27.9,0-46.4-12.4-63.2-43.7h-1.7l-4.4,38.5h-68.6
		c1.2-26.6,2.7-63.1,2.7-91.9V890.5z"/>
	<path d="M2169.5,1154.4c0.4-45.1-12.8-76.8-38.2-76.8c-28.9,0-41.2,42.3-42.1,76.8H2169.5z M2088.9,1210.9
		c0.9,58.1,31.5,77.1,69.4,77.1c24.1,0,44.7-5.3,59.9-11.1l10.8,57.5c-21.2,9.1-53.9,14.9-85.3,14.9c-85.8,0-132.6-58.6-132.6-158.7
		c0-107.4,54.3-172,125.3-172c68.6,0,106.6,57,106.6,150.1c0,21.3-0.9,33.3-2.3,42.7L2088.9,1210.9z"/>
	<path fill="#ED1C24" d="M1731.8-559h511.3V665.1L1731.8-559z"/>
	<path fill="#ED1C24" d="M1371.5-559H860V665.1L1371.5-559z"/>
	<path fill="#ED1C24" d="M1551.7-107.9l325.7,773H1664l-97.4-246.2h-238.5L1551.7-107.9z"/>
</g>
</svg>
