<?xml version="1.0" ?><!DOCTYPE svg  PUBLIC '-//W3C//DTD SVG 1.1//EN'  'http://www.w3.org/Graphics/SVG/1.1/DTD/svg11.dtd'><svg enable-background="new 0 0 256 256" height="256px" id="Layer_1" version="1.1" viewBox="0 0 256 256" width="256px" xml:space="preserve" xmlns="http://www.w3.org/2000/svg" xmlns:xlink="http://www.w3.org/1999/xlink"><g><g><path d="M242.592,58.075H13.402c0.577,5.36,2.543,13.67,6.602,17.025c9.382,7.756,88.47,59.761,107.992,73.345     c19.509-13.572,98.625-65.6,107.994-73.345C240.049,71.745,242.016,63.435,242.592,58.075L242.592,58.075z M249.455,45.011     c6.979-0.335,6.539,6.761,6.539,10.798v148.66c0,3.604-2.93,6.531-6.539,6.531H6.539C2.931,211,0,208.075,0,204.469L0.025,51.543     c0-3.593,2.917-6.507,6.514-6.507L249.455,45.011L249.455,45.011z M164.168,139.777l78.749,46.309V86.173L164.168,139.777     L164.168,139.777z M103.778,147.713l-85.124,50.224h218.688l-85.129-50.222c-6.952,4.658-13.796,9.331-20.462,14.021     c-2.351,1.653-5.419,1.536-7.616-0.074C117.5,156.995,110.693,152.349,103.778,147.713L103.778,147.713z M13.077,186.086     l78.752-46.307L13.077,86.173V186.086L13.077,186.086z" fill="#3B4552"/><path d="M171.283,74.723c5.792,0,5.786,8.787,0.001,8.787H84.713c-5.792,0-5.79-8.788-0.001-8.788L171.283,74.723     L171.283,74.723z M171.286,91.534c2.43,0,4.398,1.968,4.399,4.394c0,2.426-1.97,4.395-4.397,4.394H84.716     c-2.43,0-4.4-1.969-4.4-4.396c0.001-2.425,1.972-4.394,4.399-4.394L171.286,91.534L171.286,91.534z" fill="#2B78C2"/></g></g></svg>