<?xml version="1.0" encoding="utf-8"?>
<!-- Generator: Adobe Illustrator 18.1.1, SVG Export Plug-In . SVG Version: 6.00 Build 0)  -->
<!DOCTYPE svg PUBLIC "-//W3C//DTD SVG 1.1//EN" "http://www.w3.org/Graphics/SVG/1.1/DTD/svg11.dtd">
<svg version="1.1" id="Layer_1" xmlns="http://www.w3.org/2000/svg" xmlns:xlink="http://www.w3.org/1999/xlink" x="0px" y="0px"
	 viewBox="0 0 612 792" enable-background="new 0 0 612 792" xml:space="preserve">
<g id="surface1">
	<path fill="#333333" d="M32.7,450.7h49.5v-17.5H32.7v-21.9h53.9v-18.9H10.2v102.2h77.6v-18.9H32.7V450.7z"/>
	<path fill="#333333" d="M162,420.6h-22.5l-12.9,19.3l-13-19.3H90.4l24.3,35.1l-26.6,38.9h22.8l15.5-23.3l15.5,23.3h23.2l-27.3-39.4
		L162,420.6z"/>
	<path fill="#333333" d="M233.2,430.7c-2.8-3.6-6.2-6.5-10.4-8.7c-4.2-2.2-9.2-3.3-15-3.3c-4.6,0-8.8,0.9-12.6,2.7
		c-3.8,1.8-7,4.7-9.5,8.7h-0.3v-9.4h-19.3v99.9h20.3v-35.1h0.3c2.5,3.6,5.7,6.4,9.5,8.2s8.1,2.8,12.7,2.8c5.4,0,10.2-1,14.2-3.2
		c4.1-2.1,7.4-4.9,10.2-8.4c2.7-3.5,4.7-7.6,6.1-12.2c1.3-4.6,2-9.4,2-14.3c0-5.3-0.7-10.3-2-15.1
		C238.1,438.5,236,434.3,233.2,430.7z M220.2,466.6c-0.6,2.8-1.6,5.4-2.9,7.5c-1.4,2.1-3.2,3.9-5.4,5.2c-2.3,1.3-5,2-8.4,2
		c-3.2,0-6-0.7-8.3-2c-2.3-1.3-4.1-3.1-5.5-5.2s-2.4-4.7-3-7.5c-0.6-2.9-0.9-5.8-0.9-8.7c0-3.1,0.3-6,0.9-8.9
		c0.6-2.8,1.6-5.4,2.9-7.6c1.4-2.2,3.2-4,5.4-5.4c2.2-1.4,5-2.1,8.4-2.1c3.2,0,6,0.7,8.2,2.1c2.2,1.4,4.1,3.2,5.5,5.4
		s2.4,4.8,3.1,7.6c0.6,2.9,0.9,5.8,0.9,8.7C221.1,460.8,220.8,463.7,220.2,466.6z"/>
	<path fill="#333333" d="M308.6,432.1c-3-4.1-6.9-7.4-11.5-9.8c-4.7-2.4-10.2-3.6-16.5-3.6c-5.6,0-10.8,1-15.4,3
		c-4.6,2-8.6,4.7-11.9,8.2c-3.3,3.5-5.9,7.6-7.7,12.4c-1.8,4.8-2.7,9.9-2.7,15.5c0,5.7,0.9,11,2.6,15.7c1.8,4.8,4.3,8.9,7.5,12.3
		c3.2,3.4,7.2,6.1,11.9,7.9c4.7,1.9,9.9,2.8,15.8,2.8c8.4,0,15.5-1.9,21.5-5.7c5.9-3.8,10.3-10.2,13.2-19h-17.9
		c-0.7,2.3-2.5,4.5-5.4,6.5c-2.9,2.1-6.5,3.1-10.6,3.1c-5.7,0-10.1-1.5-13.2-4.4c-3.1-3-4.7-7.7-5-14.3h53.4
		c0.4-5.7-0.1-11.2-1.4-16.5C313.8,440.9,311.6,436.2,308.6,432.1z M263.1,449.7c0.1-1.4,0.4-3.1,0.9-4.9c0.5-1.8,1.4-3.5,2.7-5.1
		c1.3-1.6,3-3,5.1-4.1c2.1-1.1,4.8-1.7,8.1-1.7c5,0,8.7,1.3,11.1,4c2.4,2.7,4.1,6.6,5.1,11.7L263.1,449.7L263.1,449.7z"/>
	<path fill="#333333" d="M384,427c-2-2.6-4.7-4.7-8.2-6.2s-8-2.2-13.4-2.2c-4.3,0-8.5,1-12.6,2.9c-4.1,2-7.4,5.1-10,9.4h-0.4v-10.3
		H320v74h20.3v-38.8c0-7.5,1.3-12.9,3.7-16.2c2.5-3.3,6.5-4.9,12-4.9c4.9,0,8.3,1.5,10.2,4.5c1.9,3,2.9,7.6,2.9,13.7v41.8h20.3
		v-45.5c0-4.6-0.4-8.8-1.2-12.5C387.4,432.8,385.9,429.6,384,427z"/>
	<path fill="#333333" d="M452.5,456.3c-2.2-1.6-4.7-2.8-7.5-3.8c-2.8-0.9-5.7-1.8-8.7-2.4c-2.9-0.7-5.7-1.3-8.4-1.9
		c-2.8-0.6-5.2-1.2-7.4-1.9s-3.9-1.7-5.2-2.8c-1.3-1.1-2-2.6-2-4.4c0-1.5,0.4-2.8,1.1-3.6c0.8-0.9,1.7-1.6,2.8-2.1
		c1.1-0.5,2.3-0.8,3.6-0.9c1.3-0.2,2.6-0.2,3.7-0.2c3.6,0,6.8,0.7,9.4,2.1c2.7,1.4,4.2,4,4.4,8h19.3c-0.4-4.6-1.6-8.4-3.5-11.4
		c-2-3-4.4-5.4-7.4-7.2c-2.9-1.8-6.3-3.1-10.1-3.9c-3.8-0.8-7.7-1.1-11.7-1.1c-4,0-7.9,0.4-11.7,1.1c-3.8,0.7-7.3,2-10.3,3.7
		s-5.5,4.2-7.4,7.2c-1.9,3.1-2.8,7-2.8,11.7c0,3.2,0.7,6,2,8.2c1.3,2.2,3.1,4.1,5.3,5.6c2.2,1.5,4.7,2.7,7.5,3.6
		c2.8,0.9,5.7,1.7,8.7,2.4c7.3,1.5,12.9,3.1,17,4.6c4.1,1.5,6.1,3.8,6.1,6.9c0,1.8-0.4,3.3-1.3,4.5c-0.9,1.2-1.9,2.1-3.2,2.8
		s-2.7,1.3-4.3,1.6c-1.6,0.3-3.1,0.5-4.5,0.5c-2,0-3.9-0.2-5.8-0.7c-1.9-0.5-3.5-1.2-4.9-2.2c-1.4-1-2.6-2.3-3.5-3.9
		c-0.9-1.6-1.3-3.5-1.3-5.7h-19.3c0.2,5,1.3,9.1,3.4,12.4c2.1,3.3,4.7,5.9,7.9,7.9c3.2,2,6.9,3.4,11,4.3c4.1,0.9,8.3,1.3,12.6,1.3
		c4.2,0,8.3-0.4,12.4-1.2c4.1-0.8,7.7-2.2,10.8-4.2c3.2-2,5.7-4.7,7.6-8c2-3.3,2.9-7.4,2.9-12.2c0-3.4-0.7-6.3-2-8.7
		C456.4,459.9,454.7,457.9,452.5,456.3z"/>
	<path fill="#333333" d="M461.8,392.5h20.3v16.7h-20.3V392.5z"/>
	<path fill="#333333" d="M461.8,420.6h20.3v74h-20.3V420.6z"/>
	<path fill="#333333" d="M580.7,420.6l-16.2,50.7h-0.3l-16.7-50.7h-30.4v-4.4c0-3.1,0.6-5.2,1.8-6.5c1.2-1.3,3.2-1.9,5.9-1.9
		c2.6,0,5,0.2,7.4,0.4V393c-1.7-0.1-3.5-0.2-5.3-0.3c-1.8-0.2-3.6-0.2-5.4-0.2c-8.3,0-14.5,2.1-18.6,6.3c-4.1,4.2-6.2,9.6-6.2,16.2
		v5.7h-12.2v13.6h12.2v60.4h20.3v-60.4H531l20.8,55.8c0.6,1.4,0.9,3,0.9,4.6c0,2.2-0.6,4.2-1.9,6c-1.3,1.8-3.3,2.9-5.9,3.2
		c-2,0.1-4,0.1-6-0.2c-2-0.2-3.9-0.4-5.9-0.6v16.7c2.1,0.2,4.2,0.4,6.2,0.5c2.1,0.2,4.1,0.2,6.2,0.2c7,0,12.4-1.3,16.3-3.9
		c3.9-2.6,7-6.9,9.1-12.9l30.9-83.2L580.7,420.6L580.7,420.6z"/>
	<path fill="#00A5D5" d="M327.2,363.9c0,5.3-4.3,9.5-9.5,9.5h-82.9c-5.3,0-9.5-4.3-9.5-9.5V281c0-5.3,4.3-9.5,9.5-9.5h82.9
		c5.3,0,9.5,4.3,9.5,9.5L327.2,363.9L327.2,363.9z"/>
	<path fill="#AFBD22" d="M219.7,363.9c0,5.3-4.3,9.5-9.5,9.5h-82.9c-5.3,0-9.5-4.3-9.5-9.5V281c0-5.3,4.3-9.5,9.5-9.5h82.9
		c5.3,0,9.5,4.3,9.5,9.5V363.9z"/>
	<path fill="#FAD101" d="M112.2,363.9c0,5.3-4.3,9.5-9.5,9.5H19.8c-5.3,0-9.5-4.3-9.5-9.5V281c0-5.3,4.3-9.5,9.5-9.5h82.9
		c5.3,0,9.5,4.3,9.5,9.5L112.2,363.9L112.2,363.9z"/>
	<path fill="#FFFFFF" d="M305.6,286.5c4.6-4.6,11.5,2.3,6.8,7.1l-19.3,19.3l10.8,43.3l-7.1,7.1l-18.1-35.7L264.3,342l1.4,11.1
		l-5.6,5.6l-6.6-12.6l-12.6-6.6l5.6-5.6l11,1.3l14.4-14.4l-35.7-18.1l7.1-7.1l42.9,10.4L305.6,286.5z"/>
	<path fill="#333333" d="M165.7,308.9c0,2.7-2.5,5.6-5.7,5.6v45.6c0,6.5-8.8,6.5-8.8,0v-45.6c-3.1,0-5.8-2.4-5.8-6v-25.1
		c0-2.2,3.2-2.3,3.2,0.1v18.6h2.7v-18.8c0-2,3-2.1,3,0.1v18.6h2.7v-18.7c0-2.1,3-2.2,3,0.1v18.6h2.7v-18.7c0-2.1,3.1-2.2,3.1,0.1
		V308.9z"/>
	<path fill="#333333" d="M189.2,289.3v70.9c0,6.3-8.8,6.2-8.8,0V332h-4.7v-42.8C175.7,279.3,189.2,279.3,189.2,289.3z"/>
	<path fill="#333333" d="M95.6,315.1l-6.8-17.6c-1.3-3.4-4.1-6.2-9.3-6.2h-9.7v-5.4c0-0.9-0.8-1.7-1.7-1.7H55
		c-0.9,0-1.7,0.8-1.7,1.7v5.4h-9.7c-5.3,0-8,2.9-9.3,6.2l-6.8,17.6c-2.7,0.3-7.5,3.5-7.5,9.5V347h6.6v7.2c0,8.8,12.5,8.7,12.5,0V347
		H84v7.2c0,8.7,12.5,8.8,12.5,0V347h6.6v-22.4C103.1,318.7,98.3,315.5,95.6,315.1z M33,333.6c-3.2,0-5.8-2.7-5.8-5.9
		c0-3.3,2.6-5.9,5.8-5.9c3.2,0,5.8,2.7,5.8,5.9C38.8,330.9,36.2,333.6,33,333.6z M61.5,315h-27l5.1-13.9c0.6-2,1.6-3.3,3.9-3.4h36
		c2.3,0,3.2,1.4,3.9,3.4l5.1,13.9H61.5L61.5,315z M90,333.6c-3.2,0-5.8-2.7-5.8-5.9c0-3.3,2.6-5.9,5.8-5.9c3.2,0,5.8,2.7,5.8,5.9
		C95.8,330.9,93.2,333.6,90,333.6z"/>
</g>
</svg>
