<?xml version="1.0" encoding="UTF-8"?>
<svg xmlns="http://www.w3.org/2000/svg" xmlns:xlink="http://www.w3.org/1999/xlink" width="2000pt" height="2009pt" viewBox="0 0 2000 2009" version="1.1">
<defs>
<linearGradient id="linear0" gradientUnits="userSpaceOnUse" x1="35" y1="156" x2="253" y2="156" gradientTransform="matrix(0,-9.090498,9.090909,0,-418.181818,2308.986425)">
<stop offset="0" style="stop-color:rgb(5.490196%,5.490196%,5.490196%);stop-opacity:1;"/>
<stop offset="1" style="stop-color:rgb(23.137255%,23.137255%,23.137255%);stop-opacity:1;"/>
</linearGradient>
<filter id="alpha" filterUnits="objectBoundingBox" x="0%" y="0%" width="100%" height="100%">
  <feColorMatrix type="matrix" in="SourceGraphic" values="0 0 0 0 1 0 0 0 0 1 0 0 0 0 1 0 0 0 1 0"/>
</filter>
<mask id="mask0">
  <g filter="url(#alpha)">
<rect x="0" y="0" width="2000" height="2009" style="fill:rgb(0%,0%,0%);fill-opacity:0.2;stroke:none;"/>
  </g>
</mask>
<clipPath id="clip1">
  <rect width="2000" height="2009"/>
</clipPath>
<g id="surface7" clip-path="url(#clip1)">
<path style=" stroke:none;fill-rule:nonzero;fill:rgb(0%,0%,0%);fill-opacity:1;" d="M 1109.089844 427.253906 C 1109.089844 487.5 1060.25 536.339844 1000 536.339844 C 939.75 536.339844 890.910156 487.5 890.910156 427.253906 C 890.910156 367.007812 939.75 318.167969 1000 318.167969 C 1060.25 318.167969 1109.089844 367.007812 1109.089844 427.253906 Z M 1109.089844 427.253906 "/>
<path style=" stroke:none;fill-rule:nonzero;fill:rgb(0%,0%,0%);fill-opacity:1;" d="M 1109.089844 1590.835938 C 1109.089844 1651.082031 1060.25 1699.921875 1000 1699.921875 C 939.75 1699.921875 890.910156 1651.082031 890.910156 1590.835938 C 890.910156 1530.589844 939.75 1481.75 1000 1481.75 C 1060.25 1481.75 1109.089844 1530.589844 1109.089844 1590.835938 Z M 1109.089844 1590.835938 "/>
<path style=" stroke:none;fill-rule:nonzero;fill:rgb(0%,0%,0%);fill-opacity:1;" d="M 1109.089844 1009.046875 C 1109.089844 1069.292969 1060.25 1118.132812 1000 1118.132812 C 939.75 1118.132812 890.910156 1069.292969 890.910156 1009.046875 C 890.910156 948.796875 939.75 899.960938 1000 899.960938 C 1060.25 899.960938 1109.089844 948.796875 1109.089844 1009.046875 Z M 1109.089844 1009.046875 "/>
<path style=" stroke:none;fill-rule:nonzero;fill:rgb(0%,0%,0%);fill-opacity:1;" d="M 1109.089844 718.148438 C 1109.089844 778.394531 1060.25 827.234375 1000 827.234375 C 939.75 827.234375 890.910156 778.394531 890.910156 718.148438 C 890.910156 657.902344 939.75 609.0625 1000 609.0625 C 1060.25 609.0625 1109.089844 657.902344 1109.089844 718.148438 Z M 1109.089844 718.148438 "/>
<path style=" stroke:none;fill-rule:nonzero;fill:rgb(0%,0%,0%);fill-opacity:1;" d="M 1109.089844 1299.941406 C 1109.089844 1360.1875 1060.25 1409.027344 1000 1409.027344 C 939.75 1409.027344 890.910156 1360.1875 890.910156 1299.941406 C 890.910156 1239.695312 939.75 1190.855469 1000 1190.855469 C 1060.25 1190.855469 1109.089844 1239.695312 1109.089844 1299.941406 Z M 1109.089844 1299.941406 "/>
<path style=" stroke:none;fill-rule:nonzero;fill:rgb(0%,0%,0%);fill-opacity:1;" d="M 1581.816406 1118.132812 C 1521.570312 1118.132812 1472.726562 1069.292969 1472.726562 1009.046875 C 1472.726562 948.796875 1521.570312 899.960938 1581.816406 899.960938 C 1642.066406 899.960938 1690.910156 948.796875 1690.910156 1009.046875 C 1690.910156 1069.292969 1642.066406 1118.132812 1581.816406 1118.132812 Z M 1581.816406 1118.132812 "/>
<path style=" stroke:none;fill-rule:nonzero;fill:rgb(0%,0%,0%);fill-opacity:1;" d="M 418.183594 1118.132812 C 357.933594 1118.132812 309.089844 1069.292969 309.089844 1009.046875 C 309.089844 948.796875 357.933594 899.960938 418.183594 899.960938 C 478.429688 899.960938 527.273438 948.796875 527.273438 1009.046875 C 527.273438 1069.292969 478.429688 1118.132812 418.183594 1118.132812 Z M 418.183594 1118.132812 "/>
<path style=" stroke:none;fill-rule:nonzero;fill:rgb(0%,0%,0%);fill-opacity:1;" d="M 1290.910156 1118.132812 C 1230.660156 1118.132812 1181.816406 1069.292969 1181.816406 1009.046875 C 1181.816406 948.796875 1230.660156 899.960938 1290.910156 899.960938 C 1351.160156 899.960938 1400 948.796875 1400 1009.046875 C 1400 1069.292969 1351.160156 1118.132812 1290.910156 1118.132812 Z M 1290.910156 1118.132812 "/>
<path style=" stroke:none;fill-rule:nonzero;fill:rgb(0%,0%,0%);fill-opacity:1;" d="M 709.089844 1118.132812 C 648.839844 1118.132812 600 1069.292969 600 1009.046875 C 600 948.796875 648.839844 899.960938 709.089844 899.960938 C 769.339844 899.960938 818.183594 948.796875 818.183594 1009.046875 C 818.183594 1069.292969 769.339844 1118.132812 709.089844 1118.132812 Z M 709.089844 1118.132812 "/>
<path style=" stroke:none;fill-rule:nonzero;fill:rgb(0%,0%,0%);fill-opacity:1;" d="M 709.089844 827.234375 C 648.839844 827.234375 600 778.394531 600 718.148438 C 600 657.902344 648.839844 609.0625 709.089844 609.0625 C 769.339844 609.0625 818.183594 657.902344 818.183594 718.148438 C 818.183594 778.394531 769.339844 827.234375 709.089844 827.234375 Z M 709.089844 827.234375 "/>
<path style=" stroke:none;fill-rule:nonzero;fill:rgb(0%,0%,0%);fill-opacity:1;" d="M 1290.910156 827.234375 C 1230.660156 827.234375 1181.816406 778.394531 1181.816406 718.148438 C 1181.816406 657.902344 1230.660156 609.0625 1290.910156 609.0625 C 1351.160156 609.0625 1400 657.902344 1400 718.148438 C 1400 778.394531 1351.160156 827.234375 1290.910156 827.234375 Z M 1290.910156 827.234375 "/>
<path style=" stroke:none;fill-rule:nonzero;fill:rgb(0%,0%,0%);fill-opacity:1;" d="M 1290.910156 1409.027344 C 1230.660156 1409.027344 1181.816406 1360.1875 1181.816406 1299.941406 C 1181.816406 1239.695312 1230.660156 1190.855469 1290.910156 1190.855469 C 1351.160156 1190.855469 1400 1239.695312 1400 1299.941406 C 1400 1360.1875 1351.160156 1409.027344 1290.910156 1409.027344 Z M 1290.910156 1409.027344 "/>
<path style=" stroke:none;fill-rule:nonzero;fill:rgb(0%,0%,0%);fill-opacity:1;" d="M 709.089844 1409.027344 C 648.839844 1409.027344 600 1360.1875 600 1299.941406 C 600 1239.695312 648.839844 1190.855469 709.089844 1190.855469 C 769.339844 1190.855469 818.183594 1239.695312 818.183594 1299.941406 C 818.183594 1360.1875 769.339844 1409.027344 709.089844 1409.027344 Z M 709.089844 1409.027344 "/>
</g>
<clipPath id="clip2">
  <rect width="2000" height="2009"/>
</clipPath>
<g id="surface10" clip-path="url(#clip2)">
<path style=" stroke:none;fill-rule:nonzero;fill:rgb(27.058824%,76.078431%,77.254902%);fill-opacity:1;" d="M 1109.089844 418.164062 C 1109.089844 478.410156 1060.25 527.25 1000 527.25 C 939.75 527.25 890.910156 478.410156 890.910156 418.164062 C 890.910156 357.917969 939.75 309.078125 1000 309.078125 C 1060.25 309.078125 1109.089844 357.917969 1109.089844 418.164062 Z M 1109.089844 418.164062 "/>
<path style=" stroke:none;fill-rule:nonzero;fill:rgb(27.058824%,76.078431%,77.254902%);fill-opacity:1;" d="M 1109.089844 1581.746094 C 1109.089844 1641.992188 1060.25 1690.832031 1000 1690.832031 C 939.75 1690.832031 890.910156 1641.992188 890.910156 1581.746094 C 890.910156 1521.5 939.75 1472.660156 1000 1472.660156 C 1060.25 1472.660156 1109.089844 1521.5 1109.089844 1581.746094 Z M 1109.089844 1581.746094 "/>
<path style=" stroke:none;fill-rule:nonzero;fill:rgb(100%,100%,100%);fill-opacity:1;" d="M 1109.089844 999.953125 C 1109.089844 1060.203125 1060.25 1109.039062 1000 1109.039062 C 939.75 1109.039062 890.910156 1060.203125 890.910156 999.953125 C 890.910156 939.707031 939.75 890.867188 1000 890.867188 C 1060.25 890.867188 1109.089844 939.707031 1109.089844 999.953125 Z M 1109.089844 999.953125 "/>
<path style=" stroke:none;fill-rule:nonzero;fill:rgb(27.058824%,76.078431%,77.254902%);fill-opacity:1;" d="M 1109.089844 709.058594 C 1109.089844 769.304688 1060.25 818.144531 1000 818.144531 C 939.75 818.144531 890.910156 769.304688 890.910156 709.058594 C 890.910156 648.8125 939.75 599.972656 1000 599.972656 C 1060.25 599.972656 1109.089844 648.8125 1109.089844 709.058594 Z M 1109.089844 709.058594 "/>
<path style=" stroke:none;fill-rule:nonzero;fill:rgb(27.058824%,76.078431%,77.254902%);fill-opacity:1;" d="M 1109.089844 1290.851562 C 1109.089844 1351.097656 1060.25 1399.9375 1000 1399.9375 C 939.75 1399.9375 890.910156 1351.097656 890.910156 1290.851562 C 890.910156 1230.605469 939.75 1181.765625 1000 1181.765625 C 1060.25 1181.765625 1109.089844 1230.605469 1109.089844 1290.851562 Z M 1109.089844 1290.851562 "/>
<path style=" stroke:none;fill-rule:nonzero;fill:rgb(100%,100%,100%);fill-opacity:1;" d="M 1581.816406 1109.039062 C 1521.570312 1109.039062 1472.726562 1060.203125 1472.726562 999.953125 C 1472.726562 939.707031 1521.570312 890.867188 1581.816406 890.867188 C 1642.066406 890.867188 1690.910156 939.707031 1690.910156 999.953125 C 1690.910156 1060.203125 1642.066406 1109.039062 1581.816406 1109.039062 Z M 1581.816406 1109.039062 "/>
<path style=" stroke:none;fill-rule:nonzero;fill:rgb(100%,100%,100%);fill-opacity:1;" d="M 418.183594 1109.039062 C 357.933594 1109.039062 309.089844 1060.203125 309.089844 999.953125 C 309.089844 939.707031 357.933594 890.867188 418.183594 890.867188 C 478.429688 890.867188 527.273438 939.707031 527.273438 999.953125 C 527.273438 1060.203125 478.429688 1109.039062 418.183594 1109.039062 Z M 418.183594 1109.039062 "/>
<path style=" stroke:none;fill-rule:nonzero;fill:rgb(100%,100%,100%);fill-opacity:1;" d="M 1290.910156 1109.039062 C 1230.660156 1109.039062 1181.816406 1060.203125 1181.816406 999.953125 C 1181.816406 939.707031 1230.660156 890.867188 1290.910156 890.867188 C 1351.160156 890.867188 1400 939.707031 1400 999.953125 C 1400 1060.203125 1351.160156 1109.039062 1290.910156 1109.039062 Z M 1290.910156 1109.039062 "/>
<path style=" stroke:none;fill-rule:nonzero;fill:rgb(100%,100%,100%);fill-opacity:1;" d="M 709.089844 1109.039062 C 648.839844 1109.039062 600 1060.203125 600 999.953125 C 600 939.707031 648.839844 890.867188 709.089844 890.867188 C 769.339844 890.867188 818.183594 939.707031 818.183594 999.953125 C 818.183594 1060.203125 769.339844 1109.039062 709.089844 1109.039062 Z M 709.089844 1109.039062 "/>
<path style=" stroke:none;fill-rule:nonzero;fill:rgb(27.058824%,76.078431%,77.254902%);fill-opacity:1;" d="M 709.089844 818.144531 C 648.839844 818.144531 600 769.304688 600 709.058594 C 600 648.8125 648.839844 599.972656 709.089844 599.972656 C 769.339844 599.972656 818.183594 648.8125 818.183594 709.058594 C 818.183594 769.304688 769.339844 818.144531 709.089844 818.144531 Z M 709.089844 818.144531 "/>
<path style=" stroke:none;fill-rule:nonzero;fill:rgb(100%,100%,100%);fill-opacity:1;" d="M 1290.910156 818.144531 C 1230.660156 818.144531 1181.816406 769.304688 1181.816406 709.058594 C 1181.816406 648.8125 1230.660156 599.972656 1290.910156 599.972656 C 1351.160156 599.972656 1400 648.8125 1400 709.058594 C 1400 769.304688 1351.160156 818.144531 1290.910156 818.144531 Z M 1290.910156 818.144531 "/>
<path style=" stroke:none;fill-rule:nonzero;fill:rgb(100%,100%,100%);fill-opacity:1;" d="M 1290.910156 1399.9375 C 1230.660156 1399.9375 1181.816406 1351.097656 1181.816406 1290.851562 C 1181.816406 1230.605469 1230.660156 1181.765625 1290.910156 1181.765625 C 1351.160156 1181.765625 1400 1230.605469 1400 1290.851562 C 1400 1351.097656 1351.160156 1399.9375 1290.910156 1399.9375 Z M 1290.910156 1399.9375 "/>
<path style=" stroke:none;fill-rule:nonzero;fill:rgb(27.058824%,76.078431%,77.254902%);fill-opacity:1;" d="M 709.089844 1399.9375 C 648.839844 1399.9375 600 1351.097656 600 1290.851562 C 600 1230.605469 648.839844 1181.765625 709.089844 1181.765625 C 769.339844 1181.765625 818.183594 1230.605469 818.183594 1290.851562 C 818.183594 1351.097656 769.339844 1399.9375 709.089844 1399.9375 Z M 709.089844 1399.9375 "/>
</g>
</defs>
<g id="surface1">
<path style=" stroke:none;fill-rule:nonzero;fill:rgb(0%,0%,0%);fill-opacity:0.101961;" d="M 454.546875 9.089844 L 1545.453125 9.089844 C 1796.492188 9.089844 2000 212.589844 2000 463.617188 L 2000 1554.476562 C 2000 1805.503906 1796.492188 2009 1545.453125 2009 L 454.546875 2009 C 203.507812 2009 0 1805.503906 0 1554.476562 L 0 463.617188 C 0 212.589844 203.507812 9.089844 454.546875 9.089844 Z M 454.546875 9.089844 "/>
<path style=" stroke:none;fill-rule:nonzero;fill:url(#linear0);" d="M 454.546875 4.546875 C 205.171875 4.546875 4.546875 205.160156 4.546875 454.523438 L 4.546875 1545.382812 C 4.546875 1794.75 205.171875 1995.363281 454.546875 1995.363281 L 1545.453125 1995.363281 C 1794.828125 1995.363281 1995.453125 1794.75 1995.453125 1545.382812 L 1995.453125 454.523438 C 1995.453125 205.160156 1794.828125 4.546875 1545.453125 4.546875 Z M 454.546875 4.546875 "/>
<use xlink:href="#surface7" mask="url(#mask0)"/>
<use xlink:href="#surface10"/>
<path style=" stroke:none;fill-rule:nonzero;fill:rgb(100%,100%,100%);fill-opacity:0.129412;" d="M 454.546875 9.089844 C 207.605469 9.089844 9.089844 207.597656 9.089844 454.523438 L 9.089844 463.617188 C 9.089844 216.6875 207.605469 18.179688 454.546875 18.179688 L 1545.453125 18.179688 C 1792.394531 18.179688 1990.910156 216.6875 1990.910156 463.617188 L 1990.910156 454.523438 C 1990.910156 207.597656 1792.394531 9.089844 1545.453125 9.089844 Z M 454.546875 9.089844 "/>
<path style=" stroke:none;fill-rule:nonzero;fill:rgb(0%,0%,0%);fill-opacity:0.411765;" d="M 1545.453125 1999.910156 C 1792.394531 1999.910156 1990.910156 1801.402344 1990.910156 1554.476562 L 1990.910156 1545.382812 C 1990.910156 1792.3125 1792.394531 1990.820312 1545.453125 1990.820312 L 454.546875 1990.820312 C 207.605469 1990.820312 9.089844 1792.3125 9.089844 1545.382812 L 9.089844 1554.476562 C 9.089844 1801.402344 207.605469 1999.910156 454.546875 1999.910156 Z M 1545.453125 1999.910156 "/>
<path style=" stroke:none;fill-rule:nonzero;fill:rgb(100%,100%,100%);fill-opacity:0.101961;" d="M 454.546875 1990.820312 C 207.605469 1990.820312 9.089844 1792.3125 9.089844 1545.382812 L 9.089844 1536.292969 C 9.089844 1783.222656 207.605469 1981.726562 454.546875 1981.726562 L 1545.453125 1981.726562 C 1792.394531 1981.726562 1990.910156 1783.222656 1990.910156 1536.292969 L 1990.910156 1545.382812 C 1990.910156 1792.3125 1792.394531 1990.820312 1545.453125 1990.820312 Z M 454.546875 1990.820312 "/>
<path style=" stroke:none;fill-rule:nonzero;fill:rgb(0%,0%,0%);fill-opacity:0.411765;" d="M 454.546875 0 C 202.726562 0 0 202.71875 0 454.523438 L 0 1545.382812 C 0 1797.191406 202.726562 1999.910156 454.546875 1999.910156 L 1545.453125 1999.910156 C 1797.273438 1999.910156 2000 1797.191406 2000 1545.382812 L 2000 454.523438 C 2000 202.71875 1797.273438 0 1545.453125 0 Z M 454.546875 9.089844 L 1545.453125 9.089844 C 1792.394531 9.089844 1990.910156 207.597656 1990.910156 454.523438 L 1990.910156 1545.382812 C 1990.910156 1792.3125 1792.394531 1990.820312 1545.453125 1990.820312 L 454.546875 1990.820312 C 207.605469 1990.820312 9.089844 1792.3125 9.089844 1545.382812 L 9.089844 454.523438 C 9.089844 207.597656 207.605469 9.089844 454.546875 9.089844 Z M 454.546875 9.089844 "/>
</g>
</svg>
