<?xml version="1.0" encoding="utf-8"?>
<!-- Generator: Adobe Illustrator 18.1.1, SVG Export Plug-In . SVG Version: 6.00 Build 0)  -->
<!DOCTYPE svg PUBLIC "-//W3C//DTD SVG 1.1//EN" "http://www.w3.org/Graphics/SVG/1.1/DTD/svg11.dtd">
<svg version="1.1" id="Layer_1" xmlns="http://www.w3.org/2000/svg" xmlns:xlink="http://www.w3.org/1999/xlink" x="0px" y="0px"
	 viewBox="694 -799 2000 2390" enable-background="new 694 -799 2000 2390" xml:space="preserve">
<g id="surface1">
	<path fill="#F94877" d="M2069.7-298.5c0,0-638.9,0-741.1,0c-102.3,0-132.4,76.9-132.4,125.3c0,48.5,0,1177.1,0,1177.1
		c0,54.5,29.3,74.8,45.8,81.4c16.5,6.7,62,12.3,89.2-19.1c0,0,349.9-405.9,355.9-411.9c9.1-9.1,9.1-9.1,18.2-9.1
		c18.2,0,153,0,226.4,0c95.1,0,110.4-67.8,120.3-107.8c8.3-33.4,101.1-508.4,132.1-659.1C2207.8-236.5,2178.6-298.5,2069.7-298.5z
		 M2052.1,537.5c8.3-33.5,101.1-508.4,132.1-659.1 M2025.9-98l-31.1,162.1c-3.7,17.5-25.8,35.9-46.2,35.9c-20.5,0-288.7,0-288.7,0
		c-32.5,0-55.7,22.1-55.7,54.6v35.3c0,32.5,23.4,55.5,55.9,55.5c0,0,222,0,245,0c22.9,0,45.5,25.1,40.5,49.6
		c-5,24.5-28.3,146-31.1,159.4c-2.8,13.4-18.2,36.3-45.5,36.3c-23,0-199.9,0-199.9,0c-36.4,0-47.4,4.8-71.8,35
		c-24.4,30.3-243.5,293.3-243.5,293.3c-2.2,2.5-4.4,1.8-4.4-1v-918.5c0-20.7,18-45,45-45c0,0,571.6,0,594.8,0
		C2011.1-145.5,2031.5-124.9,2025.9-98z"/>
</g>
</svg>
