<?xml version="1.0" encoding="utf-8"?>
<!-- Generator: Adobe Illustrator 18.1.1, SVG Export Plug-In . SVG Version: 6.00 Build 0)  -->
<svg version="1.1" id="Layer_1" xmlns="http://www.w3.org/2000/svg" xmlns:xlink="http://www.w3.org/1999/xlink" x="0px" y="0px"
	 viewBox="0 0 612 441" enable-background="new 0 0 612 441" xml:space="preserve">
<g>
	<path fill="#79BC36" d="M111.9,297.7c-13.9,3.7-26.6,1.5-38-7.6c-16.1-12.9-19.9-38.5-8-55.5c12.4-17.7,36.3-22.9,54.4-11.6
		c2.8,1.8,4.4,2.6,4.3-1.8c0-1.7,1.1-2,2.6-2.2c9.3-1,9.8-0.7,9.8,8.7c0,3.7-0.1,7.3,0,11c0.1,2.7-0.9,3.5-3.5,3.4
		c-3.2-0.2-6.3-0.2-9.5,0c-2.5,0.2-4.3-0.8-6.1-2.5c-8.2-7.9-19.1-9.8-29.5-5.1c-9.2,4.1-14.8,14.5-14,26c0.7,10.6,8.1,19.9,18.5,23
		c9.5,2.9,20.8-0.8,26.8-8.8c1.1-1.5,2.4-3.1,1.4-4.9c-0.8-1.6-2.7-0.9-4.1-0.9c-6.3-0.1-12.7-0.1-19,0.1c-2.9,0.1-4.5-0.6-4.1-3.9
		c0.2-1.8,0.1-3.7,0-5.5c-0.1-2.4,0.7-3.6,3.4-3.5c13,0.1,26,0.1,39,0c2.7,0,3.4,1.1,3.4,3.6c0,11.5,0,23,0.2,34.5
		c0.1,3.2-1.2,4.1-4.1,3.8c-1.3-0.1-2.7,0-4,0c-5.4-0.1-5.8-0.6-4.8-6.1c0.7-1.6,0.9-3.1-0.6-5C122.7,292.1,117.2,294.8,111.9,297.7
		z"/>
	<path fill="#502D8F" d="M243,219c13.3-0.1,22.4,5,26.4,14.9c4.2,10.4,1.8,22.5-6,30c-6.1,5.9-13.6,7.1-21.7,6.9
		c-8.8-0.2-8.6,0-8.8,8.8c-0.1,4,0.7,6,5.1,5.2c3.2-0.6,3.8,1.1,3.8,4c0,9.1,0.1,9.1-8.7,9.1c-6.3,0-12.7-0.3-19,0.1
		c-4.4,0.3-5.6-1.3-5-5.3c0.4-2.4-1-5.4,0.6-7.2c1.5-1.7,4.4-0.2,6.7-0.7c0.6-0.1,1.1-0.7,1.6-1c1.3-0.9,1-2.3,1-3.6
		c0-14.2,0-28.4,0-42.6c0-1.3,0.3-2.7-1-3.6c-0.4-2.7-2.5-2.3-4.2-2.1c-4.1,0.6-5.4-1.2-4.7-4.9c0.5-2.6-1-5.5,0.9-7.9
		c4.1,1.8,8.5,0.9,12.7,0.8C229.5,219.6,236.3,221,243,219z M249,233.7c-5.2-3.5-10.5-2-15.9-0.7c0,4.3-0.1,8.7-0.1,13
		c0,11.9,0,11.9,11.8,10.8c7.1-0.6,11.8-6.3,11.2-13.3C255.5,238.9,252.5,236.2,249,233.7z"/>
	<path fill="#79BC35" d="M174.5,297.9c-7,0-14-0.1-21,0.1c-3.3,0.1-4.5-0.6-4.7-4.3c-0.4-6.2,1.4-10.5,6.1-14.7
		c8.6-7.6,16.6-15.8,24.8-23.8c2.4-2.3,4.7-4.7,5.8-7.9c2.4-6.7-0.6-13.2-7.1-15.2c-6.2-1.9-13.8,1.7-14.9,8.1
		c-0.8,4.4-2.7,5.1-6.3,4.7c-0.2,0-0.3,0-0.5,0c-8.7,0-9.9-1.7-7-9.9c4.6-13.3,18-20.3,32.6-17.1c12.1,2.7,20.3,15.2,18.6,28.6
		c-1.1,8.3-6.4,14.1-12.1,19.5c-5.6,5.4-11.5,10.5-17.3,15.8c-0.8,0.7-2.3,1.2-1.9,2.6c0.4,1.5,2,0.9,3,0.9c2.8,0.1,5.7,0,8.5,0.1
		c4.1,0.2,7.5-0.1,6.5-5.7c-0.4-2.2,1.1-2.8,3.1-2.8c2.3,0.1,4.7,0.1,7,0c2.4-0.1,3.4,1,3.1,3.3c0,0.2,0,0.3,0,0.5
		c-0.2,5.5,2.2,12.3-0.9,16c-3,3.6-10,0.8-15.3,1.2C181.1,298,177.8,297.9,174.5,297.9z"/>
	<path fill="#512E8E" d="M328.2,297.8c-8-2.3-13.7-7.3-17.3-14.8c0-2,0.4-4.1-2.1-5.1c0,0,0-0.4,0-0.4c0-5.7,0-11.5-0.1-17.2
		c3.6-21.2,28.7-29.5,47.4-15.2c-1.1-6.4,2.5-6.9,7.1-6.3c2.1,0.3,4.3-0.1,6.5,0.1c2.6,0.2,6.3-1.4,7.5,0.8
		c1.7,2.9,0.6,6.8,0.4,10.2c-0.2,2.6-2.3,2-3.8,1.9c-2.9-0.2-3.7,1-3.7,3.7c0.1,8.7,0.2,17.3,0,26c-0.1,3,1.1,3.9,3.8,3.5
		c3.6-0.6,4,1.3,4,4.3c-0.1,8.8,0.1,8.8-8.5,8.8c-2.5,0-5-0.3-7.5,0.1c-4.4,0.6-6.7-0.7-5.6-6.2c-3.8,2.2-6.3,5.6-10.3,6.1
		C340.2,297.9,334.2,297.9,328.2,297.8z M352,256c-0.3-0.3-0.7-0.7-1-1l0,0c-1.6-5.1-12.2-7.2-17.8-3.5c-11.1,6.1-14.8,16.6-9.2,26
		c6.3,10.7,22.9,13,31.2-1.5c3.5-3.6,1.9-8.3,2.3-12.5c0.1-1.1,0-3.6-2.5-3.4l0,0C355.1,257.8,355.3,255.6,352,256L352,256z
		 M369.7,252.9c-0.1,0-0.3,0-0.4,0c0,9.9,0,19.8,0,29.8c0.1,0,0.3,0,0.4,0C369.7,272.8,369.7,262.9,369.7,252.9z"/>
	<path fill="#512E8E" d="M394.2,285c0.3-0.4,0.5-0.8,0.8-1.1c1.6-6.3,1.6-12.7,0-19c0-2.3,0-4.7,0-7c0.7-0.3,0.7-0.7,0-1
		c0-1,0-2,0-3c0.1-0.1,0.4-0.2,0.4-0.2c-0.1-0.2-0.2-0.4-0.4-0.7c-0.5-0.4-1-0.9-1.5-1.1c-2-0.8-5.4,1.4-6.1-1.5
		c-0.8-3.3-0.3-6.9-0.1-10.4c0.1-1.5,1.7-1.2,2.8-1.2c4.2,0,8.3,0.3,12.5-0.1c4.5-0.4,7.1,0.5,6,5.8c2.3,0,3.6-1.2,4.8-2.5
		c8.4-9.1,27.4-3.3,31.5,5.5c2.2,4.7,3.2,9.2,3.2,14.2c0,6.5,0.1,13-0.1,19.5c-0.1,2.5,0.3,4.3,3.4,3.8c3.5-0.6,4.5,0.9,4.4,4.4
		c-0.2,8.7,0,8.7-8.6,8.7c-5.7,0-11.3-0.1-17,0.1c-2.9,0.1-3.9-0.9-3.6-3.7c0.2-1.5,0.2-3,0-4.5c-0.5-3.7,0.4-5.8,4.7-5
		c2.6,0.5,3-1,2.9-3.2c-0.1-5.5-0.2-11,0-16.5c0.2-5.6-1.5-10.1-6.3-13.2c0.2-0.4,0.5-0.8,0.7-1.2c-3.4-1.5-6.9-1.3-10.4-0.3
		c0.1,0.1,0.3,0.2,0.4,0.2c0.2,0.1,0.3,0.1,0.5,0.1c-7.8,2.2-10.7,7.7-10.5,15.3c0.2,6.3-0.6,12.6,0.4,18.8c5.8,0.3,6.9,3.9,6,8.8
		c-0.2,1.3,0,2.6,0,3.9c-8.3,0.1-16.6,0.2-25,0.2c-1.3,0-3.1,0.2-2.9-1.7c0.3-3.7-1.2-7.5,0.8-11c0.1,3.9,3.2,0.2,4.5,1.6
		C392.8,287.2,395.2,287.3,394.2,285z M407.2,282.7c0.2,0,0.3-0.1,0.5-0.1c0-5.9,0-11.7,0-17.6c-0.2,0-0.3,0-0.5,0
		C407.2,270.9,407.2,276.8,407.2,282.7z"/>
	<path fill="#522F8F" d="M499.1,297.4c-10.9,4.7-24.9,1.7-33.4-7.4c-8.8-9.4-10.9-24.1-5.1-35.8c8.3-16.7,28.6-22.5,44.2-12.1
		c6.7,4.4,11.9,10.4,13.1,18.9c-1.4,1.5-0.9,3.5-0.7,5.2c0.4,3.8-0.4,6.4-4.8,6.8c1.9,0,3.9,0,5.8,0c-0.3,0.7-0.9,0.9-1.6,0.9
		c-14.4-0.1-28.9-0.2-43.3-0.2c3.7-1.4,7.6-0.5,11.3-0.6c6.4-0.2,12.9,0,19.3,0c-10-1-19.9-1-29.9-1c-1.4,0-2.7,0.2-2.9,2
		c0.9,6.1,5.3,9.4,10.1,12.3c3.3,3,7.5,1.9,11.3,1.9c1.5,0,4.4,0.9,4.5-2.4c0,0-0.1,0.1-0.1,0.1c1,0,1.9,0,1.9-1.3
		c0,0-0.1,0.1-0.1,0.1c2.5,0.5,3.4-0.6,3.1-3l0.2,0.2c0,0-0.3-0.2-0.3-0.2c2.9,0.1,5.8,0.2,8.8,0.3c1.7,0,3.4-0.1,3.7,2.2
		c0,0,0.1-0.1,0.1-0.1C509.4,288.7,504.5,293.3,499.1,297.4z M471,262.9c1.3,1.5,3,0.9,4.6,1c7.6,0.1,15.1,0.1,22.7,0
		c2.2,0,4.6,0.9,6.6-0.8c-0.7-7.3-8-13.3-16.8-13.7C480.3,248.9,472.3,255.2,471,262.9z"/>
	<path fill="#543092" d="M544,283.8c0.3,0.4,0.7,0.8,1,1.2c2.1,2.3,6.6-1.1,7.7,2.5c0.9,2.8,0.3,6.2,0.3,9.3c0,0.3,0,0.7,0,1
		c-6.3,0.1-12.6,0-18.9,0.2c-3.1,0.1-3.9-0.9-3.9-4c0.2-12.4,0-24.9,0.1-37.3c0-3.6-0.5-5.8-4.7-5c-3.8,0.7-5.1-1-4.5-4.7
		c0.5-2.7-0.9-5.5,0.8-8c0,1.7,0.1,3.3,0.1,5c0,7.4,0,7.4,7.9,6.4c-6.8-1.3-6.6-1.3-7-4.7c-0.4-4.3,0.7-6.7,5.6-5.9
		c0.5,0.1,1.9,0.6,1.4-1c0.1-5.1,0.2-10.1,0.4-15.2c0.1-1.5-0.8-3.3,0.7-4.6c3.3,1.2,6.6,1.4,9.9-0.1c0.7,0,1.4,0,2.1,0
		c0,1.8,0,3.7,0,5.5c0,4.7,0,9.3,0.1,14c0,0.6,0.6,0.4,0.8-0.1c0.1-0.2,0.1-0.3,0.1-0.5c0.3,0.4,0.7,0.7,1,1.1
		c2,2.7,6.9-1.4,7.8,3.1c0.6,3,0.1,6.3,0.2,9.5c-3,0.2-5.9,0.3-8.9,0.5c-1.8,1.2-1.1,3-1.1,4.5c-0.1,7.2-0.1,14.5,0,21.7
		C543.1,280.1,542.2,282.2,544,283.8z M531.8,258c-0.1,0-0.3,0-0.4,0c0,12.6,0,25.1,0,37.7c0.1,0,0.3,0,0.4,0
		C531.8,283.1,531.8,270.5,531.8,258z"/>
	<path fill="#522E91" d="M303,297.7c-8.5,0.1-17,0.1-25.4,0.3c-2.1,0-3.1-0.5-2.9-2.8c0.1-1.7,0.2-3.3,0-5c-0.4-3.2,0.2-5.1,4.1-4.4
		c3.9,0.7,4.3-1.7,4.3-4.8c-0.1-16.3,0-32.6,0-48.9c0-1.8-1.1-2.2-2.7-2.2c-1.1,0-2.3,0.1-3-1.2c-2.2-4,0.4-8.8,4.9-8.8
		c1.8,0,3.7,0,5.5,0c8.3,0,7.4-0.9,7.4,7.5c0,18,0,35.9,0,53.9c0,2.1-0.6,4.9,2.9,4.5c4.9-0.6,5.5,2.1,5.2,5.9
		C302.9,293.7,303,295.7,303,297.7z"/>
	<path fill="#512E8E" d="M351,179.2c-0.4-10.1,9.4-18.3,18.5-18.2c10,0.1,18.4,8.6,18.3,18.6c-0.1,10.4-8.4,18.5-19,18.3
		C358.7,197.7,350.9,189.6,351,179.2z"/>
	<path fill="#7156A2" d="M414.3,147.8c0,7.6-6.1,13.7-13.6,13.6c-7.2-0.1-13.3-6.4-13.3-13.5c0-7.4,6.3-13.7,13.7-13.6
		C408.5,134.5,414.3,140.5,414.3,147.8z"/>
	<path fill="#9582BD" d="M436.4,149.1c-7.3,0-12.5-5.3-12.5-12.6c0-6.8,5.3-12.6,11.6-12.6c8.4-0.1,13.8,5,13.7,13
		C449,144.4,444.1,149.1,436.4,149.1z"/>
	<path fill="#A796C4" d="M480.1,137.3c0,5.6-4,9.7-9.6,9.7c-5.8,0.1-10.2-4.1-10.3-9.8c-0.1-5.1,5.1-10.1,10.4-9.9
		C476.1,127.4,480.1,131.5,480.1,137.3z"/>
	<path fill="#BBADD2" d="M506.8,149.6c-0.2,4.8-5.3,9.5-10,9.2c-4.6-0.3-8.7-4.7-8.6-9.4c0-4.9,4.9-9.6,9.7-9.4
		C502.5,140.2,506.9,144.9,506.8,149.6z"/>
	<path fill="#CAC1D9" d="M521.4,162.8c4.8-0.1,7.5,2.5,7.6,7.2c0.1,4.4-2.9,7.7-7.2,7.8c-4.5,0.1-7.9-3.1-7.9-7.6
		C514,165.7,516.8,162.9,521.4,162.8z"/>
	<path fill="#DCD7E7" d="M543,194.8c-0.3,3.4-2.2,5.7-6.2,6c-3,0.2-6.9-3.3-6.6-6.2c0.4-3.5,1.7-6.6,5.9-6.7
		C540,187.9,542.9,190.7,543,194.8z"/>
	<path fill="#422A69" d="M303,297.7c0-2-0.2-4,0-6c0.4-3.9-0.2-6.5-5.2-5.9c-3.5,0.4-2.9-2.4-2.9-4.5c0-18,0-35.9,0-53.9
		c0-8.4,0.9-7.4-7.4-7.5c-1.8,0-3.7,0-5.5,0c-4.5,0-7.1,4.8-4.9,8.8c0.7,1.3,1.9,1.2,3,1.2c1.5,0,2.6,0.4,2.7,2.2
		c-0.6-0.1-1.3-0.3-1.9-0.4c-1.7-1.4-3.8-0.5-5.7-0.7c0-0.3,0-0.7-0.1-1c0.1-0.1,0.3-0.2,0.3-0.3c-0.1-0.2-0.2-0.5-0.3-0.7
		c0-1.3,0-2.7,0-4c1.4-1.8,0.5-3.9,0.7-5.8c6.7-0.3,13.4-0.4,20.1,0.1c0,2.9-0.8,5.9,0.4,8.8c0,0.7,0,1.4,0,2.1
		c-0.2,0.8-0.6,1.6-0.6,2.4c0,16.5,0,33,0,49.5c0,1.2-0.1,2.4,1,3.1c1.3,0,2.7,0.1,4,0c2.3-0.2,3.5,0.5,3.1,3
		C303.5,291.2,305.3,294.7,303,297.7z"/>
	<path fill="#522E91" d="M297,284.9c-1.2-0.8-1-2-1-3.1c0-16.5,0-33,0-49.5c0-0.8,0.4-1.6,0.6-2.4c0.1,16,0.2,32,0.3,48
		C296.8,280.2,296.9,282.6,297,284.9z"/>
	<path fill="#422A69" d="M218,234c1.3,0.9,1,2.3,1,3.6c0,14.2,0,28.4,0,42.6c0,1.3,0.3,2.7-1,3.6C218,267.2,218,250.6,218,234z"/>
	<path fill="#DCD7E7" d="M111.9,297.7c5.3-3,10.8-5.6,14.5-10.9c1.4,1.9,1.3,3.4,0.6,5c-3.6,0.4-6.2,3-9.2,4.6
		C115.7,297.4,114,298,111.9,297.7z"/>
	<path fill="#502D8F" d="M471,273.9c0.2-1.8,1.5-2,2.9-2c9.9,0,19.9,0,29.9,1c-6.4,0-12.9-0.1-19.3,0c-3.8,0.1-7.6-0.8-11.3,0.6
		C472.4,273.6,471.7,273.8,471,273.9z"/>
	<path fill="#422A69" d="M499.1,297.4c5.4-4,10.3-8.7,15.1-13.4c-0.1,2.3-2,3.4-3.1,5c-0.3,0.4-0.7,0.8-1,1.1
		C507.2,293.6,503.5,296,499.1,297.4z"/>
	<path fill="#522F8F" d="M553,297.8c0-0.3,0-0.7,0-1c-0.1-3.1,0.6-6.4-0.3-9.3c-1.1-3.6-5.5-0.2-7.7-2.5c10.7-0.4,11.6,0.6,9.9,11.3
		C554.7,297.6,554.2,298,553,297.8z"/>
	<path fill="#422A69" d="M514.1,284.1c-0.3-2.3-2-2.1-3.7-2.2c-2.9-0.1-5.8-0.2-8.8-0.3c4.3-2.4,9-1.2,13.4-0.8
		C517.2,280.9,515.2,283.1,514.1,284.1z"/>
	<path fill="#422A69" d="M243,219c-6.7,2-13.5,0.6-20.2,0.8c-4.2,0.1-8.6,1.1-12.7-0.8C221,219,232,219,243,219z"/>
	<path fill="#422A69" d="M544,283.8c-1.7-1.6-0.9-3.7-0.9-5.6c-0.1-7.2-0.1-14.5,0-21.7c0-1.5-0.7-3.4,1.1-4.5
		C544.1,262.6,544,273.2,544,283.8z"/>
	<path fill="#543092" d="M328.2,297.8c6,0,12,0.1,17.9,0.1C340.2,300.5,334.2,300.3,328.2,297.8z"/>
	<path fill="#522F8F" d="M308.8,260.2c0,5.7,0,11.5,0.1,17.2C306.6,271.7,306.5,266,308.8,260.2z"/>
	<path fill="#502D8F" d="M518,272.9c-1.9,0-3.9,0-5.8,0c4.5-0.4,5.2-3,4.8-6.8c-0.2-1.7-0.6-3.6,0.7-5.2
		C518.8,264.9,519.4,268.9,518,272.9z"/>
	<path fill="#422A69" d="M529.9,238.9c0.4,1.6-0.9,1.1-1.4,1c-4.9-0.8-6,1.6-5.6,5.9c0.3,3.4,0.2,3.4,7,4.7c-7.8,1-7.8,1-7.9-6.4
		c0-1.7-0.1-3.3-0.1-5C524.6,239,527.3,238.9,529.9,238.9z"/>
	<path fill="#422A69" d="M496.9,285.7c-0.1,3.3-3,2.4-4.5,2.4c-3.8,0-8,1.1-11.3-1.9C486.4,288,491.7,287.7,496.9,285.7z"/>
	<path fill="#422A69" d="M553,251.5c0-3.2,0.4-6.4-0.2-9.5c-0.9-4.5-5.8-0.4-7.8-3.1c9.2-0.4,9.2-0.4,9,8.8
		C554,249,555.1,250.7,553,251.5z"/>
	<path fill="#422A69" d="M544,237.8c0,0.2-0.1,0.3-0.1,0.5c-0.2,0.5-0.8,0.7-0.8,0.1c-0.1-4.7-0.1-9.3-0.1-14c0-1.8,0-3.7,0-5.5
		c2.5,2.2,0.9,5.1,1.1,7.6C544.4,230.3,544.1,234.1,544,237.8z"/>
	<path fill="#422A69" d="M415,297.7c0-1.3-0.2-2.6,0-3.9c0.8-4.9-0.2-8.5-6-8.8c2.2,0.1,6-1.1,6.4,0.6
		C416.4,289.5,417.2,293.8,415,297.7z"/>
	<path fill="#422A69" d="M395,264.9c1.6,6.3,1.6,12.7,0,19C395,277.5,395,271.2,395,264.9z"/>
	<path fill="#422A69" d="M419,250.9c-0.2,0-0.3-0.1-0.5-0.1c-0.2-0.1-0.3-0.2-0.4-0.2c3.5-1,7-1.2,10.4,0.3
		c-0.2,0.4-0.5,0.8-0.7,1.2C425,251.1,422,250.7,419,250.9z"/>
	<path fill="#422A69" d="M394.2,285c1,2.3-1.4,2.2-1.8,1.8c-1.3-1.5-4.3,2.3-4.5-1.6C390.1,285.1,392.1,285.1,394.2,285z"/>
	<path fill="#422A69" d="M540.9,219c-3.3,1.5-6.6,1.3-9.9,0.1C534.3,219.1,537.6,219,540.9,219z"/>
	<path fill="#522E91" d="M296.5,227.9c-1.2-2.9-0.5-5.8-0.4-8.8C297.6,222,296.7,224.9,296.5,227.9z"/>
	<path fill="#522F8F" d="M308.9,277.9c2.5,1,2.1,3.1,2.1,5.1C309.7,281.5,309,279.8,308.9,277.9z"/>
	<path fill="#422A69" d="M501.7,281.5c0.3,2.4-0.6,3.5-3.1,3C499.6,283.5,500.7,282.5,501.7,281.5z"/>
	<path fill="#522E91" d="M275.3,230.9c1.9,0.2,3.9-0.7,5.7,0.7C279.1,231.6,277,232.7,275.3,230.9z"/>
	<path fill="#522E91" d="M276,219c-0.3,1.9,0.7,4-0.7,5.8C275.3,222.9,274.1,220.8,276,219z"/>
	<path fill="#422A69" d="M498.7,284.4c0,1.3-1,1.4-1.9,1.3C497.4,285.3,498.1,284.9,498.7,284.4z"/>
	<path fill="#522E91" d="M275.3,228.9c0.1,0.2,0.2,0.5,0.3,0.7c0,0.1-0.2,0.2-0.3,0.3C275.3,229.5,275.3,229.2,275.3,228.9z"/>
	<path fill="#422A69" d="M395,256.9c0.7,0.3,0.7,0.7,0,1C395,257.6,395,257.2,395,256.9z"/>
	<path fill="#522F8F" d="M510.1,290c0.3-0.4,0.7-0.8,1-1.1C510.7,289.3,510.4,289.7,510.1,290z"/>
	<path fill="#422A69" d="M395,253c0.1,0.2,0.3,0.4,0.4,0.7c0,0-0.2,0.2-0.4,0.2C394.8,253.6,394.8,253.3,395,253z"/>
	<path fill="#422A69" d="M249,233.7c-5.3-1.4-10.6-0.7-15.9-0.7C238.4,231.7,243.8,230.2,249,233.7z"/>
	<path fill="#422A69" d="M369.7,252.9c0,9.9,0,19.8,0,29.8c-0.1,0-0.3,0-0.4,0c0-9.9,0-19.8,0-29.8
		C369.4,252.9,369.5,252.9,369.7,252.9z"/>
	<path fill="#522F8F" d="M351,255c-5.4-4.1-11.3-5.1-17.8-3.5C338.8,247.7,349.3,249.8,351,255z"/>
	<path fill="#522F8F" d="M355.1,275.9c1.9-5.3,1.8-10.6-0.2-15.9c2.5-0.1,2.6,2.4,2.5,3.4C357,267.6,358.6,272.3,355.1,275.9z"/>
	<path fill="#522F8F" d="M354.9,260c-1-1.4-2-2.7-2.9-4.1C355.3,255.6,355.1,257.8,354.9,260z"/>
	<path fill="#522F8F" d="M352,256c-0.3-0.3-0.7-0.7-1-1C351.3,255.3,351.6,255.6,352,256z"/>
	<path fill="#422A69" d="M407.2,282.7c0-5.9,0-11.8,0-17.7c0.2,0,0.3,0,0.5,0c0,5.9,0,11.7,0,17.6
		C407.5,282.6,407.4,282.7,407.2,282.7z"/>
	<path fill="#422A69" d="M471,262.9c11.3,0,22.6,0.1,33.9,0.1c-2,1.7-4.4,0.8-6.6,0.8c-7.6,0.1-15.1,0.1-22.7,0
		C474.1,263.9,472.3,264.4,471,262.9z"/>
	<path fill="#502D8F" d="M531.8,258c0,12.6,0,25.1,0,37.7c-0.1,0-0.3,0-0.4,0c0-12.6,0-25.1,0-37.7C531.5,258,531.6,258,531.8,258z"
		/>
</g>
</svg>
