<?xml version="1.0" encoding="utf-8"?>
<!-- Generator: Adobe Illustrator 18.1.1, SVG Export Plug-In . SVG Version: 6.00 Build 0)  -->
<!DOCTYPE svg PUBLIC "-//W3C//DTD SVG 1.1//EN" "http://www.w3.org/Graphics/SVG/1.1/DTD/svg11.dtd">
<svg version="1.1" id="Layer_1" xmlns="http://www.w3.org/2000/svg" xmlns:xlink="http://www.w3.org/1999/xlink" x="0px" y="0px"
	 viewBox="694 -604 2000 2000" enable-background="new 694 -604 2000 2000" xml:space="preserve">
<g id="surface1">
	<path fill="#181616" d="M1693.9-579.1c-552.1,0-999.7,447.6-999.7,999.8c0,441.7,286.4,816.4,683.8,948.7c50,9.1,65.8-20.5,65.8-47
		c0-23.8,0.5-90.1,0-173.6c-278.1,60.4-335.7-131.7-335.7-131.7c-45.4-115.5-110.9-146.2-110.9-146.2c-90.8-62,6.8-60.8,6.8-60.8
		c100.3,7.1,153.2,103.1,153.2,103.1c89.2,152.7,233.9,108.6,290.9,83.1c9.1-64.6,35-108.7,63.6-133.7
		c-222-25.2-455.4-111-455.4-494.1c0-109.2,38.9-198.4,102.9-268.2c-10.3-25.2-44.7-126.9,9.8-264.6c0,0,83.9-26.9,274.9,102.6
		c79.8-22.2,165.3-33.2,250.3-33.6c84.9,0.4,170.4,11.4,250.3,33.6c190.9-129.4,274.8-102.6,274.8-102.6
		c54.5,137.7,20.2,239.4,9.9,264.6c63.9,69.9,102.8,159.1,102.8,268.2c0,384.1-233.8,468.6-456.5,493.3
		c35.9,30.9,68.4,90.9,68.4,184.2c0,125,0,243.9,0,276.8c0,26.8,16.1,56.3,66.9,46.6c397-132.4,683.1-507,683.1-948.6
		C2693.8-131.5,2246.1-579.1,1693.9-579.1z"/>
</g>
</svg>
