<?xml version="1.0" encoding="utf-8"?>
<!-- Generator: Adobe Illustrator 18.1.1, SVG Export Plug-In . SVG Version: 6.00 Build 0)  -->
<!DOCTYPE svg PUBLIC "-//W3C//DTD SVG 1.1//EN" "http://www.w3.org/Graphics/SVG/1.1/DTD/svg11.dtd">
<svg version="1.1" id="Layer_1" xmlns="http://www.w3.org/2000/svg" xmlns:xlink="http://www.w3.org/1999/xlink" x="0px" y="0px"
	 viewBox="-240 332 130 130" enable-background="new -240 332 130 130" xml:space="preserve">
<g>
	<path fill="#E9493D" d="M-147.5,381.3L-147.5,381.3c-0.6-14.8-12.7-26.6-27.5-27c-14.9,0.4-26.9,12.2-27.5,27v0c0,0.4,0,0.8,0,1.3
		c0,11.3,9.3,18.1,16.4,27.4c8.3,10.8,11.1,30.5,11.1,30.5s2.9-19.7,11.1-30.5c7.1-9.3,16.4-16.1,16.4-27.4
		C-147.5,382.1-147.5,381.7-147.5,381.3z"/>
	<path fill="#3B231F" d="M-174.2,440.5h-1.6c0-0.2-2.9-19.6-11-30.1c-1.7-2.3-3.6-4.4-5.5-6.5c-5.7-6.5-11.1-12.6-11.1-21.4
		c0-0.3,0-0.6,0-1l0-0.1l0.1-0.3c0.7-15.2,13.1-27.3,28.3-27.7c15.2,0.4,27.7,12.5,28.4,27.7l0.1,0.3l0,0.1c0,0.3,0,0.6,0,1
		c0,8.8-5.4,15-11.1,21.4c-1.8,2.1-3.7,4.2-5.5,6.5C-171.3,420.9-174.1,440.3-174.2,440.5z M-201.7,381.2L-201.7,381.2
		c0,0.5,0,0.9,0,1.3c0,8.2,5.2,14.1,10.7,20.3c1.9,2.1,3.8,4.3,5.5,6.6c6,7.8,9.1,19.8,10.5,26.3c1.4-6.5,4.5-18.6,10.5-26.3
		c1.8-2.3,3.7-4.5,5.5-6.6c5.5-6.2,10.7-12.1,10.7-20.3c0-0.4,0-0.8,0-1.2l0-0.1c-0.7-14.3-12.4-25.7-26.7-26.1
		C-189.3,355.5-201,366.9-201.7,381.2L-201.7,381.2z"/>
	<circle fill="#231117" cx="-175" cy="381.4" r="8.3"/>
</g>
</svg>
