<?xml version="1.0" encoding="UTF-8"?>
<svg xmlns="http://www.w3.org/2000/svg" xmlns:xlink="http://www.w3.org/1999/xlink" width="2000pt" height="2000pt" viewBox="0 0 2000 2000" version="1.1">
<defs>
<clipPath id="clip1">
  <path d="M 125 0 L 1162 0 L 1162 2000 L 125 2000 Z M 125 0 "/>
</clipPath>
<clipPath id="clip2">
  <path d="M 1439.25 719.875 L 1021.125 478.5 C 1021.125 478.5 259.25 38.5 214.375 12.6875 C 169.6875 -13.1875 125 2.4375 125 56.375 C 125 146.375 125 995.6875 125 995.6875 C 125 995.6875 125 1913.5 125 1954 C 125 1994.5625 157 2012.125 195.8125 1989.5625 C 234.8125 1967.125 1021.125 1513 1021.125 1513 L 1439.25 1271.625 C 1439.25 1271.625 1794.125 1066.75 1841.3125 1039.5 C 1888.4375 1012.3125 1884 975 1844.125 953.5 C 1804.25 932 1439.25 719.875 1439.25 719.875 Z M 1439.25 719.875 "/>
</clipPath>
<clipPath id="clip3">
  <path d="M 125 0 L 1440 0 L 1440 996 L 125 996 Z M 125 0 "/>
</clipPath>
<clipPath id="clip4">
  <path d="M 1439.25 719.875 L 1021.125 478.5 C 1021.125 478.5 259.25 38.5 214.375 12.6875 C 169.6875 -13.1875 125 2.4375 125 56.375 C 125 146.375 125 995.6875 125 995.6875 C 125 995.6875 125 1913.5 125 1954 C 125 1994.5625 157 2012.125 195.8125 1989.5625 C 234.8125 1967.125 1021.125 1513 1021.125 1513 L 1439.25 1271.625 C 1439.25 1271.625 1794.125 1066.75 1841.3125 1039.5 C 1888.4375 1012.3125 1884 975 1844.125 953.5 C 1804.25 932 1439.25 719.875 1439.25 719.875 Z M 1439.25 719.875 "/>
</clipPath>
<clipPath id="clip5">
  <path d="M 125 995 L 1440 995 L 1440 2000 L 125 2000 Z M 125 995 "/>
</clipPath>
<clipPath id="clip6">
  <path d="M 1439.25 719.875 L 1021.125 478.5 C 1021.125 478.5 259.25 38.5 214.375 12.6875 C 169.6875 -13.1875 125 2.4375 125 56.375 C 125 146.375 125 995.6875 125 995.6875 C 125 995.6875 125 1913.5 125 1954 C 125 1994.5625 157 2012.125 195.8125 1989.5625 C 234.8125 1967.125 1021.125 1513 1021.125 1513 L 1439.25 1271.625 C 1439.25 1271.625 1794.125 1066.75 1841.3125 1039.5 C 1888.4375 1012.3125 1884 975 1844.125 953.5 C 1804.25 932 1439.25 719.875 1439.25 719.875 Z M 1439.25 719.875 "/>
</clipPath>
<clipPath id="clip7">
  <path d="M 1161 719 L 1876 719 L 1876 1272 L 1161 1272 Z M 1161 719 "/>
</clipPath>
<clipPath id="clip8">
  <path d="M 1439.25 719.875 L 1021.125 478.5 C 1021.125 478.5 259.25 38.5 214.375 12.6875 C 169.6875 -13.1875 125 2.4375 125 56.375 C 125 146.375 125 995.6875 125 995.6875 C 125 995.6875 125 1913.5 125 1954 C 125 1994.5625 157 2012.125 195.8125 1989.5625 C 234.8125 1967.125 1021.125 1513 1021.125 1513 L 1439.25 1271.625 C 1439.25 1271.625 1794.125 1066.75 1841.3125 1039.5 C 1888.4375 1012.3125 1884 975 1844.125 953.5 C 1804.25 932 1439.25 719.875 1439.25 719.875 Z M 1439.25 719.875 "/>
</clipPath>
</defs>
<g id="surface1">
<g clip-path="url(#clip1)" clip-rule="nonzero">
<g clip-path="url(#clip2)" clip-rule="nonzero">
<path style=" stroke:none;fill-rule:nonzero;fill:rgb(17.254902%,68.627451%,63.529412%);fill-opacity:1;" d="M 125 -31.5 L 125 2022.9375 L 1161.0625 995.75 Z M 125 -31.5 "/>
</g>
</g>
<g clip-path="url(#clip3)" clip-rule="nonzero">
<g clip-path="url(#clip4)" clip-rule="nonzero">
<path style=" stroke:none;fill-rule:nonzero;fill:rgb(46.666667%,90.980392%,53.333333%);fill-opacity:1;" d="M 1439.25 719.875 L 1021.125 478.4375 L 125 -39 L 125 -31.5 L 1161.0625 995.75 Z M 1439.25 719.875 "/>
</g>
</g>
<g clip-path="url(#clip5)" clip-rule="nonzero">
<g clip-path="url(#clip6)" clip-rule="nonzero">
<path style=" stroke:none;fill-rule:nonzero;fill:rgb(80%,22.745098%,44.705882%);fill-opacity:1;" d="M 125 2022.9375 L 125 2030.4375 L 1021.125 1513.0625 L 1439.25 1271.6875 L 1161.0625 995.75 Z M 125 2022.9375 "/>
</g>
</g>
<g clip-path="url(#clip7)" clip-rule="nonzero">
<g clip-path="url(#clip8)" clip-rule="nonzero">
<path style=" stroke:none;fill-rule:nonzero;fill:rgb(91.764706%,56.470588%,32.54902%);fill-opacity:1;" d="M 1439.25 719.875 L 1161.0625 995.75 L 1439.25 1271.6875 L 1917.25 995.75 Z M 1439.25 719.875 "/>
</g>
</g>
</g>
</svg>
