<?xml version="1.0" encoding="UTF-8"?>
<svg xmlns="http://www.w3.org/2000/svg" xmlns:xlink="http://www.w3.org/1999/xlink" width="2000pt" height="2000pt" viewBox="0 0 2000 2000" version="1.1">
<g id="surface1">
<path style=" stroke:none;fill-rule:nonzero;fill:rgb(87.843137%,18.431373%,18.431373%);fill-opacity:1;" d="M 1026.5625 1150.9375 C 970.5 1111.3125 863.5 1014.9375 863.5 958.25 C 863.5 891.875 882.4375 859.125 982.375 781.0625 C 1084.75 701 1157.3125 569.8125 1157.3125 438.8125 C 1157.3125 283.0625 1087.8125 187.5 957.5625 62.5 L 1154.0625 62.5 L 1292.6875 0 C 1292.6875 0 828.0625 0 673.125 0 C 395.3125 0 134 210.125 134 453.8125 C 134 702.9375 323.3125 903.875 605.9375 903.875 C 625.5625 903.875 644.625 903.375 663.375 902.125 C 645 937.125 631.9375 976.625 631.9375 1017.6875 C 631.9375 1086.9375 669.1875 1143.0625 716.1875 1188.9375 C 680.75 1188.9375 646.3125 1189.9375 608.875 1189.9375 C 264.6875 1189.875 0 1408.9375 0 1636.1875 C 0 1859.875 290.3125 2000 634.25 2000 C 1026.5 2000 1243.0625 1777.375 1243.0625 1553.625 C 1243.125 1374.1875 1190.125 1266.8125 1026.5625 1150.9375 Z M 695.5625 840.5 C 535.875 835.75 384.25 661.9375 356.6875 452.4375 C 329.1875 242.75 436.1875 82.3125 595.6875 87.0625 C 755.3125 91.9375 907 260.0625 934.625 469.6875 C 962.1875 679.375 855.0625 845.25 695.5625 840.5 Z M 633 1900.9375 C 395.1875 1900.9375 223.4375 1750.5 223.4375 1569.625 C 223.4375 1392.5 436.4375 1244.9375 674.3125 1247.5 C 729.8125 1248.125 781.5 1257 828.375 1272.1875 C 957.5 1362.0625 1050.125 1412.8125 1076.375 1515 C 1081.125 1535.75 1083.9375 1557.1875 1083.9375 1578.9375 C 1083.9375 1759.6875 967.375 1900.9375 633 1900.9375 Z M 633 1900.9375 "/>
<path style=" stroke:none;fill-rule:nonzero;fill:rgb(87.843137%,18.431373%,18.431373%);fill-opacity:1;" d="M 1687.5 875 L 1687.5 562.5 L 1562.5 562.5 L 1562.5 875 L 1250 875 L 1250 1000 L 1562.5 1000 L 1562.5 1312.5 L 1687.5 1312.5 L 1687.5 1000 L 2000 1000 L 2000 875 Z M 1687.5 875 "/>
</g>
</svg>
