<?xml version="1.0" encoding="utf-8"?>
<!-- Generator: Adobe Illustrator 18.1.1, SVG Export Plug-In . SVG Version: 6.00 Build 0)  -->
<!DOCTYPE svg PUBLIC "-//W3C//DTD SVG 1.1//EN" "http://www.w3.org/Graphics/SVG/1.1/DTD/svg11.dtd">
<svg version="1.1" id="Layer_1" xmlns="http://www.w3.org/2000/svg" xmlns:xlink="http://www.w3.org/1999/xlink" x="0px" y="0px"
	 viewBox="694 -604 2000 2000" enable-background="new 694 -604 2000 2000" xml:space="preserve">
<filter  width="100%" height="100%" filterUnits="objectBoundingBox" id="alpha" y="0%" x="0%">
	<feColorMatrix  type="matrix" in="SourceGraphic" values="0 0 0 0 1 0 0 0 0 1 0 0 0 0 1 0 0 0 1 0"></feColorMatrix>
</filter>
<defs>
	<filter id="Adobe_OpacityMaskFilter" filterUnits="userSpaceOnUse" x="693.5" y="-604.5" width="2001.1" height="2001.1">
		<feColorMatrix  type="matrix" values="1 0 0 0 0  0 1 0 0 0  0 0 1 0 0  0 0 0 1 0"/>
	</filter>
</defs>
<mask maskUnits="userSpaceOnUse" x="693.5" y="-604.5" width="2001.1" height="2001.1" id="mask0">
	<g filter="url(#alpha)">
		<g>
			<rect x="693.5" y="-604.5" opacity="0.349" width="2000" height="2000"/>
		</g>
	</g>
	<g filter="url(#alpha)">
		<g>
			<rect x="693.5" y="-604.5" opacity="0.502" width="2000" height="2000"/>
		</g>
	</g>
</mask>
<g id="surface1" mask="url(#mask0)">
	
		<linearGradient id="SVGID_1_" gradientUnits="userSpaceOnUse" x1="1474.8792" y1="783.6666" x2="1474.8792" y2="821.1865" gradientTransform="matrix(10 0 0 -10 -12492 7920)">
		<stop  offset="0" style="stop-color:#796055"/>
		<stop  offset="0.2793" style="stop-color:#69534A"/>
		<stop  offset="0.8647" style="stop-color:#45352F"/>
		<stop  offset="1" style="stop-color:#3D2D28"/>
	</linearGradient>
	<path fill="url(#SVGID_1_)" d="M2444.4,63.3c0,11-9,20-20,20h-335.2c-11,0-20-9-20-20v-335.2c0-11,9-20,20-20h335.2
		c11,0,20,9,20,20V63.3z"/>
	
		<linearGradient id="SVGID_2_" gradientUnits="userSpaceOnUse" x1="1418.6" y1="850.6367" x2="1418.6" y2="655.0659" gradientTransform="matrix(10 0 0 -10 -12492 7920)">
		<stop  offset="0" style="stop-color:#DBD8CF"/>
		<stop  offset="1" style="stop-color:#D4C4A1"/>
	</linearGradient>
	<path fill="url(#SVGID_2_)" d="M1027,1388.7c-179.6,0-325.7-146.1-325.7-325.7V-271c0-179.6,146.1-325.7,325.7-325.7h1334
		c179.6,0,325.7,146.1,325.7,325.7V1063c0,179.6-146.1,325.7-325.7,325.7H1027z"/>
	<path fill="#A2826D" d="M2361-588.9c175.3,0,317.9,142.6,317.9,317.9V1063c0,175.3-142.6,317.9-317.9,317.9H1027
		c-175.3,0-317.9-142.6-317.9-317.9V-271c0-175.3,142.7-317.9,317.9-317.9H2361 M2361-604.5H1027c-183.4,0-333.6,150.1-333.6,333.6
		V1063c0,183.6,150.1,333.6,333.6,333.6h1334c183.4,0,333.5-150,333.5-333.6V-271C2694.5-454.4,2544.5-604.5,2361-604.5z"/>
	
		<linearGradient id="SVGID_3_" gradientUnits="userSpaceOnUse" x1="1418.5996" y1="777.4127" x2="1418.5996" y2="852.4525" gradientTransform="matrix(10 0 0 -10 -12492 7920)">
		<stop  offset="0" style="stop-color:#796055"/>
		<stop  offset="0.2793" style="stop-color:#69534A"/>
		<stop  offset="0.8647" style="stop-color:#45352F"/>
		<stop  offset="1" style="stop-color:#3D2D28"/>
	</linearGradient>
	<path fill="url(#SVGID_3_)" d="M2694.5,145.9V-271c0-179.6-153.9-333.6-333.5-333.6H1027c-179.6,0-333.6,153.9-333.6,333.6v416.8
		H2694.5z"/>
	
		<linearGradient id="SVGID_4_" gradientUnits="userSpaceOnUse" x1="1418.6" y1="851.4105" x2="1418.6" y2="654.3002" gradientTransform="matrix(10 0 0 -10 -12492 7920)">
		<stop  offset="0" style="stop-color:#CABEB2"/>
		<stop  offset="1" style="stop-color:#AD9A88"/>
	</linearGradient>
	<path fill="url(#SVGID_4_)" d="M2361-604.5H1027c-183.4,0-333.6,150.1-333.6,333.6V1063c0,183.6,150.1,333.6,333.6,333.6h1334
		c183.4,0,333.5-150,333.5-333.6V-271C2694.5-454.4,2544.5-604.5,2361-604.5z M2632,1063c0,149.5-121.5,271-271,271H1027
		c-149.4,0-271-121.5-271-271V-271c0-149.5,121.6-271,271-271h1334c149.4,0,271,121.5,271,271V1063z"/>
	<g>
		<g>
			<defs>
				<rect id="SVGID_5_" x="693.5" y="-604.5" width="2000" height="2000"/>
			</defs>
			<clipPath id="SVGID_6_">
				<use xlink:href="#SVGID_5_"  overflow="visible"/>
			</clipPath>
			<g id="surface6" clip-path="url(#SVGID_6_)">
				
					<linearGradient id="SVGID_7_" gradientUnits="userSpaceOnUse" x1="1418.6002" y1="657.8187" x2="1418.6002" y2="764.2219" gradientTransform="matrix(10 0 0 -10 -12492 7920)">
					<stop  offset="0" style="stop-color:#FFFFFF"/>
					<stop  offset="1" style="stop-color:#010101"/>
				</linearGradient>
				<path fill="url(#SVGID_7_)" d="M2361-542H1027c-149.4,0-271,121.5-271,271V1063c0,149.5,121.6,271,271,271h1334
					c149.4,0,271-121.5,271-271V-271C2632-420.5,2510.5-542,2361-542z M2569.5,1063c0,114.9-93.5,208.5-208.4,208.5H1027
					c-114.9,0-208.5-93.5-208.5-208.5V-271c0-114.9,93.6-208.5,208.5-208.5h1334c114.9,0,208.4,93.6,208.4,208.5V1063z"/>
			</g>
		</g>
	</g>
	<g>
		<g>
			<defs>
				<rect id="SVGID_8_" x="693.5" y="-604.5" width="2000" height="2000"/>
			</defs>
			<clipPath id="SVGID_9_">
				<use xlink:href="#SVGID_8_"  overflow="visible"/>
			</clipPath>
			<g id="surface9" clip-path="url(#SVGID_9_)">
				
					<linearGradient id="SVGID_10_" gradientUnits="userSpaceOnUse" x1="1418.6002" y1="846.0253" x2="1418.6002" y2="813.1696" gradientTransform="matrix(10 0 0 -10 -12492 7920)">
					<stop  offset="0" style="stop-color:#FFFFFF"/>
					<stop  offset="1" style="stop-color:#010101"/>
				</linearGradient>
				<path fill="url(#SVGID_10_)" d="M2361-542H1027c-149.4,0-271,121.5-271,271v62.5c0-149.5,121.6-271,271-271h1334
					c149.4,0,271,121.5,271,271V-271C2632-420.5,2510.5-542,2361-542z"/>
			</g>
		</g>
	</g>
	
		<linearGradient id="SVGID_11_" gradientUnits="userSpaceOnUse" x1="1418.5996" y1="780.5233" x2="1418.5996" y2="777.4437" gradientTransform="matrix(10 0 0 -10 -12492 7920)">
		<stop  offset="0" style="stop-color:#CABEB2"/>
		<stop  offset="1" style="stop-color:#AD9A88"/>
	</linearGradient>
	<path fill="url(#SVGID_11_)" d="M756,114.6h1876v31.3H756V114.6z"/>
	
		<linearGradient id="SVGID_12_" gradientUnits="userSpaceOnUse" x1="1418.5996" y1="777.3969" x2="1418.5996" y2="774.3173" gradientTransform="matrix(10 0 0 -10 -12492 7920)">
		<stop  offset="0" style="stop-color:#CABEB2"/>
		<stop  offset="1" style="stop-color:#AD9A88"/>
	</linearGradient>
	<path fill="url(#SVGID_12_)" d="M756,145.9h1876v31.3H756V145.9z"/>
	
		<linearGradient id="SVGID_13_" gradientUnits="userSpaceOnUse" x1="1474.8792" y1="789.9197" x2="1474.8792" y2="827.4385" gradientTransform="matrix(10 0 0 -10 -12492 7920)">
		<stop  offset="0" style="stop-color:#796055"/>
		<stop  offset="0.2793" style="stop-color:#69534A"/>
		<stop  offset="0.8647" style="stop-color:#45352F"/>
		<stop  offset="1" style="stop-color:#3D2D28"/>
	</linearGradient>
	<path fill="url(#SVGID_13_)" d="M2444.4-104.3c0,68.8-56.3,125.1-125.1,125.1h-125.1c-68.8,0-125.1-56.3-125.1-125.1v-125.1
		c0-68.8,56.3-125.1,125.1-125.1h125.1c68.8,0,125.1,56.3,125.1,125.1V-104.3z"/>
	<path fill="#333333" d="M2319.3,20.8h-125.1c-68.8,0-125.1-56.3-125.1-125.1V-73c0,68.8,56.3,125.1,125.1,125.1h125.1
		c68.8,0,125.1-56.3,125.1-125.1v-31.3C2444.4-35.5,2388.1,20.8,2319.3,20.8z"/>
	<path fill="#B4B4B4" d="M2194.3,458.5c0,276.3-224,500.3-500.3,500.3c-276.3,0-500.3-224-500.3-500.3
		c0-276.3,224-500.3,500.3-500.3C1970.3-41.7,2194.3,182.2,2194.3,458.5z"/>
	
		<linearGradient id="SVGID_14_" gradientUnits="userSpaceOnUse" x1="1352.9407" y1="852.4525" x2="1352.9407" y2="777.4127" gradientTransform="matrix(10 0 0 -10 -12492 7920)">
		<stop  offset="0" style="stop-color:#F37F5F"/>
		<stop  offset="0.5" style="stop-color:#EB2227"/>
		<stop  offset="1" style="stop-color:#CF232B"/>
	</linearGradient>
	<path fill="url(#SVGID_14_)" d="M1006.1-604.5h62.5v750.4h-62.5V-604.5z"/>
	
		<linearGradient id="SVGID_15_" gradientUnits="userSpaceOnUse" x1="1359.1936" y1="852.4525" x2="1359.1936" y2="777.4127" gradientTransform="matrix(10 0 0 -10 -12492 7920)">
		<stop  offset="0" style="stop-color:#FEE7A3"/>
		<stop  offset="0.5" style="stop-color:#FFCB0A"/>
		<stop  offset="1" style="stop-color:#F8AC1C"/>
	</linearGradient>
	<path fill="url(#SVGID_15_)" d="M1068.7-604.5h62.5v750.4h-62.5V-604.5z"/>
	
		<linearGradient id="SVGID_16_" gradientUnits="userSpaceOnUse" x1="1365.4467" y1="852.4525" x2="1365.4467" y2="777.4127" gradientTransform="matrix(10 0 0 -10 -12492 7920)">
		<stop  offset="0" style="stop-color:#D2E5A6"/>
		<stop  offset="0.5" style="stop-color:#ACD479"/>
		<stop  offset="1" style="stop-color:#77B843"/>
	</linearGradient>
	<path fill="url(#SVGID_16_)" d="M1131.2-604.5h62.5v750.4h-62.5V-604.5z"/>
	
		<linearGradient id="SVGID_17_" gradientUnits="userSpaceOnUse" x1="1371.6996" y1="852.4525" x2="1371.6996" y2="777.4127" gradientTransform="matrix(10 0 0 -10 -12492 7920)">
		<stop  offset="0" style="stop-color:#4B9BD5"/>
		<stop  offset="0.5" style="stop-color:#3E7DC0"/>
		<stop  offset="1" style="stop-color:#356DB5"/>
	</linearGradient>
	<path fill="url(#SVGID_17_)" d="M1193.7-604.5h62.5v750.4h-62.5V-604.5z"/>
	
		<linearGradient id="SVGID_18_" gradientUnits="userSpaceOnUse" x1="1362.3199" y1="796.1725" x2="1362.3199" y2="771.1595" gradientTransform="matrix(10 0 0 -10 -12492 7920)">
		<stop  offset="0" style="stop-color:#634E45"/>
		<stop  offset="1" style="stop-color:#3D2D28"/>
	</linearGradient>
	<path fill="url(#SVGID_18_)" d="M1318.8,188.4c0,11-9,20-20,20H963.6c-11,0-20-9-20-20V-21.7c0-11,9-20,20-20h335.2
		c11,0,20,9,20,20V188.4z"/>
	
		<linearGradient id="SVGID_19_" gradientUnits="userSpaceOnUse" x1="1362.3199" y1="789.9197" x2="1362.3199" y2="764.9064" gradientTransform="matrix(10 0 0 -10 -12492 7920)">
		<stop  offset="0" style="stop-color:#634E45"/>
		<stop  offset="1" style="stop-color:#3D2D28"/>
	</linearGradient>
	<path fill="url(#SVGID_19_)" d="M1318.8,250.9c0,11-9,20-20,20H963.6c-11,0-20-9-20-20V40.8c0-11,9-20,20-20h335.2c11,0,20,9,20,20
		V250.9z"/>
	<path fill="#FFFFFF" d="M1028.8,103.7V188h-11v-84.3H1028.8z"/>
	<path fill="#FFFFFF" d="M1047.8,188v-84.3h12l26.9,42.6c6.1,9.9,11.1,18.8,15,27.4l0.4-0.1c-1-11.2-1.3-21.5-1.3-34.6v-35.2h10.3
		V188h-11l-26.8-42.8c-5.9-9.4-11.5-19.1-15.6-28.1l-0.4,0.1c0.7,10.6,0.8,20.7,0.8,34.8v36L1047.8,188L1047.8,188z"/>
	<path fill="#FFFFFF" d="M1128.8,174.7c4.9,3.2,11.9,5.5,19.4,5.5c11.1,0,17.6-5.9,17.6-14.3c0-7.8-4.5-12.4-15.9-16.6
		c-13.7-5-22.2-12.3-22.2-24c0-13.1,10.9-22.8,27.2-22.8c8.5,0,14.9,2,18.5,4.1l-3,8.9c-2.7-1.6-8.3-4-15.9-4
		c-11.5,0-15.9,6.9-15.9,12.6c0,7.8,5.1,11.7,16.7,16.2c14.3,5.5,21.4,12.3,21.4,24.7c0,13-9.5,24.4-29.4,24.4
		c-8.1,0-17-2.5-21.5-5.5L1128.8,174.7z"/>
	<path fill="#FFFFFF" d="M1207.8,113h-25.6v-9.3h62.4v9.3h-25.8v75h-11V113z"/>
	<path fill="#E8E1D7" d="M2194.3,396c0,276.3-224,500.3-500.3,500.3c-276.3,0-500.3-224-500.3-500.3c0-276.3,224-500.3,500.3-500.3
		C1970.3-104.3,2194.3,119.7,2194.3,396z"/>
	
		<radialGradient id="SVGID_20_" cx="1418.6002" cy="752.3994" r="43.773" gradientTransform="matrix(10 0 0 -10 -12492 7920)" gradientUnits="userSpaceOnUse">
		<stop  offset="4.850001e-02" style="stop-color:#57767B"/>
		<stop  offset="0.7911" style="stop-color:#0E1314"/>
		<stop  offset="0.9333" style="stop-color:#000000"/>
	</radialGradient>
	<path fill="url(#SVGID_20_)" d="M2131.7,396c0,241.8-196,437.7-437.7,437.7c-241.8,0-437.7-196-437.7-437.7
		c0-241.8,196-437.7,437.7-437.7C1935.8-41.7,2131.7,154.3,2131.7,396z"/>
	<path fill="#B4B4B4" fill-opacity="0.502" d="M1694,145.9c-138.1,0-250.1,112-250.1,250.1c0,138.1,112,250.1,250.1,250.1
		c138.1,0,250.1-112,250.1-250.1S1832.1,145.9,1694,145.9z M1694,583.6c-103.6,0-187.6-84-187.6-187.6c0-103.6,84-187.6,187.6-187.6
		s187.6,84,187.6,187.6C1881.6,499.6,1797.6,583.6,1694,583.6z"/>
	
		<radialGradient id="SVGID_21_" cx="1418.6" cy="752.3996" r="21.8869" gradientTransform="matrix(10 0 0 -10 -12492 7920)" gradientUnits="userSpaceOnUse">
		<stop  offset="0" style="stop-color:#816A81"/>
		<stop  offset="1" style="stop-color:#010101"/>
	</radialGradient>
	<path fill="url(#SVGID_21_)" d="M1912.9,396c0,120.9-98,218.9-218.9,218.9s-218.9-98-218.9-218.9s98-218.9,218.9-218.9
		S1912.9,275.1,1912.9,396z"/>
	
		<linearGradient id="SVGID_22_" gradientUnits="userSpaceOnUse" x1="1413.6754" y1="773.7302" x2="1423.5245" y2="731.0688" gradientTransform="matrix(10 0 0 -10 -12492 7920)">
		<stop  offset="0" style="stop-color:#B2C6D0"/>
		<stop  offset="0.5393" style="stop-color:#7995A4"/>
		<stop  offset="1" style="stop-color:#456776"/>
	</linearGradient>
	<path fill="url(#SVGID_22_)" d="M1912.9,396c0,120.9-98,218.9-218.9,218.9s-218.9-98-218.9-218.9s98-218.9,218.9-218.9
		S1912.9,275.1,1912.9,396z"/>
	
		<linearGradient id="SVGID_23_" gradientUnits="userSpaceOnUse" x1="1399.1442" y1="788.4282" x2="1407.7622" y2="773.5012" gradientTransform="matrix(10 0 0 -10 -12492 7920)">
		<stop  offset="0" style="stop-color:#7995A4;stop-opacity:0.6"/>
		<stop  offset="1" style="stop-color:#442F4F;stop-opacity:0.6"/>
	</linearGradient>
	<path fill="url(#SVGID_23_)" d="M1466.4,244.3l-113.8-75.9c23.5-35.1,52.3-66.3,85.2-92.6l85.4,106.8
		C1501.3,200.1,1482.1,220.9,1466.4,244.3z M1694,122.4V-14.4c-66,0-128.1,15.9-183.3,43.6l61.1,122.3
		C1608.6,133,1650,122.4,1694,122.4z"/>
	
		<linearGradient id="SVGID_24_" gradientUnits="userSpaceOnUse" x1="1423.2593" y1="749.2251" x2="1441.2427" y2="718.0771" gradientTransform="matrix(10 0 0 -10 -12492 7920)">
		<stop  offset="0" style="stop-color:#112E1E;stop-opacity:0.6"/>
		<stop  offset="1" style="stop-color:#442F4F;stop-opacity:0.6"/>
	</linearGradient>
	<path fill="url(#SVGID_24_)" d="M1533.8,773.9c49.2,20.9,103.4,32.5,160.2,32.5c226.7,0,410.4-183.7,410.4-410.4
		c0-16.2-1.2-32.1-3.1-47.8c-25.8-4.2-52-7-79-7C1770.6,341.3,1563.4,530.2,1533.8,773.9z"/>
	
		<radialGradient id="SVGID_25_" cx="1474.8801" cy="808.6797" r="15.633" gradientTransform="matrix(10 0 0 -10 -12492 7920)" gradientUnits="userSpaceOnUse">
		<stop  offset="0" style="stop-color:#050505"/>
		<stop  offset="1" style="stop-color:#010101"/>
	</radialGradient>
	<path fill="url(#SVGID_25_)" d="M2413.1-166.8c0,86.3-70,156.3-156.3,156.3c-86.3,0-156.3-70-156.3-156.3s70-156.3,156.3-156.3
		C2343.1-323.1,2413.1-253.1,2413.1-166.8z"/>
	<path fill="#333333" d="M2314.8-189.3l58.4-22.5c-12.6-32.6-38.3-58.5-71-71.3l-22.8,58.3C2295.8-218.3,2308.5-205.5,2314.8-189.3z
		"/>
</g>
</svg>
