<?xml version="1.0" encoding="utf-8"?>
<!-- Generator: Adobe Illustrator 18.1.1, SVG Export Plug-In . SVG Version: 6.00 Build 0)  -->
<!DOCTYPE svg PUBLIC "-//W3C//DTD SVG 1.1//EN" "http://www.w3.org/Graphics/SVG/1.1/DTD/svg11.dtd">
<svg version="1.1" id="Layer_1" xmlns="http://www.w3.org/2000/svg" xmlns:xlink="http://www.w3.org/1999/xlink" x="0px" y="0px"
	 viewBox="694 -603.5 2000 2000" enable-background="new 694 -603.5 2000 2000" xml:space="preserve">
<g id="surface1">
	<path fill="#75838E" d="M1384,298c0,147.1-76.6,216-193.6,216c-117.2,0-193.7-72-193.7-223.5v-583.7H700.9v589.8
		c0,328.5,187.8,480.1,486.4,480.1c298.7,0,492.3-148.5,492.3-487.6v-582.4h-295.7L1384,298L1384,298z"/>
	<path fill="#75838E" d="M2687.1,78.8V76c0-232.6-171-369.2-436.7-369.2h-450.3V757.1h291.1v-300h144.1
		C2496.5,457.1,2687.1,326.6,2687.1,78.8z M2396,92.4c0,82.5-63.2,136.7-166.7,136.7h-138.1V-48.7h136.6
		c105,0,168.2,48.1,168.2,138.1V92.4z"/>
	<path fill="#75838E" d="M981.2,1031.4c0,21.8-2.1,25.9-36.5,48.2l0.8,6.6c46.5-20.4,56.3-35.3,56.3-57.5V904.2h-20.6V1031.4z"/>
	<path fill="#75838E" d="M1131.6,904.2h-21l3.9,10.1l-55,143.6h12.1l20.8-58h55.3l22.4,58h21.8L1131.6,904.2z M1095.7,991l23.2-63.1
		h0.7L1144,991H1095.7z"/>
	<path fill="#75838E" d="M1370,1024.6h-0.8l-45.7-120.3h-5.9l-42.1,120.6h-0.7l-34.3-120.6h-20.8l46.3,153.8h7.9l43.2-117.9h1
		L1362,1058h8.3l44.9-153.8h-13.1L1370,1024.6z"/>
	<path fill="#75838E" d="M1531.1,974.5V974c20.4-3.9,37.6-15.1,37.6-34.3c0-23.3-23.2-35.5-49.5-35.5H1473v153.9h43
		c40,0,60.3-19.1,60.3-43.5C1576.3,993.3,1557.9,979,1531.1,974.5z M1493.8,915c0,0,11.9-1.9,23.2-1.9c18.8,0,30.4,8.4,30.4,28.7
		c0,19.7-13.2,29.8-36.2,29.8h-17.4V915z M1516.8,1049.4c-8.7,0-19.3-1.1-23-1.7v-67.8h19.6c27.7,0,41,12.2,41,36.9
		C1554.3,1036.3,1542.2,1049.4,1516.8,1049.4z"/>
	<path fill="#75838E" d="M1694.1,902.7c40.9,0,75.1,34.7,75.1,78.7c0,44.2-33.2,78.2-73.5,78.2c-40.3,0-74.4-34-74.4-78.2
		C1621.3,937.4,1654.8,902.7,1694.1,902.7z M1746.7,985.7c0-47.8-25.9-74.6-53.8-74.6c-26.7,0-49.2,22.6-49.2,66
		c0,47.5,25.7,73.9,53.5,73.9C1725.3,1051,1746.7,1028.5,1746.7,985.7z"/>
	<path fill="#75838E" d="M1823.3,1058h12.6V935.4h0.9l98.9,122.6h6.5V904.2h-12.6v114.6h-0.5l-94.3-114.6h-23.3l11.9,15.1V1058z"/>
	<path fill="#75838E" d="M2009.6,1058h99.8l0.7-9.3l-80,1.8V983h60.1v-8.9h-60.1V912l75.1,2.1v-9.8h-95.6V1058z"/>
	<path fill="#75838E" d="M713.6,1039v16.2h-12.7V935h12.7v52.3c7.1-10.2,17-19,32.7-19c20.5,0,40.7,16.1,40.7,44.1v0.3
		c0,27.9-20.1,44.4-40.7,44.4C730.5,1057.1,720.3,1048.5,713.6,1039z M774.1,1013v-0.4c0-20-13.9-32.8-30-32.8
		c-15.8,0-30.8,13.3-30.8,32.7v0.3c0,19.7,15,33,30.8,33C760.5,1045.7,774.1,1033.6,774.1,1013z"/>
	<path fill="#75838E" d="M794.7,1077.8l4.4-10c4.1,2.1,7.7,3.1,13.2,3.1c7.6,0,12.5-3.9,17.4-16l-38.5-84.8h13.8l31.1,71l27.2-71
		H877l-35.7,87.9c-7.3,17.7-15.5,24.1-28.4,24.1C805.7,1082.1,800.5,1080.6,794.7,1077.8z"/>
	<path fill="#75838E" d="M2180.4,954.1h-9v-38.8h-14.5V907h38v8.3h-14.5V954.1z M2229.1,943.2h-0.9l-14.5-22.6v33.4h-8.7v-47h9.6
		l14.2,22.3L2243,907h9.4v47h-8.8v-33.4L2229.1,943.2z"/>
</g>
</svg>
