<?xml version="1.0" encoding="UTF-8"?>
<svg xmlns="http://www.w3.org/2000/svg" xmlns:xlink="http://www.w3.org/1999/xlink" width="2000pt" height="2000pt" viewBox="0 0 2000 2000" version="1.1">
<g id="surface1">
<path style=" stroke:none;fill-rule:nonzero;fill:rgb(0%,48.235294%,70.980392%);fill-opacity:1;" d="M 2000 1875 C 2000 1944 1944 2000 1875 2000 L 125 2000 C 56 2000 0 1944 0 1875 L 0 125 C 0 56 56 0 125 0 L 1875 0 C 1944 0 2000 56 2000 125 Z M 2000 1875 "/>
<path style=" stroke:none;fill-rule:nonzero;fill:rgb(100%,100%,100%);fill-opacity:1;" d="M 437.5 687.5 L 687.5 687.5 L 687.5 1562.5 L 437.5 1562.5 Z M 437.5 687.5 "/>
<path style=" stroke:none;fill-rule:nonzero;fill:rgb(100%,100%,100%);fill-opacity:1;" d="M 1281.1875 687.5 C 1106.75 687.5 1076.75 751.125 1062.5 812.5 L 1062.5 687.5 L 812.5 687.5 L 812.5 1562.5 L 1062.5 1562.5 L 1062.5 1062.5 C 1062.5 981.4375 1106.4375 937.5 1187.5 937.5 C 1266.625 937.5 1312.5 980.5 1312.5 1062.5 L 1312.5 1562.5 L 1562.5 1562.5 L 1562.5 1125 C 1562.5 875 1529.9375 687.5 1281.1875 687.5 Z M 1281.1875 687.5 "/>
<path style=" stroke:none;fill-rule:nonzero;fill:rgb(100%,100%,100%);fill-opacity:1;" d="M 687.5 500 C 687.5 569.035156 631.535156 625 562.5 625 C 493.464844 625 437.5 569.035156 437.5 500 C 437.5 430.964844 493.464844 375 562.5 375 C 631.535156 375 687.5 430.964844 687.5 500 Z M 687.5 500 "/>
</g>
</svg>
