<?xml version="1.0" encoding="utf-8"?>
<!-- Generator: Adobe Illustrator 18.1.1, SVG Export Plug-In . SVG Version: 6.00 Build 0)  -->
<svg version="1.1" id="Layer_1" xmlns="http://www.w3.org/2000/svg" xmlns:xlink="http://www.w3.org/1999/xlink" x="0px" y="0px"
	 viewBox="0 0 800 800.1" enable-background="new 0 0 800 800.1" xml:space="preserve">
<g>
	<path fill="#5F027E" d="M400,800.1c-131.8,0-263.7,0-395.5,0.1c-3.7,0-4.6-0.8-4.6-4.6C0,531.9,0,268.3-0.1,4.6
		C-0.1,0.9,0.7,0,4.5,0c263.7,0.1,527.3,0.1,791,0c3.7,0,4.6,0.8,4.6,4.6c-0.1,263.7-0.1,527.3,0,791c0,3.7-0.8,4.6-4.6,4.6
		C663.7,800.1,531.9,800.1,400,800.1z M535,649.2c11.3-12.4,14.5-20.7,13.9-35.1c-1-21.5-15-39.6-35.1-44.5
		c-16.4-4-33.1-2.5-49.7-2.4c-3,0-4.4,2-4.8,4.8c-0.2,1.5-0.2,3-0.2,4.5c0,53.1,0,106.3,0,159.4c0,1,0,2,0.1,3
		c0.1,4.3,2.2,6.3,6.6,6.2c10.5-0.1,21,0,31.5,0c9.7,0,19.3,0.1,28.8-2.1c36.3-8.2,51.6-53.7,27.3-81.3
		C548.4,656.2,542.3,652.3,535,649.2z M396.5,695.2C396.5,695.2,396.5,695.2,396.5,695.2c11.7-0.1,23.3,0,35-0.1
		c5.7-0.1,7.3-1.9,7.3-7.7c0-5.3-0.6-10.6-1.8-15.8c-4.3-19.5-14.8-34-34.6-39.4c-20.3-5.5-39.5-3-55.2,12.5
		c-19.9,19.7-22,60.3-4.7,83.3c21.3,28.2,66.8,28,89.7-0.5c8.3-10.4,6.2-12.8-3.3-17.8c-10.5-5.5-10.4-5.7-17.5,3.5
		c-7.9,10.2-19.7,14.4-31.9,11.1c-11.2-3-18.7-12.4-20.6-25c-0.6-3.7,0.7-4.1,3.8-4C373.9,695.3,385.2,695.2,396.5,695.2z
		 M727.3,629.8c-4.1,0.2-7.6,0.4-11,1.4c-13.1,3.7-22.2,14.6-24,28.9c-1.7,13.2,3.3,22.5,16.3,29.8c4.6,2.6,9.5,4.8,14.2,7.3
		c4.4,2.4,8.9,4.6,12.9,7.5c6.4,4.5,5.8,14.3-0.9,18.5c-6.3,3.9-15.4,2.6-19.8-3.3c-7-9.4-6.2-9.5-18.2-3.8
		c-0.9,0.4-1.8,0.8-2.7,1.2c-6.6,3.2-7.4,5.9-3.6,12.1c14.5,23.8,51.2,26,68.4,4c13.4-17,9.8-38.3-8.4-49.9
		c-5.8-3.7-11.9-6.6-18-9.5c-3.6-1.7-7.2-3.5-10.6-5.5c-3.2-1.9-5.4-4.5-4.8-8.6c0.5-3.3,2.5-5.4,5.6-6.4c3.9-1.3,7.2-0.3,10,2.6
		c6.4,6.4,6.4,6.4,14.5,2.2c1.2-0.6,2.4-1.2,3.6-1.8c7.8-4.1,8.7-9.1,2.4-15.5C745.9,633.8,737.1,630,727.3,629.8z M289.5,647.6
		c0,27.8,0,55.7,0,83.5c0,14,0,14,13.9,14c12.2,0,12.4-0.1,12.4-12.6c0-55.5,0-111,0-166.5c0-15.8,0-15.8-16-15.7
		c-9.3,0-10.3,1-10.3,10.3C289.5,589.6,289.5,618.6,289.5,647.6z M71,648c0-29.8,0-59.6,0-89.5c0-6.8-1.3-8.1-8.2-8.2
		c-2.7-0.1-5.3,0-8,0c-8.6,0-9.7,1.2-9.7,9.9c0,58.5,0,117,0,175.4c0,1.3,0,2.7,0.1,4c0.3,3.5,2.1,5.5,5.8,5.5c3.8,0,7.7,0,11.5,0
		c7.8-0.1,8.5-0.8,8.5-8.6C71,707,71,677.5,71,648z M636.4,698.8c0,12.8-0.1,25.6,0,38.5c0.1,6.5,1.4,7.8,7.5,7.9
		c3.8,0.1,7.7-0.2,11.5,0.1c4.9,0.3,7.1-2,7-6.8c0-2,0.1-4,0.1-6c0-23.6,0.1-47.3-0.1-70.9c0-3.5,0.9-4.4,4.4-4.4
		c16.5,0.1,16.3,2.3,16-17.4c-0.1-4.3-1.9-6.9-6.6-6.9c-2.2,0-4.3-0.1-6.5-0.1c-8.4-0.1-7.2,1.1-7.2-7c-0.1-9-0.2-18-0.1-27
		c0-5.1-2.5-7.2-7.4-7.2c-3.3,0-6.7,0-10,0c-7.4,0.1-8.7,1.3-8.7,8.8c-0.1,9.5,0,19,0,28.5c0,2.1,0.2,4-2.9,3.9
		c-6.8-0.3-7.7,1.3-8.1,9c-0.2,3,0.1,6,0.2,9c0.1,4.5,2.3,6.9,6.9,6.4c3.5-0.4,4,1.2,4,4.3C636.3,673.8,636.3,686.3,636.4,698.8z
		 M227.2,699.1c0,5.2,0,10.3,0,15.5c0,7.8,0,15.7,0.1,23.5c0.1,4.4,1.7,7.3,6.9,7c3.8-0.2,7.7,0,11.5,0c6.5-0.1,7.6-0.9,7.6-7.6
		c0.1-23.5,0.1-47,0.2-70.4c0-9.9,0-9.9,9.7-10c1.7,0,3.3,0,5-0.1c3.1-0.1,5-1.6,5.4-4.8c0.6-5,0.6-10,0-14.9
		c-0.4-2.7-1.8-4.2-4.6-4.3c-3.7-0.1-7.3-0.5-11-0.3c-3.5,0.2-4.6-0.9-4.5-4.5c0.2-10-0.1-20,0-30c0-4.7-2.2-6.7-6.6-6.7
		c-2.8,0-5.7,0-8.5,0c-10,0-10.9,0.9-10.9,10.7c0,9-0.1,18,0,27c0,2.5-0.6,3.4-3.2,3.6c-6.8,0.6-7.6,1.5-7.7,8.2
		c-0.1,3.2,0,6.3,0.1,9.5c0.1,4.4,2.2,7,6.8,6.5c3.9-0.4,4.1,1.5,4.1,4.6C227.1,674.1,227.2,686.6,227.2,699.1z M154.7,699.3
		c0,0,0.1,0,0.1,0c0,13.2,0,26.3,0,39.5c0,4.3,1.9,6.5,6.4,6.3c4.5-0.1,9-0.1,13.5,0c3.7,0.1,5.6-1.8,5.9-5.3c0.2-2,0.2-4,0.2-6
		c0-23.8,0.2-47.7-0.1-71.5c-0.1-4.6,1.3-5.7,5.5-5.3c3,0.3,6,0.1,9,0c3.6-0.1,5.6-2,5.7-5.6c0.1-4.3,0.1-8.7,0-13
		c-0.1-3.6-2-5.5-5.6-5.6c-3.3-0.1-6.7-0.5-10-0.2c-3.9,0.4-4.7-1.2-4.6-4.8c0.2-9.7,0.2-19.3,0-29c-0.1-5.9-1.6-7.3-7.6-7.5
		c-3.8-0.1-7.7,0-11.5,0c-4.6,0-7,2-6.9,7c0.1,9.5-0.2,19,0.1,28.5c0.1,4-0.4,6.3-5.2,5.9c-3.9-0.3-5.8,1.9-5.8,5.8
		c0,3.8,0,7.7-0.1,11.5c-0.1,4.8,2.2,7.2,7,6.8c3.4-0.3,4.1,1.2,4,4.3C154.6,673.9,154.7,686.6,154.7,699.3z M94.6,688.9
		C94.6,688.9,94.6,688.9,94.6,688.9c-0.1,7-0.1,14-0.1,21c0.1,9.8,0.1,19.7,0.2,29.5c0,3.3,1.4,5.6,4.9,5.7c5.3,0.1,10.7,0.1,16,0
		c2.7-0.1,4.3-1.6,4.6-4.3c0.2-2,0.4-4,0.4-6c0-30.5,0-61,0-91.5c0-1.7-0.1-3.3-0.2-5c-0.3-3.2-1.7-5.4-5.3-5.3
		c-2.9,0.1-3.5-1.3-3.5-4c0.2-7.5,0.2-15,0-22.5c-0.1-2.7,0.9-4,3.3-5.2c8.5-4.3,11.9-13.5,8.3-21.9c-3-7-10-11-17.7-10.1
		c-7.1,0.8-13.1,6.3-14.5,13.2c-1.5,7.5,1.8,14.8,8.5,18.6c1.9,1.1,4.3,1.3,4.2,4.6c-0.3,8-0.1,16-0.1,24c0,1.6-0.2,3.1-2.3,3.1
		c-6.2-0.2-6.8,4-6.8,8.7C94.6,657.2,94.6,673,94.6,688.9z M580.2,688.9C580.2,688.9,580.2,688.9,580.2,688.9c0.1,16,0,32,0.1,48
		c0.1,7,1.4,8.1,8.2,8.2c2.7,0,5.3,0,8,0c9.2,0,9.9-0.7,9.9-10c0-24.2,0-48.3,0-72.5c0-8-0.1-16-0.1-24c0-3.5-1.5-5.8-5.3-5.8
		c-3.3,0-3.6-1.8-3.6-4.5c0.1-7,0.2-14,0-21c-0.1-3.2,0.8-4.9,3.8-6.4c8.7-4.4,11.7-14.7,7.2-23.1c-3.4-6.3-10.4-9.8-17.6-8.7
		c-7.2,1-12.9,6.6-14.2,14.2c-1.2,6.8,2.3,14.1,8.7,17.6c1.9,1.1,4.2,1.4,4.1,4.7c-0.3,8-0.1,16-0.1,24c0,1.3,0.3,3-1.7,3
		c-7.6-0.2-7.3,5.2-7.4,10.3C580.2,658.2,580.2,673.6,580.2,688.9z"/>
	<path fill="#FCFCFD" d="M535,649.2c7.2,3.1,13.4,7,18.3,12.5c24.3,27.6,9,73.1-27.3,81.3c-9.5,2.1-19.2,2.1-28.8,2.1
		c-10.5,0-21-0.1-31.5,0c-4.4,0-6.5-2-6.6-6.2c0-1-0.1-2-0.1-3c0-53.1,0-106.3,0-159.4c0-1.5,0-3,0.2-4.5c0.4-2.8,1.8-4.8,4.8-4.8
		c16.6-0.2,33.4-1.6,49.7,2.4c20.2,4.9,34.2,23,35.1,44.5C549.6,628.5,546.3,636.8,535,649.2z M486.2,692.8c0,7.8,0,15.7,0,23.5
		c0,1.7-0.2,3.4,2.4,3.4c10.6-0.2,21.3,0.9,31.7-2.5c12-3.9,18-11.9,18-23.9c0-12.6-5.9-20.5-18-24.4c-10.3-3.4-21-2.8-31.7-2.8
		c-2.6,0-2.4,1.6-2.4,3.3C486.2,677.2,486.2,685,486.2,692.8z M486.2,617.6c0,5,0,10,0,15c0,11.5,0,11.3,11.7,10.8
		c20.4-0.9,28.7-14.9,24.4-34.4c-1.7-7.6-6.7-12.3-13.9-15c-6.1-2.3-12.4-1.8-18.7-2c-2.9-0.1-3.6,0.9-3.6,3.7
		C486.3,602.9,486.2,610.3,486.2,617.6z"/>
	<path fill="#FCFCFD" d="M396.5,695.2c-11.3,0-22.7,0.1-34-0.1c-3.1,0-4.3,0.3-3.8,4c1.9,12.6,9.5,22,20.6,25
		c12.2,3.3,24-0.9,31.9-11.1c7.1-9.2,7-9,17.5-3.5c9.5,5,11.7,7.4,3.3,17.8c-22.8,28.4-68.4,28.7-89.7,0.5
		c-17.3-22.9-15.2-63.6,4.7-83.3c15.7-15.4,34.9-17.9,55.2-12.5c19.8,5.4,30.3,19.9,34.6,39.4c1.2,5.2,1.8,10.5,1.8,15.8
		c0,5.8-1.5,7.6-7.3,7.7C419.8,695.3,408.2,695.1,396.5,695.2C396.5,695.2,396.5,695.2,396.5,695.2z M360.3,673.9
		c17.2,0,34.1,0,51.1,0c-2.2-12.2-11.8-20.1-24.6-20.7C374.2,652.7,363.5,660.9,360.3,673.9z"/>
	<path fill="#FCFCFD" d="M727.3,629.8c9.7,0.2,18.6,4.1,25.7,11.3c6.3,6.4,5.4,11.4-2.4,15.5c-1.2,0.6-2.4,1.2-3.6,1.8
		c-8.1,4.1-8.1,4.2-14.5-2.2c-2.8-2.9-6.1-3.9-10-2.6c-3.1,1-5.1,3.1-5.6,6.4c-0.6,4,1.6,6.7,4.8,8.6c3.4,2,7,3.8,10.6,5.5
		c6.2,2.9,12.3,5.9,18,9.5c18.2,11.6,21.7,32.9,8.4,49.9c-17.2,22-53.9,19.8-68.4-4c-3.8-6.2-3-8.9,3.6-12.1
		c0.9-0.4,1.8-0.8,2.7-1.2c12.1-5.7,11.2-5.6,18.2,3.8c4.4,5.9,13.6,7.2,19.8,3.3c6.7-4.2,7.3-14,0.9-18.5
		c-4.1-2.8-8.5-5.1-12.9-7.5c-4.7-2.5-9.5-4.7-14.2-7.3c-12.9-7.3-18-16.7-16.3-29.8c1.8-14.3,10.9-25.2,24-28.9
		C719.8,630.2,723.2,629.9,727.3,629.8z"/>
	<path fill="#F9F6FA" d="M289.5,647.6c0-29,0-58,0-87c0-9.3,1-10.3,10.3-10.3c16,0,16,0,16,15.7c0,55.5,0,111,0,166.5
		c0,12.5-0.1,12.6-12.4,12.6c-13.9,0-13.9,0-13.9-14C289.5,703.3,289.5,675.4,289.5,647.6z"/>
	<path fill="#FCFCFD" d="M71,648c0,29.5,0,59,0,88.5c0,7.8-0.8,8.6-8.5,8.6c-3.8,0-7.7,0-11.5,0c-3.7,0-5.5-2-5.8-5.5
		c-0.1-1.3-0.1-2.7-0.1-4c0-58.5,0-117,0-175.4c0-8.7,1.1-9.8,9.7-9.9c2.7,0,5.3,0,8,0c6.9,0.1,8.2,1.4,8.2,8.2
		C71,588.3,71,618.1,71,648z"/>
	<path fill="#F9F6FA" d="M636.4,698.8c0-12.5-0.1-25,0.1-37.5c0-3-0.5-4.7-4-4.3c-4.6,0.5-6.8-1.9-6.9-6.4c-0.1-3-0.3-6-0.2-9
		c0.4-7.7,1.3-9.2,8.1-9c3.1,0.1,2.9-1.8,2.9-3.9c0-9.5-0.1-19,0-28.5c0.1-7.5,1.4-8.7,8.7-8.8c3.3,0,6.7,0,10,0
		c4.8-0.1,7.4,2,7.4,7.2c-0.1,9,0,18,0.1,27c0.1,8.1-1.1,6.9,7.2,7c2.2,0,4.3,0.2,6.5,0.1c4.7,0,6.5,2.5,6.6,6.9
		c0.3,19.7,0.5,17.5-16,17.4c-3.5,0-4.4,0.9-4.4,4.4c0.2,23.6,0.1,47.3,0.1,70.9c0,2-0.1,4-0.1,6c0,4.7-2.1,7-7,6.8
		c-3.8-0.2-7.7,0-11.5-0.1c-6.1-0.1-7.4-1.3-7.5-7.9C636.3,724.4,636.4,711.6,636.4,698.8z"/>
	<path fill="#FCFCFD" d="M227.2,699.1c0-12.5-0.1-25,0.1-37.5c0-3.1-0.2-5.1-4.1-4.6c-4.6,0.5-6.7-2.1-6.8-6.5
		c-0.1-3.2-0.1-6.3-0.1-9.5c0.1-6.7,0.9-7.6,7.7-8.2c2.7-0.2,3.3-1.2,3.2-3.6c-0.1-9-0.1-18,0-27c0-9.8,0.9-10.7,10.9-10.7
		c2.8,0,5.7,0,8.5,0c4.4,0.1,6.7,2,6.6,6.7c-0.1,10,0.2,20,0,30c-0.1,3.5,1,4.7,4.5,4.5c3.6-0.2,7.3,0.2,11,0.3
		c2.8,0.1,4.2,1.6,4.6,4.3c0.7,5,0.6,9.9,0,14.9c-0.4,3.2-2.3,4.6-5.4,4.8c-1.7,0.1-3.3,0.1-5,0.1c-9.7,0-9.7,0-9.7,10
		c0,23.5,0,47-0.2,70.4c0,6.6-1.1,7.5-7.6,7.6c-3.8,0-7.7-0.2-11.5,0c-5.1,0.3-6.8-2.6-6.9-7c-0.1-7.8,0-15.7-0.1-23.5
		C227.2,709.4,227.2,704.3,227.2,699.1z"/>
	<path fill="#FCFCFD" d="M154.7,699.3c0-12.7-0.1-25.3,0.1-38c0-3.1-0.6-4.6-4-4.3c-4.8,0.4-7.1-2-7-6.8c0.1-3.8,0.1-7.7,0.1-11.5
		c0-3.9,1.9-6.2,5.8-5.8c4.8,0.4,5.3-1.9,5.2-5.9c-0.2-9.5,0.1-19-0.1-28.5c-0.1-5,2.3-7,6.9-7c3.8,0,7.7-0.1,11.5,0
		c6,0.2,7.4,1.5,7.6,7.5c0.2,9.7,0.2,19.3,0,29c-0.1,3.6,0.6,5.2,4.6,4.8c3.3-0.3,6.6,0.1,10,0.2c3.6,0.1,5.6,1.9,5.6,5.6
		c0.1,4.3,0.1,8.7,0,13c-0.1,3.6-2.1,5.5-5.7,5.6c-3,0.1-6,0.4-9,0c-4.2-0.5-5.6,0.7-5.5,5.3c0.3,23.8,0.1,47.7,0.1,71.5
		c0,2-0.1,4-0.2,6c-0.3,3.5-2.2,5.4-5.9,5.3c-4.5-0.1-9-0.1-13.5,0c-4.5,0.1-6.4-2-6.4-6.3c0-13.2,0-26.3,0-39.5
		C154.8,699.3,154.8,699.3,154.7,699.3z"/>
	<path fill="#FCFCFD" d="M94.6,688.9c0-15.8,0-31.7,0-47.5c0-4.7,0.5-8.9,6.8-8.7c2.1,0.1,2.3-1.4,2.3-3.1c0-8-0.2-16,0.1-24
		c0.1-3.4-2.3-3.6-4.2-4.6c-6.7-3.8-10.1-11.1-8.5-18.6c1.4-6.9,7.5-12.4,14.5-13.2c7.8-0.9,14.7,3.1,17.7,10.1
		c3.6,8.4,0.3,17.6-8.3,21.9c-2.4,1.2-3.4,2.5-3.3,5.2c0.2,7.5,0.2,15,0,22.5c-0.1,2.7,0.6,4.1,3.5,4c3.6-0.1,5,2.1,5.3,5.3
		c0.1,1.7,0.2,3.3,0.2,5c0,30.5,0,61,0,91.5c0,2-0.2,4-0.4,6c-0.3,2.7-1.9,4.3-4.6,4.3c-5.3,0.1-10.7,0.1-16,0
		c-3.5-0.1-4.9-2.4-4.9-5.7c-0.1-9.8-0.2-19.7-0.2-29.5C94.5,702.9,94.5,695.9,94.6,688.9C94.6,688.9,94.6,688.9,94.6,688.9z"/>
	<path fill="#FCFCFD" d="M580.2,688.9c0-15.3,0-30.7,0-46c0-5.1-0.2-10.5,7.4-10.3c2,0,1.7-1.7,1.7-3c0-8-0.2-16,0.1-24
		c0.1-3.3-2.2-3.6-4.1-4.7c-6.4-3.6-10-10.9-8.7-17.6c1.4-7.5,7-13.1,14.2-14.2c7.3-1.1,14.2,2.4,17.6,8.7
		c4.5,8.3,1.4,18.7-7.2,23.1c-3,1.5-3.9,3.2-3.8,6.4c0.2,7,0.2,14,0,21c-0.1,2.7,0.3,4.5,3.6,4.5c3.8-0.1,5.3,2.3,5.3,5.8
		c0.1,8,0.1,16,0.1,24c0,24.2,0,48.3,0,72.5c0,9.3-0.7,9.9-9.9,10c-2.7,0-5.3,0-8,0c-6.8-0.1-8.1-1.2-8.2-8.2
		C580.2,720.9,580.3,704.9,580.2,688.9C580.2,688.9,580.2,688.9,580.2,688.9z"/>
	<path fill="#5F027E" d="M486.2,692.8c0-7.8,0-15.7,0-23.5c0-1.7-0.2-3.3,2.4-3.3c10.6,0.1,21.3-0.5,31.7,2.8
		c12.1,3.9,18,11.8,18,24.4c0,12-6.1,20-18,23.9c-10.4,3.4-21.1,2.2-31.7,2.5c-2.6,0.1-2.4-1.7-2.4-3.4
		C486.2,708.5,486.2,700.7,486.2,692.8z"/>
	<path fill="#5F027E" d="M486.2,617.6c0-7.3,0.1-14.6-0.1-21.9c-0.1-2.8,0.7-3.8,3.6-3.7c6.3,0.2,12.6-0.3,18.7,2
		c7.2,2.7,12.2,7.4,13.9,15c4.3,19.5-4,33.6-24.4,34.4c-11.7,0.5-11.7,0.6-11.7-10.8C486.2,627.5,486.2,622.6,486.2,617.6z"/>
	<path fill="#5F027E" d="M360.3,673.9c3.3-13,13.9-21.2,26.5-20.7c12.8,0.6,22.3,8.5,24.6,20.7C394.4,673.9,377.5,673.9,360.3,673.9
		z"/>
</g>
</svg>
