<?xml version="1.0" encoding="utf-8"?>
<!-- Generator: Adobe Illustrator 18.1.1, SVG Export Plug-In . SVG Version: 6.00 Build 0)  -->
<!DOCTYPE svg PUBLIC "-//W3C//DTD SVG 1.1//EN" "http://www.w3.org/Graphics/SVG/1.1/DTD/svg11.dtd">
<svg version="1.1" id="Layer_1" xmlns="http://www.w3.org/2000/svg" xmlns:xlink="http://www.w3.org/1999/xlink" x="0px" y="0px"
	 viewBox="0 0 612 792" enable-background="new 0 0 612 792" xml:space="preserve">
<g id="surface1">
	<path fill="#ACCCE5" d="M53.4,494.9c-4.3-1.1-7.9-4-9.9-8c-1.4-2.8-1.3-8.6,0.2-11.7c1.7-3.4,96.7-97.2,100.1-98.7
		c3.5-1.6,9.3-1.5,12.8,0.3c7,3.7,9.5,13.3,5,19.7c-2.9,4.2-95.7,95.4-98.6,96.9C59.9,495,56.1,495.6,53.4,494.9z M392.3,480
		c-19-3-33.6-12.5-40.7-26.7c-5.6-11.2-7.5-20.6-7.5-38s1.8-26.8,7.5-38c6.2-12.3,18.3-21.4,33.9-25.3c4.8-1.2,7.2-1.4,17.8-1.4
		c9.4,0,13.2,0.2,16.4,1.1c11.3,2.9,22.5,9.1,28.5,15.8c5.5,6.2,10,16,12.5,27.4c1.7,7.5,1.7,33.5,0,41c-2.5,11.4-7,21.2-12.5,27.3
		c-5.9,6.7-17.2,12.9-28.2,15.7C416.1,479.9,396.5,480.7,392.3,480z M416.4,461.3c11.8-2.8,19.4-9.9,23.1-21.5
		c2.5-8,2.9-11.3,2.9-24.4c0-13.2-0.4-16.4-2.9-24.4c-3.7-11.7-11.1-18.5-23.4-21.6c-6.5-1.7-20.3-1.5-26.8,0.2
		c-16.1,4.3-23.7,15.7-25.4,38c-1.4,18.6,2.1,35.3,9.2,43.9c4.5,5.5,12.6,9.4,22.1,10.7C400.4,463,411.3,462.5,416.4,461.3z
		 M530.1,479.5c-9.9-1.8-18.4-5.2-23.9-9.6c-4.2-3.3-8.6-9.6-11.1-15.6l-2-4.8V304.9l8.7-0.2c5.9-0.1,9,0.1,9.5,0.6
		c0.7,0.6,0.9,5.1,0.9,25.1c0,22.9,0.1,24.4,1.1,24c4.3-1.3,11.4-2.8,16.6-3.5c7.6-0.9,23.6-0.5,29.2,0.9c10,2.4,17.9,6.9,25.1,14
		c6,6.1,9.4,12,12.1,21.4c2.7,9.4,3.2,13.9,3.2,27.5c0,16.9-1.9,26.6-7.5,38.5c-6.3,13.6-19.3,23.3-34.9,26.3
		C551.1,480.7,536.4,480.7,530.1,479.5z M555.7,461.4c8.8-2.3,16.3-8.7,19.6-16.6c3.5-8.5,4.7-16.2,4.8-30c0-10.1-0.2-13.2-1.3-18.3
		c-2.4-11.3-7.5-19.1-15-23.2c-10.8-5.8-31.3-6-47.2-0.3l-3.9,1.4l-0.2,35.3c-0.1,21.7,0.1,36.1,0.5,37.5
		c1.7,6.3,6.7,10.9,14.5,13.3C535.7,463,547.9,463.4,555.7,461.4z M223.6,477.8c-1.1-1.1-1.1-165.1,0-166.2c1-1,17.5-1,18.5,0
		c0.6,0.6,0.8,18,0.8,74.4v73.7l42.1,0.2l42.1,0.2v18.1l-51.4,0.2C236.3,478.5,224.2,478.4,223.6,477.8L223.6,477.8z M73,422.8
		c-6.8-1.5-11.1-6.8-11.2-13.6c-0.1-6.2-1.3-4.9,50.5-56c26.6-26.3,49.2-48.3,50.3-48.8c5-2.6,11.4-1.8,15.9,2
		c4.7,4,6.3,10.6,3.8,16.1c-0.8,1.7-10.4,11.7-31.5,32.5c-64,63.3-67.2,66.4-69.5,67.1C77.7,423.2,75.5,423.4,73,422.8z M20.9,416.4
		c-3.5-1.3-6.8-4.8-7.8-8.2c-1.1-3.7-0.6-9.5,0.9-12.3c1.9-3.5,95.5-95.6,99.1-97.5c6.9-3.7,15.5-0.6,19.3,6.9
		c1.5,3,1.5,8.4-0.2,11.6c-1.6,3.1-96.5,97.2-99.7,98.8C29.6,417.2,23.9,417.5,20.9,416.4z"/>
	<path fill="#56ACEF" d="M50.9,493c-6.8-3.1-9.6-10.9-6.3-17.7c1.2-2.4,96.3-96.6,99.1-98c0.9-0.5,3.2-1,5-1.2
		c4.6-0.5,9.5,1.8,12,5.5c1.6,2.4,1.8,3.2,1.8,7.5c0,4.2-0.2,5.1-1.6,6.9c-3,4.1-95.8,95.3-98.5,96.7
		C59.2,494.6,54.4,494.7,50.9,493z M389.1,478.9c-8.4-1.6-16.2-4.8-23.5-9.8c-13.6-9.2-21.2-28.6-21.2-53.8
		c0-25.3,7.6-44.6,21.4-53.9c5.2-3.5,13.1-7.2,19-8.8c4.4-1.2,6.6-1.4,17.8-1.4c11.3,0,13.5,0.1,18.4,1.4
		c10.7,2.7,21.8,9.2,27.6,16.1c1.7,2.1,4.5,6.6,6.1,10c5,10.6,7,20.9,7,36.6c0,15.7-2,26-7,36.6c-1.7,3.4-4.4,8-6.1,10
		c-5.7,6.8-16.9,13.4-27.3,16C414.6,479.7,396,480.3,389.1,478.9z M416.6,461.7c13.2-3.4,20.5-10.7,24.2-24.4
		c3.4-12.7,3.4-31.1,0-43.8c-4.8-17.9-16.2-25.7-37.5-25.6c-14.2,0-22.2,2.6-28.9,9.4c-7.8,7.8-11.2,19.3-11.2,38.2
		c0,18.9,3.4,30.4,11.2,38.2c4.1,4.1,9.8,7.1,15.7,8.4C396.5,463.3,410.8,463.2,416.6,461.7z M529.4,478.9
		c-8.6-1.6-17.2-5.1-22.5-9.1c-4-3-8.3-8.9-11-15.1l-2.1-4.6V305.6h17.5l0.3,24.7c0.3,21.5,0.4,24.7,1.3,24.6c0.5-0.1,4-0.9,7.8-1.8
		c9.2-2.2,26.3-2.9,35.3-1.3c17.4,3,31.4,13.7,37.4,28.5c4.4,10.8,6.3,23.5,5.8,38.5c-0.4,11-1.6,18.1-4.3,26.2
		c-5,14.9-12.1,23.4-24.7,29.6c-3.1,1.5-7.3,3.2-9.4,3.8C555.6,479.7,535.6,480.1,529.4,478.9z M556.2,461.8
		c8.4-2.3,15.5-8.1,19-15.4c7.7-16,7.6-48-0.2-62.6c-3.8-7.1-11.3-12.4-20.5-14.4c-7.3-1.6-23.5-1-31.7,1.2
		c-3.4,0.9-7.2,2.1-8.4,2.8l-2.3,1.1V447l1.5,3.3c2.6,5.8,8.6,9.9,17.1,11.7C536.6,463.3,551.1,463.2,556.2,461.8z M223.8,477.2
		c-0.2-0.4-0.2-37.8-0.1-83l0.2-82.3H242l0.3,74.1l0.3,74.1l42.1,0.2l42.1,0.2v17.5h-51.4C234.9,478,224,477.8,223.8,477.2z
		 M70.3,421.1c-6.6-3.1-9.6-10.8-6.6-17.3c1.1-2.4,15.3-16.7,78.7-79.3c18.4-18.1,19.6-19.2,22.9-20.2c5.2-1.6,9.4-0.5,13.2,3.3
		c4.6,4.6,5.4,10.6,2.2,15.9c-2.2,3.7-96.1,96-99.1,97.4C78.4,422.6,73.6,422.6,70.3,421.1z M22.3,416.1
		c-7.9-2.5-12.1-11.4-8.7-18.3c1.7-3.5,96.6-97.2,100.2-98.9c3.8-1.8,10-1.3,13.4,1.1c5.4,3.8,7.2,11.5,4.2,17
		c-1.8,3.2-96.2,96.4-99.2,98C29.5,416.3,24.6,416.8,22.3,416.1z"/>
	<path fill="#3FAAF3" d="M50.7,492c-5.9-3-8.4-10.2-5.5-16.1c1.3-2.6,1.4-2.8,99.6-98.1c5.1-4.9,13.3-0.3,16.1,5.8
		c1.6,3.5,1.5,7.7-0.2,10.9c-1.5,2.8-93.5,94.1-97.6,96.8C59.5,493.9,54.9,494.1,50.7,492z M389.1,478.9c-8.4-1.6-16.2-4.8-23.5-9.8
		c-13.6-9.2-21.2-28.6-21.2-53.8c0-25.3,7.6-44.6,21.4-53.9c5.2-3.5,13.1-7.2,19-8.8c4.4-1.2,6.6-1.4,17.8-1.4
		c11.3,0,13.5,0.1,18.4,1.4c10.7,2.7,21.8,9.2,27.6,16.1c1.7,2.1,4.5,6.6,6.1,10c5,10.6,7,20.9,7,36.6c0,15.7-2,26-7,36.6
		c-1.7,3.4-4.4,8-6.1,10c-5.7,6.8-16.9,13.4-27.3,16C414.6,479.7,396,480.3,389.1,478.9z M416.6,461.7c13.2-3.4,20.5-10.7,24.2-24.4
		c3.4-12.7,3.4-31.1,0-43.8c-4.8-17.9-16.2-25.7-37.5-25.6c-14.2,0-22.2,2.6-28.9,9.4c-7.8,7.8-11.2,19.3-11.2,38.2
		c0,18.9,3.4,30.4,11.2,38.2c4.1,4.1,9.8,7.1,15.7,8.4C396.5,463.3,410.8,463.2,416.6,461.7z M529.4,478.9
		c-8.6-1.6-17.2-5.1-22.5-9.1c-4-3-8.3-8.9-11-15.1l-2.1-4.6V305.6h17.5l0.3,24.7c0.3,21.5,0.4,24.7,1.3,24.6c0.5-0.1,4-0.9,7.8-1.8
		c9.2-2.2,26.3-2.9,35.3-1.3c17.4,3,31.4,13.7,37.4,28.5c4.4,10.8,6.3,23.5,5.8,38.5c-0.4,11-1.6,18.1-4.3,26.2
		c-5,14.9-12.1,23.4-24.7,29.6c-3.1,1.5-7.3,3.2-9.4,3.8C555.6,479.7,535.6,480.1,529.4,478.9z M556.2,461.8
		c8.4-2.3,15.5-8.1,19-15.4c7.7-16,7.6-48-0.2-62.6c-3.8-7.1-11.3-12.4-20.5-14.4c-7.3-1.6-23.5-1-31.7,1.2
		c-3.4,0.9-7.2,2.1-8.4,2.8l-2.3,1.1V447l1.5,3.3c2.6,5.8,8.6,9.9,17.1,11.7C536.6,463.3,551.1,463.2,556.2,461.8z M223.8,477.2
		c-0.2-0.4-0.2-37.8-0.1-83l0.2-82.3H242l0.3,74.1l0.3,74.1l42.1,0.2l42.1,0.2v17.5h-51.4C234.9,478,224,477.8,223.8,477.2z
		 M70.3,420.5c-6.1-2.8-8.8-9.8-6.2-16.3c0.7-1.9,12.8-14.1,49.5-50.4c47.1-46.5,48.7-48,52-48.9c2.9-0.8,3.9-0.9,6.6-0.2
		c7.9,1.9,12.1,10.9,8.4,18.1c-1.3,2.6-95.9,95.9-98.8,97.5C78.6,422,73.8,422.1,70.3,420.5z M22.2,415.4c-2.7-0.9-5.8-3.2-7-5.3
		c-0.6-1-1.4-2.1-1.8-2.4s-0.7-2.2-0.6-4.4c0-3.2,0.3-4.4,1.7-6.4c2.3-3.5,96.4-96,98.9-97.4c2.5-1.3,8.5-1.5,11.3-0.3
		c2.8,1.2,6.5,5.5,7.1,8.2c0.7,3.7,0,8.3-1.7,10.5c-2.7,3.7-95.8,95.2-98,96.4C29.4,415.7,24.6,416.2,22.2,415.4z"/>
	<path fill="#949EA7" d="M389.1,478.9c-8.4-1.6-16.2-4.8-23.5-9.8c-13.6-9.2-21.2-28.6-21.2-53.8c0-25.3,7.6-44.6,21.4-53.9
		c5.2-3.5,13.1-7.2,19-8.8c4.4-1.2,6.6-1.4,17.8-1.4c11.3,0,13.5,0.1,18.4,1.4c10.7,2.7,21.8,9.2,27.6,16.1c1.7,2.1,4.5,6.6,6.1,10
		c5,10.6,7,20.9,7,36.6c0,15.7-2,26-7,36.6c-1.7,3.4-4.4,8-6.1,10c-5.7,6.8-16.9,13.4-27.3,16C414.6,479.7,396,480.3,389.1,478.9z
		 M416.6,461.7c13.2-3.4,20.5-10.7,24.2-24.4c3.4-12.7,3.4-31.1,0-43.8c-4.8-17.9-16.2-25.7-37.5-25.6c-14.2,0-22.2,2.6-28.9,9.4
		c-7.8,7.8-11.2,19.3-11.2,38.2c0,18.9,3.4,30.4,11.2,38.2c4.1,4.1,9.8,7.1,15.7,8.4C396.5,463.3,410.8,463.2,416.6,461.7z
		 M529.4,478.9c-8.6-1.6-17.2-5.1-22.5-9.1c-4-3-8.3-8.9-11-15.1l-2.1-4.6V305.6h17.5l0.3,24.7c0.3,21.5,0.4,24.7,1.3,24.6
		c0.5-0.1,4-0.9,7.8-1.8c9.2-2.2,26.3-2.9,35.3-1.3c17.4,3,31.4,13.7,37.4,28.5c4.4,10.8,6.3,23.5,5.8,38.5
		c-0.4,11-1.6,18.1-4.3,26.2c-5,14.9-12.1,23.4-24.7,29.6c-3.1,1.5-7.3,3.2-9.4,3.8C555.6,479.7,535.6,480.1,529.4,478.9z
		 M556.2,461.8c8.4-2.3,15.5-8.1,19-15.4c7.7-16,7.6-48-0.2-62.6c-3.8-7.1-11.3-12.4-20.5-14.4c-7.3-1.6-23.5-1-31.7,1.2
		c-3.4,0.9-7.2,2.1-8.4,2.8l-2.3,1.1V447l1.5,3.3c2.6,5.8,8.6,9.9,17.1,11.7C536.6,463.3,551.1,463.2,556.2,461.8z M223.8,477.2
		c-0.2-0.4-0.2-37.8-0.1-83l0.2-82.3H242l0.3,74.1l0.3,74.1l42.1,0.2l42.1,0.2v17.5h-51.4C234.9,478,224,477.8,223.8,477.2z
		 M71.6,420.7c-1.4-0.5-3.5-2-4.8-3.4c-3.7-3.9-4.5-9.2-2.1-13.9c1.5-2.8,97-96.9,99.5-97.9c2.6-1.1,6-1.2,9.2-0.3
		c2.5,0.7,6.5,4.5,7.5,7.1c1.1,3,0.8,7.5-0.7,10.3c-1.7,3-95.4,95.7-98.4,97.3C78.8,421.5,74.5,421.8,71.6,420.7z M21.5,415.1
		c-2.1-0.8-4.8-3.2-8-7.2c-0.9-1.1-1-8.6-0.1-9.3c0.3-0.2,1-1.2,1.6-2.1c1.6-2.9,96.4-95.9,98.8-97.1c1.7-0.8,3.5-1.1,6.5-0.9
		c4.6,0.2,7.3,1.7,10,5.6c1.9,2.7,2.4,8.8,0.9,12c-1.3,2.7-96.1,96.7-99.2,98.3C29,415.9,24.5,416.2,21.5,415.1z"/>
	<path fill="#2993EA" d="M389.7,478.3c-12.9-2.3-25.9-9.5-32.3-17.8c-8.4-11.2-12-24.7-12-45c0-16.6,2-26.7,7.1-36.9
		c4.5-8.9,8.9-13.6,17.8-18.9c10-5.9,21.5-8.4,35.7-7.8c10.3,0.4,16.4,1.6,23.1,4.5c17,7.3,25.6,18.1,30,37.9
		c1.3,5.8,1.5,8.2,1.5,21.3s-0.2,15.4-1.5,21.3c-3.6,16.2-10.6,27-21.6,33.7c-5.1,3.1-12.6,6.2-18,7.3
		C413,479.1,396.3,479.4,389.7,478.3z M417.6,462.3c6.5-1.8,11.3-4.5,15.3-8.7c4.2-4.4,6.9-9.7,9.1-17.5c1.5-5.7,1.6-6.8,1.6-20.7
		c0-13.9-0.1-15.1-1.6-20.7c-2.1-7.8-4.9-13.1-9.1-17.5c-4-4.2-8.7-6.9-15.6-8.8c-6.5-1.8-20.7-2-27.5-0.3
		c-13.5,3.3-21.8,11.9-25.4,26.2c-4,15.9-2.7,38.8,3,50.8c4.8,10.3,13.7,16.5,26.4,18.4C400.1,464.5,412.1,463.9,417.6,462.3z
		 M532,478.5c-5.9-0.9-12.8-2.9-18.4-5.6c-9.4-4.4-17-14.2-18.9-24.7c-0.5-2.7-0.6-24.1-0.5-72.9l0.2-69.1h16.3l0.2,24.4
		c0.1,13.4,0.4,24.6,0.7,24.9c0.3,0.3,3.4-0.2,7-1c16.8-4.1,35.3-3.8,47.5,0.9c11,4.2,20.5,12.6,25.1,22c5.3,11,7.2,21,7.2,37.4
		c0,17-2.5,28.6-8.4,40.1c-6.2,12-19,20.9-33.5,23.4C550.5,479.3,538.2,479.4,532,478.5z M556,462.7c10.1-2.8,17.2-9,21-18.5
		c3.2-8,4.3-15.2,4.4-29.4c0-13.2-0.3-16.3-2.9-24.4c-3.7-11.7-11.3-18.7-23.4-21.7c-6.1-1.5-20.7-1.5-27.8,0
		c-6.1,1.3-14.4,3.9-15.5,4.9c-0.6,0.5-0.8,8.2-0.8,36.6c0,33.9,0.1,36.1,1.2,39.1c3.1,8,9.9,12.4,22.3,14.3
		C539.5,464.3,551.9,463.9,556,462.7z M224.7,394.7v-82.6H241v73.3c0,49.3,0.2,73.7,0.6,74.4c0.6,1.2,1.8,1.2,42.6,1.2h42v16.3
		H224.7L224.7,394.7L224.7,394.7z M71.6,420.7c-1.4-0.5-3.5-2-4.8-3.4c-3.7-3.9-4.5-9.2-2.1-13.9c1.5-2.8,97-96.9,99.5-97.9
		c2.6-1.1,6-1.2,9.2-0.3c2.5,0.7,6.5,4.5,7.5,7.1c1.1,3,0.8,7.5-0.7,10.3c-1.7,3-95.4,95.7-98.4,97.3
		C78.8,421.5,74.5,421.8,71.6,420.7z M21.5,415.1c-2.1-0.8-4.8-3.2-8-7.2c-0.9-1.1-1-8.6-0.1-9.3c0.3-0.2,1-1.2,1.6-2.1
		c1.6-2.9,96.4-95.9,98.8-97.1c1.7-0.8,3.5-1.1,6.5-0.9c4.6,0.2,7.3,1.7,10,5.6c1.9,2.7,2.4,8.8,0.9,12
		c-1.3,2.7-96.1,96.7-99.2,98.3C29,415.9,24.5,416.2,21.5,415.1z"/>
	<path fill="#1F79D3" d="M389.7,478.3c-12.9-2.3-25.9-9.5-32.3-17.8c-8.4-11.2-12-24.7-12-45c0-16.6,2-26.7,7.1-36.9
		c4.5-8.9,8.9-13.6,17.8-18.9c10-5.9,21.5-8.4,35.7-7.8c10.3,0.4,16.4,1.6,23.1,4.5c17,7.3,25.6,18.1,30,37.9
		c1.3,5.8,1.5,8.2,1.5,21.3s-0.2,15.4-1.5,21.3c-3.6,16.2-10.6,27-21.6,33.7c-5.1,3.1-12.6,6.2-18,7.3
		C413,479.1,396.3,479.4,389.7,478.3z M417.6,462.3c6.5-1.8,11.3-4.5,15.3-8.7c4.2-4.4,6.9-9.7,9.1-17.5c1.5-5.7,1.6-6.8,1.6-20.7
		c0-13.9-0.1-15.1-1.6-20.7c-2.1-7.8-4.9-13.1-9.1-17.5c-4-4.2-8.7-6.9-15.6-8.8c-6.5-1.8-20.7-2-27.5-0.3
		c-13.5,3.3-21.8,11.9-25.4,26.2c-4,15.9-2.7,38.8,3,50.8c4.8,10.3,13.7,16.5,26.4,18.4C400.1,464.5,412.1,463.9,417.6,462.3z
		 M532,478.5c-5.9-0.9-12.8-2.9-18.4-5.6c-9.4-4.4-17-14.2-18.9-24.7c-0.5-2.7-0.6-24.1-0.5-72.9l0.2-69.1h16.3l0.2,24.4
		c0.1,13.4,0.4,24.6,0.7,24.9c0.3,0.3,3.4-0.2,7-1c16.8-4.1,35.3-3.8,47.5,0.9c11,4.2,20.5,12.6,25.1,22c5.3,11,7.2,21,7.2,37.4
		c0,17-2.5,28.6-8.4,40.1c-6.2,12-19,20.9-33.5,23.4C550.5,479.3,538.2,479.4,532,478.5z M556,462.7c10.1-2.8,17.2-9,21-18.5
		c3.2-8,4.3-15.2,4.4-29.4c0-13.2-0.3-16.3-2.9-24.4c-3.7-11.7-11.3-18.7-23.4-21.7c-6.1-1.5-20.7-1.5-27.8,0
		c-6.1,1.3-14.4,3.9-15.5,4.9c-0.6,0.5-0.8,8.2-0.8,36.6c0,33.9,0.1,36.1,1.2,39.1c3.1,8,9.9,12.4,22.3,14.3
		C539.5,464.3,551.9,463.9,556,462.7z M224.7,394.7v-82.6H241v73.3c0,49.3,0.2,73.7,0.6,74.4c0.6,1.2,1.8,1.2,42.6,1.2h42v16.3
		H224.7L224.7,394.7L224.7,394.7z M20.8,414.5c-2.4-1.1-5.9-4.6-6.4-6.5c-0.2-1-0.5-1.2-0.8-0.7c-0.7,1.1-1.4-3.5-0.9-6.3
		c0.2-1.3,0.6-2.3,0.9-2.1c0.3,0.2,0.8-0.5,1.2-1.4c0.6-1.5,51-51.7,85.5-85.3c10.9-10.6,13-12.4,15.5-13
		c11.4-3.2,20.6,9.8,13.5,19.1c-3.2,4.2-95.3,94.5-97.7,95.9C28.7,415.6,23.9,415.8,20.8,414.5z"/>
	<path fill="#425463" d="M389.7,478.3c-12.9-2.3-25.9-9.5-32.3-17.8c-8.4-11.2-12-24.7-12-45c0-16.6,2-26.7,7.1-36.9
		c4.5-8.9,8.9-13.6,17.8-18.9c10-5.9,21.5-8.4,35.7-7.8c10.3,0.4,16.4,1.6,23.1,4.5c17,7.3,25.6,18.1,30,37.9
		c1.3,5.8,1.5,8.2,1.5,21.3s-0.2,15.4-1.5,21.3c-3.6,16.2-10.6,27-21.6,33.7c-5.1,3.1-12.6,6.2-18,7.3
		C413,479.1,396.3,479.4,389.7,478.3z M417.6,462.3c6.5-1.8,11.3-4.5,15.3-8.7c4.2-4.4,6.9-9.7,9.1-17.5c1.5-5.7,1.6-6.8,1.6-20.7
		c0-13.9-0.1-15.1-1.6-20.7c-2.1-7.8-4.9-13.1-9.1-17.5c-4-4.2-8.7-6.9-15.6-8.8c-6.5-1.8-20.7-2-27.5-0.3
		c-13.5,3.3-21.8,11.9-25.4,26.2c-4,15.9-2.7,38.8,3,50.8c4.8,10.3,13.7,16.5,26.4,18.4C400.1,464.5,412.1,463.9,417.6,462.3z
		 M532,478.5c-5.9-0.9-12.8-2.9-18.4-5.6c-9.4-4.4-17-14.2-18.9-24.7c-0.5-2.7-0.6-24.1-0.5-72.9l0.2-69.1h16.3l0.2,24.4
		c0.1,13.4,0.4,24.6,0.7,24.9c0.3,0.3,3.4-0.2,7-1c16.8-4.1,35.3-3.8,47.5,0.9c11,4.2,20.5,12.6,25.1,22c5.3,11,7.2,21,7.2,37.4
		c0,17-2.5,28.6-8.4,40.1c-6.2,12-19,20.9-33.5,23.4C550.5,479.3,538.2,479.4,532,478.5z M556,462.7c10.1-2.8,17.2-9,21-18.5
		c3.2-8,4.3-15.2,4.4-29.4c0-13.2-0.3-16.3-2.9-24.4c-3.7-11.7-11.3-18.7-23.4-21.7c-6.1-1.5-20.7-1.5-27.8,0
		c-6.1,1.3-14.4,3.9-15.5,4.9c-0.6,0.5-0.8,8.2-0.8,36.6c0,33.9,0.1,36.1,1.2,39.1c3.1,8,9.9,12.4,22.3,14.3
		C539.5,464.3,551.9,463.9,556,462.7z M224.7,394.7v-82.6H241v73.3c0,49.3,0.2,73.7,0.6,74.4c0.6,1.2,1.8,1.2,42.6,1.2h42v16.3
		H224.7L224.7,394.7L224.7,394.7z"/>
</g>
</svg>
