<?xml version="1.0" encoding="utf-8"?>
<!-- Generator: Adobe Illustrator 18.0.0, SVG Export Plug-In . SVG Version: 6.00 Build 0)  -->
<!DOCTYPE svg PUBLIC "-//W3C//DTD SVG 1.1//EN" "http://www.w3.org/Graphics/SVG/1.1/DTD/svg11.dtd">
<svg version="1.1" id="Layer_1" xmlns="http://www.w3.org/2000/svg" xmlns:xlink="http://www.w3.org/1999/xlink" x="0px" y="0px"
	 viewBox="-19 71 650 650" enable-background="new -19 71 650 650" xml:space="preserve">
<g id="surface1">
	<path d="M75.5,452.1H64.7l-50.8-85.2l-7-12.6c0.4,7.2,0.6,13.6,0.6,19.2v78.6h-7.6V346.7h10.5l46.5,77.8c3.1,5,7,11.8,11.8,20.4
		c-0.4-7.8-0.6-13.6-0.6-17.1v-81.1h7.4V452.1z"/>
	<path d="M162.2,411.9h-54.3c0,11.4,2.5,20,7.2,26s12,9.1,21.5,9.1c7.2,0,15.3-1.9,24.4-5.8l1.9,7c-3.9,1.7-8.3,3.1-13,4.1
		s-9.5,1.7-14,1.7c-11.8,0-20.7-3.5-26.7-10.5c-6.2-7-9.1-17.1-9.1-30.5c0-13.8,2.7-24.5,8.3-32c5.6-7.4,13.4-11.1,23.5-11.1
		c9.9,0,17.4,3.1,22.5,9.3c5.2,6.2,7.8,15.1,7.8,27V411.9L162.2,411.9z M154.2,405.1c0-9.5-1.9-16.7-5.6-21.5
		c-3.7-5-9.3-7.2-16.5-7.2c-7,0-12.6,2.5-16.7,7.2s-6.4,12-7.2,21.7h46.1L154.2,405.1L154.2,405.1z"/>
	<path d="M195.7,377.8v56.5c0,4.5,0.8,7.8,2.5,9.7c1.7,1.9,4.1,2.9,7.2,2.9c3.5,0,7.8-0.6,13.2-1.9l1.3,6.6
		c-5,1.4-10.1,2.3-15.3,2.3c-11,0-16.5-6-16.5-17.7v-58.4h-13v-7h13l0.8-18.4h6.6v18.4h21.9v7H195.7z"/>
	<path d="M291.3,425.9c0,8.3-2.9,14.9-8.7,20c-5.8,5.2-13.4,7.6-22.7,7.6c-11.1,0-21.3-1.4-30.4-4.5l2.5-7.6
		c5.4,2.1,10.1,3.3,14,4.1s8.5,1,13.6,1c7,0,12.8-1.9,17.1-5.8c4.3-3.7,6.6-8.7,6.6-14.7c0-4.5-0.8-8-2.5-10.7s-4.1-5.4-7.8-8
		c-3.7-2.5-8.7-5.2-15.3-7.8c-9.3-3.9-16.1-8.3-20-13c-4.1-5-6.2-10.9-6.2-18.1c0-7,2.5-12.6,7.7-16.7c5.2-4.3,12-6.4,20.7-6.4
		c4.3,0,8.5,0.2,12.2,0.8c3.7,0.6,8,1.7,13,3.3l-2.3,7.2c-8.5-2.9-16.1-4.5-23.1-4.5c-6.6,0-11.6,1.4-15.1,4.5s-5.4,7.2-5.4,12.2
		c0,4.1,0.8,7.6,2.5,10.3c1.7,2.7,4.1,5.4,7.9,7.8c3.7,2.5,8.5,5,14.7,7.4c9.9,4.1,16.7,8.4,20.9,13.4
		C289.3,412.5,291.3,418.7,291.3,425.9z"/>
	<path d="M360.7,379.7c-2.5-0.8-5.4-1.7-8.5-2.3c-3.1-0.8-6.4-1-10.1-1c-7.6,0-13.8,3.1-18.6,9.3c-4.7,6.2-6.8,14.9-6.8,25.8
		c0,23.5,9.1,35.3,27.5,35.3c2.9,0,6.2-0.4,9.7-1c3.7-0.8,7-1.7,10.1-2.9l1.7,6.6c-2.5,1-5.6,2.1-9.9,2.9s-8,1.2-12,1.2
		c-11.6,0-20.2-3.7-26.2-10.9c-6-7.2-8.9-17.7-8.9-31.4c0-12.8,3.1-23.1,9.1-30.8c6-7.6,14-11.4,24.2-11.4c6.8,0,13.6,1,20.4,3.1
		L360.7,379.7z"/>
	<path d="M430.1,452.1l-1-7.2c-8.9,5.8-18,8.7-27.5,8.7c-7.9,0-13.8-1.9-18.2-5.8c-4.3-3.9-6.4-9.1-6.4-15.9c0-9.3,3.9-15.9,12-20
		c8-4.1,21.3-6.4,39.9-7v-9.3c0-6-1.9-10.7-5.4-14.2s-8.5-5.4-14.7-5.4c-7,0-14.3,1.4-21.9,4.5l-2.3-6.6c7.4-3.1,15.5-4.5,24.8-4.5
		c8.3,0,14.7,2.3,19.6,6.8c4.7,4.5,7.2,10.7,7.2,18.6V452H430v0.1H430.1z M428.7,411.5c-10.5,0.2-19,1.2-25.4,2.7
		c-6.4,1.4-11,3.5-14,6.4c-3.1,2.9-4.6,6.8-4.6,11.6c0,4.5,1.7,8,4.7,10.7c3.1,2.7,7.4,3.9,12.4,3.9c9.3,0,18.2-2.7,26.8-8.3
		L428.7,411.5L428.7,411.5z"/>
	<path d="M462.1,452.1V338h7.4v114.1H462.1z"/>
	<path d="M554.3,411.9H500c0,11.4,2.5,20,7.2,26s12,9.1,21.5,9.1c7.2,0,15.3-1.9,24.4-5.8l1.9,7c-3.9,1.7-8.3,3.1-13,4.1
		s-9.5,1.7-14,1.7c-11.8,0-20.7-3.5-26.7-10.5c-6.2-7-9.1-17.1-9.1-30.5c0-13.8,2.7-24.5,8.3-32s13.4-11.1,23.5-11.1
		c9.9,0,17.4,3.1,22.5,9.3c5.2,6.2,7.8,15.1,7.8,27V411.9L554.3,411.9z M546.2,405.1c0-9.5-1.9-16.7-5.6-21.5
		c-3.7-5-9.3-7.2-16.5-7.2c-7,0-12.6,2.5-16.7,7.2s-6.4,12-7.2,21.7h46.1L546.2,405.1L546.2,405.1z"/>
	<path d="M576.8,370.8h6l1,10.1c3.3-4.3,6.6-7.4,9.7-9.1c3.3-1.7,7-2.5,11.8-2.5c2.7,0,5,0.2,6.8,0.6l-1.3,7.4
		c-1.9-0.6-4.1-0.8-7.2-0.8c-3.9,0-7.2,1-10.3,3.1s-6,5.4-9.1,9.9v62.7h-7.4V370.8L576.8,370.8z"/>
</g>
</svg>
