<?xml version="1.0" encoding="utf-8"?>
<!-- Generator: Adobe Illustrator 16.0.0, SVG Export Plug-In . SVG Version: 6.00 Build 0)  -->
<!DOCTYPE svg PUBLIC "-//W3C//DTD SVG 1.1//EN" "http://www.w3.org/Graphics/SVG/1.1/DTD/svg11.dtd">
<svg version="1.1" id="Layer_1" xmlns="http://www.w3.org/2000/svg" xmlns:xlink="http://www.w3.org/1999/xlink" x="0px" y="0px"
	 width="587.842px" height="326px" viewBox="-76.806 -109.5 587.842 326" enable-background="new -76.806 -109.5 587.842 326"
	 xml:space="preserve">
<g id="estimote">
</g>
<g id="Pebble">
</g>
<g id="Spark">
</g>
<g id="Layer_4">
</g>
<g id="Layer_5">
</g>
<g id="Layer_6">
</g>
<g id="Base">
</g>
<g id="yelp">
</g>
<g id="Yext">
</g>
<g id="Estimote">
</g>
<g id="Microsoft">
</g>
<g id="Big_Viking">
</g>
<g id="_x35_00px">
</g>
<g id="Magnet_Forensics">
</g>
<g id="Guides">
</g>
<g id="Wit.Ai" display="none">
</g>
<g id="Layer_18">
</g>
<g id="Kik">
</g>
<g id="Layer_20">
</g>
<g id="Affirm">
</g>
<g id="Shopify">
</g>
<g id="apple">
</g>
<g id="velocity">
</g>
<g id="pagerduty">
	<g>
		<g>
			<path fill="#47BA04" d="M49.275,37.628c-1.381-2.531-2.991-4.602-5.062-6.212c-2.07-1.611-4.141-2.761-6.442-3.451
				c-2.301-0.69-4.372-1.15-6.442-1.15H-3.182v13.804h34.511c1.841,0,3.221,0.46,4.372,1.611s1.841,2.531,1.841,4.602v5.982H11.083
				c-3.681,0-6.672,0.69-9.203,2.07c-2.531,1.38-4.602,2.991-6.212,5.062c-1.61,2.07-2.761,4.141-3.451,6.442
				c-0.69,2.301-1.15,4.602-1.15,6.442c0,3.682,0.69,6.672,2.07,9.203s2.991,4.602,5.062,6.212c2.07,1.611,4.141,2.761,6.442,3.451
				c2.301,0.69,4.372,1.15,6.442,1.15h20.247c3.682,0,6.672-0.69,9.203-2.07c2.531-1.381,4.602-2.991,6.212-5.062
				c1.611-2.07,2.761-4.141,3.451-6.442c0.69-2.301,1.15-4.372,1.15-6.442V46.831C51.346,43.149,50.656,40.159,49.275,37.628z
				 M37.542,72.599c0,1.841-0.46,3.221-1.611,4.372s-2.531,1.84-4.602,1.84H11.083c-1.61,0-3.221-0.46-4.371-1.61
				s-1.841-2.531-1.841-4.372c0-1.84,0.46-3.221,1.611-4.371c1.15-1.15,2.531-1.841,4.601-1.841h26.459V72.599z"/>
		</g>
		<g>
			<path fill="#47BA04" d="M167.074,66.847c3.681,0,6.672-0.69,9.203-2.07c2.531-1.381,4.602-2.991,6.212-5.062
				c1.61-2.07,2.761-4.141,3.451-6.442c0.69-2.301,1.15-4.602,1.15-6.442c0-3.682-0.69-6.672-2.071-9.203s-2.991-4.602-5.062-6.212
				c-2.071-1.611-4.142-2.761-6.442-3.451c-2.301-0.69-4.602-1.15-6.442-1.15h-20.477c-3.681,0-6.672,0.69-9.203,2.07
				c-2.531,1.381-4.602,2.991-6.212,5.062c-1.611,2.07-2.761,4.141-3.451,6.442c-0.69,2.301-1.15,4.602-1.15,6.442v25.999
				c0,3.681,0.69,6.672,2.071,9.203c1.38,2.531,2.991,4.602,5.062,6.212c2.071,1.611,4.141,2.761,6.442,3.451
				c2.301,0.69,4.602,1.15,6.442,1.15h38.422V79.042h-38.192c-1.841,0-3.221-0.46-4.602-1.611c-1.15-1.15-1.841-2.531-1.841-4.602
				v-6.212h26.689V66.847z M140.385,47.061c0-1.841,0.46-3.221,1.611-4.602c1.15-1.15,2.531-1.841,4.602-1.841h20.477
				c1.61,0,3.221,0.46,4.372,1.611s1.84,2.531,1.84,4.371c0,1.841-0.46,3.221-1.61,4.602c-1.15,1.15-2.531,1.841-4.602,1.841
				h-26.689V47.061z"/>
		</g>
		<g>
			<path fill="#47BA04" d="M286.483,92.616L286.483,92.616h-21.857c-7.822,0-12.424-3.221-14.725-5.752
				c-4.832-5.292-4.832-12.194-4.832-14.035V46.601c0-7.592,2.991-12.194,5.752-14.495c5.292-5.062,12.194-5.062,14.034-5.062
				h27.379V3.347h14.035V73.29c0,7.132-2.991,11.503-5.292,14.035C294.996,92.386,287.863,92.616,286.483,92.616z M258.874,73.75
				c0,0.69,0.23,2.761,1.15,3.912s2.991,1.38,4.602,1.38h21.857c5.521,0,5.521-4.142,5.521-5.522v-32.21h-27.839l0,0
				c-0.69,0-2.761,0.23-3.912,1.38c-0.92,0.92-1.15,2.301-1.15,4.372L258.874,73.75z"/>
		</g>
		<g>
			<path fill="#47BA04" d="M-62.771,116.313h-14.035V46.371c0-7.132,2.991-11.504,5.522-14.035
				c5.522-5.292,12.884-5.521,14.035-5.521h21.857c7.823,0,12.424,3.221,14.725,5.752c4.832,5.292,4.832,12.194,4.832,14.034V73.06
				c0,7.592-2.991,12.194-5.752,14.495c-5.292,5.062-12.424,5.062-14.035,5.062h-27.379v23.698H-62.771z M-34.702,78.581
				c0.69,0,2.761-0.23,3.911-1.38c0.92-0.92,1.15-2.301,1.15-4.372V45.681c0-0.69-0.23-2.761-1.15-3.912s-2.991-1.38-4.602-1.38
				h-22.087c-5.522,0-5.522,4.142-5.522,5.522v32.44L-34.702,78.581z"/>
		</g>
		<g>
			<path fill="#47BA04" d="M206.646,92.616h-14.035V46.371c0-7.132,2.991-11.504,5.292-14.035
				c5.522-5.292,12.884-5.521,14.265-5.521h27.149v14.034h-27.149c-5.522,0-5.522,4.142-5.522,5.522V92.616z"/>
		</g>
		<g>
			<path fill="#47BA04" d="M332.728,92.846c-1.15,0-8.513-0.23-14.034-5.752c-2.531-2.531-5.292-6.902-5.292-13.804V27.044h14.035
				V73.29c0,2.991,1.15,4.141,2.07,4.602c1.38,0.69,2.991,0.92,3.451,0.92h27.148V26.814h14.035v65.801L332.728,92.846
				L332.728,92.846z"/>
		</g>
		<g>
			<path fill="#47BA04" d="M98.972,115.623H65.841v-14.034h33.13c3.451,0,4.602-1.381,5.522-2.761c0.92-1.61,1.15-3.451,1.15-3.911
				v-2.761H79.415c-1.841,0-9.203,0-14.725-5.292c-2.761-2.531-5.982-7.362-5.982-15.415V47.061c0-1.61,0-9.203,5.292-14.725
				c2.531-2.761,7.362-5.982,15.185-5.982h19.786c8.283,0,20.477,5.522,20.477,20.477v47.856
				C119.448,103.429,113.926,115.623,98.972,115.623z M72.513,47.061v0.23l0,0v24.388c0,2.531,0.46,4.141,1.611,5.062
				c1.61,1.61,4.601,1.61,4.601,1.61h0.46h26.458v-31.06c0-3.681-1.38-4.832-2.991-5.752c-1.841-0.92-3.681-0.92-3.681-0.92H79.185
				c-2.301,0-4.142,0.46-5.062,1.61C72.743,43.61,72.513,46.141,72.513,47.061z"/>
		</g>
		<g>
			<path fill="#47BA04" d="M490.329,115.854h-33.131v-14.035h33.131c3.451,0,4.602-1.38,5.522-2.761
				c0.92-1.61,1.15-3.451,1.15-3.911v-2.531h-26.459c-8.053,0-12.885-3.221-15.415-5.982c-5.292-5.752-5.292-13.114-5.292-14.725
				V27.044h14.035v45.555c0,0.92,0.229,3.451,1.61,4.832c0.92,0.92,2.761,1.611,5.062,1.611h26.459V27.044h14.034v68.562
				C510.576,103.659,505.054,115.854,490.329,115.854z"/>
		</g>
		<g>
			<polygon fill="#47BA04" points="418.776,92.846 404.741,92.846 404.741,40.849 381.044,40.849 381.044,26.814 404.741,26.814 
				404.741,9.099 418.776,9.099 418.776,26.814 442.474,26.814 442.474,40.849 418.776,40.849 			"/>
		</g>
	</g>
</g>
<g id="Layer_26">
</g>
<g id="bitalino">
</g>
<g id="TextNow">
</g>
<g id="Uber">
</g>
<g id="mars">
</g>
<g id="twilio">
</g>
<g id="wit-ai">
</g>
<g id="indiegogo">
</g>
<g id="Layer_34">
</g>
<g id="cisco">
</g>
<g id="teespring">
</g>
<g id="sendgrid">
</g>
<g id="kloudless">
</g>
<g id="uwaterloo">
</g>
</svg>
