<?xml version="1.0" encoding="utf-8"?>
<!-- Generator: Adobe Illustrator 18.1.1, SVG Export Plug-In . SVG Version: 6.00 Build 0)  -->
<svg version="1.1" id="Layer_1" xmlns="http://www.w3.org/2000/svg" xmlns:xlink="http://www.w3.org/1999/xlink" x="0px" y="0px"
	 viewBox="0 0 612 536.4" enable-background="new 0 0 612 536.4" xml:space="preserve">
<g>
	<path fill="#02AEEE" d="M188,49.4c9.6,4.9,18.3,11.4,27.4,17.2c29.3,18.8,58.5,37.7,87.6,56.7c3,1.9,5,1.9,7.9,0
		c36.7-23.9,73.5-47.6,110.3-71.3c1.5-1,2.8-2.4,4.8-2.5l-0.1-0.1c0.5,2.1-1.2,3.3-2.2,4.8c-23.7,36.8-47.5,73.6-71.4,110.3
		c-2,3.1-2,5.2,0,8.3c23.7,36.4,47.3,72.9,70.8,109.5c1.1,1.6,2.7,3,2.8,5.2l0.1-0.1c-2.3,0.5-3.6-1.4-5.2-2.4
		c-36.7-23.6-73.3-47.3-109.9-71.1c-3-1.9-4.9-1.9-7.9,0c-36.7,23.9-73.5,47.6-110.3,71.4c-1.4,0.9-2.6,2.7-4.8,2.1l0.1,0.1
		c4.3-8.8,10.2-16.7,15.5-24.9c19.3-30.1,38.8-60.2,58.4-90.2c1.8-2.8,1.8-4.7,0-7.5c-23.9-36.7-47.6-73.5-71.4-110.3
		C189.5,52.9,187.6,51.6,188,49.4L188,49.4z"/>
	<path fill="#0A0A0A" d="M35.3,438.9c0-21.5,0.1-43-0.1-64.4c0-3.6,0.7-4.9,4.6-4.8c15.1,0.5,30.3-0.4,45.4,0.6
		c5.2,0.3,10.2,1.4,15.1,3.1c17.3,5.9,27.7,18.8,28.6,35.8c1,18.7-7.4,33.3-24,41.3c-9,4.3-18.6,6.2-28.5,6.3
		c-8.3,0-16.7,0.2-25-0.1c-4.4-0.2-6,0.8-5.8,5.6c0.4,13.5,0,27,0.2,40.5c0.1,3.9-0.3,5.8-5.2,5.9c-5.1,0-5.5-2-5.5-6.1
		C35.3,481.1,35.3,460,35.3,438.9z M45.7,412.9c0,10.2,0.1,20.3-0.1,30.5c0,2.8,0.7,3.7,3.6,3.7c9.3-0.2,18.6,0.1,28-0.1
		c8.1-0.1,15.9-1.6,23.1-5.3c14.5-7.4,21.2-21.9,17.1-37.6c-3.9-14.9-15.1-21.2-29.2-23.5c-13.2-2.2-26.6-0.6-39.9-1.1
		c-2.9-0.1-2.7,1.6-2.7,3.5C45.8,392.9,45.7,402.9,45.7,412.9z"/>
	<path fill="#0A0A0A" d="M209.1,492c-8.8,10.6-18.8,16.4-31,17.9c-12.1,1.5-23.6-0.3-33.8-7.6c-17.2-12.3-16.6-37.5,1.1-49.1
		c11.5-7.5,24.4-8.2,37.5-7.6c7.5,0.3,15,1.1,22.2,3.2c3.7,1.1,4.1-0.2,4.1-3.4c0.1-17.5-9.9-28.5-27.3-30.1
		c-11.7-1.1-22.9,1-33.5,6.1c-2.9,1.4-4.4,1.4-5.4-2c-0.7-2.6-3.2-4.9,1.6-6.8c14.4-5.9,29-8.8,44.4-5.8
		c18.6,3.7,29.5,16.5,29.8,35.3c0.4,20.8,0,41.6,0.2,62.4c0,4.6-2.9,3.4-5.3,3.5c-2.6,0.1-5.1,0.4-4.7-3.6
		C209.4,500.9,209.1,497.2,209.1,492z M178,454.4c-7.4-0.2-14.7,0.4-21.5,3.4c-8.6,3.8-14,10-14,19.9c-0.1,9.8,5.1,16.3,13.7,20.2
		c26.8,12.3,54.9-6.7,53.4-35.9c-0.1-2.5-1-3.4-3.4-3.9C196.9,455.9,187.5,454.6,178,454.4z"/>
	<path fill="#0A0A0A" d="M548.4,462.9c-12,0-24,0.2-36-0.1c-4-0.1-4.8,1-4,4.8c3,15.2,10.8,26.7,25.8,31.6c15.8,5.2,29.8,1,42.1-10
		c1.6-1.4,2.7-4.4,5.9-1.4c4.4,4.1,4.6,3.9,0.2,8c-17.6,16.4-43.2,19.3-62.2,7c-19.5-12.6-27.6-38.5-19.6-62.5
		c9.8-29.3,42.1-42.4,66.7-26.6c16.8,10.8,21.9,27.6,21.9,46.6c0,3.1-2.1,2.4-3.8,2.4C573.1,462.9,560.7,462.9,548.4,462.9z
		 M543.3,454.2c7,0,14,0.2,21-0.1c4.7-0.1,12,2.2,13.6-1c2.3-4.6-0.9-10.9-3.2-16.1c-9.8-22.3-36.9-27.9-54.2-11.2
		c-7.1,6.9-10.7,15.5-12.4,25.1c-0.5,2.9,0.7,3.4,3.2,3.3C522,454.2,532.7,454.2,543.3,454.2z"/>
	<path fill="#0A0A0A" d="M377.8,459c0-21.1,12.5-40.1,31.5-48c18.8-7.8,39.7-3.2,55.2,11.8c3.6,3.5,0.4,4.6-1.1,6.6
		c-1.8,2.4-3.3,3.5-6.1,0.6c-9.6-9.7-21-15.2-35-13.1c-26.4,4-41.6,33.4-30.6,59.3c11.6,27.4,44,33.5,65.9,12.4
		c3.6-3.4,6.3-3,9.2,1.2c1.2,1.7-0.1,2.4-0.9,3.3c-24.6,28.9-71.4,20.3-84.7-15.4C378.9,471.6,377.7,465.4,377.8,459z"/>
	<path fill="#02AEEE" d="M307.5,0c2.4,11,4.8,21.9,7.1,32.9c3.7,17.1,7.3,34.2,11.1,51.2c0.7,3.3,0.4,5.5-2.9,7.3
		c-5.4,3-10.4,9-15.7,9.1c-6,0.1-11.2-6.5-17-9.7c-2.3-1.3-2.7-2.8-2.2-5.3c6.2-28.5,12.3-56.9,18.4-85.4C306.8,0.1,307.1,0,307.5,0
		z"/>
	<path fill="#02AEEE" d="M476.4,169c-29,6.2-57.7,12.3-86.2,18.5c-2.5,0.6-3.9,0.1-5.3-2.1c-2.9-4.8-6-9.6-9.2-14.3
		c-1.1-1.7-1.5-3-0.2-4.9c3.3-4.8,6.4-9.7,9.5-14.7c1.1-1.7,2.2-2.6,4.4-2.1c28.6,6.2,57.2,12.3,85.8,18.5
		C475.5,168,475.7,168.4,476.4,169z"/>
	<path fill="#02AEEE" d="M138.1,168.1c13.3-2.9,26.6-5.8,39.9-8.6c15-3.2,29.9-6.3,44.9-9.7c3.2-0.7,5.2-0.4,6.9,2.7
		c2.6,4.6,5.6,9.1,8.6,13.4c1.4,2,1.3,3.4-0.1,5.3c-3.1,4.5-6.1,9.1-8.9,13.8c-1.4,2.3-2.8,3-5.6,2.4c-28.6-6.2-57.2-12.3-85.8-18.4
		C138,168.8,138,168.4,138.1,168.1z"/>
	<path fill="#02AEEE" d="M306.5,337.5c-3.8-17.5-7.6-35-11.3-52.5c-2.3-10.7-4.5-21.5-7-32.2c-0.7-3.2-0.3-5.2,2.8-6.9
		c4.4-2.4,8.5-5.2,12.6-8.1c2.3-1.6,4.2-2,6.6-0.1c4.2,3,8.5,5.8,13,8.4c2.6,1.5,3.4,3.1,2.7,6c-6.2,28.4-12.3,56.9-18.4,85.3
		C307.2,337.4,306.8,337.4,306.5,337.5z"/>
	<path fill="#0A0A0A" d="M302.3,431.4c0-17.3,0.2-34.6-0.1-52c-0.1-4.3,1.9-4.4,5-4.3c3,0.1,5.3-0.3,5.1,4.2
		c-0.4,8.1,0,16.3-0.2,24.5c-0.1,2.9,0.8,3.6,3.6,3.6c9.3-0.2,18.7,0.1,28-0.2c3.6-0.1,4.1,1.3,4,4.3c-0.1,2.9,0.1,5-4,4.9
		c-9.1-0.3-18.3,0.1-27.5-0.2c-3.3-0.1-4.1,1-4.1,4.2c0.1,19.5,0,39,0.1,58.4c0,16.8,9.9,24.6,26.5,20.9c1-0.2,1.9-0.6,2.9-0.7
		c1.8-0.1,3.9-3.2,5.3-0.5c1.9,3.6-0.2,8-3.7,9.1c-7.8,2.6-15.8,2.9-23.6,0.4c-10.2-3.3-16-10.7-16.9-21.3
		c-1.3-15.4-0.3-31-0.5-46.4C302.3,437.4,302.3,434.4,302.3,431.4z"/>
	<path fill="#0A0A0A" d="M241,432.9c11.1-16,26.4-23.4,44.9-25.3c1.8-0.2,4.9-1.4,4.4,2.4c-0.3,2.5,2.3,6.2-3.5,6.7
		c-28.1,2.6-45.8,22.4-45.8,50.7c0,12-0.2,24,0.1,35.9c0.1,4.4-1.7,4.7-5.2,4.7c-3.4,0-5-0.3-4.9-4.5c0.2-30.8,0.2-61.6,0-92.4
		c0-4.6,2.3-4,5.2-4.1c3.2-0.1,5.2,0.1,5,4.3C240.7,418.7,241,425.8,241,432.9z"/>
	<path fill="#0A0A0A" d="M487.9,435.8c0,22.6-0.1,45.3,0.1,67.9c0,4.1-1.4,4.6-4.9,4.5c-3.4-0.1-5.3-0.2-5.3-4.7
		c0.2-44.9,0.2-89.9,0-134.8c0-4.4,1.7-4.6,5.2-4.7c3.8-0.1,5,0.9,5,4.9C487.8,391.2,487.9,413.5,487.9,435.8z"/>
	<path fill="#0A0A0A" d="M358.1,457.9c0-15.5,0.2-31-0.1-46.4c-0.1-4.5,2.2-4.1,5.2-4.2c3.1-0.1,5,0,5,4.3
		c-0.2,30.8-0.2,61.6,0,92.4c0,4.4-2,4.2-5.1,4.3c-3.2,0.1-5.1-0.1-5-4.4C358.2,488.5,358.1,473.2,358.1,457.9z"/>
	<path fill="#0A0A0A" d="M368,382.7c0,1.2,0,2.1,0,2.9c0,5.4-3.1,7.5-8.4,5.7c-1.5-0.5-1.5-1.5-1.5-2.7c0-2.7,0.2-5.4-0.1-8
		c-0.5-4.2,0.7-5.5,5.3-5.6C371,374.7,366.9,380.2,368,382.7z"/>
	<path fill="#02AEEE" d="M426,49.4c0.1-0.1,0.1-0.3,0.2-0.4c0,0,0.2,0,0.3,0C426.3,49.1,426.1,49.2,426,49.4
		C425.9,49.3,426,49.4,426,49.4z"/>
	<path fill="#02AEEE" d="M188.1,49.3c-0.2-0.1-0.4-0.2-0.6-0.3c0.1,0,0.3,0,0.3,0C187.9,49.1,187.9,49.3,188.1,49.3
		C188,49.4,188.1,49.3,188.1,49.3z"/>
	<path fill="#02AEEE" d="M426,287.4c0.2,0.2,0.4,0.3,0.7,0.5c-0.1,0.1-0.3,0.1-0.4,0.2C426.2,287.8,426.1,287.6,426,287.4
		C426.1,287.3,426,287.4,426,287.4z"/>
	<path fill="#02AEEE" d="M187.9,287.3c-0.1,0.2-0.1,0.5-0.2,0.7c-0.1-0.1-0.3-0.1-0.4-0.2C187.6,287.7,187.8,287.6,187.9,287.3
		C188,287.4,187.9,287.3,187.9,287.3z"/>
	<path fill="#FDFEFE" d="M45.7,412.9c0-10,0-20,0-30c0-1.9-0.2-3.6,2.7-3.5c13.3,0.5,26.7-1.1,39.9,1.1c14,2.3,25.2,8.6,29.2,23.5
		c4.2,15.8-2.5,30.3-17.1,37.6c-7.3,3.7-15.1,5.1-23.1,5.3c-9.3,0.2-18.6-0.1-28,0.1c-2.9,0.1-3.6-0.9-3.6-3.7
		C45.8,433.2,45.7,423,45.7,412.9z"/>
</g>
</svg>
