<?xml version="1.0" encoding="utf-8"?>
<!-- Generator: Adobe Illustrator 18.1.1, SVG Export Plug-In . SVG Version: 6.00 Build 0)  -->
<!DOCTYPE svg PUBLIC "-//W3C//DTD SVG 1.1//EN" "http://www.w3.org/Graphics/SVG/1.1/DTD/svg11.dtd">
<svg version="1.1"
	 id="Layer_1" xmlns:rdf="http://www.w3.org/1999/02/22-rdf-syntax-ns#" xmlns:cc="http://creativecommons.org/ns#" xmlns:dc="http://purl.org/dc/elements/1.1/"
	 xmlns="http://www.w3.org/2000/svg" xmlns:xlink="http://www.w3.org/1999/xlink" x="0px" y="0px" viewBox="-94 -4 800 800"
	 enable-background="new -94 -4 800 800" xml:space="preserve">
<g>
	<defs>
		<polyline id="SVGID_1_" points="612.3,108.7 612.3,683.3 -0.3,683.3 -0.3,113.2 		"/>
	</defs>
	<clipPath id="SVGID_2_">
		<use xlink:href="#SVGID_1_"  overflow="visible"/>
	</clipPath>
	<path clip-path="url(#SVGID_2_)" fill="#003087" d="M492.5,162.2c-25.8-28.9-71.5-41-130.7-41H191.5c-12.2,0-22.8,9.1-24.3,21.3
		L95.7,593.9c-1.5,9.1,6.1,16.7,15.2,16.7h104.9l25.8-167.2l-1.5,4.6c1.5-12.2,12.2-21.3,24.3-21.3h50.2
		c98.8,0,174.8-39.5,197.6-155.1c0-3,1.5-6.1,1.5-10.6C522.9,216.9,515.3,188,492.5,162.2"/>
	<path clip-path="url(#SVGID_2_)" fill="#003087" d="M492.5,162.2c-25.8-28.9-71.5-41-130.7-41H191.5c-12.2,0-22.8,9.1-24.3,21.3
		L95.7,593.9c-1.5,9.1,6.1,16.7,15.2,16.7h104.9l25.8-167.2l-1.5,4.6c1.5-12.2,12.2-21.3,24.3-21.3h50.2
		c98.8,0,174.8-39.5,197.6-155.1c0-3,1.5-6.1,1.5-10.6C522.9,216.9,515.3,188,492.5,162.2"/>
	<path clip-path="url(#SVGID_2_)" fill="#003087" d="M271,260.9c1.5-7.6,6.1-13.7,12.2-15.2c3-1.5,6.1-3,9.1-3h133.8
		c15.2,0,30.4,1.5,44.1,3c4.6,0,7.6,1.5,10.6,1.5c3,1.5,7.6,1.5,10.6,3c1.5,0,3,1.5,4.6,1.5c6.1,1.5,12.2,4.6,18.2,7.6
		c6.1-42.6,0-71.5-22.8-98.8c-24.3-27.4-69.9-39.5-129.2-39.5H192c-12.2,0-22.8,9.1-24.3,21.3L96.2,593.9
		c-1.5,9.1,6.1,16.7,15.2,16.7h104.9l25.8-167.2C242.1,441.8,271,260.9,271,260.9z"/>
	<path clip-path="url(#SVGID_2_)" fill="#009CDE" d="M515.7,260.3L515.7,260.3c0,3-1.5,6.1-1.5,10.6
		c-22.8,115.5-100.3,155.1-197.6,155.1h-50.2c-12.2,0-22.8,9.1-24.3,21.3L216.2,610l-7.6,45.6c-1.5,7.6,4.6,15.2,12.2,15.2h88.2
		c10.6,0,19.8-7.6,21.3-18.2l1.5-4.6l16.7-106.4l1.5-6.1c1.5-10.6,10.6-18.2,21.3-18.2h13.7c86.7,0,153.6-35,173.3-136.8
		c7.6-41,3-76-18.2-101.9C533.9,271,524.8,264.9,515.7,260.3"/>
	<path clip-path="url(#SVGID_2_)" fill="#012169" d="M492.1,251c-3-1.5-7.6-1.5-10.6-3c-3-1.5-7.6-1.5-10.6-1.5
		c-13.7-1.5-28.9-3-44.1-3H293c-3,0-6.1,0-9.1,1.5c-6.1,3-10.6,9.1-12.2,15.2L242.8,441l-1.5,4.6c1.5-12.2,12.2-21.3,24.3-21.3h50.2
		c98.8,0,174.8-39.5,197.6-155.1c0-3,1.5-6.1,1.5-10.6c-4.6-1.5-10.6-4.6-18.2-6.1C495.2,252.5,493.6,251,492.1,251"/>
</g>
</svg>
