<?xml version="1.0" encoding="utf-8"?>
<!-- Generator: Adobe Illustrator 18.1.1, SVG Export Plug-In . SVG Version: 6.00 Build 0)  -->
<!DOCTYPE svg PUBLIC "-//W3C//DTD SVG 1.1//EN" "http://www.w3.org/Graphics/SVG/1.1/DTD/svg11.dtd">
<svg version="1.1" id="Layer_1" xmlns="http://www.w3.org/2000/svg" xmlns:xlink="http://www.w3.org/1999/xlink" x="0px" y="0px"
	 viewBox="694 -604 2000 2000" enable-background="new 694 -604 2000 2000" xml:space="preserve">
<g id="surface1">
	<path fill="#579BD3" d="M2584.9,395.3c0.5,489.7-397.8,891.2-884.4,891.5c-496.2,0.4-897.2-395.6-897.4-886.2
		c-0.3-495.2,396.6-895.3,888.3-895.5C2185.8-495,2584.4-97.9,2584.9,395.3z M1732.6,309.1c0,140.9,0.2,281.8-0.3,422.7
		c0,13.6,1.9,19.2,17.7,19c74.4-1,148.7,0.1,223.1-0.7c196-2.1,352.9-162.8,350.5-358.3c-2.5-202.8-169-359.3-373.3-351.4
		c-11.2,0.4-14.7,3.6-14.3,14.6c0.7,22.2,0.2,44.4,0.2,66.5c0,42.5,0,42.5,41.6,44.3c112.7,4.8,208.3,91.8,219.3,199.5
		c12.2,119.9-58.4,223.4-171.8,252.8c-40.6,10.5-81.7,6.1-122.6,6.8c-45.4,0.7-45.4,0.2-45.4-45.3c0-230.3-0.2-460.6,0.4-690.9
		c0-16.3-3.9-21.1-20.3-20.3c-28.6,1.4-57.4,1.4-86.1,0c-16-0.8-19.2,4.7-19.1,19.7C1732.8,28.6,1732.6,168.8,1732.6,309.1z
		 M1653.5,481.6c0-140.9-0.2-281.8,0.3-422.7c0.1-14.2-3-18.7-18.1-18.6c-77.6,0.9-155.3-0.9-232.9,1
		c-193,4.7-349.9,175.2-340.3,368.2c9.9,199.1,175.5,349.7,374.5,341.1c10.5-0.4,13.2-3.5,12.9-13.4c-0.6-25.4-0.2-50.9-0.2-76.3
		c0-35.4,0-35.4-35.3-35.7c-118.8-1-215.7-92.3-226.7-213.7c-10.1-111.5,71.2-218.7,183-241.1c43.9-8.8,88.5-2.6,132.7-5.3
		c20.2-1.2,25.7,4.5,25.6,25.2c-0.8,236.8-0.3,473.6-0.8,710.5c0,16.2,2.4,23.3,20.9,22c27.9-1.9,56.1-1.5,84.1-0.1
		c16.2,0.8,20.6-3.8,20.5-20.2C1653.2,762.2,1653.5,621.9,1653.5,481.6z"/>
</g>
</svg>
