<?xml version="1.0" encoding="UTF-8"?>
<svg xmlns="http://www.w3.org/2000/svg" xmlns:xlink="http://www.w3.org/1999/xlink" width="2000pt" height="2000pt" viewBox="0 0 2000 2000" version="1.1">
<g id="surface1">
<path style=" stroke:none;fill-rule:evenodd;fill:rgb(25.098039%,52.54902%,80.392157%);fill-opacity:1;" d="M 2000 1000 C 2000 1552.285156 1552.285156 2000 1000 2000 C 447.714844 2000 0 1552.285156 0 1000 C 0 447.714844 447.714844 0 1000 0 C 1552.285156 0 2000 447.714844 2000 1000 Z M 2000 1000 "/>
<path style=" stroke:none;fill-rule:evenodd;fill:rgb(100%,100%,100%);fill-opacity:1;" d="M 1307.882812 545.285156 C 1301.535156 541.171875 1300.238281 537.363281 1293.6875 533.914062 C 1286.527344 529.800781 1279.125 526.03125 1271.730469 522.230469 L 1271.730469 956.6875 C 1271.777344 995.582031 1255.414062 1036.613281 1231.8125 1075.941406 L 1229.75 1079.402344 C 1161.449219 1193.164062 1017.75 1259.484375 882.972656 1212.574219 C 752.082031 1167.019531 717.132812 1036.4375 786.445312 920.929688 L 788.539062 917.453125 C 856.769531 803.738281 950.40625 706.382812 1154.855469 772.230469 L 1154.855469 481.613281 C 1106.621094 468.164062 1064.921875 461.539062 1011.003906 461.539062 C 699.054688 461.539062 467.460938 702.074219 467.460938 998.421875 L 467.460938 1002.28125 C 467.460938 1298.628906 697.183594 1535.308594 1007.261719 1535.308594 C 1319.179688 1535.308594 1550.808594 1294.785156 1550.808594 998.421875 L 1550.808594 994.574219 C 1550.808594 971.476562 1549.253906 948.8125 1546.539062 926.523438 C 1709 882.898438 1775.996094 709.683594 1698.71875 703.46875 C 1552.636719 707.847656 1376.246094 589.757812 1307.882812 545.285156 Z M 1307.882812 545.285156 "/>
</g>
</svg>
