<?xml version="1.0" encoding="utf-8"?>
<!-- Generator: Adobe Illustrator 18.1.1, SVG Export Plug-In . SVG Version: 6.00 Build 0)  -->
<!DOCTYPE svg PUBLIC "-//W3C//DTD SVG 1.1//EN" "http://www.w3.org/Graphics/SVG/1.1/DTD/svg11.dtd">
<svg version="1.1" id="Layer_1" xmlns="http://www.w3.org/2000/svg" xmlns:xlink="http://www.w3.org/1999/xlink" x="0px" y="0px"
	 viewBox="694 -604 2000 2000" enable-background="new 694 -604 2000 2000" xml:space="preserve">
<g id="surface1">
	<path fill="#710004" stroke="#710004" d="M2175.2,621.2c-323.3-208.2-637.4-209.9-957.8-3.5c-4.1-19.7-8.7-36.4-9.8-53.2
		c-5.2-54.9-2.9-111.6-15.6-164.8c-11.6-48.6-29.5-101.2-61.3-137.1c-33.5-35.3-37.6-65.9-27.8-107.6
		c94.3-393.8,550-586.4,898.2-378.8c155.6,92.5,254.5,226.1,285.1,406c3.5,20.8-4.6,52-19.7,66.5c-46.8,45.1-68.2,98.9-72.9,161.9
		C2188.5,477.8,2182.2,545.5,2175.2,621.2z"/>
	<path fill="#710004" stroke="#710004" d="M1691.1,926.6c-124.9,0-250.4-3.5-375.4,1.7c-57.3,2.3-75.2-18.5-76.3-71.1
		c-0.6-36.4-3.5-74.6-13.3-109.3c-17.4-61.3,9.3-96.6,58.4-125.5c163.1-96,340.1-114.5,522.8-94.8
		c114.5,12.7,223.8,43.4,318.7,113.3c28.3,20.8,42.2,42.2,36.4,78.6c-8.1,52.6-13.3,105.8-17.4,159c-2.9,37.6-20.2,49.2-56.7,48.6
		C1956,926,1823.6,926.6,1691.1,926.6z"/>
	<path fill="#710004" stroke="#710004" d="M2153.8,1015c21.4-196,40.5-392.1,64.2-588.1c14.5-122.6,122-218,240.6-219.2
		c114.5-1.2,209.9,81,229.6,198.9c17.9,109.3-50.9,217.4-168.3,252.1c-44.5,13.3-67.1,36.4-83.3,76.9
		c-28.9,73.4-62.5,145.7-92.5,218.6c-9.8,23.7-21.4,49.2-21.4,73.4c-0.6,69.4-5.8,74-113.9,72.3
		C2145.2,1098.9,2149.8,1057.2,2153.8,1015z"/>
	<path fill="#710004" stroke="#710004" d="M1234.2,1037.6c-4,9.8-11.6,49.7-25.4,52.6c-41.6,8.1-86.2,1.7-129.6-1.2
		c-4.6-0.6-8.7-18.5-12.1-28.9c-45.1-121.4-88.5-244-137.7-364.3c-6.9-17.3-39.9-27.2-63-35.3c-104.7-37-168.9-119.7-169.5-220.9
		c-0.6-98.9,62.5-187.9,155.6-219.2c139.4-46.8,293.8,47.4,315.2,201.8C1194.3,620.1,1211.1,820.1,1234.2,1037.6z"/>
</g>
</svg>
