<?xml version="1.0" encoding="utf-8"?>
<!-- Generator: Adobe Illustrator 18.1.1, SVG Export Plug-In . SVG Version: 6.00 Build 0)  -->
<!DOCTYPE svg PUBLIC "-//W3C//DTD SVG 1.1//EN" "http://www.w3.org/Graphics/SVG/1.1/DTD/svg11.dtd">
<svg version="1.1" id="Layer_1" xmlns="http://www.w3.org/2000/svg" xmlns:xlink="http://www.w3.org/1999/xlink" x="0px" y="0px"
	 viewBox="694 -604 2000 2000" enable-background="new 694 -604 2000 2000" xml:space="preserve">
<g id="surface1">
	<path fill="#E22121" d="M751.9,1338.1c0-628.1,0-1256.1,0-1884.1c628,0,1256.1,0,1884.1,0c0,628.1,0,1256.1,0,1884.1
		C2008,1338.1,1380,1338.1,751.9,1338.1z M1687.9-266.8c-61.7,20.8-129.6,31.6-183.6,65c-69.4,42.9-131.9,99.8-188.1,159.4
		c-18.5,19.6-22.2,74.6-8.1,99.5c44.1,78,43.8,147.1-1.9,223.7c-13.1,21.9-10.5,65.4,2.9,88.6c43.2,74.8,42,142.2-0.7,217.1
		c-13.7,24.1-11.2,69.4,2.6,95c39.1,72.8,37.7,137.1,0.2,211c-14.6,28.7-7.4,85.5,13.1,109.9c17.5,20.8,77.3,29.4,103,15.3
		c78.1-42.9,147.2-43.4,224.2,0c23,13,66.1,13.3,88.6,0c74.5-44,140.9-42,217.4-2.1c27.8,14.5,85.6,4.9,109.2-16.4
		c20.2-18.2,26.2-77,12-103.6c-40.7-75.8-43-142.6,0.2-217.3c13.4-23.1,15.6-66.6,2.6-88.7c-45.3-76.7-46.9-146.4-1-223.5
		c13.3-22.3,12.7-66-0.7-88.6c-43.7-74.4-45.8-142.9,0.1-216.2c28.9-46.1,17.1-88.6-24.8-123.5c-29.6-24.6-59.4-49.2-86.7-76.3
		C1891.8-214.7,1801-255.8,1687.9-266.8z"/>
	<path fill="#FFFFFF" d="M1687.9-266.8c113.1,11,203.9,52.1,280.6,128.3c27.3,27.1,57.1,51.7,86.7,76.3
		c41.9,34.9,53.6,77.4,24.8,123.5c-45.9,73.4-43.8,141.8-0.1,216.2c13.3,22.7,13.9,66.3,0.7,88.6c-46,77.1-44.4,146.8,1,223.5
		c13.1,22.1,10.8,65.5-2.6,88.7c-43.3,74.7-40.9,141.5-0.2,217.3c14.3,26.6,8.2,85.5-12,103.6c-23.6,21.3-81.4,30.9-109.2,16.4
		c-76.5-39.9-142.9-41.9-217.4,2.1c-22.5,13.3-65.6,12.9-88.6,0c-77-43.4-146.1-43-224.2,0c-25.7,14.1-85.4,5.4-103-15.3
		c-20.6-24.3-27.7-81.1-13.1-109.9c37.5-73.9,38.9-138.2-0.2-211c-13.8-25.6-16.3-70.9-2.6-95c42.8-74.9,43.9-142.3,0.7-217.1
		c-13.4-23.2-16-66.7-2.9-88.6c45.6-76.7,46-145.7,1.9-223.8c-14.1-24.9-10.4-79.9,8.1-99.5c56.2-59.6,118.7-116.5,188.1-159.4
		C1558.3-235.2,1626.2-246,1687.9-266.8z M1647,168.3c0-106.7-1.2-108-106.6-108c-105.6,0-108.4,2.8-108.4,107.1
		c0,105.3,2.7,105.5,107.6,108.7C1634.4,278.9,1653.1,262,1647,168.3z M1843.3,275.4c109.2,0.3,112.5-2.7,112.8-101.8
		c0.3-110.1-2.3-113-101.3-113.3c-108-0.2-113.5,4.7-113.8,101.8C1740.7,270.3,1745.1,275.1,1843.3,275.4z M1647,482.4
		c7.4-110.8-23.7-115.4-101.6-113.6c-110.9,2.5-113.2,2.6-113.4,102.8c-0.2,110,2.3,110,102.6,113.7
		C1643.7,589.2,1652.4,562,1647,482.4z M1956.1,476.3c0-104.1-2.9-106.9-107.7-106.9c-101.9,0.1-104.4,5.6-108.2,108.1
		c-3.3,88.5,18.7,111.1,109.6,107.8C1953,581.6,1956.1,581.4,1956.1,476.3z M1544.6,678.6c-109.6-0.2-112.5,2.4-112.6,102.9
		c-0.2,109.6,2,109.3,103.4,112.9c108.3,3.9,114.3-22.8,112.4-103.6C1645.1,679.5,1646.5,678.7,1544.6,678.6z M1849.7,678.6
		c-90.9-7.5-112.9,18.6-109.6,106.9c3.8,102.6,6.3,105.4,108.2,108.9c93.1,3.2,111.5-17.4,108.5-107.7
		C1953.5,681.7,1953.1,678.6,1849.7,678.6z M1474.4-44.8c2.4,8.2,4.8,16.5,7.2,24.7c57.9-16.1,115.2-34.6,173.8-47.2
		c26.7-5.8,56.8-4.4,83.9,1.2c57,11.8,113.1,28.5,169.5,43.2C1802.2-198.1,1587.6-198.3,1474.4-44.8z"/>
	<path fill="#E22121" d="M1647,168.3c6.2,93.7-12.6,110.7-107.5,107.8c-104.9-3.2-107.6-3.4-107.6-108.7
		c0-104.3,2.9-107.1,108.4-107.1C1645.8,60.3,1647,61.6,1647,168.3z"/>
	<path fill="#E22121" d="M1843.3,275.4c-98.2-0.3-102.6-5.1-102.3-113.3c0.3-97.1,5.8-102,113.8-101.8c99,0.2,101.5,3.1,101.3,113.3
		C1955.9,272.7,1952.5,275.7,1843.3,275.4z"/>
	<path fill="#E22121" d="M1647,482.4c5.4,79.7-3.3,106.8-112.5,102.8c-100.2-3.7-102.8-3.7-102.6-113.7
		c0.2-100.2,2.6-100.3,113.4-102.8C1623.3,367,1654.3,371.6,1647,482.4z"/>
	<path fill="#E22121" d="M1956.1,476.3c0,105.1-3.1,105.3-106.3,109.1c-90.9,3.3-112.9-19.3-109.6-107.8
		c3.8-102.5,6.3-108.1,108.2-108.1C1953.1,369.4,1956.1,372.2,1956.1,476.3z"/>
	<path fill="#E22121" d="M1544.6,678.6c101.9,0.1,100.5,0.9,103.1,112.1c1.9,80.8-4.1,107.5-112.4,103.6
		c-101.3-3.6-103.6-3.2-103.4-112.9C1432.1,681,1434.9,678.4,1544.6,678.6z"/>
	<path fill="#E22121" d="M1849.7,678.6c103.4,0,103.7,3.2,107.1,108.2c2.9,90.2-15.4,110.9-108.5,107.7
		c-101.9-3.5-104.4-6.3-108.2-108.9C1736.9,697.1,1758.8,671.1,1849.7,678.6z"/>
	<path fill="#E22121" d="M1474.4-44.8c113.2-153.5,327.8-153.3,434.4,21.9c-56.4-14.7-112.5-31.4-169.5-43.2
		c-27-5.6-57.1-7-83.9-1.2c-58.6,12.7-115.9,31.1-173.8,47.2C1479.2-28.4,1476.8-36.6,1474.4-44.8z"/>
</g>
</svg>
