<?xml version="1.0" encoding="utf-8"?>
<!-- Generator: Adobe Illustrator 18.1.1, SVG Export Plug-In . SVG Version: 6.00 Build 0)  -->
<svg version="1.1" id="Layer_1" xmlns="http://www.w3.org/2000/svg" xmlns:xlink="http://www.w3.org/1999/xlink" x="0px" y="0px"
	 viewBox="0 0 175 175.1" enable-background="new 0 0 175 175.1" xml:space="preserve">
<g>
	<path fill="#292626" d="M43.4,167.9c-0.8-0.4-1.9-0.7-2.9-1.3c-4.6-3.1-9-6.3-13.6-9.3c-2.9-1.9-3.3-4.1-1.5-7.2
		c5.5-9.4,5.7-19.5,4.2-30c-0.8-5.9-2-11.7-4.2-17.2c-1-2.4,0.7-3.4,2-4.5c8.3-7.3,16.2-15.2,25.1-21.7c7.4-5.5,11.5-13.2,16.6-20.2
		C80.4,40.7,91.5,24.8,102.7,9c2.7-3.8,5.7-3.7,9.3-1.1c13.5,9.5,27.1,18.8,40.7,28.1c6,4.1,6.2,5,1.9,11
		c-12.1,17.1-24,34.4-36.6,51.1c-7.7,10.2-11.3,22.1-16.1,33.5c-1.7,4-3.5,7.9-4.7,12c-1.1,4-3.5,4.9-7.3,5.2
		c-13,1-25.7,3.3-36.7,11.1c-2.1,1.5-3.8,3.2-5.3,5.2C46.8,166.7,45.6,167.7,43.4,167.9z M62.6,129.9c-1.8-0.9-3.1-0.4-4.4,1.5
		c-5.4,7.8-10.9,15.5-16.4,23.2c-0.8,1.1-1.9,2-0.4,3.4c1.5,1.4,2.6,0.6,3.8-0.6c4.9-4.7,10.7-7.8,17-10.3
		c7.8-3.1,15.9-4.6,24.1-5.5c2.8-0.3,4.3-1.3,5.3-4.1c3.2-8.9,6.7-17.7,10.3-26.5c0.9-2.3,0.8-3.7-1.5-5.3
		c-12.1-8.2-24.1-16.4-35.9-24.8c-2.3-1.6-3.6-1.3-5.5,0.3c-7.3,6.4-14.6,12.7-22.1,18.8c-2.3,1.8-2.7,3.5-2,6.3
		c3.9,14.7,5.2,29.4-1,43.9c-0.6,1.5-0.4,2.5,1,3.3c1.9,1.1,2.3-0.8,2.9-1.7c5.1-7.1,10-14.3,15.2-21.3c1.8-2.4,2.6-4.3,0.9-7.4
		c-2.3-4.2,0.6-8.6,5.4-8.8c4.6-0.2,8.1,2,10.1,6C72.3,125.5,68.6,130.4,62.6,129.9z M142,43.5c-0.1-1.8-1.3-2.9-2.7-3.9
		c-8.9-6.1-17.8-12.3-26.7-18.4c-3.2-2.2-5.7-1.8-8,1.5c-6.5,9.4-13.2,18.8-20,28.1c-1.8,2.4-2.9,4.9,0.1,6.9
		c2.7,1.8,4.9,0.4,6.6-2.2c5.1-7.4,10.6-14.5,15.5-22c2.2-3.4,3.8-4,7.2-1.4c6.6,5,13.6,9.5,20.5,14.3c1.8,1.2,3.6,1.9,5.5,0.6
		C141.3,46.1,142,45,142,43.5z M112.3,92.8c-0.2-1.8-1.8-2.3-2.9-3.1C98.8,83,89.2,75,78.3,68.6c-5.9-3.4-5.4-3.7-9.5,1.6
		c-2.1,2.8-1.4,4,1.1,5.7c10.7,7.2,21.3,14.6,32.1,21.7c1.6,1,3.2,4.9,6,1.3C109.5,96.9,110.9,94.9,112.3,92.8z"/>
	<path fill="#FADB3E" d="M62.6,129.9c6,0.5,9.7-4.4,7-9.6c-2-4-5.6-6.2-10.1-6c-4.8,0.2-7.7,4.6-5.4,8.8c1.7,3.1,0.9,5-0.9,7.4
		c-5.2,7-10.1,14.2-15.2,21.3c-0.7,0.9-1,2.8-2.9,1.7c-1.4-0.8-1.6-1.8-1-3.3c6.1-14.5,4.9-29.2,1-43.9c-0.8-2.8-0.3-4.4,2-6.3
		c7.5-6.1,14.8-12.4,22.1-18.8c1.9-1.7,3.2-1.9,5.5-0.3c11.9,8.4,23.9,16.7,35.9,24.8c2.3,1.5,2.4,2.9,1.5,5.3
		c-3.5,8.8-7.1,17.6-10.3,26.5c-1,2.8-2.5,3.8-5.3,4.1c-8.2,0.9-16.3,2.4-24.1,5.5c-6.2,2.5-12.1,5.6-17,10.3
		c-1.2,1.2-2.2,1.9-3.8,0.6c-1.5-1.4-0.4-2.3,0.4-3.4c5.5-7.7,11-15.4,16.4-23.2C59.5,129.5,60.8,129,62.6,129.9z"/>
	<path fill="#FCFCFC" d="M142,43.5c0,1.4-0.7,2.6-1.9,3.4c-2,1.2-3.8,0.6-5.5-0.6c-6.8-4.7-13.9-9.2-20.5-14.3
		c-3.4-2.6-5-1.9-7.2,1.4c-5,7.5-10.4,14.6-15.5,22c-1.8,2.6-4,4-6.6,2.2c-2.9-1.9-1.8-4.4-0.1-6.9c6.7-9.3,13.4-18.6,20-28.1
		c2.3-3.3,4.8-3.7,8-1.5c8.9,6.1,17.8,12.3,26.7,18.4C140.7,40.6,141.9,41.7,142,43.5z"/>
	<path fill="#FADB3E" d="M112.3,92.8c-1.4,2-2.8,4.1-4.3,6.1c-2.7,3.6-4.4-0.3-6-1.3c-10.8-7.1-21.4-14.5-32.1-21.7
		c-2.6-1.7-3.2-2.9-1.1-5.7c4.1-5.3,3.6-5,9.5-1.6C89.2,75,98.8,83,109.4,89.7C110.5,90.5,112.2,91,112.3,92.8z"/>
</g>
</svg>
