<?xml version="1.0" encoding="utf-8"?>
<!-- Generator: Adobe Illustrator 18.1.1, SVG Export Plug-In . SVG Version: 6.00 Build 0)  -->
<!DOCTYPE svg PUBLIC "-//W3C//DTD SVG 1.1//EN" "http://www.w3.org/Graphics/SVG/1.1/DTD/svg11.dtd">
<svg version="1.1" id="Layer_1" xmlns="http://www.w3.org/2000/svg" xmlns:xlink="http://www.w3.org/1999/xlink" x="0px" y="0px"
	 viewBox="694 -604 2000 2000" enable-background="new 694 -604 2000 2000" xml:space="preserve">
<g id="surface2">
	<path fill="none" stroke="#33BAD6" stroke-width="2" stroke-miterlimit="10" d="M885.7,240.2c0,0-87-258.8,84.8-421.3
		c146.6-138.7,361.4-178.6,553.2,36.6c0,0,162.8-130.5,298.9-105.3c137.5,25.5,187.3,87,249.8,178.6c0,0,501.2-140.4,584.4,332.8
		c60.2,342.3-365.8,564.8-499.6,482.4c0,0-71.4,109.9-142.8,132.8c-71.4,22.9-165.2,50.3-245.5,0c0,0-89.1,215.2-325.6,210.6
		c-236.5-4.6-298.9-174-334.6-219.8c0,0-227.1,51.6-352.4-196.9C658.2,476.1,818.8,267.7,885.7,240.2z"/>
	<path fill="#33BAD6" d="M907,492.5c-2.5-1.5-2.5-4.5-3-7l-8.6-47.9c-0.5-2.5,1-3.6,3-4l6.6-1.5c2-0.5,3.5,0.5,4.5,3l12.6,24.7
		c10.1,18.6,17.1,31.2,43.8,31.2c17.6,0,39.8-10.6,39.8-34.3c0-22.7-11.1-35.8-48.9-46.4c-29.7-8.5-59.4-24.1-59.4-63.9
		c0-34.8,32.7-61.5,70.5-61.5c24.2,0,37.3,6.1,46.3,10.6c7.5,3.6,8.6,6.1,9.1,9.1l7.5,35.3c0,2.1-1,3.5-3.5,4.6l-6,2
		c-2,0.5-3,0-4.5-2.5l-17.1-23.2c-6-9.6-15.6-19.6-35.3-19.6c-19.1,0-38.8,11.6-38.8,33.2c0,29.2,23.7,34.8,48.4,41.8
		c36.8,10.6,59.9,25.7,60.4,64.5c-0.5,40.8-33.7,66.5-76.6,66.5C933.2,507.1,913.1,497,907,492.5z"/>
	<path fill="#33BAD6" d="M1213.8,478.9c8.1,0,15.1-4.1,17.6-7.6c2-2.5,3-3.5,5-2l5,4c1.5,1.5,2.5,4-0.5,9.1
		c-4,7.6-13.6,24.7-39.3,24.7c-18.1,0-31.2-13.1-35.8-33.8h-1c-10.6,12.6-27.2,23.2-49.9,30.7c-9.6,3-18.6,3-29.7,3
		c-12.1,0-30.2-10.1-30.2-41.8c0-23.2,10.6-43.4,50.4-61c22.7-10.1,48.9-22.1,56.9-29.2v-32.2c-1-8.6-1.5-21.7-7.1-28.2
		c-5.5-6.6-15.6-11.1-30.2-11.1c-10.1,0-25.7,4-32.7,10.6c-7.1,6.5-2.5,14.1-2.5,23.1c0,17.6-6,28.7-26.7,28.7
		c-8.1,0-12.1-4.5-12.1-16.1c0-16.1,14.1-35.3,34.8-47.4c21.2-12.6,38.8-17.7,61.5-17.7c23.7,0,33.3,7.1,40.3,13.6
		c10.6,10.6,11.1,22.2,11.1,35.8v106.8C1198.7,469.8,1204.7,478.9,1213.8,478.9z M1161.9,390.2c-18.1,13.6-67.5,23.7-67.5,65.5
		c0,18.6,11.1,27.7,26.2,27.7c14.6,0,41.3-17.7,41.3-31.2V390.2z"/>
	<path fill="#33BAD6" d="M1305,347.2c0,26.2,0,102.3,0.5,117.9c0.5,8.6,2.5,15.6,13.1,15.6h22.7c4.5,0,5.5,1.5,5.5,4.5v8.6
		c0,3-1,5-3,5c-3.5,0-25.7-1.5-56.9-1.5c-32.2,0-39.3,1.5-43.9,1.5c-2.5,0-3.6-2-3.6-5l0.6-8.6c0-3.5,5.3-4.5,10.9-4.5h6.4
		c5.5,0,10.6-3.5,11.1-12.6c0.5-15.6,0.5-102.3,0.5-131.5v-31.7c0-35.8-0.5-81.6-1.5-94.7c-1-17.1-9.1-25.2-25.2-30.2l-10.1-3.5
		c-2.5-1-3-1.5-3-2.5v-4c0-1.5,1.5-2.5,4.5-3.5c17.6-8.1,40.3-17.1,58.9-29.2c4.5-3,7.5-4,10.6-4c3.5,0,4.5,2.5,4,9.1
		c-0.5,27.7-2,132.5-2,160.2L1305,347.2L1305,347.2z"/>
	<path fill="#33BAD6" d="M1383,367c-1,4.5-1.5,12.6-1.5,24.2c0,49.4,31.2,86.6,71.5,86.6c30.7,0,52.4-17.6,61-34.2c1-2,3-3,4.5-2.5
		l6.6,3.5c1.5,0.5,2.5,2,0,7.6c-9.1,20.1-35.3,54.9-80.1,54.9c-28.7,0-60.5-8.6-79.1-35.8c-17.6-25.7-22.2-44.3-22.2-79.6
		c0-19.6,5-53.4,31.7-80.1c21.7-22.2,46.9-26.7,72-26.7c57.9,0,74,54.4,74,74.1c0,7.1-6,8-14.1,8H1383z M1463.1,351.9
		c9.6,0,13.6-2.5,13.6-7c0-11.6-6-44.8-38.8-44.8c-22.2,0-43.3,14.6-52.9,51.9H1463.1z"/>
	<path fill="#33BAD6" d="M1548.3,492.5c-2.5-1.5-2.5-4.5-3-7l-8.6-47.9c-0.5-2.5,1-3.6,3-4l6.6-1.5c2-0.5,3.5,0.5,4.5,3l12.6,24.7
		c10.1,18.6,17.1,31.2,43.8,31.2c17.6,0,39.8-10.6,39.8-34.3c0-22.7-11.1-35.8-48.9-46.4c-29.7-8.5-59.4-24.1-59.4-63.9
		c0-34.8,32.7-61.5,70.5-61.5c24.2,0,37.3,6.1,46.3,10.6c7.6,3.6,8.6,6.1,9.1,9.1l7.6,35.3c0,2.1-1,3.5-3.5,4.6l-6,2
		c-2,0.5-3,0-4.5-2.5l-17.1-23.2c-6-9.6-15.6-19.6-35.3-19.6c-19.2,0-38.8,11.6-38.8,33.2c0,29.2,23.7,34.8,48.4,41.8
		c36.8,10.6,59.9,25.7,60.4,64.5c-0.5,40.8-33.8,66.5-76.6,66.5C1574.5,507.1,1554.3,497,1548.3,492.5z"/>
	<path fill="#33BAD6" d="M1852.8,472.3c-23.2-27.7-27.7-46.3-27.7-82.1c0-25.7,13.6-57.9,43.3-81.1c26.2-20.1,50.9-24.2,67.5-24.2
		c27.7,0,55.4,14.1,70.5,29.3c22.7,23.1,34.3,49.4,34.3,82.1c0,54.9-49.4,110.8-111.4,110.8C1905.2,507.1,1874,497.5,1852.8,472.3z
		 M1998.4,391.2c0-55.9-40.8-91.2-66.5-91.2c-13.6,0-26.7,3-38.8,16.1c-19.7,20.1-26.7,40.8-26.7,79.1c0,28.2,3,47.4,19.1,70.5
		c11.6,16.6,26.2,26.2,49.9,26.2C1973.8,492,1998.4,445.1,1998.4,391.2z"/>
	<path fill="#33BAD6" d="M2087.7,370.3c0-25.7-4-30.7-18.1-38.3l-9.6-5.1c-3-1-4-1.5-4-3.5v-3c0-2,1-3,4-4.5l49.9-25.7
		c3-1.5,5-2,7.1-2c3,0,3.5,3,3.5,6.1l2.6,35.8h2c15.1-23.2,38.8-43.8,60.4-43.8c17.1,0,25.7,10.6,25.7,22.1
		c0,14.6-12.1,24.7-21.2,24.7c-5.5,0-10.6-2-14.6-4c-4-2.5-10.1-4-16.7-4c-8,0-21.1,5.1-29.7,21.2c-3,5.5-5,14.6-5,16.1V467
		c0,15.6,3.5,20.7,14.1,20.7h23.7c3,0,3.6,1.5,3.6,4.5v9.1c0,3-0.5,4.5-2.5,4.5c-3,0-26.2-1.5-53.4-1.5c-31.2,0-52.4,1.5-55.4,1.5
		c-2,0-3.1-1-3.1-5v-8.6c0-3.5,1.1-4.5,5.6-4.5h19.6c7.5,0,11.1-3,11.1-9.6c0.5-16.6,0.5-34.2,0.5-60.4V370.3z"/>
	<path fill="#33BAD6" d="M2223.3,379.1c0,27.2,12.1,57.9,25.7,76.6c16.6,21.6,37.8,25.7,54.9,25.7c25.2,0,38.3-5.6,55.4-21.7
		c1-1,2.5-1.5,4,0l5,5c2,2,2.5,3.5,0,6.6c-14.6,16.6-46.8,35.8-81.1,35.8c-26.7,0-54.9-6.1-78.1-35.3
		c-18.7-24.7-22.7-45.8-22.7-68.5c0-58.9,41.3-118.4,107.8-118.4c52.4,0,68.5,30.3,68.5,40.8c-0.5,11.6-8.1,17.6-18.7,17.6
		c-11.6,0-20.1-6.5-27.7-20.2c-11.1-20.6-21.7-22.1-33.8-22.1C2254,301.1,2223.3,327.2,2223.3,379.1z"/>
	<path fill="#33BAD6" d="M2413.4,367c-1,4.5-1.5,12.6-1.5,24.2c0,49.4,31.2,86.6,71.5,86.6c30.7,0,52.4-17.6,60.9-34.2
		c1-2,3-3,4.6-2.5l6.5,3.5c1.5,0.5,2.5,2,0,7.6c-9.1,20.1-35.3,54.9-80.1,54.9c-28.7,0-60.4-8.6-79.1-35.8
		c-17.7-25.7-22.2-44.3-22.2-79.6c0-19.6,5-53.4,31.7-80.1c21.7-22.2,46.9-26.7,72-26.7c58,0,74.1,54.4,74.1,74.1
		c0,7.1-6.1,8-14.1,8H2413.4z M2493.5,351.9c9.6,0,13.6-2.5,13.6-7c0-11.6-6.1-44.8-38.8-44.8c-22.2,0-43.3,14.6-52.9,51.9H2493.5z"
		/>
	<path fill="#33BAD6" d="M1894.1,110.2c-43.9,0-61.3,14.4-87,45.2c-13.5,15.9-30.4,40.7-47,100.7h-49.7l-10.3,20h53.6
		c-32.7,100-62.8,209.3-62.8,209.3c-31.1,119.9-68.2,181.4-108.8,181.4c-12.8,0-36.8-9.1-33.8-17.5c6.3-17.7-4.2-31.3-21.8-31.3
		c-13.5,0-20.8,9.4-20.8,21.3c0,22.5,19.6,42.8,56.7,42.8c68.2,0,115.8-10.2,171.9-200.2l39.7-134.3l12.2-35.3
		c3.6-12.5,7.1,4,10.4-36h54.5l9.2-20h-57.9c30.4-100,48.2-120.7,65.5-128.7c20.2-9.3,39.6,2.7,41.6,9.4c4,12,14,30.3,23.3,32.5
		c17.7,4.2,25.9-2.1,25.9-14.1C1958.9,132.7,1936.7,110.2,1894.1,110.2z"/>
</g>
</svg>
