<?xml version="1.0" encoding="utf-8"?>
<!-- Generator: Adobe Illustrator 18.1.1, SVG Export Plug-In . SVG Version: 6.00 Build 0)  -->
<!DOCTYPE svg PUBLIC "-//W3C//DTD SVG 1.1//EN" "http://www.w3.org/Graphics/SVG/1.1/DTD/svg11.dtd">
<svg version="1.1" id="Layer_1" xmlns="http://www.w3.org/2000/svg" xmlns:xlink="http://www.w3.org/1999/xlink" x="0px" y="0px"
	 viewBox="0 0 612 792" enable-background="new 0 0 612 792" xml:space="preserve">
<g id="surface1">
	<path fill="#40759A" d="M103.1,149.9c-0.8-9.7,2.8-14.3,13.5-12.7c6.4,1,13.2,0,19.9-0.2c70.5,0.2,141.3,0.5,211.9,0.5
		c44.8,0,89.6-0.2,134.4-0.5c5.1,0.2,9.9,0.8,15,0.2c7.9-0.8,11.7,1.8,11,10.2c-0.2,5.6-3.8,9.2-7.6,12.7
		c-12.5,12-25.2,23.9-36.1,37.2c-35.9,36.4-66.7,76.9-93.5,120.4c-23.9,34.6-41.2,73.1-58.1,112.5c-5.1-5.6-5.6-11.2-7.6-16.3
		c-7.9-21.6-18.8-41.8-31.3-60.8c-12.7-19.3-24.9-23.2-46.9-16.3c-15,4.8-27.5,13.2-38.7,24.2c-5.9,5.6-5.1,8.1,2.3,11
		c20.1,7.6,33.4,22.2,42,41.8c19.1,44.8,39,89.4,58.6,133.9c1.8,4.3,4.1,8.6,6.9,14.8c7.4-18.1,13.5-33.9,20.1-49.4
		c15.8-36.4,30.6-73.6,48.4-109c11.5-22.9,24.4-45.3,36.1-68.2c25.5-43.5,51.9-86.6,82-127c6.9-7.9,13.5-16,20.4-23.9
		c1,0,2.3,0,3.3,0.2c0,24.9,0,49.9,0,74.6c-0.2,5.1-0.5,10.2-0.5,15.3c-0.5,77.6-0.5,155-1.5,232.7c-0.2,21.9,0,44-4.1,65.9
		c-2.3,11.2-4.3,23.2-19.6,24.4c-15.8-7.1-26.5-19.6-35.4-33.6c-7.1-11-13.2-22.7-19.1-34.4c-2.8-5.6-5.3-6.4-10.4-2.3
		C360.5,574,293.6,602.3,224.1,625c-24.9,8.1-50.4,14.5-75.6,21.6c-3.1,0.5-6.6,0-9.2,2.5c-5.3,0-10.4,1.5-15.5,3.6
		c-13.7,5.3-19.1,2-19.4-12.5c0-3.8-0.5-7.4-0.5-11.2c0.2-3.1,0.8-5.9,0.8-8.9c0-122.7-0.2-245.4-0.2-368.1c0-2.6-0.5-5.1-0.5-7.6
		C103.1,212.8,103.1,181.2,103.1,149.9z"/>
	<path fill="#99999A" d="M483.8,597.4c-47.1,10.2-95,16.3-142.6,23.4c-58.6,8.6-117.4,16.5-175.9,24.7c-5.3,0.8-11,0.5-16.5,0.8
		c25.2-7.1,50.7-13.5,75.6-21.6c69.5-22.7,136.5-50.9,194.3-97.2c5.1-4.1,7.6-3.3,10.4,2.3c6.1,11.7,12.2,23.4,19.1,34.4
		C457.3,577.8,468.2,590.3,483.8,597.4z"/>
</g>
</svg>
