<?xml version="1.0" encoding="utf-8"?>
<!-- Generator: Adobe Illustrator 18.1.1, SVG Export Plug-In . SVG Version: 6.00 Build 0)  -->
<!DOCTYPE svg PUBLIC "-//W3C//DTD SVG 1.1//EN" "http://www.w3.org/Graphics/SVG/1.1/DTD/svg11.dtd">
<svg version="1.1" id="Layer_1" xmlns="http://www.w3.org/2000/svg" xmlns:xlink="http://www.w3.org/1999/xlink" x="0px" y="0px"
	 viewBox="691 -610 2006 2006" enable-background="new 691 -610 2006 2006" xml:space="preserve">
<g id="surface1">
	<path fill="#00801E" d="M1671,618.6h-515.6v-555h246.3c-17-65.7-18.2-133.3-5.1-197h-277.3c-53.9,0-97.7,43.7-97.7,97.7v1138.6
		c0,53.9,43.7,97.7,97.7,97.7h587.9c53.9,0,97.7-43.7,97.7-97.7v-680c-40.6,18.3-87.9,34.4-133.8,47.5V618.6z M1276.4,1022.7h-121.1
		V927h121.1V1022.7z M1276.4,849.7h-121.1V754h121.1V849.7z M1473.7,1022.7h-121.1V927h121.1V1022.7z M1473.7,849.7h-121.1V754
		h121.1V849.7z M1671,1022.7h-121.1V927H1671V1022.7z M1671,849.7h-121.1V754H1671V849.7z M1935.7-408.5
		c-227.5,0-430.8,153.2-430.8,362.7c0,74.3,26.5,147.3,73.5,203.9c2,66.3-36.7,161.5-71.6,230.8c93.4-17,226.2-54.7,286.4-91.9
		c331.6,81.4,573.2-123.4,573.2-342.8C2366.4-256.4,2161.8-408.5,1935.7-408.5z M1784,38.6c-14,11.2-33.7,16.7-58.9,16.7
		c-21.6,0-40.6-4.1-57.2-12.4l9.2-36.7c16.6,8.5,33.6,12.7,50.8,12.7c9.9,0,17.6-1.9,23.2-5.6c10.7-7.2,11.3-21.9,0.8-30.2
		c-5-3.9-13.7-8-26-12.1c-37.1-12.3-55.7-31.7-55.7-58c0-17,6.8-31.1,20.5-42.1c13.7-11,31.8-16.5,54.6-16.5
		c19.8,0,37.1,3.4,52,10.1l-10.1,35.5c-13.6-6.4-27.7-9.5-42.4-9.5c-9,0-16.1,1.7-21.2,5.2c-10.1,6.9-10,19.3-1.2,26.6
		c4.3,3.6,14.6,8.3,30.8,14.1c18,6.4,31.2,14.2,39.5,23.6c8.3,9.4,12.5,21.1,12.5,35C1805.1,12.9,1798.1,27.5,1784,38.6z
		 M2008.6,52.2c-3.1-77.2-4.6-129.5-4.6-157h-0.9c-4.7,20.7-20.5,72-47.3,153.8h-34.9c-16.1-56.5-39.8-153.8-39.8-153.8h-0.6
		l-6.9,157H1832l12.4-194.5h60.6l34.3,134.2l41.6-134.2h61.3l10.4,194.5H2008.6z M2196.9,39.4c-14.2,11.3-34.2,17-59.5,17
		c-20.5,0-39.9-3.7-58.4-12.9l9.8-38.8c16.3,8.3,32.9,13.2,51.5,13.2c9.6,0,17.2-1.8,22.6-5.4c10.2-6.9,10.6-20.7,0.7-28.5
		c-4.9-3.8-13.5-7.9-25.7-11.9c-37.4-12.4-56.4-32.3-56.4-59c0-17.3,7-31.7,20.9-42.9c13.8-11.1,32.4-16.8,55.2-16.8
		c19.9,0,37.5,3.4,52.4,10.2l0.8,0.4l-10.7,37.6c-13.7-6.4-27.4-9.9-43.1-9.9c-8.8,0-15.7,1.7-20.6,5c-9.5,6.5-9.4,18-1.1,24.9
		c4.2,3.5,14.4,8.2,30.5,13.9c18.1,6.4,31.5,14.4,39.9,23.9c8.5,9.5,12.8,21.6,12.8,35.7C2218.3,13.2,2211.1,28.1,2196.9,39.4z"/>
</g>
</svg>
