<?xml version="1.0" encoding="utf-8"?>
<!-- Generator: Adobe Illustrator 18.1.1, SVG Export Plug-In . SVG Version: 6.00 Build 0)  -->
<!DOCTYPE svg PUBLIC "-//W3C//DTD SVG 1.1//EN" "http://www.w3.org/Graphics/SVG/1.1/DTD/svg11.dtd">
<svg version="1.1" id="Layer_1" xmlns="http://www.w3.org/2000/svg" xmlns:xlink="http://www.w3.org/1999/xlink" x="0px" y="0px"
	 viewBox="691 -607 2006 2006" enable-background="new 691 -607 2006 2006" xml:space="preserve">
<g id="surface1">
	<path fill="#7EB61D" d="M2694,396c0,552.1-447.7,999.7-1000,999.7S694,948.1,694,396s447.7-999.7,1000-999.7S2694-156.1,2694,396z"
		/>
	<path fill="#FFFFFF" d="M2413.4,391.9c0,397.2-322.1,719.2-719.4,719.2S974.6,789,974.6,391.9s322.1-719.2,719.4-719.2
		S2413.4-5.3,2413.4,391.9z"/>
	<path fill="#7EB61D" d="M2179.7,293.6c-10.2,0-20.5-2.6-29.9-8.2c-171.6-100.8-368-154-567.9-154c-108,0-215,15.4-318,45.7
		c-31.4,9.2-64.2-8.7-73.4-40c-9.2-31.3,8.7-64.2,40-73.4c113.8-33.5,232-50.5,351.4-50.5c221,0,438.1,58.9,627.8,170.3
		c28.2,16.5,37.6,52.8,21,80.9C2219.8,283.1,2200,293.6,2179.7,293.6z"/>
	<path fill="#7EB61D" d="M2082.5,507.7c-9.6,0-19.4-2.6-28.1-8.1c-141.5-88.4-304.9-135.2-472.4-135.2
		c-93.1,0-184.9,14.3-272.9,42.5c-28,9-57.9-6.4-66.9-34.4c-9-28,6.4-57.9,34.4-66.9c98.5-31.6,201.3-47.6,305.5-47.6
		c187.5,0,370.4,52.3,528.8,151.3c24.9,15.6,32.5,48.4,16.9,73.3C2117.5,498.9,2100.2,507.7,2082.5,507.7z"/>
	<path fill="#7EB61D" d="M1985.5,721.1c-9.3,0-18.7-2.7-26.9-8.4c-111.1-77-241.4-117.7-376.7-117.7c-78.3,0-154.9,13.5-227.8,40.2
		c-24.5,9-51.7-3.6-60.7-28.1c-9-24.5,3.6-51.7,28.1-60.7c83.3-30.5,170.8-46,260.3-46c154.7,0,303.7,46.5,430.6,134.6
		c21.5,14.9,26.8,44.3,11.9,65.8C2015.3,714,2000.5,721.1,1985.5,721.1z"/>
	<path fill="#7EB61D" d="M1947.1,860.8c-99.8-92-229.5-142.7-365.2-142.7c-85.4,0-167.3,19.6-243.3,58.1
		c-64.8,32.8-121.4,77.7-168.3,133.2c12.7,13.6,25.8,26.7,39.5,39.3l53.5,44.4c33.8,25.3,70,47.6,108,66.6
		c23.2-24.7,50.1-45,80.4-60.4c40.7-20.6,84.5-31,130.2-31c72.7,0,142.1,27.1,195.6,76.4c23.4,21.6,42.8,46.6,58,74.5
		c41.9-8.9,82.5-21.4,121.3-37.3l63.6-29.8c16.3-8.6,32.1-17.9,47.6-27.7C2038.2,962.5,1997.7,907.4,1947.1,860.8z"/>
</g>
</svg>
