<?xml version="1.0" encoding="utf-8"?>
<!-- Generator: Adobe Illustrator 18.1.1, SVG Export Plug-In . SVG Version: 6.00 Build 0)  -->
<!DOCTYPE svg PUBLIC "-//W3C//DTD SVG 1.1//EN" "http://www.w3.org/Graphics/SVG/1.1/DTD/svg11.dtd">
<svg version="1.1" id="Layer_1" xmlns="http://www.w3.org/2000/svg" xmlns:xlink="http://www.w3.org/1999/xlink" x="0px" y="0px"
	 viewBox="0 0 612 792" enable-background="new 0 0 612 792" xml:space="preserve">
<g id="surface1">
	<path d="M55.1,419.7c0,7.4-2.6,13.2-7.7,17.9c-5.2,4.6-12,6.8-20.3,6.8c-9.9,0-19-1.3-27.1-4l2.2-6.8c4.8,1.8,9,2.9,12.5,3.7
		s7.6,0.9,12.2,0.9c6.3,0,11.4-1.7,15.3-5.2c3.9-3.3,5.9-7.7,5.9-13.1c0-4-0.7-7.2-2.2-9.6c-1.5-2.4-3.7-4.8-7-7.2
		c-3.3-2.2-7.7-4.6-13.6-7c-8.3-3.5-14.4-7.4-17.9-11.6c-3.7-4.4-5.5-9.8-5.5-16.2c0-6.3,2.2-11.2,6.8-14.9c4.6-4,10.7-5.9,18.5-5.9
		c3.9,0,7.6,0.2,10.9,0.7c3.3,0.6,7.2,1.5,11.6,2.9l-2,6.5c-7.4-2.8-14.4-4-20.7-4c-5.9,0-10.3,1.3-13.5,4
		c-3.1,2.8-4.6,6.5-4.6,10.9c0,3.7,0.7,6.8,2.2,9.2c1.5,2.4,3.7,4.8,7,7c3.3,2.2,7.6,4.4,13.1,6.6c8.8,3.7,14.9,7.6,18.6,12
		C53.3,407.7,55.1,413,55.1,419.7z"/>
	<path d="M84.3,376.6v50.5c0,4,0.7,7,2.2,8.7s3.7,2.6,6.5,2.6c3.1,0,7-0.6,11.8-1.7l1.1,5.9c-4.4,1.3-9,2-13.6,2
		c-9.8,0-14.7-5.4-14.7-15.9v-52.1H65.8v-6.3h11.6l0.7-16.4h5.9v16.4h19.6v6.3H84.3z"/>
	<path d="M147.9,444.3c-10.1,0-17.9-3.3-23.4-9.9c-5.5-6.6-8.3-15.9-8.3-27.6s2.8-21,8.3-27.6c5.5-6.6,13.3-9.9,23.4-9.9
		s17.9,3.3,23.4,9.9c5.5,6.6,8.3,15.9,8.3,27.6s-2.8,21-8.3,27.6C165.9,441,158,444.3,147.9,444.3z M147.9,438.1
		c7.9,0,14-2.8,18.3-8.3s6.5-13.3,6.5-23c0-9.9-2.2-17.7-6.5-23.2c-4.3-5.5-10.3-8.3-18.3-8.3c-7.7,0-13.8,2.8-18.1,8.3
		c-4.4,5.5-6.6,13.3-6.6,23.4c0,9.9,2.2,17.7,6.6,23.2C134.2,435.5,140.1,438.1,147.9,438.1z"/>
	<path d="M199.7,370.5h5.4l0.9,9c2.9-3.9,5.9-6.6,8.7-8.1c2.9-1.5,6.3-2.2,10.5-2.2c2.4,0,4.4,0.2,6.1,0.6l-1.1,6.6
		c-1.7-0.6-3.7-0.7-6.5-0.7c-3.5,0-6.5,0.9-9.2,2.8s-5.4,4.8-8.1,8.8v56h-6.6L199.7,370.5L199.7,370.5z"/>
	<path d="M293.4,407h-48.5c0,10.1,2.2,17.9,6.5,23.2s10.7,8.1,19.2,8.1c6.5,0,13.6-1.7,21.8-5.2l1.7,6.3c-3.5,1.5-7.4,2.8-11.6,3.7
		s-8.5,1.5-12.5,1.5c-10.5,0-18.5-3.1-23.8-9.4c-5.5-6.3-8.1-15.3-8.1-27.3c0-12.3,2.4-21.9,7.4-28.5c5-6.6,12-9.9,21-9.9
		c8.8,0,15.5,2.8,20.1,8.3c4.6,5.5,7,13.5,7,24.1L293.4,407L293.4,407z M286.2,400.9c0-8.5-1.7-14.9-5-19.2
		c-3.3-4.4-8.3-6.5-14.7-6.5c-6.3,0-11.3,2.2-14.9,6.5c-3.7,4.3-5.7,10.7-6.5,19.3h41.1V400.9z"/>
	<path d="M315.3,442.9v-94.1h50.5v6.5h-43.3v35h40v6.5h-40v46.4h-7.2V442.9z"/>
	<path d="M382.3,370.5h5.4l0.9,9c2.9-3.9,5.9-6.6,8.7-8.1c2.9-1.5,6.3-2.2,10.5-2.2c2.4,0,4.4,0.2,6.1,0.6l-1.1,6.6
		c-1.7-0.6-3.7-0.7-6.5-0.7c-3.5,0-6.5,0.9-9.2,2.8s-5.4,4.8-8.1,8.8v56h-6.6L382.3,370.5L382.3,370.5z"/>
	<path d="M452.1,444.3c-10.1,0-17.9-3.3-23.4-9.9c-5.5-6.6-8.3-15.9-8.3-27.6s2.8-21,8.3-27.6s13.3-9.9,23.4-9.9s17.9,3.3,23.4,9.9
		c5.5,6.6,8.3,15.9,8.3,27.6s-2.8,21-8.3,27.6C470.2,441,462.3,444.3,452.1,444.3z M452.1,438.1c7.9,0,14-2.8,18.3-8.3
		c4.3-5.5,6.5-13.3,6.5-23c0-9.9-2.2-17.7-6.5-23.2s-10.3-8.3-18.3-8.3c-7.7,0-13.8,2.8-18.1,8.3c-4.4,5.5-6.6,13.3-6.6,23.4
		c0,9.9,2.2,17.7,6.6,23.2C438.5,435.5,444.6,438.1,452.1,438.1z"/>
	<path d="M557.4,442.9h-6.6V393c0-5.5-1.5-9.9-4.3-13.1c-2.8-3.1-6.8-4.8-12-4.8c-4.4,0-8.7,0.6-12.4,1.7c-3.7,1.1-7.6,3.1-11.8,5.9
		v60.2h-6.6v-72.4h5.4l1.3,6.1c4.1-2.8,7.9-4.6,11.4-5.7c3.5-1.1,8.1-1.7,13.3-1.7c6.8,0,12.2,2,16,6.3c3.9,4.2,5.9,9.8,5.9,17v50.5
		L557.4,442.9L557.4,442.9z"/>
	<path d="M590.4,376.6v50.5c0,4,0.7,7,2.2,8.7c1.5,1.7,3.7,2.6,6.5,2.6c3.1,0,7-0.6,11.8-1.7l1.1,5.9c-4.4,1.3-9,2-13.6,2
		c-9.8,0-14.7-5.4-14.7-15.9v-52.1H572v-6.3h11.6l0.7-16.4h5.9v16.4h19.6v6.3H590.4z"/>
</g>
</svg>
