<?xml version="1.0" encoding="utf-8"?>
<!-- Generator: Adobe Illustrator 18.1.1, SVG Export Plug-In . SVG Version: 6.00 Build 0)  -->
<!DOCTYPE svg PUBLIC "-//W3C//DTD SVG 1.1//EN" "http://www.w3.org/Graphics/SVG/1.1/DTD/svg11.dtd">
<svg version="1.1" id="Layer_1" xmlns="http://www.w3.org/2000/svg" xmlns:xlink="http://www.w3.org/1999/xlink" x="0px" y="0px"
	 viewBox="694 -603.5 2000 2000" enable-background="new 694 -603.5 2000 2000" xml:space="preserve">
<g id="surface1">
	<path fill="#231F20" d="M1032.4,361.7c-36-13.3-55.8-23.7-55.8-40c0-13.8,11.4-21.7,31.6-21.7c37,0,75.1,14.3,101.2,27.2l14.8-91.3
		c-20.7-9.9-63.2-26.2-122-26.2c-41.5,0-76.1,10.9-100.7,31.1c-25.7,21.2-39,51.8-39,88.8c0,67.1,41,95.8,107.7,119.9
		c43,15.3,57.3,26.2,57.3,42.9c0,16.3-13.8,25.7-39,25.7c-31.1,0-82.5-15.3-116.1-35l-14.8,92.3c28.6,16.3,82,33.1,137.3,33.1
		c43.9,0,80.5-10.4,105.2-30.1c27.7-21.7,42-53.8,42-95.3C1142,414.5,1100,385.9,1032.4,361.7 M1383.2,307.9l14.8-90.8h-78.2V106.8
		l-105.2,17.3l-15.2,93l-37,6l-13.8,84.8h50.7v178.2c0,46.4,11.9,78.5,36,98.2c20.2,16.3,49.4,24.2,90.4,24.2
		c31.6,0,50.9-5.4,64.2-8.9v-96.3c-7.4,2-24.2,5.4-35.6,5.4c-24.2,0-34.6-12.3-34.6-40.5V307.9H1383.2z M1618,211.8
		c-34.6,0-62.2,18.1-73.1,50.7l-7.4-45.4h-107.2v384h122.5V351.8c15.3-18.8,37-25.5,66.7-25.5c6.4,0,13.3,0,21.7,1.5v-113
		C1632.9,212.8,1625.4,211.8,1618,211.8 M1732.6,179.1c35.6,0,64.2-29.1,64.2-64.7c0-36-28.6-64.7-64.2-64.7
		c-36.1,0-64.7,28.6-64.7,64.7C1667.9,149.9,1696.6,179.1,1732.6,179.1 M1670.9,217.1h123v384h-123V217.1z M2142.3,251.6
		c-21.7-28.1-51.9-42-90.4-42c-35.6,0-66.7,14.8-95.8,45.9l-6.4-38.5h-107.7v526.2l122.5-20.2V599.6c18.8,5.9,38,8.9,55.3,8.9
		c30.6,0,75.1-7.9,109.6-45.4c33.1-36,49.9-91.8,49.9-165.4C2179.3,332.6,2167,283.2,2142.3,251.6 M2040.6,488.6
		c-9.9,18.8-25.2,28.6-43,28.6c-12.3,0-23.2-2.5-33.1-7.4V327.1c20.7-21.7,39.5-24.2,46.4-24.2c31.1,0,46.4,33.6,46.4,99.2
		C2057.4,439.7,2051.9,468.8,2040.6,488.6 M2530.4,405.6c0-61.2-13.3-109.6-39.5-143.6c-26.7-34.6-66.7-52.3-117.5-52.3
		c-104.2,0-168.9,77-168.9,200.4c0,69.1,17.3,120.9,51.4,154c30.6,29.6,74.6,44.4,131.4,44.4c52.3,0,100.7-12.3,131.4-32.6
		l-13.3-83.9c-30.1,16.3-65.2,25.2-104.7,25.2c-23.7,0-40-4.9-51.9-15.3c-12.8-10.9-20.2-28.6-22.7-53.8h203
		C2529.5,442.2,2530.4,414.5,2530.4,405.6 M2325,373.1c3.5-54.8,18.3-80.5,46.4-80.5c27.7,0,42,26.2,44,80.5H2325z"/>
</g>
</svg>
