<?xml version="1.0" encoding="utf-8"?>
<!-- Generator: Adobe Illustrator 18.1.1, SVG Export Plug-In . SVG Version: 6.00 Build 0)  -->
<!DOCTYPE svg PUBLIC "-//W3C//DTD SVG 1.1//EN" "http://www.w3.org/Graphics/SVG/1.1/DTD/svg11.dtd">
<svg version="1.1"
	 id="svg3158" sodipodi:docname="surveymonkey.svg" inkscape:version="0.48.4 r9939" xmlns:rdf="http://www.w3.org/1999/02/22-rdf-syntax-ns#" xmlns:svg="http://www.w3.org/2000/svg" xmlns:cc="http://creativecommons.org/ns#" xmlns:dc="http://purl.org/dc/elements/1.1/" xmlns:sodipodi="http://sodipodi.sourceforge.net/DTD/sodipodi-0.dtd" xmlns:inkscape="http://www.inkscape.org/namespaces/inkscape"
	 xmlns="http://www.w3.org/2000/svg" xmlns:xlink="http://www.w3.org/1999/xlink" x="0px" y="0px" viewBox="-271.1 297.1 200 200"
	 enable-background="new -271.1 297.1 200 200" xml:space="preserve">
<sodipodi:namedview  inkscape:pageopacity="0.0" inkscape:window-x="101" inkscape:pageshadow="2" inkscape:window-y="30" inkscape:current-layer="layer1" fit-margin-right="0" fit-margin-bottom="0" inkscape:document-units="px" inkscape:window-maximized="1" inkscape:window-height="1050" inkscape:window-width="1819" id="base" fit-margin-left="0" fit-margin-top="0" showgrid="false" inkscape:cx="-20.007085" pagecolor="#ffffff" inkscape:zoom="3.959798" bordercolor="#666666" inkscape:cy="1.3840563" borderopacity="1.0">
	</sodipodi:namedview>
<g id="layer1" transform="translate(-395.00709,-395.66314)" inkscape:groupmode="layer" inkscape:label="Layer 1">
	<g id="g3073" transform="matrix(8.5227184,0,0,8.5227184,-1789.0503,-2940.1885)">
		<path id="path3075" inkscape:connector-curvature="0" fill="#A9BD38" d="M243.8,438.7c-0.2,0-0.4,0-0.6,0.1c-0.7-2.8-3.1-5-6-5.4
			c0-0.5,0.1-1.3,1.4-2l0-0.1c0,0-2.1,0.7-2.5,1.9c0-0.4-0.1-1-1-1.4c0,0-0.1,0,0,0.1c0.2,0.2,0.7,0.7,0.5,1.5
			c-3.1,0.3-5.6,2.5-6.4,5.5c-0.2,0-0.4-0.1-0.6-0.1c-1.3,0-2.4,1.1-2.4,2.4c0,1.3,1.1,2.4,2.4,2.4c0.3,0,0.6-0.1,0.9-0.2
			c0.2,0.5,0.5,1,0.8,1.4l2-1.3l0,0c-0.5-0.7-0.8-1.6-0.9-2.6c-0.1-1.1,0.2-2.1,0.9-2.8c1.4-1.2,3-0.7,3.9,0.5h0.3
			c1-1.1,2.5-1.7,3.9-0.5c0.7,0.6,0.9,1.7,0.9,2.7c0,1-0.4,2-0.9,2.7l1.9,1.3c0.3-0.4,0.6-0.9,0.8-1.4c0.3,0.1,0.6,0.2,0.9,0.2
			c1.3,0,2.4-1.1,2.4-2.4C246.2,439.8,245.1,438.7,243.8,438.7 M228.7,441.5c-0.3,0-0.5-0.2-0.5-0.5c0-0.3,0.2-0.5,0.5-0.5
			c0.1,0,0.2,0,0.3,0.1c0,0.3,0,0.5,0.1,0.7C228.9,441.5,228.8,441.5,228.7,441.5 M243.7,441.5c-0.1,0-0.2,0-0.3-0.1
			c0-0.2,0-0.5,0.1-0.7c0.1-0.1,0.2-0.1,0.3-0.1c0.3,0,0.5,0.2,0.5,0.5C244.2,441.3,244,441.5,243.7,441.5"/>
	</g>
</g>
</svg>
