<?xml version="1.0" encoding="UTF-8"?>
<svg xmlns="http://www.w3.org/2000/svg" xmlns:xlink="http://www.w3.org/1999/xlink" width="2000pt" height="2000pt" viewBox="0 0 2000 2000" version="1.1">
<g id="surface1">
<rect x="0" y="0" width="2000" height="2000" style="fill:rgb(99.215686%,68.627451%,9.019608%);fill-opacity:1;stroke:none;"/>
<path style=" stroke:none;fill-rule:nonzero;fill:rgb(94.117647%,42.745098%,10.588235%);fill-opacity:1;" d="M 856.222656 1403.238281 C 818.824219 1319.191406 798.53125 1228.296875 796.3125 1136.914062 C 736.105469 1230.054688 690.597656 1323.707031 660.300781 1393.578125 C 658.8125 1396.996094 636.617188 1451.964844 630.078125 1469.066406 C 622.046875 1490.222656 633.007812 1514.808594 654.101562 1522.972656 C 671.191406 1529.613281 726.90625 1549.878906 730.394531 1551.050781 C 801.929688 1575.0625 900.730469 1603.566406 1009.007812 1621.179688 C 944.898438 1559.335938 892.652344 1485.035156 856.222656 1403.238281 Z M 856.222656 1403.238281 "/>
<path style=" stroke:none;fill-rule:nonzero;fill:rgb(100%,100%,100%);fill-opacity:1;" d="M 1000.464844 725.21875 C 789.011719 293.078125 319.3125 308.484375 245.167969 501.636719 C 188.257812 649.914062 437.234375 1003.175781 1010.230469 748.058594 C 1010.351562 748.007812 1010.398438 747.964844 1010.496094 747.925781 C 1008.617188 744.394531 1001.902344 729.210938 1000.464844 725.21875 Z M 1000.464844 725.21875 "/>
<path style=" stroke:none;fill-rule:nonzero;fill:rgb(100%,100%,100%);fill-opacity:1;" d="M 1099.832031 695.558594 C 982.910156 405.175781 1187.671875 238.527344 1300.367188 281.789062 C 1384.109375 313.929688 1429.300781 564.210938 1105.714844 708.304688 C 1105.664062 708.316406 1105.59375 708.339844 1105.542969 708.367188 C 1104.785156 706.238281 1100.953125 697.671875 1099.832031 695.558594 Z M 1099.832031 695.558594 "/>
<path style=" stroke:none;fill-rule:nonzero;fill:rgb(94.117647%,42.745098%,10.588235%);fill-opacity:1;" d="M 1700.609375 1024.757812 C 1651.609375 914.671875 1561.691406 835.742188 1457.152344 798.144531 C 1446.632812 794.359375 1435.839844 792.601562 1425.121094 792.601562 C 1370.828125 792.601562 1318.53125 837.804688 1313.597656 894.238281 C 1305.347656 988.394531 1323.949219 1084.21875 1365.113281 1176.648438 C 1405.664062 1267.714844 1463.160156 1344.738281 1537.109375 1401.320312 C 1556.324219 1416.054688 1579.882812 1422.988281 1603.417969 1422.988281 C 1645.804688 1422.988281 1688.089844 1400.464844 1704.886719 1360.222656 C 1748.070312 1256.714844 1750.074219 1135.851562 1700.609375 1024.757812 Z M 1700.609375 1024.757812 "/>
<path style=" stroke:none;fill-rule:nonzero;fill:rgb(94.117647%,42.745098%,10.588235%);fill-opacity:1;" d="M 1455.003906 1508.617188 C 1364.449219 1439.308594 1292.671875 1346.105469 1241.71875 1231.617188 C 1190.011719 1115.5 1168.917969 998.023438 1179.023438 882.46875 C 1181.832031 850.304688 1191.207031 819.3125 1206.273438 790.976562 C 1203.585938 791.625 1197.851562 793.050781 1197.652344 793.101562 C 1150.042969 805.003906 1103.898438 825.710938 1062.941406 852.65625 C 1003.566406 891.71875 951.210938 949.628906 928.644531 1018.070312 C 922.5625 1036.511719 917.992188 1056.777344 916.480469 1076.171875 C 909.25 1168.679688 924.316406 1264.242188 964.699219 1354.957031 C 1003.761719 1442.6875 1062.0625 1515.847656 1132.398438 1571.691406 C 1175.292969 1605.734375 1252.566406 1627.207031 1315.726562 1627.207031 C 1375.0625 1627.207031 1433.617188 1609.523438 1486.179688 1582.769531 C 1502.613281 1574.40625 1538.824219 1551.765625 1541.191406 1550.167969 C 1509.839844 1542.089844 1480.347656 1528.027344 1455.003906 1508.617188 Z M 1455.003906 1508.617188 "/>
</g>
</svg>
