<?xml version="1.0" encoding="utf-8"?>
<!-- Generator: Adobe Illustrator 18.1.1, SVG Export Plug-In . SVG Version: 6.00 Build 0)  -->
<!DOCTYPE svg PUBLIC "-//W3C//DTD SVG 1.1//EN" "http://www.w3.org/Graphics/SVG/1.1/DTD/svg11.dtd">
<svg version="1.1" id="Layer_1" xmlns="http://www.w3.org/2000/svg" xmlns:xlink="http://www.w3.org/1999/xlink" x="0px" y="0px"
	 viewBox="694 -603.5 2000 2000" enable-background="new 694 -603.5 2000 2000" xml:space="preserve">
<g id="surface1">
	<path fill="#2383E5" d="M2074.4,33.5c7.5,15.1,17.4,28.9,28.9,40.7c11.5,11.7,24.5,21.5,38.6,28.5c13.9,7,28.8,11.3,43.8,12.2
		c15,0.9,28.8-1.5,40.9-6.8c12.1-5.2,22.5-13.2,30.8-23.4c8.3-10.1,14.4-22.4,18-36.3c3.6-13.8,4.6-29.2,2.6-45.6
		c-2-16.4-6.9-32.4-14-47.1c-7.1-14.8-16.5-28.4-27.5-40.1c-11-11.8-23.7-21.7-37.4-29.1c-13.7-7.4-28.5-12.2-43.6-13.7
		c-15.2-1.5-29.3,0.4-41.8,5.3c-12.5,4.9-23.5,12.7-32.2,22.8c-8.8,10.2-15.4,22.7-19.2,36.9c-3.9,14.2-5,30.1-2.9,47.2
		C2061.7,1.9,2066.9,18.3,2074.4,33.5z M2388.8-6.9c6.4,13.5,14.9,25.9,24.7,36.5c9.8,10.6,20.9,19.3,32.9,25.7
		c11.9,6.3,24.5,10.3,37.4,11.2c12.8,0.9,24.5-1.2,34.9-5.8c10.3-4.6,19.2-11.7,26.3-20.7c7-9,12.3-20,15.4-32.4
		c3-12.4,3.9-26.2,2.1-40.9c-1.8-14.7-6-29-12.1-42.2c-6.1-13.2-14.2-25.4-23.6-36c-9.4-10.6-20.3-19.5-31.9-26.2
		c-11.7-6.7-24.3-11-37.2-12.4c-12.9-1.4-24.9,0.3-35.6,4.6c-10.7,4.3-19.9,11.2-27.3,20.2c-7.4,9-13,20.2-16.2,32.8
		c-3.2,12.7-4.2,26.9-2.3,42.1C2377.9-35.1,2382.4-20.4,2388.8-6.9z M2684.9,804.6c-0.1-3.3-0.3-6.6-0.5-9.9
		c-0.8-15.1-2.3-30.1-4.1-45.2c-1.8-15-3.9-30-6.1-45.1c-2.2-15.1-4.5-30.4-6.6-45.8l-28.6-224.1l-29.5-231.6
		c-1.1-8.3-2.6-16-4.5-23.3c-1.9-7.3-4.3-14-7-20.3c-2.7-6.3-5.9-12.1-9.4-17.5c-3.5-5.4-7.5-10.3-11.7-14.8
		c-4.4-4.7-9.3-8.9-14.5-12.7c-5.3-3.8-10.9-7.1-16.9-10.1c-6-2.9-12.4-5.5-19.1-7.6c-6.8-2.1-13.9-3.9-21.4-5.3
		c-2.9-0.5-5.9-1-8.8-1.5c-2.9-0.5-5.9-0.9-8.9-1.3c-3-0.4-5.9-0.8-8.9-1.3s-5.9-0.9-8.9-1.4c-2.1-0.3-4.1-0.7-6.1-1
		c-2-0.3-3.9-0.6-5.8-0.8c-1.9-0.2-3.7-0.4-5.6-0.6c-1.8-0.2-3.6-0.3-5.4-0.5c-7.1-0.5-13.5-0.5-19.3,0.1c-5.8,0.6-11,1.7-15.6,3.4
		c-4.6,1.7-8.7,4.1-12.2,7.2c-3.5,3.1-6.4,6.8-8.9,11.3c-1.8,3.4-3.4,7.3-4.6,11.6c-1.3,4.3-2.2,9.1-2.9,14.3
		c-0.7,5.3-1.2,11-1.3,17.3c-0.2,6.3-0.1,13,0.2,20.3l26.1,276.2c0,0,2.3,23.5,5.8,59.3c3.5,35.7,8.2,83.7,12.9,132.6
		c4.8,48.9,9.6,98.8,13.5,138.6c3.8,39.7,6.7,69.3,7.4,77.5c1.1,11.7,2.4,22.2,3.4,31.2c1,9.1,1.7,16.9,1.4,23.4
		c-0.3,6.5-1.6,11.8-4.6,15.8c-2.9,4-7.5,6.8-14.4,8.3c-0.1,0-0.2,0.1-0.4,0.1c-0.1,0-0.2,0-0.4,0.1c-0.1,0-0.2,0-0.3,0.1
		c-0.1,0-0.2,0-0.3,0c-5.3,0.4-9.7-4.2-13.1-11.2c-3.5-7.1-6.1-16.6-8-26.2c-2-9.6-3.2-19.3-4-26.5c-0.8-7.2-1.1-12.1-1.1-12.1
		c-2.4-21-5.3-46.1-8.6-74.6c-3.2-28.5-6.9-60.4-10.7-95c-3.9-34.6-8.1-71.8-12.4-110.9c-4.3-39.1-8.8-80.2-13.4-122.4
		c-1.6-15.1-3.3-30.1-4.9-44.9c-1.6-14.8-3.2-29.4-4.8-43.6c-1.6-14.3-3.1-28.2-4.6-41.8c-1.5-13.6-2.9-26.7-4.3-39.3
		c-1.4-12.3-3.4-24.2-6.3-35.3c-2.9-11.2-6.7-21.7-11.6-31.5c-4.9-9.8-10.9-18.8-18.2-26.9c-7.3-8.1-16-15.3-26.2-21.5
		c-1.1-0.7-2.3-1.3-3.4-2c-1.1-0.6-2.3-1.3-3.5-1.9c-1.2-0.6-2.4-1.3-3.6-1.9c-1.2-0.6-2.5-1.2-3.7-1.8c-8.3-3.8-16.7-6.8-25.2-9.3
		c-8.5-2.5-17-4.4-25.6-6.1c-8.6-1.7-17.3-3.1-25.9-4.5c-8.7-1.4-17.4-2.8-26.2-4.5c-2.5-0.5-5.1-0.9-7.6-1.4
		c-2.5-0.4-4.9-0.8-7.3-1.1c-2.4-0.3-4.8-0.6-7.1-0.8c-2.3-0.2-4.6-0.4-6.9-0.5c-8.2-0.5-15.9-0.4-23.1,0.3s-13.9,2-20,4
		c-6.2,2-11.8,4.5-16.9,7.7c-5.1,3.2-9.6,7-13.6,11.4c-4.4,4.8-8.1,10.4-11.1,16.7c-3,6.3-5.4,13.4-7,21.2
		c-1.6,7.8-2.6,16.4-2.9,25.8c-0.3,9.3,0.2,19.4,1.3,30.3c1.8,17.2,3.5,34.3,5.1,51.5c1.6,17.2,3.2,34.3,4.6,51.5
		c1.5,17.2,2.9,34.3,4.2,51.4c1.4,17.1,2.6,34.3,3.9,51.4c1.4,19.3,4.5,53.2,8.6,94.7c4.2,41.4,9.4,90.4,15.3,139.7
		c5.9,49.2,12.3,98.8,18.8,141.7c6.5,42.8,13.1,78.8,19.2,101.1c2.1,7.7,4,14.9,6,22.5c2.1,7.7,4.4,15.9,7.5,25.9
		c3.1,9.9,7,21.6,12.2,36.2c5.2,14.6,11.7,32,20,53.4c-6.6-2.4-15-3.2-24.6-6.2c-9.6-2.9-20.4-8-31.7-18.7
		c-11.4-10.8-23.2-27.4-34.9-53.4c-11.7-26.1-23.2-61.7-33.9-110.5c-3.1-19.7-6.3-42.7-9.3-67.8c-3.1-25.1-6.1-52.4-9.1-80.9
		c-3-28.5-5.8-58.2-8.6-88c-2.8-29.8-5.4-59.8-8-88.9c-0.8-9.5-1.6-19.1-2.5-28.6c-0.8-9.5-1.6-19.1-2.4-28.6s-1.6-19.1-2.4-28.6
		c-0.8-9.5-1.6-19.1-2.4-28.6c-1.4-17.4-2.9-34.9-4.4-52.3c-1.5-17.4-3-34.9-4.6-52.3c-1.6-17.4-3.2-34.9-4.9-52.3
		c-1.7-17.4-3.5-34.9-5.4-52.3c-1-9.3-2.2-18.2-3.7-26.5c-1.5-8.3-3.2-16.2-5.3-23.5c-2-7.4-4.4-14.3-7-20.8
		c-2.6-6.5-5.6-12.6-8.9-18.3l-0.2,0.1c-5.1-8.9-11.1-16.9-18-24.1c-6.9-7.3-14.8-13.8-23.7-19.7c-8.9-5.9-19-11.2-30.2-16.1
		c-11.2-4.9-23.7-9.3-37.4-13.4c-8.5-2.5-17.1-4.9-25.6-7.2c-8.6-2.3-17.3-4.4-26-6.4c-8.8-2-17.6-3.9-26.4-5.6
		c-8.8-1.8-17.7-3.4-26.6-4.9c-2.8-0.5-5.6-0.9-8.4-1.3c-2.8-0.4-5.5-0.8-8.2-1.1c-2.7-0.3-5.3-0.6-7.9-0.9
		c-2.6-0.3-5.2-0.5-7.7-0.6c-15.8-1.1-30.2-0.7-43.2,1.2c-13.1,1.9-24.8,5.4-35.1,10.4c-10.4,5.1-19.4,11.8-27.2,20.1
		c-7.8,8.4-14.3,18.4-19.5,30.2l0.1,0c-2.5,5.6-4.7,11.5-6.6,17.9c-1.9,6.4-3.6,13.1-5.1,20.3c-1.4,7.2-2.6,14.7-3.5,22.7
		c-0.9,8-1.6,16.4-2,25.2c-0.1,2.6-0.2,5.2-0.2,7.8l-0.1,17.8c0,0.2,0,0.3,0,0.5c0.1,4.4,0.2,8.7,0.4,13.1c0.2,4.3,0.4,8.7,0.7,13
		c1,16.1,2,32.1,2.9,48s1.8,31.8,2.6,47.6c0.8,15.8,1.6,31.5,2.3,47.2c0.8,15.7,1.5,31.4,2.2,47c0.9,20.4,1.9,40.8,2.9,61.3
		c1,20.4,2,40.9,3.1,61.4s2.4,41.1,3.7,61.8c1.4,20.7,2.8,41.5,4.5,62.4c1.9,24,3.4,48.1,5,72.1c1.6,24,3.2,48,5.4,71.9
		s4.9,47.7,8.6,71.3c3.7,23.6,8.4,47,14.6,70.2c6.3,23.9,14.8,44.8,25.5,62.8c10.7,18,23.5,33.2,38.4,45.6
		c14.9,12.4,31.8,22.1,50.7,29.2c18.9,7.1,39.7,11.6,62.4,13.7c6.5,0.6,12.5,1.1,18.3,1.4c5.7,0.3,11.2,0.5,16.5,0.6
		c5.3,0.1,10.5,0,15.8-0.3c5.3-0.2,10.6-0.6,16.1-1.1c5.4-0.5,11.1-1.1,17.1-1.9c6-0.8,12.4-1.6,19.3-2.7c6.9-1,14.3-2.2,22.4-3.5
		c8.1-1.3,16.8-2.7,26.3-4.3c27.3-4.5,52.3-8.4,76-12c23.4-3.6,45.5-7,66.9-10.2c21.3-3.3,41.9-6.5,62.7-9.9
		c20.6-3.4,41.3-6.9,62.8-10.9c31-5.7,61.8-11.1,92.2-16.4c30.1-5.2,60-10.4,89.6-15.5c29.3-5.1,58.3-10.1,87-15.3
		c28.4-5.1,56.6-10.4,84.4-15.9c18.6-3.7,34.7-9.7,48.5-18.2c13.7-8.4,25-19.2,34.1-32.3c9.1-13.1,16.1-28.6,20.9-46.4
		c4.9-17.8,7.6-38,8.5-60.6L2684.9,804.6z M1632.7-76c9.5,18,21.9,34.5,36.4,48.6c14.4,14.1,30.9,25.8,48.5,34.3
		c17.5,8.5,36.2,13.8,55.1,15.2c18.8,1.4,36.1-1.3,51.4-7.3c15.1-5.9,28.2-15.2,38.7-26.9c10.4-11.8,18.1-26.1,22.7-42.3
		c4.5-16.2,5.9-34.3,3.4-53.6c-2.5-19.4-8.5-38.1-17.4-55.6c-8.9-17.5-20.6-33.7-34.3-47.8c-13.8-14.1-29.6-26.1-46.8-35.1
		c-17.2-9.1-35.7-15.1-54.7-17.3c-19.1-2.2-36.9-0.3-52.6,5.2c-15.9,5.4-29.6,14.4-40.8,26.1c-11.1,11.8-19.5,26.4-24.4,43.1
		c-4.9,16.7-6.4,35.5-3.8,55.7C1616.7-113.6,1623.2-94.1,1632.7-76z"/>
	<path fill="#7DD54E" d="M1002.9-220.2c10.1,16.4,22.2,31.4,35.8,44.1c13.5,12.6,28.5,22.9,44.4,30c3.6,1.6,7.2,3.1,10.9,4.3
		c3.6,1.3,7.2,2.4,10.8,3.3c3.6,1,7.1,1.8,10.7,2.4c3.5,0.6,7,1.1,10.5,1.4c12.1,1.1,23.9,0.5,35-1.8c11-2.3,21.4-6.3,30.7-11.6
		c9.3-5.4,17.7-12.2,24.7-20.2c7-8,12.8-17.3,17-27.7c0.1-0.3,0.3-0.7,0.4-1c0.1-0.3,0.2-0.7,0.4-1c0.1-0.3,0.2-0.7,0.4-1l0.4-1
		c0.1-0.2,0.2-0.4,0.2-0.6c0.1-0.2,0.2-0.4,0.2-0.7c0.1-0.2,0.2-0.4,0.3-0.6c0.1-0.2,0.2-0.4,0.2-0.7c0.9-2.7,1.6-5.4,2.3-8.2
		c0.7-2.8,1.2-5.6,1.7-8.6c0.4-2.9,0.8-5.9,1-8.9c0.2-3,0.3-6.1,0.4-9.3c0-4.8-0.1-9.6-0.4-14.3c-0.3-4.7-0.8-9.4-1.4-14.1
		c-0.6-4.7-1.4-9.3-2.3-13.8c-0.9-4.6-2-9.1-3.1-13.5c-3.8-14.5-9.2-28.3-15.8-41.3c-6.7-13.1-14.7-25.2-23.9-36.3
		c-9.3-11.1-19.7-21.2-31.3-29.9c-11.6-8.8-24.3-16.2-37.9-22c-2.7-1.2-5.5-2.2-8.2-3.2c-2.8-1-5.5-1.8-8.3-2.6
		c-2.8-0.8-5.5-1.4-8.3-2s-5.5-1.1-8.2-1.4c-6.6-0.9-13.1-1.3-19.4-1.1c-6.4,0.1-12.7,0.8-18.7,2c-6.1,1.2-12,2.9-17.7,5
		c-5.7,2.1-11.2,4.8-16.3,7.8c-0.4,0.3-0.9,0.5-1.3,0.8c-0.4,0.3-0.9,0.5-1.3,0.8c-0.4,0.3-0.8,0.5-1.3,0.8
		c-0.4,0.3-0.8,0.5-1.2,0.8c-0.8,0.6-1.7,1.1-2.5,1.7c-0.8,0.6-1.6,1.2-2.4,1.8s-1.6,1.2-2.4,1.9c-0.8,0.6-1.5,1.3-2.3,1.9
		c-1.1,1-2.3,2-3.4,3c-1.1,1-2.1,2.1-3.2,3.2c-1,1.1-2.1,2.2-3,3.3c-1,1.1-2,2.3-2.9,3.5c-0.6,0.8-1.3,1.6-1.9,2.4
		c-0.6,0.8-1.2,1.6-1.8,2.5c-0.6,0.8-1.1,1.7-1.7,2.5c-0.6,0.9-1.1,1.7-1.6,2.6c-1.9,3.1-3.6,6.2-5.1,9.5c-1.5,3.3-2.9,6.7-4.1,10.2
		c-1.2,3.5-2.3,7.1-3.1,10.8c-0.8,3.8-1.4,7.6-1.9,11.5c-0.1,1.2-0.2,2.4-0.3,3.6c-0.1,1.2-0.2,2.4-0.3,3.6
		c-0.1,1.2-0.1,2.4-0.2,3.6c0,1.2-0.1,2.4-0.1,3.7c-0.2,18.3,2.7,37.1,8.3,55.5C984.7-254.5,992.8-236.7,1002.9-220.2z M1527.4,1134
		c-2.9-1.2-5.1-2.1-7.1-2.9c-2-0.8-3.7-1.4-5.5-2.2c-1.8-0.7-3.7-1.5-6.1-2.6c-0.3-0.2-1.7-0.7-3.5-1.5c-1.9-0.8-4.2-1.8-6.6-2.8
		c-2.4-1-4.8-2-6.6-2.8c-1.9-0.8-3.2-1.4-3.6-1.5c-17.5-7.1-32.5-15.1-45.4-24.5c-12.9-9.5-23.7-20.6-32.4-33.8
		c-8.8-13.2-15.6-28.7-20.6-46.9c-5-18.3-8.3-39.4-10.1-63.9c-0.8-16.4-1.6-32.7-2.4-48.9c-0.7-16.3-1.4-32.5-2.1-48.6
		c-0.6-16.1-1.3-32.2-1.9-48.3c-0.6-16-1.2-32-1.7-48c-0.8-23.3-1.6-46.4-2.4-69.4c-0.8-23-1.6-45.9-2.4-68.6
		c-0.8-22.7-1.6-45.3-2.6-67.6c-0.9-22.4-1.9-44.6-2.9-66.6c-0.8-11.4-0.7-20.8,0.5-28.5c1.2-7.7,3.4-13.6,6.9-18.1
		c3.5-4.5,8.2-7.6,14.2-9.5c6-1.9,13.4-2.7,22.3-2.6c0.8,0,1.7,0,2.5,0c0.9,0,1.7,0.1,2.6,0.1c0.9,0,1.8,0.1,2.7,0.1
		c0.9,0.1,1.8,0.1,2.8,0.2c3.9,0.3,7.8,0.4,11.7,0.5c3.9,0.1,7.8,0.2,11.7,0.2c3.9,0.1,7.8,0.1,11.6,0.3c3.9,0.1,7.7,0.3,11.6,0.6
		c0.4,0,0.8,0.1,1.2,0.1c0.4,0,0.8,0,1.2,0.1c0.4,0,0.8,0,1.2,0c0.4,0,0.8,0,1.2,0c6.9,0.1,13.2-0.9,19-2.9c5.8-1.9,11-4.8,15.6-8.7
		c4.6-3.8,8.7-8.6,12.1-14.2c3.4-5.6,6.2-12.2,8.4-19.5c2.1-7.1,3.4-14.1,4-20.9c0.5-6.8,0.3-13.5-0.8-20c-1.1-6.5-3-12.8-5.7-18.9
		c-2.8-6.1-6.4-12.1-10.9-17.8c-0.5-0.6-1-1.2-1.5-1.8c-0.5-0.6-1-1.2-1.5-1.8c-0.5-0.6-1.1-1.2-1.6-1.8c-0.5-0.6-1.1-1.2-1.7-1.8
		c-5.1-5.4-10.5-10-16-13.8c-5.5-3.9-11.2-7.1-17.1-9.8c-5.9-2.7-12-4.8-18.2-6.6c-6.3-1.7-12.7-3.1-19.3-4.1
		c-19.4-3.1-34.4-6-46-10.1c-11.7-4.1-19.9-9.4-25.8-17.2c-5.9-7.8-9.3-18.1-11.3-32.4c-2-14.2-2.6-32.4-2.9-55.7
		c0-2.1,0-4.2-0.1-6.3c0-2.1,0-4.2-0.1-6.3c0-2.1,0-4.2-0.1-6.3s-0.1-4.2-0.1-6.3c-0.2-7.1-0.7-14-1.5-20.9
		c-0.8-6.9-1.9-13.6-3.4-20.3s-3.1-13.2-5.2-19.5c-2-6.4-4.3-12.6-6.9-18.7c-4.4-10.4-9.7-20.3-15.8-29.6s-12.9-18-20.6-26
		c-7.6-8-16-15.3-25.1-21.7c-9.1-6.5-18.9-12.1-29.5-16.8c-17-7.6-34.3-14.7-51.7-21.1c-17.5-6.5-35.3-12.3-53.3-17.3
		c-18.1-5.1-36.4-9.5-54.9-13c-18.6-3.5-37.5-6.2-56.6-7.9c-2.1-0.2-4.2-0.4-6.4-0.5c-2.1-0.2-4.2-0.3-6.4-0.5
		c-2.1-0.2-4.3-0.3-6.4-0.4c-2.1-0.1-4.3-0.2-6.4-0.3c-5.6-0.3-11-0.2-16.4,0.2c-5.3,0.4-10.6,1.1-15.7,2.1
		c-5.1,1-10.1,2.3-14.9,3.9c-4.8,1.6-9.5,3.5-14,5.6c-4.2,2-8.3,4.3-12.2,6.8c-3.9,2.5-7.7,5.2-11.3,8.2c-3.6,3-7,6.1-10.2,9.5
		c-3.2,3.4-6.3,7-9.1,10.8c-3.9,5.2-7.3,10.7-10.4,16.6c-3.1,5.9-5.8,12.1-8.1,18.6c-2.3,6.5-4.2,13.4-5.6,20.5
		c-1.4,7.1-2.4,14.6-2.9,22.2c-0.5,7.5-0.9,15-1.2,22.5c-0.3,7.5-0.5,15-0.7,22.5s-0.3,15-0.5,22.6c-0.2,7.5-0.3,15-0.6,22.6
		c-0.2,7.2-0.5,13.6-0.7,19.3s-0.6,10.7-1.2,15.1c-0.5,4.4-1.2,8.2-2.1,11.4c-0.9,3.2-2,6-3.5,8.2c-1.9,2.9-4.3,5.1-7.4,6.7
		s-6.9,2.6-11.7,3.2c-4.7,0.6-10.4,0.9-17.1,0.9c-6.7,0-14.6-0.2-23.7-0.5c-7.4-0.2-14.5,0.4-21.2,1.7c-6.8,1.3-13.2,3.4-19.3,6.1
		c-6.1,2.7-11.7,6.1-16.9,10.1c-5.2,4-9.9,8.6-14.1,13.7c-1.9,2.3-3.7,4.8-5.4,7.3c-1.7,2.5-3.2,5.2-4.6,7.9
		c-1.4,2.7-2.7,5.5-3.9,8.4c-1.1,2.9-2.2,5.9-3.1,8.9c-0.8,2.7-1.5,5.5-2.1,8.3c-0.6,2.8-1,5.7-1.3,8.7c-0.2,1.5-0.2,3-0.3,4.5
		l-0.1,13.9c0.9,13.8,4,26.8,9.3,38.8c5.3,12,12.6,22.8,21.9,32.3c9.3,9.4,20.5,17.4,33.5,23.6c12.9,6.2,27.6,10.7,43.8,13.1
		c10.7,1.6,19.6,4.1,26.8,7.7c7.2,3.5,12.8,8.1,17,13.7c4.2,5.6,7.1,12.4,8.9,20.4c1.8,8,2.5,17.2,2.3,27.8
		c-0.4,27.9-0.7,55.7-1,83.6c-0.3,27.9-0.5,55.8-0.7,83.8c-0.2,27.9-0.3,55.9-0.4,83.9c-0.1,28-0.1,56,0,84c0,7.8,0.1,15.5,0.1,23.3
		c0,7.8,0.1,15.5,0.1,23.3c0,7.8,0.1,15.5,0.1,23.3c0.1,7.8,0.1,15.5,0.2,23.3c0.2,19.8,0.9,39.5,2.3,59.1
		c1.4,19.6,3.4,39.1,6.2,58.4c2.8,19.3,6.4,38.4,10.9,57.2c4.5,18.8,10,37.3,16.5,55.5c5.3,14.7,11.7,27.9,19.1,39.8
		c7.5,11.9,16.1,22.3,25.7,31.6c9.6,9.2,20.2,17.1,31.9,23.9c11.6,6.7,24.2,12.2,37.7,16.7c10.9,3.6,21.9,6.4,32.9,8.4
		c11,2,22,3.4,33.1,4.1c11,0.7,22,0.8,33.1,0.5c11-0.4,22-1.3,32.9-2.6c0,0,0.1,0,0.1,0l0.6-0.1c0.1,0,0.1,0,0.1,0
		c0.2,0,0.3,0,0.4-0.1s0.3,0,0.4-0.1c3.7-0.5,7.4-1,11.1-1.5c3.7-0.5,7.4-1.1,11-1.7s7.3-1.3,11-2c3.7-0.7,7.3-1.4,11-2.2
		c26.3-5.4,52.3-11,78.2-16.6c25.6-5.6,51.1-11.3,76.4-17c25.1-5.7,50.1-11.4,74.9-17.1c24.7-5.7,49.2-11.3,73.7-16.9
		c3.5-0.8,7-1.6,10.5-2.4c3.5-0.8,7-1.6,10.4-2.4s6.9-1.6,10.4-2.4l10.4-2.4C1533.7,1136.7,1530.2,1135.2,1527.4,1134z"/>
</g>
</svg>
