<?xml version="1.0" encoding="utf-8"?>
<!-- Generator: Adobe Illustrator 18.1.1, SVG Export Plug-In . SVG Version: 6.00 Build 0)  -->
<svg version="1.1" id="Layer_1" xmlns:sketch="http://www.bohemiancoding.com/sketch/ns"
	 xmlns="http://www.w3.org/2000/svg" xmlns:xlink="http://www.w3.org/1999/xlink" x="0px" y="0px" viewBox="-241 349 128 96"
	 enable-background="new -241 349 128 96" xml:space="preserve">
<title>telapi</title>
<desc>Created with Sketch.</desc>
<g id="Page-1" sketch:type="MSPage">
	<g>
		<path fill="#11A0D7" d="M-241,418.9c0-2.3,0-4.7,0-7c0.3-0.7,0.6-1.5,0.8-2.2c4.8-15.7,13.1-22.5,29.5-23.3
			c2.9-0.1,3.1-1.6,3.4-3.6c2.7-16,13.7-27,28.2-28.7c15.6-1.8,28.6,6.4,34.9,22.2c0.8,2,1.9,2.8,3.9,3.2
			c15.2,3,23.9,12.6,27.2,27.4c0,3.3,0,6.7,0,10c-0.4,1.2-0.8,2.5-1.2,3.7c-4.9,15-16.3,23.3-32.1,23.3c-22.1,0-44.2,0-66.3,0
			c-11.9,0-20.1-6-25.3-16.3C-239.3,425-240,421.9-241,418.9z M-173,389.1c4.8,6.2,5.7,20.4,1.8,27.1c-1.1,2-2.2,2.1-3.9,0.8
			c-2.7-2.1-4.6-0.9-5.9,1.9c-1,2.1-2.1,4.2-2.9,6.3c-1.6,4.2-0.1,6.7,4.3,7.6c5,1,8.2-1.6,10.9-5.4c8.1-11.5,8.1-36,0.1-47.6
			c-1.6-2.4-3.6-4.5-6.4-5.3c-3.6-1-7.6-0.9-9.1,2.8c-2,4.9,1.9,8.9,4.3,12.7C-177.7,393.2-175.3,389.6-173,389.1z"/>
	</g>
</g>
</svg>
