<?xml version="1.0" encoding="utf-8"?>
<!-- Generator: Adobe Illustrator 18.1.1, SVG Export Plug-In . SVG Version: 6.00 Build 0)  -->
<!DOCTYPE svg PUBLIC "-//W3C//DTD SVG 1.1//EN" "http://www.w3.org/Graphics/SVG/1.1/DTD/svg11.dtd">
<svg version="1.1" id="Layer_1" xmlns="http://www.w3.org/2000/svg" xmlns:xlink="http://www.w3.org/1999/xlink" x="0px" y="0px"
	 viewBox="694 -603 2000 1999" enable-background="new 694 -603 2000 1999" xml:space="preserve">
<g id="surface1">
	<path fill="#248BFA" d="M2655.1,399.3c0,263.5,0,526.9,0,791.1c0,109.5-57.9,166.7-168.2,166.7c-528.6,0-1057.2,0-1585.9,0
		c-109.5,0-168.2-57.9-168.2-167.4c0-528.4,0-1056.7,0-1585.1c0-111.6,58-168.8,170.3-168.8c527.2,0,1055.1,0,1582.3,0
		c112.4,0,169.6,57.2,169.6,168.8C2655.1-130.4,2655.1,134.4,2655.1,399.3z M1036.1,397.9c-12,344,283.4,663.3,655.1,662.6
		s664.3-291,667.8-659c3.5-376.5-316.6-664-658.7-665.4C1337.8-266.1,1024.7,41.9,1036.1,397.9z"/>
	<path fill="#248BFA" d="M1127.2,397.2c-3.5-286.8,219.8-541.1,514.5-565.1c175.3-14.1,330.7,36,457.2,163.2
		c110.2,111.6,166.8,246.5,167.5,402.6c0.7,315-255.1,570-570.3,570C1380.9,968.7,1127.2,713.7,1127.2,397.2z M1698.9,100.5
		c-96.8,0-192.9,1.4-289.8-0.7c-32.5-0.7-41,9.9-38.2,40.3c2.1,30.4,2.1,61.5,0,91.8c-1.4,24,5.7,33.2,31.1,32.5
		c58.7-2.1,118,0.7,176.7-1.4c28.3-0.7,38.2,6.4,37.5,36c-1.4,164.6,0,329.2-1.4,494.5c0,30.4,8.5,38.9,37.5,36
		c30.4-2.8,61.5-2.8,91.9,0c29,2.8,34.6-9.2,34.6-35.3c-1.4-166,0-332-1.4-498c0-26.8,7.8-33.9,33.9-33.2
		c60.1,2.1,120.1-0.7,180.2,1.4c23.3,0.7,30.4-7.1,29.7-30.4c-1.4-35.3-1.4-70.6,0-106c1.4-22.6-7.8-27.5-28.3-27.5
		C1894,101.2,1796.5,100.5,1698.9,100.5z"/>
</g>
</svg>
