<?xml version="1.0" encoding="utf-8"?>
<!-- Generator: Adobe Illustrator 18.1.1, SVG Export Plug-In . SVG Version: 6.00 Build 0)  -->
<!DOCTYPE svg PUBLIC "-//W3C//DTD SVG 1.1//EN" "http://www.w3.org/Graphics/SVG/1.1/DTD/svg11.dtd">
<svg version="1.1" id="Layer_1" xmlns="http://www.w3.org/2000/svg" xmlns:xlink="http://www.w3.org/1999/xlink" x="0px" y="0px"
	 viewBox="694 -594 2000 1981" enable-background="new 694 -594 2000 1981" xml:space="preserve">
<filter  width="100%" height="100%" filterUnits="objectBoundingBox" id="alpha" y="0%" x="0%">
	<feColorMatrix  type="matrix" in="SourceGraphic" values="0 0 0 0 1 0 0 0 0 1 0 0 0 0 1 0 0 0 1 0"></feColorMatrix>
</filter>
<defs>
	<filter id="Adobe_OpacityMaskFilter" filterUnits="userSpaceOnUse" x="694" y="-594.2" width="2000" height="1981.5">
		<feColorMatrix  type="matrix" values="1 0 0 0 0  0 1 0 0 0  0 0 1 0 0  0 0 0 1 0"/>
	</filter>
</defs>
<mask maskUnits="userSpaceOnUse" x="694" y="-594.2" width="2000" height="1981.5" id="mask0">
	<g filter="url(#alpha)">
		<g>
			<rect x="694" y="-594.2" opacity="0.251" width="2000" height="1981"/>
		</g>
	</g>
	<g filter="url(#alpha)">
		<g>
			<rect x="694" y="-594.2" opacity="0.8" width="2000" height="1981"/>
		</g>
	</g>
</mask>
<g id="surface1" mask="url(#mask0)">
	
		<radialGradient id="SVGID_1_" cx="63.4073" cy="133.8205" r="40.1463" gradientTransform="matrix(-7.940240e-07 -18.1577 -19.9817 8.730660e-07 4441.5923 1330.3892)" gradientUnits="userSpaceOnUse">
		<stop  offset="0" style="stop-color:#FBF5A9"/>
		<stop  offset="0.408" style="stop-color:#F9F2A7"/>
		<stop  offset="0.6139" style="stop-color:#F1E9A0"/>
		<stop  offset="0.7746" style="stop-color:#E4DD95"/>
		<stop  offset="0.911" style="stop-color:#D3CD86"/>
		<stop  offset="1" style="stop-color:#C4BF7A"/>
	</radialGradient>
	<path fill="url(#SVGID_1_)" d="M2651.3,106.7c0-7.3-1.8-12.7-1.8-20c0-5.4-1.8-9.1-1.8-14.5c-18.2-14.5-38.1-29.1-59.9-39.9
		c-23.6-12.7-47.2-25.4-70.8-36.3c-23.6-10.9-49-21.8-74.5-32.7c-12.7-5.4-25.4-10.9-38.1-14.5c-12.7-5.4-25.4-9.1-38.1-14.5
		c27.2,3.6,54.5,10.9,79.9,18.2c16.3,3.6,34.5,9.1,50.9,14.5c-121.7-315.9-410.5-522.9-726.6-522.9s-604.9,205.2-726.6,522.9
		c16.3-5.4,34.5-10.9,50.9-14.5c27.2-7.3,52.7-12.7,79.9-18.2c-12.7,5.4-25.4,9.1-38.1,14.5c-12.7,5.4-25.4,9.1-38.1,14.5
		c-25.4,10.9-50.9,20-74.5,32.7c-23.6,10.9-49,23.6-70.8,36.3c-21.8,12.7-41.8,25.4-59.9,39.9c0,3.6-1.8,9.1-1.8,14.5
		c0,7.3-1.8,12.7-1.8,20c-1.8,12.7-1.8,27.2-1.8,39.9c0,27.2,1.8,54.5,5.4,81.7c3.6,27.2,9.1,54.5,16.3,79.9
		c3.6,12.7,7.3,25.4,12.7,38.1c1.8,5.4,5.4,12.7,7.3,18.2c1.8,3.6,1.8,5.4,3.6,9.1l1.8,3.6c1.8,1.8,3.6,1.8,5.4,3.6l12.7,5.4
		c7.3,3.6,16.3,7.3,23.6,10.9c0,0,0,0,1.8-1.8L956.5,310c5.4-1.8,47.2-12.7,119.9-25.4c-5.5-1.8-12.7-1.8-18.2-3.6
		c-16.3-3.6-32.7-9.1-49-16.3c-7.3-3.6-16.3-7.3-23.6-10.9c-7.3-3.6-14.5-9.1-20-16.3c79.9,25.4,247,14.5,394.2,0
		c134.4-14.5,270.7-23.6,406.9-23.6s270.7,9.1,406.9,23.6c147.1,14.5,314.3,27.2,394.2,0c-5.4,7.3-12.7,10.9-20,16.3
		c-7.3,3.6-14.5,7.3-23.6,10.9c-16.3,7.3-32.7,10.9-49,16.3c-1.8,0-5.4,1.8-7.3,1.8c79.9,14.5,127.2,27.2,132.6,29.1l-21.8,81.7
		c3.6-1.8,9.1-3.6,12.7-5.4l12.7-5.4c1.8-1.8,3.6-1.8,5.4-3.6l1.8-3.6c1.8-3.6,3.6-5.4,3.6-9.1c1.8-5.4,5.4-12.7,7.3-18.2
		c5.4-12.7,9.1-25.4,12.7-38.1c7.3-25.4,12.7-52.7,16.4-79.9c3.6-27.2,5.4-54.5,5.4-81.7C2653.1,132.1,2653.1,119.4,2651.3,106.7z"
		/>
	<path fill="#E5CAA3" d="M1862.9,1230.6c-10.9,1.8-21.8,3.6-32.7,3.6c-7.3,0-14.5,1.8-20,1.8h-1.8c9.1-18.2,14.5-32.7,20-43.6
		C1835.7,1203.4,1848.4,1216.1,1862.9,1230.6z"/>
	<path fill="#E5CAA3" d="M1884.7,1254.2c32.7,32.7,74.5,50.8,118.1,54.5c-76.3,30.9-147.1,41.8-201.6,45.4
		c-54.5,3.6-110.8-3.6-165.3-18.2c5.4,0,7.3-1.8,12.7-1.8c3.6,0,101.7-12.7,145.3-78.1h14.5c7.3,0,14.5,0,21.8,0
		c16.3-1.8,32.7-3.6,49-7.3C1881.1,1250.6,1882.9,1252.4,1884.7,1254.2z"/>
	<path fill="#737071" d="M1979.2,275.5c-3.6,3.6-7.3,9.1-10.9,12.7c-20,23.6-45.4,56.3-78.1,85.3c-36.3-1.8-74.5-1.8-114.4-1.8
		c-65.4,0-127.2,1.8-185.3,3.6c83.6-34.5,183.5-69,290.6-89C1913.8,282.8,1946.5,279.2,1979.2,275.5z"/>
	<path fill="#737071" d="M1492.4,311.8c-29.1,20-63.6,47.2-96.3,79.9c-83.6,9.1-156.2,18.2-216.2,27.2
		C1272.6,377.2,1377.9,339.1,1492.4,311.8z"/>
	<path fill="#8D7F81" d="M2507.8,484.3l-34.5,236L2311.6,833l-423.2-47.2l-63.6-208.8c-1.8-5.4-5.4-9.1-10.9-9.1
		c-16.3-1.8-29.1-3.6-41.8-3.6c-10.9,0-25.4,1.8-41.8,3.6c-5.5,0-9.1,5.4-10.9,9.1l-61.8,205.2l-419.6,92.6l-167.1-116.2
		l-32.7-265.1c7.3-3.6,14.5-7.3,21.8-12.7c10.9-1.8,21.8-3.6,34.5-7.3l30.9,250.6c0,3.6,1.8,7.3,5.4,9.1l114.4,79.9
		c1.8,1.8,5.4,1.8,7.3,1.8s1.8,0,3.6,0l345.1-76.3c1.8,0,1.8,0,3.6-1.8c3.6-1.8,5.4-5.4,7.3-9.1l61.8-205.2
		c16.3-3.6,59.9-14.5,96.3-14.5c38.1,0,79.9,9.1,96.3,14.5l61.8,205.2c1.8,5.4,5.4,9.1,10.9,9.1l345.1,39.9c3.6,0,7.3,0,9.1-1.8
		l114.4-79.9c3.6-1.8,5.4-5.4,5.4-9.1l30.9-214.3C2475.1,477.1,2493.3,480.7,2507.8,484.3z"/>
	<path fill="#737071" d="M2551.4,335.4L2522.3,448c-59.9-12.7-194.4-39.9-376-58.1c59.9-25.4,119.9-56.3,174.4-96.2
		C2427.9,310,2507.8,326.4,2551.4,335.4z"/>
	<path fill="#E5CAA3" d="M1332.5,689.5c23.6-12.7,50.9-10.9,92.6-10.9c3.6,0,9.1,0,14.5,0c3.6,0,9.1,0,12.7,0
		c43.6,0,78.1,3.6,78.1-63.6s-30.9-121.7-72.7-121.7c-43.6,0-83.6,56.3-81.7,123.5c0,18.2,3.6,30.9,7.3,39.9
		C1343.4,664.1,1334.3,687.7,1332.5,689.5z M1848.4,411.7c-16.3,12.7-34.5,25.4-52.7,36.3l-61.8,36.3c-38.1,5.4-70.8,14.5-72.7,14.5
		c-1.8,0-1.8,0-3.6,1.8c-3.6,1.8-5.4,5.4-5.4,7.3l-61.8,205.2L1258,787.6l-105.4-72.6L1121.8,468c59.9-10.9,138.1-23.6,234.3-34.5
		c-10.9,12.7-20,25.4-29.1,38.1l-56.3,81.7l81.7-54.5c1.8,0,54.5-36.3,139.9-78.1c85.4-7.3,179.8-10.9,281.6-10.9
		C1801.2,411.7,1824.8,411.7,1848.4,411.7z"/>
	<path fill="#E5CAA3" d="M2211.7,660.5c0-1.8-9.1-29.1-49-23.6c5.4-9.1,7.3-23.6,5.4-41.8c-5.4-67.2-43.6-119.8-87.2-119.8
		c-43.6,1.8-70.8,58.1-67.2,125.3c1.8,67.2,38.1,67.2,81.7,65.4C2151.8,664.1,2182.6,647.8,2211.7,660.5z M2424.2,468l-29.1,208.8
		l-105.4,74.4l-330.6-38.1l-61.8-203.4c-1.8-3.6-5.4-7.3-9.1-9.1c-1.8,0-43.6-12.7-87.2-16.3h7.3c7.3,0,121.7-14.5,257.9-61.7
		C2217.2,433.5,2338.9,451.7,2424.2,468z"/>
	<g>
		<g>
			<defs>
				<rect id="SVGID_2_" x="694" y="-594.2" width="2000" height="1981"/>
			</defs>
			<clipPath id="SVGID_3_">
				<use xlink:href="#SVGID_2_"  overflow="visible"/>
			</clipPath>
			<g id="surface6" clip-path="url(#SVGID_3_)">
				
					<linearGradient id="SVGID_4_" gradientUnits="userSpaceOnUse" x1="1010.839" y1="-87.7268" x2="1050.734" y2="-87.7268" gradientTransform="matrix(18.1652 0 0 -18.1577 -17237.6328 -994.1827)">
					<stop  offset="0" style="stop-color:#010101"/>
					<stop  offset="0.5169" style="stop-color:#808080"/>
					<stop  offset="1" style="stop-color:#010101"/>
				</linearGradient>
				<path fill="url(#SVGID_4_)" d="M1332.5,689.5c23.6-12.7,50.9-10.9,92.6-10.9c3.6,0,9.1,0,14.5,0c3.6,0,9.1,0,12.7,0
					c43.6,0,78.1,3.6,78.1-63.6s-30.9-121.7-72.7-121.7c-43.6,0-83.6,56.3-81.7,123.5c0,18.2,3.6,30.9,7.3,39.9
					C1343.4,664.1,1334.3,687.7,1332.5,689.5z M1848.4,411.7c-16.3,12.7-34.5,25.4-52.7,36.3l-61.8,36.3
					c-38.1,5.4-70.8,14.5-72.7,14.5c-1.8,0-1.8,0-3.6,1.8c-3.6,1.8-5.4,5.4-5.4,7.3l-61.8,205.2L1258,787.6l-105.4-72.6L1121.8,468
					c59.9-10.9,138.1-23.6,234.3-34.5c-10.9,12.7-20,25.4-29.1,38.1l-56.3,81.7l81.7-54.5c1.8,0,54.5-36.3,139.9-78.1
					c85.4-7.3,179.8-10.9,281.6-10.9C1801.2,411.7,1824.8,411.7,1848.4,411.7z"/>
				
					<linearGradient id="SVGID_5_" gradientUnits="userSpaceOnUse" x1="1048.014" y1="-87.0768" x2="1082.3781" y2="-87.0768" gradientTransform="matrix(18.1652 0 0 -18.1577 -17237.6328 -994.1827)">
					<stop  offset="0" style="stop-color:#010101"/>
					<stop  offset="0.5169" style="stop-color:#808080"/>
					<stop  offset="1" style="stop-color:#010101"/>
				</linearGradient>
				<path fill="url(#SVGID_5_)" d="M2211.7,660.5c0-1.8-9.1-29.1-49-23.6c5.4-9.1,7.3-23.6,5.4-41.8
					c-5.4-67.2-43.6-119.8-87.2-119.8c-43.6,1.8-70.8,58.1-67.2,125.3c1.8,67.2,38.1,67.2,81.7,65.4
					C2151.8,664.1,2182.6,647.8,2211.7,660.5z M2424.2,468l-29.1,208.8l-105.4,74.4l-330.6-38.1l-61.8-203.4
					c-1.8-3.6-5.4-7.3-9.1-9.1c-1.8,0-43.6-12.7-87.2-16.3h7.3c7.3,0,121.7-14.5,257.9-61.7C2217.2,433.5,2338.9,451.7,2424.2,468z"
					/>
			</g>
		</g>
	</g>
	<path fill="#E5CAA3" d="M2567.7,558.8c5.5,3.6,9.1,14.5,3.6,65.4c-5.4,61.7-30.9,170.7-47.2,187c-18.2,3.6-54.5,0-78.1-5.4
		c3.6-16.3,5.4-23.6,7.3-38.1l40-27.2c3.6-1.8,5.4-5.4,5.4-9.1L2526,537C2545.9,546.1,2564.1,555.2,2567.7,558.8z"/>
	<path fill="#E5CAA3" d="M1103.6,813c1.8,7.3,3.6,14.5,5.4,21.8c-21.8,5.4-65.4,12.7-85.4,9.1c-16.4-16.3-47.2-128.9-52.7-188.8
		c-5.4-49-1.8-59.9,3.6-63.6c5.4-5.4,27.2-16.3,45.4-27.2l25.4,203.4c0,3.6,1.8,7.3,5.4,9.1L1103.6,813z"/>
	<path fill="#E5CAA3" d="M1908.3,816.6l-1.8,12.7c0,0-45.4,41.8-119.9,52.7c-74.5,9.1-130.8-36.3-130.8-36.3
		c1.8,7.3,5.4,25.4,21.8,39.9c-20-1.8-40-3.6-63.6-3.6c-7.3,0-16.3,0-23.6,0c-45.4,1.8-109,70.8-154.4,139.8
		c-21.8,7.3-90.8,29.1-170.8,52.7c-74.5-103.5-110.8-208.8-114.4-219.7c-1.8-3.6-3.6-9.1-3.6-12.7l18.2,12.7l47.2,32.7l16.3,10.9
		c1.8,1.8,5.4,1.8,7.3,1.8s1.8,0,3.6,0l434.1-96.2c5.4-1.8,9.1-5.4,10.9-9.1l61.8-203.4c10.9-1.8,20-1.8,27.2-1.8s18.2,0,27.2,1.8
		l63.6,210.6c1.8,5.4,5.4,9.1,10.9,9.1L1908.3,816.6z"/>
	<path fill="#E5CAA3" d="M2402.4,805.7l14.5-9.1c-1.8,9.1-5.4,20-7.3,29.1c-20,61.7-41.8,118-67.2,167.1c-5.4,0-10.9,0-18.2,0
		c-20,0-40-1.8-61.8-3.6c-38.1-3.6-99.9-10.9-119.9-12.7c-16.3-12.7-74.5-58.1-121.7-96.2c-1.8-1.8-3.6-3.6-5.4-3.6
		c-9.1-7.3-18.2-14.5-36.3-14.5c-18.2,0-43.6,7.3-105.4,25.4c32.7-23.6,32.7-54.5,32.7-54.5l1.8-12.7l406.9,45.4
		c3.6,0,7.3,0,9.1-1.8l41.8-29.1L2402.4,805.7z"/>
	
		<linearGradient id="SVGID_6_" gradientUnits="userSpaceOnUse" x1="1010.595" y1="-115.7268" x2="1084.3829" y2="-115.7268" gradientTransform="matrix(18.1652 0 0 -18.1577 -17237.6328 -994.1827)">
		<stop  offset="0" style="stop-color:#921A1E"/>
		<stop  offset="2.860000e-02" style="stop-color:#931A1E"/>
		<stop  offset="0.2973" style="stop-color:#A01D22"/>
		<stop  offset="0.5988" style="stop-color:#A81F24"/>
		<stop  offset="1" style="stop-color:#AA1F24"/>
	</linearGradient>
	<path fill="url(#SVGID_6_)" d="M1812.1,1110.8c-1.8,1.8-3.6,3.6-5.4,5.4c-14.5,16.3-27.2,32.7-43.6,49c-9.1,9.1-18.2,20-27.2,29.1
		c-9.1,9.1-18.2,18.2-29.1,27.2c-5.4,3.6-10.9,9.1-14.5,10.9c-5.4,1.8-10.9,3.6-18.2,5.4c-12.7,3.6-25.4,5.4-38.1,7.3
		c-25.4,3.6-52.7,7.3-78.1,10.9c-25.4,3.6-52.7,5.4-78.1,7.3c-25.4,1.8-52.7,3.6-78.1,5.4c-7.3,0-12.7,0-20,0
		c-5.4,0-12.7,0-18.2-1.8c-12.7-1.8-25.4-5.4-36.3-10.9c-23.6-10.9-45.4-27.2-63.6-45.4c16.4,20,36.3,38.1,59.9,52.7
		c10.9,7.3,23.6,12.7,38.1,14.5c7.3,1.8,14.5,1.8,20,3.6c7.3,0,12.7,0,20,0c52.7,0,105.4-5.4,158-10.9c25.4-3.6,52.7-7.3,78.1-10.9
		c12.7-1.8,25.4-5.4,40-9.1c7.3-1.8,12.7-3.6,20-7.3c3.6-1.8,7.3-3.6,9.1-7.3c1.8-1.8,5.4-3.6,7.3-7.3c20-18.2,36.3-38.1,52.7-59.9
		c14.5-18.2,27.2-34.5,40-52.7l-9.1,25.4c0,0-5.4,14.5-32.7,76.3c-27.2,59.9-121.7,72.6-121.7,72.6c-5.4,0-9.1,1.8-14.5,1.8
		c-16.3,3.6-45.4,7.3-161.7,21.8c-16.4,1.8-30.9,1.8-45.4,1.8c-114.4,0-172.6-56.3-219.8-116.2c-27.2-34.5-58.1-78.1-81.7-114.4
		c43.6,20,90.8,41.8,90.8,41.8l7.3,3.6l7.3-1.8c118.1-34.5,228.9-69,230.7-70.8l7.3-1.8l3.6-7.3c65.4-101.7,114.4-127.1,123.5-127.1
		c7.3,0,14.5,0,21.8,0c90.8,0,165.3,27.2,165.3,27.2l7.3,1.8l7.3-1.8c114.4-36.3,167.1-50.8,185.3-50.8c3.6,0,3.6,0,9.1,5.4
		c1.8,1.8,3.6,3.6,5.5,5.4c56.3,43.6,125.3,99.9,125.3,99.9l5.4,3.6h5.4c0,0,79.9,9.1,127.2,14.5c23.6,1.8,45.4,3.6,65.4,3.6
		c36.3,0,63.6-5.4,85.4-16.3c14.5-7.3,32.7-16.3,52.7-25.4c-21.8,39.9-50.9,96.2-72.7,139.8c-29.1,56.3-81.7,69-121.7,78.1
		c-7.3,1.8-12.7,3.6-20,5.4c-29.1,9.1-90.8,23.6-143.5,36.3c-14.5,3.6-29.1,7.3-43.6,10.9c-14.5,3.6-29.1,5.4-41.8,5.4
		c-40,0-74.5-14.5-103.5-43.6c-43.6-43.6-78.1-85.3-79.9-85.3l-16.3-18.2c16.3,14.5,34.5,29.1,50.9,43.6
		c21.8,18.2,43.6,34.5,69,50.8c5.4,3.6,12.7,7.3,20,10.9c0,0,1.8,0,3.6,1.8c1.8,0,1.8,0,3.6,0s3.6,0,5.4,0c3.6,0,7.3,0,10.9,0
		c14.5,0,29.1-1.8,41.8-3.6c27.2-3.6,56.3-9.1,83.6-14.5c54.5-10.9,109-23.6,163.5-39.9c7.3-1.8,12.7-3.6,20-7.3
		c7.3-1.8,14.5-5.4,20-9.1c12.7-7.3,23.6-16.3,34.5-25.4c20-20,36.3-43.6,49-70.8c-14.5,23.6-32.7,47.2-52.7,63.6
		c-10.9,9.1-21.8,16.3-34.5,21.8c-12.7,5.4-25.4,9.1-38.1,12.7c-27.2,7.3-54.5,12.7-81.7,18.2c-27.2,5.4-54.5,10.9-81.7,16.3
		c-27.2,5.4-54.5,10.9-81.7,14.5c-14.5,1.8-27.2,3.6-40,5.4c-3.6,0-7.3,0-9.1,0s-3.6,0-3.6,0h-1.8h-1.8c-5.4-1.8-12.7-5.4-18.2-9.1
		c-23.6-12.7-47.2-29.1-70.8-45.4c-18.2-12.7-36.3-27.2-54.5-39.9C1819.3,1114.4,1815.7,1112.6,1812.1,1110.8z"/>
	
		<linearGradient id="SVGID_7_" gradientUnits="userSpaceOnUse" x1="1052.395" y1="-74.0768" x2="1073.743" y2="-74.0768" gradientTransform="matrix(18.1652 0 0 -18.1577 -17237.6328 -994.1827)">
		<stop  offset="0" style="stop-color:#921A1E"/>
		<stop  offset="2.860000e-02" style="stop-color:#931A1E"/>
		<stop  offset="0.2973" style="stop-color:#A01D22"/>
		<stop  offset="0.5988" style="stop-color:#A81F24"/>
		<stop  offset="1" style="stop-color:#AA1F24"/>
	</linearGradient>
	<path fill="url(#SVGID_7_)" d="M2266.2,279.2c-3.6,1.8-5.4,5.4-9.1,7.3C2122.7,379,1968.3,419,1879.3,435.3
		c63.6-52.7,112.6-114.4,136.2-147.1c7.3-10.9,12.7-18.2,16.3-21.8c45.4,1.8,90.8,3.6,136.2,7.3
		C2200.8,275.5,2233.5,277.3,2266.2,279.2z"/>
	
		<linearGradient id="SVGID_8_" gradientUnits="userSpaceOnUse" x1="1027.6949" y1="-73.2768" x2="1049.924" y2="-73.2768" gradientTransform="matrix(18.1652 0 0 -18.1577 -17237.6328 -994.1827)">
		<stop  offset="0" style="stop-color:#921A1E"/>
		<stop  offset="2.860000e-02" style="stop-color:#931A1E"/>
		<stop  offset="0.2973" style="stop-color:#A01D22"/>
		<stop  offset="0.5988" style="stop-color:#A81F24"/>
		<stop  offset="1" style="stop-color:#AA1F24"/>
	</linearGradient>
	<path fill="url(#SVGID_8_)" d="M1764.8,261c23.6,0,45.4,0,69,0c-38.1,9.1-76.3,18.2-112.6,29.1c-119.9,36.3-221.6,85.3-290.6,121.7
		c78.1-74.4,159.9-116.2,168.9-119.8l61.8-29.1C1697.6,261,1732.1,261,1764.8,261z"/>
	
		<linearGradient id="SVGID_9_" gradientUnits="userSpaceOnUse" x1="996.933" y1="-77.2767" x2="1033.5332" y2="-77.2767" gradientTransform="matrix(18.1652 0 0 -18.1577 -17237.6328 -994.1827)">
		<stop  offset="0" style="stop-color:#921A1E"/>
		<stop  offset="2.860000e-02" style="stop-color:#931A1E"/>
		<stop  offset="0.2973" style="stop-color:#A01D22"/>
		<stop  offset="0.5988" style="stop-color:#A81F24"/>
		<stop  offset="1" style="stop-color:#AA1F24"/>
	</linearGradient>
	<path fill="url(#SVGID_9_)" d="M1536,264.6c-40,7.3-79.9,18.2-118.1,27.2c-239.8,67.2-434.1,183.4-546.8,261.5
		c114.4-138,281.6-243.3,327-268.7c5.4,0,9.1-1.8,14.5-1.8c16.3-1.8,32.7-3.6,50.9-3.6c32.7-1.8,67.2-5.4,99.9-7.3
		C1421.5,270.1,1477.8,266.4,1536,264.6z"/>
	<path fill="#B79E6B" d="M2102.7-51.3c1.8,36.3,0,101.7-16.3,163.4c0,1.8,0,5.4,0,7.3c-21.8-1.8-43.6-3.6-63.6-5.4
		c23.6-50.8,29.1-103.5,30.9-123.5C2071.8-24.1,2090-38.6,2102.7-51.3z"/>
	<path fill="#B79E6B" d="M1488.7-9.6c1.8,18.2,7.3,72.6,30.9,123.5c-21.8,1.8-43.6,3.6-63.6,5.4c0-1.8,0-3.6,0-7.3
		c-16.3-61.7-18.2-127.1-16.3-163.4C1452.4-38.6,1470.6-24.1,1488.7-9.6z"/>
	<path fill="#010101" d="M2211.7,660.5c-29.1-14.5-59.9,3.6-118.1,5.4c-43.6,1.8-78.1,1.8-81.7-65.4
		c-1.8-67.2,25.4-123.5,67.2-125.3c43.6-1.8,81.7,52.7,87.2,119.8c1.8,18.2,0,32.7-5.4,41.8C2202.6,633.2,2211.7,660.5,2211.7,660.5
		z M2077.3,562.4c12.7,0,21.8-10.9,21.8-21.8c0-12.7-10.9-21.8-21.8-21.8c-12.7,0-21.8,10.9-21.8,21.8
		C2055.5,553.3,2064.6,562.4,2077.3,562.4z"/>
	<path fill="#EDF6FA" d="M2099.1,540.6c0,12-9.8,21.8-21.8,21.8s-21.8-9.8-21.8-21.8c0-12,9.8-21.8,21.8-21.8
		S2099.1,528.6,2099.1,540.6z"/>
	<path fill="#010101" d="M1528.7,613.3c0,67.2-34.5,63.6-78.1,63.6c-3.6,0-9.1,0-12.7,0c-5.4,0-9.1,0-14.5,0
		c-41.8,0-69-1.8-92.6,10.9c0-1.8,10.9-25.4,49-34.5c-3.6-9.1-7.3-21.8-7.3-39.9c-1.8-67.2,38.1-123.5,81.7-123.5
		C1497.8,491.6,1528.7,546.1,1528.7,613.3z M1463.3,578.8c12.7,0,21.8-10.9,21.8-21.8c0-12.7-10.9-21.8-21.8-21.8
		c-12.7,0-21.8,10.9-21.8,21.8C1441.5,569.7,1450.6,578.8,1463.3,578.8z"/>
	<path fill="#EDF6FA" d="M1483.3,557c0,12-9.8,21.8-21.8,21.8s-21.8-9.8-21.8-21.8s9.8-21.8,21.8-21.8S1483.3,544.9,1483.3,557z"/>
	<g>
		<g>
			<defs>
				<rect id="SVGID_10_" x="694" y="-594.2" width="2000" height="1981"/>
			</defs>
			<clipPath id="SVGID_11_">
				<use xlink:href="#SVGID_10_"  overflow="visible"/>
			</clipPath>
			<g id="surface9" clip-path="url(#SVGID_11_)">
				<path fill="#D8BC76" d="M1201.7,155.7c0,0,7.3-87.2,20-119.8c7.3-16.3,50.9-27.2,83.6-36.3c32.7-7.3,85.4-23.6,94.5,21.8
					c10.9,45.4,27.2,79.9,38.1,94.4l-14.5-188.8l-225.2,54.5l-14.5,167.1l7.3,12.7L1201.7,155.7"/>
				<path fill="#D8BC76" d="M2342.5,155.7c0,0-7.3-87.2-20-119.8c-7.3-16.3-49-27.2-83.6-36.3c-32.7-7.3-85.4-23.6-94.5,21.8
					c-10.9,45.4-27.2,79.9-38.1,94.4l14.5-188.8l225.2,54.5l14.5,167.1l-7.3,12.7L2342.5,155.7"/>
			</g>
		</g>
	</g>
	<path fill="#D8BC76" fill-opacity="0.749" d="M2024.6-410.8c0,0-5.4,453.9-112.6,453.9c-105.4,0-127.2,0-127.2,0H1763
		c0,0-21.8,0-127.2,0s-114.4-453.9-114.4-453.9l-52.7,154.3v212.4l36.3,29.1l16.3,90.8l23.6,52.7h454.1l21.8-38.1l18.2-63.6
		l1.8-39.9l50.9-143.4L2024.6-410.8z"/>
	<path fill="#D8BC76" fill-opacity="0.749" d="M2358.8,12.2c0,0,21.8,156.2,79.9,185.2c58.1,29.1,0,0,0,0l-81.7-23.6L2358.8,12.2z"
		/>
	<path fill="#D8BC76" fill-opacity="0.749" d="M1183.6,12.2c0,0-21.8,156.2-79.9,185.2c-58.1,29.1,0,0,0,0l81.7-23.6L1183.6,12.2z"
		/>
	<path fill="#010101" d="M2373.4,172c27.2,9.1,54.5,18.2,79.9,32.7c-12.7-5.4-27.2-9.1-41.8-12.7s-27.2-7.3-41.8-9.1
		c-27.2-5.4-56.3-9.1-85.4-12.7c-29.1-3.6-56.3-7.3-85.4-9.1c-29.1-1.8-56.3-5.4-85.4-7.3c-114.4-7.3-228.9-9.1-343.3-9.1
		s-228.9,1.8-343.3,9.1c-29.1,1.8-56.3,3.6-85.4,7.3c-29.1,1.8-56.3,5.4-85.4,9.1c-29.1,3.6-56.3,7.3-85.4,12.7
		c-14.5,1.8-27.2,5.4-41.8,9.1c-14.5,3.6-27.2,7.3-41.8,12.7c25.4-14.5,52.7-23.6,79.9-32.7c1.8,0,5.4-1.8,7.3-1.8v-1.8
		c0-3.6-10.9-78.1,7.3-187c0-5.4,5.4-9.1,9.1-10.9l29.1-9.1c7.3-225.2,99.9-332.3,101.7-335.9c-83.6,134.4-81.7,292.3-81.7,328.7
		l181.7-50.8h1.8c1.8,0,1.8,0,3.6,0h1.8c0,0,1.8,0,1.8,1.8c0,0,5.4,5.4,12.7,12.7c-1.8-59.9,1.8-230.6,81.7-372.2
		c-1.8,5.4-67.2,194.3-43.6,406.7c7.3,5.4,14.5,10.9,21.8,16.3c3.6,1.8,5.4,7.3,5.4,10.9c0,0,1.8,69,30.9,125.3c0,0,0,1.8,1.8,1.8
		c74.5-5.4,149-7.3,223.4-7.3s149,1.8,223.4,7.3c0-1.8,0-1.8,1.8-3.6c29.1-58.1,30.9-125.3,30.9-125.3c0-3.6,1.8-9.1,5.4-10.9
		c7.3-5.4,14.5-10.9,21.8-16.3c21.8-212.4-41.8-401.3-43.6-406.7c81.7,141.6,83.6,312.3,81.7,372.2c7.3-7.3,12.7-12.7,12.7-12.7
		s1.8,0,1.8-1.8h1.8c1.8,0,1.8,0,3.6,0h1.8l181.7,50.8c1.8-36.3,1.8-196.1-81.7-328.7c3.6,3.6,96.3,108.9,101.7,335.9l29.1,9.1
		c5.4,1.8,9.1,5.4,9.1,10.9c18.2,107.1,7.3,183.4,7.3,187v1.8C2369.7,172,2371.6,172,2373.4,172z M2340.7,162.9
		c1.8-12.7,7.3-78.1-5.4-167.1L2130-62.2c1.8,34.5,1.8,110.8-16.4,181.6c0,0,0,1.8-1.8,1.8c1.8,0,3.6,0,5.5,0
		c58.1,7.3,114.4,16.3,172.6,29.1C2306.2,153.9,2324.3,159.3,2340.7,162.9z M2086.4,112.1c16.3-61.7,18.2-127.1,16.3-163.4
		c-12.7,12.7-32.7,27.2-50.9,41.8c-1.8,18.2-7.3,72.6-30.9,123.5c21.8,1.8,43.6,3.6,63.6,5.4
		C2086.4,115.7,2086.4,113.9,2086.4,112.1z M1519.6,112.1c-23.6-50.8-29.1-103.5-30.9-123.5c-18.2-12.7-36.3-29.1-50.9-41.8
		c-1.8,36.3,0,101.7,16.3,163.4c0,1.8,0,5.4,0,7.3C1476,115.7,1497.8,113.9,1519.6,112.1z M1430.6,121.2c0,0,0-1.8-1.8-1.8
		c-20-72.6-18.2-147.1-16.3-181.6L1207.2-4.1c-14.5,89-7.3,156.2-5.5,167.1c16.4-5.4,34.5-9.1,50.9-12.7
		c29.1-5.4,56.3-10.9,85.4-16.3c29.1-5.4,58.1-9.1,85.4-12.7C1427,121.2,1428.8,121.2,1430.6,121.2z"/>
	<path fill="#010101" d="M1986.5-405.4v170.7h-119.9v-49h-27.2v228.8h41.8V74h-212.5V-54.9h41.8v-228.8h-27.2v49h-119.9v-170.7
		H1986.5z M1950.1-271v-98.1h-350.6v98.1h47.2v-49h99.9v301.4h-41.8v56.3H1843v-56.3h-41.8V-320h99.9v49H1950.1z"/>
	
		<linearGradient id="SVGID_12_" gradientUnits="userSpaceOnUse" x1="1036.947" y1="-45.6269" x2="1056.327" y2="-45.6269" gradientTransform="matrix(18.1652 0 0 -18.1577 -17237.6328 -994.1827)">
		<stop  offset="0" style="stop-color:#921A1E"/>
		<stop  offset="2.860000e-02" style="stop-color:#931A1E"/>
		<stop  offset="0.2973" style="stop-color:#A01D22"/>
		<stop  offset="0.5988" style="stop-color:#A81F24"/>
		<stop  offset="1" style="stop-color:#AA1F24"/>
	</linearGradient>
	<path fill="url(#SVGID_12_)" d="M1950.1-369.1v98.1h-47.2v-49H1803v301.4h41.8v56.3h-139.9v-56.3h41.8V-320h-99.9v49h-47.2v-98.1
		H1950.1z"/>
	<path fill="#C12028" d="M2082.7,259.2c0,0-87.2,127.1-223.4,181.6l12.7-29.1L2021,241L2082.7,259.2z"/>
	<path fill="#C12028" d="M1737.6,255.6c0,0-156.2,32.7-317.9,163.4l-9.1-5.4l245.2-174.3L1737.6,255.6z"/>
	<path fill="#C12028" d="M843.9,573.3c0,0,214.3-221.5,479.6-305.1l-156.2,3.6C1167.2,270.1,856.6,489.8,843.9,573.3z"/>
	<path fill="#871628" d="M1541.4,253.7c0,0-372.4,30.9-688.5,315.9l14.5-1.8c0,0,372.4-246.9,668.5-276L1541.4,253.7z"/>
	<path fill="#871628" d="M1434.2,413.5c0,0,181.7-143.4,515.9-185.2l-89,56.3C1859.3,286.4,1565,351.8,1434.2,413.5z"/>
	<path fill="#871628" d="M1870.2,437.1c0,0,247-74.4,348.8-174.3l83.6,16.3C2302.5,279.2,2044.6,437.1,1870.2,437.1z"/>
	<path fill="#C12028" d="M2108.2,1049c0,0,201.6,3.6,256.1-3.6s114.4-65.4,114.4-65.4l-94.5,27.2l-248.9-5.4L1979.2,882l-187.1,47.2
		l-218-18.2l-121.7,132.6l-228.9,69l-114.4-34.5l103.5,83.5l272.5-65.4c0,0,92.6-128.9,119.9-138c27.2-7.3,167.1,16.3,185.3,58.1
		c0,0-5.4-25.4,99.9-52.7c98.1-25.4,90.8-7.3,127.2,20C2053.7,1007.3,2108.2,1049,2108.2,1049z"/>
	<path fill="#871628" d="M1812.1,1112.6c0,0-87.2,114.4-123.5,127.1c-36.3,12.7-272.5,36.3-316.1,32.7
		c-43.6-3.6-94.5-47.2-107.2-59.9c-12.7-12.7-161.7-141.6-161.7-141.6l50.9,125.3c0,0,116.3,123.5,179.8,138
		c65.4,14.5,181.7-1.8,268.8-14.5c87.2-12.7,158-45.4,185.3-96.2c27.2-50.8,32.7-65.4,32.7-65.4s83.6,118,156.2,130.7
		s285.2-59.9,285.2-59.9s130.8-36.3,152.6-79.9c23.6-45.4,83.6-192.5,83.6-192.5l-85.4,45.4c0,0-27.2,107.1-116.3,148.9
		c-89,43.6-294.3,65.4-294.3,65.4s-41.8,9.1-69-9.1C1910.2,1188.9,1812.1,1112.6,1812.1,1112.6z"/>
	<path fill="#737071" d="M1001.9,335.4c18.2-3.6,41.8-9.1,70.8-14.5c-18.2,12.7-38.1,27.2-61.8,45.4L1001.9,335.4z"/>
	<path fill="#010101" d="M1821.2,1119.9l16.3,18.2c0,0,36.3,41.8,79.9,85.3c29.1,29.1,63.6,43.6,103.5,43.6
		c12.7,0,27.2-1.8,41.8-5.4c12.7-3.6,27.2-7.3,43.6-10.9c54.5-12.7,114.4-27.2,143.5-36.3c5.4-1.8,12.7-3.6,20-5.4
		c40-9.1,92.6-21.8,121.7-78.1c21.8-43.6,50.9-98.1,72.7-139.8c-18.2,9.1-38.1,18.2-52.7,25.4c-21.8,10.9-49,16.3-85.4,16.3
		c-21.8,0-41.8-1.8-65.4-3.6c-47.2-3.6-125.3-14.5-127.2-14.5h-5.4l-5.4-3.6c0,0-70.8-56.3-125.3-99.9c-1.8-1.8-3.6-3.6-5.4-5.4
		c-5.5-5.4-5.5-5.4-9.1-5.4c-18.2,0-70.8,16.3-185.3,50.8l-7.3,1.8l-7.3-1.8c0,0-76.3-27.2-165.3-27.2c-7.3,0-14.5,0-21.8,0
		c-9.1,0-59.9,23.6-123.5,127.1l-3.6,7.3l-7.3,1.8c-1.8,0-112.6,36.3-230.7,70.8l-7.3,1.8l-7.3-3.6c0,0-47.2-21.8-90.8-41.8
		c23.6,36.3,54.5,79.9,81.7,114.4c47.2,59.9,107.2,116.2,219.8,116.2c14.5,0,29.1,0,45.4-1.8c116.3-12.7,145.3-18.2,161.7-21.8
		c5.4,0,9.1-1.8,14.5-1.8c1.8,0,96.3-12.7,121.7-72.6c27.2-61.7,32.7-76.3,32.7-76.3l9.1-25.4l-1.8-1.8c1.8-1.8,3.6-3.6,5.4-5.4
		c3.6,1.8,5.4,3.6,9.1,7.3L1821.2,1119.9z M1100-38.6c-25.4,10.9-50.9,20-74.5,32.7c-23.6,10.9-49,23.6-70.8,36.3
		c-21.8,12.7-41.8,25.4-59.9,39.9c0,3.6-1.8,9.1-1.8,14.5c0,7.3-1.8,12.7-1.8,20c-1.8,12.7-1.8,27.2-1.8,39.9
		c0,27.2,1.8,54.5,5.4,81.7c3.6,27.2,9.1,54.5,16.3,79.9c3.6,12.7,7.3,25.4,12.7,38.1c1.8,5.4,5.4,12.7,7.3,18.2
		c1.8,3.6,1.8,5.4,3.6,9.1l1.8,3.6c1.8,1.8,3.6,1.8,5.4,3.6l12.7,5.4c7.3,3.6,16.3,7.3,23.6,10.9c0,0,0,0,1.8-1.8l-21.8-85.3
		c5.4-1.8,47.2-12.7,119.9-25.4c-5.5-1.8-12.7-1.8-18.2-3.6c-16.3-3.6-32.7-9.1-49-16.3c-7.3-3.6-16.4-7.3-23.6-10.9
		c-7.3-3.6-14.5-9.1-20-16.3c79.9,25.4,247,14.5,394.2,0c134.4-14.5,270.7-23.6,406.9-23.6s270.7,9.1,406.9,23.6
		c147.1,14.5,314.3,27.2,394.2,0c-5.4,7.3-12.7,10.9-20,16.3c-7.3,3.6-14.5,7.3-23.6,10.9c-16.3,7.3-32.7,10.9-49,16.3
		c-1.8,0-5.4,1.8-7.3,1.8c79.9,14.5,127.2,27.2,132.6,29.1l-21.8,81.7c3.6-1.8,9.1-3.6,12.7-5.4l12.7-5.4c1.8-1.8,3.6-1.8,5.4-3.6
		l1.8-3.6c1.8-3.6,3.6-5.4,3.6-9.1c1.8-5.4,5.4-12.7,7.3-18.2c5.4-12.7,9.1-25.4,12.7-38.1c7.3-25.4,12.7-52.7,16.4-79.9
		c3.6-27.2,5.4-54.5,5.4-81.7c0-12.7,0-27.2-1.8-39.9c0-7.3-1.8-12.7-1.8-20c0-5.4-1.8-9.1-1.8-14.5c-18.2-14.5-38.1-29.1-59.9-39.9
		c-23.6-12.7-47.2-25.4-70.8-36.3c-23.6-10.9-49-21.8-74.5-32.7c-12.7-5.4-25.4-10.9-38.1-14.5c-12.7-5.4-25.4-9.1-38.1-14.5
		c27.2,3.6,54.5,10.9,79.9,18.2c16.3,3.6,34.5,9.1,50.9,14.5c-121.7-315.9-410.5-522.9-726.6-522.9s-604.9,205.2-726.6,522.9
		c16.3-5.4,34.5-10.9,50.9-14.5c27.2-7.3,52.7-12.7,79.9-18.2c-12.7,5.4-25.4,9.1-38.1,14.5C1125.4-47.7,1112.7-42.2,1100-38.6z
		 M2693.1,144.8c1.8,29.1,0,58.1-1.8,87.2c-3.6,29.1-9.1,58.1-16.3,85.3c-3.6,14.5-9.1,27.2-14.5,41.8c-3.6,7.3-5.4,14.5-9.1,20
		c-1.8,3.6-3.6,7.3-5.4,10.9l-3.6,5.4c-1.8,1.8-1.8,3.6-3.6,5.4l-3.6,5.4l-5.4,1.8c-5.4,1.8-9.1,3.6-12.7,7.3l-12.7,5.4
		c-9.1,3.6-18.2,7.3-25.4,10.9c-5.4,1.8-10.9,3.6-16.4,7.3l-14.5,54.5c0,0-5.4-1.8-12.7-3.6v5.4c16.3,9.1,47.2,25.4,58.1,34.5
		c21.8,18.2,23.6,45.4,18.2,98.1c-1.8,27.2-10.9,79.9-23.6,127.1c-21.8,83.5-32.7,92.6-47.2,96.2c-7.3,1.8-18.2,3.6-30.9,3.6
		c-21.8,0-52.7,0-74.5-3.6c-5.4,18.2-20,69-50.9,128.9c1.8,0,3.6-1.8,3.6-1.8c36.3-20,109-50.8,110.8-52.7L2555,902l-29.1,54.5
		c0,1.8-61.8,118-99.9,194.3c-38.1,74.4-109,92.6-150.8,101.7c-7.3,1.8-12.7,3.6-18.2,3.6c-30.9,9.1-92.6,23.6-145.3,36.3h-1.8
		c-32.7,20-69,38.1-109,54.5c-145.3,54.5-299.7,52.7-437.8,1.8c-21.8,3.6-52.7,7.3-92.6,10.9c-18.2,1.8-34.5,3.6-49,3.6
		c-132.6,0-203.4-67.2-254.3-132.6c-54.5-70.8-121.7-176.1-125.3-179.8l-38.1-59.9l65.4,29.1c30.9,14.5,125.3,58.1,152.6,70.8
		c1.8,0,3.6-1.8,7.3-1.8c-45.4-63.6-81.7-136.2-107.2-216.1c-21.8,7.3-56.3,10.9-81.7,10.9c-9.1,0-18.2,0-25.4-1.8
		c-14.5-3.6-30.9-18.2-54.5-98.1c-12.7-47.2-23.6-98.1-25.4-123.5c-5.4-50.8-5.4-78.1,16.4-96.2c12.7-10.9,56.3-32.7,65.4-38.1
		l-1.8-16.3C876.6,589.7,794.8,662.3,793,664.1l-98.1,85.3l70.8-110.8c54.5-87.2,119.9-158,178-212.4c-1.8-1.8-5.4-1.8-7.3-3.6
		l-12.7-5.4c-3.6-1.8-9.1-3.6-12.7-7.3l-5.4-1.8l-3.6-5.4c-1.8-1.8-1.8-3.6-3.6-5.4l-3.6-5.4c-1.8-3.6-3.6-7.3-5.4-10.9
		c-3.6-7.3-5.4-14.5-9.1-20c-5.4-14.5-10.9-27.2-14.5-41.8c-7.3-29.1-12.7-56.3-16.3-85.3c-3.6-29.1-3.6-58.1-1.8-87.2
		c0-14.5,1.8-29.1,3.6-43.6c1.8-7.3,1.8-14.5,3.6-21.8s3.6-14.5,5.4-21.8L862,54l3.6-3.6c23.6-18.2,47.2-30.9,72.7-43.6
		c20-9.1,41.8-18.2,63.6-25.4c59.9-165.2,161.7-310.5,296.1-412.2c138.1-105.3,301.5-161.6,472.3-161.6
		c170.8,0,332.4,56.3,472.3,161.6C2377-329.1,2478.7-182,2538.7-18.6c21.8,7.3,41.8,16.3,63.6,25.4c25.4,12.7,49,25.4,72.7,43.6
		l3.6,3.6l1.8,5.4c1.8,7.3,3.6,14.5,5.4,21.8s1.8,14.5,3.6,21.8C2691.3,115.7,2693.1,130.3,2693.1,144.8z M2573.2,624.2
		c3.6-50.8,0-61.7-5.5-65.4c-5.4-3.6-21.8-14.5-40-23.6l-27.2,194.3c0,3.6-1.8,7.3-5.4,9.1l-40,27.2c-3.6,16.3-3.6,23.6-7.3,38.1
		c21.8,5.4,59.9,9.1,78.1,5.4C2542.3,794.8,2567.7,687.7,2573.2,624.2z M2522.3,448l29.1-112.6c-43.6-9.1-123.5-25.4-230.7-41.8
		c-54.5,39.9-116.3,70.8-174.4,96.2C2326.1,408.1,2460.6,435.3,2522.3,448z M2475.1,720.4l34.5-236c-14.5-3.6-34.5-7.3-58.1-10.9
		l-30.9,214.3c0,3.6-1.8,7.3-5.4,9.1l-114.4,79.9c-1.8,1.8-5.4,3.6-9.1,1.8l-345.1-39.9c-5.4,0-10.9-3.6-10.9-9.1l-61.8-205.2
		c-16.3-3.6-59.9-14.5-96.3-14.5c-38.1,0-79.9,9.1-96.3,14.5l-61.8,205.2c-1.8,3.6-3.6,7.3-7.3,9.1c-1.8,0-1.8,1.8-3.6,1.8
		l-345.1,76.3c-1.8,0-1.8,0-3.6,0c-3.6,0-5.4,0-7.3-1.8l-114.4-79.9c-3.6-1.8-5.4-5.4-5.4-9.1l-30.9-250.6
		c-12.7,1.8-23.6,5.4-34.5,7.3c-7.3,3.6-14.5,7.3-21.8,12.7l32.7,265.1l167.1,116.2l419.6-92.6l61.8-203.4c1.8-5.4,5.4-9.1,10.9-9.1
		c16.3-1.8,29.1-3.6,41.8-3.6c10.9,0,25.4,1.8,41.8,3.6c5.4,0,9.1,5.4,10.9,9.1l63.6,208.8l423.2,47.2L2475.1,720.4z M2393.4,676.8
		l29.1-208.8c-83.6-14.5-207.1-34.5-359.7-45.4c-136.2,47.2-250.7,61.7-257.9,61.7h-7.3c43.6,3.6,85.4,14.5,87.2,16.3
		c3.6,1.8,7.3,5.4,9.1,9.1l61.8,203.4l330.6,38.1L2393.4,676.8z M2417,794.8l-14.5,9.1l-38.1,27.2l-41.8,29.1
		c-3.6,1.8-5.4,1.8-9.1,1.8l-406.9-45.4l-29.1-3.6c-5.4,0-10.9-3.6-10.9-9.1L1803,593.3c-10.9-1.8-20-1.8-27.2-1.8s-18.2,0-27.2,1.8
		l-61.8,203.4c-1.8,5.4-5.4,9.1-10.9,9.1L1241.7,902c-1.8,0-1.8,0-3.6,0c-3.6,0-5.4,0-7.3-1.8l-16.3-10.9l-47.2-32.7l-18.2-12.7
		c1.8,3.6,3.6,9.1,3.6,12.7c3.6,10.9,40,116.2,114.4,219.7c79.9-23.6,149-45.4,170.8-52.7c45.4-69,109-138,154.4-139.8
		c7.3,0,16.4,0,23.6,0c21.8,0,43.6,1.8,63.6,3.6c-16.3-14.5-20-32.7-21.8-39.9c0,0,58.1,45.4,130.8,36.3
		c74.5-9.1,119.9-52.7,119.9-52.7s0,30.9-32.7,54.5c61.8-18.2,87.2-25.4,105.4-25.4c20,0,29.1,7.3,36.3,14.5
		c1.8,1.8,3.6,1.8,5.4,3.6c47.2,38.1,105.4,83.5,121.7,96.2c20,1.8,79.9,9.1,119.9,12.7c21.8,1.8,41.8,3.6,61.8,3.6
		c7.3,0,12.7,0,18.2,0c25.4-49,49-103.5,67.2-167.1C2411.5,814.8,2415.2,803.9,2417,794.8z M2266.2,279.2
		c-32.7-1.8-65.4-5.4-98.1-7.3c-45.4-1.8-90.8-5.4-136.2-7.3c-1.8,3.6-7.3,10.9-16.3,21.8c-25.4,32.7-74.5,94.4-136.2,147.1
		c89-16.3,243.4-56.3,377.8-148.9C2260.8,284.6,2262.6,282.8,2266.2,279.2z M1968.3,288.2c3.6-5.4,7.3-9.1,10.9-12.7
		c-32.7,3.6-65.4,7.3-96.3,14.5c-107.2,20-207.1,54.5-290.6,89c58.1-3.6,119.9-3.6,185.3-3.6c38.1,0,76.3,0,114.4,1.8
		C1922.9,344.5,1948.3,313.7,1968.3,288.2z M2004.6,1308.7c-45.4-3.6-85.4-21.8-118.1-54.5c-1.8-1.8-3.6-3.6-5.4-5.4
		c-16.3,3.6-32.7,5.4-49,7.3c-7.3,0-12.7,0-21.8,0h-14.5c-43.6,65.4-141.7,78.1-145.3,78.1s-7.3,1.8-12.7,1.8
		c54.5,14.5,109,21.8,165.3,18.2C1857.5,1350.5,1928.3,1339.6,2004.6,1308.7z M1830.2,1234.2c10.9,0,21.8-1.8,32.7-3.6
		c-14.5-14.5-25.4-27.2-36.3-38.1c-5.4,10.9-10.9,25.4-20,43.6h1.8C1815.7,1236.1,1823,1234.2,1830.2,1234.2z M1797.5,448
		c18.2-10.9,36.3-23.6,52.7-36.3c-23.6,0-47.2,0-72.7,0c-101.7,0-196.2,3.6-281.6,10.9c-85.4,41.8-138.1,76.3-139.9,78.1l-81.7,54.5
		l56.3-81.7c9.1-12.7,20-27.2,29.1-38.1c-94.5,10.9-174.4,23.6-234.3,34.5l30.9,245.1l105.4,72.6l332.4-74.4l61.8-205.2
		c1.8-3.6,3.6-5.4,5.4-7.3c1.8,0,1.8-1.8,3.6-1.8s34.5-9.1,72.7-14.5L1797.5,448z M1835.7,261c-23.6,0-45.4,0-69,0
		c-34.5,0-67.2,0-101.7,1.8l-61.8,29.1c-9.1,5.4-90.8,45.4-168.9,119.8c69-36.3,170.8-83.5,290.6-121.7
		C1757.6,279.2,1795.7,270.1,1835.7,261z M1396.1,391.7c32.7-32.7,65.4-58.1,96.3-79.9c-114.4,27.2-219.8,65.4-310.6,107.1
		C1241.7,409.9,1314.3,400.8,1396.1,391.7z M1417.9,293.7c38.1-10.9,78.1-20,118.1-27.2c-58.1,1.8-116.3,5.4-174.4,7.3
		c-34.5,1.8-67.2,3.6-99.9,7.3c-16.3,1.8-32.7,1.8-50.9,3.6c-5.5,0-9.1,1.8-14.5,1.8c-43.6,25.4-210.7,130.7-327,268.7
		C983.7,477.1,1178.1,360.9,1417.9,293.7z M1110.9,834.8c-1.8-7.3-3.6-14.5-5.4-21.8l-50.9-36.3c-3.6-1.8-5.4-5.4-5.4-9.1
		l-25.4-203.4c-18.2,9.1-40,21.8-45.4,27.2c-5.4,3.6-9.1,14.5-3.6,63.6c7.3,59.9,36.3,172.5,52.7,188.8
		C1045.5,847.5,1089.1,840.2,1110.9,834.8z M1072.8,320.9c-29.1,5.4-52.7,10.9-70.8,14.5l9.1,30.9
		C1032.8,348.2,1054.6,333.6,1072.8,320.9z"/>
	<path fill="#010101" fill-opacity="0.2" d="M1645,802.1c0,0,5.4,30.9-40,45.4c-43.6,12.7-325.2,96.2-356,92.6
		c-32.7-3.6-112.6-58.1-112.6-58.1l-20-70.8l112.6,61.7L1645,802.1z"/>
	<path fill="#010101" fill-opacity="0.2" d="M1897.4,796.6c0,0-3.6,32.7,41.8,43.6c45.4,10.9,328.8,83.5,359.7,76.3
		c30.9-5.4,110.8-63.6,110.8-63.6l16.3-70.8l-110.8,65.4L1897.4,796.6z"/>
	<path fill="#010101" fill-opacity="0.2" d="M978.3,744c0,0,38.1,78.1,101.7,50.8l45.4,16.3l-3.6,32.7l-94.5,12.7l-25.4-14.5
		L978.3,744z"/>
	<path fill="#010101" fill-opacity="0.2" d="M2569.6,722.2c0,0-63.6,81.7-125.3,54.5l-20,12.7l3.6,32.7l94.5,12.7l25.4-14.5
		L2569.6,722.2z"/>
	<path fill="#010101" fill-opacity="0.2" d="M1586.8,1332.3c0,0,230.7,116.2,490.5-41.8l-83.6-5.4c0,0-181.7,72.6-327,32.7
		L1586.8,1332.3z"/>
	<path fill="#010101" d="M2395.2,1056.3c-10.9,25.4-27.2,50.8-47.2,70.8c-10.9,9.1-21.8,18.2-34.5,25.4c-5.5,3.6-12.7,7.3-20,9.1
		c-7.3,1.8-12.7,3.6-20,7.3c-54.5,16.3-109,29.1-163.5,39.9c-27.2,5.4-54.5,10.9-83.6,14.5c-14.5,1.8-27.2,3.6-41.8,3.6
		c-3.6,0-7.3,0-10.9,0c-1.8,0-3.6,0-5.4,0s-1.8,0-3.6,0s-1.8,0-3.6-1.8c-7.3-3.6-12.7-7.3-20-10.9c-23.6-14.5-47.2-32.7-69-50.8
		c-18.2-14.5-34.5-29.1-50.9-43.6l1.8-1.8c18.2,12.7,36.3,27.2,54.5,39.9c23.6,16.3,45.4,32.7,69,45.4c5.4,3.6,12.7,7.3,18.2,9.1
		h1.8h1.8c1.8,0,3.6,0,3.6,0c3.6,0,7.3,0,9.1,0c12.7-1.8,27.2-3.6,40-5.4c27.2-3.6,54.5-9.1,81.7-14.5c27.2-5.4,54.5-10.9,81.7-16.3
		c27.2-5.4,54.5-12.7,81.7-18.2c12.7-3.6,27.2-7.3,38.1-12.7c12.7-5.4,23.6-12.7,34.5-21.8
		C2362.5,1103.5,2380.6,1081.7,2395.2,1056.3z"/>
	<path fill="#010101" d="M1806.6,1116.2l1.8,1.8c-12.7,18.2-25.4,34.5-40,52.7c-16.3,20-34.5,39.9-52.7,59.9
		c-1.8,1.8-5.4,5.4-7.3,7.3c-1.8,1.8-5.4,3.6-9.1,7.3c-7.3,3.6-12.7,5.4-20,7.3c-12.7,3.6-25.4,5.4-40,9.1
		c-25.4,3.6-52.7,7.3-78.1,10.9c-52.7,5.4-105.4,10.9-158,10.9c-7.3,0-12.7,0-20,0s-14.5-1.8-20-3.6c-12.7-3.6-25.4-9.1-38.1-14.5
		c-23.6-12.7-43.6-30.9-59.9-52.7c18.2,18.2,40,34.5,63.6,45.4c10.9,5.4,23.6,9.1,36.3,10.9c5.4,1.8,12.7,1.8,18.2,1.8
		c7.3,0,12.7,0,20,0c25.4-1.8,52.7-3.6,78.1-5.4c25.4-1.8,52.7-5.4,78.1-7.3c25.4-3.6,52.7-5.4,78.1-10.9
		c12.7-1.8,25.4-3.6,38.1-7.3c5.4-1.8,12.7-3.6,18.2-5.4c3.6-1.8,9.1-7.3,14.5-10.9c9.1-9.1,18.2-18.2,29.1-27.2
		c9.1-9.1,18.2-18.2,27.2-29.1C1779.4,1148.9,1792.1,1132.6,1806.6,1116.2z"/>
</g>
</svg>
