<?xml version="1.0" encoding="UTF-8"?>
<svg xmlns="http://www.w3.org/2000/svg" xmlns:xlink="http://www.w3.org/1999/xlink" width="2000pt" height="2000pt" viewBox="0 0 2000 2000" version="1.1">
<g id="surface1">
<path style=" stroke:none;fill-rule:evenodd;fill:rgb(26.666667%,32.941176%,41.568627%);fill-opacity:1;" d="M 2000 1875 C 2000 1944 1944 2000 1875 2000 L 125 2000 C 56 2000 0 1944 0 1875 L 0 125 C 0 56 56 0 125 0 L 1875 0 C 1944 0 2000 56 2000 125 Z M 2000 1875 "/>
<path style=" stroke:none;fill-rule:nonzero;fill:rgb(100%,100%,100%);fill-opacity:1;" d="M 1214.6875 1471.6875 C 1174.6875 1471.6875 1139.3125 1462.375 1108.1875 1443.75 C 1084.625 1429.8125 1062.5 1400.375 1062.5 1375 C 1062.5 1349.625 1062.5 1331.3125 1062.5 1250 L 1062.5 875 L 1375 875 L 1375 625 L 1062.5 625 L 1062.5 312.5 L 812.5 312.5 C 812.5 348.5 812.5 437.5 812.5 437.5 C 812.5 575.5625 700.5625 687.5 562.5 687.5 L 562.5 875 L 750 875 L 750 1375 C 750 1439.125 748.0625 1489.25 759.375 1517.75 C 772.875 1551.5625 789.6875 1581.625 824.4375 1611.6875 C 859.3125 1641.5625 886.8125 1659.5 936.125 1675.625 C 990.0625 1693.4375 1047.0625 1700 1106.125 1700 C 1162.5625 1700 1215.125 1694.3125 1263.6875 1683 C 1312.25 1671.625 1379.1875 1649 1437.5 1612.5 L 1437.5 1393.75 C 1368.25 1447.5 1285.625 1471.6875 1214.6875 1471.6875 Z M 1214.6875 1471.6875 "/>
</g>
</svg>
