<?xml version="1.0" encoding="utf-8"?>
<!-- Generator: Adobe Illustrator 18.1.1, SVG Export Plug-In . SVG Version: 6.00 Build 0)  -->
<!DOCTYPE svg PUBLIC "-//W3C//DTD SVG 1.1//EN" "http://www.w3.org/Graphics/SVG/1.1/DTD/svg11.dtd">
<svg version="1.1" id="Layer_1" xmlns="http://www.w3.org/2000/svg" xmlns:xlink="http://www.w3.org/1999/xlink" x="0px" y="0px"
	 viewBox="694 -604 2000 2000" enable-background="new 694 -604 2000 2000" xml:space="preserve">
<g id="surface1">
	<path fill="#76787A" d="M2697,396c0-273.6-97.8-508.7-293.4-703.9c-195.6-194-432.5-291-709.6-291c-275.8,0-512.8,97-709.6,291
		C788.8-112.6,691,122.4,691,396c0,274.9,97.8,509.9,293.4,703.9c196.8,194,433.8,291,709.6,291c277.1,0,514-97,709.6-291
		C2599.2,905.9,2697,670.8,2697,396z M2430,396c0,201.5-72.7,373.1-215.6,516.1c-144.2,143-317.2,213.9-520.3,213.9
		c-203.1,0-376.1-70.9-520.3-213.9c-142.9-143-215.6-314.7-215.6-516.1s72.7-373.1,215.6-516.1C1317.9-261.9,1490.9-334,1694-334
		c203.1,0,376.1,72.1,520.3,213.9C2357.3,22.9,2430,194.5,2430,396z"/>
	<path fill="#FFFFFF" d="M2214.3,912.1C2357.3,769.1,2430,597.5,2430,396s-72.7-373.1-215.6-516.1C2070.2-261.9,1897.1-334,1694-334
		c-203.1,0-376.1,72.1-520.3,213.9C1030.8,22.9,958.1,194.6,958.1,396s72.7,373.1,215.6,516.1c144.2,143,317.2,213.9,520.3,213.9
		S2070.2,1055.2,2214.3,912.1z"/>
	<path fill="#ED1C24" d="M1440.8-35.6c-55.2,0-102.8,19.9-141.7,58.4c-38.9,39.8-58.9,85.8-58.9,140.6c0,54.7,20.1,102,58.9,140.5
		c38.9,39.8,86.5,58.4,141.7,58.4c55.2,0,102.8-18.6,141.7-58.4c38.9-38.5,58.9-85.8,58.9-140.5c0-54.7-20-100.7-58.9-140.6
		C1543.6-15.6,1495.9-35.6,1440.8-35.6z"/>
	<path fill="#D5D8DF" d="M1948.5-35.6c-55.2,0-102.8,19.9-141.7,58.4c-38.9,39.8-58.9,85.8-58.9,140.6c0,54.7,20.1,102,58.9,140.5
		c38.9,39.8,86.5,58.4,141.7,58.4s102.8-18.6,141.7-58.4c40.1-38.5,58.9-85.8,58.9-140.5c0-54.7-18.8-100.7-58.9-140.6
		C2051.3-15.6,2003.7-35.6,1948.5-35.6z M1440.8,429.6c-55.2,0-102.8,19.9-141.7,58.4c-38.9,38.5-58.9,85.8-58.9,140.5
		c0,54.7,20.1,102,58.9,140.6c38.9,38.6,86.5,58.4,141.7,58.4c55.2,0,102.8-19.9,141.7-58.4c38.9-38.6,58.9-85.8,58.9-140.6
		c0-54.7-20-102-58.9-140.5C1543.6,449.5,1495.9,429.6,1440.8,429.6z"/>
	<path fill="#ED1C24" d="M1948.5,429.6c-53.9,0-101.6,18.7-141.7,58.4c-40.1,39.8-58.9,85.8-58.9,141.8
		c0,53.5,18.8,100.7,58.9,139.3c40.1,38.6,87.8,58.4,141.7,58.4c56.4,0,102.8-19.9,141.7-58.4c40.1-38.6,58.9-85.8,58.9-139.3
		c0-56-18.8-102-58.9-141.8C2051.3,448.3,2004.9,429.6,1948.5,429.6z"/>
</g>
</svg>
