<?xml version="1.0" encoding="utf-8"?>
<!-- Generator: Adobe Illustrator 18.1.1, SVG Export Plug-In . SVG Version: 6.00 Build 0)  -->
<!DOCTYPE svg PUBLIC "-//W3C//DTD SVG 1.1//EN" "http://www.w3.org/Graphics/SVG/1.1/DTD/svg11.dtd">
<svg version="1.1" id="Layer_1" xmlns="http://www.w3.org/2000/svg" xmlns:xlink="http://www.w3.org/1999/xlink" x="0px" y="0px"
	 viewBox="694 -604 2000 2000" enable-background="new 694 -604 2000 2000" xml:space="preserve">
<g id="surface1">
	<path fill="#0098DA" d="M1693.3,1396C1140.7,1396,694,948.6,694,396c0-554,448.2-1000.7,1002.9-1000
		c551.1,0.7,997.8,448.9,997.1,1001.5S2245.8,1396,1693.3,1396z M1713-190.1c-34.3,2.9-66.4,5.1-97.8,8.8
		c-305.1,32.1-526.3,307.3-494.9,614.6c20.4,202.2,123.4,349.6,295.6,450.4c27.7,16.1,32.8,32.1,27,60.6
		c-9.5,47.4-16.8,95.6-24.1,143.8c-4.4,28.5,11.7,43.1,40.1,39.4c23.4-2.9,30.7-20.4,36.5-40.1c18.2-64.2,35.8-128.5,55.5-192.7
		c123.4-398.5,245.3-797.8,419-1178.8c2.2-4.4,4.4-8.8,5.1-13.9c5.8-24.8-2.9-38-29.2-37.2c-21.9,0.7-39.4,10.9-56.2,23.4
		c-26.3,19.7-49.6,44.5-67.2,71.5C1795.5-197.4,1763.3-171.2,1713-190.1z M1678.7,950.7c42.3,1.5,87.6-5.8,132.8-15.3
		c234.3-49.6,406.6-225.6,448.9-457.7c40.1-220.4-65-454-259.1-577.4c-26.3-16.8-40.9-20.4-50.4,14.6c-6.6,24.8-15.3,48.9-26.3,71.5
		c-35,70.8-21.9,127.7,32.1,187.6c73,80.3,92,180.3,67.9,286.9c-30.7,133.6-117.5,218.2-245.3,254
		c-89.1,24.8-136.5,75.9-158.4,162.8C1601.3,952.9,1596.9,951.5,1678.7,950.7z"/>
	<path fill="#FFFFFF" d="M1713-190.1c50.4,19,82.5-7.3,110.9-50.4c17.5-27,40.9-51.8,67.2-71.5c16.8-12.4,34.3-22.6,56.2-23.4
		c26.3-0.7,35,12.4,29.2,37.2c-1.5,4.4-2.9,9.5-5.1,13.9c-173.7,381-295.6,780.3-419,1178.8c-19.7,63.5-37.2,128.5-55.5,192.7
		c-5.8,19.7-13.1,37.2-36.5,40.1c-28.5,3.6-44.5-10.9-40.1-39.4c7.3-48.2,13.9-96.4,24.1-143.8c5.8-28.5,0.7-44.5-27-60.6
		c-172.3-100.7-275.2-248.2-295.6-450.4c-31.4-306.6,189.1-581.8,494.9-614.6C1646.6-184.3,1678.7-186.5,1713-190.1z M1661.9,46.4
		c-135.8,17.5-249.6,109.5-289.1,232.8c-48.2,153.3,5.8,277.4,116.8,388.3C1530.5,455.1,1575,247.1,1661.9,46.4z"/>
	<path fill="#FFFFFF" d="M1678.7,950.7c-81.8,0.7-78.1,1.5-59.1-73.7c21.9-86.9,69.3-138,158.4-162.8
		c127.7-35.8,214.6-120.4,245.3-254c24.1-105.8,5.1-205.8-67.9-286.9c-54-59.9-67.2-116.8-32.1-187.6c10.9-22.6,19.7-47.4,26.3-71.5
		c9.5-35,24.8-31.4,50.4-14.6C2194,23.7,2299.1,256.6,2259,477c-42.3,232.1-214.6,407.3-448.9,457.7
		C1766.3,945.6,1721,952.2,1678.7,950.7z"/>
	<path fill="#0098DA" d="M1661.9,46.4c-86.9,200.7-131.4,408.8-172.3,621.2c-110.9-110.9-165-235-116.8-388.3
		C1412.2,155.9,1526.1,63.9,1661.9,46.4z"/>
</g>
</svg>
