<?xml version="1.0" encoding="utf-8"?>
<!-- Generator: Adobe Illustrator 18.1.1, SVG Export Plug-In . SVG Version: 6.00 Build 0)  -->
<!DOCTYPE svg PUBLIC "-//W3C//DTD SVG 1.1//EN" "http://www.w3.org/Graphics/SVG/1.1/DTD/svg11.dtd">
<svg version="1.1" id="Layer_1" xmlns="http://www.w3.org/2000/svg" xmlns:xlink="http://www.w3.org/1999/xlink" x="0px" y="0px"
	 viewBox="694 -603 2000 2000" enable-background="new 694 -603 2000 2000" xml:space="preserve">
<g id="surface1">
	<path fill="#FFFFFF" d="M2691.2,587c9,33.9-13,29.9-34.9,29.9c-653.5,0-1307,0-1960.5,0c0-39.9,0-79.8,0-119.7
		C740.7,589,797.5,620.9,882.3,602c76.8-17,106.8-64.9,107.8-170.6c1-65.9,2-132.7-1-198.6c-1-18-15-35.9-23.9-54.9
		c79.8,0,159.6,0,239.5,0c-65.9,22.9-107.8,64.9-108.8,137.7c-1,81.8-2,162.6,1,244.4c0,13,16,25.9,24.9,39.9
		c8-14,22.9-26.9,22.9-40.9c2-76.8,0-152.7,2-229.5c3-67.8,38.9-103.8,97.8-101.8c58.9,1,90.8,37.9,90.8,106.8
		c1,74.8-1,149.7,1,224.5c0,14,16,26.9,23.9,40.9c9-13,24.9-25.9,24.9-39.9c3-67.8-1-136.7,2-204.5c5-82.8-20-145.7-102.8-177.6
		c76.8,0,152.7,0,229.5,0c-7,16-18,31.9-19,47.9c-2,111.7-2,222.5,0,334.2c0,13,16,26.9,24.9,39.9c8-14,22.9-26.9,22.9-40.9
		c2-110.7,2-222.5,0-334.2c0-16-13-31.9-20-46.9c72.8,0,146.7,0,219.5,0c-7,4-15,8-21.9,11c-55.9,23.9-80.8,62.9-76.8,120.7
		c4,50.9,32.9,81.8,91.8,96.8c21.9,6,45.9,7,67.8,13c35.9,10,72.8,21.9,69.8,69.8s-38.9,67.8-78.8,65.9c-37.9-2-75.8-19-113.7-26.9
		c-14-3-28.9,3-42.9,5c5,12,7,28.9,16,35.9c52.9,42.9,159.6,47.9,217.5,13c40.9-24.9,55.9-62.9,53.9-109.8
		c-2-46.9-27.9-77.8-70.8-91.8c-29.9-10-60.9-14-91.8-21c-38.9-9-69.8-24.9-64.9-72.8c4-38.9,35.9-62.9,83.8-58.9
		c27.9,2,53.9,15,81.8,19c11,2,22.9-5,34.9-8c-6-12-9-28.9-18-34.9c-17-12-37.9-18-57.9-26.9c96.8,0,192.6,0,289.3,0
		c-56.9,22.9-100.8,60.9-106.8,124.7c-5,58.9-6,119.7,0,178.6c8,75.8,62.9,121.7,137.7,124.7c78.8,3,132.7-32.9,149.7-108.8
		c9-40.9,7-85.8,9-127.7c4-86.8-22.9-155.6-109.8-190.6c102.8,0,206.5,0,309.3,0c-82.8,30.9-107.8,93.8-104.8,176.6
		c2,60.9-2,122.7,2,184.6c1,21,16,58.9,23.9,57.9c40.9-1,26.9-36.9,26.9-60.9c2-72.8,0-145.7,1-219.5c1-37.9,16-73.8,53.9-79.8
		c32.9-5,75.8-2,100.8,16c21,16,29.9,57.9,31.9,88.8c5,72.8,1,145.7,2,218.5C2639.3,603,2657.3,611.9,2691.2,587z"/>
	<path fill="#FFFFFF" d="M725.7,177.9c76.8,0,152.7,0,229.5,0c-6,20-17,39.9-17,59.9c-2,75.8,1,152.7-2,228.5
		c-2,76.8-84.8,122.7-144.7,75.8c-23.9-19-38.9-60.9-41.9-93.8c-5-70.8,0-142.7-2-213.5C746.6,215.8,733.7,196.9,725.7,177.9z"/>
	<path d="M2192.4,177.9c86.8,34.9,113.7,103.8,109.8,190.6c-2,42.9,0,86.8-9,127.7c-17,75.8-70.8,111.7-149.7,108.8
		c-74.8-3-129.7-48.9-137.7-124.7c-6-58.9-5-119.7,0-178.6c6-63.9,49.9-101.8,106.8-124.7C2139.5,177.9,2166.4,177.9,2192.4,177.9z
		 M2048.7,392.4c4,31.9,6,65.9,14,97.8c12,45.9,43.9,68.8,91.8,67.8c47.9-1,81.8-26.9,87.8-72.8c7-59.9,6-121.7,1-182.6
		c-4-45.9-36.9-72.8-84.8-74.8c-47.9-3-82.8,21-94.8,69.8C2054.7,328.6,2053.7,359.5,2048.7,392.4z"/>
	<path d="M725.7,177.9c7,19,21,36.9,21,55.9c3,71.8-2,143.7,4,213.5c3,32.9,18,74.8,41.9,93.8c58.9,46.9,141.7,2,144.7-75.8
		c2-75.8,0-152.7,2-228.5c1-20,11-39.9,17-58.9c3,0,7,0,10,0c8,18,22.9,35.9,23.9,54.9c3,65.9,2,132.7,1,198.6
		c-2,105.8-31.9,153.6-108.8,170.6c-84.8,20-141.7-12-186.6-104.8c0-97.8,2-196.6-1-294.3C693.8,171.9,709.7,178.9,725.7,177.9z"/>
	<path d="M2691.2,587c-34.9,24.9-51.9,16-51.9-26.9c0-72.8,3-146.7-2-218.5c-2-30.9-11-72.8-31.9-88.8c-24.9-18-67.8-20.9-100.8-16
		c-37.9,6-53.9,41.9-53.9,79.8c-1,72.8,0,145.7-1,219.5c-1,23.9,13,59.9-26.9,60.9c-8,0-22.9-36.9-23.9-57.9
		c-3-60.9,1-122.7-2-184.6c-3-82.8,22.9-145.7,104.8-176.6c26.9,0,52.9,0,79.8,0c55.9,18,90.8,55.9,109.8,109.8
		C2691.2,387.4,2691.2,487.2,2691.2,587z"/>
	<path d="M1823.2,177.9c20,9,40.9,15,57.9,26.9c10,7,12,22.9,18,34.9c-12,3-23.9,10-34.9,8c-27.9-5-53.9-17-81.8-19
		c-47.9-4-79.8,20-83.8,58.9c-5,46.9,26.9,63.9,64.9,72.8c30.9,7,61.9,12,91.8,21c42.9,14,68.8,44.9,70.8,91.8s-13,84.8-53.9,109.8
		c-57.9,34.9-164.6,29.9-217.5-13c-9-7-11-23.9-16-35.9c14-2,29.9-8,42.9-5c37.9,8,75.8,24.9,113.7,26.9c39.9,2,74.8-18,78.8-65.9
		c3-48.9-32.9-59.9-69.8-69.8c-21.9-6-45.9-8-67.8-13c-58.9-15-87.8-46.9-91.8-96.8c-4-57.9,21-96.8,76.8-120.7c8-3,15-7,21.9-11
		C1770.3,177.9,1797.3,177.9,1823.2,177.9z"/>
	<path d="M1284.4,177.9c82.8,30.9,106.8,94.8,103.8,177.6c-3,67.8,1,136.7-2,204.5c-1,14-16,26.9-24.9,39.9
		c-9-14-23.9-26.9-23.9-40.9c-2-74.8-1-149.7-1-224.5c-1-68.8-32.9-105.8-91.8-106.8c-58.9-1-94.8,33.9-96.8,101.8
		c-3,76.8,0,152.7-2,229.5c0,14-15,27.9-22.9,40.9c-9-13-24.9-25.9-24.9-39.9c-2-81.8-2-162.6-1-244.4
		c1-71.8,42.9-114.7,107.8-137.7C1231.5,177.9,1258.5,177.9,1284.4,177.9z"/>
	<path d="M1523.9,177.9c7,16,20,31.9,20,46.9c2,111.7,2,222.5,0,334.2c0,14-15,26.9-22.9,40.9c-9-13-23.9-26.9-24.9-39.9
		c-2-110.8-2-222.5,0-334.2c0-16,12-31.9,19-47.9C1517.9,177.9,1520.9,177.9,1523.9,177.9z"/>
	<path fill="#FFFFFF" d="M2691.2,287.7c-19-53.9-53.9-91.8-109.8-109.8c36.9,0,72.8,0,109.8,0
		C2691.2,214.8,2691.2,251.8,2691.2,287.7z"/>
	<path fill="#FFFFFF" d="M2048.7,392.4c4-31.9,6-63.9,13-94.8c12-48.9,46.9-72.8,94.8-69.8s80.8,29.9,84.8,74.8
		c6,59.9,6,121.7-1,182.6c-5,44.9-38.9,71.8-87.8,72.8c-47.9,1-79.8-22.9-91.8-67.8C2054.7,458.3,2053.7,424.4,2048.7,392.4z"/>
</g>
</svg>
