<?xml version="1.0" encoding="UTF-8"?>
<svg xmlns="http://www.w3.org/2000/svg" xmlns:xlink="http://www.w3.org/1999/xlink" width="2000pt" height="2000pt" viewBox="0 0 2000 2000" version="1.1">
<defs>
<clipPath id="clip1">
  <path d="M 1308 687 L 1500 687 L 1500 692 L 1308 692 Z M 1308 687 "/>
</clipPath>
<clipPath id="clip2">
  <path d="M 1417.578125 1109.375 L 1683.984375 923.828125 C 1660.9375 914.84375 1634.375 871.875 1618.75 815.234375 C 1604.6875 764.0625 1603.90625 714.84375 1616.015625 692.96875 C 1617.1875 691.015625 1618.359375 689.453125 1619.53125 687.890625 L 1311.71875 716.796875 L 1301.953125 716.796875 C 1321.09375 838.671875 1356.25 973.4375 1416.015625 1110.15625 Z M 1417.578125 1109.375 "/>
</clipPath>
<clipPath id="clip3">
  <path d="M 1307 687 L 1511 687 L 1511 697 L 1307 697 Z M 1307 687 "/>
</clipPath>
<clipPath id="clip4">
  <path d="M 1417.578125 1109.375 L 1683.984375 923.828125 C 1660.9375 914.84375 1634.375 871.875 1618.75 815.234375 C 1604.6875 764.0625 1603.90625 714.84375 1616.015625 692.96875 C 1617.1875 691.015625 1618.359375 689.453125 1619.53125 687.890625 L 1311.71875 716.796875 L 1301.953125 716.796875 C 1321.09375 838.671875 1356.25 973.4375 1416.015625 1110.15625 Z M 1417.578125 1109.375 "/>
</clipPath>
<clipPath id="clip5">
  <path d="M 1306 687 L 1522 687 L 1522 702 L 1306 702 Z M 1306 687 "/>
</clipPath>
<clipPath id="clip6">
  <path d="M 1417.578125 1109.375 L 1683.984375 923.828125 C 1660.9375 914.84375 1634.375 871.875 1618.75 815.234375 C 1604.6875 764.0625 1603.90625 714.84375 1616.015625 692.96875 C 1617.1875 691.015625 1618.359375 689.453125 1619.53125 687.890625 L 1311.71875 716.796875 L 1301.953125 716.796875 C 1321.09375 838.671875 1356.25 973.4375 1416.015625 1110.15625 Z M 1417.578125 1109.375 "/>
</clipPath>
<clipPath id="clip7">
  <path d="M 1305 687 L 1533 687 L 1533 708 L 1305 708 Z M 1305 687 "/>
</clipPath>
<clipPath id="clip8">
  <path d="M 1417.578125 1109.375 L 1683.984375 923.828125 C 1660.9375 914.84375 1634.375 871.875 1618.75 815.234375 C 1604.6875 764.0625 1603.90625 714.84375 1616.015625 692.96875 C 1617.1875 691.015625 1618.359375 689.453125 1619.53125 687.890625 L 1311.71875 716.796875 L 1301.953125 716.796875 C 1321.09375 838.671875 1356.25 973.4375 1416.015625 1110.15625 Z M 1417.578125 1109.375 "/>
</clipPath>
<clipPath id="clip9">
  <path d="M 1303 687 L 1544 687 L 1544 713 L 1303 713 Z M 1303 687 "/>
</clipPath>
<clipPath id="clip10">
  <path d="M 1417.578125 1109.375 L 1683.984375 923.828125 C 1660.9375 914.84375 1634.375 871.875 1618.75 815.234375 C 1604.6875 764.0625 1603.90625 714.84375 1616.015625 692.96875 C 1617.1875 691.015625 1618.359375 689.453125 1619.53125 687.890625 L 1311.71875 716.796875 L 1301.953125 716.796875 C 1321.09375 838.671875 1356.25 973.4375 1416.015625 1110.15625 Z M 1417.578125 1109.375 "/>
</clipPath>
<clipPath id="clip11">
  <path d="M 1301 687 L 1555 687 L 1555 718 L 1301 718 Z M 1301 687 "/>
</clipPath>
<clipPath id="clip12">
  <path d="M 1417.578125 1109.375 L 1683.984375 923.828125 C 1660.9375 914.84375 1634.375 871.875 1618.75 815.234375 C 1604.6875 764.0625 1603.90625 714.84375 1616.015625 692.96875 C 1617.1875 691.015625 1618.359375 689.453125 1619.53125 687.890625 L 1311.71875 716.796875 L 1301.953125 716.796875 C 1321.09375 838.671875 1356.25 973.4375 1416.015625 1110.15625 Z M 1417.578125 1109.375 "/>
</clipPath>
<clipPath id="clip13">
  <path d="M 1301 687 L 1566 687 L 1566 724 L 1301 724 Z M 1301 687 "/>
</clipPath>
<clipPath id="clip14">
  <path d="M 1417.578125 1109.375 L 1683.984375 923.828125 C 1660.9375 914.84375 1634.375 871.875 1618.75 815.234375 C 1604.6875 764.0625 1603.90625 714.84375 1616.015625 692.96875 C 1617.1875 691.015625 1618.359375 689.453125 1619.53125 687.890625 L 1311.71875 716.796875 L 1301.953125 716.796875 C 1321.09375 838.671875 1356.25 973.4375 1416.015625 1110.15625 Z M 1417.578125 1109.375 "/>
</clipPath>
<clipPath id="clip15">
  <path d="M 1301 687 L 1577 687 L 1577 729 L 1301 729 Z M 1301 687 "/>
</clipPath>
<clipPath id="clip16">
  <path d="M 1417.578125 1109.375 L 1683.984375 923.828125 C 1660.9375 914.84375 1634.375 871.875 1618.75 815.234375 C 1604.6875 764.0625 1603.90625 714.84375 1616.015625 692.96875 C 1617.1875 691.015625 1618.359375 689.453125 1619.53125 687.890625 L 1311.71875 716.796875 L 1301.953125 716.796875 C 1321.09375 838.671875 1356.25 973.4375 1416.015625 1110.15625 Z M 1417.578125 1109.375 "/>
</clipPath>
<clipPath id="clip17">
  <path d="M 1301 687 L 1588 687 L 1588 734 L 1301 734 Z M 1301 687 "/>
</clipPath>
<clipPath id="clip18">
  <path d="M 1417.578125 1109.375 L 1683.984375 923.828125 C 1660.9375 914.84375 1634.375 871.875 1618.75 815.234375 C 1604.6875 764.0625 1603.90625 714.84375 1616.015625 692.96875 C 1617.1875 691.015625 1618.359375 689.453125 1619.53125 687.890625 L 1311.71875 716.796875 L 1301.953125 716.796875 C 1321.09375 838.671875 1356.25 973.4375 1416.015625 1110.15625 Z M 1417.578125 1109.375 "/>
</clipPath>
<clipPath id="clip19">
  <path d="M 1301 687 L 1599 687 L 1599 739 L 1301 739 Z M 1301 687 "/>
</clipPath>
<clipPath id="clip20">
  <path d="M 1417.578125 1109.375 L 1683.984375 923.828125 C 1660.9375 914.84375 1634.375 871.875 1618.75 815.234375 C 1604.6875 764.0625 1603.90625 714.84375 1616.015625 692.96875 C 1617.1875 691.015625 1618.359375 689.453125 1619.53125 687.890625 L 1311.71875 716.796875 L 1301.953125 716.796875 C 1321.09375 838.671875 1356.25 973.4375 1416.015625 1110.15625 Z M 1417.578125 1109.375 "/>
</clipPath>
<clipPath id="clip21">
  <path d="M 1301 687 L 1610 687 L 1610 745 L 1301 745 Z M 1301 687 "/>
</clipPath>
<clipPath id="clip22">
  <path d="M 1417.578125 1109.375 L 1683.984375 923.828125 C 1660.9375 914.84375 1634.375 871.875 1618.75 815.234375 C 1604.6875 764.0625 1603.90625 714.84375 1616.015625 692.96875 C 1617.1875 691.015625 1618.359375 689.453125 1619.53125 687.890625 L 1311.71875 716.796875 L 1301.953125 716.796875 C 1321.09375 838.671875 1356.25 973.4375 1416.015625 1110.15625 Z M 1417.578125 1109.375 "/>
</clipPath>
<clipPath id="clip23">
  <path d="M 1301 687 L 1621 687 L 1621 750 L 1301 750 Z M 1301 687 "/>
</clipPath>
<clipPath id="clip24">
  <path d="M 1417.578125 1109.375 L 1683.984375 923.828125 C 1660.9375 914.84375 1634.375 871.875 1618.75 815.234375 C 1604.6875 764.0625 1603.90625 714.84375 1616.015625 692.96875 C 1617.1875 691.015625 1618.359375 689.453125 1619.53125 687.890625 L 1311.71875 716.796875 L 1301.953125 716.796875 C 1321.09375 838.671875 1356.25 973.4375 1416.015625 1110.15625 Z M 1417.578125 1109.375 "/>
</clipPath>
<clipPath id="clip25">
  <path d="M 1301 687 L 1632 687 L 1632 755 L 1301 755 Z M 1301 687 "/>
</clipPath>
<clipPath id="clip26">
  <path d="M 1417.578125 1109.375 L 1683.984375 923.828125 C 1660.9375 914.84375 1634.375 871.875 1618.75 815.234375 C 1604.6875 764.0625 1603.90625 714.84375 1616.015625 692.96875 C 1617.1875 691.015625 1618.359375 689.453125 1619.53125 687.890625 L 1311.71875 716.796875 L 1301.953125 716.796875 C 1321.09375 838.671875 1356.25 973.4375 1416.015625 1110.15625 Z M 1417.578125 1109.375 "/>
</clipPath>
<clipPath id="clip27">
  <path d="M 1301 690 L 1643 690 L 1643 760 L 1301 760 Z M 1301 690 "/>
</clipPath>
<clipPath id="clip28">
  <path d="M 1417.578125 1109.375 L 1683.984375 923.828125 C 1660.9375 914.84375 1634.375 871.875 1618.75 815.234375 C 1604.6875 764.0625 1603.90625 714.84375 1616.015625 692.96875 C 1617.1875 691.015625 1618.359375 689.453125 1619.53125 687.890625 L 1311.71875 716.796875 L 1301.953125 716.796875 C 1321.09375 838.671875 1356.25 973.4375 1416.015625 1110.15625 Z M 1417.578125 1109.375 "/>
</clipPath>
<clipPath id="clip29">
  <path d="M 1301 693 L 1654 693 L 1654 766 L 1301 766 Z M 1301 693 "/>
</clipPath>
<clipPath id="clip30">
  <path d="M 1417.578125 1109.375 L 1683.984375 923.828125 C 1660.9375 914.84375 1634.375 871.875 1618.75 815.234375 C 1604.6875 764.0625 1603.90625 714.84375 1616.015625 692.96875 C 1617.1875 691.015625 1618.359375 689.453125 1619.53125 687.890625 L 1311.71875 716.796875 L 1301.953125 716.796875 C 1321.09375 838.671875 1356.25 973.4375 1416.015625 1110.15625 Z M 1417.578125 1109.375 "/>
</clipPath>
<clipPath id="clip31">
  <path d="M 1301 696 L 1661 696 L 1661 771 L 1301 771 Z M 1301 696 "/>
</clipPath>
<clipPath id="clip32">
  <path d="M 1417.578125 1109.375 L 1683.984375 923.828125 C 1660.9375 914.84375 1634.375 871.875 1618.75 815.234375 C 1604.6875 764.0625 1603.90625 714.84375 1616.015625 692.96875 C 1617.1875 691.015625 1618.359375 689.453125 1619.53125 687.890625 L 1311.71875 716.796875 L 1301.953125 716.796875 C 1321.09375 838.671875 1356.25 973.4375 1416.015625 1110.15625 Z M 1417.578125 1109.375 "/>
</clipPath>
<clipPath id="clip33">
  <path d="M 1301 700 L 1663 700 L 1663 775 L 1301 775 Z M 1301 700 "/>
</clipPath>
<clipPath id="clip34">
  <path d="M 1417.578125 1109.375 L 1683.984375 923.828125 C 1660.9375 914.84375 1634.375 871.875 1618.75 815.234375 C 1604.6875 764.0625 1603.90625 714.84375 1616.015625 692.96875 C 1617.1875 691.015625 1618.359375 689.453125 1619.53125 687.890625 L 1311.71875 716.796875 L 1301.953125 716.796875 C 1321.09375 838.671875 1356.25 973.4375 1416.015625 1110.15625 Z M 1417.578125 1109.375 "/>
</clipPath>
<clipPath id="clip35">
  <path d="M 1301 705 L 1663 705 L 1663 780 L 1301 780 Z M 1301 705 "/>
</clipPath>
<clipPath id="clip36">
  <path d="M 1417.578125 1109.375 L 1683.984375 923.828125 C 1660.9375 914.84375 1634.375 871.875 1618.75 815.234375 C 1604.6875 764.0625 1603.90625 714.84375 1616.015625 692.96875 C 1617.1875 691.015625 1618.359375 689.453125 1619.53125 687.890625 L 1311.71875 716.796875 L 1301.953125 716.796875 C 1321.09375 838.671875 1356.25 973.4375 1416.015625 1110.15625 Z M 1417.578125 1109.375 "/>
</clipPath>
<clipPath id="clip37">
  <path d="M 1301 709 L 1664 709 L 1664 785 L 1301 785 Z M 1301 709 "/>
</clipPath>
<clipPath id="clip38">
  <path d="M 1417.578125 1109.375 L 1683.984375 923.828125 C 1660.9375 914.84375 1634.375 871.875 1618.75 815.234375 C 1604.6875 764.0625 1603.90625 714.84375 1616.015625 692.96875 C 1617.1875 691.015625 1618.359375 689.453125 1619.53125 687.890625 L 1311.71875 716.796875 L 1301.953125 716.796875 C 1321.09375 838.671875 1356.25 973.4375 1416.015625 1110.15625 Z M 1417.578125 1109.375 "/>
</clipPath>
<clipPath id="clip39">
  <path d="M 1301 714 L 1665 714 L 1665 790 L 1301 790 Z M 1301 714 "/>
</clipPath>
<clipPath id="clip40">
  <path d="M 1417.578125 1109.375 L 1683.984375 923.828125 C 1660.9375 914.84375 1634.375 871.875 1618.75 815.234375 C 1604.6875 764.0625 1603.90625 714.84375 1616.015625 692.96875 C 1617.1875 691.015625 1618.359375 689.453125 1619.53125 687.890625 L 1311.71875 716.796875 L 1301.953125 716.796875 C 1321.09375 838.671875 1356.25 973.4375 1416.015625 1110.15625 Z M 1417.578125 1109.375 "/>
</clipPath>
<clipPath id="clip41">
  <path d="M 1301 719 L 1666 719 L 1666 795 L 1301 795 Z M 1301 719 "/>
</clipPath>
<clipPath id="clip42">
  <path d="M 1417.578125 1109.375 L 1683.984375 923.828125 C 1660.9375 914.84375 1634.375 871.875 1618.75 815.234375 C 1604.6875 764.0625 1603.90625 714.84375 1616.015625 692.96875 C 1617.1875 691.015625 1618.359375 689.453125 1619.53125 687.890625 L 1311.71875 716.796875 L 1301.953125 716.796875 C 1321.09375 838.671875 1356.25 973.4375 1416.015625 1110.15625 Z M 1417.578125 1109.375 "/>
</clipPath>
<clipPath id="clip43">
  <path d="M 1381 723 L 1667 723 L 1667 800 L 1381 800 Z M 1381 723 "/>
</clipPath>
<clipPath id="clip44">
  <path d="M 1833.601562 758.550781 L 1601.527344 531.511719 C 1597.011719 555.832031 1559.761719 589.957031 1507.039062 615.894531 C 1459.394531 639.273438 1411.1875 649.238281 1387.4375 641.429688 C 1385.296875 640.644531 1383.542969 639.785156 1381.789062 638.925781 L 1467.71875 935.917969 L 1469.542969 945.511719 C 1585.695312 903.929688 1711.519531 844.203125 1834.660156 759.9375 Z M 1833.601562 758.550781 "/>
</clipPath>
<clipPath id="clip45">
  <path d="M 1301 729 L 1668 729 L 1668 804 L 1301 804 Z M 1301 729 "/>
</clipPath>
<clipPath id="clip46">
  <path d="M 1417.578125 1109.375 L 1683.984375 923.828125 C 1660.9375 914.84375 1634.375 871.875 1618.75 815.234375 C 1604.6875 764.0625 1603.90625 714.84375 1616.015625 692.96875 C 1617.1875 691.015625 1618.359375 689.453125 1619.53125 687.890625 L 1311.71875 716.796875 L 1301.953125 716.796875 C 1321.09375 838.671875 1356.25 973.4375 1416.015625 1110.15625 Z M 1417.578125 1109.375 "/>
</clipPath>
<clipPath id="clip47">
  <path d="M 1301 733 L 1669 733 L 1669 809 L 1301 809 Z M 1301 733 "/>
</clipPath>
<clipPath id="clip48">
  <path d="M 1417.578125 1109.375 L 1683.984375 923.828125 C 1660.9375 914.84375 1634.375 871.875 1618.75 815.234375 C 1604.6875 764.0625 1603.90625 714.84375 1616.015625 692.96875 C 1617.1875 691.015625 1618.359375 689.453125 1619.53125 687.890625 L 1311.71875 716.796875 L 1301.953125 716.796875 C 1321.09375 838.671875 1356.25 973.4375 1416.015625 1110.15625 Z M 1417.578125 1109.375 "/>
</clipPath>
<clipPath id="clip49">
  <path d="M 1301 739 L 1670 739 L 1670 814 L 1301 814 Z M 1301 739 "/>
</clipPath>
<clipPath id="clip50">
  <path d="M 1417.578125 1109.375 L 1683.984375 923.828125 C 1660.9375 914.84375 1634.375 871.875 1618.75 815.234375 C 1604.6875 764.0625 1603.90625 714.84375 1616.015625 692.96875 C 1617.1875 691.015625 1618.359375 689.453125 1619.53125 687.890625 L 1311.71875 716.796875 L 1301.953125 716.796875 C 1321.09375 838.671875 1356.25 973.4375 1416.015625 1110.15625 Z M 1417.578125 1109.375 "/>
</clipPath>
<clipPath id="clip51">
  <path d="M 1301 743 L 1671 743 L 1671 819 L 1301 819 Z M 1301 743 "/>
</clipPath>
<clipPath id="clip52">
  <path d="M 1417.578125 1109.375 L 1683.984375 923.828125 C 1660.9375 914.84375 1634.375 871.875 1618.75 815.234375 C 1604.6875 764.0625 1603.90625 714.84375 1616.015625 692.96875 C 1617.1875 691.015625 1618.359375 689.453125 1619.53125 687.890625 L 1311.71875 716.796875 L 1301.953125 716.796875 C 1321.09375 838.671875 1356.25 973.4375 1416.015625 1110.15625 Z M 1417.578125 1109.375 "/>
</clipPath>
<clipPath id="clip53">
  <path d="M 1301 748 L 1672 748 L 1672 824 L 1301 824 Z M 1301 748 "/>
</clipPath>
<clipPath id="clip54">
  <path d="M 1417.578125 1109.375 L 1683.984375 923.828125 C 1660.9375 914.84375 1634.375 871.875 1618.75 815.234375 C 1604.6875 764.0625 1603.90625 714.84375 1616.015625 692.96875 C 1617.1875 691.015625 1618.359375 689.453125 1619.53125 687.890625 L 1311.71875 716.796875 L 1301.953125 716.796875 C 1321.09375 838.671875 1356.25 973.4375 1416.015625 1110.15625 Z M 1417.578125 1109.375 "/>
</clipPath>
<clipPath id="clip55">
  <path d="M 1301 753 L 1672 753 L 1672 829 L 1301 829 Z M 1301 753 "/>
</clipPath>
<clipPath id="clip56">
  <path d="M 1417.578125 1109.375 L 1683.984375 923.828125 C 1660.9375 914.84375 1634.375 871.875 1618.75 815.234375 C 1604.6875 764.0625 1603.90625 714.84375 1616.015625 692.96875 C 1617.1875 691.015625 1618.359375 689.453125 1619.53125 687.890625 L 1311.71875 716.796875 L 1301.953125 716.796875 C 1321.09375 838.671875 1356.25 973.4375 1416.015625 1110.15625 Z M 1417.578125 1109.375 "/>
</clipPath>
<clipPath id="clip57">
  <path d="M 1301 758 L 1674 758 L 1674 834 L 1301 834 Z M 1301 758 "/>
</clipPath>
<clipPath id="clip58">
  <path d="M 1417.578125 1109.375 L 1683.984375 923.828125 C 1660.9375 914.84375 1634.375 871.875 1618.75 815.234375 C 1604.6875 764.0625 1603.90625 714.84375 1616.015625 692.96875 C 1617.1875 691.015625 1618.359375 689.453125 1619.53125 687.890625 L 1311.71875 716.796875 L 1301.953125 716.796875 C 1321.09375 838.671875 1356.25 973.4375 1416.015625 1110.15625 Z M 1417.578125 1109.375 "/>
</clipPath>
<clipPath id="clip59">
  <path d="M 1301 763 L 1674 763 L 1674 838 L 1301 838 Z M 1301 763 "/>
</clipPath>
<clipPath id="clip60">
  <path d="M 1417.578125 1109.375 L 1683.984375 923.828125 C 1660.9375 914.84375 1634.375 871.875 1618.75 815.234375 C 1604.6875 764.0625 1603.90625 714.84375 1616.015625 692.96875 C 1617.1875 691.015625 1618.359375 689.453125 1619.53125 687.890625 L 1311.71875 716.796875 L 1301.953125 716.796875 C 1321.09375 838.671875 1356.25 973.4375 1416.015625 1110.15625 Z M 1417.578125 1109.375 "/>
</clipPath>
<clipPath id="clip61">
  <path d="M 1302 767 L 1675 767 L 1675 843 L 1302 843 Z M 1302 767 "/>
</clipPath>
<clipPath id="clip62">
  <path d="M 1417.578125 1109.375 L 1683.984375 923.828125 C 1660.9375 914.84375 1634.375 871.875 1618.75 815.234375 C 1604.6875 764.0625 1603.90625 714.84375 1616.015625 692.96875 C 1617.1875 691.015625 1618.359375 689.453125 1619.53125 687.890625 L 1311.71875 716.796875 L 1301.953125 716.796875 C 1321.09375 838.671875 1356.25 973.4375 1416.015625 1110.15625 Z M 1417.578125 1109.375 "/>
</clipPath>
<clipPath id="clip63">
  <path d="M 1303 772 L 1676 772 L 1676 848 L 1303 848 Z M 1303 772 "/>
</clipPath>
<clipPath id="clip64">
  <path d="M 1417.578125 1109.375 L 1683.984375 923.828125 C 1660.9375 914.84375 1634.375 871.875 1618.75 815.234375 C 1604.6875 764.0625 1603.90625 714.84375 1616.015625 692.96875 C 1617.1875 691.015625 1618.359375 689.453125 1619.53125 687.890625 L 1311.71875 716.796875 L 1301.953125 716.796875 C 1321.09375 838.671875 1356.25 973.4375 1416.015625 1110.15625 Z M 1417.578125 1109.375 "/>
</clipPath>
<clipPath id="clip65">
  <path d="M 1304 777 L 1677 777 L 1677 853 L 1304 853 Z M 1304 777 "/>
</clipPath>
<clipPath id="clip66">
  <path d="M 1417.578125 1109.375 L 1683.984375 923.828125 C 1660.9375 914.84375 1634.375 871.875 1618.75 815.234375 C 1604.6875 764.0625 1603.90625 714.84375 1616.015625 692.96875 C 1617.1875 691.015625 1618.359375 689.453125 1619.53125 687.890625 L 1311.71875 716.796875 L 1301.953125 716.796875 C 1321.09375 838.671875 1356.25 973.4375 1416.015625 1110.15625 Z M 1417.578125 1109.375 "/>
</clipPath>
<clipPath id="clip67">
  <path d="M 1305 782 L 1678 782 L 1678 858 L 1305 858 Z M 1305 782 "/>
</clipPath>
<clipPath id="clip68">
  <path d="M 1417.578125 1109.375 L 1683.984375 923.828125 C 1660.9375 914.84375 1634.375 871.875 1618.75 815.234375 C 1604.6875 764.0625 1603.90625 714.84375 1616.015625 692.96875 C 1617.1875 691.015625 1618.359375 689.453125 1619.53125 687.890625 L 1311.71875 716.796875 L 1301.953125 716.796875 C 1321.09375 838.671875 1356.25 973.4375 1416.015625 1110.15625 Z M 1417.578125 1109.375 "/>
</clipPath>
<clipPath id="clip69">
  <path d="M 1306 787 L 1679 787 L 1679 863 L 1306 863 Z M 1306 787 "/>
</clipPath>
<clipPath id="clip70">
  <path d="M 1417.578125 1109.375 L 1683.984375 923.828125 C 1660.9375 914.84375 1634.375 871.875 1618.75 815.234375 C 1604.6875 764.0625 1603.90625 714.84375 1616.015625 692.96875 C 1617.1875 691.015625 1618.359375 689.453125 1619.53125 687.890625 L 1311.71875 716.796875 L 1301.953125 716.796875 C 1321.09375 838.671875 1356.25 973.4375 1416.015625 1110.15625 Z M 1417.578125 1109.375 "/>
</clipPath>
<clipPath id="clip71">
  <path d="M 1307 792 L 1680 792 L 1680 867 L 1307 867 Z M 1307 792 "/>
</clipPath>
<clipPath id="clip72">
  <path d="M 1417.578125 1109.375 L 1683.984375 923.828125 C 1660.9375 914.84375 1634.375 871.875 1618.75 815.234375 C 1604.6875 764.0625 1603.90625 714.84375 1616.015625 692.96875 C 1617.1875 691.015625 1618.359375 689.453125 1619.53125 687.890625 L 1311.71875 716.796875 L 1301.953125 716.796875 C 1321.09375 838.671875 1356.25 973.4375 1416.015625 1110.15625 Z M 1417.578125 1109.375 "/>
</clipPath>
<clipPath id="clip73">
  <path d="M 1307 796 L 1681 796 L 1681 872 L 1307 872 Z M 1307 796 "/>
</clipPath>
<clipPath id="clip74">
  <path d="M 1417.578125 1109.375 L 1683.984375 923.828125 C 1660.9375 914.84375 1634.375 871.875 1618.75 815.234375 C 1604.6875 764.0625 1603.90625 714.84375 1616.015625 692.96875 C 1617.1875 691.015625 1618.359375 689.453125 1619.53125 687.890625 L 1311.71875 716.796875 L 1301.953125 716.796875 C 1321.09375 838.671875 1356.25 973.4375 1416.015625 1110.15625 Z M 1417.578125 1109.375 "/>
</clipPath>
<clipPath id="clip75">
  <path d="M 1308 801 L 1682 801 L 1682 877 L 1308 877 Z M 1308 801 "/>
</clipPath>
<clipPath id="clip76">
  <path d="M 1417.578125 1109.375 L 1683.984375 923.828125 C 1660.9375 914.84375 1634.375 871.875 1618.75 815.234375 C 1604.6875 764.0625 1603.90625 714.84375 1616.015625 692.96875 C 1617.1875 691.015625 1618.359375 689.453125 1619.53125 687.890625 L 1311.71875 716.796875 L 1301.953125 716.796875 C 1321.09375 838.671875 1356.25 973.4375 1416.015625 1110.15625 Z M 1417.578125 1109.375 "/>
</clipPath>
<clipPath id="clip77">
  <path d="M 1319 806 L 1683 806 L 1683 883 L 1319 883 Z M 1319 806 "/>
</clipPath>
<clipPath id="clip78">
  <path d="M 1771.226562 871.238281 L 1538.980469 644.398438 C 1534.480469 668.722656 1497.261719 702.878906 1444.5625 728.855469 C 1396.941406 752.273438 1348.746094 762.277344 1324.984375 754.492188 C 1322.847656 753.707031 1321.09375 752.847656 1319.339844 751.992188 L 1405.507812 1048.898438 L 1407.339844 1058.492188 C 1523.453125 1016.816406 1649.21875 956.988281 1772.289062 872.625 Z M 1771.226562 871.238281 "/>
</clipPath>
<clipPath id="clip79">
  <path d="M 1315 810 L 1683 810 L 1683 887 L 1315 887 Z M 1315 810 "/>
</clipPath>
<clipPath id="clip80">
  <path d="M 1767.46875 878.046875 L 1535.359375 651.074219 C 1530.847656 675.394531 1493.609375 709.523438 1440.894531 735.46875 C 1393.257812 758.859375 1345.058594 768.835938 1321.304688 761.03125 C 1319.167969 760.246094 1317.414062 759.386719 1315.65625 758.527344 L 1401.644531 1055.484375 L 1403.472656 1065.078125 C 1519.609375 1023.472656 1645.410156 963.722656 1768.527344 879.4375 Z M 1767.46875 878.046875 "/>
</clipPath>
<clipPath id="clip81">
  <path d="M 1311 816 L 1684 816 L 1684 892 L 1311 892 Z M 1311 816 "/>
</clipPath>
<clipPath id="clip82">
  <path d="M 1417.578125 1109.375 L 1683.984375 923.828125 C 1660.9375 914.84375 1634.375 871.875 1618.75 815.234375 C 1604.6875 764.0625 1603.90625 714.84375 1616.015625 692.96875 C 1617.1875 691.015625 1618.359375 689.453125 1619.53125 687.890625 L 1311.71875 716.796875 L 1301.953125 716.796875 C 1321.09375 838.671875 1356.25 973.4375 1416.015625 1110.15625 Z M 1417.578125 1109.375 "/>
</clipPath>
<clipPath id="clip83">
  <path d="M 1312 821 L 1684 821 L 1684 897 L 1312 897 Z M 1312 821 "/>
</clipPath>
<clipPath id="clip84">
  <path d="M 1417.578125 1109.375 L 1683.984375 923.828125 C 1660.9375 914.84375 1634.375 871.875 1618.75 815.234375 C 1604.6875 764.0625 1603.90625 714.84375 1616.015625 692.96875 C 1617.1875 691.015625 1618.359375 689.453125 1619.53125 687.890625 L 1311.71875 716.796875 L 1301.953125 716.796875 C 1321.09375 838.671875 1356.25 973.4375 1416.015625 1110.15625 Z M 1417.578125 1109.375 "/>
</clipPath>
<clipPath id="clip85">
  <path d="M 1313 826 L 1684 826 L 1684 901 L 1313 901 Z M 1313 826 "/>
</clipPath>
<clipPath id="clip86">
  <path d="M 1417.578125 1109.375 L 1683.984375 923.828125 C 1660.9375 914.84375 1634.375 871.875 1618.75 815.234375 C 1604.6875 764.0625 1603.90625 714.84375 1616.015625 692.96875 C 1617.1875 691.015625 1618.359375 689.453125 1619.53125 687.890625 L 1311.71875 716.796875 L 1301.953125 716.796875 C 1321.09375 838.671875 1356.25 973.4375 1416.015625 1110.15625 Z M 1417.578125 1109.375 "/>
</clipPath>
<clipPath id="clip87">
  <path d="M 1314 830 L 1684 830 L 1684 906 L 1314 906 Z M 1314 830 "/>
</clipPath>
<clipPath id="clip88">
  <path d="M 1417.578125 1109.375 L 1683.984375 923.828125 C 1660.9375 914.84375 1634.375 871.875 1618.75 815.234375 C 1604.6875 764.0625 1603.90625 714.84375 1616.015625 692.96875 C 1617.1875 691.015625 1618.359375 689.453125 1619.53125 687.890625 L 1311.71875 716.796875 L 1301.953125 716.796875 C 1321.09375 838.671875 1356.25 973.4375 1416.015625 1110.15625 Z M 1417.578125 1109.375 "/>
</clipPath>
<clipPath id="clip89">
  <path d="M 1315 835 L 1684 835 L 1684 911 L 1315 911 Z M 1315 835 "/>
</clipPath>
<clipPath id="clip90">
  <path d="M 1417.578125 1109.375 L 1683.984375 923.828125 C 1660.9375 914.84375 1634.375 871.875 1618.75 815.234375 C 1604.6875 764.0625 1603.90625 714.84375 1616.015625 692.96875 C 1617.1875 691.015625 1618.359375 689.453125 1619.53125 687.890625 L 1311.71875 716.796875 L 1301.953125 716.796875 C 1321.09375 838.671875 1356.25 973.4375 1416.015625 1110.15625 Z M 1417.578125 1109.375 "/>
</clipPath>
<clipPath id="clip91">
  <path d="M 1316 840 L 1684 840 L 1684 916 L 1316 916 Z M 1316 840 "/>
</clipPath>
<clipPath id="clip92">
  <path d="M 1417.578125 1109.375 L 1683.984375 923.828125 C 1660.9375 914.84375 1634.375 871.875 1618.75 815.234375 C 1604.6875 764.0625 1603.90625 714.84375 1616.015625 692.96875 C 1617.1875 691.015625 1618.359375 689.453125 1619.53125 687.890625 L 1311.71875 716.796875 L 1301.953125 716.796875 C 1321.09375 838.671875 1356.25 973.4375 1416.015625 1110.15625 Z M 1417.578125 1109.375 "/>
</clipPath>
<clipPath id="clip93">
  <path d="M 1317 845 L 1684 845 L 1684 921 L 1317 921 Z M 1317 845 "/>
</clipPath>
<clipPath id="clip94">
  <path d="M 1417.578125 1109.375 L 1683.984375 923.828125 C 1660.9375 914.84375 1634.375 871.875 1618.75 815.234375 C 1604.6875 764.0625 1603.90625 714.84375 1616.015625 692.96875 C 1617.1875 691.015625 1618.359375 689.453125 1619.53125 687.890625 L 1311.71875 716.796875 L 1301.953125 716.796875 C 1321.09375 838.671875 1356.25 973.4375 1416.015625 1110.15625 Z M 1417.578125 1109.375 "/>
</clipPath>
<clipPath id="clip95">
  <path d="M 1317 850 L 1684 850 L 1684 925 L 1317 925 Z M 1317 850 "/>
</clipPath>
<clipPath id="clip96">
  <path d="M 1417.578125 1109.375 L 1683.984375 923.828125 C 1660.9375 914.84375 1634.375 871.875 1618.75 815.234375 C 1604.6875 764.0625 1603.90625 714.84375 1616.015625 692.96875 C 1617.1875 691.015625 1618.359375 689.453125 1619.53125 687.890625 L 1311.71875 716.796875 L 1301.953125 716.796875 C 1321.09375 838.671875 1356.25 973.4375 1416.015625 1110.15625 Z M 1417.578125 1109.375 "/>
</clipPath>
<clipPath id="clip97">
  <path d="M 1318 855 L 1684 855 L 1684 930 L 1318 930 Z M 1318 855 "/>
</clipPath>
<clipPath id="clip98">
  <path d="M 1417.578125 1109.375 L 1683.984375 923.828125 C 1660.9375 914.84375 1634.375 871.875 1618.75 815.234375 C 1604.6875 764.0625 1603.90625 714.84375 1616.015625 692.96875 C 1617.1875 691.015625 1618.359375 689.453125 1619.53125 687.890625 L 1311.71875 716.796875 L 1301.953125 716.796875 C 1321.09375 838.671875 1356.25 973.4375 1416.015625 1110.15625 Z M 1417.578125 1109.375 "/>
</clipPath>
<clipPath id="clip99">
  <path d="M 1319 859 L 1684 859 L 1684 935 L 1319 935 Z M 1319 859 "/>
</clipPath>
<clipPath id="clip100">
  <path d="M 1417.578125 1109.375 L 1683.984375 923.828125 C 1660.9375 914.84375 1634.375 871.875 1618.75 815.234375 C 1604.6875 764.0625 1603.90625 714.84375 1616.015625 692.96875 C 1617.1875 691.015625 1618.359375 689.453125 1619.53125 687.890625 L 1311.71875 716.796875 L 1301.953125 716.796875 C 1321.09375 838.671875 1356.25 973.4375 1416.015625 1110.15625 Z M 1417.578125 1109.375 "/>
</clipPath>
<clipPath id="clip101">
  <path d="M 1320 864 L 1684 864 L 1684 940 L 1320 940 Z M 1320 864 "/>
</clipPath>
<clipPath id="clip102">
  <path d="M 1417.578125 1109.375 L 1683.984375 923.828125 C 1660.9375 914.84375 1634.375 871.875 1618.75 815.234375 C 1604.6875 764.0625 1603.90625 714.84375 1616.015625 692.96875 C 1617.1875 691.015625 1618.359375 689.453125 1619.53125 687.890625 L 1311.71875 716.796875 L 1301.953125 716.796875 C 1321.09375 838.671875 1356.25 973.4375 1416.015625 1110.15625 Z M 1417.578125 1109.375 "/>
</clipPath>
<clipPath id="clip103">
  <path d="M 1321 869 L 1684 869 L 1684 945 L 1321 945 Z M 1321 869 "/>
</clipPath>
<clipPath id="clip104">
  <path d="M 1417.578125 1109.375 L 1683.984375 923.828125 C 1660.9375 914.84375 1634.375 871.875 1618.75 815.234375 C 1604.6875 764.0625 1603.90625 714.84375 1616.015625 692.96875 C 1617.1875 691.015625 1618.359375 689.453125 1619.53125 687.890625 L 1311.71875 716.796875 L 1301.953125 716.796875 C 1321.09375 838.671875 1356.25 973.4375 1416.015625 1110.15625 Z M 1417.578125 1109.375 "/>
</clipPath>
<clipPath id="clip105">
  <path d="M 1322 874 L 1684 874 L 1684 950 L 1322 950 Z M 1322 874 "/>
</clipPath>
<clipPath id="clip106">
  <path d="M 1417.578125 1109.375 L 1683.984375 923.828125 C 1660.9375 914.84375 1634.375 871.875 1618.75 815.234375 C 1604.6875 764.0625 1603.90625 714.84375 1616.015625 692.96875 C 1617.1875 691.015625 1618.359375 689.453125 1619.53125 687.890625 L 1311.71875 716.796875 L 1301.953125 716.796875 C 1321.09375 838.671875 1356.25 973.4375 1416.015625 1110.15625 Z M 1417.578125 1109.375 "/>
</clipPath>
<clipPath id="clip107">
  <path d="M 1323 879 L 1684 879 L 1684 954 L 1323 954 Z M 1323 879 "/>
</clipPath>
<clipPath id="clip108">
  <path d="M 1417.578125 1109.375 L 1683.984375 923.828125 C 1660.9375 914.84375 1634.375 871.875 1618.75 815.234375 C 1604.6875 764.0625 1603.90625 714.84375 1616.015625 692.96875 C 1617.1875 691.015625 1618.359375 689.453125 1619.53125 687.890625 L 1311.71875 716.796875 L 1301.953125 716.796875 C 1321.09375 838.671875 1356.25 973.4375 1416.015625 1110.15625 Z M 1417.578125 1109.375 "/>
</clipPath>
<clipPath id="clip109">
  <path d="M 1324 884 L 1684 884 L 1684 959 L 1324 959 Z M 1324 884 "/>
</clipPath>
<clipPath id="clip110">
  <path d="M 1417.578125 1109.375 L 1683.984375 923.828125 C 1660.9375 914.84375 1634.375 871.875 1618.75 815.234375 C 1604.6875 764.0625 1603.90625 714.84375 1616.015625 692.96875 C 1617.1875 691.015625 1618.359375 689.453125 1619.53125 687.890625 L 1311.71875 716.796875 L 1301.953125 716.796875 C 1321.09375 838.671875 1356.25 973.4375 1416.015625 1110.15625 Z M 1417.578125 1109.375 "/>
</clipPath>
<clipPath id="clip111">
  <path d="M 1325 889 L 1684 889 L 1684 964 L 1325 964 Z M 1325 889 "/>
</clipPath>
<clipPath id="clip112">
  <path d="M 1417.578125 1109.375 L 1683.984375 923.828125 C 1660.9375 914.84375 1634.375 871.875 1618.75 815.234375 C 1604.6875 764.0625 1603.90625 714.84375 1616.015625 692.96875 C 1617.1875 691.015625 1618.359375 689.453125 1619.53125 687.890625 L 1311.71875 716.796875 L 1301.953125 716.796875 C 1321.09375 838.671875 1356.25 973.4375 1416.015625 1110.15625 Z M 1417.578125 1109.375 "/>
</clipPath>
<clipPath id="clip113">
  <path d="M 1326 894 L 1684 894 L 1684 969 L 1326 969 Z M 1326 894 "/>
</clipPath>
<clipPath id="clip114">
  <path d="M 1417.578125 1109.375 L 1683.984375 923.828125 C 1660.9375 914.84375 1634.375 871.875 1618.75 815.234375 C 1604.6875 764.0625 1603.90625 714.84375 1616.015625 692.96875 C 1617.1875 691.015625 1618.359375 689.453125 1619.53125 687.890625 L 1311.71875 716.796875 L 1301.953125 716.796875 C 1321.09375 838.671875 1356.25 973.4375 1416.015625 1110.15625 Z M 1417.578125 1109.375 "/>
</clipPath>
<clipPath id="clip115">
  <path d="M 1326 900 L 1684 900 L 1684 974 L 1326 974 Z M 1326 900 "/>
</clipPath>
<clipPath id="clip116">
  <path d="M 1417.578125 1109.375 L 1683.984375 923.828125 C 1660.9375 914.84375 1634.375 871.875 1618.75 815.234375 C 1604.6875 764.0625 1603.90625 714.84375 1616.015625 692.96875 C 1617.1875 691.015625 1618.359375 689.453125 1619.53125 687.890625 L 1311.71875 716.796875 L 1301.953125 716.796875 C 1321.09375 838.671875 1356.25 973.4375 1416.015625 1110.15625 Z M 1417.578125 1109.375 "/>
</clipPath>
<clipPath id="clip117">
  <path d="M 1328 905 L 1684 905 L 1684 979 L 1328 979 Z M 1328 905 "/>
</clipPath>
<clipPath id="clip118">
  <path d="M 1417.578125 1109.375 L 1683.984375 923.828125 C 1660.9375 914.84375 1634.375 871.875 1618.75 815.234375 C 1604.6875 764.0625 1603.90625 714.84375 1616.015625 692.96875 C 1617.1875 691.015625 1618.359375 689.453125 1619.53125 687.890625 L 1311.71875 716.796875 L 1301.953125 716.796875 C 1321.09375 838.671875 1356.25 973.4375 1416.015625 1110.15625 Z M 1417.578125 1109.375 "/>
</clipPath>
<clipPath id="clip119">
  <path d="M 1328 910 L 1684 910 L 1684 984 L 1328 984 Z M 1328 910 "/>
</clipPath>
<clipPath id="clip120">
  <path d="M 1417.578125 1109.375 L 1683.984375 923.828125 C 1660.9375 914.84375 1634.375 871.875 1618.75 815.234375 C 1604.6875 764.0625 1603.90625 714.84375 1616.015625 692.96875 C 1617.1875 691.015625 1618.359375 689.453125 1619.53125 687.890625 L 1311.71875 716.796875 L 1301.953125 716.796875 C 1321.09375 838.671875 1356.25 973.4375 1416.015625 1110.15625 Z M 1417.578125 1109.375 "/>
</clipPath>
<clipPath id="clip121">
  <path d="M 1329 916 L 1684 916 L 1684 988 L 1329 988 Z M 1329 916 "/>
</clipPath>
<clipPath id="clip122">
  <path d="M 1417.578125 1109.375 L 1683.984375 923.828125 C 1660.9375 914.84375 1634.375 871.875 1618.75 815.234375 C 1604.6875 764.0625 1603.90625 714.84375 1616.015625 692.96875 C 1617.1875 691.015625 1618.359375 689.453125 1619.53125 687.890625 L 1311.71875 716.796875 L 1301.953125 716.796875 C 1321.09375 838.671875 1356.25 973.4375 1416.015625 1110.15625 Z M 1417.578125 1109.375 "/>
</clipPath>
<clipPath id="clip123">
  <path d="M 1330 921 L 1684 921 L 1684 993 L 1330 993 Z M 1330 921 "/>
</clipPath>
<clipPath id="clip124">
  <path d="M 1417.578125 1109.375 L 1683.984375 923.828125 C 1660.9375 914.84375 1634.375 871.875 1618.75 815.234375 C 1604.6875 764.0625 1603.90625 714.84375 1616.015625 692.96875 C 1617.1875 691.015625 1618.359375 689.453125 1619.53125 687.890625 L 1311.71875 716.796875 L 1301.953125 716.796875 C 1321.09375 838.671875 1356.25 973.4375 1416.015625 1110.15625 Z M 1417.578125 1109.375 "/>
</clipPath>
<clipPath id="clip125">
  <path d="M 1331 926 L 1684 926 L 1684 998 L 1331 998 Z M 1331 926 "/>
</clipPath>
<clipPath id="clip126">
  <path d="M 1417.578125 1109.375 L 1683.984375 923.828125 C 1660.9375 914.84375 1634.375 871.875 1618.75 815.234375 C 1604.6875 764.0625 1603.90625 714.84375 1616.015625 692.96875 C 1617.1875 691.015625 1618.359375 689.453125 1619.53125 687.890625 L 1311.71875 716.796875 L 1301.953125 716.796875 C 1321.09375 838.671875 1356.25 973.4375 1416.015625 1110.15625 Z M 1417.578125 1109.375 "/>
</clipPath>
<clipPath id="clip127">
  <path d="M 1332 931 L 1683 931 L 1683 1003 L 1332 1003 Z M 1332 931 "/>
</clipPath>
<clipPath id="clip128">
  <path d="M 1417.578125 1109.375 L 1683.984375 923.828125 C 1660.9375 914.84375 1634.375 871.875 1618.75 815.234375 C 1604.6875 764.0625 1603.90625 714.84375 1616.015625 692.96875 C 1617.1875 691.015625 1618.359375 689.453125 1619.53125 687.890625 L 1311.71875 716.796875 L 1301.953125 716.796875 C 1321.09375 838.671875 1356.25 973.4375 1416.015625 1110.15625 Z M 1417.578125 1109.375 "/>
</clipPath>
<clipPath id="clip129">
  <path d="M 1333 937 L 1681 937 L 1681 1008 L 1333 1008 Z M 1333 937 "/>
</clipPath>
<clipPath id="clip130">
  <path d="M 1417.578125 1109.375 L 1683.984375 923.828125 C 1660.9375 914.84375 1634.375 871.875 1618.75 815.234375 C 1604.6875 764.0625 1603.90625 714.84375 1616.015625 692.96875 C 1617.1875 691.015625 1618.359375 689.453125 1619.53125 687.890625 L 1311.71875 716.796875 L 1301.953125 716.796875 C 1321.09375 838.671875 1356.25 973.4375 1416.015625 1110.15625 Z M 1417.578125 1109.375 "/>
</clipPath>
<clipPath id="clip131">
  <path d="M 1334 942 L 1680 942 L 1680 1013 L 1334 1013 Z M 1334 942 "/>
</clipPath>
<clipPath id="clip132">
  <path d="M 1417.578125 1109.375 L 1683.984375 923.828125 C 1660.9375 914.84375 1634.375 871.875 1618.75 815.234375 C 1604.6875 764.0625 1603.90625 714.84375 1616.015625 692.96875 C 1617.1875 691.015625 1618.359375 689.453125 1619.53125 687.890625 L 1311.71875 716.796875 L 1301.953125 716.796875 C 1321.09375 838.671875 1356.25 973.4375 1416.015625 1110.15625 Z M 1417.578125 1109.375 "/>
</clipPath>
<clipPath id="clip133">
  <path d="M 1335 947 L 1678 947 L 1678 1017 L 1335 1017 Z M 1335 947 "/>
</clipPath>
<clipPath id="clip134">
  <path d="M 1417.578125 1109.375 L 1683.984375 923.828125 C 1660.9375 914.84375 1634.375 871.875 1618.75 815.234375 C 1604.6875 764.0625 1603.90625 714.84375 1616.015625 692.96875 C 1617.1875 691.015625 1618.359375 689.453125 1619.53125 687.890625 L 1311.71875 716.796875 L 1301.953125 716.796875 C 1321.09375 838.671875 1356.25 973.4375 1416.015625 1110.15625 Z M 1417.578125 1109.375 "/>
</clipPath>
<clipPath id="clip135">
  <path d="M 1335 952 L 1677 952 L 1677 1022 L 1335 1022 Z M 1335 952 "/>
</clipPath>
<clipPath id="clip136">
  <path d="M 1417.578125 1109.375 L 1683.984375 923.828125 C 1660.9375 914.84375 1634.375 871.875 1618.75 815.234375 C 1604.6875 764.0625 1603.90625 714.84375 1616.015625 692.96875 C 1617.1875 691.015625 1618.359375 689.453125 1619.53125 687.890625 L 1311.71875 716.796875 L 1301.953125 716.796875 C 1321.09375 838.671875 1356.25 973.4375 1416.015625 1110.15625 Z M 1417.578125 1109.375 "/>
</clipPath>
<clipPath id="clip137">
  <path d="M 1337 958 L 1675 958 L 1675 1027 L 1337 1027 Z M 1337 958 "/>
</clipPath>
<clipPath id="clip138">
  <path d="M 1417.578125 1109.375 L 1683.984375 923.828125 C 1660.9375 914.84375 1634.375 871.875 1618.75 815.234375 C 1604.6875 764.0625 1603.90625 714.84375 1616.015625 692.96875 C 1617.1875 691.015625 1618.359375 689.453125 1619.53125 687.890625 L 1311.71875 716.796875 L 1301.953125 716.796875 C 1321.09375 838.671875 1356.25 973.4375 1416.015625 1110.15625 Z M 1417.578125 1109.375 "/>
</clipPath>
<clipPath id="clip139">
  <path d="M 1337 963 L 1674 963 L 1674 1032 L 1337 1032 Z M 1337 963 "/>
</clipPath>
<clipPath id="clip140">
  <path d="M 1417.578125 1109.375 L 1683.984375 923.828125 C 1660.9375 914.84375 1634.375 871.875 1618.75 815.234375 C 1604.6875 764.0625 1603.90625 714.84375 1616.015625 692.96875 C 1617.1875 691.015625 1618.359375 689.453125 1619.53125 687.890625 L 1311.71875 716.796875 L 1301.953125 716.796875 C 1321.09375 838.671875 1356.25 973.4375 1416.015625 1110.15625 Z M 1417.578125 1109.375 "/>
</clipPath>
<clipPath id="clip141">
  <path d="M 1338 968 L 1673 968 L 1673 1037 L 1338 1037 Z M 1338 968 "/>
</clipPath>
<clipPath id="clip142">
  <path d="M 1417.578125 1109.375 L 1683.984375 923.828125 C 1660.9375 914.84375 1634.375 871.875 1618.75 815.234375 C 1604.6875 764.0625 1603.90625 714.84375 1616.015625 692.96875 C 1617.1875 691.015625 1618.359375 689.453125 1619.53125 687.890625 L 1311.71875 716.796875 L 1301.953125 716.796875 C 1321.09375 838.671875 1356.25 973.4375 1416.015625 1110.15625 Z M 1417.578125 1109.375 "/>
</clipPath>
<clipPath id="clip143">
  <path d="M 1339 973 L 1671 973 L 1671 1042 L 1339 1042 Z M 1339 973 "/>
</clipPath>
<clipPath id="clip144">
  <path d="M 1417.578125 1109.375 L 1683.984375 923.828125 C 1660.9375 914.84375 1634.375 871.875 1618.75 815.234375 C 1604.6875 764.0625 1603.90625 714.84375 1616.015625 692.96875 C 1617.1875 691.015625 1618.359375 689.453125 1619.53125 687.890625 L 1311.71875 716.796875 L 1301.953125 716.796875 C 1321.09375 838.671875 1356.25 973.4375 1416.015625 1110.15625 Z M 1417.578125 1109.375 "/>
</clipPath>
<clipPath id="clip145">
  <path d="M 1340 979 L 1670 979 L 1670 1046 L 1340 1046 Z M 1340 979 "/>
</clipPath>
<clipPath id="clip146">
  <path d="M 1417.578125 1109.375 L 1683.984375 923.828125 C 1660.9375 914.84375 1634.375 871.875 1618.75 815.234375 C 1604.6875 764.0625 1603.90625 714.84375 1616.015625 692.96875 C 1617.1875 691.015625 1618.359375 689.453125 1619.53125 687.890625 L 1311.71875 716.796875 L 1301.953125 716.796875 C 1321.09375 838.671875 1356.25 973.4375 1416.015625 1110.15625 Z M 1417.578125 1109.375 "/>
</clipPath>
<clipPath id="clip147">
  <path d="M 1341 984 L 1668 984 L 1668 1051 L 1341 1051 Z M 1341 984 "/>
</clipPath>
<clipPath id="clip148">
  <path d="M 1417.578125 1109.375 L 1683.984375 923.828125 C 1660.9375 914.84375 1634.375 871.875 1618.75 815.234375 C 1604.6875 764.0625 1603.90625 714.84375 1616.015625 692.96875 C 1617.1875 691.015625 1618.359375 689.453125 1619.53125 687.890625 L 1311.71875 716.796875 L 1301.953125 716.796875 C 1321.09375 838.671875 1356.25 973.4375 1416.015625 1110.15625 Z M 1417.578125 1109.375 "/>
</clipPath>
<clipPath id="clip149">
  <path d="M 1342 989 L 1667 989 L 1667 1056 L 1342 1056 Z M 1342 989 "/>
</clipPath>
<clipPath id="clip150">
  <path d="M 1417.578125 1109.375 L 1683.984375 923.828125 C 1660.9375 914.84375 1634.375 871.875 1618.75 815.234375 C 1604.6875 764.0625 1603.90625 714.84375 1616.015625 692.96875 C 1617.1875 691.015625 1618.359375 689.453125 1619.53125 687.890625 L 1311.71875 716.796875 L 1301.953125 716.796875 C 1321.09375 838.671875 1356.25 973.4375 1416.015625 1110.15625 Z M 1417.578125 1109.375 "/>
</clipPath>
<clipPath id="clip151">
  <path d="M 1343 994 L 1666 994 L 1666 1061 L 1343 1061 Z M 1343 994 "/>
</clipPath>
<clipPath id="clip152">
  <path d="M 1417.578125 1109.375 L 1683.984375 923.828125 C 1660.9375 914.84375 1634.375 871.875 1618.75 815.234375 C 1604.6875 764.0625 1603.90625 714.84375 1616.015625 692.96875 C 1617.1875 691.015625 1618.359375 689.453125 1619.53125 687.890625 L 1311.71875 716.796875 L 1301.953125 716.796875 C 1321.09375 838.671875 1356.25 973.4375 1416.015625 1110.15625 Z M 1417.578125 1109.375 "/>
</clipPath>
<clipPath id="clip153">
  <path d="M 1344 1000 L 1664 1000 L 1664 1066 L 1344 1066 Z M 1344 1000 "/>
</clipPath>
<clipPath id="clip154">
  <path d="M 1417.578125 1109.375 L 1683.984375 923.828125 C 1660.9375 914.84375 1634.375 871.875 1618.75 815.234375 C 1604.6875 764.0625 1603.90625 714.84375 1616.015625 692.96875 C 1617.1875 691.015625 1618.359375 689.453125 1619.53125 687.890625 L 1311.71875 716.796875 L 1301.953125 716.796875 C 1321.09375 838.671875 1356.25 973.4375 1416.015625 1110.15625 Z M 1417.578125 1109.375 "/>
</clipPath>
<clipPath id="clip155">
  <path d="M 1345 1005 L 1663 1005 L 1663 1070 L 1345 1070 Z M 1345 1005 "/>
</clipPath>
<clipPath id="clip156">
  <path d="M 1417.578125 1109.375 L 1683.984375 923.828125 C 1660.9375 914.84375 1634.375 871.875 1618.75 815.234375 C 1604.6875 764.0625 1603.90625 714.84375 1616.015625 692.96875 C 1617.1875 691.015625 1618.359375 689.453125 1619.53125 687.890625 L 1311.71875 716.796875 L 1301.953125 716.796875 C 1321.09375 838.671875 1356.25 973.4375 1416.015625 1110.15625 Z M 1417.578125 1109.375 "/>
</clipPath>
<clipPath id="clip157">
  <path d="M 1346 1010 L 1661 1010 L 1661 1075 L 1346 1075 Z M 1346 1010 "/>
</clipPath>
<clipPath id="clip158">
  <path d="M 1417.578125 1109.375 L 1683.984375 923.828125 C 1660.9375 914.84375 1634.375 871.875 1618.75 815.234375 C 1604.6875 764.0625 1603.90625 714.84375 1616.015625 692.96875 C 1617.1875 691.015625 1618.359375 689.453125 1619.53125 687.890625 L 1311.71875 716.796875 L 1301.953125 716.796875 C 1321.09375 838.671875 1356.25 973.4375 1416.015625 1110.15625 Z M 1417.578125 1109.375 "/>
</clipPath>
<clipPath id="clip159">
  <path d="M 1347 1016 L 1660 1016 L 1660 1080 L 1347 1080 Z M 1347 1016 "/>
</clipPath>
<clipPath id="clip160">
  <path d="M 1417.578125 1109.375 L 1683.984375 923.828125 C 1660.9375 914.84375 1634.375 871.875 1618.75 815.234375 C 1604.6875 764.0625 1603.90625 714.84375 1616.015625 692.96875 C 1617.1875 691.015625 1618.359375 689.453125 1619.53125 687.890625 L 1311.71875 716.796875 L 1301.953125 716.796875 C 1321.09375 838.671875 1356.25 973.4375 1416.015625 1110.15625 Z M 1417.578125 1109.375 "/>
</clipPath>
<clipPath id="clip161">
  <path d="M 1348 1021 L 1659 1021 L 1659 1111 L 1348 1111 Z M 1348 1021 "/>
</clipPath>
<clipPath id="clip162">
  <path d="M 1417.578125 1109.375 L 1683.984375 923.828125 C 1660.9375 914.84375 1634.375 871.875 1618.75 815.234375 C 1604.6875 764.0625 1603.90625 714.84375 1616.015625 692.96875 C 1617.1875 691.015625 1618.359375 689.453125 1619.53125 687.890625 L 1311.71875 716.796875 L 1301.953125 716.796875 C 1321.09375 838.671875 1356.25 973.4375 1416.015625 1110.15625 Z M 1417.578125 1109.375 "/>
</clipPath>
</defs>
<g id="surface1">
<path style="fill-rule:nonzero;fill:rgb(96.862745%,58.039216%,11.764706%);fill-opacity:1;stroke-width:25;stroke-linecap:butt;stroke-linejoin:miter;stroke:rgb(96.862745%,58.039216%,11.764706%);stroke-opacity:1;stroke-miterlimit:4;" d="M 344.8 18.3 L 344.6 18.3 L 344.3 18.4 L 342.7 18.7 L 341.4 19.4 C 337.1 21.5 298.9 41.6 279.3 107.4 C 264.8 156.1 105.8 224.9 51.3 245.1 L 45.8 247.1 L 44.7 253.1 C 44.4 254.9 43.4 260.6 42.9 268.6 C 30.9 273.6 22.3 281.9 18 292.9 C 17.4 294.3 16.9 295.8 16.5 297.4 C 12.1 313.7 16.4 334.5 28.2 354.2 C 41.9 376.9 65 376.6 79.2 372.2 C 83 375.5 86.9 378.7 91.2 381.4 L 91.3 381.5 L 95.2 383.8 L 99 382.8 C 99 382.8 133.3 373.3 134.4 373 C 136.2 372.7 146 371.5 153.4 377 C 158.8 381 162.1 388.2 163.2 398.3 C 167.1 436.1 164.4 449 164.3 449.3 C 164.2 449.5 164.2 449.8 164.2 449.8 L 164.1 450.2 C 163.8 452.4 161.2 471.6 172.4 484.7 C 176.6 489.7 184.6 495.6 198.3 495.6 L 198.6 495.6 L 244.2 492.3 L 244.6 492.3 C 244.6 492.3 251 489.3 251 489.3 C 252 488.2 257 482.9 260.3 475.1 L 259.7 476.6 C 260.6 475.1 265.3 467.2 268.2 456.6 C 270.6 447.6 271.7 436.6 268 425.9 C 264.6 416.1 257.9 408.3 248.1 402.7 C 248.5 401.5 249 400.2 249.4 399 C 252.3 388.1 251.6 376.3 242.9 367.8 L 240 365 C 228.5 354 224.8 348.9 225.9 344.9 C 225.9 344.7 226.1 344.6 226.1 344.4 C 227.6 343.7 229.2 342.9 231 342.3 L 232.5 341.8 C 232.5 341.8 232.7 341.6 232.9 341.5 C 237.4 339.7 273.6 327.5 358.6 366.4 C 366.5 373 406 403.7 442.6 395.1 C 461.9 390.6 476.6 376.4 486.4 353.1 C 487.8 349.6 489.1 345.9 490.2 341.9 C 498.3 311.7 496.3 265.8 484.4 213.4 C 471.3 154.7 448 99.2 422 64.2 C 397.8 31.5 371.1 15.7 344.8 18.3 Z M 237.2 419.9 C 237.2 419.9 234.7 418.3 233.2 417.4 C 234.8 418.2 237.5 419.4 237.5 419.4 Z M 237.2 419.9 " transform="matrix(3.90625,0,0,3.90625,0,0)"/>
<path style=" stroke:none;fill-rule:nonzero;fill:rgb(100%,100%,100%);fill-opacity:1;" d="M 216.796875 997.265625 C 212.109375 1023.828125 167.578125 1315.234375 378.515625 1450.78125 L 515.625 1412.890625 C 518.359375 1412.5 577.34375 1400.78125 625 1435.9375 C 657.03125 1459.375 675.78125 1497.65625 681.25 1550 C 697.265625 1706.25 685.9375 1758.203125 684.765625 1763.671875 C 684.765625 1764.453125 675.78125 1826.5625 707.421875 1863.28125 C 722.65625 1881.25 745.3125 1890.234375 774.609375 1890.234375 L 950.390625 1877.34375 C 953.90625 1873.4375 967.96875 1857.8125 976.5625 1835.9375 C 981.25 1824.21875 984.765625 1810.546875 983.59375 1796.09375 C 982.03125 1771.875 969.140625 1750.390625 944.921875 1731.25 C 907.8125 1702.34375 887.5 1673.828125 884.375 1646.875 C 882.421875 1628.515625 889.0625 1617.1875 891.015625 1614.453125 C 892.578125 1608.59375 900.78125 1566.015625 861.71875 1535.15625 C 833.984375 1513.28125 786.328125 1446.484375 796.484375 1384.375 C 801.5625 1353.90625 819.53125 1328.90625 850.390625 1310.546875 C 861.328125 1303.90625 873.4375 1298.4375 887.5 1293.75 L 887.890625 1293.75 C 893.359375 1291.015625 930.078125 1273.046875 1009.375 1274.609375 C 1087.109375 1276.171875 1221.875 1298.046875 1424.21875 1391.40625 L 1425 1392.1875 C 1426.5625 1393.75 1584.765625 1529.6875 1719.140625 1498.4375 C 1780.078125 1483.984375 1827.34375 1437.5 1859.765625 1359.765625 C 1862.5 1352.734375 1865.234375 1345.703125 1867.578125 1337.890625 L 1838.671875 1328.90625 C 1836.328125 1333.203125 1782.8125 1435.9375 1692.1875 1435.9375 C 1611.328125 1435.9375 1529.296875 1354.296875 1447.65625 1194.140625 C 1326.171875 955.078125 1288.671875 727.34375 1278.90625 578.125 C 1267.578125 404.296875 1287.890625 275.78125 1304.296875 231.640625 C 1320.3125 189.0625 1359.765625 158.984375 1405.078125 154.6875 C 1442.578125 151.171875 1511.328125 162.890625 1591.015625 263.671875 L 1597.65625 258.203125 C 1517.96875 156.25 1433.203125 107.03125 1351.5625 114.84375 C 1341.40625 119.921875 1203.90625 191.40625 1132.421875 431.25 C 1100.78125 536.71875 936.71875 664.453125 644.53125 810.15625 C 438.671875 913.28125 238.28125 989.453125 216.796875 997.265625 Z M 216.796875 997.265625 "/>
<path style=" stroke:none;fill-rule:nonzero;fill:rgb(100%,100%,100%);fill-opacity:1;" d="M 1305.078125 230.859375 C 1288.671875 275 1268.359375 403.515625 1279.6875 577.34375 C 1289.453125 726.5625 1326.953125 954.296875 1448.4375 1193.359375 C 1530.078125 1353.90625 1612.109375 1435.15625 1692.96875 1435.15625 C 1783.59375 1435.15625 1837.109375 1332.421875 1839.453125 1328.125 L 1832.8125 1324.609375 C 1832.421875 1325.390625 1779.296875 1427.734375 1692.96875 1427.734375 C 1615.234375 1427.734375 1535.15625 1347.65625 1455.078125 1189.84375 C 1441.40625 1162.890625 1428.90625 1136.328125 1417.1875 1109.375 L 1418.359375 1108.984375 L 1422.65625 1114.84375 L 1695.3125 925 C 1696.484375 925 1697.265625 924.609375 1698.4375 924.609375 C 1703.90625 923.046875 1708.984375 918.75 1712.5 912.5 C 1725 890.625 1723.828125 841.40625 1709.765625 790.234375 C 1695.703125 739.0625 1671.484375 696.484375 1649.609375 683.59375 C 1646.875 682.03125 1644.140625 680.859375 1641.40625 680.46875 L 1641.015625 678.125 L 1312.109375 708.984375 L 1312.890625 716.015625 L 1303.125 716.015625 C 1266.015625 481.25 1289.453125 294.53125 1312.5 232.8125 C 1327.34375 192.96875 1364.84375 164.453125 1407.03125 160.546875 C 1449.609375 156.640625 1535.15625 173.4375 1631.640625 332.03125 L 1637.890625 328.125 C 1622.65625 302.734375 1607.421875 280.859375 1592.578125 262.109375 C 1512.890625 161.328125 1443.75 149.609375 1406.640625 153.125 C 1360.546875 158.203125 1320.703125 188.28125 1305.078125 230.859375 Z M 1305.078125 230.859375 "/>
<path style=" stroke:none;fill-rule:nonzero;fill:rgb(100%,100%,100%);fill-opacity:1;" d="M 1311.71875 233.59375 C 1288.671875 294.921875 1265.625 482.03125 1302.34375 716.796875 L 1312.109375 716.796875 L 1311.328125 709.765625 L 1640.234375 678.90625 L 1640.625 681.25 C 1643.359375 682.03125 1646.09375 682.8125 1648.828125 684.375 C 1670.703125 696.875 1694.921875 739.84375 1708.984375 791.015625 C 1723.046875 842.1875 1724.21875 891.40625 1711.71875 913.28125 C 1707.8125 919.53125 1703.125 923.828125 1697.65625 925.390625 C 1696.484375 925.78125 1695.703125 925.78125 1694.53125 925.78125 L 1421.875 1115.234375 L 1417.578125 1109.375 L 1416.40625 1109.765625 C 1428.125 1136.328125 1440.625 1163.28125 1454.296875 1190.234375 C 1534.765625 1348.046875 1614.453125 1428.125 1692.1875 1428.125 C 1778.515625 1428.125 1831.640625 1326.171875 1832.03125 1325 L 1838.671875 1328.515625 L 1867.578125 1337.5 C 1944.921875 1099.21875 1815.234375 549.21875 1612.890625 276.5625 C 1607.8125 269.921875 1603.125 263.671875 1598.046875 257.421875 L 1591.40625 262.890625 C 1606.25 281.640625 1621.484375 303.515625 1636.71875 328.90625 L 1630.46875 332.8125 C 1534.375 174.21875 1448.828125 157.421875 1405.859375 161.328125 C 1364.0625 165.234375 1326.5625 193.359375 1311.71875 233.59375 Z M 1311.71875 233.59375 "/>
<path style=" stroke:none;fill-rule:nonzero;fill:rgb(100%,100%,100%);fill-opacity:1;" d="M 110.9375 1159.375 C 90.234375 1212.109375 104.296875 1287.5 147.65625 1360.15625 C 201.171875 1448.828125 296.484375 1412.109375 311.71875 1405.46875 C 242.96875 1333.203125 216.40625 1242.1875 207.421875 1171.484375 C 203.125 1139.0625 201.953125 1108.59375 202.34375 1082.421875 C 156.25 1096.09375 125.390625 1122.265625 110.9375 1159.375 Z M 110.9375 1159.375 "/>
<path style=" stroke:none;fill-rule:nonzero;fill:rgb(100%,100%,100%);fill-opacity:1;" d="M 991.40625 1795.703125 C 991.796875 1800.390625 991.796875 1805.078125 991.015625 1809.765625 C 1005.078125 1778.125 1022.265625 1723.828125 1005.859375 1675.390625 C 993.359375 1639.453125 964.0625 1612.109375 918.75 1594.53125 L 892.96875 1641.796875 L 891.40625 1641.015625 C 891.796875 1659.765625 902.734375 1688.671875 950 1725.78125 C 975.78125 1746.09375 989.453125 1769.53125 991.40625 1795.703125 Z M 991.40625 1795.703125 "/>
<path style=" stroke:none;fill-rule:nonzero;fill:rgb(100%,100%,100%);fill-opacity:1;" d="M 866.40625 1529.296875 C 911.328125 1564.84375 898.4375 1616.40625 898.046875 1616.796875 L 898.046875 1617.1875 L 913.671875 1588.671875 C 913.671875 1588.671875 913.671875 1588.671875 913.671875 1588.28125 L 914.0625 1587.5 C 914.453125 1587.109375 914.453125 1586.71875 914.84375 1585.9375 C 922.65625 1571.875 956.640625 1503.515625 918.359375 1466.40625 L 907.03125 1455.46875 C 866.40625 1416.796875 821.09375 1373.046875 842.578125 1325 C 820.703125 1341.40625 807.8125 1361.328125 803.515625 1385.9375 C 794.140625 1443.75 840.625 1508.984375 866.40625 1529.296875 Z M 866.40625 1529.296875 "/>
<path style=" stroke:none;fill-rule:nonzero;fill:rgb(0%,68.235294%,93.72549%);fill-opacity:1;" d="M 217.1875 995.3125 L 214.84375 998.046875 C 214.84375 998.046875 215.625 997.65625 216.796875 997.265625 C 217.1875 996.09375 217.1875 995.3125 217.1875 995.3125 Z M 217.1875 995.3125 "/>
<path style=" stroke:none;fill-rule:nonzero;fill:rgb(0%,68.235294%,93.72549%);fill-opacity:1;" d="M 202.734375 1074.609375 C 202.34375 1076.953125 202.34375 1079.6875 202.34375 1082.421875 C 203.125 1082.03125 203.90625 1082.03125 204.6875 1081.640625 Z M 202.734375 1074.609375 "/>
<path style=" stroke:none;fill-rule:nonzero;fill:rgb(0%,68.235294%,93.72549%);fill-opacity:1;" d="M 311.71875 1405.078125 C 313.28125 1406.640625 314.84375 1408.203125 316.40625 1409.765625 L 313.671875 1404.296875 C 313.671875 1404.6875 312.890625 1404.6875 311.71875 1405.078125 Z M 311.71875 1405.078125 "/>
<path style=" stroke:none;fill-rule:nonzero;fill:rgb(0%,68.235294%,93.72549%);fill-opacity:1;" d="M 376.953125 1451.171875 L 380.078125 1451.5625 C 379.6875 1451.171875 379.296875 1450.78125 378.90625 1450.78125 Z M 376.953125 1451.171875 "/>
<path style=" stroke:none;fill-rule:nonzero;fill:rgb(0%,68.235294%,93.72549%);fill-opacity:1;" d="M 891.40625 1614.453125 C 891.40625 1614.84375 891.40625 1614.84375 891.40625 1614.84375 L 892.1875 1613.671875 C 891.796875 1613.671875 891.40625 1614.0625 891.40625 1614.453125 Z M 891.40625 1614.453125 "/>
<path style=" stroke:none;fill-rule:nonzero;fill:rgb(0%,68.235294%,93.72549%);fill-opacity:1;" d="M 898.046875 1617.1875 L 897.65625 1617.96875 L 898.046875 1617.578125 Z M 898.046875 1617.1875 "/>
<path style=" stroke:none;fill-rule:nonzero;fill:rgb(0%,68.235294%,93.72549%);fill-opacity:1;" d="M 914.453125 1587.5 L 914.0625 1588.28125 C 914.0625 1587.890625 914.0625 1587.5 914.453125 1587.5 Z M 914.453125 1587.5 "/>
<path style=" stroke:none;fill-rule:nonzero;fill:rgb(0%,68.235294%,93.72549%);fill-opacity:1;" d="M 1421.09375 1397.265625 C 1421.09375 1397.265625 1421.09375 1397.65625 1421.09375 1397.265625 C 1421.484375 1397.265625 1421.484375 1397.65625 1421.875 1397.65625 Z M 1421.09375 1397.265625 "/>
<path style=" stroke:none;fill-rule:nonzero;fill:rgb(96.862745%,58.039216%,11.764706%);fill-opacity:1;" d="M 1640.625 680.46875 L 1623.828125 679.6875 L 1299.21875 710.9375 L 1300 718.359375 L 1619.53125 687.890625 C 1622.65625 683.984375 1626.171875 681.640625 1630.46875 680.46875 C 1633.984375 679.6875 1637.109375 686.328125 1641.015625 687.5 Z M 1640.625 680.46875 "/>
<path style=" stroke:none;fill-rule:nonzero;fill:rgb(96.862745%,58.039216%,11.764706%);fill-opacity:1;" d="M 924.21875 1471.09375 C 924.21875 1471.09375 942.578125 1498.046875 887.5 1558.984375 C 887.5 1558.984375 902.734375 1583.984375 894.140625 1622.265625 L 896.484375 1621.875 L 919.140625 1581.640625 C 919.140625 1582.03125 958.59375 1515.234375 924.21875 1471.09375 Z M 924.21875 1471.09375 "/>
<path style=" stroke:none;fill-rule:nonzero;fill:rgb(96.862745%,58.039216%,11.764706%);fill-opacity:1;" d="M 999.609375 1660.9375 C 999.609375 1660.9375 1016.015625 1704.296875 977.734375 1765.234375 C 977.734375 1765.234375 996.875 1787.890625 989.0625 1826.5625 C 989.0625 1826.5625 1016.796875 1782.421875 1017.1875 1713.671875 C 1017.1875 1713.28125 1014.453125 1680.46875 999.609375 1660.9375 Z M 999.609375 1660.9375 "/>
<path style=" stroke:none;fill-rule:nonzero;fill:rgb(96.862745%,58.039216%,11.764706%);fill-opacity:1;" d="M 918.75 1466.015625 C 957.03125 1503.515625 923.046875 1571.484375 915.234375 1585.546875 L 918.359375 1586.71875 C 919.53125 1587.5 920.703125 1587.890625 922.265625 1588.28125 C 931.640625 1571.484375 965.625 1501.171875 923.828125 1460.546875 L 912.5 1449.609375 C 870.3125 1409.375 816.796875 1358.59375 851.171875 1310.15625 C 846.484375 1312.890625 844.53125 1317.96875 840.234375 1321.09375 C 818.359375 1369.140625 866.796875 1416.015625 907.421875 1455.078125 Z M 918.75 1466.015625 "/>
<path style=" stroke:none;fill-rule:nonzero;fill:rgb(96.862745%,58.039216%,11.764706%);fill-opacity:1;" d="M 977.734375 1836.328125 C 977.734375 1835.9375 983.984375 1826.171875 991.015625 1810.15625 C 991.40625 1805.46875 991.796875 1800.78125 991.40625 1796.09375 C 989.84375 1769.921875 975.78125 1746.09375 950 1725.78125 C 902.734375 1688.671875 891.796875 1659.765625 891.40625 1641.015625 L 886.71875 1638.28125 L 894.53125 1624.21875 C 896.09375 1620.703125 897.65625 1618.359375 897.65625 1618.359375 L 898.046875 1617.1875 L 898.046875 1616.796875 C 898.046875 1616.40625 911.328125 1564.453125 866.40625 1529.296875 C 840.625 1508.984375 794.140625 1444.140625 803.90625 1385.546875 C 807.8125 1360.9375 821.09375 1341.015625 842.96875 1324.609375 C 844.921875 1319.921875 847.65625 1315.234375 851.171875 1310.9375 L 851.171875 1310.546875 C 820.3125 1328.90625 802.34375 1353.515625 796.875 1384.375 C 786.328125 1446.484375 834.375 1513.28125 862.109375 1535.15625 C 901.171875 1566.015625 892.96875 1608.59375 891.40625 1614.453125 C 891.40625 1614.0625 891.796875 1614.0625 891.796875 1613.671875 L 891.015625 1614.84375 C 891.015625 1614.84375 891.015625 1614.453125 891.015625 1614.0625 C 889.0625 1617.1875 882.421875 1628.515625 884.375 1646.484375 C 887.5 1673.4375 907.8125 1701.953125 944.921875 1730.859375 C 969.140625 1749.609375 982.03125 1771.484375 983.59375 1795.703125 C 984.375 1810.15625 981.25 1823.4375 976.5625 1835.546875 Z M 977.734375 1836.328125 "/>
<path style=" stroke:none;fill-rule:nonzero;fill:rgb(96.862745%,58.039216%,11.764706%);fill-opacity:1;" d="M 1366.40625 1323.4375 C 1366.40625 1323.4375 1129.6875 982.8125 1128.125 518.359375 C 1128.125 518.359375 1057.03125 953.125 1366.40625 1323.4375 Z M 1366.40625 1323.4375 "/>
<path style=" stroke:none;fill-rule:nonzero;fill:rgb(96.862745%,58.039216%,11.764706%);fill-opacity:1;" d="M 1417.578125 1109.375 L 1683.984375 923.828125 C 1660.9375 914.84375 1634.375 871.875 1618.75 815.234375 C 1604.6875 764.0625 1603.90625 714.84375 1616.015625 692.96875 C 1617.1875 691.015625 1618.359375 689.453125 1619.53125 687.890625 L 1311.71875 716.796875 L 1301.953125 716.796875 C 1321.09375 838.671875 1356.25 973.4375 1416.015625 1110.15625 Z M 1417.578125 1109.375 "/>
<g clip-path="url(#clip1)" clip-rule="nonzero">
<g clip-path="url(#clip2)" clip-rule="nonzero">
<path style=" stroke:none;fill-rule:nonzero;fill:rgb(96.862745%,58.039216%,11.764706%);fill-opacity:1;" d="M 1308.984375 691.40625 L 1500 655.46875 L 1489.0625 652.34375 L 1310.546875 685.9375 Z M 1308.984375 691.40625 "/>
</g>
</g>
<g clip-path="url(#clip3)" clip-rule="nonzero">
<g clip-path="url(#clip4)" clip-rule="nonzero">
<path style=" stroke:none;fill-rule:nonzero;fill:rgb(96.862745%,58.039216%,11.764706%);fill-opacity:1;" d="M 1307.8125 696.484375 L 1510.9375 658.203125 L 1500 655.46875 L 1308.984375 691.40625 Z M 1307.8125 696.484375 "/>
</g>
</g>
<g clip-path="url(#clip5)" clip-rule="nonzero">
<g clip-path="url(#clip6)" clip-rule="nonzero">
<path style=" stroke:none;fill-rule:nonzero;fill:rgb(96.862745%,58.039216%,11.764706%);fill-opacity:1;" d="M 1306.25 701.953125 L 1521.875 661.328125 L 1510.9375 658.203125 L 1307.8125 696.484375 Z M 1306.25 701.953125 "/>
</g>
</g>
<g clip-path="url(#clip7)" clip-rule="nonzero">
<g clip-path="url(#clip8)" clip-rule="nonzero">
<path style=" stroke:none;fill-rule:nonzero;fill:rgb(96.862745%,58.039216%,11.764706%);fill-opacity:1;" d="M 1305.078125 707.03125 L 1532.8125 664.453125 L 1521.875 661.328125 L 1306.25 701.953125 Z M 1305.078125 707.03125 "/>
</g>
</g>
<g clip-path="url(#clip9)" clip-rule="nonzero">
<g clip-path="url(#clip10)" clip-rule="nonzero">
<path style=" stroke:none;fill-rule:nonzero;fill:rgb(96.862745%,58.039216%,11.764706%);fill-opacity:1;" d="M 1303.515625 712.5 L 1543.75 667.1875 L 1532.8125 664.453125 L 1305.078125 707.03125 Z M 1303.515625 712.5 "/>
</g>
</g>
<g clip-path="url(#clip11)" clip-rule="nonzero">
<g clip-path="url(#clip12)" clip-rule="nonzero">
<path style=" stroke:none;fill-rule:nonzero;fill:rgb(96.862745%,58.039216%,11.764706%);fill-opacity:1;" d="M 1301.953125 717.578125 L 1554.6875 670.3125 L 1543.75 667.1875 L 1303.515625 712.5 Z M 1301.953125 717.578125 "/>
</g>
</g>
<g clip-path="url(#clip13)" clip-rule="nonzero">
<g clip-path="url(#clip14)" clip-rule="nonzero">
<path style=" stroke:none;fill-rule:nonzero;fill:rgb(96.862745%,58.039216%,11.764706%);fill-opacity:1;" d="M 1300.78125 723.046875 L 1565.625 673.046875 L 1554.6875 670.3125 L 1301.953125 717.578125 Z M 1300.78125 723.046875 "/>
</g>
</g>
<g clip-path="url(#clip15)" clip-rule="nonzero">
<g clip-path="url(#clip16)" clip-rule="nonzero">
<path style=" stroke:none;fill-rule:nonzero;fill:rgb(96.862745%,58.039216%,11.764706%);fill-opacity:1;" d="M 1299.21875 728.125 L 1576.5625 676.171875 L 1565.625 673.046875 L 1300.78125 723.046875 Z M 1299.21875 728.125 "/>
</g>
</g>
<g clip-path="url(#clip17)" clip-rule="nonzero">
<g clip-path="url(#clip18)" clip-rule="nonzero">
<path style=" stroke:none;fill-rule:nonzero;fill:rgb(96.862745%,58.039216%,11.764706%);fill-opacity:1;" d="M 1298.046875 733.59375 L 1587.890625 678.90625 L 1576.5625 676.171875 L 1299.21875 728.125 Z M 1298.046875 733.59375 "/>
</g>
</g>
<g clip-path="url(#clip19)" clip-rule="nonzero">
<g clip-path="url(#clip20)" clip-rule="nonzero">
<path style=" stroke:none;fill-rule:nonzero;fill:rgb(96.862745%,58.039216%,11.764706%);fill-opacity:1;" d="M 1296.484375 738.671875 L 1598.828125 682.03125 L 1587.890625 678.90625 L 1298.046875 733.59375 Z M 1296.484375 738.671875 "/>
</g>
</g>
<g clip-path="url(#clip21)" clip-rule="nonzero">
<g clip-path="url(#clip22)" clip-rule="nonzero">
<path style=" stroke:none;fill-rule:nonzero;fill:rgb(96.862745%,58.039216%,11.764706%);fill-opacity:1;" d="M 1294.921875 744.140625 L 1609.765625 684.765625 L 1598.828125 682.03125 L 1296.484375 738.671875 Z M 1294.921875 744.140625 "/>
</g>
</g>
<g clip-path="url(#clip23)" clip-rule="nonzero">
<g clip-path="url(#clip24)" clip-rule="nonzero">
<path style=" stroke:none;fill-rule:nonzero;fill:rgb(96.862745%,58.039216%,11.764706%);fill-opacity:1;" d="M 1293.75 749.21875 L 1620.703125 687.890625 L 1609.765625 684.765625 L 1294.921875 744.140625 Z M 1293.75 749.21875 "/>
</g>
</g>
<g clip-path="url(#clip25)" clip-rule="nonzero">
<g clip-path="url(#clip26)" clip-rule="nonzero">
<path style=" stroke:none;fill-rule:nonzero;fill:rgb(96.862745%,58.039216%,11.764706%);fill-opacity:1;" d="M 1292.1875 754.6875 L 1631.640625 690.625 L 1620.703125 687.890625 L 1293.75 749.21875 Z M 1292.1875 754.6875 "/>
</g>
</g>
<g clip-path="url(#clip27)" clip-rule="nonzero">
<g clip-path="url(#clip28)" clip-rule="nonzero">
<path style=" stroke:none;fill-rule:nonzero;fill:rgb(96.862745%,58.039216%,11.764706%);fill-opacity:1;" d="M 1291.015625 759.765625 L 1642.578125 693.75 L 1631.640625 690.625 L 1292.1875 754.6875 Z M 1291.015625 759.765625 "/>
</g>
</g>
<g clip-path="url(#clip29)" clip-rule="nonzero">
<g clip-path="url(#clip30)" clip-rule="nonzero">
<path style=" stroke:none;fill-rule:nonzero;fill:rgb(96.862745%,58.039216%,11.764706%);fill-opacity:1;" d="M 1289.453125 765.234375 L 1653.515625 696.484375 L 1642.578125 693.75 L 1291.015625 759.765625 Z M 1289.453125 765.234375 "/>
</g>
</g>
<g clip-path="url(#clip31)" clip-rule="nonzero">
<g clip-path="url(#clip32)" clip-rule="nonzero">
<path style=" stroke:none;fill-rule:nonzero;fill:rgb(96.862745%,58.039216%,11.764706%);fill-opacity:1;" d="M 1289.0625 766.40625 L 1289.84375 770.3125 L 1660.9375 700.390625 L 1660.9375 698.4375 L 1653.515625 696.484375 L 1289.453125 765.234375 Z M 1289.0625 766.40625 "/>
</g>
</g>
<g clip-path="url(#clip33)" clip-rule="nonzero">
<g clip-path="url(#clip34)" clip-rule="nonzero">
<path style=" stroke:none;fill-rule:nonzero;fill:rgb(96.862745%,58.039216%,11.764706%);fill-opacity:1;" d="M 1289.84375 770.3125 L 1290.625 775 L 1662.109375 705.078125 L 1660.9375 700.390625 Z M 1289.84375 770.3125 "/>
</g>
</g>
<g clip-path="url(#clip35)" clip-rule="nonzero">
<g clip-path="url(#clip36)" clip-rule="nonzero">
<path style=" stroke:none;fill-rule:nonzero;fill:rgb(96.862745%,58.039216%,11.764706%);fill-opacity:1;" d="M 1290.625 775 L 1291.40625 779.6875 L 1662.890625 709.765625 L 1662.109375 705.078125 Z M 1290.625 775 "/>
</g>
</g>
<g clip-path="url(#clip37)" clip-rule="nonzero">
<g clip-path="url(#clip38)" clip-rule="nonzero">
<path style=" stroke:none;fill-rule:nonzero;fill:rgb(96.862745%,58.039216%,11.764706%);fill-opacity:1;" d="M 1291.40625 779.6875 L 1292.578125 784.765625 L 1663.671875 714.84375 L 1662.890625 709.765625 Z M 1291.40625 779.6875 "/>
</g>
</g>
<g clip-path="url(#clip39)" clip-rule="nonzero">
<g clip-path="url(#clip40)" clip-rule="nonzero">
<path style=" stroke:none;fill-rule:nonzero;fill:rgb(96.862745%,58.039216%,11.764706%);fill-opacity:1;" d="M 1292.578125 784.765625 L 1293.359375 789.453125 L 1664.84375 719.53125 L 1663.671875 714.84375 Z M 1292.578125 784.765625 "/>
</g>
</g>
<g clip-path="url(#clip41)" clip-rule="nonzero">
<g clip-path="url(#clip42)" clip-rule="nonzero">
<path style=" stroke:none;fill-rule:nonzero;fill:rgb(96.862745%,58.039216%,11.764706%);fill-opacity:1;" d="M 1293.359375 789.453125 L 1294.140625 794.53125 L 1665.625 724.609375 L 1664.84375 719.53125 Z M 1293.359375 789.453125 "/>
</g>
</g>
<g clip-path="url(#clip43)" clip-rule="nonzero">
<g clip-path="url(#clip44)" clip-rule="nonzero">
<path style=" stroke:none;fill-rule:nonzero;fill:rgb(96.862745%,58.039216%,11.764706%);fill-opacity:1;" d="M 1295.398438 799.308594 L 1294.449219 794.320312 L 1665.535156 723.71875 L 1666.484375 728.707031 Z M 1295.398438 799.308594 "/>
</g>
</g>
<g clip-path="url(#clip45)" clip-rule="nonzero">
<g clip-path="url(#clip46)" clip-rule="nonzero">
<path style=" stroke:none;fill-rule:nonzero;fill:rgb(96.862745%,58.039216%,11.764706%);fill-opacity:1;" d="M 1295.3125 799.21875 L 1296.09375 803.90625 L 1667.578125 733.984375 L 1666.40625 729.296875 Z M 1295.3125 799.21875 "/>
</g>
</g>
<g clip-path="url(#clip47)" clip-rule="nonzero">
<g clip-path="url(#clip48)" clip-rule="nonzero">
<path style=" stroke:none;fill-rule:nonzero;fill:rgb(96.862745%,58.039216%,11.764706%);fill-opacity:1;" d="M 1296.09375 803.90625 L 1296.875 808.984375 L 1668.359375 739.0625 L 1667.578125 733.984375 Z M 1296.09375 803.90625 "/>
</g>
</g>
<g clip-path="url(#clip49)" clip-rule="nonzero">
<g clip-path="url(#clip50)" clip-rule="nonzero">
<path style=" stroke:none;fill-rule:nonzero;fill:rgb(96.862745%,58.039216%,11.764706%);fill-opacity:1;" d="M 1296.875 808.984375 L 1298.046875 813.671875 L 1669.140625 743.75 L 1668.359375 739.0625 Z M 1296.875 808.984375 "/>
</g>
</g>
<g clip-path="url(#clip51)" clip-rule="nonzero">
<g clip-path="url(#clip52)" clip-rule="nonzero">
<path style=" stroke:none;fill-rule:nonzero;fill:rgb(96.862745%,58.039216%,11.764706%);fill-opacity:1;" d="M 1298.046875 813.671875 L 1298.828125 818.359375 L 1670.3125 748.828125 L 1669.140625 743.75 Z M 1298.046875 813.671875 "/>
</g>
</g>
<g clip-path="url(#clip53)" clip-rule="nonzero">
<g clip-path="url(#clip54)" clip-rule="nonzero">
<path style=" stroke:none;fill-rule:nonzero;fill:rgb(96.862745%,58.039216%,11.764706%);fill-opacity:1;" d="M 1298.828125 818.359375 L 1299.609375 823.4375 L 1671.09375 753.515625 L 1670.3125 748.828125 Z M 1298.828125 818.359375 "/>
</g>
</g>
<g clip-path="url(#clip55)" clip-rule="nonzero">
<g clip-path="url(#clip56)" clip-rule="nonzero">
<path style=" stroke:none;fill-rule:nonzero;fill:rgb(96.862745%,58.039216%,11.764706%);fill-opacity:1;" d="M 1299.609375 823.4375 L 1300.78125 828.125 L 1671.875 758.203125 L 1671.09375 753.515625 Z M 1299.609375 823.4375 "/>
</g>
</g>
<g clip-path="url(#clip57)" clip-rule="nonzero">
<g clip-path="url(#clip58)" clip-rule="nonzero">
<path style=" stroke:none;fill-rule:nonzero;fill:rgb(96.862745%,58.039216%,11.764706%);fill-opacity:1;" d="M 1300.78125 828.125 L 1301.5625 833.203125 L 1673.046875 763.28125 L 1671.875 758.203125 Z M 1300.78125 828.125 "/>
</g>
</g>
<g clip-path="url(#clip59)" clip-rule="nonzero">
<g clip-path="url(#clip60)" clip-rule="nonzero">
<path style=" stroke:none;fill-rule:nonzero;fill:rgb(96.862745%,58.039216%,11.764706%);fill-opacity:1;" d="M 1301.5625 833.203125 L 1302.34375 837.890625 L 1673.828125 767.96875 L 1673.046875 763.28125 Z M 1301.5625 833.203125 "/>
</g>
</g>
<g clip-path="url(#clip61)" clip-rule="nonzero">
<g clip-path="url(#clip62)" clip-rule="nonzero">
<path style=" stroke:none;fill-rule:nonzero;fill:rgb(96.862745%,58.039216%,11.764706%);fill-opacity:1;" d="M 1302.34375 837.890625 L 1303.515625 842.578125 L 1674.609375 772.65625 L 1673.828125 767.96875 Z M 1302.34375 837.890625 "/>
</g>
</g>
<g clip-path="url(#clip63)" clip-rule="nonzero">
<g clip-path="url(#clip64)" clip-rule="nonzero">
<path style=" stroke:none;fill-rule:nonzero;fill:rgb(96.862745%,58.039216%,11.764706%);fill-opacity:1;" d="M 1303.515625 842.578125 L 1304.296875 847.65625 L 1675.78125 777.734375 L 1674.609375 772.65625 Z M 1303.515625 842.578125 "/>
</g>
</g>
<g clip-path="url(#clip65)" clip-rule="nonzero">
<g clip-path="url(#clip66)" clip-rule="nonzero">
<path style=" stroke:none;fill-rule:nonzero;fill:rgb(96.862745%,58.039216%,11.764706%);fill-opacity:1;" d="M 1304.296875 847.65625 L 1305.078125 852.34375 L 1676.5625 782.421875 L 1675.78125 777.734375 Z M 1304.296875 847.65625 "/>
</g>
</g>
<g clip-path="url(#clip67)" clip-rule="nonzero">
<g clip-path="url(#clip68)" clip-rule="nonzero">
<path style=" stroke:none;fill-rule:nonzero;fill:rgb(96.862745%,58.039216%,11.764706%);fill-opacity:1;" d="M 1305.078125 852.34375 L 1306.25 857.421875 L 1677.734375 787.5 L 1676.5625 782.421875 Z M 1305.078125 852.34375 "/>
</g>
</g>
<g clip-path="url(#clip69)" clip-rule="nonzero">
<g clip-path="url(#clip70)" clip-rule="nonzero">
<path style=" stroke:none;fill-rule:nonzero;fill:rgb(96.862745%,58.039216%,11.764706%);fill-opacity:1;" d="M 1306.25 857.421875 L 1307.03125 862.109375 L 1678.515625 792.1875 L 1677.734375 787.5 Z M 1306.25 857.421875 "/>
</g>
</g>
<g clip-path="url(#clip71)" clip-rule="nonzero">
<g clip-path="url(#clip72)" clip-rule="nonzero">
<path style=" stroke:none;fill-rule:nonzero;fill:rgb(96.862745%,58.039216%,11.764706%);fill-opacity:1;" d="M 1307.03125 862.109375 L 1307.8125 866.796875 L 1679.296875 796.875 L 1678.515625 792.1875 Z M 1307.03125 862.109375 "/>
</g>
</g>
<g clip-path="url(#clip73)" clip-rule="nonzero">
<g clip-path="url(#clip74)" clip-rule="nonzero">
<path style=" stroke:none;fill-rule:nonzero;fill:rgb(96.862745%,58.039216%,11.764706%);fill-opacity:1;" d="M 1307.8125 866.796875 L 1308.984375 871.875 L 1680.078125 801.953125 L 1679.296875 796.875 Z M 1307.8125 866.796875 "/>
</g>
</g>
<g clip-path="url(#clip75)" clip-rule="nonzero">
<g clip-path="url(#clip76)" clip-rule="nonzero">
<path style=" stroke:none;fill-rule:nonzero;fill:rgb(96.862745%,58.039216%,11.764706%);fill-opacity:1;" d="M 1308.984375 871.875 L 1309.765625 876.5625 L 1681.25 806.640625 L 1680.078125 801.953125 Z M 1308.984375 871.875 "/>
</g>
</g>
<g clip-path="url(#clip77)" clip-rule="nonzero">
<g clip-path="url(#clip78)" clip-rule="nonzero">
<path style=" stroke:none;fill-rule:nonzero;fill:rgb(96.862745%,58.039216%,11.764706%);fill-opacity:1;" d="M 1310.792969 882.078125 L 1309.839844 877.089844 L 1681.234375 806.113281 L 1682.1875 811.101562 Z M 1310.792969 882.078125 "/>
</g>
</g>
<g clip-path="url(#clip79)" clip-rule="nonzero">
<g clip-path="url(#clip80)" clip-rule="nonzero">
<path style=" stroke:none;fill-rule:nonzero;fill:rgb(96.862745%,58.039216%,11.764706%);fill-opacity:1;" d="M 1311.417969 886.578125 L 1310.46875 881.589844 L 1681.902344 810.84375 L 1682.851562 815.832031 Z M 1311.417969 886.578125 "/>
</g>
</g>
<g clip-path="url(#clip81)" clip-rule="nonzero">
<g clip-path="url(#clip82)" clip-rule="nonzero">
<path style=" stroke:none;fill-rule:nonzero;fill:rgb(96.862745%,58.039216%,11.764706%);fill-opacity:1;" d="M 1311.71875 886.328125 L 1312.5 891.015625 L 1683.984375 821.09375 L 1683.203125 816.40625 Z M 1311.71875 886.328125 "/>
</g>
</g>
<g clip-path="url(#clip83)" clip-rule="nonzero">
<g clip-path="url(#clip84)" clip-rule="nonzero">
<path style=" stroke:none;fill-rule:nonzero;fill:rgb(96.862745%,58.039216%,11.764706%);fill-opacity:1;" d="M 1312.5 891.015625 L 1313.28125 896.09375 L 1684.765625 826.171875 L 1683.984375 821.09375 Z M 1312.5 891.015625 "/>
</g>
</g>
<g clip-path="url(#clip85)" clip-rule="nonzero">
<g clip-path="url(#clip86)" clip-rule="nonzero">
<path style=" stroke:none;fill-rule:nonzero;fill:rgb(96.862745%,58.039216%,11.764706%);fill-opacity:1;" d="M 1313.28125 896.09375 L 1314.453125 900.78125 L 1685.546875 830.859375 L 1684.765625 826.171875 Z M 1313.28125 896.09375 "/>
</g>
</g>
<g clip-path="url(#clip87)" clip-rule="nonzero">
<g clip-path="url(#clip88)" clip-rule="nonzero">
<path style=" stroke:none;fill-rule:nonzero;fill:rgb(96.862745%,58.039216%,11.764706%);fill-opacity:1;" d="M 1314.453125 900.78125 L 1315.234375 905.46875 L 1686.71875 835.546875 L 1685.546875 830.859375 Z M 1314.453125 900.78125 "/>
</g>
</g>
<g clip-path="url(#clip89)" clip-rule="nonzero">
<g clip-path="url(#clip90)" clip-rule="nonzero">
<path style=" stroke:none;fill-rule:nonzero;fill:rgb(96.862745%,58.039216%,11.764706%);fill-opacity:1;" d="M 1315.234375 905.46875 L 1316.015625 910.546875 L 1687.5 840.625 L 1686.71875 835.546875 Z M 1315.234375 905.46875 "/>
</g>
</g>
<g clip-path="url(#clip91)" clip-rule="nonzero">
<g clip-path="url(#clip92)" clip-rule="nonzero">
<path style=" stroke:none;fill-rule:nonzero;fill:rgb(96.862745%,58.039216%,11.764706%);fill-opacity:1;" d="M 1316.015625 910.546875 L 1317.1875 915.234375 L 1688.28125 845.3125 L 1687.5 840.625 Z M 1316.015625 910.546875 "/>
</g>
</g>
<g clip-path="url(#clip93)" clip-rule="nonzero">
<g clip-path="url(#clip94)" clip-rule="nonzero">
<path style=" stroke:none;fill-rule:nonzero;fill:rgb(96.862745%,58.039216%,11.764706%);fill-opacity:1;" d="M 1317.1875 915.234375 L 1317.96875 920.3125 L 1689.453125 850.390625 L 1688.28125 845.3125 Z M 1317.1875 915.234375 "/>
</g>
</g>
<g clip-path="url(#clip95)" clip-rule="nonzero">
<g clip-path="url(#clip96)" clip-rule="nonzero">
<path style=" stroke:none;fill-rule:nonzero;fill:rgb(96.862745%,58.039216%,11.764706%);fill-opacity:1;" d="M 1317.96875 920.3125 L 1318.75 925 L 1690.234375 855.078125 L 1689.453125 850.390625 Z M 1317.96875 920.3125 "/>
</g>
</g>
<g clip-path="url(#clip97)" clip-rule="nonzero">
<g clip-path="url(#clip98)" clip-rule="nonzero">
<path style=" stroke:none;fill-rule:nonzero;fill:rgb(96.862745%,58.039216%,11.764706%);fill-opacity:1;" d="M 1318.75 925 L 1319.921875 929.6875 L 1691.015625 859.765625 L 1690.234375 855.078125 Z M 1318.75 925 "/>
</g>
</g>
<g clip-path="url(#clip99)" clip-rule="nonzero">
<g clip-path="url(#clip100)" clip-rule="nonzero">
<path style=" stroke:none;fill-rule:nonzero;fill:rgb(96.862745%,58.039216%,11.764706%);fill-opacity:1;" d="M 1319.921875 929.6875 L 1320.703125 934.765625 L 1692.1875 864.84375 L 1691.015625 859.765625 Z M 1319.921875 929.6875 "/>
</g>
</g>
<g clip-path="url(#clip101)" clip-rule="nonzero">
<g clip-path="url(#clip102)" clip-rule="nonzero">
<path style=" stroke:none;fill-rule:nonzero;fill:rgb(96.862745%,58.039216%,11.764706%);fill-opacity:1;" d="M 1320.703125 934.765625 L 1321.484375 939.453125 L 1692.96875 869.53125 L 1692.1875 864.84375 Z M 1320.703125 934.765625 "/>
</g>
</g>
<g clip-path="url(#clip103)" clip-rule="nonzero">
<g clip-path="url(#clip104)" clip-rule="nonzero">
<path style=" stroke:none;fill-rule:nonzero;fill:rgb(96.862745%,58.039216%,11.764706%);fill-opacity:1;" d="M 1321.484375 939.453125 L 1322.265625 944.140625 L 1693.75 874.609375 L 1692.96875 869.53125 Z M 1321.484375 939.453125 "/>
</g>
</g>
<g clip-path="url(#clip105)" clip-rule="nonzero">
<g clip-path="url(#clip106)" clip-rule="nonzero">
<path style=" stroke:none;fill-rule:nonzero;fill:rgb(96.862745%,58.039216%,11.764706%);fill-opacity:1;" d="M 1322.265625 944.140625 L 1323.4375 949.21875 L 1694.921875 879.296875 L 1693.75 874.609375 Z M 1322.265625 944.140625 "/>
</g>
</g>
<g clip-path="url(#clip107)" clip-rule="nonzero">
<g clip-path="url(#clip108)" clip-rule="nonzero">
<path style=" stroke:none;fill-rule:nonzero;fill:rgb(96.862745%,58.039216%,11.764706%);fill-opacity:1;" d="M 1323.4375 949.21875 L 1324.21875 953.90625 L 1694.921875 884.375 L 1695.3125 882.03125 L 1694.921875 879.296875 Z M 1323.4375 949.21875 "/>
</g>
</g>
<g clip-path="url(#clip109)" clip-rule="nonzero">
<g clip-path="url(#clip110)" clip-rule="nonzero">
<path style=" stroke:none;fill-rule:nonzero;fill:rgb(96.862745%,58.039216%,11.764706%);fill-opacity:1;" d="M 1324.21875 953.90625 L 1325.390625 958.984375 L 1693.359375 889.453125 L 1694.921875 884.375 Z M 1324.21875 953.90625 "/>
</g>
</g>
<g clip-path="url(#clip111)" clip-rule="nonzero">
<g clip-path="url(#clip112)" clip-rule="nonzero">
<path style=" stroke:none;fill-rule:nonzero;fill:rgb(96.862745%,58.039216%,11.764706%);fill-opacity:1;" d="M 1325.390625 958.984375 L 1326.171875 963.671875 L 1691.796875 894.921875 L 1693.359375 889.453125 Z M 1325.390625 958.984375 "/>
</g>
</g>
<g clip-path="url(#clip113)" clip-rule="nonzero">
<g clip-path="url(#clip114)" clip-rule="nonzero">
<path style=" stroke:none;fill-rule:nonzero;fill:rgb(96.862745%,58.039216%,11.764706%);fill-opacity:1;" d="M 1326.171875 963.671875 L 1326.953125 968.359375 L 1690.625 900 L 1691.796875 894.921875 Z M 1326.171875 963.671875 "/>
</g>
</g>
<g clip-path="url(#clip115)" clip-rule="nonzero">
<g clip-path="url(#clip116)" clip-rule="nonzero">
<path style=" stroke:none;fill-rule:nonzero;fill:rgb(96.862745%,58.039216%,11.764706%);fill-opacity:1;" d="M 1326.953125 968.359375 L 1328.125 973.4375 L 1689.0625 905.46875 L 1690.625 900 Z M 1326.953125 968.359375 "/>
</g>
</g>
<g clip-path="url(#clip117)" clip-rule="nonzero">
<g clip-path="url(#clip118)" clip-rule="nonzero">
<path style=" stroke:none;fill-rule:nonzero;fill:rgb(96.862745%,58.039216%,11.764706%);fill-opacity:1;" d="M 1328.125 973.4375 L 1328.90625 978.125 L 1687.5 910.546875 L 1689.0625 905.46875 Z M 1328.125 973.4375 "/>
</g>
</g>
<g clip-path="url(#clip119)" clip-rule="nonzero">
<g clip-path="url(#clip120)" clip-rule="nonzero">
<path style=" stroke:none;fill-rule:nonzero;fill:rgb(96.862745%,58.039216%,11.764706%);fill-opacity:1;" d="M 1328.90625 978.125 L 1329.6875 983.203125 L 1686.328125 916.015625 L 1687.5 910.546875 Z M 1328.90625 978.125 "/>
</g>
</g>
<g clip-path="url(#clip121)" clip-rule="nonzero">
<g clip-path="url(#clip122)" clip-rule="nonzero">
<path style=" stroke:none;fill-rule:nonzero;fill:rgb(96.862745%,58.039216%,11.764706%);fill-opacity:1;" d="M 1329.6875 983.203125 L 1330.859375 987.890625 L 1684.765625 921.09375 L 1686.328125 916.015625 Z M 1329.6875 983.203125 "/>
</g>
</g>
<g clip-path="url(#clip123)" clip-rule="nonzero">
<g clip-path="url(#clip124)" clip-rule="nonzero">
<path style=" stroke:none;fill-rule:nonzero;fill:rgb(96.862745%,58.039216%,11.764706%);fill-opacity:1;" d="M 1330.859375 987.890625 L 1331.640625 992.578125 L 1683.59375 926.5625 L 1684.765625 921.09375 Z M 1330.859375 987.890625 "/>
</g>
</g>
<g clip-path="url(#clip125)" clip-rule="nonzero">
<g clip-path="url(#clip126)" clip-rule="nonzero">
<path style=" stroke:none;fill-rule:nonzero;fill:rgb(96.862745%,58.039216%,11.764706%);fill-opacity:1;" d="M 1331.640625 992.578125 L 1332.421875 997.65625 L 1682.03125 931.640625 L 1683.59375 926.5625 Z M 1331.640625 992.578125 "/>
</g>
</g>
<g clip-path="url(#clip127)" clip-rule="nonzero">
<g clip-path="url(#clip128)" clip-rule="nonzero">
<path style=" stroke:none;fill-rule:nonzero;fill:rgb(96.862745%,58.039216%,11.764706%);fill-opacity:1;" d="M 1332.421875 997.65625 L 1333.59375 1002.34375 L 1680.46875 937.109375 L 1682.03125 931.640625 Z M 1332.421875 997.65625 "/>
</g>
</g>
<g clip-path="url(#clip129)" clip-rule="nonzero">
<g clip-path="url(#clip130)" clip-rule="nonzero">
<path style=" stroke:none;fill-rule:nonzero;fill:rgb(96.862745%,58.039216%,11.764706%);fill-opacity:1;" d="M 1333.59375 1002.34375 L 1334.375 1007.03125 L 1679.296875 942.1875 L 1680.46875 937.109375 Z M 1333.59375 1002.34375 "/>
</g>
</g>
<g clip-path="url(#clip131)" clip-rule="nonzero">
<g clip-path="url(#clip132)" clip-rule="nonzero">
<path style=" stroke:none;fill-rule:nonzero;fill:rgb(96.862745%,58.039216%,11.764706%);fill-opacity:1;" d="M 1334.375 1007.03125 L 1335.15625 1012.109375 L 1677.734375 947.65625 L 1679.296875 942.1875 Z M 1334.375 1007.03125 "/>
</g>
</g>
<g clip-path="url(#clip133)" clip-rule="nonzero">
<g clip-path="url(#clip134)" clip-rule="nonzero">
<path style=" stroke:none;fill-rule:nonzero;fill:rgb(96.862745%,58.039216%,11.764706%);fill-opacity:1;" d="M 1335.15625 1012.109375 L 1335.9375 1016.796875 L 1676.171875 952.734375 L 1677.734375 947.65625 Z M 1335.15625 1012.109375 "/>
</g>
</g>
<g clip-path="url(#clip135)" clip-rule="nonzero">
<g clip-path="url(#clip136)" clip-rule="nonzero">
<path style=" stroke:none;fill-rule:nonzero;fill:rgb(96.862745%,58.039216%,11.764706%);fill-opacity:1;" d="M 1335.9375 1016.796875 L 1337.109375 1021.875 L 1675 958.203125 L 1676.171875 952.734375 Z M 1335.9375 1016.796875 "/>
</g>
</g>
<g clip-path="url(#clip137)" clip-rule="nonzero">
<g clip-path="url(#clip138)" clip-rule="nonzero">
<path style=" stroke:none;fill-rule:nonzero;fill:rgb(96.862745%,58.039216%,11.764706%);fill-opacity:1;" d="M 1337.109375 1021.875 L 1337.890625 1026.5625 L 1673.4375 963.28125 L 1675 958.203125 Z M 1337.109375 1021.875 "/>
</g>
</g>
<g clip-path="url(#clip139)" clip-rule="nonzero">
<g clip-path="url(#clip140)" clip-rule="nonzero">
<path style=" stroke:none;fill-rule:nonzero;fill:rgb(96.862745%,58.039216%,11.764706%);fill-opacity:1;" d="M 1337.890625 1026.5625 L 1338.671875 1031.25 L 1672.265625 968.75 L 1673.4375 963.28125 Z M 1337.890625 1026.5625 "/>
</g>
</g>
<g clip-path="url(#clip141)" clip-rule="nonzero">
<g clip-path="url(#clip142)" clip-rule="nonzero">
<path style=" stroke:none;fill-rule:nonzero;fill:rgb(96.862745%,58.039216%,11.764706%);fill-opacity:1;" d="M 1338.671875 1031.25 L 1339.84375 1036.328125 L 1670.703125 973.828125 L 1672.265625 968.75 Z M 1338.671875 1031.25 "/>
</g>
</g>
<g clip-path="url(#clip143)" clip-rule="nonzero">
<g clip-path="url(#clip144)" clip-rule="nonzero">
<path style=" stroke:none;fill-rule:nonzero;fill:rgb(96.862745%,58.039216%,11.764706%);fill-opacity:1;" d="M 1339.84375 1036.328125 L 1340.625 1041.015625 L 1669.140625 979.296875 L 1670.703125 973.828125 Z M 1339.84375 1036.328125 "/>
</g>
</g>
<g clip-path="url(#clip145)" clip-rule="nonzero">
<g clip-path="url(#clip146)" clip-rule="nonzero">
<path style=" stroke:none;fill-rule:nonzero;fill:rgb(96.862745%,58.039216%,11.764706%);fill-opacity:1;" d="M 1340.625 1041.015625 L 1341.40625 1045.703125 L 1667.96875 984.375 L 1669.140625 979.296875 Z M 1340.625 1041.015625 "/>
</g>
</g>
<g clip-path="url(#clip147)" clip-rule="nonzero">
<g clip-path="url(#clip148)" clip-rule="nonzero">
<path style=" stroke:none;fill-rule:nonzero;fill:rgb(96.862745%,58.039216%,11.764706%);fill-opacity:1;" d="M 1341.40625 1045.703125 L 1342.578125 1050.78125 L 1666.40625 989.84375 L 1667.96875 984.375 Z M 1341.40625 1045.703125 "/>
</g>
</g>
<g clip-path="url(#clip149)" clip-rule="nonzero">
<g clip-path="url(#clip150)" clip-rule="nonzero">
<path style=" stroke:none;fill-rule:nonzero;fill:rgb(96.862745%,58.039216%,11.764706%);fill-opacity:1;" d="M 1342.578125 1050.78125 L 1343.359375 1055.46875 L 1665.234375 994.921875 L 1666.40625 989.84375 Z M 1342.578125 1050.78125 "/>
</g>
</g>
<g clip-path="url(#clip151)" clip-rule="nonzero">
<g clip-path="url(#clip152)" clip-rule="nonzero">
<path style=" stroke:none;fill-rule:nonzero;fill:rgb(96.862745%,58.039216%,11.764706%);fill-opacity:1;" d="M 1343.359375 1055.46875 L 1344.53125 1060.546875 L 1663.671875 1000.390625 L 1665.234375 994.921875 Z M 1343.359375 1055.46875 "/>
</g>
</g>
<g clip-path="url(#clip153)" clip-rule="nonzero">
<g clip-path="url(#clip154)" clip-rule="nonzero">
<path style=" stroke:none;fill-rule:nonzero;fill:rgb(96.862745%,58.039216%,11.764706%);fill-opacity:1;" d="M 1344.53125 1060.546875 L 1345.3125 1065.234375 L 1662.109375 1005.46875 L 1663.671875 1000.390625 Z M 1344.53125 1060.546875 "/>
</g>
</g>
<g clip-path="url(#clip155)" clip-rule="nonzero">
<g clip-path="url(#clip156)" clip-rule="nonzero">
<path style=" stroke:none;fill-rule:nonzero;fill:rgb(96.862745%,58.039216%,11.764706%);fill-opacity:1;" d="M 1345.3125 1065.234375 L 1346.09375 1069.921875 L 1660.9375 1010.9375 L 1662.109375 1005.46875 Z M 1345.3125 1065.234375 "/>
</g>
</g>
<g clip-path="url(#clip157)" clip-rule="nonzero">
<g clip-path="url(#clip158)" clip-rule="nonzero">
<path style=" stroke:none;fill-rule:nonzero;fill:rgb(96.862745%,58.039216%,11.764706%);fill-opacity:1;" d="M 1346.09375 1069.921875 L 1347.265625 1075 L 1659.375 1016.015625 L 1660.9375 1010.9375 Z M 1346.09375 1069.921875 "/>
</g>
</g>
<g clip-path="url(#clip159)" clip-rule="nonzero">
<g clip-path="url(#clip160)" clip-rule="nonzero">
<path style=" stroke:none;fill-rule:nonzero;fill:rgb(96.862745%,58.039216%,11.764706%);fill-opacity:1;" d="M 1347.265625 1075 L 1348.046875 1079.6875 L 1658.203125 1021.484375 L 1659.375 1016.015625 Z M 1347.265625 1075 "/>
</g>
</g>
<g clip-path="url(#clip161)" clip-rule="nonzero">
<g clip-path="url(#clip162)" clip-rule="nonzero">
<path style=" stroke:none;fill-rule:nonzero;fill:rgb(96.862745%,58.039216%,11.764706%);fill-opacity:1;" d="M 1348.046875 1079.6875 L 1350.390625 1091.796875 L 1619.921875 1164.0625 L 1658.203125 1021.484375 Z M 1348.046875 1079.6875 "/>
</g>
</g>
<path style=" stroke:none;fill-rule:nonzero;fill:rgb(96.862745%,58.039216%,11.764706%);fill-opacity:1;" d="M 1622.65625 696.484375 C 1610.9375 716.796875 1612.109375 763.671875 1625.78125 813.28125 C 1642.96875 876.171875 1671.484375 915.625 1690.234375 917.96875 C 1692.1875 917.96875 1693.75 917.96875 1695.3125 917.578125 C 1699.21875 916.796875 1702.34375 913.671875 1705.078125 908.984375 C 1716.796875 888.671875 1715.234375 841.796875 1701.5625 792.1875 C 1687.890625 742.578125 1665.234375 701.953125 1644.921875 690.234375 C 1641.015625 687.890625 1637.109375 687.109375 1633.984375 687.5 C 1633.59375 687.5 1632.8125 687.890625 1632.421875 687.890625 C 1628.90625 688.671875 1625.390625 691.796875 1622.65625 696.484375 Z M 1622.65625 696.484375 "/>
<path style=" stroke:none;fill-rule:nonzero;fill:rgb(96.862745%,58.039216%,11.764706%);fill-opacity:1;" d="M 1644.921875 687.890625 C 1644.921875 687.890625 1631.25 685.9375 1607.03125 688.28125 L 1612.890625 680.46875 C 1612.890625 680.46875 1633.984375 675 1648.828125 683.59375 Z M 1644.921875 687.890625 "/>
<path style=" stroke:none;fill-rule:nonzero;fill:rgb(96.862745%,58.039216%,11.764706%);fill-opacity:1;" d="M 1649.609375 896.484375 L 1687.5 930.078125 L 1700.78125 923.4375 C 1700.78125 923.4375 1662.109375 903.125 1649.609375 896.484375 Z M 1649.609375 896.484375 "/>
<path style=" stroke:none;fill-rule:nonzero;fill:rgb(96.862745%,58.039216%,11.764706%);fill-opacity:1;" d="M 477.734375 1428.515625 C 477.734375 1428.515625 636.328125 1416.796875 673.828125 1543.75 C 673.828125 1543.75 678.515625 1467.96875 616.015625 1433.984375 C 553.515625 1400 477.734375 1428.515625 477.734375 1428.515625 Z M 477.734375 1428.515625 "/>
<path style=" stroke:none;fill-rule:nonzero;fill:rgb(96.862745%,58.039216%,11.764706%);fill-opacity:1;" d="M 104.296875 1156.640625 C 82.8125 1211.71875 96.875 1289.0625 141.796875 1363.671875 C 202.34375 1464.0625 316.015625 1411.328125 317.1875 1410.9375 L 316.40625 1410.15625 C 314.84375 1408.59375 313.28125 1407.03125 311.71875 1405.46875 C 296.484375 1412.109375 201.171875 1448.828125 147.65625 1360.15625 C 103.90625 1287.5 90.234375 1212.109375 110.9375 1159.375 C 125.390625 1122.265625 156.25 1096.484375 202.34375 1082.421875 C 202.34375 1079.6875 202.34375 1077.34375 202.734375 1074.609375 C 152.734375 1089.0625 119.53125 1116.796875 104.296875 1156.640625 Z M 104.296875 1156.640625 "/>
<path style=" stroke:none;fill-rule:nonzero;fill:rgb(96.862745%,58.039216%,11.764706%);fill-opacity:1;" d="M 1142.96875 717.96875 C 1142.96875 717.96875 1180.859375 967.1875 1276.171875 1158.984375 C 1276.171875 1158.984375 1168.359375 988.28125 1142.96875 717.96875 Z M 1142.96875 717.96875 "/>
<path style=" stroke:none;fill-rule:nonzero;fill:rgb(96.862745%,58.039216%,11.764706%);fill-opacity:1;" d="M 1719.53125 1498.046875 C 1585.15625 1529.296875 1426.953125 1392.96875 1425.390625 1391.796875 L 1424.609375 1391.015625 C 1222.265625 1297.65625 1087.5 1275.78125 1009.765625 1274.21875 C 930.078125 1272.65625 893.359375 1290.234375 887.890625 1293.359375 L 887.5 1293.359375 C 873.4375 1298.4375 858.984375 1307.8125 848.4375 1314.0625 L 851.171875 1314.453125 L 857.03125 1314.84375 C 857.03125 1315.234375 856.640625 1315.234375 856.640625 1315.625 C 866.40625 1309.765625 878.125 1304.6875 890.625 1300.390625 L 891.015625 1300.390625 L 891.40625 1300 C 892.96875 1299.21875 1037.890625 1220.703125 1421.09375 1397.65625 L 1421.875 1398.046875 C 1421.484375 1398.046875 1421.484375 1398.046875 1421.09375 1397.65625 C 1429.6875 1405.078125 1586.328125 1536.71875 1721.09375 1505.46875 C 1784.375 1490.625 1833.203125 1442.578125 1866.796875 1362.890625 C 1960.9375 1136.328125 1828.90625 555.859375 1619.140625 272.65625 C 1532.8125 156.25 1439.84375 99.21875 1350.390625 108.203125 L 1350 108.203125 L 1349.21875 108.59375 C 1347.65625 109.375 1200.390625 178.90625 1125.78125 429.6875 C 1051.953125 677.34375 221.09375 988.28125 212.5 991.40625 L 210.546875 992.1875 L 210.15625 994.140625 C 210.15625 994.53125 203.90625 1026.5625 202.734375 1074.609375 L 204.6875 1081.640625 C 203.90625 1082.03125 203.125 1082.03125 202.34375 1082.421875 C 201.953125 1108.59375 203.125 1139.0625 207.421875 1171.484375 C 216.796875 1242.1875 242.96875 1333.203125 311.71875 1405.46875 C 312.890625 1405.078125 313.28125 1404.6875 313.671875 1404.6875 L 316.40625 1410.15625 C 333.59375 1427.34375 353.125 1443.75 375.78125 1457.8125 L 376.953125 1458.59375 L 378.515625 1458.203125 L 517.578125 1419.921875 C 523.046875 1419.140625 577.734375 1410.15625 620.703125 1441.796875 C 650.78125 1464.0625 668.359375 1500.390625 673.828125 1550.78125 C 690.234375 1710.9375 677.734375 1761.71875 677.34375 1762.5 L 677.34375 1762.890625 C 676.953125 1765.625 667.96875 1828.90625 701.5625 1868.359375 C 718.359375 1887.890625 742.96875 1898.046875 775 1898.046875 L 952.34375 1885.15625 L 953.90625 1885.15625 L 954.6875 1884.375 C 955.859375 1883.203125 953.515625 1900.390625 964.0625 1875 L 977.734375 1853.515625 L 977.734375 1849.609375 C 968.75 1871.09375 953.90625 1874.609375 950.390625 1878.515625 L 951.953125 1878.515625 L 949.609375 1879.296875 C 949.609375 1879.296875 950 1878.90625 950.390625 1878.515625 L 774.609375 1891.40625 C 745.3125 1891.40625 722.65625 1882.03125 707.421875 1864.453125 C 675.78125 1827.734375 684.765625 1765.234375 685.15625 1764.84375 C 686.328125 1759.375 697.65625 1707.421875 681.640625 1551.171875 C 676.171875 1498.828125 657.421875 1460.546875 625.390625 1437.109375 C 577.734375 1401.953125 518.75 1413.671875 516.015625 1414.0625 L 378.90625 1451.953125 C 379.296875 1452.34375 379.6875 1452.734375 380.078125 1452.734375 L 376.953125 1452.34375 L 378.515625 1451.953125 C 167.578125 1316.40625 212.109375 1025 216.796875 998.4375 C 215.625 998.828125 214.84375 999.21875 214.84375 999.21875 L 217.1875 996.484375 C 217.1875 996.484375 217.1875 997.265625 216.796875 998.4375 C 238.28125 990.234375 438.671875 914.453125 644.921875 811.328125 C 937.109375 665.625 1101.171875 537.890625 1132.8125 432.421875 C 1204.296875 192.578125 1342.1875 121.09375 1351.953125 116.015625 C 1351.5625 116.015625 1351.5625 116.015625 1351.171875 116.015625 L 1352.34375 115.625 C 1352.34375 115.625 1351.953125 115.625 1351.953125 116.015625 C 1438.671875 107.8125 1528.90625 163.671875 1613.671875 277.734375 C 1822.265625 559.375 1953.515625 1135.9375 1860.15625 1360.546875 C 1827.734375 1437.109375 1780.46875 1483.59375 1719.53125 1498.046875 Z M 1719.53125 1498.046875 "/>
<path style=" stroke:none;fill-rule:nonzero;fill:rgb(96.862745%,58.039216%,11.764706%);fill-opacity:1;" d="M 1616.40625 692.96875 C 1603.90625 714.84375 1605.078125 764.0625 1619.140625 815.234375 C 1634.765625 872.265625 1661.328125 915.234375 1684.375 923.828125 L 1690.625 919.53125 L 1690.625 918.359375 C 1671.875 915.625 1643.359375 876.171875 1626.171875 813.671875 C 1612.5 764.0625 1611.328125 717.1875 1623.046875 696.875 C 1625.78125 692.1875 1628.90625 689.0625 1632.8125 688.28125 C 1633.203125 688.28125 1633.984375 687.890625 1634.375 687.890625 L 1634.375 686.71875 L 1620.3125 687.890625 C 1618.75 689.0625 1617.578125 691.015625 1616.40625 692.96875 Z M 1616.40625 692.96875 "/>
<path style=" stroke:none;fill-rule:nonzero;fill:rgb(96.862745%,58.039216%,11.764706%);fill-opacity:1;" d="M 1418.359375 1117.1875 L 1694.53125 925.390625 C 1691.015625 925.78125 1687.5 925 1683.984375 923.828125 L 1414.0625 1110.9375 Z M 1418.359375 1117.1875 "/>
<path style=" stroke:none;fill-rule:nonzero;fill:rgb(96.862745%,58.039216%,11.764706%);fill-opacity:1;" d="M 1436.71875 157.03125 C 1436.71875 157.03125 1187.109375 99.21875 1314.84375 788.671875 C 1314.84375 788.671875 1482.03125 1572.65625 1812.109375 1378.90625 C 1812.109375 1378.90625 1576.953125 1559.765625 1382.8125 1062.109375 C 1188.28125 564.453125 1241.796875 110.9375 1436.71875 157.03125 Z M 1436.71875 157.03125 "/>
<path style=" stroke:none;fill-rule:nonzero;fill:rgb(96.862745%,58.039216%,11.764706%);fill-opacity:1;" d="M 1606.640625 697.65625 L 1305.078125 723.828125 L 1318.75 808.203125 L 1587.890625 786.328125 C 1587.890625 786.328125 1621.875 873.828125 1649.609375 907.03125 C 1649.21875 907.421875 1591.40625 803.125 1606.640625 697.65625 Z M 1606.640625 697.65625 "/>
</g>
</svg>
