<?xml version="1.0" encoding="utf-8"?>
<!-- Generator: Adobe Illustrator 18.1.1, SVG Export Plug-In . SVG Version: 6.00 Build 0)  -->
<!DOCTYPE svg PUBLIC "-//W3C//DTD SVG 1.1//EN" "http://www.w3.org/Graphics/SVG/1.1/DTD/svg11.dtd">
<svg version="1.1" id="Layer_1" xmlns="http://www.w3.org/2000/svg" xmlns:xlink="http://www.w3.org/1999/xlink" x="0px" y="0px"
	 viewBox="694 -604 2000 2000" enable-background="new 694 -604 2000 2000" xml:space="preserve">
<g id="surface1">
	<path fill="#00ADEF" d="M2685.4-153.5c14.9-84.9,14.6-172.4-37.1-238.4c-72.2-92.6-225.8-96.1-331-79.7
		c-85.7,13.2-375.1,142.9-473.6,453.2c174.5-13.5,266.1,12.8,249.2,207.8c-7.1,81.7-47.8,171.1-93,256.8
		c-52.4,98.8-150.6,292.8-279.3,152.9c-115.9-125.9-107.2-366.6-133.8-526.9c-14.8-89.9-30.3-202-59.4-294.5
		c-25-79.6-82.4-175.5-152.5-196.2c-75.4-22.5-168.6,12.6-223.3,45.3C977.5-269.3,844.8-121.5,694.1,0.5v11.4
		C724,40.9,731.9,88.4,776,94.9c103.7,15.5,202.6-98.1,271.6,20.1c41.9,72.2,54.9,151.5,81.9,229.3
		c35.9,103.7,63.7,216.7,93.1,335.9c49.6,201.9,110.7,503.9,282.7,577.8c87.8,37.8,219.8-12.8,286.5-53
		c181-108.7,321.9-266.2,442.6-426.5C2510.3,399.1,2662.6-30.6,2685.4-153.5z"/>
</g>
</svg>
