<?xml version="1.0" encoding="utf-8"?>
<!-- Generator: Adobe Illustrator 18.1.1, SVG Export Plug-In . SVG Version: 6.00 Build 0)  -->
<!DOCTYPE svg PUBLIC "-//W3C//DTD SVG 1.1//EN" "http://www.w3.org/Graphics/SVG/1.1/DTD/svg11.dtd">
<svg version="1.1" id="Layer_1" xmlns="http://www.w3.org/2000/svg" xmlns:xlink="http://www.w3.org/1999/xlink" x="0px" y="0px"
	 viewBox="694 -604 2000 2000" enable-background="new 694 -604 2000 2000" xml:space="preserve">
<g id="surface1">
	<path fill="#60A9ED" d="M1245.7,874.2c-163.5-27.6-269.4-189.2-228.5-348.8c21.1-82.3,70.7-145.1,145-183.6
		c27.1-14,30-17.1,37.1-38.7c22.5-69.1,74.4-145,127.7-186.9c63.2-49.6,129.8-75.9,214.3-84.5c50.1-5.1,50.9-5.4,58-19.8l7.2-14.6
		l-11,12.5c-9.6,10.9-15.8,12.9-48.6,15.5c-97.2,7.9-176.4,42.2-243.3,105.2c-51.5,48.6-83.7,97.9-104.9,160.8
		c-9.9,29.3-11.5,31.2-39.9,47.3c-16.3,9.2-38.1,23.9-48.6,32.7l-19,15.9l-22.7-24.7c-62.3-67.7-98.9-174.1-91.6-266.4
		c4.3-54.8,14.7-93.3,38-141.1c55.8-114.5,163.1-189.7,291.2-204.3c124.7-14.2,257.9,40.9,329.6,136.4c18.5,24.7,21,30.2,15.9,36.7
		c-3.3,4.2,10.5-8.7,30.6-28.6c108.3-107.5,240.1-156.7,386.9-144.3c224.3,18.9,414.3,207.3,428.7,425.2
		c3.7,56.4,2.9,54.8,43.6,81.3c69.9,45.5,123.6,120.8,145.1,203.3c10.6,40.7,10.6,119.2,0,159.9
		c-27.2,104.4-103.9,193.2-200.9,232.5c-65.1,26.4-60.9,26.2-663,25.6C1518.3,878.4,1258.7,876.4,1245.7,874.2z M2412.6,763.9
		c90.2-23.5,157.5-97.1,172.9-189.2c18.8-112.5-57.9-227.8-170.9-256.9l-25.4-6.5l0.8-18.2c5.2-121-1.8-166.3-36.1-234.8
		c-89.7-178.8-310.8-254-487-165.7c-91.9,46-154.2,116.6-188.2,212.9c-16.7,47.5-11.4,44.7-67.8,35.4
		c-156.1-25.8-306.4,94.8-321.4,258c-1.4,15.5-2.2,16-36.8,24.8c-78.4,19.8-128.9,78.6-135.1,157.2c-5.6,71.7,30,136.6,92.7,169.2
		c40.3,20.9,26.5,20.4,614.3,20.8C2313.3,771.1,2388.5,770.2,2412.6,763.9z M1619.8-23.8c2.8-5.2,4-9.4,2.7-9.4
		c-1.3,0-4.6,4.2-7.4,9.4c-2.8,5.2-4,9.4-2.7,9.4C1613.8-14.4,1617.1-18.6,1619.8-23.8z M1638.7-52c5.5-7.8,9-14.1,7.7-14.1
		c-1.3,0-6.9,6.4-12.4,14.1c-5.5,7.8-9,14.1-7.7,14.1C1627.6-37.9,1633.1-44.2,1638.7-52z M778.2,448.8
		c-11.3-19.4-19.5-37.9-18.2-41.2c2.2-5.7,138-85.7,145.5-85.7c3.5,0,46.2,71.6,46.1,77.2c-0.1,3.6-142.2,85.1-148.3,85
		C800.8,484.1,789.5,468.2,778.2,448.8z M694.8,158.1c-1.3-3.4-1.8-24.1-1-45.9l1.4-39.6l85.9-1.3l85.9-1.3v94.3h-84.9
		C715.7,164.4,696.7,163,694.8,158.1z M828.1-126.5c-38.2-22.3-69.4-43-69.4-46.1c0-6.4,36.5-71,42.1-74.5
		c3.5-2.2,138.3,73,148.3,82.7c2.9,2.8,1.6,9-3.7,17.2c-4.6,7.1-13.9,24-20.8,37.5c-7.4,14.6-15.5,24.5-19.8,24.2
		C900.8-85.7,866.3-104.2,828.1-126.5z M1585.9-296c-19.9-12-36.4-23.2-36.5-24.9c-0.4-6.2,82.3-146.2,87.6-148.3
		c3-1.2,21.6,7,41.3,18.2c27,15.3,35.4,22.4,33.8,28.5c-3,12-83.3,149.4-86.9,148.8C1623.6-273.9,1605.9-284,1585.9-296z
		 M1056.1-293.1c-39.8-65.8-75.9-131.9-73.9-135.2c3.5-5.7,68-42.4,74.6-42.4c5.8,0,87.8,139.5,87.8,149.4c0,3.2-1.7,5.8-3.8,5.8
		c-2.1,0-17.9,8.5-35,18.8s-33.3,18.8-35.8,18.8S1061.2-284.7,1056.1-293.1z M1345.6-361.4l-46-1.3l2.6-176h94.1l1.3,86.7
		c0.7,47.7-0.4,87.9-2.4,89.4C1393.3-361.3,1370.9-360.7,1345.6-361.4z"/>
	<path fill="#FDEB02" d="M1328.1,1326.1c0-2.6,36-76.7,80-164.6l80-159.9h47c28.4,0,47,1.9,47,4.7c0,2.6-36,76.7-80,164.6l-80,159.9
		h-47C1346.7,1330.8,1328.1,1328.9,1328.1,1326.1z M1554,1326.1c0-2.6,36-76.7,80-164.6l80-159.9h47c28.4,0,47,1.9,47,4.7
		c0,2.6-36,76.7-80,164.6l-80,159.9h-47C1572.6,1330.8,1554,1328.9,1554,1326.1z M1779.8,1326.1c0-2.6,36-76.7,80-164.6l80-159.9h47
		c28.4,0,47,1.9,47,4.7c0,2.6-36,76.7-80,164.6l-80,159.9h-47C1798.5,1330.8,1779.8,1328.9,1779.8,1326.1z M2005.7,1326.1
		c0-2.6,36-76.7,80-164.6l80-159.9h47c28.4,0,47,1.9,47,4.7c0,2.6-36,76.7-80,164.6l-80,159.9h-47
		C2024.4,1330.8,2005.7,1328.9,2005.7,1326.1z M1245.7,874.2c-163.5-27.6-269.4-189.2-228.5-348.8c21.1-82.3,70.7-145.1,145-183.6
		c27.1-14,30-17.1,37.1-38.7c22.5-69.1,74.4-145,127.7-186.9c63.2-49.6,129.8-75.9,214.3-84.5c50.1-5.1,50.9-5.4,58-19.8l7.2-14.6
		l-11,12.5c-9.6,10.9-15.8,12.9-48.6,15.5c-97.2,7.9-176.4,42.2-243.3,105.2c-51.5,48.6-83.7,97.9-104.9,160.8
		c-9.9,29.3-11.5,31.2-39.9,47.3c-16.3,9.2-38.1,23.9-48.6,32.7l-19,15.9l-22.7-24.7c-62.3-67.7-98.9-174.1-91.6-266.4
		c4.3-54.8,14.7-93.3,38-141.1c55.8-114.5,163.1-189.7,291.2-204.3c124.7-14.2,257.9,40.9,329.6,136.4c18.5,24.7,21,30.2,15.9,36.7
		c-3.3,4.2,10.5-8.7,30.6-28.6c108.3-107.5,240.1-156.7,386.9-144.3c224.3,18.9,414.3,207.3,428.7,425.2
		c3.7,56.4,2.9,54.8,43.6,81.3c69.9,45.5,123.6,120.8,145.1,203.3c10.6,40.7,10.6,119.2,0,159.9
		c-27.2,104.4-103.9,193.2-200.9,232.5c-65.1,26.4-60.9,26.2-663,25.6C1518.3,878.4,1258.7,876.4,1245.7,874.2z M2412.6,763.9
		c90.2-23.5,157.5-97.1,172.9-189.2c18.8-112.5-57.9-227.8-170.9-256.9l-25.4-6.5l0.8-18.2c5.2-121-1.8-166.3-36.1-234.8
		c-89.7-178.8-310.8-254-487-165.7c-91.9,46-154.2,116.6-188.2,212.9c-16.7,47.5-11.4,44.7-67.8,35.4
		c-156.1-25.8-306.4,94.8-321.4,258c-1.4,15.5-2.2,16-36.8,24.8c-78.4,19.8-128.9,78.6-135.1,157.2c-5.6,71.7,30,136.6,92.7,169.2
		c40.3,20.9,26.5,20.4,614.3,20.8C2313.3,771.1,2388.5,770.2,2412.6,763.9z M1619.8-23.8c2.8-5.2,4-9.4,2.7-9.4
		c-1.3,0-4.6,4.2-7.4,9.4c-2.8,5.2-4,9.4-2.7,9.4C1613.8-14.4,1617.1-18.6,1619.8-23.8z M1638.7-52c5.5-7.8,9-14.1,7.7-14.1
		c-1.3,0-6.9,6.4-12.4,14.1c-5.5,7.8-9,14.1-7.7,14.1C1627.6-37.9,1633.1-44.2,1638.7-52z M778.2,448.8
		c-11.3-19.4-19.5-37.9-18.2-41.2c2.2-5.7,138-85.7,145.5-85.7c3.5,0,46.2,71.6,46.1,77.2c-0.1,3.6-142.2,85.1-148.3,85
		C800.8,484.1,789.5,468.2,778.2,448.8z M694.8,158.1c-1.3-3.4-1.8-24.1-1-45.9l1.4-39.6l85.9-1.3l85.9-1.3v94.3h-84.9
		C715.7,164.4,696.7,163,694.8,158.1z M828.1-126.5c-38.2-22.3-69.4-43-69.4-46.1c0-6.4,36.5-71,42.1-74.5
		c3.5-2.2,138.3,73,148.3,82.7c2.9,2.8,1.6,9-3.7,17.2c-4.6,7.1-13.9,24-20.8,37.5c-7.4,14.6-15.5,24.5-19.8,24.2
		C900.8-85.7,866.3-104.2,828.1-126.5z M1585.9-296c-19.9-12-36.4-23.2-36.5-24.9c-0.4-6.2,82.3-146.2,87.6-148.3
		c3-1.2,21.6,7,41.3,18.2c27,15.3,35.4,22.4,33.8,28.5c-3,12-83.3,149.4-86.9,148.8C1623.6-273.9,1605.9-284,1585.9-296z
		 M1056.1-293.1c-39.8-65.8-75.9-131.9-73.9-135.2c3.5-5.7,68-42.4,74.6-42.4c5.8,0,87.8,139.5,87.8,149.4c0,3.2-1.7,5.8-3.8,5.8
		c-2.1,0-17.9,8.5-35,18.8s-33.3,18.8-35.8,18.8S1061.2-284.7,1056.1-293.1z M1345.6-361.4l-46-1.3l2.6-176h94.1l1.3,86.7
		c0.7,47.7-0.4,87.9-2.4,89.4C1393.3-361.3,1370.9-360.7,1345.6-361.4z"/>
	<path fill="#949698" d="M1328.1,1326.1c0-2.6,36-76.7,80-164.6l80-159.9h47c28.4,0,47,1.9,47,4.7c0,2.6-36,76.7-80,164.6l-80,159.9
		h-47C1346.7,1330.8,1328.1,1328.9,1328.1,1326.1z M1554,1326.1c0-2.6,36-76.7,80-164.6l80-159.9h47c28.4,0,47,1.9,47,4.7
		c0,2.6-36,76.7-80,164.6l-80,159.9h-47C1572.6,1330.8,1554,1328.9,1554,1326.1z M1779.8,1326.1c0-2.6,36-76.7,80-164.6l80-159.9h47
		c28.4,0,47,1.9,47,4.7c0,2.6-36,76.7-80,164.6l-80,159.9h-47C1798.5,1330.8,1779.8,1328.9,1779.8,1326.1z M2005.7,1326.1
		c0-2.6,36-76.7,80-164.6l80-159.9h47c28.4,0,47,1.9,47,4.7c0,2.6-36,76.7-80,164.6l-80,159.9h-47
		C2024.4,1330.8,2005.7,1328.9,2005.7,1326.1z M1245.7,874.2c-163.5-27.6-269.4-189.2-228.5-348.8c21.1-82.3,70.7-145.1,145-183.6
		c27.1-14,30-17.1,37.1-38.7c22.5-69.1,74.4-145,127.7-186.9c63.2-49.6,129.8-75.9,214.3-84.5c50.2-5.1,50.9-5.4,57.9-19.8
		c4.5-9.4,4.8-11.9,0.9-7c-5.4,6.6-8.1,4.1-22.3-20.2c-67-114.7-208.8-163.5-331.1-114c-57.1,23.1-110.7,72-138.2,126
		c-15.6,30.8-29.8,88.1-29.7,120.2c0.2,66.5,29,137.6,74.3,183.9l26.8,27.3l-24.3,12.6c-13.3,6.9-33.2,20.2-44.2,29.6l-20,17.1
		l-22.8-24.8c-62.3-67.7-98.9-174.1-91.6-266.4c4.3-54.8,14.7-93.3,38-141.1c55.8-114.5,163.1-189.7,291.2-204.3
		c124.7-14.2,257.9,40.9,329.6,136.4c18.5,24.7,21,30.2,15.9,36.7c-3.3,4.2,10.5-8.7,30.6-28.6c108.3-107.5,240.1-156.7,386.9-144.3
		c224.3,18.9,414.3,207.3,428.7,425.2c3.7,56.4,2.9,54.8,43.6,81.3c69.9,45.5,123.6,120.8,145.1,203.3c10.6,40.7,10.6,119.2,0,159.9
		c-27.2,104.4-103.9,193.2-200.9,232.5c-65.1,26.4-60.9,26.2-663,25.6C1518.3,878.4,1258.7,876.4,1245.7,874.2z M2412.6,763.9
		c90.2-23.5,157.5-97.1,172.9-189.2c18.8-112.5-57.9-227.8-170.9-256.9l-25.4-6.5l0.8-18.2c5.2-121-1.8-166.3-36.1-234.8
		c-89.7-178.8-310.8-254-487-165.7c-91.9,46-154.2,116.6-188.2,212.9c-16.7,47.5-11.4,44.7-67.8,35.4
		c-156.1-25.8-306.4,94.8-321.4,258c-1.4,15.5-2.2,16-36.8,24.8c-78.4,19.8-128.9,78.6-135.1,157.2c-5.6,71.7,30,136.6,92.7,169.2
		c40.3,20.9,26.5,20.4,614.3,20.8C2313.3,771.1,2388.5,770.2,2412.6,763.9z M1619.8-23.8c2.8-5.2,4-9.4,2.7-9.4
		c-1.3,0-4.6,4.2-7.4,9.4c-2.8,5.2-4,9.4-2.7,9.4C1613.8-14.4,1617.1-18.6,1619.8-23.8z M1638.7-52c5.5-7.8,9-14.1,7.7-14.1
		c-1.3,0-6.9,6.4-12.4,14.1c-5.5,7.8-9,14.1-7.7,14.1C1627.6-37.9,1633.1-44.2,1638.7-52z M778.2,448.8
		c-11.3-19.4-19.5-37.9-18.2-41.2c2.2-5.7,138-85.7,145.5-85.7c3.5,0,46.2,71.6,46.1,77.2c-0.1,3.6-142.2,85.1-148.3,85
		C800.8,484.1,789.5,468.2,778.2,448.8z M694.8,158.1c-1.3-3.4-1.8-24.1-1-45.9l1.4-39.6l85.9-1.3l85.9-1.3v94.3h-84.9
		C715.7,164.4,696.7,163,694.8,158.1z M828.1-126.5c-38.2-22.3-69.4-43-69.4-46.1c0-6.4,36.5-71,42.1-74.5
		c3.5-2.2,138.3,73,148.3,82.7c2.9,2.8,1.6,9-3.7,17.2c-4.6,7.1-13.9,24-20.8,37.5c-7.4,14.6-15.5,24.5-19.8,24.2
		C900.8-85.7,866.3-104.2,828.1-126.5z M1585.9-296c-19.9-12-36.4-23.2-36.5-24.9c-0.4-6.2,82.3-146.2,87.6-148.3
		c3-1.2,21.6,7,41.3,18.2c27,15.3,35.4,22.4,33.8,28.5c-3,12-83.3,149.4-86.9,148.8C1623.6-273.9,1605.9-284,1585.9-296z
		 M1056.1-293.1c-39.8-65.8-75.9-131.9-73.9-135.2c3.5-5.7,68-42.4,74.6-42.4c5.8,0,87.8,139.5,87.8,149.4c0,3.2-1.7,5.8-3.8,5.8
		c-2.1,0-17.9,8.5-35,18.8s-33.3,18.8-35.8,18.8S1061.2-284.7,1056.1-293.1z M1345.6-361.4l-46-1.3l2.6-176h94.1l1.3,86.7
		c0.7,47.7-0.4,87.9-2.4,89.4C1393.3-361.3,1370.9-360.7,1345.6-361.4z"/>
	<path fill="#FDB103" d="M1328.1,1326.1c0-2.6,36-76.7,80-164.6l80-159.9h47c28.4,0,47,1.9,47,4.7c0,2.6-36,76.7-80,164.6l-80,159.9
		h-47C1346.7,1330.8,1328.1,1328.9,1328.1,1326.1z M1554,1326.1c0-2.6,36-76.7,80-164.6l80-159.9h47c28.4,0,47,1.9,47,4.7
		c0,2.6-36,76.7-80,164.6l-80,159.9h-47C1572.6,1330.8,1554,1328.9,1554,1326.1z M1779.8,1326.1c0-2.6,36-76.7,80-164.6l80-159.9h47
		c28.4,0,47,1.9,47,4.7c0,2.6-36,76.7-80,164.6l-80,159.9h-47C1798.5,1330.8,1779.8,1328.9,1779.8,1326.1z M2005.7,1326.1
		c0-2.6,36-76.7,80-164.6l80-159.9h47c28.4,0,47,1.9,47,4.7c0,2.6-36,76.7-80,164.6l-80,159.9h-47
		C2024.4,1330.8,2005.7,1328.9,2005.7,1326.1z M778.2,448.8c-11.3-19.4-19.5-37.9-18.2-41.2c2.2-5.7,138-85.7,145.5-85.7
		c3.5,0,46.2,71.6,46.1,77.2c-0.1,3.6-142.2,85.1-148.3,85C800.8,484.1,789.5,468.2,778.2,448.8z M1067.1,361.1
		c-61.6-68.5-97.3-173.5-90.1-264.9c4.3-54.8,14.7-93.3,38-141.1c55.8-114.5,163.1-189.7,291.2-204.3
		c124.6-14.1,257.9,40.9,329.5,136.2l21.7,28.9l-20.4,29c-11.2,15.9-25.3,37.9-31.3,48.8l-10.9,19.8L1578-15
		c-81.8-138.2-257.7-175.3-388.5-82c-32.8,23.4-63.1,58.5-81,93.7c-15.6,30.8-29.8,88.1-29.7,120.2c0.2,66.5,29,137.6,74.3,183.9
		l26.8,27.3l-24.3,12.6c-13.3,6.9-32.7,19.8-43.1,28.7c-10.4,8.9-19.9,16.1-21.2,16.1S1079.1,374.5,1067.1,361.1z M694.8,158.1
		c-1.3-3.4-1.8-24.1-1-45.9l1.4-39.6l85.9-1.3l85.9-1.3v94.3h-84.9C715.7,164.4,696.7,163,694.8,158.1z M828.1-126.5
		c-38.2-22.3-69.4-43-69.4-46.1c0-6.4,36.5-71,42.1-74.5c3.5-2.2,138.3,73,148.3,82.7c2.9,2.8,1.6,9-3.7,17.2
		c-4.6,7.1-13.9,24-20.8,37.5c-7.4,14.6-15.5,24.5-19.8,24.2C900.8-85.7,866.3-104.2,828.1-126.5z M1585.9-296
		c-19.9-12-36.4-23.2-36.5-24.9c-0.4-6.2,82.3-146.2,87.6-148.3c3-1.2,21.6,7,41.3,18.2c27,15.3,35.4,22.4,33.8,28.5
		c-3,12-83.3,149.4-86.9,148.8C1623.6-273.9,1605.9-284,1585.9-296z M1056.1-293.1c-39.8-65.8-75.9-131.9-73.9-135.2
		c3.5-5.7,68-42.4,74.6-42.4c5.8,0,87.8,139.5,87.8,149.4c0,3.2-1.7,5.8-3.8,5.8c-2.1,0-17.9,8.5-35,18.8s-33.3,18.8-35.8,18.8
		S1061.2-284.7,1056.1-293.1z M1345.6-361.4l-46-1.3l2.6-176h94.1l1.3,86.7c0.7,47.7-0.4,87.9-2.4,89.4
		C1393.3-361.3,1370.9-360.7,1345.6-361.4z"/>
	<path fill="#1F87E7" d="M1328.1,1326.1c0-2.6,36-76.7,80-164.6l80-159.9h47c28.4,0,47,1.9,47,4.7c0,2.6-36,76.7-80,164.6l-80,159.9
		h-47C1346.7,1330.8,1328.1,1328.9,1328.1,1326.1z M1554,1326.1c0-2.6,36-76.7,80-164.6l80-159.9h47c28.4,0,47,1.9,47,4.7
		c0,2.6-36,76.7-80,164.6l-80,159.9h-47C1572.6,1330.8,1554,1328.9,1554,1326.1z M1779.8,1326.1c0-2.6,36-76.7,80-164.6l80-159.9h47
		c28.4,0,47,1.9,47,4.7c0,2.6-36,76.7-80,164.6l-80,159.9h-47C1798.5,1330.8,1779.8,1328.9,1779.8,1326.1z M2005.7,1326.1
		c0-2.6,36-76.7,80-164.6l80-159.9h47c28.4,0,47,1.9,47,4.7c0,2.6-36,76.7-80,164.6l-80,159.9h-47
		C2024.4,1330.8,2005.7,1328.9,2005.7,1326.1z"/>
</g>
</svg>
