<?xml version="1.0" encoding="utf-8"?>
<!-- Generator: Adobe Illustrator 18.1.1, SVG Export Plug-In . SVG Version: 6.00 Build 0)  -->
<!DOCTYPE svg PUBLIC "-//W3C//DTD SVG 1.1//EN" "http://www.w3.org/Graphics/SVG/1.1/DTD/svg11.dtd">
<svg version="1.1" id="Layer_1" xmlns="http://www.w3.org/2000/svg" xmlns:xlink="http://www.w3.org/1999/xlink" x="0px" y="0px"
	 viewBox="-94 -4 800 800" enable-background="new -94 -4 800 800" xml:space="preserve">
<g id="surface1">
	<path fill="#BBD4EE" d="M134.3,625.6c0-47.2-0.1-94.4,0-141.6c0-12.7,9-21.8,21.7-24.1c8.8-1.5,17.5,0.2,26.2,0.2
		c31.8,0.1,63.6,0.5,95.3,1.2c22.5,0.5,45-0.3,67.5,0.9c23.2,1.2,46.3-0.2,69.5,1c22.7,1.2,45.3-0.2,68,1
		c17.1,0.9,34.1,0.5,51.2,0.8c14.1,0.2,22.3,8.3,22.3,22.5c0,46,0,92,0,138.1C415.4,625.6,274.9,625.6,134.3,625.6z"/>
	<path fill="#BBD4EE" d="M56.1,625.6c0-37.1,0.2-74.2-0.1-111.1c-0.1-15.6,6.6-27.2,19.2-35.7c10-6.6,21-10,32.8-10.6
		c12.3-0.6,18,5.3,18.1,17.8c0.1,28.6,0,57.2,0,85.8c0,18,0,35.9,0,53.8C102.8,625.6,79.5,625.6,56.1,625.6z"/>
	<path fill="#BBD4EE" d="M487.9,316.7c0,37.4,0,74.8,0,112.3c0,5.9-0.4,6.2-6,5.2c-1.3-0.2-2.6-0.5-4-0.5c-25,0.5-50-0.9-75.1-1.2
		c-20.8-0.4-41.8-0.4-62.8-1.4c-15.3-0.6-30.8,0.2-46.1-0.9c-16.8-1.2-33.4-0.4-50.2-0.9c-4.1-0.1-8-1.2-12.1-0.9
		c-2.2,0.2-2.9-1.1-2.8-3.1c0-1.3,0-2.7,0-4.1c0-75,0.2-149.9-0.2-224.9c-0.1-19.2,10.2-29.7,29-29.8c17.7-0.1,35.4,1.6,53,2.6
		c7.9,0.4,15.8,0.2,23.8,0.9c10.9,1,21.9,0.7,32.9,1.3c22.8,1.1,45.5,2.1,68.3,3.4c8.7,0.5,17.5,0.8,26.2,1.3
		c15.9,0.9,26.1,15,26.1,28.8C487.9,242.3,487.8,279.5,487.9,316.7C487.8,316.7,487.9,316.7,487.9,316.7z M425.8,261.8
		c-14.4-0.1-26.2,11.2-26.3,25.1c-0.1,13.1,9.3,26.5,25.8,26.2c15-0.3,25.3-9.2,25.7-25.7C451.4,273.4,440.1,262.1,425.8,261.8z
		 M281.6,287.1c-0.7,11.4,8.9,26.3,25.5,25.9c15.2-0.3,25.3-9.8,25.8-25.6c0.5-16.4-14-25.8-25.3-25.7
		C293,262,281.6,272.8,281.6,287.1z"/>
	<path fill="#BBD4EE" d="M218.7,304.1c0,39.6,0,79.2,0.1,118.9c0,4.1-0.5,6.3-5.4,7c-13.6,2.1-27.1,5-40.6,7.6c-3.3,0.6-5,0-5-4
		c0.2-19.3,0.1-38.6,0.1-57.9c0-1.5-0.1-2.9,0.9-4.4c8.5-11.6,11.6-25.2,13-38.9c1.8-17.5,1.2-34.9-4.6-51.9
		c-1.5-4.5-3.5-8.9-6.5-12.5c-2.4-2.8-2.9-5.8-2.8-9.2c0.1-12.4,0.4-24.7-0.1-37.1c-0.3-7.1,2.7-12,7.6-16.3
		c7.9-6.9,16.7-12.7,25.8-17.9c4.6-2.5,9.2-5,13.8-7.5c2.7-1.5,4-1.1,3.9,2.3c-0.1,5.3,0,10.5,0,15.7
		C218.7,233.3,218.7,268.5,218.7,304.1z"/>
	<path fill="#BBD4EE" d="M246.2,438.7c25.1,0.8,51.4,1.6,77.7,2.2c22.2,0.5,44.6,1.3,66.8,2c23.5,0.7,46.9,1.4,70.4,2.1
		c7.7,0.2,15.5,0.6,23.3,0.7c3,0,4.6,0.1,3.8,4.2c-1.4,6.9-1.1,7.3-7.9,6.9c-15.7-1-31.5-0.2-47.1-1.2c-11.4-0.7-22.7-0.1-33.9-0.8
		c-15.3-1-30.8-0.2-46.1-1.2c-12.7-0.8-25.4-0.2-38-0.8c-27-1.2-54-2-81.1-1.9c-2.9,0-4.3-0.7-4.3-4c0.2-10.2-0.5-8,8-8.2
		C240.2,438.5,242.5,438.7,246.2,438.7z"/>
	<path fill="#BBD4EE" d="M144.5,318.3c-0.7-10.4,1-20.9,4.9-31.2c1.1-3,2.7-5.8,4.9-8.2c4.9-5.5,10-5.1,14.3,0.8
		c5.1,6.9,7,15,8,23.2c1.8,14.9,1.3,29.9-3.7,44.4c-1.1,3.4-2.7,6.5-4.9,9.4c-4.6,6.3-10.8,6.4-15.3,0.1c-5.9-8.1-7.3-17.7-8.3-27.2
		C144.2,326.1,144.5,322.4,144.5,318.3z"/>
	<path fill="#BBD4EE" d="M219.6,445.2c0.8,4.2-1.3,5.4-5.9,5.7c-12.4,0.6-24.9,1.8-37.3,2.7c-1.5,0.1-3,0.1-4.6,0.1
		c-2.1,0.1-4.3,0.1-4-3c0.2-2.2-0.9-4.8,2.9-5.3c6.2-0.7,12.3-1.9,18.5-2.8c7.8-1.2,15.6-2.2,23.5-3.7
		C219.2,438,219.7,438,219.6,445.2z"/>
	<path fill="#FEFEFE" d="M425.8,261.8c14.3,0.2,25.6,11.6,25.2,25.6c-0.5,16.4-10.8,25.4-25.7,25.7c-16.4,0.3-25.9-13-25.8-26.2
		C399.6,273,411.3,261.7,425.8,261.8z"/>
	<path fill="#FEFEFE" d="M281.6,287.1c0-14.3,11.4-25.2,26-25.4c11.2-0.1,25.8,9.2,25.3,25.7c-0.5,15.8-10.6,25.3-25.8,25.6
		C290.6,313.5,280.9,298.5,281.6,287.1z"/>
</g>
</svg>
