<?xml version="1.0" encoding="utf-8"?>
<!-- Generator: Adobe Illustrator 18.1.1, SVG Export Plug-In . SVG Version: 6.00 Build 0)  -->
<!DOCTYPE svg PUBLIC "-//W3C//DTD SVG 1.1//EN" "http://www.w3.org/Graphics/SVG/1.1/DTD/svg11.dtd">
<svg version="1.1" id="Layer_1" xmlns="http://www.w3.org/2000/svg" xmlns:xlink="http://www.w3.org/1999/xlink" x="0px" y="0px"
	 viewBox="694 -603.5 2000 2000" enable-background="new 694 -603.5 2000 2000" xml:space="preserve">
<g id="surface1">
	<path fill="#7FD8FE" d="M1896,589.3c-79.4-1.5-138.5-37.9-181.4-104c-21.4-33-30.1-69.3-31-107.4c-1-44.5,17.4-82.8,44-117.6
		c28.3-37,65.2-64.4,103.5-89.8c15.4-10.2,32.3-18.3,48.3-27.6c10.5-6.1,23-6.6,34.1-0.7c62.2,33,120.7,71.2,163.1,128.8
		c30.8,41.9,40.1,89.1,32.4,141.1c-9.3,62.5-43.5,108.7-93.2,143.1C1980.8,579.4,1940,591.6,1896,589.3z"/>
	<path fill="#7FD8FE" d="M1308,483.1c-67.5-2.7-115.2-34.8-145-95.6c-15.7-32.2-15-65.1-8.2-98.2c4.7-22.7,18.5-41.8,33.3-59.3
		c29.3-34.5,64.9-61.7,102.6-86.2c12.2-8,25.5-6.8,36.6,0.4c38.5,25.1,76.8,50.8,105.2,88c28,36.6,41.9,76.4,32.3,123.7
		c-12.6,61.9-52.3,98.3-107.7,120.5C1342.2,482.3,1324.9,483.3,1308,483.1z"/>
	<path fill="#999999" d="M1176.8,1100.7c-26.2-0.1-33.6-7.4-37.7-33.4c-3.8-24.3-10.5-48-16.2-71.9c-7.9-33.3-12.9-67.2-21.7-100.3
		c-1.2-4.5-0.2-10.5-7.1-10.5c-6.2,0-7.5,5-8.2,10.1c-5.4,38.7-16.4,76.2-23.5,114.4c-4.4,23.7-12.5,46.5-15.7,70.4
		c-1,7.3-5.4,12.4-11.7,16.4c-23.7,15.1-53.4,3.8-60.1-23.3c-14.6-58.5-26.3-117.8-39.7-176.6c-6.6-29.1-10.9-58.8-20.7-87.3
		c-8.2-23.9,6.8-40,31.7-37.9c14.6,1.3,20.1,11.1,22.9,23.2c9,38.5,17.2,77.1,26.2,115.6c5.4,22.9,12,45.5,13.6,69.2
		c0.3,4.6,2,10.1,7.9,10.7c6.3,0.6,8.4-5,9-9.5c4.4-33.4,12.7-66.2,20.7-98.7c7.7-31,9.7-63.4,22.4-93.1
		c4.2-9.8,10.1-17.1,22.5-17.5c12.8-0.4,21.2,4.4,27.4,15.5c3.8,6.8,5.7,13.9,7.2,21.2c11.3,53.3,22.3,106.6,33.5,159.9
		c1,4.7,2.2,9.4,3.4,14.1c1.2,5.2,3.7,9.4,9.7,8.4c5.6-0.8,5.2-6,5.7-10.2c4.2-36.2,14.8-71,22.5-106.5c5.8-26.6,9.6-53.7,18.2-79.7
		c6-18.2,18.2-26.1,36.6-22.1c15.9,3.5,22.7,17.1,18.2,36.8c-12.8,55.7-25.7,111.4-38.4,167.1c-7.6,33.3-14.2,66.9-22.8,99.9
		C1206.8,1097.9,1200.9,1100.8,1176.8,1100.7z M1175.8,1088.1c14.3,3,25.4,0.3,25.7-16.8c0.4-23.3,10.1-44.5,14.3-66.9
		c7.9-42.8,17.9-85.2,27.4-127.8c5.4-24.3,10.1-48.9,17.9-72.3c3.6-10.7,1.5-16.3-5.9-21.9c-8.8-6.8-14.6-0.6-20.5,5.4
		c-8.5,8.7-5.3,20.3-7.7,30.5c-12.4,52.3-24.6,104.8-36.3,157.3c-2.4,10.9-6.8,24-3,32.9c8.2,18.7,1.7,35.3-0.8,52.8
		c-0.6,4,0.9,9.2-4.8,10.7c-6.2,1.7-8-3.7-11.2-7.1c-9.8-10.3-2.4-25-8.1-35c-18.1-32.2-17.3-69.2-25.4-103.4
		c-10.2-42.8-21.9-85.8-27.8-129.8c-1.4-10.8-7.7-14.5-17.8-13.9c-9.8,0.5-14.4,5.9-14.6,15.5c-0.1,4.8,0.3,9.8-0.9,14.4
		c-16,62.9-32.7,125.7-40.9,190.3c-1.5,12-8.1,18-20.2,18.2c-13.5,0.3-14.5-10.8-14.8-18.9c-0.8-28-11.2-53.9-15.5-81.1
		c-6.7-41.8-20.5-82.3-25.8-124.5c-1.4-11.3-11.2-18-22.4-16.3c-11.9,1.8-13.3,12.8-9.9,21.5c3.9,10.2,4,20.9,6.8,31
		c13.8,49.9,22.7,100.9,33.7,151.4c6.1,27.9,16.2,55.1,17.3,84.2c0.4,9.7,4,20.6,18.1,20.4c12.2-0.2,26,2.7,31.6-12.4
		c3.3-8.9,4.5-18.6,5.7-28.1c3.9-30,12.9-58.8,19.6-88.1c6.7-29.6,12.8-59.2,17.4-89.1c1.3-8.7-0.3-16.9,12.6-17.9
		c13.2-1,17.9,4.6,19.9,16.6c3.4,21,7.4,41.9,11.9,62.7c10.1,46.2,20.9,92.2,30.7,138.4C1155,1085.2,1161.1,1092.3,1175.8,1088.1z"
		/>
	<path fill="#999999" d="M1873.9,981.9c0-29,0.1-57.9-0.1-86.9c-0.1-12.6,1.9-24.4,15.4-28.8c12.6-4.1,25.4-4.8,34.6,8.3
		c6.1,8.8,13.1,6.8,20.7,1.2c23.2-17.3,49.4-15.9,73.3-5.4c24.6,10.8,37.3,32.7,37.2,60.7c-0.1,46.7,0.3,93.4-0.1,140.1
		c-0.2,22.2-17.3,35-37.5,28.5c-11.8-3.8-18.3-11.5-18.2-25.1c0.5-44,0.1-88,0.2-132c0-15.3-6-27.2-19.4-34.5
		c-11.2-6.1-22.9-5.1-33.7,1.5c-14.1,8.7-16.6,23-16.6,37.9c-0.2,40.8,0.1,81.6-0.1,122.4c-0.1,20.1-9.6,30.5-27.1,30.9
		c-18.3,0.4-28.3-8.4-28.5-26.9C1873.6,1043.1,1873.9,1012.5,1873.9,981.9z"/>
	<path fill="#B0E6FE" d="M2478.7-153.7c-0.7,48.6-16.2,88.1-41,125.6c-30.8,46.5-72.1,81.7-116,114c-27.7,20.4-58.9,36.1-88.7,53.6
		c-5.4,3.2-11,2.2-16.7-0.9c-62.1-34.1-121.1-72.7-169.7-125c-36.9-39.7-65-84.5-75.1-138.9c-4.1-22.4-2.8-45,2-66.9
		c11.6-52.7,34.5-100.2,73.9-137.6c41.6-39.5,90.4-64,149-70.2c45.6-4.9,89.1,0.3,129.7,18.9c62.2,28.5,108.2,74.4,134.6,139.1
		C2472.9-212.3,2477.2-181.7,2478.7-153.7z M2213-390.4c-42,1.4-91.4,16.2-134.1,50.1c-33.6,26.7-61.2,57.3-77,99
		c-11.8,31.1-18.2,62.8-18.6,94.8c-0.3,30.4,7.9,61,23.5,88.2c29.7,52,71.3,93.3,120.1,127.3c25,17.4,50.7,33.8,76.4,50.2
		c11.9,7.6,25,9.7,38.1,2.6c30.7-16.5,60.3-35.1,88.3-55.7c33.2-24.5,64-52.1,88.8-85.4c27.8-37.3,47.9-77.7,47.3-126.1
		c-0.3-27.8-3.6-54.3-12.1-81.3c-8.3-26.6-20.8-50.6-37.5-70.9c-23.7-29-51.8-53.6-88.2-68.9C2294.6-380.7,2261.2-390.2,2213-390.4z
		"/>
	<path fill="#B0E6FE" d="M1379.5-95.8c7.3-72.1,39.9-129.5,104.5-167.1c31.1-18.1,64.9-28.6,100.8-26.4
		c43.9,2.8,83.2,18.7,118.5,46.4c35,27.5,55.5,63.8,66.8,104.5c8.5,30.5,9.6,63.2-2.8,94.4c-23.4,58.7-65.5,101.3-115,138.5
		c-20.5,15.4-42.5,28.2-63.3,42.9c-6.8,4.8-12.8,4.4-19.3,0.5c-60.3-36.5-116.6-78.2-156.8-137.1C1393.6-27.3,1381-59.3,1379.5-95.8
		z M1581.1-274c-50.8-0.8-92.9,13.8-128.6,47.8c-32.2,30.7-52.6,66.5-56.2,111.3c-3,36.8,0.5,72.9,20.8,104.3
		c36.3,56.2,88.8,95.7,144.2,131.3c10,6.4,22.3,8.2,33.5,0.4c24.2-16.8,49.8-32,72.3-51c42.7-36.1,80.1-76.7,93-133.8
		c6.1-26.7,1.4-52-4.7-78.7c-6.7-29.5-21.2-53.1-40-74C1679.4-256.5,1633-275.6,1581.1-274z"/>
	<path fill="#999999" d="M1365.5,977.9c0,30.5,0.1,55.1-0.1,79.7c0,5.8-0.8,11.7-2,17.4c-4.4,20-12.4,26.5-30.5,25.6
		c-16-0.8-25.3-9.7-25.5-29c-0.7-60-0.6-120-0.1-179.9c0.1-16.8,9.3-26.2,23.5-27.5c18.7-1.7,28.4,4.7,32,23.4
		C1369.1,919.4,1363.5,951.7,1365.5,977.9z"/>
	<path fill="#999999" d="M1547.8,945.6c0-40.8,0-81.6,0-122.4c0-9.9,1.2-19.5,8.3-26.9c7.9-8.3,18.1-12.7,29.1-8.3
		c13.1,5.3,22.7,14.9,23,30.1c0.3,15.5-0.3,31.1-1.2,46.6c-0.3,4.6-1.4,8.7,3.5,11c4.2,2,8.3,0.8,12-1.9
		c24.1-17.3,50.7-14.5,74.6-3.5c25.8,11.8,36.6,36,36.6,64.6c-0.1,44,0.1,88-0.1,132.1c-0.1,20.7-9.9,33.3-26,34.5
		c-23.1,1.8-33.8-7.9-33.9-31.8c-0.2-43.5,0.4-87-0.2-130.5c-0.4-26.2-25.4-41-48.8-29.7c-14.4,7-16.2,20.8-16.4,34.2
		c-0.5,38.6-0.2,77.3,0,116c0,7-0.6,13.8-3,20.5c-6.1,17.9-15.2,23.6-34.3,21.1c-14.3-1.9-22.9-12.3-23.1-30.1
		C1547.5,1029.3,1547.8,987.5,1547.8,945.6z M1557.2,944.8c0,41.3-0.1,82.6,0,123.9c0,18.9,4.3,23.3,20.1,23.7
		c16.9,0.4,18.8-9.8,18.7-23.2c-0.3-40.8-0.4-81.5-0.1-122.3c0.2-24.4,17.7-47.5,38.1-51.3c24.3-4.5,48.4,17.5,48.6,45.4
		c0.3,43.4,0,86.9,0.1,130.4c0,13.1,4.4,21.4,19.7,21.1c13.6-0.2,19.4-5.9,19.3-19.4c-0.3-49.9,0.2-99.8-0.3-149.7
		c-0.3-29-22.5-50.2-51.4-50.7c-18.7-0.3-36.3-0.5-52.9,12.8c-15.2,12.2-21.2,7.8-21.3-11.6c0-19.3,0-38.6,0.2-57.9
		c0.1-11-4.8-16.9-16.3-17.3c-15.2-0.5-22.5,6.1-22.5,22.3C1557.1,862.2,1557.2,903.5,1557.2,944.8z"/>
	<path fill="#999999" d="M1774,981.8c0-29-0.1-58,0-87c0.1-20.7,9.5-30.6,28.6-30.7c18.3,0,27,8.9,27.1,29.9
		c0.3,59,0.3,118.1,0,177.1c-0.1,20.7-9.2,29.6-27.8,29.4c-17.7-0.1-27.5-10.4-27.7-30.2C1773.8,1040.8,1774,1011.3,1774,981.8z"/>
	<path fill="#999999" d="M2389.4,1104.7c-26.1-2.5-52.2-4.6-73.9-22.2c-11.2-9.1-15-26.3-7.3-37.1c7.3-10.2,22.3-12,34.5-2.8
		c20.2,15.2,42.3,16.2,65.5,10.3c8.8-2.2,15.8-7.6,17.7-16.9c1.7-8.5-4.3-14.1-10.4-18.6c-8.6-6.3-17.3-11.5-28.5-13.8
		c-19.8-4-38.4-11.4-55.1-24.3c-38.1-29.4-26.7-76.6,2.3-101.1c24.9-21.1,54.7-21.5,84.9-16.7c15.2,2.4,30.5,4.8,43,15.8
		c10.1,8.9,12.8,18.1,5.1,29.6c-9.4,14.2-19.9,18-32.4,9.9c-16.1-10.3-33.7-10.2-51.3-8.5c-11.9,1.1-19.7,9.1-21,21.1
		c-1.2,11.2,7.8,14,16.1,18.7c18.4,10.6,39.9,10.7,58.7,20.7c28.1,15,43.6,39.2,40.8,71.6c-2.3,27.1-23.8,50.8-52.4,58.2
		C2413.9,1102,2402.1,1105.7,2389.4,1104.7z M2378.5,1092.2c7.6,4.6,15.2,4.6,22.8,0c2.1,0,4.3,0,6.4-0.1
		c28.9-1.2,53.7-21.1,57.8-46.6c5.6-34.8-7.7-57-39.9-69.1c-20.4-7.6-42.6-10.2-61.5-22.6c-15.6-10.2-19.3-23.6-9.4-39.4
		c9.8-15.6,35.3-25.4,53.3-20c9.2,2.8,18,7,27.2,9.8c8.6,2.6,18,3.2,22.6-6.4c5-10.6-4.9-13.5-11.5-17.5
		c-19.8-11.9-41.7-7.9-62.9-7.9c-33.4,0-59.8,15.5-62.7,59.8c-1.8,27.8,16.8,45.4,50.6,54.3c18.4,4.8,38.3,8.4,53,23.8
		c14.9,15.5,12.3,40.4-6.6,50.3c-21.4,11.3-61.4,7.1-80.4-8.9c-7.8-6.6-15.4-7.9-22.7-0.6c-7.6,7.7-3.1,14.4,3.4,20.5
		C2335.1,1088,2356.1,1092.2,2378.5,1092.2z"/>
	<path fill="#B0E6FE" d="M1054.9-171.2c49.6,4.9,91.8,28.5,117.3,80.5c27.1,55.2,11,101.9-23.9,146.3
		c-24.7,31.5-55.4,56.1-87.8,79.3c-8.7,6.2-15,6.8-22.8,1.3c-31-22-61-45.2-85.8-74.4c-17.6-20.7-30.5-44-38.3-69.6
		c-11.8-38.6,1.6-73,23.7-103.9C964.3-149.4,1001.7-169.9,1054.9-171.2z M1174.3-34.3c0.4-31.7-11.1-58.4-31.1-81.8
		c-11.9-13.9-26.4-25.6-43.1-31.6c-31-11.1-62.4-15.7-95-1.6c-17.3,7.5-34.6,13.8-46.8,28.4c-15.7,18.8-28.1,38.8-32.3,64.3
		c-4.2,25.4-1.7,50.1,8.4,71.6c22.1,47.2,62.4,79,104.1,108.3c6.9,4.8,14.8,3.3,22.3-2c30.2-21.4,57.2-46.4,80.6-74.9
		C1160.6,23.1,1174.8-3.1,1174.3-34.3z"/>
	<path fill="#999999" d="M2275.2,999.6c0,33.8,0.6,67.6-0.2,101.4c-0.8,36.4-13.7,66.3-47.4,85.2c-25.7,14.3-77.5,10.5-98.9-9.3
		c-9.2-8.6-10-18.5-2.9-28.9c8.5-12.4,22-17.2,33.3-11.7c4.3,2.1,8.1,5.3,12.5,7.3c17.6,8.3,34.8,0.7,40.9-17.8
		c0.2-0.5,0.5-1,0.6-1.5c0.7-10.9,8.2-24.2,1.4-32.1c-8-9.4-16.4,4.8-24.8,7.6c-39.4,12.9-74.4,0-93.8-36.5
		c-2.9-5.4-3.7-11.1-3.7-17.1c0.1-41.3-0.3-82.6,0.1-123.9c0.3-29,28.6-58.1,57.6-58.6c20-0.3,41-4.4,57.3,13.2
		c5.2,5.6,11.2,2,15.1-3.1c10.4-13.8,24.2-12.6,37.8-7.9c14.1,4.9,15.1,18.2,15.2,30.8C2275.4,931,2275.2,965.3,2275.2,999.6
		C2275.2,999.6,2275.2,999.6,2275.2,999.6z M2265.8,1001.3c0,0,0.1,0,0.1,0c0-35.4,0-70.8,0-106.2c0-9.3,0.9-19.9-11.1-21.7
		c-10.7-1.7-23.2-4.1-28,11.2c-2.9,9.4-9.7,8.8-16.7,5.2c-5.2-2.6-10-6.1-15-9.2c-36.1-22.2-86.8-2.9-93.1,38.3
		c-6.8,44.9-8,90.7,1.7,135.6c7.4,34.4,60.3,54.2,89.2,34.1c9.3-6.5,20.3-16.3,29.7-10.1c10.3,6.8,5.5,22.1,3.4,33.1
		c-7.4,38.9-35.3,54-66.2,36.1c-11.2-6.5-19.5-5.2-26.3,4.6c-8.1,11.6,1.1,18.1,9.4,23c25.3,15.1,52.6,15.6,78.1,2.9
		c27.6-13.7,43.2-38.2,44.4-69.1C2266.9,1073.3,2265.8,1037.3,2265.8,1001.3z"/>
	<path fill="#999999" d="M1422.5,997.2c0-23.6-0.3-47.2,0.1-70.8c0.2-9.4-1.3-16.5-11.2-20.6c-10.1-4.2-16.2-11.5-15.5-23.7
		c0.7-11.5,8.3-15.6,17.3-18.3c7.9-2.3,9.4-7.8,9.2-14.8c-0.2-10.2-0.6-20.4-0.2-30.6c0.6-15.2,15.3-31.2,28.9-32
		c14.1-0.8,27.7,10.6,30.1,27.2c1.6,11,1.2,22.5,0.8,33.7c-0.3,9.9,3.6,15.3,13.5,16c12.9,0.9,22.1,6.8,21.9,20.6
		c-0.2,14.5-9.4,22.3-23.4,23.9c-11.7,1.4-13.9,6.9-13.1,18.6c3.2,49.2,2.1,98.6,0.8,147.9c-0.5,18.9-15.5,30.7-31.3,29.1
		c-15.4-1.6-28-16.4-28.2-33.9c-0.3-24.1-0.1-48.3-0.1-72.4C1422.4,997.2,1422.4,997.2,1422.5,997.2z M1440.5,804.8
		c-1,2-2.1,4.1-3.1,6.2c-7.2,2.2-5.6,8.2-5.7,13.3c-0.1,8.6-0.5,17.2,0.2,25.8c0.8,10.2-3.1,16.5-13,19.1c-7.8,2-15,6.4-15.3,14.4
		c-0.4,9.1,7.8,14.2,15.4,16.4c15.2,4.6,14.9,15.9,14.1,27.9c-3.1,49.3-0.8,98.6-1.2,147.9c-0.1,7.9,4.1,14.7,12.2,17.3
		c8.2,2.6,16.8,5.1,22.9-4.4l0,0c8.2-3.9,6.4-11.5,6.4-18.2c0.1-47,0.6-94-0.3-141c-0.3-17.2,2.6-29.2,22.4-31.7
		c6.8-0.9,12.2-6.8,13-14.5c0.7-6.4-2.9-9.9-9.3-10.6c-5-2.9-10.5-3.4-16.1-2.9c-7.4-3.9-10.1-10-9.8-18.4c0.4-10.1,0-20.1-0.1-30.2
		c0.4-6.3,1.2-12.6-5.7-16.4C1456.8,792,1449.2,791.9,1440.5,804.8z"/>
	<path fill="#999999" d="M1770.9,801.9c0-16,15.8-30.9,32.5-30.9c14.8,0.1,31.3,16.2,31.4,30.8c0.1,15.1-17.3,31.5-33.1,31.2
		C1786.4,832.7,1770.9,817.1,1770.9,801.9z"/>
	<path fill="#999999" d="M1335.3,833c-15,0.1-31.4-15.8-31.6-30.7c-0.3-15.3,16.4-31.3,32.5-31.3c13.1,0,31.9,17.8,32.3,30.4
		C1368.9,815.8,1350.9,832.9,1335.3,833z"/>
	<path fill="#999999" d="M1175.8,1088.1c-14.7,4.1-20.8-2.9-23.8-17.1c-9.7-46.2-20.6-92.3-30.7-138.4c-4.5-20.8-8.6-41.7-11.9-62.7
		c-1.9-12-6.7-17.6-19.9-16.6c-13,1-11.3,9.2-12.6,17.9c-4.6,29.9-10.7,59.6-17.4,89.1c-6.7,29.4-15.7,58.1-19.6,88.1
		c-1.2,9.5-2.4,19.2-5.7,28.1c-5.6,15.1-19.4,12.2-31.6,12.4c-14.1,0.2-17.7-10.8-18.1-20.4c-1.1-29.1-11.2-56.3-17.3-84.2
		c-11-50.5-19.8-101.5-33.7-151.4c-2.8-10.1-2.9-20.8-6.8-31c-3.4-8.7-2-19.8,9.9-21.5c11.2-1.7,21,5,22.4,16.3
		c5.3,42.2,19.1,82.7,25.8,124.5c4.4,27.2,14.7,53.2,15.5,81.1c0.2,8.1,1.2,19.2,14.8,18.9c12.2-0.3,18.7-6.3,20.2-18.2
		c8.2-64.6,24.8-127.3,40.9-190.3c1.2-4.6,0.8-9.6,0.9-14.4c0.2-9.6,4.8-14.9,14.6-15.5c10.1-0.6,16.4,3.2,17.8,13.9
		c5.9,44,17.6,87,27.8,129.8c8.1,34.2,7.3,71.2,25.4,103.4c5.6,10-1.7,24.7,8.1,35c3.2,3.4,5.1,8.8,11.2,7.1
		c5.7-1.5,4.2-6.7,4.8-10.7c2.5-17.5,9-34.1,0.8-52.8c-3.9-8.9,0.6-22.1,3-32.9c11.7-52.5,23.9-104.9,36.3-157.3
		c2.4-10.2-0.8-21.8,7.7-30.5c5.9-6,11.7-12.2,20.5-5.4c7.3,5.6,9.4,11.2,5.9,21.9c-7.9,23.5-12.6,48.1-17.9,72.3
		c-9.5,42.5-19.5,84.9-27.4,127.7c-4.1,22.5-13.8,43.7-14.3,66.9C1201.2,1088.4,1190.2,1091.1,1175.8,1088.1z"/>
	<path fill="#7FD8FE" d="M2213-390.4c48.2,0.3,81.6,9.8,115.2,23.9c36.4,15.3,64.5,39.9,88.2,68.9c16.6,20.3,29.1,44.4,37.5,70.9
		c8.5,27,11.7,53.5,12.1,81.3c0.6,48.4-19.5,88.8-47.3,126.1c-24.8,33.3-55.7,60.9-88.8,85.3c-28,20.7-57.6,39.2-88.3,55.7
		c-13.1,7.1-26.2,5-38.1-2.6c-25.7-16.4-51.4-32.8-76.4-50.2c-48.8-34-90.4-75.3-120.1-127.3c-15.5-27.2-23.8-57.8-23.5-88.2
		c0.3-31.9,6.7-63.7,18.6-94.8c15.9-41.7,43.4-72.3,77-99C2121.6-374.3,2171-389.1,2213-390.4z"/>
	<path fill="#7FD8FE" d="M1581.1-274c51.9-1.5,98.3,17.5,134.3,57.6c18.8,20.9,33.3,44.5,40,74c6,26.7,10.7,52,4.7,78.7
		c-13,57.1-50.3,97.7-93,133.8c-22.4,18.9-48,34.2-72.3,51c-11.2,7.7-23.4,6-33.5-0.4c-55.4-35.5-107.9-75-144.2-131.2
		c-20.3-31.4-23.8-67.5-20.8-104.4c3.6-44.8,24-80.6,56.2-111.3C1488.2-260.2,1530.3-274.8,1581.1-274z"/>
	<path fill="#999999" d="M1557.2,944.8c0-41.3-0.1-82.6,0.1-123.9c0.1-16.1,7.3-22.7,22.5-22.3c11.5,0.4,16.4,6.2,16.3,17.3
		c-0.1,19.3-0.2,38.6-0.2,57.9c0,19.4,6.1,23.9,21.3,11.6c16.5-13.3,34.2-13.1,52.9-12.8c28.8,0.4,51.1,21.7,51.4,50.7
		c0.5,49.9,0,99.8,0.3,149.7c0.1,13.6-5.7,19.2-19.3,19.4c-15.3,0.3-19.7-8.1-19.7-21.1c0-43.4,0.3-86.9-0.1-130.4
		c-0.2-27.8-24.3-49.9-48.6-45.4c-20.4,3.8-37.9,26.9-38.1,51.3c-0.3,40.8-0.3,81.5,0.1,122.3c0.1,13.4-1.7,23.6-18.7,23.2
		c-15.8-0.4-20.1-4.7-20.1-23.7C1557.1,1027.4,1557.2,986.1,1557.2,944.8z"/>
	<path fill="#999999" d="M2378.5,1092.2c-22.5,0-43.5-4.2-60.5-20.4c-6.5-6.1-11-12.8-3.4-20.5c7.2-7.3,14.9-6,22.7,0.6
		c19,16,59,20.2,80.4,8.9c18.8-9.9,21.4-34.8,6.5-50.3c-14.7-15.3-34.6-18.9-53-23.8c-33.9-8.9-52.5-26.6-50.6-54.3
		c2.9-44.3,29.3-59.7,62.7-59.8c21.2,0,43.1-4,62.9,7.9c6.6,4,16.6,6.9,11.5,17.5c-4.5,9.5-14,9-22.6,6.4c-9.2-2.8-18-7-27.2-9.8
		c-18-5.4-43.5,4.4-53.3,20c-9.9,15.8-6.2,29.2,9.4,39.4c18.8,12.3,41,14.9,61.5,22.6c32.2,12.1,45.5,34.3,39.9,69.1
		c-4.1,25.5-28.8,45.5-57.8,46.6c-2.1,0.1-4.3,0.1-6.4,0.1C2393.7,1086.7,2386.1,1086.7,2378.5,1092.2z"/>
	<path fill="#999999" d="M2378.5,1092.2c7.6-5.5,15.2-5.5,22.8,0C2393.7,1096.8,2386.1,1096.8,2378.5,1092.2z"/>
	<path fill="#7FD8FE" d="M1174.3-34.3c0.4,31.2-13.7,57.5-32.8,80.7c-23.4,28.5-50.4,53.5-80.6,74.9c-7.5,5.3-15.4,6.9-22.3,2
		C996.8,94,956.6,62.2,934.5,15c-10.1-21.5-12.7-46.2-8.4-71.6c4.3-25.5,16.6-45.6,32.3-64.3c12.2-14.6,29.5-20.9,46.8-28.4
		c32.7-14.1,64.1-9.5,95,1.6c16.7,6,31.2,17.7,43.1,31.6C1163.3-92.7,1174.7-66,1174.3-34.3z"/>
	<path fill="#999999" d="M2265.8,1001.3c0,36,1.1,71.9-0.3,107.8c-1.2,31-16.8,55.5-44.4,69.1c-25.5,12.6-52.8,12.2-78.1-2.9
		c-8.3-4.9-17.4-11.4-9.4-23c6.8-9.8,15-11.1,26.3-4.6c30.9,17.9,58.8,2.8,66.2-36.1c2.1-11,6.9-26.3-3.4-33.1
		c-9.4-6.2-20.3,3.5-29.7,10.1c-28.8,20.1-81.7,0.3-89.2-34.1c-9.7-44.9-8.5-90.8-1.7-135.6c6.2-41.2,57-60.5,93.1-38.3
		c5,3.1,9.8,6.5,15,9.2c7,3.6,13.8,4.2,16.7-5.2c4.8-15.3,17.3-12.8,28-11.2c12,1.9,11.1,12.4,11.1,21.7c-0.1,35.4,0,70.8,0,106.2
		C2265.9,1001.3,2265.9,1001.3,2265.8,1001.3z M2223.3,985.7c-0.1-21.4,1.4-39.6-5.1-57.2c-6.2-16.7-23.6-30.5-37.9-29
		c-17.4,1.9-33.4,20.1-33.6,39.1c-0.3,28.9-0.3,57.8-0.1,86.7c0.2,22.9,13.5,39.4,32.2,40.9c20.1,1.6,36.8-12.5,41.7-34.3
		C2224.1,1015.5,2223.2,999,2223.3,985.7z"/>
	<path fill="#999999" d="M1467,1088.7c-6.1,9.5-14.7,7-22.9,4.4c-8.1-2.6-12.3-9.4-12.2-17.3c0.4-49.3-1.9-98.7,1.2-147.9
		c0.8-12,1.1-23.4-14.1-27.9c-7.6-2.3-15.9-7.3-15.4-16.4c0.4-8,7.5-12.4,15.3-14.4c9.9-2.5,13.7-8.9,13-19.1
		c-0.7-8.6-0.3-17.2-0.2-25.8c0.1-5.2-1.4-11.2,5.7-13.3c5.6,13.4,3.4,27.4,3.7,41.2c0.1,5.4-0.3,11.2,6.2,13.4
		c6.2,2.1,12-0.6,16.7-3.8c5.6-3.9,1.8-11,3.1-16.5c1.9-8.1-5.3-18.4,6.1-24c0.1,10.1,0.5,20.2,0.1,30.2c-0.3,8.3,2.4,14.4,9.8,18.4
		c-1,6.5-11.5,11.5-3.7,19.3c4.6,4.7,10.6,3.9,16.1,1.2c8.7-4.2,4.9-11.3,3.8-17.6c6.4,0.7,10,4.2,9.3,10.6
		c-0.8,7.7-6.2,13.7-13,14.5c-19.8,2.5-22.7,14.4-22.4,31.7c0.9,47,0.4,94,0.3,141C1473.4,1077.2,1475.2,1084.8,1467,1088.7
		c0-56.3-0.3-112.7,0.2-169.1c0.1-11-2.9-15.6-14.5-14.8c-12,0.8-11.6,8.7-11.6,17c0,47.2,0,94.5,0,141.7
		C1441.1,1088.7,1441.1,1088.7,1467,1088.7z"/>
	<path fill="#999999" d="M1473.2,821.3c-11.4,5.6-4.2,15.9-6.1,24c-1.3,5.5,2.6,12.6-3.1,16.5c-4.6,3.2-10.5,6-16.7,3.8
		c-6.5-2.2-6-8-6.2-13.4c-0.4-13.8,1.9-27.9-3.7-41.2c1-2.1,2.1-4.1,3.1-6.2c9,0,18,0.1,27,0.1
		C1474.3,808.7,1473.6,815,1473.2,821.3z"/>
	<path fill="#999999" d="M1499.2,872.8c1.1,6.4,5,13.5-3.8,17.7c-5.5,2.6-11.5,3.4-16.1-1.2c-7.8-7.9,2.8-12.8,3.7-19.3
		C1488.7,869.3,1494.2,869.8,1499.2,872.8z"/>
	<path fill="#999999" d="M1467.5,804.9c-9,0-18-0.1-27-0.1C1449.2,791.9,1456.8,792,1467.5,804.9z"/>
	<path fill="#999999" d="M1467,1088.7c-25.9,0-25.9,0-25.9-25.1c0-47.2,0-94.5,0-141.7c0-8.3-0.5-16.2,11.6-17
		c11.6-0.8,14.6,3.7,14.5,14.8C1466.7,976,1467,1032.4,1467,1088.7z"/>
</g>
</svg>
