<?xml version="1.0" encoding="utf-8"?>
<!-- Generator: Adobe Illustrator 18.1.1, SVG Export Plug-In . SVG Version: 6.00 Build 0)  -->
<!DOCTYPE svg PUBLIC "-//W3C//DTD SVG 1.1//EN" "http://www.w3.org/Graphics/SVG/1.1/DTD/svg11.dtd">
<svg version="1.1" id="Layer_1" xmlns="http://www.w3.org/2000/svg" xmlns:xlink="http://www.w3.org/1999/xlink" x="0px" y="0px"
	 viewBox="694 -604 2000 2000" enable-background="new 694 -604 2000 2000" xml:space="preserve">
<g id="surface1">
	<path fill="#333333" d="M1422.6,816.6c-69,54.1-132.9,107.2-200.9,154.7c-12.2,8.5-45.8,0.3-60.9-11.3
		c-126.7-97.4-198.9-229.5-229.9-384.1c-46.3-231.3-13.9-449.4,125-644.2c135.4-189.9,327.9-283,555.5-303.2
		c59.5-5.3,75.8-25.5,69.7-78.7c-1.8-16-0.7-33.1,3-48.7c11.6-49.8,58.1-69.2,94.5-34.6c90.8,86.4,178.5,176.1,265.9,266
		c27.9,28.7,20.5,61-5.9,87.4c-84.7,84.7-169,169.9-256.2,252c-41.3,38.9-89.6,19.4-99.3-37.2c-3.9-23-3.7-47.2-2.1-70.7
		c2.6-40.3-15.6-49.5-52.8-45c-190.8,23-343.1,178.7-370,381.8c-24,182,10.6,347.4,141.1,484.7
		C1405.4,791.9,1410,799.7,1422.6,816.6z"/>
	<path fill="#333333" d="M2138.3,347.9c0.9-86.9-37.5-208.1-122.5-312c-28.2-34.4-24.5-54,11.5-77.6
		c54.6-35.7,104.9-78.2,160.8-111.6c14.7-8.8,49.6-1.9,64.3,10.6c110.7,94,177.8,215.8,204.8,357.3
		c54.1,283.6,0.2,539.5-211.9,747.2c-134.1,131.4-301.4,193.7-486.8,204.6c-52.3,3.1-72.1,19.6-65.1,70.9
		c2.4,17.7,1.2,36.7-2.7,54.2c-11.1,49.4-58.4,68.4-94.8,33.8c-91-86.2-179.3-175.3-266.8-265.1c-27.1-27.8-22.1-62.2,4.1-88.3
		c86.1-85.8,172.8-171.3,261.8-254.2c37.2-34.6,83.5-17.3,95.2,32.4c4.5,19.1,3.4,39.7,3.6,59.6c0.9,69.4,6.1,73.8,76.5,62.3
		C1993.5,835.9,2137.7,648.7,2138.3,347.9z"/>
</g>
</svg>
