<?xml version="1.0" encoding="utf-8"?>
<!-- Generator: Adobe Illustrator 18.1.1, SVG Export Plug-In . SVG Version: 6.00 Build 0)  -->
<svg version="1.1" id="Layer_1" xmlns="http://www.w3.org/2000/svg" xmlns:xlink="http://www.w3.org/1999/xlink" x="0px" y="0px"
	 viewBox="0 0 404.2 311.1" enable-background="new 0 0 404.2 311.1" xml:space="preserve">
<g>
	<path fill="#5F5F61" d="M68.1,297c-3.7,0.9-5.8-1.3-7.5-4.9c-2.3-4.9-5.4-9.4-7.9-14.2c-1.8-3.4-3-2.7-4.6,0.1
		c-3,5.4-6,10.7-9.1,16c-1.5,2.6-9.8,4.5-12,2.8c-1.6-1.3-0.1-2.5,0.6-3.5c4.4-7,8.6-14.1,13.5-20.8c2.5-3.5,2.5-6.1,0.3-9.5
		c-4.1-6.3-8-12.8-11.8-19.3c-2.8-4.8-2.6-4.7,2.5-5.2c4.8-0.5,7.9,1,9.8,5.7c2,4.8,4.8,9.2,7.2,13.8c0.6,1,1.3,2,1.9,3
		c0.6-0.9,1.3-1.7,1.9-2.7c2.9-5.1,5.7-10.3,8.6-15.4c2.1-3.8,7.4-5.6,11.4-4.1c2.4,0.9,0.8,2.3,0.2,3.2
		c-4.4,7.3-8.7,14.6-13.4,21.7c-2,3-2.1,5.2-0.1,8.2c4.6,6.9,8.9,13.9,13.2,21c2.5,4.2,2.4,4.2-2.7,4.4C69.6,297,69.1,297,68.1,297z
		"/>
	<path fill="#AEC051" d="M126.4,115.9c-1.2-13-6.7-23.6-16.6-32.2c-18.7-16.4-21-39-5.9-55.5c14.7-16.1,46-16.6,61.5-0.9
		c22.3,22.7,30.2,22.7,53.6,1c8.5-7.9,18.4-13,30.6-12.3c14.2,0.8,27.5,3.9,34.2,17.9c8.5,17.8,6.3,31.9-7.3,45.2
		c-10.5,10.3-19.4,20.9-17.9,36.8c-4.8,0-9.5,0-14.3,0.1c0.3-11.9-5.5-22.2-11.9-30.8c-8.7-11.8-19.4-22.7-36.3-23.2
		c-26.4-0.7-53.3,25.3-55.8,54.1C135.7,116,131,116,126.4,115.9z"/>
	<path fill="#69696A" d="M219.5,267.6c0,8.5,0,17,0,25.5c0,1.5,0.6,3.6-1.9,3.8c-3.2,0.3-2.5-2.2-2.5-3.9c-0.1-12.5,0-25,0-37.6
		c0-0.9,0.1-2.6-0.2-2.7c-1.5-0.3-1.8,1.1-2.3,2.1c-5.4,11.8-10.8,23.5-16.2,35.3c-0.6,1.3-1.1,2.6-1.8,3.8c-0.7,1.1-0.9,3-2.7,2.8
		c-1.2-0.2-1.5-1.7-2-2.7c-3.9-8.6-7.9-17.1-11.8-25.7c-2.1-4.5-4.2-9-6.4-13.4c-0.3-0.6-0.4-1.5-1.3-1.4c-1.5,0.1-1,1.4-1,2.1
		c-0.1,11.3,0,22.7-0.1,34c0,1.7,0,3.3,0,5c0,1.3-0.6,2.3-2,2.4c-1.9,0.1-2.4-1.1-2.4-2.7c0-6.9,0-13.7,0-20.6
		c0-9.9-0.1-19.8,0-29.8c0-1.9-1.2-4.8,1.6-5.5c3.2-0.8,3.6,2.6,4.5,4.5c6.4,13.7,12.6,27.4,19,41.1c0.6,1.3,0.2,3.8,2.3,3.7
		c1.8-0.1,1.9-2.5,2.5-3.9c5.9-12.6,11.5-25.3,17.3-38c0.8-1.7,1.6-3.4,2.4-5.1c0.7-1.7,1.9-2.8,3.8-2.2c1.8,0.6,1.2,2.3,1.2,3.6
		C219.5,250.6,219.5,259.1,219.5,267.6z"/>
	<path fill="#5F5F61" d="M98.5,278.7c-3.3,0-6.6-0.1-9.9,0c-4.1,0.1-5,1.6-3.3,5.2c1.6,3.4,4.2,5.7,8.1,6.1
		c3.8,0.4,7.5,0.4,11.2-0.9c1.5-0.5,3.5-2.9,4.5,0.2c0.6,2.1,0.9,4.6-1.6,6.3c-6.5,4.2-20.3,3.4-26.2-1.7
		c-7.1-6.2-7.6-14.5-6.4-22.8c1.1-7.7,5.6-13.5,13.3-16c6.4-2,12.6-1.7,18,2.9c5.5,4.7,6.6,11.2,6.4,18c-0.1,2.2-1.5,2.7-3.3,2.7
		C105.5,278.7,102,278.7,98.5,278.7z M93.6,271.7c0.9,0,1.9,0.1,2.8,0c2.1-0.4,5.4,1.5,6.1-1.5c0.8-3.5-1.4-6.2-4.7-7.8
		c-3.6-1.7-6.9-0.9-9.7,1.6c-1.9,1.7-4.1,4-3.1,6.6c0.9,2.1,3.7,0.8,5.7,1.1C91.7,271.8,92.6,271.7,93.6,271.7z"/>
	<path fill="#5F5F61" d="M155.6,281.3c0,3.3,0,6.6,0,9.9c-0.1,5.4-2.7,7.2-7.9,5.7c-2.7-0.8-1.9-2.9-1.9-4.6
		c-0.2-7.6-0.1-15.1-0.4-22.7c-0.1-3.5-1.6-6.5-5.6-7.1c-4-0.6-7.5,0.2-9.8,4c-1.5,2.5-1.9,5.3-1.9,8.2c0,5.7,0,11.3,0,17
		c0,4.5-4.5,7.1-8.5,5.1c-1.3-0.7-1.3-1.8-1.3-3c0-11.6,0-23.2,0-34.7c0-1.3-0.3-3.2,1.7-3.3c2.6-0.1,6.5-1.8,7.7,1.2
		c1.4,3.9,2.3,2.1,4,0.6c2-1.7,4.3-2.9,6.9-3.3c9.1-1.5,15.7,3.4,16.7,12.8c0.5,4.7,0.1,9.4,0.1,14.2
		C155.5,281.3,155.6,281.3,155.6,281.3z"/>
	<path fill="#AEC051" d="M244.3,115.9c4.8,0,9.5,0,14.3-0.1c7.2,7.5,12.8,16.3,20.3,23.8c10.6,10.5,19.6,23.4,12.2,40.2
		c-30.8-1.3-61.9,2.1-92.4-4.5l0.3,0.2c-0.5-3.1-1.3-5.4-4.1-1.3c-4.2,0.3-8.5,0.6-12.7,1c-15.1,5.4-30.8,4.4-46.4,4.2
		c-14.2-0.2-28.3,0-41.8,4.9c-8.8-16.4-3.4-30.2,8.9-41.7c8.8-8.3,16.1-17.5,23.7-26.8c4.6,0,9.3,0.1,13.9,0.1
		c8.4,13.7,16.5,27.3,31.8,35.4c16.4,8.7,27.9,9.2,43.3-2C227.6,140.5,237.2,129.3,244.3,115.9z"/>
	<path fill="#69696A" d="M273.4,265.6c0-7.6,0-15.1,0-22.7c0-0.9-0.1-1.9,0-2.8c0.3-1.8-1.2-5,2.2-4.9c2.7,0.1,1.8,2.9,1.8,4.6
		c0.1,5,0,9.9,0,14.9c0,1.4,0,2.8,0,4.3c0,2.1,0.8,2.6,2.3,0.9c2-2.1,4.2-3.7,7-4.7c8.9-3.3,17.3-0.1,21.1,8.6
		c3.8,8.8,3.3,17.7-1.5,25.8c-6.5,11-19.5,11.5-26.5,4c-2-2.1-2.4-1.6-2.4,0.9c0,1.3-0.3,2.3-1.9,2.4c-2.1,0-2.1-1.4-2.1-2.9
		C273.4,284.5,273.4,275.1,273.4,265.6z M277.5,275.9c0,1.9-0.2,3.8,0,5.6c0.8,6.6,5.5,11.6,11.6,12.5c6.2,0.9,11.3-1.6,13.9-7.3
		c3-6.6,3.9-13.5,1.1-20.5c-2.1-5.2-5.7-7.8-11.3-8C283.2,257.9,277.5,264.4,277.5,275.9z"/>
	<path fill="#69696A" d="M359.5,276.9c-3.1,0-6.2,0-9.2,0c-6.1,0.1-6.1,0.1-4.8,5.7c2.5,10.5,11.3,14.4,22.1,9.9
		c1.6-0.6,3.4-4.1,5-1.2c1.4,2.8-1.9,3.8-4,4.7c-7.4,3.2-14.9,3.8-21.3-1.8c-7.3-6.4-8.5-15.1-6.5-24.1
		c2.5-11.4,10.4-17.3,20.7-16.1c8.5,1,16.4,12.7,14,20.7c-0.5,1.8-1.7,2-3.2,2C368,276.9,363.7,276.9,359.5,276.9
		C359.5,276.9,359.5,276.9,359.5,276.9z M358.4,272.6c3.3,0,6.6,0,9.9,0c1.6,0,2.5-0.5,2.4-2.5c-0.3-6.7-5.1-11.8-11.6-11.9
		c-7.1-0.2-12.7,4.5-13.6,10.9c-0.3,2.4,0.3,3.5,2.9,3.5C351.8,272.5,355.1,272.6,358.4,272.6z"/>
	<path fill="#69696A" d="M247.1,254.1c12-0.1,20,8.3,19.8,21.7c-0.2,14.3-7.5,22.5-19.7,22.6c-12.4,0.1-20.3-8.1-20.3-22.1
		C226.9,261.5,235.4,254.3,247.1,254.1z M262.3,276.3c-0.1-1.6-0.1-3.3-0.3-4.9c-0.8-7-4.9-11.7-11.1-12.9c-8-1.5-14.2,1-17.2,7.7
		c-3.1,6.9-3.1,14.2,0.5,21.1c2.2,4.3,6.1,6.4,10.8,6.9C256,295.3,262.2,288.8,262.3,276.3z"/>
	<path fill="#69696A" d="M320.4,276.2c0,5.9,0,11.8,0,17.7c0,1.4,0,3-2,3c-1.9-0.1-2.1-1.6-2.1-3c0-11.8,0-23.6,0-35.4
		c0-1.6,0.4-2.9,2.2-3c2.1,0,1.9,1.7,1.9,3.1C320.4,264.4,320.4,270.3,320.4,276.2z"/>
	<path fill="#AEC051" d="M93.9,184.5c13.6-5,27.6-5.2,41.8-4.9c15.6,0.3,31.3,1.2,46.4-4.2c-14.2,19.5-29,36.3-57.5,32.6
		C108.4,205.8,98.2,200.2,93.9,184.5z"/>
	<path fill="#AEC051" d="M198.7,175.5c30.6,6.6,61.6,3.1,92.4,4.5c-13.1,32.3-48.8,40-71,14.2C213.6,186.6,203.5,184.3,198.7,175.5z
		"/>
	<path fill="#5F5F61" d="M329.8,265.8c0-9,0-18,0-26.9c0-1.3-0.4-3.3,1.5-3.4c2.4-0.2,2.1,2,2.1,3.6c0,18.2,0,36.4,0,54.6
		c0,1.3,0.2,3.2-1.9,3.1c-2.1-0.1-1.6-2-1.6-3.2C329.8,284.2,329.8,275,329.8,265.8z"/>
	<path fill="#69696A" d="M318.6,244.5c-2.2-0.1-3-1.3-2.9-3.2c0.1-1.6,1-2.6,2.6-2.6c1.9-0.1,3.1,0.8,3.2,2.8
		C321.6,243.5,320.5,244.4,318.6,244.5z"/>
	<path fill="#55833E" d="M194.8,174.4c2.8-4.1,3.6-1.9,4.1,1.3C197.5,175.4,196.2,175,194.8,174.4z"/>
</g>
</svg>
