<?xml version="1.0" encoding="utf-8"?>
<!-- Generator: Adobe Illustrator 18.1.1, SVG Export Plug-In . SVG Version: 6.00 Build 0)  -->
<!DOCTYPE svg PUBLIC "-//W3C//DTD SVG 1.1//EN" "http://www.w3.org/Graphics/SVG/1.1/DTD/svg11.dtd">
<svg version="1.1" id="Layer_1" xmlns="http://www.w3.org/2000/svg" xmlns:xlink="http://www.w3.org/1999/xlink" x="0px" y="0px"
	 viewBox="694 -604 2000 2000" enable-background="new 694 -604 2000 2000" xml:space="preserve">
<g id="surface1">
	<path fill="#FFFFFF" d="M2610.4,395.8c0,473-383.4,856.4-856.4,856.4S897.6,868.8,897.6,395.8S1281-460.7,1754-460.7
		S2610.4-77.2,2610.4,395.8z"/>
	<path fill="#00B7E3" d="M2209.9,242.3c-83.3,0-151,67.9-151,151c0,83.4,67.5,150.9,150.9,151c83.4,0.1,151-67.7,151-151
		c0.1-83.4-68.2-150.9-150.4-151H2209.9z M2209.9,445.6c-28.8,0-52.1-23.4-52.1-52.1s23.4-52.1,52.1-52.1
		c28.7,0,51.5,23.3,51.5,52.1c0,28.8-22.8,52.6-51,52.1H2209.9z"/>
	<path fill="#00B7E3" d="M1580.6,241.6c-71,0-130.8,48.7-147.4,114.6c0,0.9-0.1,1.6-0.1,2.5h295.5
		c-15.7-67.2-76.4-117.5-147.6-117.1H1580.6z"/>
	<path fill="#00B7E3" d="M1694.6-542.8c-518.5-0.1-939.4,420.7-939.4,938.9c0,519,420.9,938.7,938.7,938.7
		c518.5,0,938.9-420.4,938.9-939c0.9-517.8-419.9-938.6-937.7-938.5H1694.6z M1344.9,602.9c-7.9,0-15.1-3.2-20.9-9l-159.9-160.1
		l-160.5,160.7c-5.4,5.4-12.6,8.3-20.2,8.3c-15.8,0-28.7-12.9-28.7-28.7c0-7.7,3.1-15,8.7-20.5l160.1-160.5L963.3,232.6
		c-5.5-5.4-8.6-12.8-8.6-20.4c0-15.8,12.9-28.7,28.7-28.7c7.6,0,14.7,2.5,19.6,8.3l160.9,160.2l160.1-160c5.5-5.5,12.8-8.6,20.4-8.6
		c15.8,0,28.2,13.5,28.2,28.7c0,7.6-2.9,14.7-8.2,20.1l-160.4,160.7l160.1,160.7c5.4,4.9,8.6,12.3,8.6,20.2
		c0.9,15.6-11.4,29.1-27.4,28.8H1344.9z M1730.3,416.4c0,0-282.5,0.1-299.6,0c0,1.2,0,2.5,0,4.4c1.5,8.6,3.7,15.9,6.1,24
		c16,41.7,60.1,99.4,143.6,100.9c25.5-0.1,49.6-6.6,70.6-17.8c16.6-9.2,30.3-21.1,41.5-33.5c3.7-4.4,7.1-8.8,10.1-13.1
		c14-17.9,31.8-14.6,42.5-6.5c12.5,9.8,14.7,29.4,3.7,44.2c-0.4,0.4-0.6,0.7-1,1.1c-16.4,20.7-33.5,37.9-53.9,51
		c-19.6,12.6-40.9,21.5-62.9,26.9c-25.6,6.6-50.3,8.1-75.7,4.9c-85.6-10.6-157.4-73.7-178.7-157.3c-4.3-16.8-6.3-33.9-6.3-50.8
		c0-67.4,32.5-132.9,88.7-172.9c69-49.1,163.2-51.5,234.6-6.3c48.8,30.7,81,78.5,93.3,137.5c6.7,32.8-15.6,62.2-56.1,63.2H1730.3z
		 M1972,243.9c-62.2,7.7-68.8,37.2-68.8,109.2c0,0,0,218.4,0,218c0,15.8-12.9,28.7-28.7,28.7s-28.7-12.8-28.7-28.6
		c0,0-0.1-354.5-0.1-354.6c0-15.8,12.8-28.5,28.5-28.5c13.7,0,25.8,9.8,28.2,22.6c21.3-16.4,47-24.8,73.5-24.8h8.8
		c15.8,0,29.4,13.5,29.4,28.7s-12.1,27.5-29.2,28.2c-0.9,0.7-7.6,0.7-12.5,1H1972z M2209.9,603.9c-116.1,0-210.6-94.5-210.6-210.6
		s94.5-210.6,210.6-210.6c116.1,0,210.6,94.5,211,210.6c-0.5,116.6-95.2,211-210.6,210.6H2209.9z"/>
</g>
</svg>
