<?xml version="1.0" encoding="utf-8"?>
<!-- Generator: Adobe Illustrator 18.1.1, SVG Export Plug-In . SVG Version: 6.00 Build 0)  -->
<!DOCTYPE svg PUBLIC "-//W3C//DTD SVG 1.1//EN" "http://www.w3.org/Graphics/SVG/1.1/DTD/svg11.dtd">
<svg version="1.1" id="Layer_1" xmlns="http://www.w3.org/2000/svg" xmlns:xlink="http://www.w3.org/1999/xlink" x="0px" y="0px"
	 viewBox="694 -604 2000 2000" enable-background="new 694 -604 2000 2000" xml:space="preserve">
<g id="surface1">
	<path fill="#88AA00" d="M1069.7,416.3c-17.3-13.1-53.7-56.6-74.9-89.5c-20.3-31.5-39.7-77.4-48.8-115.4c-7.4-31-6.9-33.4,12.4-56.2
		c12.6-14.8,60.7-55.8,82.7-70.3c45.5-30.1,98.5-51,159.8-63.1c32.1-6.3,103.2-6.3,135.3,0c54.6,10.7,111.7,30.6,111.7,38.8
		c0,1.3-8.7,8.1-19.2,15.2c-10.6,7.1-25.1,17.8-32.2,23.8c-26.1,22-56,69.3-66.3,105.1c-2.2,7.5-6.1,25.8-8.8,40.5
		c-2.7,14.8-6.1,28.4-7.7,30.3c-1.6,1.9-12,6.4-23.1,10c-29.2,9.5-75.8,32.7-106,52.7c-14.3,9.5-42.3,31.5-62.1,48.9
		c-19.8,17.4-37.8,32.6-40,33.7C1079.8,422.4,1076,421,1069.7,416.3z"/>
	<path fill="#88AA00" d="M1240.2,892.6c-30.6-3.5-58.1-9.9-93.4-21.8c-45.2-15.1-57.8-22.5-64.8-37.5c-5-10.8-5.4-16.2-6.2-76.2
		c-1-78.7,1.4-101.8,14.7-141.5c30.9-92.3,79.1-157.5,161.2-217.7c21.3-15.6,58.3-38.3,66.2-40.5c6.8-1.9,9.6,2,32.6,46.3
		c20.5,39.5,31.7,57.7,58.2,94.9c10.6,14.9,19.3,28.4,19.3,30.1s-8.8,21.3-19.6,43.7c-22.8,47.3-34.8,80.2-42.9,118
		c-5.1,23.8-5.8,33.7-5.8,84.1c0,35.3,1.3,66.4,3.4,81.5c2.3,16.1,2.6,25.2,1,26.8C1356.8,890.3,1275.4,896.7,1240.2,892.6z"/>
	<path fill="#88AA00" d="M1670.9,1127.8c-80.4-43.3-141.8-106-178.1-181.9c-32.1-67-45.5-121.1-45.4-182.5
		c0.1-61.9,19.6-152.7,36.9-171.8c5-5.6,1.9-7.4,56.7,32.7c21.9,16,55.9,39.5,75.7,52.3c38.8,25,60.2,40.6,68.7,49.9
		c2.9,3.2,9.6,13.7,14.7,23.2c16.7,31,39,61.4,64.3,87.7c29.9,31.1,52.2,49.3,93.2,76.2c17.1,11.2,33.6,23.1,36.7,26.6
		c7.1,7.7,5.8,11.8-12.3,38.7c-42.8,63.7-94.2,111.7-157.5,146.9c-14.9,8.3-27.7,15.1-28.4,15.1
		C1695.6,1140.8,1684.2,1134.9,1670.9,1127.8z"/>
	<path fill="#88AA00" d="M2055.7,887.3c-38.9-5.7-94.1-23.5-133.5-43.2c-57.5-28.6-125.4-85.3-148.7-124.2
		c-8.2-13.6-8.3-14.3-3.7-16.9c16.5-9.2,104.8-70,133.9-92.3c28.4-21.7,35.9-26.3,41-25.2c3.4,0.8,14.6,3.6,24.8,6.4
		c25.4,6.9,82.4,10.8,131.7,9.1c47.2-1.6,64.9-5.5,125.4-27.3c56.1-20.2,51.1-20.5,60.4,2.9c25.1,63.5,28.8,85.1,28.9,169.3
		c0.1,71-0.7,76.4-13.3,90.2c-9.7,10.6-23.3,17.6-55.8,28.8c-35.3,12.1-74,19.1-124.5,22.4C2080.1,890.3,2075.7,890.3,2055.7,887.3z
		"/>
	<path fill="#88AA00" d="M2020.9,517.6c-5.1-1-10-2.4-10.8-3.2c-0.8-0.8,7.4-14.6,18.3-30.8c34.9-52.2,55.2-95.5,69.1-147.6
		c5.9-22.1,7-31.4,7.6-66.1c0.9-46.4,0.1-43.9,28.6-87c24-36.1,41.3-73.4,56.8-122.2c7.2-22.5,13.4-41.4,13.8-41.9
		c1.9-2.2,38.5,8.4,58.5,17c11.8,5.1,34.6,16.9,50.7,26.2c44.8,26,73.2,48.2,127.2,99.2l5.7,5.4l-5.3,24.5
		c-7.4,34.2-17.3,61.4-37.2,101.8c-23.7,48.3-45.7,76.2-95.3,120.9c-60.8,54.8-114.7,81.8-191.9,96.1c-22.1,4.1-80.6,10.9-85.2,9.9
		C2030.8,519.6,2026.1,518.6,2020.9,517.6z"/>
	<path fill="#88AA00" d="M2041.9,109.6c-24.1-21.8-49.1-36.6-79-46.8c-23.3-7.9-60.7-14.6-81.9-14.6c-7,0-17.7-0.7-23.9-1.6
		l-11.2-1.5l-1.3-40.1c-2.5-76.3-23.5-143.3-66.9-212.7c-8.9-14.3-18.2-29.8-20.5-34.3c-4.1-8.1-4.1-8.5,1.5-14.5
		c9-9.6,50.3-36.2,77.8-50c39-19.6,100.7-38,139.7-41.6c13.5-1.3,18.8-0.7,25.3,2.7c33.6,17.4,81.9,101.9,100.8,176.2
		c9.2,36.3,11.9,65.9,10.5,114c-1.4,46.8-5.4,73.6-17,113.8c-7.8,26.8-26,67.1-31,68.5C2063.3,127.5,2053,119.6,2041.9,109.6z"/>
	<path fill="#88AA00" d="M1704.9,133.5c-20.2-30.8-57.4-56.5-109.2-75.3c-31.5-11.4-47.7-20-83.2-44
		c-72.3-48.8-150.4-77.7-231.6-85.6c-36.4-3.5-33,0.7-29.1-36.8c7.8-75.8,31.7-136.9,80.1-205.5c7.9-11.2,16.6-21.6,19.1-23
		c7.6-4.1,43.7-2.9,75.8,2.4c95.2,15.8,163.3,50.2,228.5,115.5c69.1,69.2,110.3,157.4,116.6,249.6c0.8,11.6,2,27.9,2.8,36.1l1.3,15
		l-25.6,22.3c-14.1,12.2-29.1,25.3-33.4,29.1l-7.8,6.8L1704.9,133.5z"/>
</g>
</svg>
