<?xml version="1.0" encoding="UTF-8" standalone="no"?>
<!-- Generator: Adobe Illustrator 18.0.0, SVG Export Plug-In . SVG Version: 6.00 Build 0)  -->

<svg
   xmlns:dc="http://purl.org/dc/elements/1.1/"
   xmlns:cc="http://creativecommons.org/ns#"
   xmlns:rdf="http://www.w3.org/1999/02/22-rdf-syntax-ns#"
   xmlns:svg="http://www.w3.org/2000/svg"
   xmlns="http://www.w3.org/2000/svg"
   xmlns:sodipodi="http://sodipodi.sourceforge.net/DTD/sodipodi-0.dtd"
   xmlns:inkscape="http://www.inkscape.org/namespaces/inkscape"
   version="1.1"
   id="Layer_1"
   x="0px"
   y="0px"
   viewBox="0 0 200.42939 144.05848"
   enable-background="new 0 0 792 612"
   xml:space="preserve"
   inkscape:version="0.48.5 r10040"
   width="100%"
   height="100%"
   sodipodi:docname="meshblu.svg"><metadata
     id="metadata39"><rdf:RDF><cc:Work
         rdf:about=""><dc:format>image/svg+xml</dc:format><dc:type
           rdf:resource="http://purl.org/dc/dcmitype/StillImage" /><dc:title></dc:title></cc:Work></rdf:RDF></metadata><defs
     id="defs37" /><sodipodi:namedview
     pagecolor="#ffffff"
     bordercolor="#666666"
     borderopacity="1"
     objecttolerance="10"
     gridtolerance="10"
     guidetolerance="10"
     inkscape:pageopacity="0"
     inkscape:pageshadow="2"
     inkscape:window-width="1926"
     inkscape:window-height="1045"
     id="namedview35"
     showgrid="false"
     fit-margin-top="0"
     fit-margin-left="0"
     fit-margin-right="0"
     fit-margin-bottom="0"
     inkscape:zoom="3.0606061"
     inkscape:cx="42.716483"
     inkscape:cy="31.244911"
     inkscape:window-x="0"
     inkscape:window-y="0"
     inkscape:window-maximized="0"
     inkscape:current-layer="Layer_1" /><g
     id="g3"
     transform="translate(-116.88488,-89.368666)"><path
       stroke-miterlimit="10"
       d="m 223.8,169.2 c 0,0 -3.8,-2.4 11,-11.7 14.8,-9.2 10.7,-8.9 9.5,-16.1 0,0 4.7,4.6 -11.6,12.9 -16.3,8.4 -9.7,10.4 -8.9,14.9 z"
       id="path19"
       inkscape:connector-curvature="0"
       style="fill:#003b71;stroke:#003b71;stroke-width:0.69069999;stroke-miterlimit:10" /><path
       stroke-miterlimit="10"
       d="m 225,175.9 c 0,0 -1,-4.4 16,-0.6 17,3.8 13.8,1.2 18.1,-4.7 0,0 0.1,6.6 -17.3,1 -17.4,-5.5 -14.2,0.6 -16.8,4.3 z"
       id="path21"
       inkscape:connector-curvature="0"
       style="fill:#003b71;stroke:#003b71;stroke-width:0.69069999;stroke-miterlimit:10" /><path
       stroke-miterlimit="10"
       d="m 219.3,181.7 c 0,0 2.5,-3.7 11.3,11.3 8.8,15 8.6,10.9 15.8,10 0,0 -4.7,4.5 -12.6,-12 -7.8,-16.5 -10,-10 -14.5,-9.3 z"
       id="path23"
       inkscape:connector-curvature="0"
       style="fill:#003b71;stroke:#003b71;stroke-width:0.69069999;stroke-miterlimit:10" /><path
       stroke-miterlimit="10"
       d="m 211.1,180.9 c 0,0 4.4,-0.6 -0.8,16 -5.3,16.6 -2.4,13.7 3.1,18.4 0,0 -6.5,-0.5 0.5,-17.3 7,-16.8 0.7,-14.2 -2.8,-17.1 z"
       id="path25"
       inkscape:connector-curvature="0"
       style="fill:#003b71;stroke:#003b71;stroke-width:0.69069999;stroke-miterlimit:10" /><path
       stroke-miterlimit="10"
       d="m 179.4,196 c 0,0 -2.6,-3.6 14.5,-6.9 17.1,-3.3 13.1,-4.5 14.7,-11.6 0,0 2.7,6 -15.5,7.9 -18.1,1.8 -12.8,6.1 -13.7,10.6 z"
       id="path27"
       inkscape:connector-curvature="0"
       style="fill:#003b71;stroke:#003b71;stroke-width:0.69069999;stroke-miterlimit:10" /><path
       stroke-miterlimit="10"
       d="m 175.1,171 c 0,0 -0.4,-4.5 16,1.3 16.4,5.8 13.6,2.8 18.5,-2.6 0,0 -0.7,6.5 -17.3,-1 -16.7,-7.5 -14.2,-1.1 -17.2,2.3 z"
       id="path29"
       inkscape:connector-curvature="0"
       style="fill:#003b71;stroke:#003b71;stroke-width:0.69069999;stroke-miterlimit:10" /><path
       stroke-miterlimit="10"
       d="m 188.8,142.6 c 0,0 2.8,-3.5 10.4,12.2 7.5,15.7 7.7,11.6 14.9,11.2 0,0 -5.1,4.1 -11.6,-13 -6.4,-16.9 -9.2,-10.6 -13.7,-10.4 z"
       id="path31"
       inkscape:connector-curvature="0"
       style="fill:#77bc1f;stroke:#77bc1f;stroke-width:0.69069999;stroke-miterlimit:10" /><path
       stroke-miterlimit="10"
       d="m 215.2,131.5 c 0,0 4.4,-0.7 -0.4,16 -4.8,16.7 -2,13.7 3.7,18.3 0,0 -6.6,-0.3 0,-17.3 6.5,-17.1 0.2,-14.2 -3.3,-17 z"
       id="path33"
       inkscape:connector-curvature="0"
       style="fill:#003b71;stroke:#003b71;stroke-width:0.69069999;stroke-miterlimit:10" /></g><path
     id="path3085"
     d="m -1.7098493e-6,103.34629 q 0,-10.960958 5.4804850098493,-20.356084 5.4804867,-9.395119 14.8756027,-14.875603 -1.565853,-4.306096 -1.565853,-8.612192 0,-11.743895 8.220728,-19.964625 8.220728,-8.220728 19.964626,-8.220728 3.914634,0 8.612192,1.565853 Q 62.242654,18.007308 75.94387,9.003654 89.645083,0 106.47801,0 q 21.92194,0 37.77629,14.67977 15.85437,14.679771 18.20314,36.210451 16.44148,3.131706 27.2066,16.049991 10.76514,12.918289 10.76535,30.142666 0,19.573172 -13.70121,33.274372 -13.70123,13.70123 -33.27438,13.70123 l -112.741424,0 q -16.83292,0 -28.77265,-11.93975 Q -1.7098493e-6,120.17901 -1.7098493e-6,103.3461 z m 12.5268237098493,0 q 0,11.74391 8.220728,19.96462 8.220728,8.22074 19.964626,8.22074 l 112.741414,0 q 14.09268,0 24.27072,-10.17806 10.17806,-10.17803 10.17806,-24.270712 0,-12.526831 -7.82929,-21.921938 -7.82924,-9.395116 -19.96462,-11.743895 -7.04634,-1.565855 -8.41635,-2.936076 -1.37002,-1.370221 -1.76169,-8.416359 -1.56584,-16.83292 -14.09267,-28.185353 -12.52681,-11.352434 -29.35974,-11.352434 -12.526835,0 -23.487813,6.850706 -10.960961,6.850708 -16.049985,18.594405 -1.957315,3.914634 -2.348779,4.89339 -0.391464,0.978759 -1.761685,2.544411 -1.370221,1.565654 -2.936074,1.17439 -1.565852,-0.391263 -4.306096,-1.17439 -4.306096,-1.957317 -8.612192,-1.565853 -6.654875,0 -11.156601,4.501928 -4.501728,4.501927 -4.501928,11.156601 0,1.957317 0.782926,4.69756 2.740243,6.654875 1.957317,9.003654 -0.782926,2.348777 -7.437802,5.871945 -14.092676,8.220723 -14.092676,24.27072 z"
     inkscape:connector-curvature="0" /></svg>