<?xml version="1.0" ?><svg enable-background="new 0 0 515.91 728.5" height="512" id="Layer_1" version="1.1" viewBox="0 0 512.00003 512" width="512" xml:space="preserve" xmlns="http://www.w3.org/2000/svg" xmlns:cc="http://creativecommons.org/ns#" xmlns:dc="http://purl.org/dc/elements/1.1/" xmlns:inkscape="http://www.inkscape.org/namespaces/inkscape" xmlns:rdf="http://www.w3.org/1999/02/22-rdf-syntax-ns#" xmlns:sodipodi="http://sodipodi.sourceforge.net/DTD/sodipodi-0.dtd" xmlns:svg="http://www.w3.org/2000/svg"><defs id="defs7"/><g id="g3834" transform="matrix(0.95379463,0,0,0.95379463,-475.86578,361.78191)"><path d="m 984.05494,-150.64021 c -2.05912,-2.06918 -5.23662,-2.13195 -7.26896,-1.23556 l -36.45712,16.75231 c -6.75424,-7.17537 -14.06202,-13.49621 -21.83898,-18.98275 l 11.37681,-38.39872 c 0.92253,-3.1001 -0.38826,-6.25773 -3.28949,-7.68616 -6.12756,-2.98009 -12.24584,-5.95768 -18.37298,-8.93777 -3.20309,-1.67275 -6.6684,0.0564 -8.16755,2.10206 l -23.18686,32.71834 c -9.2762,-2.77112 -18.78741,-4.57276 -28.38585,-5.43968 l -9.33893,-39.05662 c -0.75139,-3.14511 -3.47255,-5.16618 -6.69129,-4.9583 -6.79677,0.48329 -13.61409,0.96088 -20.41086,1.44417 -3.60953,0.15324 -5.71096,3.33326 -5.98525,5.85688 l -3.69065,39.92313 c -9.35508,2.2021 -18.54345,5.39839 -27.42307,9.51543 l -27.55144,-29.15607 c -2.22301,-2.34894 -5.59222,-2.72773 -8.27988,-0.93068 l -16.97695,11.45703 c -0.38129,0.2411 -0.6666,0.50763 -0.96278,0.80232 -2.0758,2.06064 -2.16414,5.26932 -1.26766,7.30105 l 16.76836,36.44108 c -7.16829,6.74673 -13.51611,14.05176 -18.99878,21.82293 l -38.39873,-11.441 c -3.09925,-0.92478 -6.24126,0.43684 -7.67012,3.33763 -2.97944,6.12949 -5.95832,12.24562 -8.93777,18.37297 -1.67167,3.20192 0.0696,6.65343 2.11811,8.15151 l 32.7023,23.138723 c -2.78163,9.30032 -4.58806,18.84322 -5.45574,28.46608 l -39.00847,9.290791 c -3.14544,0.751195 -5.23477,3.525707 -5.02248,6.755477 0.48295,6.796019 0.99318,13.58275 1.47625,20.378761 0.15292,3.6101905 3.36373,5.7141985 5.88898,5.9852565 l 39.89103,3.722739 c 2.20211,9.348532 5.35142,18.5321215 9.4673,27.4070235 L 675.64565,51.79953 c -2.34859,2.222498 -2.77653,5.609448 -0.97883,8.295919 l 11.45703,16.944856 c 1.93786,3.049731 5.78071,3.320128 8.10337,2.294622 l 36.42503,-16.816492 c 6.7524,7.173214 14.06192,13.529361 21.83898,19.01483 l -11.39285,38.414765 c -0.92285,3.10011 0.42089,6.22564 3.32157,7.65408 6.12746,2.98008 12.23013,5.97371 18.35693,8.95381 3.2032,1.67276 6.63641,-0.0264 8.13546,-2.06996 l 23.17082,-32.76649 c 9.28778,2.7765 18.82149,4.58883 28.43399,5.45573 l 9.30683,39.02453 c 0.75002,3.14511 3.50443,5.19828 6.72338,4.99039 6.79603,-0.48329 13.5989,-1.00902 20.39481,-1.49231 3.61008,-0.15217 5.72646,-3.31831 6.00131,-5.84084 l 3.69064,-39.89102 c 9.34865,-2.20105 18.5318,-5.351329 27.40703,-9.467304 l 27.51935,29.059794 c 2.223,2.34894 5.62443,2.75982 8.31197,0.96278 l 16.96091,-11.44099 c 3.05005,-1.9385 3.25498,-5.78017 2.23043,-8.10337 L 934.29546,68.535787 C 941.463,61.787994 947.79563,54.434813 953.2782,46.66472 l 38.41476,11.457039 c 3.09967,0.921562 6.22511,-0.420788 7.65407,-3.32158 2.98007,-6.127342 5.99017,-12.24564 8.96987,-18.372978 1.6718,-3.201907 -0.053,-6.668402 -2.1021,-8.167553 L 973.51254,5.1209275 c 2.77563,-9.288543 4.62037,-18.8550005 5.48783,-28.4660795 l 38.96033,-9.274747 c 3.1463,-0.750113 5.2198,-3.512882 5.0064,-6.739428 -0.4825,-6.79709 -0.961,-13.58489 -1.4441,-20.37876 -0.1531,-3.61233 -3.3792,-5.72912 -5.905,-6.00131 l -39.87503,-3.70669 c -2.20018,-9.34104 -5.38835,-18.53855 -9.49939,-27.40702 l 29.09189,-27.519353 c 2.3487,-2.22248 2.76057,-5.62442 0.96278,-8.31197 l -11.441,-16.92882 c -0.24221,-0.38081 -0.50815,-0.73137 -0.80231,-1.02696 z m -128.28992,56.434733 a 5.8099505,5.8099505 0 0 1 0.12837,8.34406 l -22.65734,22.65733 74.06958,74.069581 c 4.5515,4.551488 4.5515,11.879885 0,16.431374 l -8.21569,8.215691 c -4.55149,4.551496 -11.87989,4.551496 -16.43138,0 l -74.06958,-74.069576 -22.65733,22.657335 a 5.8099505,5.8099505 0 0 1 -9.8845,-3.401815 l -9.9166,-79.87832 a 5.8099505,5.8099505 0 0 1 6.48269,-6.482703 l 79.87833,9.916603 a 5.8099505,5.8099505 0 0 1 3.27345,1.54044 z" id="path3815" style="fill:#00a1f1;fill-opacity:1;stroke:none"/><path d="m 558.57206,-345.39593 c -1.93729,1.923 -1.98585,4.8637 -1.14905,6.7617 l 13.96536,30.4056 c -6.9541,7.504 -12.44073,15.95551 -16.44023,24.92551 l -33.43289,-0.95017 c -3.01611,-0.08 -5.4894,1.92245 -6.0767,4.88345 -1.20571,6.24301 -2.44092,12.47322 -3.64602,18.71623 -0.73481,3.291 1.67988,5.94991 3.88908,6.80591 l 31.35577,11.64516 c 0.37971,9.914 2.35952,19.77235 5.96621,29.21235 l -24.30679,22.98097 c -2.1924,2.077 -2.51699,5.27018 -0.83969,7.77818 l 10.6508,15.77732 c 1.8083,2.84599 5.411,3.05522 7.5793,2.09922 l 30.40559,-13.96536 c 7.5083,6.961 15.94941,12.48143 24.92551,16.48443 l -0.97227,33.41079 c -0.082,3.016 1.92325,5.5339 4.88346,6.1209 6.24229,1.20599 12.49503,2.37372 18.73833,3.57972 3.29089,0.734 5.9491,-1.63589 6.8059,-3.84489 l 11.60097,-31.39996 c 9.9226,-0.379 19.82863,-2.33112 29.27864,-5.94412 l 22.95887,24.2847 c 2.07349,2.19101 5.26998,2.51669 7.77818,0.83969 l 15.75522,-10.6287 c 2.8459,-1.80799 3.05542,-5.4103 2.09922,-7.5793 l -13.96536,-30.40559 c 6.9618,-7.509 12.50382,-15.92641 16.50653,-24.90342 l 33.3887,0.90598 c 3.0162,0.08 5.48939,-1.87926 6.0767,-4.83926 1.20569,-6.24199 2.41772,-12.49532 3.62392,-18.73833 0.7335,-3.29099 -1.5917,-5.94991 -3.8007,-6.8059 l -31.42206,-11.57887 c -0.3801,-9.932 -2.34772,-19.84374 -5.96621,-29.30074 l 24.2405,-22.95887 c 2.19194,-2.07697 2.58368,-5.25109 0.90598,-7.75608 l -10.65079,-15.82152 c -1.8082,-2.846 -5.43391,-3.03312 -7.6014,-2.07712 l -30.3614,14.00955 c -7.5063,-6.96 -15.93402,-12.46134 -24.90341,-16.46233 l 0.88388,-33.45499 c 0.082,-3.016 -1.85696,-5.4676 -4.81717,-6.0546 -6.24239,-1.206 -12.47373,-2.44001 -18.71623,-3.64602 -0.4112,-0.09 -0.84714,-0.13059 -1.23744,-0.13258 -2.7321,-0.01 -4.86325,2.04447 -5.61266,3.97747 l -11.60097,31.39996 c -9.9299,0.38 -19.82324,2.32712 -29.27864,5.94412 l -22.95887,-24.2405 c -2.07437,-2.19204 -5.24788,-2.58298 -7.75608,-0.90598 l -15.77732,10.69499 c -0.35557,0.22602 -0.69587,0.47529 -0.97227,0.7513 z m 32.28384,57.03258 5.50218,-5.50218 c 3.04539,-3.04539 7.95896,-3.04539 11.00435,0 l 49.56376,49.56377 15.15861,-15.1586 a 3.8874217,3.8874217 0 0 1 6.60702,2.276 l 6.62913,53.43075 a 3.8874217,3.8874217 0 0 1 -4.35313,4.35313 l -53.43075,-6.62913 a 3.8874217,3.8874217 0 0 1 -2.18761,-1.03856 3.8874217,3.8874217 0 0 1 -0.0884,-5.56847 l 15.1586,-15.1586 -49.56377,-49.56376 c -3.04538,-3.04539 -3.04538,-7.95896 0,-11.00435 z" id="path3827" style="fill:#333333;fill-opacity:1;stroke:none"/></g></svg>