<?xml version="1.0" ?><!DOCTYPE svg  PUBLIC '-//W3C//DTD SVG 1.1//EN'  'http://www.w3.org/Graphics/SVG/1.1/DTD/svg11.dtd'><svg enable-background="new 0 0 136.914 136.913" height="136.913px" id="Layer_1" version="1.1" viewBox="0 0 136.914 136.913" width="136.914px" xml:space="preserve" xmlns="http://www.w3.org/2000/svg" xmlns:xlink="http://www.w3.org/1999/xlink"><g><g><g><circle cx="68.457" cy="68.457" fill="#1FA85B" r="63.333"/></g></g><g><g><path d="M116.703,54.383c-0.358-0.393-0.875-0.633-1.506-0.58c-0.169,0.004-0.335,0.029-0.495,0.079     c-6.82,1.458-13.639,2.916-20.459,4.373c-1.417,0.304-1.798,2.181-0.833,3.145c1.806,1.806,3.611,3.611,5.417,5.417     c-8.479,8.478-16.957,16.956-25.435,25.435c0-14.275,0-28.551,0-42.825c2.58,0,5.159,0,7.738,0c1.377,0,2.423-1.602,1.631-2.824     c-3.795-5.857-7.59-11.714-11.385-17.57c-0.032-0.06-0.071-0.115-0.11-0.171c-0.003-0.005-0.006-0.01-0.01-0.015     c-0.003-0.004-0.006-0.007-0.009-0.012c-0.042-0.058-0.084-0.113-0.133-0.166c-0.411-0.508-0.959-0.71-1.5-0.682     c-0.529-0.013-1.061,0.2-1.461,0.698c-0.031,0.034-0.058,0.071-0.086,0.108c-0.017,0.023-0.036,0.04-0.052,0.064     c-0.022,0.035-0.045,0.069-0.067,0.104c-0.009,0.015-0.02,0.027-0.028,0.042c-3.802,5.87-7.604,11.739-11.407,17.609     c-0.774,1.196,0.251,2.813,1.61,2.813c2.589,0,5.178,0,7.767,0c0,14.255,0,28.51,0,42.765     c-8.427-8.427-16.854-16.854-25.28-25.28c1.841-1.841,3.683-3.683,5.525-5.524c0.955-0.955,0.556-2.83-0.838-3.128     c-6.832-1.46-13.664-2.92-20.496-4.379c-0.148-0.044-0.303-0.066-0.46-0.071c-0.619-0.053-1.132,0.175-1.491,0.552     c-0.391,0.356-0.631,0.872-0.58,1.501c0.003,0.173,0.029,0.341,0.08,0.503c1.457,6.818,2.915,13.638,4.372,20.456     c0.303,1.417,2.18,1.798,3.144,0.834c1.813-1.813,3.626-3.626,5.439-5.439c10.54,10.54,21.08,21.08,31.62,31.62     c0.89,0.89,1.904,1.178,2.86,1.07c0.897,0.038,1.833-0.272,2.659-1.099c10.562-10.562,21.124-21.124,31.686-31.687     c1.849,1.85,3.699,3.698,5.548,5.548c0.955,0.955,2.83,0.557,3.127-0.838c1.459-6.832,2.918-13.663,4.377-20.495     c0.044-0.148,0.067-0.304,0.072-0.461C117.307,55.254,117.08,54.741,116.703,54.383z" fill="#FFFFFF"/></g></g></g></svg>