<?xml version="1.0" ?><!DOCTYPE svg  PUBLIC '-//W3C//DTD SVG 1.1//EN'  'http://www.w3.org/Graphics/SVG/1.1/DTD/svg11.dtd'><svg enable-background="new 0 0 83 83" id="Layer_1" version="1.1" viewBox="0 0 83 83" xml:space="preserve" xmlns="http://www.w3.org/2000/svg" xmlns:xlink="http://www.w3.org/1999/xlink"><g><path d="M3.9,26.2L3.9,26.2h-1c-1.3,0-2.4,1.1-2.4,2.4v25.6c0,1.3,1.1,2.4,2.4,2.4h1l0,0h1.8V26.2H3.9z" fill="#505251"/><path d="M20.8,59.8H8.1c-1.3,0-2.4-1.1-2.4-2.4V25.6c0-1.3,1.1-2.4,2.4-2.4h12.6L20.8,59.8L20.8,59.8z" fill="#5993CE"/><g><g><path d="M72.2,66.4l-2.9-2.9c12.2-12.2,12.2-32,0-44.1l2.9-2.9C85.9,30.3,85.9,52.7,72.2,66.4z" fill="#40B65C"/></g><g><path d="M64.5,58.7l-2.9-2.9c7.9-7.9,7.9-20.8,0-28.7l2.9-2.9C74,33.8,74,49.2,64.5,58.7z" fill="#40B65C"/></g></g><polygon fill="#DFE1E0" points="56.3,3.1 54.8,4 54.8,79 56.3,79.9  "/><polygon enable-background="new    " fill="#DFE1E0" opacity="0.71" points="49.8,6.8 44.9,9.6 43,10.6 20.8,23.2 20.8,59.8    43,72.4 44.9,73.4 49.8,76.2 54.8,79 54.8,4  "/><path d="M52.7,4l-1.3,0.6v73.7l1.3,0.6c1.7,0.8,3.6-0.4,3.6-2.3V6.3C56.3,4.4,54.4,3.2,52.7,4z" fill="#5993CE"/></g></svg>