<?xml version="1.0" ?><!DOCTYPE svg  PUBLIC '-//W3C//DTD SVG 1.0//EN'  'http://www.w3.org/TR/2001/REC-SVG-20010904/DTD/svg10.dtd'><svg height="32" style="overflow:visible;enable-background:new 0 0 14 32" viewBox="0 0 14 32" width="14" xml:space="preserve" xmlns="http://www.w3.org/2000/svg" xmlns:xlink="http://www.w3.org/1999/xlink"><g><g id="Microphone_2_"><g id="Microphone_1_"><rect height="2" id="Microphone_Holder_1_" style="fill:#33485D;" width="13" x="0.5" y="11.8"/><polygon id="Shadow_1_" points="1.5,11.8 0.5,11.8 0.5,13.8 3.5,13.8 " style="fill:#25374B;"/><polygon id="Shadow" points="12.5,11.8 13.5,11.8 13.5,13.8 10.5,13.8 " style="fill:#25374B;"/><g id="Microphone_Stand"><polygon id="Stand" points="10.5,30 8,30 8,21 6,21 6,30 3.5,30 1.5,31 1.5,32          12.5,32 12.5,31 " style="fill:#33485D;"/><polygon id="Holder_Shadow" points="6,23.5 8,21.5 8,21 6,21 " style="fill:#25374B;"/><path d="M13.3,10.7c-0.4,0-0.8,0.3-0.8,0.8v3.1c0,3-2.4,5.5-5.5,5.5         c-3,0-5.5-2.4-5.5-5.5v-3.1c0-0.4-0.3-0.8-0.8-0.8C0.3,10.7,0,11,0,11.4v3.1c0,3.9,3.1,7,7,7c3.9,0,7-3.1,7-7v-3.1         C14,11,13.7,10.7,13.3,10.7z" id="Holder" style="fill:#33485D;"/><rect height="0.5" id="Stand_Shadow" style="fill:#25374B;" width="2" x="6" y="29.5"/></g><g id="Microphone"><path d="M7,0C4.5,0,2.5,2,2.5,4.5v10C2.5,17,4.5,19,7,19         c2.5,0,4.5-2,4.5-4.5v-10C11.5,2,9.5,0,7,0z" id="Speaker" style="fill:#E6E6E6;"/><path d="M7,12V0C4.5,0,2.5,2,2.5,4.5V12H7z" id="Speaker_Bevel" style="fill:#DCD7D3;"/><path d="M2.5,12.5v2C2.5,17,4.5,19,7,19c2.5,0,4.5-2,4.5-4.5         v-2H2.5z" id="Holder_Bevel_1_" style="fill:#33485D;"/><path d="M7,12.5H2.5v2C2.5,17,4.5,19,7,19V12.5z" id="Holder_Bevel" style="fill:#2E4354;"/><rect height="1.5" id="Green_Stripes" style="fill:#0BA55F;" width="9" x="2.5" y="12"/><rect height="1.5" id="Green_Stripes_Bevel" style="fill:#0D9B57;" width="4.5" x="2.5" y="12"/><path d="M8.5,5.5C8.5,5.8,8.7,6,9,6h2.5V5c0,0,0,0,0,0H9         C8.7,5,8.5,5.2,8.5,5.5z" id="Stripes_7_" style="fill:#9EA2A5;"/><path d="M5,5H2.5c0,0,0,0,0,0v1H5c0.3,0,0.5-0.2,0.5-0.5S5.3,5,5,5z         " id="Stripes_6_" style="fill:#9EA2A5;"/><path d="M5,3H2.8C2.7,3.3,2.6,3.7,2.6,4H5c0.3,0,0.5-0.2,0.5-0.5         S5.3,3,5,3z" id="Stripes_5_" style="fill:#9EA2A5;"/><path d="M11.5,7H9C8.7,7,8.5,7.2,8.5,7.5S8.7,8,9,8h2.5V7z" id="Stripes_4_" style="fill:#9EA2A5;"/><path d="M11.5,9H9C8.7,9,8.5,9.2,8.5,9.5S8.7,10,9,10h2.5V9z" id="Stripes_3_" style="fill:#9EA2A5;"/><path d="M5,7H2.5v1H5c0.3,0,0.5-0.2,0.5-0.5S5.3,7,5,7z" id="Stripes_2_" style="fill:#9EA2A5;"/><path d="M5,9H2.5v1H5c0.3,0,0.5-0.2,0.5-0.5S5.3,9,5,9z" id="Stripes_1_" style="fill:#9EA2A5;"/><path d="M11.2,3H9C8.7,3,8.5,3.2,8.5,3.5S8.7,4,9,4h2.4         C11.4,3.7,11.4,3.3,11.2,3z" id="Stripes" style="fill:#9EA2A5;"/></g></g></g></g></svg>