<?xml version="1.0" encoding="utf-8"?>
<!-- Generator: Adobe Illustrator 18.0.0, SVG Export Plug-In . SVG Version: 6.00 Build 0)  -->
<!DOCTYPE svg PUBLIC "-//W3C//DTD SVG 1.1//EN" "http://www.w3.org/Graphics/SVG/1.1/DTD/svg11.dtd">
<svg version="1.1" id="Layer_1" xmlns="http://www.w3.org/2000/svg" xmlns:xlink="http://www.w3.org/1999/xlink" x="0px" y="0px"
	 viewBox="46.4 166.6 531 493.3" enable-background="new 46.4 166.6 531 493.3" xml:space="preserve">
<path fill="#333333" d="M575.3,245.4c0-35.6-118.7-78.8-264.4-78.8S46.4,209.8,46.4,245.4c0,1.1,0,1.1,0,2.2l0,0
	c0,62.6,171.6,208.3,202.9,270.9v110.1c0,17.3,28.1,31.3,62.6,31.3s62.6-14,62.6-31.3V517.4c31.3-62.6,202.9-208.3,202.9-270.9l0,0
	C575.3,246.5,575.3,245.4,575.3,245.4z M313,309.1c-128.4,0-233.1-27-233.1-59.4s104.7-66.9,233.1-66.9s233.1,33.5,233.1,65.8
	S441.5,309.1,313,309.1z"/>
<g>
	<path fill="#579BD3" d="M266.6,403c-6.5,0-11.9-3.2-11.9-10.8c0-7.6,5.4-10.8,11.9-10.8h91.7c6.5,0,11.9,3.2,11.9,10.8
		c0,7.6-5.4,10.8-11.9,10.8H266.6z M266.6,448.3c-6.5,0-11.9-3.2-11.9-10.8c0-7.6,5.4-10.8,11.9-10.8h91.7c6.5,0,11.9,3.2,11.9,10.8
		c0,7.6-5.4,10.8-11.9,10.8H266.6z"/>
</g>
</svg>
