<?xml version="1.0" encoding="utf-8"?>
<!-- Generator: Adobe Illustrator 18.0.0, SVG Export Plug-In . SVG Version: 6.00 Build 0)  -->
<!DOCTYPE svg PUBLIC "-//W3C//DTD SVG 1.1//EN" "http://www.w3.org/Graphics/SVG/1.1/DTD/svg11.dtd">
<svg version="1.1" id="Layer_1" xmlns="http://www.w3.org/2000/svg" xmlns:xlink="http://www.w3.org/1999/xlink" x="0px" y="0px"
	 viewBox="65.3 214.4 612 658.8" enable-background="new 65.3 214.4 612 658.8" xml:space="preserve">
<path fill="#333333" d="M163.1,217c-44.2,0-97.8,147.3-97.8,328s53.6,328.1,97.8,328.1c1.4,0,1.4,0,2.7,0l0,0
	c77.7,0,258.4-212.9,336.1-251.7h136.6c21.5,0,38.8-34.9,38.8-77.7s-17.4-77.7-38.8-77.7h-138c-77.7-38.8-258.4-251.7-336.1-251.7
	l0,0C164.4,217,163.1,217,163.1,217z M242.1,542.3c0,159.3-33.5,289.2-73.7,289.2s-83-129.9-83-289.2S127,253.1,167,253.1
	S242.1,382.9,242.1,542.3z"/>
<g enable-background="new    ">
	<path fill="#579BD3" d="M398.4,518.2l-102.4-52.6c-5.4-2.9-10-6.1-10-11.8c0.2-6.3,6.9-12,15.2-12c4.3,0,8.3,1.5,11.7,3.4
		l118.4,61.1c6.3,3.1,10.9,5.7,10.6,12c0,6.5-4.3,8.9-10.6,12l-118.2,60.9c-3.5,1.7-7.4,3.8-12.4,3.8c-8,0-15-6.1-15-12.2
		c0.2-5.5,3.7-8.5,9.5-11.4L398.4,518.2z"/>
</g>
<g>
	<path fill="#579BD3" d="M301.6,626.9c-9.8,0-18-3.2-18-10.8c0-7.6,8.2-10.8,18-10.8H441c9.8,0,18,3.2,18,10.8
		c0,7.6-8.2,10.8-18,10.8H301.6z"/>
</g>
</svg>
