<?xml version="1.0" encoding="utf-8"?>
<!-- Generator: Adobe Illustrator 18.0.0, SVG Export Plug-In . SVG Version: 6.00 Build 0)  -->
<!DOCTYPE svg PUBLIC "-//W3C//DTD SVG 1.1//EN" "http://www.w3.org/Graphics/SVG/1.1/DTD/svg11.dtd">
<svg version="1.1" id="Layer_1" xmlns="http://www.w3.org/2000/svg" xmlns:xlink="http://www.w3.org/1999/xlink" x="0px" y="0px"
	 viewBox="65.3 214.4 612 658.8" enable-background="new 65.3 214.4 612 658.8" xml:space="preserve">
<path fill="#333333" d="M163.1,217c-44.2,0-97.8,147.3-97.8,328s53.6,328.1,97.8,328.1c1.4,0,1.4,0,2.7,0l0,0
	c77.7,0,258.4-212.9,336.1-251.7h136.6c21.5,0,38.8-34.9,38.8-77.7s-17.4-77.7-38.8-77.7h-138c-77.7-38.8-258.4-251.7-336.1-251.7
	l0,0C164.4,217,163.1,217,163.1,217z M242.1,542.3c0,159.3-33.5,289.2-73.7,289.2s-83-129.9-83-289.2S127,253.1,167,253.1
	S242.1,382.9,242.1,542.3z"/>
<g enable-background="new    ">
	<path fill="#579BD3" d="M420.7,545L318,481.4c-5.5-3.5-10-7.3-10-14.3c0.2-7.6,6.9-14.5,15.3-14.5c4.3,0,8.3,1.9,11.8,4.1
		l118.9,73.8c6.3,3.7,10.9,6.9,10.7,14.5c0,7.8-4.3,10.8-10.7,14.5l-118.6,73.6c-3.5,2.1-7.4,4.6-12.4,4.6c-8.1,0-15-7.3-15-14.8
		c0.2-6.7,3.7-10.3,9.6-13.8L420.7,545z"/>
</g>
</svg>
