<?xml version="1.0" encoding="UTF-8" standalone="no"?>
<svg width="58px" height="52px" viewBox="0 0 58 52" version="1.1" xmlns="http://www.w3.org/2000/svg" xmlns:xlink="http://www.w3.org/1999/xlink">
    <!-- Generator: Sketch 39.1 (31720) - http://www.bohemiancoding.com/sketch -->
    <title>Slice 1</title>
    <desc>Created with Sketch.</desc>
    <defs></defs>
    <g id="Page-1" stroke="none" stroke-width="1" fill="none" fill-rule="evenodd">
        <g id="less-than-historical" transform="translate(1.000000, 2.000000)">
            <g id="Page-1">
                <g id="Group">
                    <polyline id="Shape" stroke="#231F20" stroke-width="2" points="0 17 7.565 27.741 16 17"></polyline>
                    <path d="M7.542,27.625 C5.649,11.952 17.417,0.504 30.639,0.017 C43.861,-0.468 54.975,9.855 55.46,23.077 C55.947,36.3 45.624,47.413 32.402,47.898 C22.461,48.264 13.715,42.52 9.775,34.026" id="Shape" stroke="#231F20" stroke-width="3"></path>
                    <path d="M36.3242619,40.7220368 L21.8017116,26.1988019 C21.291656,25.6880616 21,24.982884 21,24.2619598 L21,24.2619598 C21,23.5403509 21.291656,22.833804 21.8017116,22.3251177 L21.8017116,22.3251177 L36.3242619,7.80256739 C37.3936671,6.73247754 39.1285409,6.73247754 40.1972614,7.80256739 L40.1972614,7.80256739 C41.2666667,8.87197261 41.2666667,10.6047925 40.1972614,11.6741977 L40.1972614,11.6741977 L27.610184,24.2619598 L40.1979461,36.8490372 C41.2673513,37.9184424 41.2673513,39.6533162 40.1979461,40.7220368 L40.1979461,40.7220368 C39.6632435,41.2567394 38.9621737,41.524433 38.2617886,41.524433 L38.2617886,41.524433 C37.5600342,41.524433 36.8596491,41.257424 36.3242619,40.7220368 L36.3242619,40.7220368 L36.3242619,40.7220368 L36.3242619,40.7220368 Z" id="Shape" fill="#579BD3" transform="translate(31.000000, 24.262216) scale(-1, 1) translate(-31.000000, -24.262216) "></path>
                </g>
            </g>
        </g>
    </g>
</svg>