<?xml version="1.0" encoding="UTF-8" standalone="no"?>
<svg
   xmlns:osb="http://www.openswatchbook.org/uri/2009/osb"
   xmlns:dc="http://purl.org/dc/elements/1.1/"
   xmlns:cc="http://creativecommons.org/ns#"
   xmlns:rdf="http://www.w3.org/1999/02/22-rdf-syntax-ns#"
   xmlns:svg="http://www.w3.org/2000/svg"
   xmlns="http://www.w3.org/2000/svg"
   xmlns:xlink="http://www.w3.org/1999/xlink"
   xmlns:sodipodi="http://sodipodi.sourceforge.net/DTD/sodipodi-0.dtd"
   xmlns:inkscape="http://www.inkscape.org/namespaces/inkscape"
   enable-background="new 0 0 512 512"
   height="512px"
   id="Layer_1"
   version="1.1"
   viewBox="0 0 512 512"
   width="512px"
   xml:space="preserve"
   inkscape:version="0.48.4 r9939"
   sodipodi:docname="http-delete-request.svg"><metadata
     id="metadata3077"><rdf:RDF><cc:Work
         rdf:about=""><dc:format>image/svg+xml</dc:format><dc:type
           rdf:resource="http://purl.org/dc/dcmitype/StillImage" /><dc:title /></cc:Work></rdf:RDF></metadata><defs
     id="defs3075"><linearGradient
       id="linearGradient3818"
       osb:paint="solid"><stop
         style="stop-color:#ffffff;stop-opacity:1;"
         offset="0"
         id="stop3820" /></linearGradient><linearGradient
       id="linearGradient3812"
       osb:paint="solid"><stop
         style="stop-color:#aa0000;stop-opacity:1;"
         offset="0"
         id="stop3814" /></linearGradient><linearGradient
       inkscape:collect="always"
       xlink:href="#linearGradient3812"
       id="linearGradient3816"
       x1="236.46563"
       y1="348.83814"
       x2="477.08336"
       y2="348.83814"
       gradientUnits="userSpaceOnUse"
       gradientTransform="matrix(1.4464849,0,0,0.97382296,-188.75918,9.1315572)" /><linearGradient
       inkscape:collect="always"
       xlink:href="#linearGradient3818"
       id="linearGradient3822"
       x1="265.05698"
       y1="348.83813"
       x2="448.49203"
       y2="348.83813"
       gradientUnits="userSpaceOnUse" /><linearGradient
       inkscape:collect="always"
       xlink:href="#linearGradient3818"
       id="linearGradient3787"
       gradientUnits="userSpaceOnUse"
       gradientTransform="translate(-65.884482,-0.05493164)"
       x1="265.05698"
       y1="348.83813"
       x2="448.49203"
       y2="348.83813" /></defs><sodipodi:namedview
     pagecolor="#ffffff"
     bordercolor="#666666"
     borderopacity="1"
     objecttolerance="10"
     gridtolerance="10"
     guidetolerance="10"
     inkscape:pageopacity="0"
     inkscape:pageshadow="2"
     inkscape:window-width="1839"
     inkscape:window-height="1056"
     id="namedview3073"
     showgrid="false"
     inkscape:zoom="0.63735679"
     inkscape:cx="-124.02713"
     inkscape:cy="321.01167"
     inkscape:window-x="81"
     inkscape:window-y="24"
     inkscape:window-maximized="1"
     inkscape:current-layer="Layer_1"
     showguides="true"
     inkscape:guide-bbox="true"
     inkscape:snap-bbox="false" /><path
     style="fill:#333333"
     inkscape:connector-curvature="0"
     id="path3053"
     d="M 284.165,306.5 H 46 c -8.271,0 -15.5,-7.229 -15.5,-15.5 V 113 c 0,-8.271 7.229,-14.5 15.5,-14.5 h 445.5 v -15 H 46 c -16.5,0 -30.5,13 -30.5,29.5 v 178 c 0,16.5 14,30.5 30.5,30.5 h 243.558 l -5.393,-15 z" /><polygon
     style="fill:#333333"
     id="polygon3055"
     points="491.5,321.5 491.5,306.5 391.058,306.5 429.509,321.5 " /><path
     style="fill:#333333"
     inkscape:connector-curvature="0"
     id="path3059"
     d="m 121.5,245.5 h -20 v -41.704 c 0,-10.324 -3.708,-15.486 -11.388,-15.486 -5.461,0 -9.47,1.856 -11.902,5.567 -2.432,3.712 -3.71,9.727 -3.71,18.046 V 245.5 h -19 v -99 h 19 v 19.796 c 0,1.579 -0.021,5.445 -0.32,11.29 l -0.319,5.914 h 1.024 c 4.352,-7 11.263,-10.65 20.734,-10.65 8.404,0 14.892,2.184 19.244,6.706 4.352,4.523 6.637,10.93 6.637,19.376 V 245.5 z" /><path
     style="fill:#333333"
     inkscape:connector-curvature="0"
     id="path3061"
     d="m 171.363,231.313 c 3.413,0 8.137,-0.746 12.137,-2.239 V 243.6 c -5,2.176 -10.685,3.264 -17.767,3.264 -7.807,0 -13.41,-1.974 -16.972,-5.92 -3.562,-3.945 -5.261,-9.865 -5.261,-17.758 V 188.5 h -9 v -8.061 l 10.572,-6.682 5.452,-15.257 H 163.5 v 16 h 20 v 14 h -20 v 34.686 c 0,2.773 0.454,4.821 2.011,6.144 1.558,1.322 3.294,1.983 5.852,1.983 z" /><path
     style="fill:#333333"
     inkscape:connector-curvature="0"
     id="path3063"
     d="m 228.309,231.313 c 3.413,0 7.191,-0.746 12.191,-2.239 V 243.6 c -5,2.176 -10.74,3.264 -17.822,3.264 -7.807,0 -13.382,-1.974 -16.944,-5.92 -3.562,-3.945 -5.233,-9.865 -5.233,-17.758 V 188.5 h -9 v -8.061 l 10.517,-6.682 5.397,-15.257 H 219.5 v 16 h 20 v 14 h -20 v 34.686 c 0,2.773 0.927,4.821 2.484,6.144 1.558,1.322 3.764,1.983 6.325,1.983 z" /><path
     style="fill:#333333"
     inkscape:connector-curvature="0"
     id="path3065"
     d="m 294.444,246.758 c -8.404,0 -14.996,-3.258 -19.773,-9.258 h -1.024 c 0.683,6 0.853,9.641 0.853,10.58 v 29.42 h -19 v -103 h 15.523 l 2.752,9 h 0.896 c 4.564,-7 11.327,-10.714 20.286,-10.714 8.446,0 15.059,3.219 19.837,9.746 4.778,6.527 7.168,15.57 7.168,27.174 0,7.638 -1.12,14.26 -3.36,19.891 -2.239,5.631 -5.429,9.86 -9.566,12.803 -4.14,2.944 -9.003,4.358 -14.592,4.358 z m -5.758,-58.448 c -4.821,0 -8.428,1.483 -10.646,4.448 -2.219,2.966 -3.54,7.861 -3.54,14.687 v 2.111 c 0,7.68 1.227,13.183 3.51,16.511 2.281,3.327 5.94,4.991 10.89,4.991 8.745,0 13.139,-7.209 13.139,-21.63 0,-7.039 -1.066,-12.318 -3.22,-15.838 -2.156,-3.52 -5.526,-5.28 -10.133,-5.28 z" /><path
     style="fill:#333333"
     inkscape:connector-curvature="0"
     id="path3067"
     d="m 335.336,183.575 c 0,-3.583 0.96,-6.292 2.88,-8.127 1.92,-1.834 4.713,-2.752 8.383,-2.752 3.541,0 6.281,0.939 8.223,2.816 1.941,1.878 2.912,4.565 2.912,8.063 0,3.456 -0.992,6.133 -2.976,8.031 -1.984,1.899 -4.703,2.848 -8.159,2.848 -3.584,0 -6.357,-0.938 -8.319,-2.816 -1.964,-1.877 -2.944,-4.565 -2.944,-8.063 z m 0,52.858 c 0,-3.583 0.96,-6.292 2.88,-8.127 1.92,-1.834 4.713,-2.752 8.383,-2.752 3.541,0 6.281,0.939 8.223,2.816 1.941,1.878 2.912,4.565 2.912,8.062 0,3.371 -0.981,6.026 -2.943,7.968 -1.963,1.94 -4.693,2.911 -8.191,2.911 -3.584,0 -6.357,-0.949 -8.319,-2.848 -1.965,-1.897 -2.945,-4.574 -2.945,-8.03 z" /><path
     style="fill:#333333"
     inkscape:connector-curvature="0"
     id="path3069"
     d="m 418.719,152.5 -34.876,93 h -17.727 l 34.877,-93 h 17.726 z" /><path
     style="fill:#333333"
     inkscape:connector-curvature="0"
     id="path3071"
     d="m 472.857,152.5 -34.876,93 h -17.727 l 34.877,-93 h 17.726 z" /><rect
     style="fill:url(#linearGradient3816);fill-opacity:1;fill-rule:evenodd;stroke:#aa0000;stroke-width:19.44895935;stroke-linecap:round;stroke-linejoin:round;stroke-miterlimit:4;stroke-opacity:1;stroke-dasharray:none"
     id="rect3925"
     width="324.34634"
     height="113.90918"
     x="165.13654"
     y="291.88354" /><text
     xml:space="preserve"
     style="font-size:75px;font-style:normal;font-variant:normal;font-weight:bold;font-stretch:normal;text-align:start;line-height:100%;letter-spacing:0px;word-spacing:0px;writing-mode:lr-tb;text-anchor:start;fill:url(#linearGradient3787);fill-opacity:1;stroke:none;font-family:Open Sans;-inkscape-font-specification:Open Sans Bold"
     x="192.43422"
     y="375.60815"
     id="text3040"
     sodipodi:linespacing="100%"><tspan
       sodipodi:role="line"
       id="tspan2999"
       style="fill:url(#linearGradient3787)"
       x="192.43422"
       y="375.60815">DELETE</tspan></text>
</svg>