<?xml version="1.0" ?><!DOCTYPE svg  PUBLIC '-//W3C//DTD SVG 1.1//EN'  'http://www.w3.org/Graphics/SVG/1.1/DTD/svg11.dtd'><svg baseProfile="full" height="52px" version="1.1" width="50px" xmlns="http://www.w3.org/2000/svg" xmlns:ev="http://www.w3.org/2001/xml-events" xmlns:xlink="http://www.w3.org/1999/xlink"><path d="M49,52 C49,52 13,52 13,52 C12.4480000000001,52 12,51.5530000000001 12,51 C12,51 12,2 12,2 C12,2 2,2 2,2 C2,2 2,26 2,26 C2,26.5530000000001 1.55199999999991,27 1,27 C0.44800000000009,27 0,26.5530000000001 0,26 C0,26 0,1 0,1 C0,0.44699999999989 0.44800000000009,0 1,0 C1,0 13,0 13,0 C13.5519999999999,0 14,0.44699999999989 14,1 C14,1 14,50 14,50 C14,50 48,50 48,50 C48,50 48,23 48,23 C48,22.4469999999999 48.4480000000001,22 49,22 C49.5519999999999,22 50,22.4469999999999 50,23 C50,23 50,51 50,51 C50,51.5530000000001 49.5519999999999,52 49,52 Z " fill="rgb( 80, 80, 112 )"/></svg>