<?xml version="1.0" encoding="utf-8"?>
<!-- Generator: Adobe Illustrator 18.0.0, SVG Export Plug-In . SVG Version: 6.00 Build 0)  -->
<!DOCTYPE svg PUBLIC "-//W3C//DTD SVG 1.1//EN" "http://www.w3.org/Graphics/SVG/1.1/DTD/svg11.dtd">
<svg version="1.1" id="Layer_1" xmlns="http://www.w3.org/2000/svg" xmlns:xlink="http://www.w3.org/1999/xlink" x="0px" y="0px"
	 viewBox="65.3 214.3 612 658.8" enable-background="new 65.3 214.3 612 658.8" xml:space="preserve">
<path fill="#333333" d="M579.5,870.5c44.2,0,97.8-147.3,97.8-328s-53.6-328.1-97.8-328.1c-1.4,0-1.4,0-2.7,0l0,0
	c-77.7,0-258.4,212.9-336.1,251.7H104.1c-21.5,0-38.8,34.9-38.8,77.7s17.4,77.7,38.8,77.7h138c77.7,38.8,258.4,251.7,336.1,251.7
	l0,0C578.1,870.5,579.5,870.5,579.5,870.5z M500.4,545.1c0-159.3,33.5-289.2,73.7-289.2s83,129.9,83,289.2s-41.6,289.2-81.6,289.2
	S500.4,704.5,500.4,545.1z"/>
<g enable-background="new    ">
	<path fill="#579BD3" d="M344.8,527.8l102.4,52.6c5.4,2.9,10,6.1,10,11.8c-0.2,6.3-6.9,12-15.2,12c-4.3,0-8.3-1.5-11.7-3.4
		l-118.4-61.1c-6.3-3.1-10.9-5.7-10.6-12c0-6.5,4.3-8.9,10.6-12l118.2-60.9c3.5-1.7,7.4-3.8,12.4-3.8c8,0,15,6.1,15,12.2
		c-0.2,5.5-3.7,8.5-9.5,11.4L344.8,527.8z"/>
</g>
<g>
	<path fill="#579BD3" d="M316.8,636.3c-9.8,0-18-3.2-18-10.8c0-7.6,8.2-10.8,18-10.8h139.4c9.8,0,18,3.2,18,10.8
		c0,7.6-8.2,10.8-18,10.8H316.8z"/>
</g>
</svg>
