<?xml version="1.0" encoding="utf-8"?>
<!-- Generator: Adobe Illustrator 18.0.0, SVG Export Plug-In . SVG Version: 6.00 Build 0)  -->
<!DOCTYPE svg PUBLIC "-//W3C//DTD SVG 1.1//EN" "http://www.w3.org/Graphics/SVG/1.1/DTD/svg11.dtd">
<svg version="1.1" id="Layer_1" xmlns="http://www.w3.org/2000/svg" xmlns:xlink="http://www.w3.org/1999/xlink" x="0px" y="0px"
	 viewBox="65.3 214.3 612 658.8" enable-background="new 65.3 214.3 612 658.8" xml:space="preserve">
<path fill="#333333" d="M579.5,870.5c44.2,0,97.8-147.3,97.8-328s-53.6-328.1-97.8-328.1c-1.4,0-1.4,0-2.7,0l0,0
	c-77.7,0-258.4,212.9-336.1,251.7H104.1c-21.5,0-38.8,34.9-38.8,77.7s17.4,77.7,38.8,77.7h138c77.7,38.8,258.4,251.7,336.1,251.7
	l0,0C578.1,870.5,579.5,870.5,579.5,870.5z M500.4,545.1c0-159.3,33.5-289.2,73.7-289.2s83,129.9,83,289.2s-41.6,289.2-81.6,289.2
	S500.4,704.5,500.4,545.1z"/>
<g enable-background="new    ">
	<path fill="#579BD3" d="M417.1,609.2c5.8,3.5,9.2,6.9,9.6,13.8c0,7.6-6.9,14.8-15,14.8c-5,0-8.9-2.5-12.4-4.6l-118.6-73.6
		c-6.3-3.7-10.7-6.7-10.7-14.5c-0.2-7.6,4.3-10.8,10.7-14.5l118.9-73.8c3.5-2.1,7.4-4.1,11.8-4.1c8.3,0,15,6.9,15.3,14.5
		c0,6.9-4.6,10.8-10,14.3l-102.7,63.6L417.1,609.2z"/>
</g>
</svg>
