<?xml version="1.0" encoding="UTF-8" standalone="no"?>
<svg width="532px" height="494px" viewBox="0 0 532 494" version="1.1" xmlns="http://www.w3.org/2000/svg" xmlns:xlink="http://www.w3.org/1999/xlink" xmlns:sketch="http://www.bohemiancoding.com/sketch/ns">
    <!-- Generator: Sketch 3.3.2 (12043) - http://www.bohemiancoding.com/sketch -->
    <title>Slice 1</title>
    <desc>Created with Sketch.</desc>
    <defs></defs>
    <g id="Page-1" stroke="none" stroke-width="1" fill="none" fill-rule="evenodd" sketch:type="MSPage">
        <g id="equal" sketch:type="MSLayerGroup">
            <path d="M529.3,79.4 C529.3,43.8 410.6,0.6 264.9,0.6 C119.2,0.6 0.4,43.8 0.4,79.4 L0.4,81.6 L0.4,81.6 C0.4,144.2 172,289.9 203.3,352.5 L203.3,462.6 C203.3,479.9 231.4,493.9 265.9,493.9 C300.4,493.9 328.5,479.9 328.5,462.6 L328.5,351.4 C359.8,288.8 531.4,143.1 531.4,80.5 L531.4,80.5 C529.3,80.5 529.3,79.4 529.3,79.4 L529.3,79.4 Z M267,143.1 C138.6,143.1 33.9,116.1 33.9,83.7 C33.9,51.3 138.6,16.8 267,16.8 C395.4,16.8 500.1,50.3 500.1,82.6 C500.1,114.9 395.5,143.1 267,143.1 L267,143.1 Z" id="Shape" fill="#333333" sketch:type="MSShapeGroup"></path>
            <path d="M247.6,235.4 C241.1,235.4 235.7,232.2 235.7,224.6 C235.7,217 241.1,213.8 247.6,213.8 L339.3,213.8 C345.8,213.8 351.2,217 351.2,224.6 C351.2,232.2 345.8,235.4 339.3,235.4 L247.6,235.4 L247.6,235.4 Z M247.6,280.7 C241.1,280.7 235.7,277.5 235.7,269.9 C235.7,262.3 241.1,259.1 247.6,259.1 L339.3,259.1 C345.8,259.1 351.2,262.3 351.2,269.9 C351.2,277.5 345.8,280.7 339.3,280.7 L247.6,280.7 L247.6,280.7 Z" id="Shape" fill="#579BD3" sketch:type="MSShapeGroup"></path>
        </g>
        <g id="NOT" sketch:type="MSLayerGroup" transform="translate(193.000000, 193.000000)" fill="#579BD3">
            <path d="M21.6000004,68.5212121 C21.6000004,72.7701299 18.4000004,76.3 10.8000004,76.3 C3.20000038,76.3 3.81469702e-07,72.7701299 3.81469703e-07,68.5212121 L3.81469706e-07,8.57878788 C3.81469706e-07,4.32987013 3.20000038,0.8 10.8000004,0.8 C18.4000004,0.8 21.6000004,4.32987013 21.6000004,8.57878788 L21.6000004,68.5212121 L21.6000004,68.5212121 Z" id="Path-Copy" sketch:type="MSShapeGroup"></path>
            <circle id="Oval-1" sketch:type="MSShapeGroup" cx="10.8000002" cy="96.8000002" r="10.8000002"></circle>
        </g>
    </g>
</svg>