<?xml version="1.0" encoding="UTF-8" standalone="no"?>
<svg width="532px" height="494px" viewBox="0 0 532 494" version="1.1" xmlns="http://www.w3.org/2000/svg" xmlns:xlink="http://www.w3.org/1999/xlink" xmlns:sketch="http://www.bohemiancoding.com/sketch/ns">
    <!-- Generator: Sketch 3.3.2 (12043) - http://www.bohemiancoding.com/sketch -->
    <title>null</title>
    <desc>Created with Sketch.</desc>
    <defs></defs>
    <g id="Page-1" stroke="none" stroke-width="1" fill="none" fill-rule="evenodd" sketch:type="MSPage">
        <g id="Shape" sketch:type="MSLayerGroup" fill="#333333">
            <path d="M529.3,79.4 C529.3,43.8 410.6,0.6 264.9,0.6 C119.2,0.6 0.4,43.8 0.4,79.4 L0.4,81.6 L0.4,81.6 C0.4,144.2 172,289.9 203.3,352.5 L203.3,462.6 C203.3,479.9 231.4,493.9 265.9,493.9 C300.4,493.9 328.5,479.9 328.5,462.6 L328.5,351.4 C359.8,288.8 531.4,143.1 531.4,80.5 L531.4,80.5 C529.3,80.5 529.3,79.4 529.3,79.4 L529.3,79.4 Z M267,143.1 C138.6,143.1 33.9,116.1 33.9,83.7 C33.9,51.3 138.6,16.8 267,16.8 C395.4,16.8 500.1,50.3 500.1,82.6 C500.1,114.9 395.5,143.1 267,143.1 L267,143.1 Z" sketch:type="MSShapeGroup"></path>
        </g>
        <path d="M347.21875,168.15625 L329.921875,185.59375 C337.234412,194.968797 342.320298,203.664022 345.179688,211.679688 C348.039077,219.695353 349.46875,229.093696 349.46875,239.875 C349.46875,260.406353 342.203198,278.68742 327.671875,294.71875 C311.265543,312.81259 290.781373,321.859375 266.21875,321.859375 C256.18745,321.859375 247.328163,320.453139 239.640625,317.640625 C231.953087,314.828111 223.046926,309.718787 212.921875,302.3125 L195.625,319.328125 L185.078125,309.0625 L202.515625,292.046875 C195.203088,281.921824 190.117202,272.898477 187.257812,264.976562 C184.398423,257.054648 182.96875,248.031301 182.96875,237.90625 C182.96875,215.499888 191.148356,196.117269 207.507812,179.757812 C223.867269,163.398356 243.249888,155.21875 265.65625,155.21875 C275.875051,155.21875 284.992147,156.67186 293.007812,159.578125 C301.023478,162.48439 309.906201,167.593713 319.65625,174.90625 L336.671875,157.75 L347.21875,168.15625 Z M309.390625,185.171875 C300.29683,179.359346 292.585969,175.328136 286.257812,173.078125 C279.929656,170.828114 273.062537,169.703125 265.65625,169.703125 C246.999907,169.703125 230.921943,176.476495 217.421875,190.023438 C203.921807,203.57038 197.171875,219.718656 197.171875,238.46875 C197.171875,246.53129 198.296864,253.726531 200.546875,260.054688 C202.796886,266.382844 206.828096,273.718708 212.640625,282.0625 L309.390625,185.171875 Z M319.9375,195.4375 L222.90625,292.328125 C237.062571,302.359425 251.546801,307.375 266.359375,307.375 C285.109469,307.375 301.234307,300.671942 314.734375,287.265625 C328.234443,273.859308 334.984375,257.875093 334.984375,239.3125 C334.984375,231.156209 333.882824,223.86722 331.679688,217.445312 C329.476551,211.023405 325.562528,203.687541 319.9375,195.4375 L319.9375,195.4375 Z" id="∅" fill="#579BD3" sketch:type="MSShapeGroup"></path>
    </g>
</svg>