<?xml version="1.0" ?><!DOCTYPE svg  PUBLIC '-//W3C//DTD SVG 1.1//EN'  'http://www.w3.org/Graphics/SVG/1.1/DTD/svg11.dtd'><svg height="43.3492mm" style="shape-rendering:geometricPrecision; text-rendering:geometricPrecision; image-rendering:optimizeQuality; fill-rule:evenodd; clip-rule:evenodd" version="1.1" viewBox="0 0 4335 4335" width="43.3492mm" xml:space="preserve" xmlns="http://www.w3.org/2000/svg" xmlns:xlink="http://www.w3.org/1999/xlink"><defs><style type="text/css">
   <![CDATA[
    .fil0 {fill:#2B2A29}
   ]]>
  </style></defs><g id="Layer_x0020_1"><path class="fil0" d="M2177 34c1168,0 2115,947 2115,2115 0,1011 -796,2160 -2061,1998 -176,-23 -239,-237 -239,-401l0 -507 -9 0c-380,0 -691,-311 -691,-691l0 -604c0,-95 78,-173 173,-173l86 0 0 -613c0,-90 74,-164 164,-164l0 0c90,0 164,74 164,164l0 613 639 0 0 -613c0,-90 74,-164 164,-164l0 0c90,0 164,74 164,164l0 613 86 0c95,0 173,78 173,173l0 604c0,380 -311,691 -691,691l-9 0c0,428 -61,622 449,458 110,-35 205,-87 275,-132 454,-307 753,-826 753,-1415 0,-943 -764,-1707 -1707,-1707 -943,0 -1707,764 -1707,1707 0,645 358,1207 886,1497l0 9c176,79 303,200 239,343 -55,124 -188,109 -239,98l0 3c-6,-3 -13,-6 -19,-8l-1 0 -2 -1c-53,-23 -104,-48 -155,-75l0 0 0 0c-665,-356 -1118,-1058 -1118,-1866 0,-1168 947,-2115 2115,-2115z"/></g></svg>