<?xml version="1.0" encoding="utf-8"?>
<!-- Generator: Adobe Illustrator 18.0.0, SVG Export Plug-In . SVG Version: 6.00 Build 0)  -->
<!DOCTYPE svg PUBLIC "-//W3C//DTD SVG 1.1//EN" "http://www.w3.org/Graphics/SVG/1.1/DTD/svg11.dtd">
<svg version="1.1" id="Layer_1" xmlns="http://www.w3.org/2000/svg" xmlns:xlink="http://www.w3.org/1999/xlink" x="0px" y="0px"
	 viewBox="0 0 509.4 226" enable-background="new 0 0 509.4 226" xml:space="preserve">
<g>
	<path fill="#333333" d="M96.6,226c38.8-38.3,76.6-75.6,114.4-112.9C172.8,75.3,135.1,38.1,96.4,0c0,22.3,0,43,0,64.3
		c-32.4,0-64.5,0-96.4,0c0,32.9,0,65.3,0,98c32.3,0,64.2,0,96.6,0C96.6,183.3,96.6,203.9,96.6,226z M509.4,64c-32.4,0-64.5,0-96.9,0
		c0-21.1,0-41.6,0-63.2C374.2,38.6,336.6,75.6,298.7,113c37.8,37.3,75.5,74.5,114.2,112.7c0-22.2,0-42.8,0-63.7
		c32.4,0,64.3,0,96.5,0C509.4,129.4,509.4,97.2,509.4,64z M236.8,224.8c12.2,0,23.9,0,35.6,0c0-74.6,0-148.9,0-223.3
		c-12,0-23.7,0-35.6,0C236.8,76.1,236.8,150.3,236.8,224.8z"/>
	<path fill="#333333" d="M96.6,226c0-22.1,0-42.7,0-63.6c-32.3,0-64.3,0-96.6,0c0-32.7,0-65.1,0-98c32,0,64,0,96.4,0
		c0-21.3,0-42.1,0-64.3c38.6,38.1,76.3,75.3,114.5,113C173.1,150.4,135.4,187.6,96.6,226z"/>
	<path fill="#333333" d="M509.4,64c0,33.1,0,65.4,0,98c-32.1,0-64.1,0-96.5,0c0,20.9,0,41.5,0,63.7
		c-38.7-38.2-76.4-75.4-114.2-112.7c37.9-37.4,75.5-74.5,113.7-112.2c0,21.6,0,42.2,0,63.2C444.9,64,477,64,509.4,64z"/>
	<path fill="#579BD3" d="M236.8,224.8c0-74.5,0-148.7,0-223.3c11.9,0,23.6,0,35.6,0c0,74.4,0,148.7,0,223.3
		C260.7,224.8,249,224.8,236.8,224.8z"/>
</g>
</svg>
