<?xml version="1.0" ?><!DOCTYPE svg  PUBLIC '-//W3C//DTD SVG 1.1//EN'  'http://www.w3.org/Graphics/SVG/1.1/DTD/svg11.dtd'><svg enable-background="new 0 0 100 100" id="Layer_1" version="1.1" viewBox="0 0 100 100" xml:space="preserve" xmlns="http://www.w3.org/2000/svg" xmlns:xlink="http://www.w3.org/1999/xlink"><path d="M36.414,33.573c-1.27-0.289-3.014,0.257-3.896,1.219c-0.882,0.962-0.566,1.975,0.704,2.263  c1.27,0.289,3.014-0.257,3.896-1.219C37.999,34.875,37.684,33.861,36.414,33.573z M35.175,30.342  c0.881-0.961,0.566-1.975-0.704-2.263c-1.27-0.288-3.014,0.257-3.896,1.219c-0.881,0.962-0.566,1.975,0.704,2.263  C32.549,31.85,34.294,31.304,35.175,30.342z M33.725,24.695c0.881-0.961,0.566-1.975-0.704-2.263  c-1.27-0.289-3.014,0.257-3.896,1.219c-0.881,0.962-0.566,1.975,0.704,2.263C31.099,26.202,32.843,25.656,33.725,24.695z   M65.703,43.252c-1.279,0.407-1.519,1.467-0.536,2.369c0.983,0.902,2.818,1.303,4.097,0.896c1.279-0.407,1.519-1.467,0.536-2.369  C68.816,43.246,66.982,42.845,65.703,43.252z M47.764,40.688l9.078-2.917l-4.421-14.03c-0.189-0.604-0.797-1.243-1.554-1.433  c-0.007-0.001-0.011-0.007-0.018-0.008l-19.905-4.416c-0.808-0.333-1.764-0.164-2.384,0.521L14.923,33.429  c-0.623,0.481-1.009,1.411-0.745,2.285c0.003,0.01,0,0.021,0.003,0.031l6.21,19.707c0.221,0.702,0.84,1.305,1.609,1.475  l18.041,4.003l3.577-16.182C44.061,42.732,45.74,41.107,47.764,40.688z M36.349,39.072L17.18,34.818l13.073-14.403l19.169,4.253  L36.349,39.072z M85.23,52.104c-0.002-0.002-0.002-0.004-0.004-0.006l-0.002-0.001c0,0-14.316-13.102-15.037-13.763  c-0.721-0.661-1.448-1.028-2.329-0.743L48.54,43.799c-0.84,0.114-1.616,0.809-1.798,1.636l-4.46,20.177  c-0.173,0.774,0.185,1.649,0.656,2.08l0.002,0.001c0,0,14.301,13.089,15.011,13.739c0.709,0.65,1.543,1.027,2.354,0.766  l19.672-6.323c0.631-0.203,1.283-0.909,1.429-1.571l4.461-20.174C86.007,53.494,85.774,52.627,85.23,52.104z M64.339,59.138  L50.231,46.226l18.039-5.798l14.106,12.911L64.339,59.138z M63.365,52.913c-1.279,0.407-1.519,1.467-0.536,2.369  c0.983,0.901,2.818,1.303,4.097,0.896c1.279-0.407,1.519-1.467,0.536-2.369C66.479,52.907,64.644,52.506,63.365,52.913z" fill="#656565"/></svg>