<?xml version="1.0" encoding="utf-8"?>
<!-- Generator: Adobe Illustrator 18.0.0, SVG Export Plug-In . SVG Version: 6.00 Build 0)  -->
<!DOCTYPE svg PUBLIC "-//W3C//DTD SVG 1.1//EN" "http://www.w3.org/Graphics/SVG/1.1/DTD/svg11.dtd">
<svg version="1.1" id="Layer_1" xmlns:sketch="http://www.bohemiancoding.com/sketch/ns"
	 xmlns="http://www.w3.org/2000/svg" xmlns:xlink="http://www.w3.org/1999/xlink" x="0px" y="0px" viewBox="0 185.6 612 439.9"
	 enable-background="new 0 185.6 612 439.9" xml:space="preserve">
<title></title>
<g id="Icons_new_Arranged_Names">
	<g id="_x35_0_Cloud_Arrow_Up">
		<path id="Rectangle_1_copy_5" d="M497.2,376.9c-3.8-42.1-42.1-76.5-86.1-76.5c-21,0-38.2,7.6-53.5,19.1
			c-17.2-55.5-66.9-95.6-128.1-95.6c-74.6,0-133.9,59.3-133.9,133.9c0,7.6,0,13.4,1.9,21c-34.4,7.6-59.3,38.2-59.3,74.6
			c0,42.1,34.4,76.5,76.5,76.5h114.8v38.2H114.8C51.6,568.1,0,516.5,0,453.4c0-42.1,23-80.3,57.4-99.4
			c1.9-93.7,78.4-168.3,172.1-168.3c61.2,0,116.7,32.5,147.3,82.2c9.6-3.8,22.9-5.7,34.4-5.7c53.5,0,99.5,34.4,116.7,80.3
			c47.8,13.4,84.1,57.4,84.1,110.9c0,63.1-51.6,114.8-114.8,114.8H382.5v-38.2h114.8c42.1,0,76.5-34.4,76.5-76.5
			S539.3,376.9,497.2,376.9L497.2,376.9z M306,357.8l95.6,114.8h-57.4v153h-76.5v-153h-57.4L306,357.8z"/>
	</g>
</g>
</svg>
