<?xml version="1.0" ?><svg height="58px" version="1.1" viewBox="0 0 45 58" width="45px" xmlns="http://www.w3.org/2000/svg" xmlns:sketch="http://www.bohemiancoding.com/sketch/ns" xmlns:xlink="http://www.w3.org/1999/xlink"><title/><desc/><defs/><g fill="none" fill-rule="evenodd" id="Page-1" stroke="none" stroke-width="1"><g id="25---JSON-File-(Outline)" transform="translate(1.000000, 1.000000)"><path d="M41.537,56 L1.463,56 C0.655,56 0,55.345 0,54.537 L0,39 L43,39 L43,54.537 C43,55.345 42.345,56 41.537,56 L41.537,56 Z M30.485,0 L1.463,0 C0.655,0 0,0.655 0,1.926 L0,55 C0,55.345 0.655,56 1.463,56 L41.537,56 C42.345,56 43,55.345 43,55 L43,12.978 C43,12.282 42.907,12.058 42.743,11.893 L31.107,0.257 C30.942,0.093 30.718,0 30.485,0 L30.485,0 Z M31,1.391 L31,12 L41.609,12 C42.067,12 42.296,11.446 41.972,11.123 L31.877,1.028 C31.553,0.704 31,0.934 31,1.391 L31,1.391 Z" id="Stroke-172" stroke="#000000" stroke-width="2"/><path d="M10.521,42.719 L10.521,50.566 C10.521,51.04 10.435,51.44 10.262,51.763 C10.089,52.086 9.856,52.346 9.565,52.542 C9.273,52.738 8.937,52.875 8.56,52.952 C8.182,53.029 7.792,53.068 7.391,53.068 C7.19,53.068 6.955,53.048 6.686,53.007 C6.418,52.966 6.14,52.902 5.852,52.815 C5.565,52.728 5.29,52.631 5.025,52.521 C4.761,52.412 4.538,52.289 4.356,52.152 L5.053,51.045 C5.144,51.108 5.273,51.175 5.442,51.243 C5.611,51.311 5.796,51.375 5.996,51.435 C6.196,51.494 6.406,51.546 6.625,51.592 C6.844,51.638 7.049,51.66 7.24,51.66 C7.724,51.66 8.108,51.566 8.396,51.38 C8.683,51.193 8.835,50.876 8.854,50.43 L8.854,42.719 L10.521,42.719" fill="#000000" id="Fill-173"/><path d="M18.684,50.238 C18.684,50.602 18.608,50.956 18.458,51.298 C18.308,51.64 18.096,51.94 17.822,52.2 C17.549,52.46 17.212,52.667 16.81,52.822 C16.409,52.978 15.954,53.055 15.443,53.055 C15.225,53.055 14.999,53.043 14.767,53.021 C14.534,52.998 14.3,52.959 14.062,52.904 C13.825,52.85 13.6,52.774 13.386,52.679 C13.172,52.583 12.987,52.467 12.832,52.33 L13.119,51.154 C13.247,51.228 13.408,51.298 13.604,51.366 C13.801,51.435 14.003,51.498 14.213,51.558 C14.423,51.617 14.632,51.665 14.842,51.701 C15.052,51.737 15.247,51.756 15.43,51.756 C15.985,51.756 16.412,51.626 16.708,51.366 C17.004,51.106 17.152,50.722 17.152,50.211 C17.152,49.901 17.048,49.637 16.838,49.418 C16.628,49.199 16.366,49.001 16.052,48.823 C15.737,48.645 15.398,48.468 15.033,48.29 C14.669,48.112 14.327,47.902 14.008,47.661 C13.688,47.42 13.425,47.135 13.215,46.807 C13.005,46.478 12.9,46.068 12.9,45.576 C12.9,45.13 12.982,44.733 13.146,44.387 C13.31,44.04 13.531,43.746 13.81,43.505 C14.088,43.264 14.411,43.079 14.78,42.951 C15.149,42.823 15.539,42.76 15.949,42.76 C16.368,42.76 16.792,42.799 17.221,42.876 C17.649,42.953 17.995,43.079 18.26,43.252 C18.205,43.37 18.142,43.5 18.068,43.642 C17.995,43.783 17.927,43.915 17.863,44.038 C17.8,44.161 17.745,44.264 17.699,44.346 C17.653,44.428 17.626,44.474 17.617,44.482 C17.562,44.455 17.501,44.419 17.433,44.373 C17.364,44.327 17.267,44.282 17.139,44.236 C17.011,44.19 16.843,44.159 16.633,44.141 C16.423,44.122 16.154,44.127 15.826,44.154 C15.644,44.173 15.471,44.225 15.307,44.311 C15.143,44.398 14.997,44.505 14.869,44.633 C14.741,44.761 14.642,44.904 14.568,45.064 C14.495,45.223 14.459,45.376 14.459,45.522 C14.459,45.886 14.563,46.18 14.773,46.403 C14.983,46.627 15.243,46.822 15.553,46.991 C15.862,47.16 16.2,47.324 16.565,47.483 C16.929,47.643 17.269,47.837 17.583,48.065 C17.898,48.292 18.159,48.577 18.369,48.919 C18.579,49.261 18.684,49.7 18.684,50.238" fill="#000000" id="Fill-174"/><path d="M28.582,47.914 C28.582,48.762 28.475,49.509 28.261,50.156 C28.047,50.804 27.75,51.341 27.372,51.77 C26.994,52.198 26.552,52.521 26.046,52.74 C25.54,52.959 24.986,53.068 24.385,53.068 C23.783,53.068 23.229,52.959 22.724,52.74 C22.218,52.521 21.775,52.198 21.398,51.77 C21.019,51.341 20.723,50.804 20.509,50.156 C20.295,49.509 20.187,48.762 20.187,47.914 C20.187,47.066 20.295,46.321 20.509,45.679 C20.723,45.036 21.019,44.501 21.398,44.072 C21.775,43.644 22.218,43.318 22.724,43.095 C23.229,42.871 23.783,42.76 24.385,42.76 C24.986,42.76 25.54,42.871 26.046,43.095 C26.552,43.318 26.994,43.644 27.372,44.072 C27.75,44.501 28.047,45.036 28.261,45.679 C28.475,46.321 28.582,47.066 28.582,47.914 L28.582,47.914 Z M24.344,51.728 C24.681,51.728 25.002,51.662 25.308,51.53 C25.613,51.398 25.887,51.182 26.128,50.881 C26.369,50.58 26.559,50.185 26.695,49.698 C26.832,49.211 26.905,48.616 26.914,47.914 C26.905,47.23 26.834,46.649 26.702,46.171 C26.57,45.692 26.388,45.298 26.155,44.988 C25.923,44.679 25.658,44.455 25.362,44.318 C25.066,44.182 24.754,44.113 24.426,44.113 C24.089,44.113 23.768,44.177 23.462,44.305 C23.156,44.433 22.883,44.648 22.642,44.954 C22.4,45.26 22.211,45.653 22.074,46.137 C21.937,46.62 21.864,47.212 21.856,47.914 C21.864,48.598 21.935,49.181 22.067,49.664 C22.199,50.147 22.382,50.541 22.614,50.847 C22.847,51.152 23.111,51.375 23.407,51.517 C23.703,51.658 24.016,51.728 24.344,51.728 L24.344,51.728 Z" fill="#000000" id="Fill-175"/><path d="M38.18,42.924 L38.18,53 L36.512,53 L32.56,46.055 L32.56,53 L30.893,53 L30.893,42.924 L32.56,42.924 L36.512,49.869 L36.512,42.924 L38.18,42.924" fill="#000000" id="Fill-176"/><path d="M12,15 L12,19" id="Stroke-177" stroke="#000000" stroke-width="2"/><path d="M12,15 C12,13.895 12.894,13 14,13 M12,19 C12,20.658 10.658,22 9,22" id="Stroke-178" stroke="#000000" stroke-linecap="round" stroke-width="2"/><path d="M12,29 L12,25" id="Stroke-179" stroke="#000000" stroke-width="2"/><path d="M12,29 C12,30.105 12.894,31 14,31 M12,25 C12,23.342 10.658,22 9,22" id="Stroke-180" stroke="#000000" stroke-linecap="round" stroke-width="2"/><path d="M22.5,18.5 C22.5,19.328 21.828,20 21,20 C20.172,20 19.5,19.328 19.5,18.5 C19.5,17.672 20.172,17 21,17 C21.828,17 22.5,17.672 22.5,18.5" fill="#000000" id="Fill-181"/><path d="M30,29 L30,25" id="Stroke-182" stroke="#000000" stroke-width="2"/><path d="M30,29 C30,30.105 29.106,31 28,31 M30,25 C30,23.342 31.342,22 33,22" id="Stroke-183" stroke="#000000" stroke-linecap="round" stroke-width="2"/><path d="M30,15 L30,19" id="Stroke-184" stroke="#000000" stroke-width="2"/><path d="M30,15 C30,13.895 29.106,13 28,13 M30,19 C30,20.658 31.342,22 33,22 M21,25 L21,28" id="Stroke-185" stroke="#000000" stroke-linecap="round" stroke-width="2"/></g></g></svg>