<?xml version="1.0" ?><svg height="58px" version="1.1" viewBox="0 0 45 58" width="45px" xmlns="http://www.w3.org/2000/svg" xmlns:sketch="http://www.bohemiancoding.com/sketch/ns" xmlns:xlink="http://www.w3.org/1999/xlink"><title/><desc/><defs/><g fill="none" fill-rule="evenodd" id="Page-1" stroke="none" stroke-width="1"><g id="13---TXT-File-(Outline)" transform="translate(1.000000, 1.000000)"><path d="M41.537,56 L1.463,56 C0.655,56 0,55.345 0,54.537 L0,39 L43,39 L43,54.537 C43,55.345 42.345,56 41.537,56 L41.537,56 Z M30.485,0 L1.463,0 C0.655,0 0,0.655 0,1.926 L0,55 C0,55.345 0.655,56 1.463,56 L41.537,56 C42.345,56 43,55.345 43,55 L43,12.978 C43,12.282 42.907,12.058 42.743,11.893 L31.107,0.257 C30.942,0.093 30.718,0 30.485,0 L30.485,0 Z M31,1.391 L31,12 L41.609,12 C42.067,12 42.296,11.446 41.972,11.123 L31.877,1.028 C31.554,0.704 31,0.933 31,1.391 L31,1.391 Z" id="Stroke-276" stroke="#000000" stroke-width="2"/><path d="M15.367,42.924 L15.367,44.045 L12.359,44.045 L12.359,53 L10.705,53 L10.705,44.045 L7.697,44.045 L7.697,42.924 L15.367,42.924" fill="#000000" id="Fill-277"/><path d="M21.943,48.106 L24.5,53 L22.6,53 L21,49.199 L20.863,49.199 L19.141,53 L17.24,53 L19.797,48.106 L17.076,42.924 L18.949,42.924 L20.727,47.025 L20.863,47.025 L22.791,42.924 L24.664,42.924 L21.943,48.106" fill="#000000" id="Fill-278"/><path d="M34.029,42.924 L34.029,44.045 L31.021,44.045 L31.021,53 L29.367,53 L29.367,44.045 L26.359,44.045 L26.359,42.924 L34.029,42.924" fill="#000000" id="Fill-279"/><path d="M6,12 L12,12" id="Path" stroke="#000000" stroke-linecap="round" stroke-width="2"/><path d="M6,17 L15,17" id="Path" stroke="#000000" stroke-linecap="round" stroke-width="2"/><path d="M23,17 L31,17" id="Path" stroke="#000000" stroke-linecap="round" stroke-width="2"/><path d="M10,32 L18,32" id="Path" stroke="#000000" stroke-linecap="round" stroke-width="2"/><path d="M35,17 L37,17" id="Path" stroke="#000000" stroke-linecap="round" stroke-width="2"/><path d="M6,22 L28,22" id="Path" stroke="#000000" stroke-linecap="round" stroke-width="2"/><path d="M31,22 L37,22" id="Path" stroke="#000000" stroke-linecap="round" stroke-width="2"/><path d="M6,27 L10,27" id="Path" stroke="#000000" stroke-linecap="round" stroke-width="2"/><path d="M14,27 L24,27" id="Path" stroke="#000000" stroke-linecap="round" stroke-width="2"/><path d="M28,27 L37,27" id="Path" stroke="#000000" stroke-linecap="round" stroke-width="2"/><path d="M20,17 C20,17.552 19.552,18 19,18 C18.448,18 18,17.552 18,17 C18,16.448 18.448,16 19,16 C19.552,16 20,16.448 20,17" fill="#000000" id="Fill-362"/><path d="M7,32 C7,32.552 6.552,33 6,33 C5.448,33 5,32.552 5,32 C5,31.448 5.448,31 6,31 C6.552,31 7,31.448 7,32" fill="#000000" id="Fill-363"/></g></g></svg>