<?xml version="1.0" ?><!DOCTYPE svg  PUBLIC '-//W3C//DTD SVG 1.1//EN'  'http://www.w3.org/Graphics/SVG/1.1/DTD/svg11.dtd'><svg enable-background="new 0 0 24 24" height="24px" id="Layer_1" version="1.1" viewBox="0 0 24 24" width="24px" xml:space="preserve" xmlns="http://www.w3.org/2000/svg" xmlns:xlink="http://www.w3.org/1999/xlink"><g><path d="M18.603,18.4c-0.119,0-0.236-0.043-0.332-0.127c-0.207-0.184-0.227-0.5-0.043-0.705c2.451-2.76,3.641-6.202,3.262-9.451   C21.172,5.39,19.795,3.042,17.613,1.5c-0.226-0.159-0.278-0.472-0.119-0.697s0.474-0.277,0.696-0.117   c2.416,1.707,3.939,4.308,4.291,7.317c0.41,3.531-0.865,7.263-3.506,10.23C18.877,18.342,18.739,18.4,18.603,18.4z"/><path d="M9.543,23.408c-0.153,0-0.305-0.07-0.401-0.203c-0.164-0.225-0.117-0.535,0.104-0.699c2.815-2.078,4.479-3.617,7.12-6.594   c1.979-2.229,2.943-4.963,2.646-7.508c-0.234-2.019-1.242-3.746-2.834-4.868C12.87,1.207,8.28,2.152,5.013,5.83   c-0.186,0.207-0.5,0.224-0.707,0.042c-0.205-0.186-0.227-0.5-0.041-0.706c3.614-4.071,8.752-5.078,12.488-2.448   c1.829,1.289,2.982,3.269,3.253,5.571c0.327,2.828-0.729,5.848-2.894,8.288c-2.694,3.035-4.395,4.607-7.274,6.732   C9.751,23.377,9.646,23.408,9.543,23.408z"/><path d="M10.492,19.498c-0.142,0-0.282-0.061-0.382-0.176c-0.178-0.211-0.152-0.525,0.058-0.705   c1.375-1.168,2.59-2.393,4.336-4.359c1.509-1.695,2.25-3.725,2.035-5.568c-0.031-0.272,0.165-0.521,0.438-0.555   C17.245,8.1,17.498,8.3,17.533,8.574c0.245,2.125-0.585,4.438-2.281,6.348c-1.778,2.006-3.022,3.256-4.437,4.457   C10.722,19.459,10.606,19.498,10.492,19.498z"/><path d="M1.944,11.984c-0.15,0-0.299-0.065-0.397-0.194c-0.168-0.222-0.125-0.534,0.095-0.701C3.269,9.847,4.358,8.811,6.127,6.82   c2.789-3.144,6.483-3.974,9.192-2.063c0.227,0.159,0.279,0.472,0.121,0.697c-0.159,0.226-0.471,0.278-0.696,0.121   C12.474,3.972,9.31,4.741,6.875,7.484c-1.817,2.045-2.942,3.112-4.627,4.397C2.157,11.951,2.052,11.984,1.944,11.984z"/><path d="M5.563,20.143c-0.155,0-0.312-0.07-0.407-0.209c-0.16-0.225-0.108-0.537,0.116-0.697c3.221-2.301,4.734-3.664,7.369-6.629   c1.021-1.15,1.555-2.508,1.424-3.629c-0.049-0.416-0.219-0.989-0.756-1.367c-1.365-0.963-3.281,0.07-4.574,1.525   c-2.321,2.614-3.658,3.817-6.502,5.846c-0.226,0.158-0.537,0.107-0.697-0.117c-0.16-0.223-0.107-0.537,0.117-0.697   c2.77-1.975,4.072-3.145,6.335-5.693c1.907-2.146,4.276-2.819,5.897-1.683c0.662,0.468,1.068,1.186,1.172,2.072   c0.164,1.398-0.461,3.047-1.668,4.407c-2.692,3.033-4.242,4.428-7.535,6.779C5.767,20.113,5.664,20.143,5.563,20.143z"/><path d="M3.672,17.971c-0.155,0-0.312-0.074-0.409-0.213c-0.158-0.225-0.104-0.537,0.121-0.697   c3.573-2.516,5.221-4.037,8.014-7.398c0.179-0.213,0.496-0.24,0.705-0.065c0.213,0.178,0.242,0.492,0.064,0.704   c-2.859,3.443-4.548,5.001-8.207,7.58C3.872,17.941,3.771,17.971,3.672,17.971z"/></g></svg>