<?xml version="1.0" encoding="utf-8"?>
<!-- Generator: Adobe Illustrator 18.0.0, SVG Export Plug-In . SVG Version: 6.00 Build 0)  -->
<!DOCTYPE svg PUBLIC "-//W3C//DTD SVG 1.1//EN" "http://www.w3.org/Graphics/SVG/1.1/DTD/svg11.dtd">
<svg version="1.1" id="Layer_1" xmlns="http://www.w3.org/2000/svg" xmlns:xlink="http://www.w3.org/1999/xlink" x="0px" y="0px"
	 viewBox="0 0 512 512" enable-background="new 0 0 512 512" xml:space="preserve">
<path d="M260,300.4c4.6-8.3,15.2-27.5,19.1-34.4c5.1-8.9,40.7-2.4,76-7.1c35-4.7,128.9-25.8,124.6-127.1
	C475.7,30.3,396,3.4,338.1,4.5c-58,0.9-102.4,33.5-132.7,72.4c-30.2,38.9,22.3,11.1,50.9-6.1c28.8-17.1,165.8-48.5,175.2,46.6
	c9.4,95.1-108.9,109.5-147.7,97c-30.9-10.1-68.9,18.8-89,53.2"/>
<path d="M302.9,453.4c37.5-69.2,13.3-156-55.3-195.6s-155.8-17.1-197,49.9L302.9,453.4z"/>
<rect x="7.3" y="401.6" transform="matrix(0.866 0.5 -0.5 0.866 231.3404 -19.9917)" width="291.3" height="40.3"/>
</svg>
