<?xml version="1.0" encoding="utf-8"?>
<!-- Generator: Adobe Illustrator 18.1.1, SVG Export Plug-In . SVG Version: 6.00 Build 0)  -->
<svg version="1.0" xmlns="http://www.w3.org/2000/svg" xmlns:xlink="http://www.w3.org/1999/xlink" x="0px" y="0px"
	 viewBox="0 0 566.9 566.9" enable-background="new 0 0 566.9 566.9" xml:space="preserve">
<g id="Layer_2" display="none">
	<rect x="0" y="0" display="inline" fill="#00AEEF" stroke="#000000" stroke-miterlimit="10" width="566.9" height="566.9"/>
</g>
<g id="Layer_1">
	<g>
		<path fill="none" stroke="#FFFFFF" stroke-width="6" stroke-miterlimit="10" d="M237.5,299.1h-34c-9.8,0-17.8-8-17.8-17.8v-27.9
			c0-9.8,8-17.8,17.8-17.8h34c9.8,0,17.8,8,17.8,17.8v27.9C255.3,291.1,247.3,299.1,237.5,299.1z"/>
		<path fill="none" stroke="#FFFFFF" stroke-width="6" stroke-miterlimit="10" d="M488.8,296.5h-34c-9.8,0-17.8-8-17.8-17.8v-27.9
			c0-9.8,8-17.8,17.8-17.8h34c9.8,0,17.8,8,17.8,17.8v27.9C506.6,288.6,498.6,296.5,488.8,296.5z"/>
		<path fill="none" stroke="#FFFFFF" stroke-width="6" stroke-miterlimit="10" d="M359.3,296.5h-34c-9.8,0-17.8-8-17.8-17.8v-27.9
			c0-9.8,8-17.8,17.8-17.8h34c9.8,0,17.8,8,17.8,17.8v27.9C377.1,288.6,369.1,296.5,359.3,296.5z"/>
		<line fill="none" stroke="#FFFFFF" stroke-width="6" stroke-miterlimit="10" x1="113" y1="271.4" x2="0.8" y2="488.7"/>
		<line fill="none" stroke="#FFFFFF" stroke-width="6" stroke-miterlimit="10" x1="180.3" y1="432" x2="0.8" y2="488.7"/>
		<line fill="none" stroke="#FFFFFF" stroke-width="6" stroke-miterlimit="10" x1="180.3" y1="432" x2="180.3" y2="460.3"/>
		<line fill="none" stroke="#FFFFFF" stroke-width="6" stroke-miterlimit="10" x1="529.9" y1="434.3" x2="561.5" y2="432"/>
		<line fill="none" stroke="#FFFFFF" stroke-width="6" stroke-miterlimit="10" x1="180.3" y1="460.3" x2="529.9" y2="434.3"/>
		<line fill="none" stroke="#FFFFFF" stroke-width="6" stroke-miterlimit="10" x1="113" y1="271.4" x2="100.7" y2="106.7"/>
		<line fill="none" stroke="#FFFFFF" stroke-width="6" stroke-miterlimit="10" x1="561.5" y1="432" x2="561.5" y2="49.9"/>
		<line fill="none" stroke="#FFFFFF" stroke-width="6" stroke-miterlimit="10" x1="561.5" y1="49.9" x2="100.7" y2="106.7"/>
	</g>
</g>
</svg>
