<?xml version="1.0" encoding="utf-8"?>
<!-- Generator: Adobe Illustrator 18.1.1, SVG Export Plug-In . SVG Version: 6.00 Build 0)  -->
<svg version="1.0" xmlns="http://www.w3.org/2000/svg" xmlns:xlink="http://www.w3.org/1999/xlink" x="0px" y="0px"
	 viewBox="0 0 566.9 566.9" enable-background="new 0 0 566.9 566.9" xml:space="preserve">
<g id="Layer_2" display="none">
	
		<rect x="0" y="0" display="inline" fill="#00AEEF" stroke="#FFFFFF" stroke-width="3" stroke-miterlimit="10" width="566.9" height="566.9"/>
</g>
<g id="Layer_1">
	<g>
		<path fill="none" stroke="#FFFFFF" stroke-width="5" stroke-miterlimit="10" d="M429,560.1H144.7c-20.1,0-36.3-16.3-36.3-36.3
			V283.4c0-20.1,16.3-36.3,36.3-36.3H429c20.1,0,36.3,16.3,36.3,36.3v240.4C465.3,543.9,449,560.1,429,560.1z"/>
		<path fill="none" stroke="#FFFFFF" stroke-width="5" stroke-miterlimit="10" d="M155.7,135.7C155.7,63.5,212.8,5,283.4,5
			s127.7,58.5,127.7,130.7"/>
		<line fill="none" stroke="#FFFFFF" stroke-width="5" stroke-miterlimit="10" x1="411.1" y1="135.7" x2="411.1" y2="247.1"/>
		<path fill="none" stroke="#FFFFFF" stroke-width="5" stroke-miterlimit="10" d="M194.5,135.7c0-50.2,39.8-90.9,88.9-90.9
			s88.9,40.7,88.9,90.9"/>
		<line fill="none" stroke="#FFFFFF" stroke-width="5" stroke-miterlimit="10" x1="372.3" y1="135.7" x2="372.3" y2="247.1"/>
		<line fill="none" stroke="#FFFFFF" stroke-width="5" stroke-miterlimit="10" x1="155.7" y1="135.7" x2="155.7" y2="247.6"/>
		<line fill="none" stroke="#FFFFFF" stroke-width="5" stroke-miterlimit="10" x1="194.5" y1="247.1" x2="194.5" y2="135.7"/>
		<path fill="none" stroke="#FFFFFF" stroke-width="5" stroke-miterlimit="10" d="M267.6,400.9c-7-4-11.7-11.6-11.7-20.3
			c0-12.9,10.5-23.4,23.4-23.4c12.9,0,23.4,10.5,23.4,23.4c0,8.7-4.7,16.2-11.7,20.3"/>
		<polyline fill="none" stroke="#FFFFFF" stroke-width="5" stroke-miterlimit="10" points="291,400.9 291,443.7 267.6,443.7 
			267.6,400.9 		"/>
	</g>
</g>
</svg>
