<?xml version="1.0" encoding="utf-8"?>
<!-- Generator: Adobe Illustrator 18.1.1, SVG Export Plug-In . SVG Version: 6.00 Build 0)  -->
<svg version="1.0" xmlns="http://www.w3.org/2000/svg" xmlns:xlink="http://www.w3.org/1999/xlink" x="0px" y="0px"
	 viewBox="0 0 566.9 566.9" enable-background="new 0 0 566.9 566.9" xml:space="preserve">
<g id="Layer_2" display="none">
	<rect x="0" y="0" display="inline" fill="#00AEEF" stroke="#000000" stroke-miterlimit="10" width="566.9" height="566.9"/>
</g>
<g id="Layer_1">
	<g>
		<path fill="none" stroke="#FFFFFF" stroke-width="6" stroke-miterlimit="10" d="M191.4,187H51.5c-15.8,0-28.6-12.8-28.6-28.6V33.6
			C22.9,17.8,35.7,5,51.5,5h139.8C207.2,5,220,17.8,220,33.6v124.7C220,174.1,207.2,187,191.4,187z"/>
		<path fill="none" stroke="#FFFFFF" stroke-width="6" stroke-miterlimit="10" d="M517.2,497.5H377.3c-15.8,0-28.6-12.8-28.6-28.6
			V344.1c0-15.8,12.8-28.6,28.6-28.6h139.8c15.8,0,28.6,12.8,28.6,28.6v124.7C545.8,484.7,533,497.5,517.2,497.5z"/>
		<path fill="none" stroke="#FFFFFF" stroke-width="6" stroke-miterlimit="10" d="M220,96h199.3c15.4,0,27.9,12.5,27.9,27.9v191.6"
			/>
		<path fill="none" stroke="#FFFFFF" stroke-width="6" stroke-miterlimit="10" d="M121.4,187v338.4c0,20.1,18.9,36.5,42.1,36.5
			h241.6c23.3,0,42.1-16.3,42.1-36.5v-27.9"/>
	</g>
</g>
</svg>
