<?xml version="1.0" encoding="utf-8"?>
<!-- Generator: Adobe Illustrator 18.1.1, SVG Export Plug-In . SVG Version: 6.00 Build 0)  -->
<svg version="1.0" xmlns="http://www.w3.org/2000/svg" xmlns:xlink="http://www.w3.org/1999/xlink" x="0px" y="0px"
	 viewBox="0 0 566.9 566.9" enable-background="new 0 0 566.9 566.9" xml:space="preserve">
<g id="Layer_2" display="none">
	<rect x="0" y="0" display="inline" fill="#00AEEF" stroke="#00AEEF" stroke-miterlimit="10" width="565.6" height="565.5"/>
</g>
<g id="Layer_1">
	<g>
		<path fill="none" stroke="#FFFFFF" stroke-width="5" stroke-miterlimit="10" d="M195.5,342.9l-168.2-0.2
			c-5.6,0-10.1-4.5-10.1-10.1l0.3-224.4c0-5.6,4.5-10.1,10.1-10.1l371.2,0.5c5.6,0,10.1,4.5,10.1,10.1l-0.1,69.2"/>
		<path fill="none" stroke="#FFFFFF" stroke-width="5" stroke-miterlimit="10" d="M408.6,274l-0.1,59.1c0,5.6-4.5,10.1-10.1,10.1
			l-202.9-0.3"/>
		<polyline fill="none" stroke="#FFFFFF" stroke-width="5" stroke-miterlimit="10" points="230.2,342.9 230.1,401.6 195.4,401.5 
			195.4,342.9 230.2,342.9 		"/>
		<path fill="none" stroke="#FFFFFF" stroke-width="5" stroke-miterlimit="10" d="M503.9,400.4l52.1-0.1c4,0,7.3,3.3,7.3,7.3l0.1,50
			c0,4-3.3,7.3-7.3,7.3l-545.8,1.4c-4,0-7.3-3.3-7.3-7.3L3,409c0-4,3.3-7.3,7.3-7.3l403.8-1"/>
		<polyline fill="none" stroke="#FFFFFF" stroke-width="5" stroke-miterlimit="10" points="365.5,255.5 365.4,316.1 60.3,315.7 
			60.6,125 365.7,125.5 365.6,181.6 		"/>
		<g>
			<path fill="none" stroke="#FFFFFF" stroke-width="5" stroke-miterlimit="10" d="M393.1,278.8c56.4-13.9,59.9-65.6,59.9-65.6
				l-39-35.1c0,0-75.9-6.9-97.4,36L393.1,278.8z"/>
			<path fill="none" stroke="#FFFFFF" stroke-width="5" stroke-miterlimit="10" d="M453,213.3c0,0,19.8-21,16.5-30.8
				c-3.3-9.8-38.1-12.7-55.5-4.3"/>
			<path fill="none" stroke="#FFFFFF" stroke-width="5" stroke-miterlimit="10" d="M469.5,182.4"/>
			<path fill="none" stroke="#FFFFFF" stroke-width="5" stroke-miterlimit="10" d="M316.7,214.2c0,0,62.6,14.8,76.4,64.6"/>
			<path fill="none" stroke="#FFFFFF" stroke-width="5" stroke-miterlimit="10" d="M494.4,356.7c14.2-52.6,41.6-160.4,33-181.8
				c-11.5-28.4-53.7,0-53.7,0l-13.1,0.7"/>
			<path fill="none" stroke="#FFFFFF" stroke-width="5" stroke-miterlimit="10" d="M490,374.2c0,0-5.4,19.5,1.8,22.4
				c93.5,35.9-45,37.7-92.9,20.5c-47.8-17.2,74.4-21.5,74.4-21.5s52.5-182.2,41-210.7c0,0,2.3-24.9-44.3,3.9l-4.2,7.5l-8.6,12.2"/>
			<path fill="none" stroke="#FFFFFF" stroke-width="5" stroke-miterlimit="10" d="M490.9,369.5"/>
		</g>
		<path fill="none" stroke="#FFFFFF" stroke-width="5" stroke-miterlimit="10" d="M501.2,170.9"/>
		<line fill="none" stroke="#FFFFFF" stroke-width="5" stroke-miterlimit="10" x1="494.4" y1="356.7" x2="489.6" y2="375.8"/>
	</g>
</g>
</svg>
