<?xml version="1.0" encoding="utf-8"?>
<!-- Generator: Adobe Illustrator 17.1.0, SVG Export Plug-In . SVG Version: 6.00 Build 0)  -->
<!DOCTYPE svg PUBLIC "-//W3C//DTD SVG 1.1//EN" "http://www.w3.org/Graphics/SVG/1.1/DTD/svg11.dtd">
<svg xmlns="http://www.w3.org/2000/svg" xmlns:xlink="http://www.w3.org/1999/xlink" version="1.1" id="Layer_1" x="0px" y="0px" viewBox="0 0 500 500" xml:space="preserve">
<g>
	<rect x="188" y="158" fill="#2DB6B8" width="122.9" height="187.7"/>
	<path fill="#2DB6B8" d="M188,159c0,0-0.3-37.1,41.9-46h41.7c0,0,36,8,39.3,46H188z"/>
	<path fill="#2DB6B8" d="M188,345.5c0,0-0.3,37.1,41.9,46h41.7c0,0,36-8,39.3-46H188z"/>
</g>
<g>
	<g>
		<circle fill="#B57F41" cx="195.2" cy="304.7" r="5.5"/>
		<g>
			<circle fill="#DDE6DD" cx="195.2" cy="304.7" r="3.5"/>
		</g>
	</g>
	<g>
		<circle fill="#B57F41" cx="211.5" cy="304.7" r="5.5"/>
		<g>
			<circle fill="#DDE6DD" cx="211.5" cy="304.7" r="3.5"/>
		</g>
	</g>
	<g>
		<circle fill="#B57F41" cx="227.2" cy="304.7" r="5.5"/>
		<g>
			<circle fill="#DDE6DD" cx="227.2" cy="304.7" r="3.5"/>
		</g>
	</g>
	<g>
		<circle fill="#B57F41" cx="242.3" cy="304.7" r="5.5"/>
		<g>
			<circle fill="#DDE6DD" cx="242.3" cy="304.7" r="3.5"/>
		</g>
	</g>
	<g>
		<circle fill="#B57F41" cx="257.4" cy="304.7" r="5.5"/>
		<g>
			<circle fill="#DDE6DD" cx="257.4" cy="304.7" r="3.5"/>
		</g>
	</g>
	<g>
		<circle fill="#B57F41" cx="273" cy="304.7" r="5.5"/>
		<g>
			<circle fill="#DDE6DD" cx="273" cy="304.7" r="3.5"/>
		</g>
	</g>
	<g>
		<circle fill="#B57F41" cx="288.9" cy="304.7" r="5.5"/>
		<g>
			<circle fill="#DDE6DD" cx="288.9" cy="304.7" r="3.5"/>
		</g>
	</g>
	<g>
		<circle fill="#B57F41" cx="304.1" cy="304.7" r="5.5"/>
		<g>
			<circle fill="#DDE6DD" cx="304.1" cy="304.7" r="3.5"/>
		</g>
	</g>
	<g>
		<circle fill="#B57F41" cx="211.3" cy="367" r="5.5"/>
		<g>
			<circle fill="#DDE6DD" cx="211.3" cy="367" r="3.5"/>
		</g>
	</g>
	<g>
		<circle fill="#B57F41" cx="227" cy="367" r="5.5"/>
		<g>
			<circle fill="#DDE6DD" cx="227" cy="367" r="3.5"/>
		</g>
	</g>
	<g>
		<circle fill="#B57F41" cx="242" cy="367" r="5.5"/>
		<g>
			<circle fill="#DDE6DD" cx="242" cy="367" r="3.5"/>
		</g>
	</g>
	<g>
		<circle fill="#B57F41" cx="257.7" cy="367" r="5.5"/>
		<g>
			<circle fill="#DDE6DD" cx="257.7" cy="367" r="3.5"/>
		</g>
	</g>
	<g>
		<circle fill="#B57F41" cx="273.4" cy="367" r="5.5"/>
		<g>
			<circle fill="#DDE6DD" cx="273.4" cy="367" r="3.5"/>
		</g>
	</g>
	<g>
		<circle fill="#B57F41" cx="289.3" cy="367" r="5.5"/>
		<g>
			<circle fill="#DDE6DD" cx="289.3" cy="367" r="3.5"/>
		</g>
	</g>
	<g>
		<circle fill="#B57F41" cx="227" cy="381.9" r="5.5"/>
		<g>
			<circle fill="#DDE6DD" cx="227" cy="381.9" r="3.5"/>
		</g>
	</g>
	<g>
		<circle fill="#B57F41" cx="242.6" cy="381.9" r="5.5"/>
		<g>
			<circle fill="#DDE6DD" cx="242.6" cy="381.9" r="3.5"/>
		</g>
	</g>
	<g>
		<circle fill="#B57F41" cx="257.7" cy="381.9" r="5.5"/>
		<g>
			<circle fill="#DDE6DD" cx="257.7" cy="381.9" r="3.5"/>
		</g>
	</g>
	<g>
		<circle fill="#B57F41" cx="273" cy="381.9" r="5.5"/>
		<g>
			<circle fill="#DDE6DD" cx="273" cy="381.9" r="3.5"/>
		</g>
	</g>
	<g>
		<circle fill="#B57F41" cx="195" cy="267.6" r="5.5"/>
		<g>
			<circle fill="#DDE6DD" cx="195" cy="267.6" r="3.5"/>
		</g>
	</g>
	<g>
		<circle fill="#B57F41" cx="195.2" cy="282.9" r="5.5"/>
		<g>
			<circle fill="#DDE6DD" cx="195.2" cy="282.9" r="3.5"/>
		</g>
	</g>
	<g>
		<circle fill="#B57F41" cx="211.3" cy="282.9" r="5.5"/>
		<g>
			<circle fill="#DDE6DD" cx="211.3" cy="282.9" r="3.5"/>
		</g>
	</g>
	<g>
		<circle fill="#B57F41" cx="226.2" cy="282.9" r="5.5"/>
		<g>
			<circle fill="#DDE6DD" cx="226.2" cy="282.9" r="3.5"/>
		</g>
	</g>
	<g>
		<circle fill="#B57F41" cx="303.8" cy="281.9" r="5.5"/>
		<g>
			<circle fill="#DDE6DD" cx="303.8" cy="281.9" r="3.5"/>
		</g>
	</g>
</g>
<g>
	<g>
		<circle fill="#B57F41" cx="195" cy="319.8" r="5.5"/>
		<g>
			<circle fill="#DDE6DD" cx="195" cy="319.8" r="3.5"/>
		</g>
	</g>
	<g>
		<circle fill="#B57F41" cx="211.3" cy="319.8" r="5.5"/>
		<g>
			<circle fill="#DDE6DD" cx="211.3" cy="319.8" r="3.5"/>
		</g>
	</g>
	<g>
		<circle fill="#B57F41" cx="227" cy="319.8" r="5.5"/>
		<g>
			<circle fill="#DDE6DD" cx="227" cy="319.8" r="3.5"/>
		</g>
	</g>
	<g>
		<circle fill="#B57F41" cx="242" cy="319.8" r="5.5"/>
		<g>
			<circle fill="#DDE6DD" cx="242" cy="319.8" r="3.5"/>
		</g>
	</g>
	<g>
		<circle fill="#B57F41" cx="257.2" cy="319.8" r="5.5"/>
		<g>
			<circle fill="#DDE6DD" cx="257.2" cy="319.8" r="3.5"/>
		</g>
	</g>
	<g>
		<circle fill="#B57F41" cx="272.8" cy="319.8" r="5.5"/>
		<g>
			<circle fill="#DDE6DD" cx="272.8" cy="319.8" r="3.5"/>
		</g>
	</g>
	<g>
		<circle fill="#B57F41" cx="288.7" cy="319.8" r="5.5"/>
		<g>
			<circle fill="#DDE6DD" cx="288.7" cy="319.8" r="3.5"/>
		</g>
	</g>
	<g>
		<circle fill="#B57F41" cx="303.8" cy="319.8" r="5.5"/>
		<g>
			<circle fill="#DDE6DD" cx="303.8" cy="319.8" r="3.5"/>
		</g>
	</g>
</g>
<g>
	<g>
		<circle fill="#B57F41" cx="195.6" cy="335" r="5.5"/>
		<g>
			<circle fill="#DDE6DD" cx="195.6" cy="335" r="3.5"/>
		</g>
	</g>
	<g>
		<circle fill="#B57F41" cx="211.8" cy="335" r="5.5"/>
		<g>
			<circle fill="#DDE6DD" cx="211.8" cy="335" r="3.5"/>
		</g>
	</g>
	<g>
		<circle fill="#B57F41" cx="227.6" cy="335" r="5.5"/>
		<g>
			<circle fill="#DDE6DD" cx="227.6" cy="335" r="3.5"/>
		</g>
	</g>
	<g>
		<circle fill="#B57F41" cx="242.6" cy="335" r="5.5"/>
		<g>
			<circle fill="#DDE6DD" cx="242.6" cy="335" r="3.5"/>
		</g>
	</g>
	<g>
		<circle fill="#B57F41" cx="257.7" cy="335" r="5.5"/>
		<g>
			<circle fill="#DDE6DD" cx="257.7" cy="335" r="3.5"/>
		</g>
	</g>
	<g>
		<circle fill="#B57F41" cx="273.4" cy="335" r="5.5"/>
		<g>
			<circle fill="#DDE6DD" cx="273.4" cy="335" r="3.5"/>
		</g>
	</g>
	<g>
		<circle fill="#B57F41" cx="289.3" cy="335" r="5.5"/>
		<g>
			<circle fill="#DDE6DD" cx="289.3" cy="335" r="3.5"/>
		</g>
	</g>
	<g>
		<circle fill="#B57F41" cx="304.4" cy="335" r="5.5"/>
		<g>
			<circle fill="#DDE6DD" cx="304.4" cy="335" r="3.5"/>
		</g>
	</g>
</g>
<g>
	<g>
		<circle fill="#B57F41" cx="195.6" cy="350.9" r="5.5"/>
		<g>
			<circle fill="#DDE6DD" cx="195.6" cy="350.9" r="3.5"/>
		</g>
	</g>
	<g>
		<circle fill="#B57F41" cx="211.8" cy="350.9" r="5.5"/>
		<g>
			<circle fill="#DDE6DD" cx="211.8" cy="350.9" r="3.5"/>
		</g>
	</g>
	<g>
		<circle fill="#B57F41" cx="227.6" cy="350.9" r="5.5"/>
		<g>
			<circle fill="#DDE6DD" cx="227.6" cy="350.9" r="3.5"/>
		</g>
	</g>
	<g>
		<circle fill="#B57F41" cx="242.6" cy="350.9" r="5.5"/>
		<g>
			<circle fill="#DDE6DD" cx="242.6" cy="350.9" r="3.5"/>
		</g>
	</g>
	<g>
		<circle fill="#B57F41" cx="257.7" cy="350.9" r="5.5"/>
		<g>
			<circle fill="#DDE6DD" cx="257.7" cy="350.9" r="3.5"/>
		</g>
	</g>
	<g>
		<circle fill="#B57F41" cx="273.4" cy="350.9" r="5.5"/>
		<g>
			<circle fill="#DDE6DD" cx="273.4" cy="350.9" r="3.5"/>
		</g>
	</g>
	<g>
		<circle fill="#B57F41" cx="289.3" cy="350.9" r="5.5"/>
		<g>
			<circle fill="#DDE6DD" cx="289.3" cy="350.9" r="3.5"/>
		</g>
	</g>
	<g>
		<circle fill="#B57F41" cx="304.4" cy="350.9" r="5.5"/>
		<g>
			<circle fill="#DDE6DD" cx="304.4" cy="350.9" r="3.5"/>
		</g>
	</g>
</g>
<rect x="194" y="235.9" fill="#DDE6DD" width="10.8" height="10.1"/>
<polygon fill="#DDE6DD" points="219.8,269.2 217.3,269 217.3,267 219.6,267 219.6,262.1 217.3,262.2 217.3,260.2 219.5,260.1   219.5,254.1 217.3,254.1 217.3,252.3 227.6,252.3 229.7,252.3 229.7,254.1 227.2,254.1 227.2,259.7 229.7,259.7 229.7,262.1   227.6,262.1 227.6,266.6 229.7,266.6 229.7,269.1 227.6,269.1 227.6,270.1 219.8,270.1 "/>
<rect x="220.7" y="252.3" fill="#725752" width="5.9" height="17.8"/>
<rect x="228.9" y="238.4" fill="#DDE6DD" width="3.9" height="3.6"/>
<rect x="228.9" y="244.9" fill="#DDE6DD" width="3.9" height="3.6"/>
<rect x="228.9" y="242" fill="#725752" width="3.9" height="3.6"/>
<rect x="238.9" y="231.8" fill="#1C1F27" width="24.3" height="24.9"/>
<rect x="242" y="256.7" fill="#DDE6DD" width="1.2" height="1.7"/>
<rect x="245.5" y="256.7" fill="#DDE6DD" width="1.2" height="1.7"/>
<rect x="248.8" y="256.7" fill="#DDE6DD" width="1.2" height="1.7"/>
<rect x="251.7" y="256.7" fill="#DDE6DD" width="1.2" height="1.7"/>
<rect x="255" y="256.7" fill="#DDE6DD" width="1.2" height="1.7"/>
<rect x="258.7" y="256.7" fill="#DDE6DD" width="1.2" height="1.7"/>
<rect x="242.2" y="230.2" fill="#DDE6DD" width="1.2" height="1.7"/>
<rect x="245.7" y="230.2" fill="#DDE6DD" width="1.2" height="1.7"/>
<rect x="249" y="230.2" fill="#DDE6DD" width="1.2" height="1.7"/>
<rect x="251.8" y="230.2" fill="#DDE6DD" width="1.2" height="1.7"/>
<rect x="255.2" y="230.2" fill="#DDE6DD" width="1.2" height="1.7"/>
<rect x="258.9" y="230.2" fill="#DDE6DD" width="1.2" height="1.7"/>
<rect x="263.3" y="235.4" fill="#DDE6DD" width="1.7" height="1.2"/>
<rect x="263.3" y="238.9" fill="#DDE6DD" width="1.7" height="1.2"/>
<rect x="263.3" y="242.2" fill="#DDE6DD" width="1.7" height="1.2"/>
<rect x="263.3" y="245" fill="#DDE6DD" width="1.7" height="1.2"/>
<rect x="263.3" y="248.4" fill="#DDE6DD" width="1.7" height="1.2"/>
<rect x="263.3" y="252.1" fill="#DDE6DD" width="1.7" height="1.2"/>
<rect x="237.3" y="235.4" fill="#DDE6DD" width="1.7" height="1.2"/>
<rect x="237.3" y="238.9" fill="#DDE6DD" width="1.7" height="1.2"/>
<rect x="237.3" y="242.2" fill="#DDE6DD" width="1.7" height="1.2"/>
<rect x="237.3" y="245" fill="#DDE6DD" width="1.7" height="1.2"/>
<rect x="237.3" y="248.4" fill="#DDE6DD" width="1.7" height="1.2"/>
<rect x="237.3" y="252.1" fill="#DDE6DD" width="1.7" height="1.2"/>
<rect x="284.5" y="257.9" fill="#DDE6DD" width="5.9" height="6.6"/>
<rect x="284.5" y="266.8" fill="#DDE6DD" width="5.9" height="6.6"/>
<rect x="296.3" y="257.9" fill="#DDE6DD" width="5.9" height="6.6"/>
<rect x="296.3" y="266.8" fill="#DDE6DD" width="5.9" height="6.6"/>
<rect x="290.4" y="257.9" fill="#FFFFFF" width="5.9" height="6.6"/>
<rect x="290.4" y="266.8" fill="#FFFFFF" width="5.9" height="6.6"/>
<rect x="211.9" y="125.7" fill="#164281" width="73.1" height="95.9"/>
<circle fill="#B57F41" cx="298.3" cy="147.5" r="5.2"/>
<circle fill="#DDE6DD" cx="298.3" cy="147.5" r="1.9"/>
<circle fill="#B57F41" cx="298.3" cy="162.9" r="5.2"/>
<circle fill="#DDE6DD" cx="298.3" cy="162.9" r="1.9"/>
<circle fill="#B57F41" cx="298.3" cy="178.8" r="5.2"/>
<circle fill="#DDE6DD" cx="298.3" cy="178.8" r="1.9"/>
<text transform="matrix(1 0 0 1 189.7326 296.9799)" fill="#010202" font-family="'Silom'" font-size="10">A0</text>
<text transform="matrix(1 0 0 1 303.8377 258.343)" fill="#010202" font-family="'Silom'" font-size="8">G</text>
<text transform="matrix(1 0 0 1 303.8377 265.343)" fill="#010202" font-family="'Silom'" font-size="8">N</text>
<text transform="matrix(1 0 0 1 303.8377 272.343)" fill="#010202" font-family="'Silom'" font-size="8">D</text>
<text transform="matrix(1 0 0 1 189.7326 258.343)" fill="#010202" font-family="'Silom'" font-size="8">BAT</text>
<text transform="matrix(0.7317 0.6816 -0.6816 0.7317 207.76 265.1986)" fill="#010202" font-family="'Silom'" font-size="8">G</text>
<text transform="matrix(0.7317 0.6816 -0.6816 0.7317 202.989 270.3204)" fill="#010202" font-family="'Silom'" font-size="8">N</text>
<text transform="matrix(0.7317 0.6816 -0.6816 0.7317 198.2175 275.4425)" fill="#010202" font-family="'Silom'" font-size="8">D</text>
<text transform="matrix(0.7317 0.6816 -0.6816 0.7317 213.0715 274.5006)" fill="#010202" font-family="'Silom'" font-size="8">R</text>
<text transform="matrix(0.9431 -0.3325 0.3325 0.9431 234.9594 285.3031)" fill="#010202" font-family="'Silom'" font-size="8">VCC</text>
<g>
	<rect x="194.4" y="220.6" fill="#DDE6DD" width="3.5" height="10.3"/>
	<rect x="199.9" y="220.6" fill="#DDE6DD" width="3.5" height="10.3"/>
	<rect x="205.2" y="220.6" fill="#DDE6DD" width="3.5" height="10.3"/>
	<rect x="194.4" y="223.9" fill="#EC6051" width="3.5" height="3.1"/>
	<rect x="199.9" y="223.9" fill="#7BBC5E" width="3.5" height="3.1"/>
	<rect x="205.2" y="223.9" fill="#58BBDE" width="3.5" height="3.1"/>
	<rect x="197.9" y="172.6" fill="#DDE6DD" width="9" height="21.4"/>
	<rect x="197.9" y="145.7" fill="#DDE6DD" width="5.5" height="15.8"/>
	<rect x="197.9" y="150.8" fill="#5C4B4A" width="5.5" height="5.5"/>
	<rect x="206.8" y="148.3" fill="#DDE6DD" width="3.7" height="10.7"/>
	<rect x="206.8" y="151.7" fill="#5C4B4A" width="3.7" height="3.7"/>
	<rect x="295.2" y="238.4" fill="#DDE6DD" width="3.7" height="10.7"/>
	<rect x="295.2" y="241.8" fill="#5C4B4A" width="3.7" height="3.7"/>
	<rect x="270.9" y="237.4" fill="#DDE6DD" width="3.1" height="8.9"/>
	<rect x="270.9" y="240.3" fill="#5C4B4A" width="3.1" height="3.1"/>
	<rect x="269.6" y="230.2" fill="#DDE6DD" width="8.9" height="3.1"/>
	<rect x="272.5" y="230.2" fill="#5C4B4A" width="3.1" height="3.1"/>
	<rect x="269.6" y="224.9" fill="#DDE6DD" width="8.9" height="3.1"/>
	<rect x="272.5" y="224.9" fill="#5C4B4A" width="3.1" height="3.1"/>
	<rect x="291.7" y="225.4" fill="#DDE6DD" width="8.9" height="3.1"/>
	<rect x="294.6" y="225.4" fill="#5C4B4A" width="3.1" height="3.1"/>
	<rect x="288.2" y="203.4" fill="#DDE6DD" width="8.9" height="3.1"/>
	<rect x="291.1" y="203.4" fill="#5C4B4A" width="3.1" height="3.1"/>
	<rect x="276" y="237.4" fill="#DDE6DD" width="3.1" height="8.9"/>
	<rect x="276" y="240.3" fill="#5C4B4A" width="3.1" height="3.1"/>
	<rect x="276" y="248.2" fill="#DDE6DD" width="3.1" height="8.9"/>
	<rect x="276" y="251.1" fill="#5C4B4A" width="3.1" height="3.1"/>
	<rect x="270.9" y="248.2" fill="#DDE6DD" width="3.1" height="8.9"/>
	<rect x="270.9" y="251.1" fill="#5C4B4A" width="3.1" height="3.1"/>
	<rect x="291.7" y="210.4" fill="#1C2127" width="12.7" height="12.5"/>
</g>
<rect x="282.2" y="242.7" fill="#1C2127" width="10.5" height="4.5"/>
<rect x="285.9" y="239.3" fill="#DDE6DD" width="2.3" height="3.5"/>
<rect x="283.5" y="247.4" fill="#DDE6DD" width="2.3" height="3.5"/>
<rect x="289.4" y="247.4" fill="#DDE6DD" width="2.3" height="3.5"/>
<rect x="255.5" y="127.9" fill="#DDE6DD" width="15.7" height="3.6"/>
<rect x="258.5" y="130.8" fill="#DDE6DD" width="7.8" height="5.3"/>
<rect x="267.2" y="132.5" fill="#DDE6DD" width="10.9" height="3.6"/>
<rect x="272.2" y="127.9" fill="#DDE6DD" width="6" height="5.6"/>
<rect x="257.7" y="139.6" fill="#243264" width="20.4" height="9.8"/>
<g>
	<g>
		<path fill="#EAECF1" d="M280.5,184.8c0,10.6,0,21.1,0,31.7c0,0.2,0,0.3-0.3,0.3c-21.1,0-42.2,0-63.3,0c-0.3,0-0.3-0.1-0.3-0.3    c0-21.1,0-42.2,0-63.4c0-0.2,0-0.3,0.3-0.3c21.1,0,42.2,0,63.3,0c0.2,0,0.3,0.1,0.3,0.3C280.5,163.6,280.5,174.2,280.5,184.8z     M256,199.2c0.1,0,0.2,0,0.3,0c1.1,0,1.9-0.5,2.4-1.6c0.7-1.6,0.9-3.2,0.7-4.9c0-0.3,0-0.6,0.1-0.8c0.3-0.4,0.5-0.9,0.8-1.3    c0.2-0.4,0.2-0.9,0-1.3c-0.4-0.8-0.9-1.5-1.3-2.3c-0.8-1.4-2.8-2-4.1-1.8c-0.6,0.1-1.1,0.1-1.7-0.1c-0.8-0.2-1.5-0.6-2.2-0.9    c-0.7-0.3-1.5-0.5-2.2-0.2c-0.9,0.3-1.7,0.2-2.5-0.2c-0.8-0.3-1.6-0.6-2.4-0.4c-1.1,0.2-2,0.7-2.5,1.8c-0.2,0.6-0.8,0.9-1.5,1    s-1.4,0.2-2,0.5c-1,0.4-1.4,1.1-1.3,2.1c0.1,0.7,0.1,1.3,0.2,2c0.4,2.6,1.1,5.2,1.8,7.7c0.2,0.8,0.6,1.6,1.3,2.2    c0.5,0.4,0.8,0.9,1,1.4c0.5,1.2,1.2,2.4,2,3.4c0.5,0.6,1.1,0.8,1.9,0.6c2.4-0.6,4.6-1.7,6.8-2.8c1-0.5,1.3-1.3,1.2-2.4    c0-0.2,0-0.3,0.2-0.4c0.5-0.3,1.1-0.5,1.6-0.9C254.9,199.3,255.4,199,256,199.2z M259.9,210.8c0,0.4,0,0.8,0,1.2    c0,0.1,0,0.2,0.2,0.2c0.5,0,0.9,0,1.4-0.1c0.6-0.2,0.9-0.8,0.9-1.6c0-0.6-0.4-1.1-1.1-1.2c-0.4-0.1-0.7,0-1.1,0    c-0.2,0-0.2,0.1-0.2,0.2C259.9,210,259.9,210.4,259.9,210.8z M227.2,210.7c0.3-0.2,0.5-0.5,0.4-0.8c-0.1-0.4-0.4-0.5-0.8-0.5    c-0.2,0-0.4,0-0.6,0c-0.2,0-0.3,0.1-0.3,0.3c0,0.6,0,1.2,0,1.8c0,0.9,0.1,1,1,0.8h0.1c0.5-0.1,0.7-0.3,0.8-0.7    C227.8,211.2,227.7,210.9,227.2,210.7z M269.1,212c0.1,0.6-0.2,0.9-0.7,0.9c-0.1,0-0.3,0-0.4-0.1s-0.2-0.1-0.2,0.1    c0,0.1,0,0.2,0.1,0.2c0.9,0.4,1.6-0.1,1.6-1c0-0.5,0-1.1,0-1.6c0-0.1,0.1-0.2-0.1-0.3c-0.2,0-0.3,0-0.3,0.2c-0.5-0.4-1-0.4-1.3,0    s-0.4,1.1-0.1,1.5C268.1,212.3,268.5,212.3,269.1,212z M255.5,212c0.1,0.6-0.2,0.9-0.8,0.9c-0.1,0-0.2,0-0.4-0.1    c-0.1,0-0.2-0.1-0.2,0.1c0,0.1,0,0.2,0.1,0.2c0.9,0.4,1.6-0.1,1.6-1c0-0.5,0-1.1,0-1.6c0-0.1,0.1-0.2-0.1-0.3    c-0.2,0-0.3,0-0.3,0.2c-0.5-0.4-1-0.4-1.3,0c-0.4,0.4-0.4,1.1-0.1,1.5C254.5,212.3,254.9,212.3,255.5,212z M240.6,210.4    c0-0.4,0-0.7,0-1c0-0.1,0-0.2-0.2-0.2s-0.2,0-0.2,0.2c0,0.9,0,1.8,0,2.6c0,0.2,0,0.2,0.2,0.2s0.2-0.1,0.2-0.2c0-0.3,0-0.6,0-0.9    c0-0.4,0.2-0.7,0.6-0.7c0.3,0,0.5,0.2,0.5,0.7c0,0.3,0,0.6,0,1c0,0.1,0.1,0.2,0.2,0.2c0.1,0,0.2,0,0.2-0.1c0-0.4,0-0.9,0-1.3    c-0.1-0.7-0.7-0.9-1.2-0.5C240.8,210.3,240.7,210.4,240.6,210.4z M245.9,210.4c0-0.4,0-0.7,0-1.1c0-0.1,0-0.2-0.2-0.2    c-0.1,0-0.2,0-0.2,0.2c0,0.9,0,1.8,0,2.7c0,0.2,0.1,0.2,0.2,0.2c0.1,0,0.2,0,0.2-0.2c0-0.3,0-0.6,0-1s0.2-0.7,0.6-0.7    c0.3,0,0.5,0.2,0.5,0.7c0,0.3,0,0.7,0,1c0,0.2,0.1,0.2,0.2,0.2c0.1,0,0.2,0,0.2-0.2c0-0.4,0-0.8,0-1.2c0-0.3-0.1-0.6-0.4-0.7    c-0.3-0.1-0.6-0.1-0.8,0.1C246.1,210.3,246,210.4,245.9,210.4z M256.9,210.4c0-0.3,0-0.7,0-1c0-0.2-0.1-0.2-0.2-0.2    s-0.2,0-0.2,0.2c0,0.9,0,1.8,0,2.7c0,0.1,0.1,0.2,0.2,0.2s0.2,0,0.2-0.2c0-0.3,0-0.7,0-1c0-0.4,0.2-0.6,0.6-0.6    c0.3,0,0.5,0.2,0.5,0.6c0,0.3,0,0.7,0,1c0,0.2,0.1,0.1,0.2,0.1s0.2,0,0.2-0.2c0-0.4,0-0.8,0-1.2c0-0.3-0.1-0.5-0.4-0.7    c-0.3-0.1-0.6-0.1-0.8,0.1C257.1,210.3,257,210.4,256.9,210.4z M231.9,209.3c-0.1,0-0.2,0-0.4,0c-0.1,0-0.2,0.1-0.2,0.2    c0,0.8,0,1.7,0,2.5c0,0.2,0.1,0.2,0.2,0.2c0.1,0,0.2,0,0.2-0.2s0-0.5,0-0.7s0-0.3,0.3-0.3c0.2,0,0.4,0,0.6-0.1    c0.4-0.2,0.6-0.5,0.5-0.9c0-0.4-0.3-0.6-0.7-0.7C232.2,209.3,232.1,209.3,231.9,209.3z M249.2,211.2c0,0.7,0.4,1.1,1,1.1    s1-0.4,1-1.1c0-0.7-0.4-1.1-1-1.1C249.6,210.1,249.2,210.5,249.2,211.2z M230,210.2c-0.3-0.1-0.4,0-0.5,0.3    c-0.1,0.4-0.3,0.8-0.4,1.3c-0.2-0.5-0.3-0.9-0.5-1.3c-0.1-0.3-0.2-0.4-0.5-0.3c0.2,0.6,0.4,1.1,0.7,1.7c0.1,0.3,0.1,0.5-0.2,0.8    c-0.1,0.1-0.2,0.2-0.3,0.2c-0.2,0.1-0.1,0.2-0.1,0.3s0.1,0.1,0.2,0c0.3-0.1,0.5-0.4,0.7-0.7C229.4,211.7,229.7,210.9,230,210.2z     M263,211.3c0.4,0,0.8,0,1.2,0c0.1,0,0.2,0,0.2-0.1c0-0.4-0.2-0.8-0.5-1c-0.4-0.2-0.9,0-1.1,0.4c-0.3,0.4-0.3,1,0,1.4    c0.2,0.4,0.7,0.5,1.3,0.3c0.1,0,0.2,0,0.2-0.2s-0.2-0.1-0.3-0.1C263.4,212.1,263,211.9,263,211.3z M270.5,210.4L270.5,210.4    c0-0.3-0.2-0.3-0.3-0.2c-0.2,0-0.1,0.1-0.1,0.2c0,0.6,0,1.1,0,1.7c0,0.1,0,0.2,0.2,0.2s0.2,0,0.2-0.2c0-0.3,0-0.6,0-1    s0.2-0.7,0.6-0.6c0.3,0,0.5,0.2,0.5,0.6c0,0.3,0,0.7,0,1c0,0.2,0.1,0.2,0.2,0.2s0.2,0,0.2-0.2c0-0.4,0-0.8,0-1.2    c0-0.5-0.5-0.8-1-0.7C270.8,210.2,270.6,210.3,270.5,210.4z M236.2,210.5c0-0.2-0.1-0.3-0.2-0.3c-0.2,0-0.1,0.2-0.1,0.3    c0,0.5,0,1.1,0,1.6c0,0.1,0,0.2,0.2,0.2s0.2-0.1,0.2-0.2c0-0.3,0-0.6,0-0.9c0-0.4,0.2-0.7,0.6-0.7c0.3,0,0.5,0.2,0.5,0.6    c0,0.3,0,0.7,0,1c0,0.2,0.1,0.2,0.2,0.2c0.1,0,0.2,0,0.2-0.1c0-0.4,0-0.9,0-1.3c0-0.5-0.4-0.8-0.9-0.7    C236.6,210.1,236.4,210.3,236.2,210.5z M234.9,211.9c0,0.2,0,0.3,0.2,0.3s0.1-0.2,0.1-0.3c0-0.5,0-1.1,0-1.6c0-0.1,0-0.2-0.2-0.2    s-0.2,0.1-0.2,0.2c0,0.3,0,0.6,0,0.9c0,0.1,0,0.2,0,0.3c-0.1,0.2-0.3,0.4-0.5,0.4c-0.3,0-0.4-0.2-0.4-0.4c-0.1-0.4,0-0.8,0-1.2    c0-0.2-0.1-0.2-0.2-0.2c-0.1,0-0.2,0-0.2,0.2c0,0.4,0,0.8,0,1.2c0,0.3,0.1,0.6,0.4,0.7c0.3,0.1,0.6,0.1,0.8-0.2    C234.8,212.1,234.8,212,234.9,211.9z M253.1,212c0.1,0.1,0.1,0.1,0.1,0.2c0,0.1,0.2,0.1,0.2,0.1c0.1,0,0.1,0,0.1-0.1    c0-0.6,0-1.2,0-1.8c0-0.2-0.1-0.2-0.2-0.2c-0.1,0-0.2,0-0.2,0.2c0,0.4,0,0.7,0,1.1c0,0.3-0.2,0.5-0.5,0.5s-0.4-0.1-0.5-0.5    c0-0.1,0-0.2,0-0.3c0-0.3,0-0.6,0-0.9c0-0.1-0.1-0.2-0.2-0.2c-0.1,0-0.2,0-0.2,0.1c0,0.4,0,0.9,0,1.3c0,0.5,0.4,0.8,0.8,0.7    C252.8,212.3,252.9,212.1,253.1,212z M244,210.9c0,0.3,0,0.6,0,1c0,0.1-0.1,0.3,0.2,0.3s0.2-0.2,0.2-0.3c0-0.5,0-1.1,0-1.6    c0-0.7,0-0.7,0.7-0.7c0,0,0,0,0.1,0s0.2,0,0.2-0.2s-0.1-0.2-0.2-0.2c-0.6,0-1.2,0-1.8,0c-0.1,0-0.2,0-0.2,0.2    c0,0.1,0.1,0.2,0.2,0.2c0.2,0,0.3,0,0.5,0s0.2,0,0.2,0.2C244,210.2,244,210.6,244,210.9z M238.2,211.2c0,0.8,0.7,1.3,1.4,1    c0.1,0,0.2,0,0.2-0.2s-0.2-0.1-0.2-0.1c-0.4,0.1-0.8-0.1-0.9-0.4c-0.1-0.3-0.1-0.6,0.1-0.9c0.2-0.3,0.5-0.3,0.8-0.2    c0.1,0,0.2,0.1,0.2-0.1c0.1-0.2-0.1-0.2-0.2-0.2C238.8,209.9,238.2,210.4,238.2,211.2z M265.4,212.3c0.4,0,0.7-0.2,0.8-0.5    c0.1-0.3-0.1-0.6-0.5-0.7c-0.1,0-0.2-0.1-0.3-0.2c-0.1-0.1-0.2-0.2-0.1-0.3c0-0.1,0.1-0.2,0.3-0.2c0.1,0,0.3,0,0.4,0.1    c0.1,0,0.1,0,0.1-0.1s0.1-0.1,0-0.2c-0.3-0.1-0.5-0.1-0.8,0c-0.2,0.1-0.3,0.3-0.3,0.5c0,0.3,0.2,0.4,0.4,0.6    c0.1,0.1,0.2,0.1,0.3,0.2c0.1,0.1,0.2,0.2,0.1,0.3c0,0.1-0.1,0.2-0.3,0.2c-0.2,0-0.3,0-0.5-0.1c-0.1-0.1-0.1,0-0.2,0.1    c0,0.1,0,0.2,0.1,0.2C265.1,212.3,265.3,212.3,265.4,212.3z M248.3,210.5c0-0.1,0-0.1,0-0.2c0-0.2-0.1-0.1-0.2-0.1    c-0.1,0-0.1,0.1-0.1,0.2c0,0.6,0,1.1,0,1.7c0,0.1,0,0.2,0.2,0.2c0.1,0,0.2,0,0.2-0.2c0-0.3,0-0.6,0-0.9c0-0.4,0.2-0.6,0.5-0.7    c0.2,0,0.2-0.2,0.2-0.3c0-0.2-0.2-0.1-0.2-0.1C248.6,210.2,248.5,210.3,248.3,210.5z M267,211.2c0-0.3,0-0.6,0-0.8    c0-0.1,0-0.2-0.2-0.2s-0.2,0.1-0.2,0.2c0,0.6,0,1.1,0,1.7c0,0.2,0,0.2,0.2,0.2s0.2-0.1,0.2-0.2C267,211.8,267,211.5,267,211.2z     M266.8,209.3c-0.1,0-0.2,0.1-0.2,0.3c0,0.1,0.1,0.2,0.2,0.2s0.2-0.1,0.2-0.2C267.1,209.4,267,209.3,266.8,209.3z"/>
		<path fill="#2173A0" d="M256,199.2c-0.6-0.1-1.1,0.2-1.5,0.5c-0.5,0.4-1,0.6-1.6,0.9c-0.2,0.1-0.2,0.2-0.2,0.4    c0.2,1.1-0.2,1.9-1.2,2.4c-2.2,1.1-4.4,2.2-6.8,2.8c-0.7,0.2-1.4,0.1-1.9-0.6c-0.8-1-1.5-2.2-2-3.4c-0.2-0.6-0.5-1-1-1.4    c-0.7-0.6-1.1-1.4-1.3-2.2c-0.7-2.5-1.4-5.1-1.8-7.7c-0.1-0.7-0.2-1.3-0.2-2c-0.1-1.1,0.3-1.7,1.3-2.1c0.7-0.3,1.3-0.4,2-0.5    s1.2-0.3,1.5-1c0.4-1.1,1.3-1.6,2.5-1.8c0.9-0.2,1.7,0.1,2.4,0.4c0.8,0.3,1.6,0.5,2.5,0.2c0.8-0.2,1.5-0.1,2.2,0.2    s1.4,0.6,2.2,0.9c0.6,0.2,1.1,0.2,1.7,0.1c1.3-0.2,3.3,0.3,4.1,1.8c0.4,0.8,0.9,1.5,1.3,2.3c0.2,0.4,0.2,0.8,0,1.3    s-0.5,0.9-0.8,1.3c-0.2,0.3-0.2,0.6-0.1,0.8c0.3,1.7,0,3.3-0.7,4.9c-0.5,1.1-1.3,1.6-2.4,1.6C256.2,199.2,256.1,199.2,256,199.2z     M242.1,191.9c0.5,0.3,0.8,0.7,1,1.2c0.7,1.9,1.5,3.9,2.3,5.8c0.4,1,1.4,1.6,2.5,1.4c0.4-0.1,0.7-0.2,1.1-0.3    c0.4-0.1,0.5-0.3,0.5-0.8c0-0.4-0.1-0.8-0.2-1.2c-0.7-2.5-1.3-5.1-1.9-7.7c0-0.1-0.1-0.2,0-0.2s0.1,0.1,0.2,0.1    c0.3,0.6,0.6,1.2,0.8,1.9c0.3,1,0.6,2.1,0.8,3.1c0.3,1.2,0.7,2.4,1.2,3.6c0.2,0.6,0.6,0.8,1.1,0.8s1.1-0.1,1.6-0.3    c0.8-0.2,1.2-0.8,1.2-1.6c-0.1-0.9-0.2-1.8-0.3-2.7c-0.1-1.1-0.3-2.2-0.4-3.3c0-0.1-0.1-0.2,0.1-0.2c0.2,0,0.1,0.1,0.2,0.2    c0.2,0.9,0.4,1.8,0.5,2.7c0.1,1,0.3,1.9,0.4,2.9c0.1,0.6,0.4,0.9,1,0.9c0.8,0.1,1.7-0.3,2.1-1.1c0.1-0.3,0.2-0.5,0.3-0.8    c0.3-0.9,0.3-1.9,0.4-2.8c0-0.3,0-0.6-0.2-0.9c-0.2-0.4-0.4-0.8-0.6-1.2c-0.1-0.1-0.1-0.3-0.1-0.5c0.2,0.2,0.4,0.5,0.6,0.7    c0.1,0.1,0.1,0.2,0.2,0.2s0.1-0.2,0.1-0.3c0-0.5-0.1-0.9,0-1.4c0.1,0.2,0.2,0.4,0.3,0.5c0.2-0.2,0.2-0.5,0.3-0.7    c0,0.1,0.1,0.2,0.1,0.3s0,0.1,0.1,0.1s0.1-0.1,0-0.1c-0.1-0.4-0.1-0.8-0.3-1.1c-0.3-0.5-0.6-1-0.9-1.6s-0.8-0.9-1.4-1.1    c-0.4-0.1-0.9-0.3-1.3-0.4c-0.1,0-0.2,0-0.3,0c-0.7,0.2-1.5,0.4-1.9,1.2c-0.1-0.1-0.1-0.2-0.1-0.3c-0.1-0.5-0.3-0.9-0.7-1.1    c-0.7-0.3-1.4-0.6-2.1-0.9c-1.2-0.5-2.4,0.1-2.8,1.4c-0.1,0.3-0.1,0.6-0.2,0.9c-0.3-0.9-0.2-1.8-1.1-2.4c-0.8-0.5-1.6-0.8-2.5-0.6    c-0.8,0.1-1.4,0.6-1.7,1.3s-0.5,1.4-0.4,2.2c-0.4-0.3-0.7-0.5-1.1-0.6c-1-0.2-1.9,0-2.8,0.4c-0.4,0.2-0.5,0.5-0.5,0.9    c0,0.5,0,1.1,0.1,1.6c0.5,2.8,1,5.6,2,8.2c0.2,0.6,0.3,1.2,0.7,1.6c0.9,1,2.1,1.3,3.4,0.9c1-0.3,1.4-0.9,1.1-1.9    c0-0.2-0.1-0.3-0.1-0.5c-0.5-1.3-1-2.6-1.5-3.9C242.7,193.8,242.4,192.9,242.1,191.9z M248.2,202.8c-0.3-0.1-0.4-0.3-0.4-0.5    c-0.1-0.3-0.1-0.5,0-0.8c0-0.2,0-0.3-0.2-0.3c-0.6-0.1-1.1-0.2-1.7-0.2c-1.2,0-2.3,0.4-3.3,0.7c-0.5,0.2-0.6,0.6-0.4,1.1    c0.3,0.8,0.8,1.5,1.2,2.3c0.2,0.4,0.6,0.5,1,0.5s0.7-0.2,1.1-0.3c1.3-0.4,2.6-0.9,3.8-1.6c-0.1-0.1-0.3-0.1-0.4-0.2    c0.7-0.2,1.4-0.5,2.1-0.7c0.2-0.1,0.4-0.1,0.4-0.3c0.2-0.4,0.2-0.9-0.1-1.3c-0.3-0.4-0.7-0.5-1.2-0.4s-1,0.2-1.5,0.3    c-0.4,0.1-0.6,0.3-0.5,0.7C248.1,202.1,248.1,202.5,248.2,202.8z"/>
		<path fill="#171818" d="M259.9,210.8c0-0.4,0-0.8,0-1.2c0-0.2,0-0.2,0.2-0.2c0.4,0,0.7-0.1,1.1,0c0.6,0.1,1,0.5,1.1,1.2    s-0.3,1.3-0.9,1.6c-0.4,0.2-0.9,0.1-1.4,0.1c-0.1,0-0.2-0.1-0.2-0.2C259.9,211.6,259.9,211.2,259.9,210.8z M260.3,210.8    c0,0.2,0,0.5,0,0.7c0,0.5,0,0.5,0.5,0.5c0.7,0,1-0.4,1.1-1.1c0.1-0.6-0.2-1.1-0.8-1.2c-0.2,0-0.4,0-0.6,0s-0.2,0-0.2,0.2    C260.3,210.1,260.3,210.5,260.3,210.8z"/>
		<path fill="#171818" d="M227.2,210.7c0.5,0.3,0.6,0.5,0.5,0.9s-0.3,0.6-0.8,0.7h-0.1c-0.9,0.1-1,0.1-1-0.8c0-0.6,0-1.2,0-1.8    c0-0.2,0.1-0.3,0.3-0.3s0.4,0,0.6,0c0.3,0,0.7,0.1,0.8,0.5C227.7,210.2,227.6,210.5,227.2,210.7z M226.3,211.4    c0,0.1-0.1,0.4,0.1,0.5c0.2,0.1,0.4,0.1,0.6,0c0.3-0.1,0.4-0.3,0.3-0.6c-0.1-0.3-0.4-0.5-0.9-0.4c-0.3,0-0.1,0.3-0.1,0.4    C226.3,211.3,226.3,211.3,226.3,211.4z M226.3,210.1c0,0.5,0,0.5,0.3,0.5c0.4,0,0.7-0.2,0.7-0.5s-0.2-0.4-0.6-0.5    C226.2,209.6,226.3,209.9,226.3,210.1z"/>
		<path fill="#171818" d="M269.1,212c-0.6,0.3-1,0.3-1.3-0.1c-0.3-0.4-0.3-1.1,0.1-1.5c0.3-0.4,0.8-0.4,1.3,0c0-0.2,0.1-0.2,0.3-0.2    c0.2,0,0.1,0.2,0.1,0.3c0,0.5,0,1.1,0,1.6c0,0.9-0.8,1.4-1.6,1c-0.1-0.1-0.1-0.1-0.1-0.2c0-0.1,0.1-0.1,0.2-0.1    c0.1,0.1,0.2,0.1,0.4,0.1C268.9,212.9,269.2,212.6,269.1,212z M269.1,211.2c0-0.6-0.3-0.9-0.7-0.7c-0.3,0.1-0.5,0.4-0.5,0.8    c0,0.4,0.2,0.6,0.5,0.7C268.9,212,269.1,211.7,269.1,211.2z"/>
		<path fill="#171818" d="M255.5,212c-0.6,0.3-1,0.3-1.3-0.1c-0.3-0.4-0.3-1.2,0.1-1.5c0.3-0.3,0.8-0.4,1.3,0c0-0.2,0.1-0.2,0.3-0.2    s0.1,0.2,0.1,0.3c0,0.5,0,1.1,0,1.6c0,0.9-0.8,1.4-1.6,1c-0.1-0.1-0.2-0.1-0.1-0.2c0-0.1,0.1-0.1,0.2-0.1c0.1,0,0.2,0.1,0.4,0.1    C255.3,212.9,255.6,212.6,255.5,212z M255.6,211.2c0-0.5-0.3-0.8-0.7-0.7c-0.3,0.1-0.5,0.4-0.5,0.8c0,0.4,0.2,0.7,0.6,0.7    C255.3,212,255.6,211.7,255.6,211.2z"/>
		<path fill="#080A0B" d="M240.6,210.4c0.1-0.1,0.1-0.1,0.2-0.2c0.5-0.4,1.2-0.1,1.2,0.5c0,0.4,0,0.8,0,1.3c0,0.2-0.1,0.1-0.2,0.1    c-0.1,0-0.2,0-0.2-0.2c0-0.3,0-0.6,0-1c0-0.5-0.2-0.7-0.5-0.7s-0.6,0.3-0.6,0.7c0,0.3,0,0.6,0,0.9c0,0.1,0,0.2-0.2,0.2    s-0.2-0.1-0.2-0.2c0-0.9,0-1.8,0-2.6c0-0.2,0-0.2,0.2-0.2s0.2,0.1,0.2,0.2C240.6,209.7,240.6,210.1,240.6,210.4z"/>
		<path fill="#080A0B" d="M245.9,210.4c0.1-0.1,0.1-0.1,0.2-0.2c0.3-0.2,0.5-0.2,0.8-0.1c0.3,0.1,0.4,0.4,0.4,0.7c0,0.4,0,0.8,0,1.2    c0,0.1,0,0.2-0.2,0.2c-0.1,0-0.2,0-0.2-0.2c0-0.3,0-0.7,0-1c0-0.4-0.2-0.7-0.5-0.7s-0.6,0.3-0.6,0.7c0,0.3,0,0.6,0,1    c0,0.1,0,0.2-0.2,0.2c-0.1,0-0.2,0-0.2-0.2c0-0.9,0-1.8,0-2.7c0-0.2,0.1-0.2,0.2-0.2c0.2,0,0.2,0.1,0.2,0.2    C245.9,209.7,245.9,210,245.9,210.4z"/>
		<path fill="#080A0B" d="M256.9,210.4c0.1,0,0.1-0.1,0.2-0.1c0.3-0.2,0.5-0.3,0.8-0.1c0.3,0.1,0.4,0.4,0.4,0.7c0,0.4,0,0.8,0,1.2    c0,0.2-0.1,0.2-0.2,0.2s-0.2,0-0.2-0.1c0-0.3,0-0.7,0-1c0-0.4-0.2-0.6-0.5-0.6s-0.6,0.3-0.6,0.6s0,0.7,0,1c0,0.2-0.1,0.2-0.2,0.2    s-0.2,0-0.2-0.2c0-0.9,0-1.8,0-2.7c0-0.2,0.1-0.1,0.2-0.2c0.1,0,0.2,0,0.2,0.2C256.9,209.7,256.9,210,256.9,210.4z"/>
		<path fill="#080A0B" d="M231.9,209.3c0.2,0,0.4,0,0.6,0c0.4,0.1,0.6,0.3,0.7,0.7c0,0.4-0.1,0.7-0.5,0.9c-0.2,0.1-0.4,0.1-0.6,0.1    c-0.3,0-0.3,0.1-0.3,0.3s0,0.5,0,0.7c0,0.1,0,0.2-0.2,0.2c-0.1,0-0.2,0-0.2-0.2c0-0.8,0-1.7,0-2.5c0-0.1,0.1-0.2,0.2-0.2    C231.6,209.3,231.8,209.3,231.9,209.3z M232,209.6c-0.2,0-0.3,0-0.3,0.3c0,0.2,0,0.4,0,0.6c0,0.1,0,0.2,0.1,0.2    c0.3,0,0.6,0,0.8-0.2s0.2-0.4,0.1-0.6C232.5,209.7,232.3,209.6,232,209.6z"/>
		<path fill="#171818" d="M249.2,211.2c0-0.7,0.4-1.1,1-1.1s1,0.4,1,1.1c0,0.7-0.4,1.1-1,1.1C249.6,212.3,249.2,211.9,249.2,211.2z     M250.8,211.2c0-0.5-0.3-0.8-0.6-0.8c-0.4,0-0.6,0.3-0.6,0.8s0.3,0.8,0.6,0.8C250.6,212,250.8,211.7,250.8,211.2z"/>
		<path fill="#171818" d="M230,210.2c-0.3,0.7-0.5,1.5-0.9,2.2c-0.1,0.3-0.4,0.6-0.7,0.7c-0.1,0-0.2,0.1-0.2,0s-0.1-0.2,0.1-0.3    c0.1,0,0.2-0.1,0.3-0.2c0.2-0.2,0.3-0.4,0.2-0.8c-0.3-0.5-0.5-1.1-0.7-1.7c0.3-0.1,0.5,0,0.5,0.3c0.1,0.4,0.3,0.8,0.5,1.3    c0.2-0.5,0.3-0.9,0.4-1.3C229.5,210.2,229.7,210.1,230,210.2z"/>
		<path fill="#171818" d="M263,211.3c0,0.6,0.4,0.9,1,0.7c0.1,0,0.2-0.1,0.3,0.1c0,0.2-0.1,0.2-0.2,0.2c-0.6,0.1-1,0-1.3-0.3    c-0.3-0.4-0.3-1,0-1.4c0.2-0.4,0.7-0.5,1.1-0.4c0.3,0.1,0.6,0.6,0.5,1c0,0.2-0.1,0.1-0.2,0.1C263.8,211.3,263.4,211.3,263,211.3z     M263.6,211c0.1,0,0.1,0,0.2,0s0.3,0.1,0.3-0.1c0-0.2-0.1-0.4-0.2-0.5c-0.2-0.1-0.5-0.1-0.7,0.1c-0.1,0.1-0.2,0.2-0.1,0.4    c0,0.1,0.2,0,0.3,0C263.4,211,263.5,211,263.6,211z"/>
		<path fill="#080A0B" d="M270.5,210.4c0.1-0.1,0.3-0.2,0.5-0.3c0.5-0.1,0.9,0.2,1,0.7c0,0.4,0,0.8,0,1.2c0,0.2-0.1,0.1-0.2,0.2    c-0.1,0-0.2,0-0.2-0.2c0-0.3,0-0.7,0-1c0-0.4-0.2-0.6-0.5-0.6s-0.6,0.3-0.6,0.6s0,0.6,0,1c0,0.2-0.1,0.2-0.2,0.2    c-0.2,0-0.2-0.1-0.2-0.2c0-0.6,0-1.1,0-1.7c0-0.1-0.1-0.2,0.1-0.2C270.3,210.2,270.5,210.2,270.5,210.4L270.5,210.4z"/>
		<path fill="#080A0B" d="M236.2,210.5c0.2-0.2,0.4-0.3,0.6-0.3c0.5-0.1,0.8,0.2,0.9,0.7c0,0.4,0,0.9,0,1.3c0,0.2-0.1,0.1-0.2,0.1    c-0.1,0-0.2,0-0.2-0.2c0-0.3,0-0.7,0-1c0-0.4-0.2-0.6-0.5-0.6s-0.6,0.3-0.6,0.7c0,0.3,0,0.6,0,0.9c0,0.1,0,0.2-0.2,0.2    s-0.2-0.1-0.2-0.2c0-0.5,0-1.1,0-1.6c0-0.1-0.1-0.2,0.1-0.3C236.2,210.1,236.2,210.2,236.2,210.5z"/>
		<path fill="#080A0B" d="M234.9,211.9c-0.1,0.1-0.1,0.1-0.2,0.1c-0.3,0.2-0.5,0.3-0.8,0.2s-0.4-0.4-0.4-0.7c0-0.4,0-0.8,0-1.2    c0-0.2,0.1-0.2,0.2-0.2c0.1,0,0.2,0,0.2,0.2c0,0.4,0,0.8,0,1.2c0,0.2,0.2,0.4,0.4,0.4c0.3,0,0.4-0.1,0.5-0.4c0-0.1,0-0.2,0-0.3    c0-0.3,0-0.6,0-0.9c0-0.1,0-0.2,0.2-0.2s0.2,0.1,0.2,0.2c0,0.5,0,1.1,0,1.6c0,0.1,0.1,0.2-0.1,0.3    C235,212.3,234.9,212.2,234.9,211.9z"/>
		<path fill="#080A0B" d="M253.1,212c-0.1,0.2-0.3,0.3-0.5,0.3c-0.5,0.1-0.8-0.2-0.8-0.7c0-0.4,0-0.9,0-1.3c0-0.2,0.1-0.1,0.2-0.1    c0.1,0,0.2,0,0.2,0.2c0,0.3,0,0.6,0,0.9c0,0.1,0,0.2,0,0.3c0.1,0.3,0.2,0.5,0.5,0.5s0.5-0.2,0.5-0.5c0-0.4,0-0.7,0-1.1    c0-0.1,0-0.2,0.2-0.2c0.1,0,0.2,0,0.2,0.2c0,0.6,0,1.2,0,1.8c0,0.1,0,0.1-0.1,0.1s-0.2,0.1-0.2-0.1    C253.1,212.1,253.2,212,253.1,212z"/>
		<path fill="#080A0B" d="M244,210.9c0-0.4,0-0.7,0-1.1c0-0.2-0.1-0.2-0.2-0.2c-0.2,0-0.3,0-0.5,0c-0.1,0-0.2,0-0.2-0.2    c0-0.1,0.1-0.2,0.2-0.2c0.6,0,1.2,0,1.8,0c0.1,0,0.2,0,0.2,0.2c0,0.1-0.1,0.2-0.2,0.2c0,0,0,0-0.1,0c-0.7,0-0.7,0-0.7,0.7    c0,0.5,0,1.1,0,1.6c0,0.1,0.1,0.3-0.2,0.3s-0.2-0.2-0.2-0.3C244,211.6,244,211.3,244,210.9z"/>
		<path fill="#171818" d="M238.2,211.2c0-0.8,0.7-1.3,1.4-1.1c0.1,0,0.2,0,0.2,0.2c-0.1,0.2-0.1,0.1-0.2,0.1c-0.3-0.1-0.6,0-0.8,0.2    c-0.2,0.3-0.2,0.6-0.1,0.9c0.1,0.4,0.5,0.5,0.9,0.4c0.1,0,0.2-0.1,0.2,0.1c0,0.2-0.1,0.2-0.2,0.2    C238.8,212.5,238.2,212,238.2,211.2z"/>
		<path fill="#171818" d="M265.4,212.3c-0.1,0-0.3,0-0.4-0.1c-0.1,0-0.1-0.1-0.1-0.2c0-0.1,0.1-0.1,0.2-0.1c0.1,0.1,0.3,0.1,0.5,0.1    c0.1,0,0.2-0.1,0.3-0.2c0-0.1,0-0.2-0.1-0.3s-0.2-0.1-0.3-0.2c-0.2-0.1-0.4-0.3-0.4-0.6c0-0.2,0.1-0.4,0.3-0.5    c0.3-0.1,0.5-0.1,0.8,0c0.1,0,0,0.1,0,0.2c0,0.1-0.1,0.1-0.1,0.1c-0.1-0.1-0.3-0.1-0.4-0.1s-0.2,0.1-0.3,0.2c0,0.1,0,0.2,0.1,0.3    s0.2,0.1,0.3,0.2c0.4,0.2,0.5,0.4,0.5,0.7C266.1,212.1,265.8,212.3,265.4,212.3z"/>
		<path fill="#080A0B" d="M248.3,210.5c0.2-0.2,0.3-0.3,0.4-0.4c0.1,0,0.2-0.1,0.2,0.1c0,0.1,0.1,0.2-0.2,0.3    c-0.3,0-0.5,0.3-0.5,0.7c0,0.3,0,0.6,0,0.9c0,0.2-0.1,0.2-0.2,0.2c-0.2,0-0.2-0.1-0.2-0.2c0-0.6,0-1.1,0-1.7c0-0.1,0-0.2,0.1-0.2    s0.2,0,0.2,0.1C248.3,210.3,248.3,210.4,248.3,210.5z"/>
		<path fill="#080A0B" d="M267,211.2c0,0.3,0,0.5,0,0.8c0,0.1,0,0.2-0.2,0.2s-0.2-0.1-0.2-0.2c0-0.6,0-1.1,0-1.7    c0-0.2,0-0.2,0.2-0.2s0.2,0.1,0.2,0.2C267,210.7,267,211,267,211.2z"/>
		<path fill="#171818" d="M266.8,209.3c0.1,0,0.2,0.1,0.2,0.2c0,0.2-0.1,0.2-0.2,0.2s-0.2-0.1-0.2-0.2    C266.6,209.4,266.7,209.3,266.8,209.3z"/>
		<path fill="#EAECF1" d="M242.1,191.9c0.3,1,0.6,1.8,0.9,2.7c0.5,1.3,1.1,2.6,1.5,3.9c0.1,0.2,0.1,0.3,0.1,0.5    c0.3,0.9,0,1.6-1.1,1.9c-1.3,0.4-2.4,0.1-3.4-0.9c-0.4-0.4-0.5-1.1-0.7-1.6c-1-2.6-1.5-5.4-2-8.2c-0.1-0.5-0.2-1.1-0.1-1.6    c0-0.4,0.1-0.7,0.5-0.9c0.9-0.5,1.8-0.7,2.8-0.4c0.4,0.1,0.7,0.3,1.1,0.6c-0.2-0.8,0-1.5,0.4-2.2s0.9-1.2,1.7-1.3    c0.9-0.2,1.7,0.1,2.5,0.6c0.9,0.5,0.7,1.5,1.1,2.4c0.1-0.4,0.2-0.7,0.2-0.9c0.4-1.3,1.5-1.9,2.8-1.4c0.7,0.3,1.4,0.6,2.1,0.9    c0.5,0.2,0.7,0.6,0.7,1.1c0,0.1,0,0.2,0.1,0.3c0.4-0.8,1.1-1,1.9-1.2c0.1,0,0.2-0.1,0.3,0c0.4,0.1,0.9,0.2,1.3,0.4    c0.6,0.2,1.1,0.6,1.4,1.1s0.6,1,0.9,1.6c0.2,0.4,0.2,0.7,0.3,1.1c0,0.1,0,0.1,0,0.1c-0.1,0-0.1,0-0.1-0.1s-0.1-0.2-0.1-0.3    c-0.2,0.2-0.2,0.5-0.3,0.7c-0.2-0.1-0.2-0.3-0.3-0.5c0,0.5,0,1,0,1.4c0,0.1,0.1,0.2-0.1,0.3c-0.1,0-0.2-0.1-0.2-0.2    c-0.2-0.2-0.3-0.5-0.6-0.7c0,0.2,0.1,0.3,0.1,0.5c0.2,0.4,0.4,0.8,0.6,1.2c0.2,0.3,0.2,0.6,0.2,0.9c-0.1,0.9-0.1,1.9-0.4,2.8    c-0.1,0.3-0.2,0.6-0.3,0.8c-0.4,0.9-1.3,1.2-2.1,1.1c-0.6,0-0.9-0.3-1-0.9c-0.2-0.9-0.3-1.9-0.4-2.9c-0.1-0.9-0.3-1.8-0.5-2.7    c0-0.1,0-0.2-0.2-0.2s-0.1,0.2-0.1,0.2c0.1,1.1,0.3,2.2,0.4,3.3c0.1,0.9,0.2,1.8,0.3,2.7c0.1,0.8-0.4,1.4-1.2,1.6    c-0.5,0.1-1.1,0.2-1.6,0.3c-0.5,0-0.9-0.2-1.1-0.8c-0.5-1.2-0.8-2.4-1.2-3.6c-0.3-1-0.6-2.1-0.8-3.1c-0.2-0.7-0.5-1.3-0.8-1.9    c0-0.1,0-0.2-0.2-0.1c-0.1,0-0.1,0.1,0,0.2c0.6,2.6,1.2,5.1,1.9,7.7c0.1,0.4,0.2,0.8,0.2,1.2s-0.1,0.6-0.5,0.8    c-0.3,0.1-0.7,0.2-1.1,0.3c-1.1,0.2-2.1-0.3-2.5-1.4c-0.8-1.9-1.5-3.9-2.3-5.8C243,192.6,242.7,192.2,242.1,191.9z"/>
		<path fill="#EAECF1" d="M248.2,202.8c-0.1-0.4-0.2-0.7-0.2-1c-0.1-0.4,0.1-0.6,0.5-0.7c0.5-0.1,1-0.2,1.5-0.3s0.9,0,1.2,0.4    s0.3,0.8,0.1,1.3c-0.1,0.2-0.3,0.3-0.4,0.3c-0.7,0.2-1.4,0.4-2.1,0.7c0.1,0.1,0.3,0.1,0.4,0.2c-1.2,0.8-2.5,1.2-3.8,1.6    c-0.4,0.1-0.7,0.3-1.1,0.3c-0.4,0-0.8-0.1-1-0.5c-0.4-0.7-0.9-1.5-1.2-2.3c-0.2-0.5-0.1-0.9,0.4-1.1c1.1-0.4,2.2-0.7,3.3-0.7    c0.6,0,1.1,0.1,1.7,0.2c0.2,0,0.2,0.1,0.2,0.3c0,0.3,0,0.5,0,0.8C247.9,202.5,248,202.7,248.2,202.8z M243.1,202.3    c-0.4,0.5-0.3,1.5,0.3,2C243.4,203.6,243.3,203,243.1,202.3z"/>
		<path fill="#EAECF1" d="M257.7,159.6c0-0.3-0.1-0.7,0.1-0.8c0.2-0.2,0.6,0,0.9,0s0.6,0,0.8,0.1c0.2,0.1,0.5,0.2,0.5,0.6    c0,0.1,0,0.3,0,0.4c0,0.5-0.2,0.5-0.7,0.7c-0.4,0.2-0.9,0.1-1.3,0.2c-0.2,0-0.3-0.1-0.3-0.3C257.7,160.2,257.7,159.9,257.7,159.6z    "/>
		<path fill="#EAECF1" d="M245.9,160.3c0.6,0,0.9,0.2,0.9,0.7s-0.3,0.8-0.8,0.8c-0.6,0-0.9-0.2-0.9-0.7    C245,160.6,245.3,160.2,245.9,160.3z"/>
		<path fill="#EAECF1" d="M260.3,210.8c0-0.3,0-0.6,0-0.9c0-0.2,0.1-0.2,0.2-0.2c0.2,0,0.4,0,0.6,0c0.6,0.1,0.9,0.6,0.8,1.2    c-0.1,0.7-0.4,1-1.1,1.1c-0.5,0-0.5,0-0.5-0.5C260.3,211.2,260.3,211,260.3,210.8z"/>
		<path fill="#EAECF1" d="M226.3,211.4c0-0.1,0-0.1,0-0.1c0.1-0.1-0.2-0.4,0.1-0.4c0.5-0.1,0.8,0.1,0.9,0.4c0.1,0.3,0,0.5-0.3,0.6    c-0.2,0.1-0.5,0.1-0.6,0C226.2,211.8,226.4,211.6,226.3,211.4z"/>
		<path fill="#EAECF1" d="M226.3,210.1c0-0.2-0.1-0.5,0.3-0.5c0.4,0,0.7,0.2,0.6,0.5c0,0.3-0.3,0.5-0.7,0.5    C226.3,210.5,226.3,210.5,226.3,210.1z"/>
		<path fill="#EAECF1" d="M269.1,211.2c0,0.5-0.3,0.8-0.7,0.8c-0.3-0.1-0.5-0.3-0.5-0.7s0.2-0.7,0.5-0.8    C268.8,210.3,269.1,210.6,269.1,211.2z"/>
		<path fill="#EAECF1" d="M255.6,211.2c0,0.5-0.2,0.8-0.7,0.8c-0.3,0-0.5-0.3-0.6-0.7c0-0.4,0.2-0.7,0.5-0.8    C255.3,210.3,255.6,210.6,255.6,211.2z"/>
		<path fill="#EAECF1" d="M232,209.6c0.3,0,0.6,0,0.7,0.3c0.1,0.2,0.1,0.4-0.1,0.6c-0.2,0.2-0.5,0.2-0.8,0.2c-0.1,0-0.1-0.1-0.1-0.2    c0-0.2,0-0.4,0-0.6C231.6,209.7,231.7,209.6,232,209.6z"/>
		<path fill="#EAECF1" d="M250.8,211.2c0,0.5-0.3,0.8-0.6,0.8c-0.4,0-0.6-0.3-0.6-0.8s0.3-0.8,0.6-0.8    C250.6,210.4,250.8,210.7,250.8,211.2z"/>
		<path fill="#EAECF1" d="M263.6,211c-0.1,0-0.1,0-0.2,0s-0.3,0.1-0.3,0s0-0.2,0.1-0.4c0.2-0.2,0.5-0.3,0.7-0.1    c0.2,0.1,0.3,0.3,0.2,0.5c0,0.2-0.2,0-0.3,0.1C263.7,211,263.6,211,263.6,211z"/>
		<path fill="#2173A0" d="M243.1,202.3c0.1,0.7,0.2,1.3,0.3,2C242.9,203.8,242.7,202.8,243.1,202.3z"/>
		<g>
			<g>
				<defs>
					<rect id="SVGID_1_" x="219.4" y="155.4" width="59" height="24.4"/>
				</defs>
				<clipPath id="SVGID_2_">
					<use xlink:href="#SVGID_1_"/>
				</clipPath>
				<g clip-path="url(#SVGID_2_)">
					<defs>
						<rect id="SVGID_3_" x="219.4" y="155.4" width="59" height="24.4"/>
					</defs>
					<clipPath id="SVGID_4_">
						<use xlink:href="#SVGID_3_"/>
					</clipPath>
					<path clip-path="url(#SVGID_4_)" d="M235.2,173.6c0,0.8-0.1,1.5-0.4,2.1c-0.3,0.6-0.7,1.2-1.3,1.7c-0.6,0.5-1.2,0.8-2.1,1.1       c-0.8,0.3-1.7,0.4-2.8,0.4h-6.8h-1.9v-1.5c0-0.4,0.2-0.7,0.6-0.8l0.2,0c0.1,0,0.2,0,0.4-0.1c0.2,0,0.4-0.1,0.7-0.1v-13.1       c-0.3-0.1-0.6-0.1-0.7-0.1c-0.2,0-0.3-0.1-0.4-0.1l-0.2,0c-0.4-0.1-0.6-0.3-0.6-0.8v-1.5h1.9h6.2c1.2,0,2.2,0.1,3,0.3       c0.8,0.2,1.5,0.5,2.1,1c0.5,0.4,0.9,0.9,1.2,1.5c0.2,0.6,0.4,1.3,0.4,2c0,0.4-0.1,0.8-0.2,1.2c-0.1,0.4-0.3,0.7-0.6,1.1       c-0.3,0.3-0.6,0.6-1,0.9c-0.4,0.3-0.9,0.5-1.4,0.7C234,170.2,235.2,171.5,235.2,173.6 M225.2,168.7h2.7c1.1,0,2-0.2,2.6-0.6       c0.6-0.4,0.9-1.1,0.9-2c0-0.9-0.3-1.6-0.8-2c-0.5-0.4-1.4-0.6-2.5-0.6h-2.9V168.7z M231.9,173.6c0-0.4-0.1-0.7-0.2-1.1       c-0.1-0.3-0.3-0.6-0.6-0.8c-0.3-0.2-0.6-0.4-1-0.5c-0.4-0.1-0.9-0.2-1.5-0.2h-3.4v5.3h3.4c0.6,0,1.1-0.1,1.6-0.2       c0.4-0.2,0.8-0.4,1-0.6c0.3-0.2,0.4-0.5,0.6-0.9C231.8,174.3,231.9,173.9,231.9,173.6"/>
					<path clip-path="url(#SVGID_4_)" d="M245.1,166.3c0.7,0.3,1.3,0.6,1.8,1.1c0.5,0.5,0.9,1.1,1.1,1.8c0.3,0.7,0.4,1.5,0.4,2.5       c0,0.2,0,0.4,0,0.6c0,0.2-0.1,0.3-0.1,0.4c-0.1,0.1-0.1,0.1-0.2,0.2c-0.1,0-0.2,0.1-0.3,0.1h-7.9c0.1,1.3,0.4,2.3,1.1,2.9       c0.6,0.6,1.4,0.9,2.4,0.9c0.5,0,0.9-0.1,1.3-0.2c0.4-0.1,0.7-0.2,1-0.4c0.3-0.1,0.5-0.3,0.7-0.4c0.2-0.1,0.4-0.2,0.6-0.2       c0.1,0,0.2,0,0.3,0.1c0.1,0,0.2,0.1,0.2,0.2l0.9,1.1c-0.3,0.4-0.7,0.7-1.1,1c-0.4,0.3-0.9,0.5-1.3,0.7       c-0.5,0.2-0.9,0.3-1.4,0.3c-0.5,0.1-0.9,0.1-1.4,0.1c-0.9,0-1.7-0.1-2.5-0.4c-0.8-0.3-1.4-0.7-2-1.3c-0.6-0.6-1-1.3-1.3-2.1       c-0.3-0.9-0.5-1.8-0.5-3c0-0.9,0.1-1.7,0.4-2.5c0.3-0.8,0.7-1.4,1.2-2c0.5-0.6,1.2-1,1.9-1.4c0.8-0.3,1.6-0.5,2.6-0.5       C243.7,165.9,244.4,166.1,245.1,166.3 M240.8,168.9c-0.5,0.5-0.8,1.2-1,2.2h5.8c0-0.4-0.1-0.8-0.2-1.1       c-0.1-0.4-0.3-0.7-0.5-0.9c-0.2-0.3-0.5-0.5-0.8-0.6c-0.3-0.2-0.7-0.2-1.2-0.2C242.1,168.1,241.3,168.4,240.8,168.9"/>
					<path clip-path="url(#SVGID_4_)" d="M262,177.5v1.5h-1.6h-0.3h-1c-0.3,0-0.5,0-0.7-0.1c-0.2-0.1-0.3-0.3-0.4-0.5l-0.3-0.9       c-0.3,0.3-0.6,0.5-1,0.8c-0.3,0.2-0.6,0.4-1,0.6c-0.3,0.2-0.7,0.3-1.1,0.3c-0.4,0.1-0.8,0.1-1.2,0.1c-0.5,0-1-0.1-1.5-0.2       c-0.5-0.1-0.8-0.4-1.2-0.7c-0.3-0.3-0.6-0.7-0.8-1.1c-0.2-0.4-0.3-0.9-0.3-1.5c0-0.5,0.1-1,0.4-1.4c0.3-0.5,0.7-0.9,1.3-1.3       c0.6-0.4,1.4-0.7,2.4-0.9c1-0.2,2.2-0.4,3.7-0.4v-0.8c0-0.9-0.2-1.5-0.5-1.9c-0.4-0.4-0.9-0.6-1.6-0.6c-0.5,0-0.9,0.1-1.2,0.2       c-0.3,0.1-0.6,0.2-0.9,0.4c-0.2,0.1-0.5,0.3-0.7,0.4c-0.2,0.1-0.4,0.2-0.7,0.2c-0.2,0-0.4-0.1-0.5-0.2       c-0.1-0.1-0.3-0.2-0.4-0.4l-0.6-1c1.5-1.4,3.3-2,5.3-2c0.7,0,1.4,0.1,2,0.4c0.6,0.2,1.1,0.6,1.5,1c0.4,0.4,0.7,1,0.9,1.6       c0.2,0.6,0.3,1.3,0.3,2v5.7c0.3,0,0.5,0.1,0.7,0.1c0.2,0,0.2,0,0.3,0C261.8,176.8,262,177,262,177.5 M257.4,173.5       c-0.9,0-1.7,0.1-2.3,0.2c-0.6,0.1-1.1,0.3-1.5,0.4c-0.4,0.2-0.6,0.4-0.8,0.6c-0.2,0.2-0.2,0.5-0.2,0.8c0,0.5,0.2,0.9,0.5,1.2       c0.3,0.2,0.7,0.4,1.3,0.4c0.3,0,0.6,0,0.9-0.1c0.3-0.1,0.5-0.1,0.8-0.3c0.2-0.1,0.5-0.3,0.7-0.4c0.2-0.2,0.4-0.4,0.7-0.6V173.5       z"/>
					<path clip-path="url(#SVGID_4_)" d="M277.9,177.5v1.5H276h-3.1v-8.2c0-0.8-0.2-1.4-0.5-1.8c-0.4-0.4-0.9-0.6-1.6-0.6       c-0.5,0-1,0.1-1.5,0.4c-0.5,0.2-0.9,0.6-1.3,1v6.8c0.3,0.1,0.6,0.1,0.7,0.1c0.2,0,0.3,0.1,0.4,0.1l0.2,0       c0.4,0.1,0.6,0.3,0.6,0.8v1.5h-1.9h-3.1h-1.9v-1.5c0-0.4,0.2-0.7,0.6-0.8l0.2,0c0.1,0,0.2,0,0.4-0.1c0.2,0,0.4-0.1,0.7-0.1       v-7.9c-0.3-0.1-0.6-0.1-0.7-0.1c-0.2,0-0.3-0.1-0.4-0.1l-0.2,0c-0.4-0.1-0.6-0.4-0.6-0.8v-1.5h1.9h1.9c0.4,0,0.7,0.2,0.8,0.6       l0.2,1c0.3-0.3,0.5-0.5,0.8-0.7c0.3-0.2,0.6-0.4,0.9-0.6c0.3-0.2,0.7-0.3,1-0.4c0.4-0.1,0.8-0.1,1.2-0.1c0.7,0,1.3,0.1,1.9,0.4       c0.5,0.2,1,0.6,1.4,1c0.4,0.4,0.6,0.9,0.8,1.5c0.2,0.6,0.3,1.3,0.3,2v5.7c0.3,0.1,0.6,0.1,0.7,0.1c0.2,0,0.3,0.1,0.4,0.1l0.2,0       C277.7,176.8,277.9,177,277.9,177.5"/>
					<path clip-path="url(#SVGID_4_)" d="M241.1,163.3h-0.2h-0.1h-3.4h-0.6v-0.4l0.1-0.2l0.5-0.1v-4.9l-0.5-0.1l-0.1-0.2v-0.4h0.6       h0.8h0h0.6v0.4l-0.1,0.2l-0.5,0.1v4.8h2.2c0-0.2,0-0.5,0.1-0.5l0.2-0.1h0.4V163.3z"/>
					<path clip-path="url(#SVGID_4_)" d="M243.6,162.9v0.4h-2v-0.4l0.1-0.2l0.5-0.1v-3.1l-0.5-0.1l-0.1-0.2v-0.4h1.4v3.7l0.5,0.1       L243.6,162.9 M242.1,157.7l0-0.2l0-0.2l0.1-0.2l0.2-0.1l0.2,0l0.2,0l0.2,0.1l0.1,0.2l0,0.2l0,0.2l-0.1,0.2l-0.2,0.1l-0.2,0       l-0.2,0l-0.2-0.1L242.1,157.7"/>
					<path clip-path="url(#SVGID_4_)" d="M246.4,158.9c0.2,0,0.3,0.1,0.5,0.2h1.2v0.3c0,0.1-0.1,0.2-0.2,0.2l-0.5,0.1       c0.1,0.2,0.1,0.4,0.1,0.6c0,0.2,0,0.4-0.1,0.6c-0.1,0.2-0.2,0.3-0.3,0.4c-0.1,0.1-0.3,0.2-0.5,0.3c-0.2,0.1-0.4,0.1-0.7,0.1       c-0.2,0-0.4,0-0.6-0.1c-0.1,0.1-0.2,0.1-0.2,0.2L245,162c0,0.1,0,0.2,0.1,0.2c0.1,0.1,0.2,0.1,0.3,0.1c0.1,0,0.3,0,0.5,0       c0.2,0,0.4,0,0.5,0c0.2,0,0.4,0,0.5,0.1c0.2,0,0.3,0.1,0.5,0.2c0.1,0.1,0.2,0.2,0.3,0.3c0.1,0.1,0.1,0.3,0.1,0.5       c0,0.2,0,0.4-0.1,0.5c-0.1,0.2-0.2,0.3-0.4,0.5c-0.2,0.1-0.4,0.2-0.6,0.3c-0.3,0.1-0.5,0.1-0.9,0.1c-0.3,0-0.6,0-0.8-0.1       c-0.2-0.1-0.4-0.1-0.6-0.3c-0.2-0.1-0.3-0.2-0.4-0.4c-0.1-0.1-0.1-0.3-0.1-0.4c0-0.2,0.1-0.4,0.2-0.5c0.1-0.1,0.3-0.3,0.6-0.4       c-0.1-0.1-0.2-0.1-0.3-0.2c-0.1-0.1-0.1-0.2-0.1-0.4l0-0.2l0.1-0.2l0.2-0.2c0.1-0.1,0.1-0.1,0.2-0.2c-0.2-0.1-0.4-0.3-0.5-0.5       s-0.2-0.4-0.2-0.7c0-0.2,0-0.4,0.1-0.6c0.1-0.2,0.2-0.3,0.3-0.4c0.1-0.1,0.3-0.2,0.5-0.3c0.2-0.1,0.4-0.1,0.7-0.1       C246,158.8,246.2,158.9,246.4,158.9 M247.1,163.2c-0.1-0.1-0.1-0.1-0.2-0.2c-0.1,0-0.2-0.1-0.4-0.1c-0.1,0-0.3,0-0.4,0       c-0.1,0-0.3,0-0.5,0c-0.2,0-0.3,0-0.4,0c-0.2,0.1-0.3,0.2-0.4,0.3c-0.1,0.1-0.2,0.2-0.2,0.4c0,0.1,0,0.2,0.1,0.3       c0,0.1,0.1,0.2,0.2,0.2s0.2,0.1,0.4,0.1c0.2,0,0.3,0.1,0.6,0.1c0.2,0,0.4,0,0.6-0.1c0.2,0,0.3-0.1,0.4-0.2       c0.1-0.1,0.2-0.2,0.3-0.2c0.1-0.1,0.1-0.2,0.1-0.3C247.2,163.4,247.2,163.3,247.1,163.2 M246.3,161.1c0.1,0,0.2-0.1,0.3-0.2       c0.1-0.1,0.1-0.2,0.2-0.3c0-0.1,0.1-0.2,0.1-0.4c0-0.3-0.1-0.5-0.2-0.6c-0.2-0.2-0.4-0.2-0.7-0.2c-0.3,0-0.5,0.1-0.7,0.2       c-0.2,0.2-0.2,0.4-0.2,0.6c0,0.1,0,0.2,0.1,0.4c0,0.1,0.1,0.2,0.2,0.3c0.1,0.1,0.2,0.1,0.3,0.2c0.1,0,0.3,0.1,0.4,0.1       C246,161.1,246.1,161.1,246.3,161.1"/>
					<path clip-path="url(#SVGID_4_)" d="M251.3,158.8c0.5,0,0.8,0.2,1.1,0.5c0.2,0.3,0.4,0.7,0.4,1.2v2.1c0.3,0.1,0.4,0.1,0.5,0.1       c0.1,0,0.1,0.1,0.1,0.2v0.4H252v-2.8c0-0.7-0.3-1-0.9-1c-0.4,0-0.8,0.2-1.2,0.6v2.6l0.1,0c0.2,0,0.3,0.1,0.4,0.1       c0.1,0,0.1,0.1,0.1,0.2v0.4h-2v-0.4c0-0.1,0-0.1,0.1-0.2l0.5-0.1v-5.1c-0.3-0.1-0.5-0.1-0.6-0.1l-0.1-0.2v-0.4h1.5v2.6       C250.3,159.1,250.8,158.8,251.3,158.8"/>
					<path clip-path="url(#SVGID_4_)" d="M254.7,163c-0.2-0.2-0.3-0.5-0.3-0.8v-2.7h-0.5l-0.1,0l0-0.1v-0.3l0.7-0.1l0.2-1.3l0.1-0.1       l0.1,0h0.4v1.5h1.2v0.6h-1.2v2.6c0,0.2,0,0.3,0.1,0.4c0.1,0.1,0.2,0.1,0.3,0.1l0.2,0l0.2-0.1l0.1-0.1l0.1,0l0.1,0.1l0.2,0.4       c-0.1,0.1-0.3,0.2-0.5,0.3c-0.2,0.1-0.4,0.1-0.6,0.1C255.2,163.3,254.9,163.2,254.7,163"/>
					<path clip-path="url(#SVGID_4_)" d="M262,161.5c0,0.5-0.2,1-0.6,1.3c-0.4,0.3-0.9,0.5-1.6,0.5H257v-0.4l0.1-0.2l0.5-0.1v-4.9       c-0.3-0.1-0.4-0.1-0.5-0.1l-0.1-0.2v-0.4h2.6c1.1,0,1.8,0.3,2,0.9c0.1,0.2,0.1,0.4,0.1,0.6c0,0.2,0,0.4-0.1,0.5       c0,0.1-0.1,0.3-0.2,0.4c-0.2,0.3-0.5,0.4-0.9,0.6C261.6,160.3,262,160.7,262,161.5 M258.5,159.9h1.1c0.7,0,1.1-0.2,1.3-0.6       c0.1-0.1,0.1-0.3,0.1-0.4c0-0.4-0.1-0.6-0.3-0.8c-0.2-0.2-0.6-0.3-1-0.3h-1.1V159.9z M261.1,161.9c0-0.1,0.1-0.3,0.1-0.4       c0-0.3-0.1-0.6-0.3-0.8c-0.2-0.2-0.6-0.3-1-0.3h-1.3v2.1h1.3C260.5,162.6,261,162.4,261.1,161.9"/>
					<path clip-path="url(#SVGID_4_)" d="M264.5,162.9v0.4h-2v-0.4c0-0.1,0-0.1,0.1-0.2l0.5-0.1v-5.1c-0.3-0.1-0.4-0.1-0.5-0.1       l-0.1-0.2v-0.4h1.4v5.7c0.3,0.1,0.4,0.1,0.5,0.1C264.4,162.8,264.5,162.8,264.5,162.9"/>
					<path clip-path="url(#SVGID_4_)" d="M268.3,162.1v-2.6c-0.1,0-0.2,0-0.5-0.1l-0.1-0.2v-0.4h0.6h0.8v3.7       c0.3,0.1,0.4,0.1,0.5,0.1c0.1,0,0.1,0.1,0.1,0.2v0.4h-1.1c-0.1,0-0.2-0.1-0.2-0.2l-0.1-0.5c-0.4,0.5-0.9,0.7-1.4,0.7       c-0.5,0-0.8-0.1-1.1-0.5c-0.2-0.3-0.4-0.7-0.4-1.2v-2.2c-0.3-0.1-0.4-0.1-0.5-0.1l-0.1-0.2v-0.4h1.4v2.8c0,0.3,0.1,0.6,0.2,0.8       c0.1,0.2,0.4,0.3,0.7,0.3C267.6,162.7,267.9,162.5,268.3,162.1"/>
					<path clip-path="url(#SVGID_4_)" d="M272.9,159c0.2,0.1,0.4,0.2,0.6,0.4c0.2,0.2,0.3,0.4,0.4,0.6c0.1,0.2,0.1,0.5,0.1,0.8       c0,0.1,0,0.2,0,0.2l-0.1,0.1h-2.9c0,0.3,0,0.5,0.1,0.7c0.1,0.2,0.2,0.4,0.3,0.5c0.1,0.1,0.3,0.2,0.4,0.3       c0.2,0.1,0.4,0.1,0.6,0.1c0.2,0,0.4,0,0.5-0.1c0.1,0,0.3-0.1,0.4-0.1c0.1,0,0.2-0.1,0.3-0.1l0.2-0.1l0.1,0.1l0.2,0.3       c-0.1,0.1-0.2,0.2-0.3,0.3c-0.1,0.1-0.3,0.2-0.4,0.2c-0.2,0.1-0.3,0.1-0.5,0.1c-0.2,0-0.3,0-0.5,0c-0.3,0-0.6-0.1-0.8-0.2       c-0.3-0.1-0.5-0.3-0.7-0.4c-0.2-0.2-0.3-0.4-0.4-0.7c-0.1-0.3-0.2-0.6-0.2-1c0-0.3,0-0.6,0.1-0.9c0.1-0.3,0.2-0.5,0.4-0.7       c0.2-0.2,0.4-0.3,0.6-0.5c0.3-0.1,0.5-0.2,0.9-0.2C272.4,158.8,272.7,158.9,272.9,159 M271.3,159.7c-0.2,0.2-0.3,0.5-0.4,0.9       h2.4c0-0.2,0-0.3-0.1-0.5c0-0.1-0.1-0.3-0.2-0.4c-0.1-0.1-0.2-0.2-0.3-0.2c-0.1-0.1-0.3-0.1-0.5-0.1       C271.8,159.4,271.5,159.5,271.3,159.7"/>
					<path clip-path="url(#SVGID_4_)" d="M275.6,157.2l0.7,1.2l0.1,0.1h0l0.1-0.1l0.7-1.2l0,0.1v1.3c-0.1,0-0.2,0-0.2,0l0,0.1v0.1       h0.7v-0.1l0-0.1l-0.2,0v-1.6c0,0,0.1,0,0.2,0l0-0.1v-0.1h-0.4l-0.1,0l0,0l-0.7,1.2l-0.1,0.1l-0.1-0.1l-0.7-1.2l0,0l-0.1,0h-0.4       v0.1l0,0.1l0.2,0v1.6l-0.2,0l0,0.1v0.1h0.7v-0.1l0-0.1c0,0-0.1,0-0.2,0v-1.3L275.6,157.2z M275,156.9L275,156.9h-1.6v0.4h0.1       l0.1,0c0,0,0-0.1,0-0.2h0.5v1.6l-0.2,0l0,0.1v0.1h0.7v-0.1l0,0l-0.1,0l0,0v-1.6h0.5c0,0.1,0,0.2,0,0.2l0.1,0h0.1L275,156.9       L275,156.9z"/>
				</g>
			</g>
		</g>
	</g>
</g>
<text transform="matrix(1 0 0 1 206.3 296.9799)" fill="#010202" font-family="'Silom'" font-size="10">A1</text>
<text transform="matrix(1 0 0 1 223.7 296.9799)" fill="#010202" font-family="'Silom'" font-size="10">0 </text>
<text transform="matrix(1 0 0 1 236.8 296.9799)" fill="#010202" font-family="'Silom'" font-size="10"> 1 </text>
<text transform="matrix(1 0 0 1 252.2 296.9799)" fill="#010202" font-family="'Silom'" font-size="10"> 2 </text>
<text transform="matrix(1 0 0 1 269.9 296.9799)" fill="#010202" font-family="'Silom'" font-size="10">3</text>
<text transform="matrix(1 0 0 1 285.6 296.9799)" fill="#010202" font-family="'Silom'" font-size="10">4 </text>
<text transform="matrix(1 0 0 1 300.9 296.9799)" fill="#010202" font-family="'Silom'" font-size="10">5</text>
</svg>
