<?xml version="1.0" encoding="UTF-8" standalone="no"?>
<svg
   xmlns:dc="http://purl.org/dc/elements/1.1/"
   xmlns:cc="http://creativecommons.org/ns#"
   xmlns:rdf="http://www.w3.org/1999/02/22-rdf-syntax-ns#"
   xmlns:svg="http://www.w3.org/2000/svg"
   xmlns="http://www.w3.org/2000/svg"
   xmlns:sodipodi="http://sodipodi.sourceforge.net/DTD/sodipodi-0.dtd"
   xmlns:inkscape="http://www.inkscape.org/namespaces/inkscape"
   enable-background="new 0 0 32 32"
   height="28"
   id="Layer_1"
   version="1.1"
   viewBox="0 0 32 28"
   width="32"
   xml:space="preserve"
   inkscape:version="0.48.2 r9819"
   sodipodi:docname="greeting.svg"><metadata
     id="metadata3412"><rdf:RDF><cc:Work
         rdf:about=""><dc:format>image/svg+xml</dc:format><dc:type
           rdf:resource="http://purl.org/dc/dcmitype/StillImage" /><dc:title></dc:title></cc:Work></rdf:RDF></metadata><defs
     id="defs3410" /><sodipodi:namedview
     pagecolor="#ffffff"
     bordercolor="#666666"
     borderopacity="1"
     objecttolerance="10"
     gridtolerance="10"
     guidetolerance="10"
     inkscape:pageopacity="0"
     inkscape:pageshadow="2"
     inkscape:window-width="1920"
     inkscape:window-height="933"
     id="namedview3408"
     showgrid="false"
     inkscape:zoom="21.174316"
     inkscape:cx="-4.7798916"
     inkscape:cy="14.909674"
     inkscape:window-x="0"
     inkscape:window-y="0"
     inkscape:window-maximized="1"
     inkscape:current-layer="Layer_1"
     fit-margin-top="0"
     fit-margin-left="0"
     fit-margin-right="0"
     fit-margin-bottom="0" /><text
     xml:space="preserve"
     style="font-size:10px;font-style:normal;font-variant:normal;font-weight:500;font-stretch:normal;text-align:start;line-height:125%;letter-spacing:0px;word-spacing:0px;writing-mode:lr-tb;text-anchor:start;fill:#000000;fill-opacity:1;stroke:none;font-family:BauhausEF-Medium;-inkscape-font-specification:BauhausEF-Medium Medium"
     x="9.2092705"
     y="5.5363998"
     id="text3481"
     sodipodi:linespacing="125%"><tspan
       sodipodi:role="line"
       id="tspan3483"
       x="9.2092705"
       y="5.5363998" /></text>
<text
     xml:space="preserve"
     style="font-size:72px;font-style:normal;font-variant:normal;font-weight:500;font-stretch:normal;line-height:125%;letter-spacing:0px;word-spacing:0px;fill:#000000;fill-opacity:1;stroke:none;font-family:BauhausEF-Medium;-inkscape-font-specification:BauhausEF-Medium Medium"
     x="11.476167"
     y="-4.5229564"
     id="text3485"
     sodipodi:linespacing="125%"><tspan
       sodipodi:role="line"
       id="tspan3487"
       x="11.476167"
       y="-4.5229564"></tspan></text>
<g
     id="g3495"
     transform="translate(0,-2)"><path
       clip-rule="evenodd"
       d="M 16,2 C 7.163,2 0,7.373 0,14 0,18.127 2.779,21.766 7.008,23.926 7.008,23.953 7,23.971 7,24 c 0,1.793 -1.339,3.723 -1.928,4.736 0.001,0 0.002,0 0.002,0 C 5.027,28.846 5,28.967 5,29.094 5,29.594 5.405,30 5.906,30 6,30 6.165,29.975 6.161,29.986 9.286,29.474 12.23,26.603 12.914,25.771 13.913,25.918 14.943,26 16,26 24.835,26 32,20.627 32,14 32,7.373 24.836,2 16,2 z m 0,22 c -0.917,0 -1.858,-0.07 -2.796,-0.207 -0.097,-0.016 -0.194,-0.021 -0.29,-0.021 -0.594,0 -1.163,0.264 -1.546,0.73 -0.428,0.521 -1.646,1.684 -3.085,2.539 0.39,-0.895 0.695,-1.898 0.716,-2.932 0.006,-0.064 0.009,-0.129 0.009,-0.184 0,-0.752 -0.421,-1.439 -1.09,-1.781 C 4.212,20.252 2,17.207 2,14 2,8.486 8.28,4 16,4 c 7.718,0 14,4.486 14,10 0,5.514 -6.281,10 -14,10 z"
       id="path3406"
       inkscape:connector-curvature="0"
       style="fill:#333333;fill-rule:evenodd" /><text
       transform="scale(1.0094005,0.99068703)"
       sodipodi:linespacing="100%"
       id="text3491"
       y="18.964436"
       x="8.5351772"
       style="font-size:14.11360073px;font-style:normal;font-variant:normal;font-weight:500;font-stretch:normal;text-align:start;line-height:100%;letter-spacing:0px;word-spacing:0px;writing-mode:lr-tb;text-anchor:start;fill:#000000;fill-opacity:1;stroke:none;font-family:BauhausEF-Medium;-inkscape-font-specification:BauhausEF-Medium Medium"
       xml:space="preserve"><tspan
         y="18.964436"
         x="8.5351772"
         id="tspan3493"
         sodipodi:role="line">Hi!</tspan></text>
</g></svg>