<?xml version="1.0" encoding="utf-8"?>
<!-- Generator: Adobe Illustrator 18.1.1, SVG Export Plug-In . SVG Version: 6.00 Build 0)  -->
<!DOCTYPE svg PUBLIC "-//W3C//DTD SVG 1.1//EN" "http://www.w3.org/Graphics/SVG/1.1/DTD/svg11.dtd">
<svg version="1.1" id="Layer_1" xmlns="http://www.w3.org/2000/svg" xmlns:xlink="http://www.w3.org/1999/xlink" x="0px" y="0px"
	 viewBox="0 0 612 792" enable-background="new 0 0 612 792" xml:space="preserve">
<g>
	<path fill="#0C4962" d="M327,119.1c4.7-0.5,7.9,2,11.2,4c67.1,38.6,134,77.3,201.1,116c5.9,3.4,5.9,3.6,0.1,6.9
		c-32.9,18.9-65.9,37.7-98.8,56.9c-4.2,2.4-6.1,2.2-8.7-2.2c-30.8-53.6-61.7-107.1-92.5-160.6C335.4,133.1,331.4,126.3,327,119.1z"
		/>
	<path fill="#0C4962" d="M77.3,549.7c2.3-1.9,4-1.3,5.5-1.3c68.5,0,137,0,205.4-0.1c5,0,6.9,1,6.9,6.5c-0.2,38.1-0.1,76.1-0.1,114.2
		c0,1.7,0.6,3.6-1.2,5.8C221.9,633,149.9,591.5,77.3,549.7z"/>
	<path fill="#127565" d="M283.8,117.3c-2.5,8.9-7.3,14.9-11.1,21.4c-22.4,39.1-45.1,78-67.5,116.9c-8.8,15.3-17.8,30.4-26.4,45.7
		c-1.9,3.4-3.2,4.1-6.9,2c-23.8-13.9-47.7-27.8-71.6-41.6c-9.1-5.3-18.5-10.3-27.6-15.6c-1.7-1-4.4-1.1-4.4-3.5
		c0-2.3,2.6-2.8,4.3-3.7c33.5-19.5,67.2-38.9,100.7-58.3c34.6-20,69.4-39.9,104-59.9C278.8,119.9,280.6,118.9,283.8,117.3z"/>
	<path fill="#127565" d="M554.4,511.8c-6-10.3-11.8-20.2-17.4-29.9c-26.8-46.4-53.7-92.8-80.5-139.2c-2.5-4.3-4.7-8.8-7.6-12.9
		s-2.3-6.3,2.2-8.8c27.8-15.9,55.5-31.9,83.2-47.8c5.9-3.4,11.8-6.7,17.7-10.2c2.9-1.7,4.1-0.8,4.1,2.3c0,1,0,2,0,3
		c0,79.1,0,158.2,0,237.3C555.9,507.1,556.4,508.9,554.4,511.8z"/>
	<path fill="#127565" d="M532.7,549.8c-71.6,41.6-143.3,83.1-214.8,124.5c-2.2-1.9-1.4-3.8-1.4-5.4c0-38.1,0.1-76.1-0.1-114.2
		c0-5.5,1.8-6.6,6.9-6.6c68.6,0.1,137.4,0.1,206,0.1c1,0,1.9,0.1,2.9,0.1C532.2,548.8,532.4,549.3,532.7,549.8z"/>
	<path fill="#0C4862" d="M56,510.8c0-83.1,0-166.1,0-250c9,5.2,17.5,10,26,14.8c26,15,51.9,30.2,78,45c4.7,2.6,5,4.6,2.4,9.1
		c-31,53.2-61.8,106.6-92.5,160c-4.2,7.2-8.3,14.3-12.5,21.5C56.8,511.1,56.4,511,56,510.8z"/>
	<path fill="#0C4862" d="M533.3,537.2c-2.3,1.3-4.6,0.7-6.6,0.7c-67.7,0-135.5,0-203.1,0.1c-5.8,0-7.5-1.6-7.3-7.3
		c0.2-32.1,0.2-64.1,0-96.2c0-6.1,1.8-7.1,7.5-6.5c21.4,2.2,40.3,10.7,58.7,21.4c49.2,28.6,98.6,56.5,148,84.7
		C531.5,534.8,533.2,534.9,533.3,537.2z"/>
	<path fill="#1AB6B5" d="M66.3,516.3C71.5,507.1,76.8,498,82,489c29.6-51.3,59.4-102.5,88.8-153.8c3-5.3,5-5.3,9.9-2.4
		c27.9,16.3,56,32.5,84.3,48.3c5.2,2.9,5.6,4.9,2.2,9.9c-13.3,19.2-32.6,30.8-52.3,42.1c-47.8,27.2-95.3,54.8-142.9,82.3
		c-1.3,0.8-2.8,1.4-4.2,2C67.2,517,66.8,516.6,66.3,516.3z"/>
	<path fill="#19B5B4" d="M317.8,123.5c9.3,15.9,18.4,31.7,27.6,47.6c22.8,39.4,45.7,78.8,68.5,118.4c3.2,5.5,6,11.3,9.6,16.6
		c2.8,4,1.4,5.9-2.2,7.9c-21.5,12.3-42.9,24.8-64.4,37.1c-7.6,4.4-15.4,8.5-22.8,13.2c-3.6,2.2-5.4,1.4-6.9-2
		c-6-14.1-10.8-28.5-10.9-44c-0.2-63.8-0.1-127.8-0.1-191.6c0-1,0.1-1.9,0.2-2.9C316.9,123.7,317.4,123.6,317.8,123.5z"/>
	<path fill="#76D8A7" d="M294.2,124.4c1.6,1.7,0.7,3.7,0.7,5.5c0,60.9,0,121.8,0.1,182.7c0,16.1-3.8,31.2-9.9,46
		c-3.1,7.7-3.5,7.8-10.6,3.8c-25.8-14.8-51.7-29.7-77.3-44.8c-12-7.1-11.9-7.3-4.4-20.1c15.1-26.1,30.4-52.2,45.6-78.2
		c17.9-31,35.7-62,53.6-93C292.4,125.5,292.8,124.4,294.2,124.4z"/>
	<path fill="#76D8A7" d="M542.5,516.1c-10.8-6-21.6-11.8-32.3-17.9c-37.1-21.4-74.4-42.8-111.4-64.5c-15.6-9.1-32.6-16.5-44.5-31
		c-3.8-4.6-7.6-9.3-11.4-13.9c-2.2-2.6-1.4-4.4,1.6-6.1c28.2-16.2,56.4-32.6,84.5-48.8c7.8-4.4,7.8-4.3,11.9,2.6
		c18,31.1,36.1,62.3,54,93.4c15.9,27.5,31.9,54.9,47.7,82.5c0.5,0.8,0.6,1.8,1,2.6C543.3,515.4,542.9,515.8,542.5,516.1z"/>
	<path fill="#76D8A7" d="M238.7,444.3c-0.4,0.2-0.7,0.4-1.2,0.6C237.6,444.1,238,443.9,238.7,444.3z"/>
	<path fill="#127565" d="M77.4,537.4c2.3,1.3,4.6,0.7,6.7,0.7c67.7,0,135.5,0,203.1,0.1c5.8,0,7.5-1.6,7.3-7.3
		c-0.2-32.1-0.2-64.1,0-96.2c0-6.1-1.8-7.1-7.5-6.5c-21.4,2.2-40.3,10.7-58.7,21.4c-49.2,28.6-98.6,56.5-148,84.7
		C79.2,535,77.6,535.2,77.4,537.4z"/>
</g>
</svg>
