<?xml version="1.0" encoding="UTF-8"?>
<svg xmlns="http://www.w3.org/2000/svg" xmlns:xlink="http://www.w3.org/1999/xlink" width="1000pt" height="1000pt" viewBox="0 0 1000 1000">
<g id="surface1">
<path style=" stroke:none;fill-rule:nonzero;fill:rgb(62.352941%,74.901961%,23.137255%);fill-opacity:1;" d="M 602.628906 166.597656 L 642.945312 108.050781 C 645.339844 104.570312 644.742188 100.003906 641.613281 97.84375 C 638.488281 95.695312 634.003906 96.757812 631.628906 100.242188 L 589.726562 161.058594 C 562.113281 150.183594 531.449219 144.121094 499.128906 144.121094 C 466.808594 144.121094 436.136719 150.175781 408.523438 161.058594 L 366.628906 100.238281 C 364.226562 96.761719 359.75 95.695312 356.621094 97.84375 C 353.492188 99.996094 352.898438 104.566406 355.292969 108.050781 L 395.625 166.59375 C 331.5 196.425781 286.53125 253.113281 280.800781 319.273438 L 717.433594 319.273438 C 711.722656 253.113281 666.75 196.429688 602.628906 166.597656 "/>
<path style=" stroke:none;fill-rule:nonzero;fill:rgb(100%,100%,100%);fill-opacity:1;" d="M 407.910156 258.875 C 394.566406 258.875 383.753906 248.0625 383.753906 234.71875 C 383.753906 221.375 394.558594 210.558594 407.910156 210.558594 C 421.246094 210.558594 432.058594 221.371094 432.058594 234.71875 C 432.058594 248.058594 421.246094 258.875 407.910156 258.875 "/>
<path style=" stroke:none;fill-rule:nonzero;fill:rgb(100%,100%,100%);fill-opacity:1;" d="M 590.320312 258.875 C 576.984375 258.875 566.175781 248.0625 566.175781 234.71875 C 566.175781 221.371094 576.984375 210.558594 590.320312 210.558594 C 603.671875 210.558594 614.480469 221.375 614.480469 234.71875 C 614.480469 248.058594 603.667969 258.875 590.320312 258.875 "/>
<path style=" stroke:none;fill-rule:nonzero;fill:rgb(62.352941%,74.901961%,23.137255%);fill-opacity:1;" d="M 252.765625 595.195312 C 252.765625 622.097656 230.957031 643.902344 204.054688 643.902344 C 177.15625 643.902344 155.347656 622.097656 155.347656 595.195312 L 155.347656 398.179688 C 155.347656 371.28125 177.15625 349.472656 204.054688 349.472656 C 230.957031 349.472656 252.765625 371.28125 252.765625 398.179688 Z M 252.765625 595.195312 "/>
<path style=" stroke:none;fill-rule:nonzero;fill:rgb(62.352941%,74.901961%,23.137255%);fill-opacity:1;" d="M 280.792969 350.976562 L 280.792969 706.808594 C 280.792969 727.941406 297.925781 745.074219 319.0625 745.074219 L 364.328125 745.074219 L 364.328125 854.5625 C 364.328125 881.464844 386.132812 903.269531 413.035156 903.269531 C 439.9375 903.269531 461.746094 881.464844 461.746094 854.5625 L 461.746094 745.074219 L 536.488281 745.074219 L 536.488281 854.5625 C 536.488281 881.464844 558.292969 903.269531 585.195312 903.269531 C 612.101562 903.269531 633.902344 881.464844 633.902344 854.5625 L 633.902344 745.074219 L 679.171875 745.074219 C 700.308594 745.074219 717.445312 727.949219 717.445312 706.808594 L 717.445312 350.976562 Z M 280.792969 350.976562 "/>
<path style=" stroke:none;fill-rule:nonzero;fill:rgb(62.352941%,74.901961%,23.137255%);fill-opacity:1;" d="M 745.46875 595.195312 C 745.46875 622.097656 767.273438 643.902344 794.175781 643.902344 C 821.074219 643.902344 842.882812 622.097656 842.882812 595.195312 L 842.882812 398.179688 C 842.882812 371.28125 821.074219 349.472656 794.175781 349.472656 C 767.273438 349.472656 745.46875 371.28125 745.46875 398.179688 Z M 745.46875 595.195312 "/>
</g>
</svg>
