<?xml version="1.0" encoding="UTF-8"?>
<svg xmlns="http://www.w3.org/2000/svg" xmlns:xlink="http://www.w3.org/1999/xlink" width="1000pt" height="1215pt" viewBox="0 0 1000 1000">
<defs>
<clipPath id="clip1">
  <path d="M 26.046875 306 L 973.460938 306 L 973.460938 1189.320312 L 26.046875 1189.320312 Z M 26.046875 306 "/>
</clipPath>
</defs>
<g id="surface1">
<g clip-path="url(#clip1)" clip-rule="nonzero">
<path style=" stroke:none;fill-rule:nonzero;fill:rgb(70.196078%,70.196078%,70.196078%);fill-opacity:1;" d="M 817.269531 644.078125 C 815.949219 496.859375 937.53125 426.1875 943.03125 422.738281 C 874.613281 322.664062 768.140625 308.957031 730.15625 307.34375 C 639.59375 298.179688 553.359375 360.640625 507.453125 360.640625 C 461.550781 360.640625 390.566406 308.660156 315.476562 310.128906 C 216.628906 311.59375 125.628906 367.535156 74.738281 455.953125 C -27.851562 633.886719 48.558594 897.601562 148.433594 1042.03125 C 197.34375 1112.632812 255.566406 1192.179688 332.125 1189.246094 C 405.894531 1186.3125 433.757812 1141.589844 522.78125 1141.589844 C 611.800781 1141.589844 636.878906 1189.246094 714.828125 1187.851562 C 794.097656 1186.3125 844.402344 1115.710938 892.945312 1044.890625 C 948.96875 962.921875 972.140625 883.597656 973.460938 879.417969 C 971.703125 878.683594 818.882812 820.105469 817.269531 644.078125 "/>
</g>
<path style=" stroke:none;fill-rule:nonzero;fill:rgb(70.196078%,70.196078%,70.196078%);fill-opacity:1;" d="M 670.804688 211.835938 C 711.429688 162.640625 738.855469 94.238281 731.300781 26.058594 C 672.777344 28.40625 601.949219 65.0625 559.929688 114.257812 C 522.3125 157.734375 489.316406 227.382812 498.257812 294.171875 C 563.523438 299.230469 630.175781 260.957031 670.804688 211.835938 "/>
</g>
</svg>
