<?xml version="1.0" encoding="utf-8"?>
<!-- Generator: Adobe Illustrator 18.1.1, SVG Export Plug-In . SVG Version: 6.00 Build 0)  -->
<!DOCTYPE svg PUBLIC "-//W3C//DTD SVG 1.1//EN" "http://www.w3.org/Graphics/SVG/1.1/DTD/svg11.dtd">
<svg version="1.1" id="Layer_1" xmlns="http://www.w3.org/2000/svg" xmlns:xlink="http://www.w3.org/1999/xlink" x="0px" y="0px"
	 viewBox="0 0 612 792" enable-background="new 0 0 612 792" xml:space="preserve">
<g>
	<path id="path6" fill="#0F7391" d="M524.6,311.9v-71l-8.9-8.2H120.4v326.7h404.5v-11.1l15.2-15.6V326.7L524.6,311.9z M214.8,256.5
		c-5.7,0-10-4.6-10-10c0-5.7,4.6-10,10-10c5.7,0,10,4.6,10,10C225,252.2,220.5,256.5,214.8,256.5z M525.3,333.7c3.6,0,6.6,3,6.6,6.6
		s-3,6.6-6.6,6.6c-3.6,0-6.6-3-6.6-6.6C518.8,336.6,521.7,333.7,525.3,333.7z M526.5,521.1c-5.2,0-9.6-4.4-9.6-9.6
		c0-5.2,4.4-9.6,9.6-9.6c5.2,0,9.6,4.4,9.6,9.6C535.7,516.9,531.7,521.1,526.5,521.1z"/>
	<path id="path8" fill="#02809E" d="M293.3,384.4c0-2.2-1.6-4.1-3.8-4.4l0,0h-15c-2.4,0-4.6,2-4.6,4.6c0,2.6,2,4.6,4.6,4.6h15.2l0,0
		C291.7,388.3,293.3,386.5,293.3,384.4z"/>
	<path id="path10" fill="#02809E" d="M293.3,371.1c0-2.2-1.6-4.1-3.8-4.4l0,0h-15c-2.4,0-4.6,2-4.6,4.6c0,2.6,2,4.6,4.6,4.6h15.2
		l0,0C291.7,375.2,293.3,373.1,293.3,371.1z"/>
	<path id="path12" fill="#02809E" d="M293.3,357.8c0-2.2-1.6-4.1-3.8-4.4l0,0h-15c-2.4,0-4.6,2.1-4.6,4.6c0,2.4,2,4.6,4.6,4.6h15.2
		l0,0C291.7,361.8,293.3,360,293.3,357.8z"/>
	<path id="path14" fill="#02809E" d="M353.9,373.6c0-2.2-1.6-4.1-3.8-4.4l0,0h-15.2c-2.4,0-4.6,2-4.6,4.6s2,4.6,4.6,4.6h15.2l0,0
		C352.3,377.6,353.9,375.8,353.9,373.6z"/>
	<path id="path16" fill="#02809E" d="M390.8,397c0-6.6-5-12.2-11.4-13.2v-0.2h-38.6c-7.5,0-13.4,5.9-13.4,13.4
		c0,7.5,5.9,13.4,13.4,13.4h38.8v-0.2C386.1,408.9,390.8,403.5,390.8,397z"/>
	<path id="path18" fill="#02809E" d="M386.1,373.6c0-2.2-1.6-4.1-3.8-4.4l0,0h-15c-2.4,0-4.6,2-4.6,4.6s2.1,4.6,4.6,4.6h15.2l0,0
		C384.5,377.6,386.1,375.8,386.1,373.6z"/>
	<path id="path20" fill="#02809E" d="M424.7,373.6c0-2.2-1.6-4.1-3.8-4.4l0,0h-15c-2.4,0-4.6,2-4.6,4.6s2,4.6,4.6,4.6h15.2l0,0
		C423,377.6,424.7,375.8,424.7,373.6z"/>
	<path id="path22" fill="#02809E" d="M424.7,390.6c0-2.2-1.6-4.1-3.8-4.4l0,0h-15c-2.4,0-4.6,2-4.6,4.6c0,2.6,2,4.6,4.6,4.6h15.2
		l0,0C423,394.7,424.7,392.9,424.7,390.6z"/>
	<path id="path24" fill="#02809E" d="M424.7,407.9c0-2.2-1.6-4.1-3.8-4.4l0,0h-15c-2.4,0-4.6,2-4.6,4.6c0,2.5,2,4.6,4.6,4.6h15.2
		l0,0C423,411.7,424.7,409.8,424.7,407.9z"/>
	<path id="path26" fill="#02809E" d="M456.6,381.1c0-2.2-1.6-4.1-3.8-4.4l0,0h-15.2c-2.4,0-4.6,2-4.6,4.6c0,2.6,2,4.6,4.6,4.6h15.2
		l0,0C455,385.2,456.6,383.4,456.6,381.1z"/>
	<path id="path28" fill="#02809E" d="M456.6,408.7c0-2.2-1.6-4.1-3.8-4.4l0,0h-15.2c-2.4,0-4.6,2-4.6,4.6c0,2.5,2,4.6,4.6,4.6h15.2
		l0,0C455,412.8,456.6,411.1,456.6,408.7z"/>
	<path id="path30" fill="#02809E" d="M465,381.1c0-2.2,1.6-4.1,3.8-4.4l0,0H484c2.4,0,4.6,2,4.6,4.6c0,2.6-2,4.6-4.6,4.6h-15.2l0,0
		C466.6,385.2,465,383.4,465,381.1z"/>
	<path id="path32" fill="#02809E" d="M465,408.7c0-2.2,1.6-4.1,3.8-4.4l0,0H484c2.4,0,4.6,2,4.6,4.6c0,2.5-2,4.6-4.6,4.6h-15.2l0,0
		C466.6,412.8,465,411.1,465,408.7z"/>
	<path id="path34" fill="#02809E" d="M293.3,411.1c0-2.2-1.6-4.1-3.8-4.4l0,0h-15c-2.4,0-4.6,2-4.6,4.6c0,2.5,2,4.6,4.6,4.6h15.2
		l0,0C291.7,415.1,293.3,413.3,293.3,411.1z"/>
	<path id="path36" fill="#02809E" d="M293.3,290.8c0-2.2-1.6-4.1-3.8-4.4l0,0h-15c-2.4,0-4.6,2-4.6,4.6c0,2.5,2,4.6,4.6,4.6h15.2
		l0,0C291.7,294.9,293.3,293,293.3,290.8z"/>
	<path id="path38" fill="#02809E" d="M219.6,281c0-2.2-1.6-4.1-3.8-4.4l0,0h-15.2c-2.4,0-4.6,2.1-4.6,4.6c0,2.4,2,4.6,4.6,4.6h15.2
		l0,0C218,285.2,219.6,283.2,219.6,281z"/>
	<path id="path40" fill="#02809E" d="M247.7,281c0-2.2-1.6-4.1-3.8-4.4l0,0h-15c-2.4,0-4.6,2.1-4.6,4.6c0,2.4,2,4.6,4.6,4.6h15.2
		l0,0C246.1,285.2,247.7,283.2,247.7,281z"/>
	<path id="path42" fill="#02809E" d="M293.3,317.5c0-2.2-1.6-4.1-3.8-4.4l0,0h-15c-2.4,0-4.6,2.1-4.6,4.6c0,2.4,2,4.6,4.6,4.6h15.2
		l0,0C291.7,321.6,293.3,319.9,293.3,317.5z"/>
	<path id="path44" fill="#02809E" d="M240.4,454.8c0-2.2-1.6-4.1-3.8-4.4l0,0h-15.2c-2.4,0-4.6,2-4.6,4.6c0,2.5,2.1,4.6,4.6,4.6
		h15.2l0,0C238.8,458.8,240.4,457,240.4,454.8z"/>
	<path id="path46" fill="#02809E" d="M240.4,436.4c0-2.2-1.6-4.1-3.8-4.4l0,0h-15.2c-2.4,0-4.6,2.1-4.6,4.6c0,2.5,2.1,4.6,4.6,4.6
		h15.2l0,0C238.8,440.5,240.4,438.7,240.4,436.4z"/>
	<path id="path48" fill="#02809E" d="M202.6,386.3c2.2,0,4.1-1.6,4.4-3.8l0,0v-10.6c0-2.4-2.1-4.6-4.6-4.6c-2.4,0-4.6,2.1-4.6,4.6
		v10.6l0,0C198.5,384.7,200.4,386.3,202.6,386.3z"/>
	<path id="path50" fill="#02809E" d="M218.9,386.3c2.2,0,4.1-1.6,4.4-3.8l0,0v-10.6c0-2.4-2.1-4.6-4.6-4.6c-2.4,0-4.6,2.1-4.6,4.6
		v10.6l0,0C214.8,384.7,216.6,386.3,218.9,386.3z"/>
	<path id="path52" fill="#02809E" d="M235,386.3c2.2,0,4.1-1.6,4.4-3.8l0,0v-10.6c0-2.4-2.1-4.6-4.6-4.6c-2.4,0-4.6,2.1-4.6,4.6
		v10.6l0,0C231.2,384.7,233,386.3,235,386.3z"/>
	<path id="path54" fill="#02809E" d="M251.3,386.3c2.2,0,4.1-1.6,4.4-3.8l0,0v-10.6c0-2.4-2.1-4.6-4.6-4.6c-2.4,0-4.6,2.1-4.6,4.6
		v10.6l0,0C247.5,384.7,249.3,386.3,251.3,386.3z"/>
	<path id="path56" fill="#02809E" d="M440.5,336.9c0,2.2,1.6,4.1,3.8,4.4l0,0h15.2c2.4,0,4.6-2,4.6-4.6c0-2.5-2-4.6-4.6-4.6h-15.2
		l0,0C442.1,332.7,440.5,334.6,440.5,336.9z"/>
	<path id="path58" fill="#02809E" d="M196.6,440.8c0-2.2-1.6-4.1-3.8-4.4l0,0h-15.2c-2.4,0-4.6,2-4.6,4.6c0,2.5,2.1,4.6,4.6,4.6
		h15.2l0,0C195.1,444.6,196.6,442.7,196.6,440.8z"/>
	<path id="path60" fill="#02809E" d="M196.6,455c0-2.2-1.6-4.1-3.8-4.4l0,0h-15.2c-2.4,0-4.6,2.1-4.6,4.6c0,2.4,2.1,4.6,4.6,4.6
		h15.2l0,0C195.1,459.1,196.6,457.4,196.6,455z"/>
	<path id="path62" fill="#02809E" d="M196.6,469.6c0-2.2-1.6-4.1-3.8-4.4l0,0h-15.2c-2.4,0-4.6,2.1-4.6,4.6c0,2.5,2.1,4.6,4.6,4.6
		h15.2l0,0C195.1,473.6,196.6,471.8,196.6,469.6z"/>
	<rect id="rect64" x="137.9" y="433" fill="#02809E" width="44.7" height="42.7"/>
	<rect id="rect66" x="130" y="438.3" fill="#02809E" width="11.1" height="32.2"/>
	<circle id="circle68" fill="#02809E" cx="237.1" cy="246.1" r="3.8"/>
	<path id="path70" fill="#02809E" d="M237.1,236.3c-5.4,0-9.8,4.4-9.8,9.8s4.4,9.8,9.8,9.8s9.8-4.4,9.8-9.8
		C246.8,240.7,242.5,236.3,237.1,236.3z M237.1,254.9c-4.8,0-8.9-3.8-8.9-8.9c0-5,3.8-8.9,8.9-8.9c5,0,8.8,3.8,8.8,8.9
		C245.9,250.9,241.8,254.9,237.1,254.9z"/>
	<circle id="circle72" fill="#02809E" cx="135.9" cy="544.6" r="3.8"/>
	<path id="path74" fill="#02809E" d="M135.9,534.9c-5.4,0-9.8,4.4-9.8,9.8c0,5.4,4.4,9.8,9.8,9.8s9.8-4.4,9.8-9.9
		C145.7,539.2,141.3,534.9,135.9,534.9z M135.9,553.4c-4.7,0-8.9-3.8-8.9-8.9c0-4.7,3.8-8.8,8.9-8.8c4.7,0,8.9,3.8,8.9,8.8
		C144.7,549.4,140.6,553.4,135.9,553.4z"/>
	<circle id="circle76" fill="#02809E" cx="506.6" cy="302.4" r="3.8"/>
	<path id="path78" fill="#02809E" d="M506.6,292.4c-5.4,0-9.8,4.4-9.8,9.8s4.4,9.8,9.8,9.8s9.8-4.4,9.8-9.8
		C516.5,296.9,512,292.4,506.6,292.4z M506.6,311c-4.7,0-8.8-3.8-8.8-8.9c0-5,3.8-8.9,8.8-8.9c4.8,0,8.9,3.8,8.9,8.9
		C515.4,307.1,511.5,311,506.6,311z"/>
	<circle id="circle80" fill="#02809E" cx="138.8" cy="287.4" r="9.6"/>
	<circle id="circle82" fill="#02809E" cx="138.8" cy="364" r="9.6"/>
	<rect id="rect84" x="192.8" y="306.4" fill="#02809E" width="63.1" height="35.6"/>
	<rect id="rect86" x="207.3" y="475.4" fill="#02809E" width="38.9" height="17.7"/>
	<rect id="rect88" x="209.4" y="403.3" fill="#02809E" width="35.6" height="20.7"/>
	<rect id="rect90" x="295.4" y="436.9" fill="#02809E" width="213.7" height="47.4"/>
	<circle id="circle92" fill="#02809E" cx="188" cy="510.6" r="12.5"/>
	<path id="path94" fill="#02809E" d="M171.7,528.3c7,0,12.5,5.7,12.5,12.5c0,6.8-5.7,12.5-12.5,12.5s-12.5-5.7-12.5-12.5
		C159.3,533.9,164.7,528.3,171.7,528.3z"/>
	<path id="path96" fill="#02809E" d="M256.3,536.2c0.9-2.4,1.6-5.2,1.6-8c0-12-9.8-22-22-22c-12,0-22,9.8-22,22
		c0,5.7,2.2,10.9,5.7,14.8L256.3,536.2z"/>
	<path id="path98" fill="#02809E" d="M307.6,536.2c0.9-2.4,1.6-5.2,1.6-8c0-12-9.8-22-22-22c-12,0-22,9.8-22,22
		c0,5.7,2.2,10.9,5.7,14.8L307.6,536.2z"/>
	<path id="path100" fill="#8D8C8C" d="M293.3,330.9c0-2.2-1.6-4.1-3.8-4.4l0,0h-15c-2.4,0-4.6,2.1-4.6,4.6c0,2.4,2,4.6,4.6,4.6h15.2
		l0,0C291.7,335,293.3,333.2,293.3,330.9z"/>
	<rect id="rect102" x="277.9" y="327.3" fill="#FBBE0E" width="8" height="7"/>
	<path id="path104" fill="#8D8C8C" d="M293.3,304.2c0-2.2-1.6-4.1-3.8-4.4l0,0h-15c-2.4,0-4.6,2-4.6,4.6c0,2.5,2,4.6,4.6,4.6h15.2
		l0,0C291.7,308.3,293.3,306.4,293.3,304.2z"/>
	<rect id="rect106" x="277.9" y="300.6" fill="#FBBE0E" width="8" height="7"/>
	<path id="path108" fill="#8D8C8C" d="M492.2,336.9c0-2.2-1.6-4.1-3.8-4.4l0,0h-15.2c-2.4,0-4.6,2.1-4.6,4.6s2.1,4.6,4.6,4.6h15.2
		l0,0C490.6,340.9,492.2,339.1,492.2,336.9z"/>
	<rect id="rect110" x="476.7" y="333.2" fill="#FBBE0E" width="8.2" height="7"/>
	<path id="path112" fill="#8D8C8C" d="M293.3,344.4c0-2.2-1.6-4.1-3.8-4.4l0,0h-15c-2.4,0-4.6,2-4.6,4.6c0,2.5,2,4.6,4.6,4.6h15.2
		l0,0C291.7,348.4,293.3,346.6,293.3,344.4z"/>
	<rect id="rect114" x="277.9" y="340.7" fill="#FBBE0E" width="8" height="7"/>
	<rect id="rect116" x="443.2" y="376" fill="#8D8C8C" width="36.7" height="37.4"/>
	<path id="path118" fill="#404040" d="M479.1,381.2c0,1.8-1.6,3.4-3.4,3.4c-1.8,0-3.4-1.6-3.4-3.4s1.6-3.4,3.4-3.4
		C477.5,377.9,479.1,379.5,479.1,381.2z"/>
	<path id="path120" fill="#404040" d="M450.9,381.2c0,1.8-1.6,3.4-3.4,3.4s-3.4-1.6-3.4-3.4s1.6-3.4,3.4-3.4
		S450.9,379.5,450.9,381.2z"/>
	<circle id="circle122" fill="#404040" cx="447.5" cy="409.5" r="3.4"/>
	<circle id="circle124" fill="#404040" cx="475.7" cy="409.5" r="3.4"/>
	<circle id="circle126" fill="#404040" cx="460.9" cy="394.9" r="10.9"/>
	<polygon id="polygon128" fill="#404040" points="531.7,364.6 523,364.6 515.6,364.6 507,364.6 503.6,367.9 503.6,376.6 507,379.9 
		515.6,379.9 523,379.9 531.7,379.9 534.9,376.6 534.9,367.9 	"/>
	<polygon id="polygon130" fill="#404040" points="531.7,380.4 523,380.4 515.6,380.4 507,380.4 503.6,383.8 503.6,392.4 507,395.8 
		515.6,395.8 523,395.8 531.7,395.8 534.9,392.4 534.9,383.8 	"/>
	<polygon id="polygon132" fill="#404040" points="531.7,396.2 523,396.2 515.6,396.2 507,396.2 503.6,399.7 503.6,408.3 507,411.5 
		515.6,411.5 523,411.5 531.7,411.5 534.9,408.3 534.9,399.7 	"/>
	<polygon id="polygon134" fill="#404040" points="531.7,364.6 523,364.6 515.6,364.6 507,364.6 503.6,367.9 503.6,376.6 507,379.9 
		515.6,379.9 523,379.9 531.7,379.9 534.9,376.6 534.9,367.9 	"/>
	<polygon id="polygon136" fill="#404040" points="531.7,380.4 523,380.4 515.6,380.4 507,380.4 503.6,383.8 503.6,392.4 507,395.8 
		515.6,395.8 523,395.8 531.7,395.8 534.9,392.4 534.9,383.8 	"/>
	<polygon id="polygon138" fill="#404040" points="531.7,396.2 523,396.2 515.6,396.2 507,396.2 503.6,399.7 503.6,408.3 507,411.5 
		515.6,411.5 523,411.5 531.7,411.5 534.9,408.3 534.9,399.7 	"/>
	<rect id="rect140" x="509" y="401" fill="#8D8C8C" width="5" height="5"/>
	<rect id="rect142" x="524.9" y="401" fill="#8D8C8C" width="5" height="5"/>
	<rect id="rect144" x="509" y="385.2" fill="#8D8C8C" width="5" height="5"/>
	<rect id="rect146" x="524.9" y="385.2" fill="#8D8C8C" width="5" height="5"/>
	<rect id="rect148" x="509" y="369.2" fill="#8D8C8C" width="5" height="5"/>
	<rect id="rect150" x="524.9" y="369.2" fill="#8D8455" width="5" height="5"/>
	<polygon id="polygon152" fill="#404040" points="150.4,380.2 141.8,380.2 150.4,380.2 141.8,380.2 138.4,383.4 138.4,392 
		141.8,395.4 150.4,395.4 141.8,395.4 150.4,395.4 153.8,392 153.8,383.4 	"/>
	<rect id="rect154" x="526" y="370.6" fill="#8C8663" width="2.8" height="2.4"/>
	<polygon id="polygon156" fill="#B8AF82" points="524.9,369.2 526,370.6 528.7,370.6 529.8,369.2 	"/>
	<polygon id="polygon158" fill="#80795B" points="528.7,373.1 528.7,370.6 529.8,369.2 529.8,374.4 	"/>
	<polygon id="polygon160" fill="#5E5B43" points="526,373.1 528.7,373.1 529.8,374.4 524.9,374.4 	"/>
	<polygon id="polygon162" fill="#9A916C" points="524.9,369.2 526,370.6 526,373.1 524.9,374.4 	"/>
	<rect id="rect164" x="510.2" y="370.6" fill="#8C8663" width="2.4" height="2.4"/>
	<polygon id="polygon166" fill="#B8AF82" points="509,369.2 510.2,370.6 512.9,370.6 514,369.2 	"/>
	<polygon id="polygon168" fill="#80795B" points="512.9,373.1 512.9,370.6 514,369.2 514,374.4 	"/>
	<polygon id="polygon170" fill="#5E5B43" points="510.2,373.1 512.9,373.1 514,374.4 509,374.4 	"/>
	<polygon id="polygon172" fill="#9A916C" points="509,369.2 510.2,370.6 510.2,373.1 509,374.4 	"/>
	<rect id="rect174" x="526" y="386.5" fill="#8C8663" width="2.8" height="2.4"/>
	<polygon id="polygon176" fill="#B8AF82" points="524.9,385.2 526,386.5 528.7,386.5 529.8,385.2 	"/>
	<polygon id="polygon178" fill="#80795B" points="528.7,389 528.7,386.5 529.8,385.2 529.8,390.4 	"/>
	<polygon id="polygon180" fill="#5E5B43" points="526,389 528.7,389 529.8,390.4 524.9,390.4 	"/>
	<polygon id="polygon182" fill="#9A916C" points="524.9,385.2 526,386.5 526,389 524.9,390.4 	"/>
	<rect id="rect184" x="510.2" y="386.5" fill="#8C8663" width="2.4" height="2.4"/>
	<polygon id="polygon186" fill="#B8AF82" points="509,385.2 510.2,386.5 512.9,386.5 514,385.2 	"/>
	<polygon id="polygon188" fill="#80795B" points="512.9,389 512.9,386.5 514,385.2 514,390.4 	"/>
	<polygon id="polygon190" fill="#5E5B43" points="510.2,389 512.9,389 514,390.4 509,390.4 	"/>
	<polygon id="polygon192" fill="#9A916C" points="509,385.2 510.2,386.5 510.2,389 509,390.4 	"/>
	<rect id="rect194" x="526" y="402.4" fill="#8C8663" width="2.8" height="2.4"/>
	<polygon id="polygon196" fill="#B8AF82" points="524.9,401 526,402.4 528.7,402.4 529.8,401 	"/>
	<polygon id="polygon198" fill="#80795B" points="528.7,404.9 528.7,402.4 529.8,401 529.8,406.3 	"/>
	<polygon id="polygon200" fill="#5E5B43" points="526,404.9 528.7,404.9 529.8,406.3 524.9,406.3 	"/>
	<polygon id="polygon202" fill="#9A916C" points="524.9,401 526,402.4 526,404.9 524.9,406.3 	"/>
	<rect id="rect204" x="510.2" y="402.4" fill="#8C8663" width="2.4" height="2.4"/>
	<polygon id="polygon206" fill="#B8AF82" points="509,401 510.2,402.4 512.9,402.4 514,401 	"/>
	<polygon id="polygon208" fill="#80795B" points="512.9,404.9 512.9,402.4 514,401 514,406.3 	"/>
	<polygon id="polygon210" fill="#5E5B43" points="510.2,404.9 512.9,404.9 514,406.3 509,406.3 	"/>
	<polygon id="polygon212" fill="#9A916C" points="509,401 510.2,402.4 510.2,404.9 509,406.3 	"/>
	<rect id="rect214" x="144.9" y="386.5" fill="#8C8663" width="2.4" height="2.4"/>
	<polygon id="polygon216" fill="#B8AF82" points="143.6,385.2 144.9,386.5 147.4,386.5 148.8,385.2 	"/>
	<polygon id="polygon218" fill="#80795B" points="147.4,389 147.4,386.5 148.8,385.2 148.8,390.4 	"/>
	<polygon id="polygon220" fill="#5E5B43" points="144.9,389 147.4,389 148.8,390.4 143.6,390.4 	"/>
	<polygon id="polygon222" fill="#9A916C" points="143.6,385.2 144.9,386.5 144.9,389 143.6,390.4 	"/>
	<polygon id="polygon224" fill="#404040" points="150.4,396.1 141.8,396.1 150.4,396.1 141.8,396.1 138.4,399.2 138.4,408.1 
		141.8,411.2 150.4,411.2 141.8,411.2 150.4,411.2 153.8,408.1 153.8,399.2 	"/>
	<rect id="rect226" x="144.9" y="402.4" fill="#8C8663" width="2.4" height="2.4"/>
	<polygon id="polygon228" fill="#B8AF82" points="143.6,401 144.9,402.4 147.4,402.4 148.8,401 	"/>
	<polygon id="polygon230" fill="#80795B" points="147.4,404.9 147.4,402.4 148.8,401 148.8,406.3 	"/>
	<polygon id="polygon232" fill="#5E5B43" points="144.9,404.9 147.4,404.9 148.8,406.3 143.6,406.3 	"/>
	<polygon id="polygon234" fill="#9A916C" points="143.6,401 144.9,402.4 144.9,404.9 143.6,406.3 	"/>
	<polygon id="polygon236" fill="#404040" points="150.4,411.9 141.8,411.9 150.4,411.9 141.8,411.9 138.4,415.1 138.4,423.7 
		141.8,427.1 150.4,427.1 141.8,427.1 150.4,427.1 153.8,423.7 153.8,415.1 	"/>
	<rect id="rect238" x="144.9" y="418.3" fill="#8C8663" width="2.4" height="2.8"/>
	<polygon id="polygon240" fill="#B8AF82" points="143.6,416.9 144.9,418.3 147.4,418.3 148.8,416.9 	"/>
	<polygon id="polygon242" fill="#80795B" points="147.4,420.7 147.4,418.3 148.8,416.9 148.8,421.9 	"/>
	<polygon id="polygon244" fill="#5E5B43" points="144.9,420.7 147.4,420.7 148.8,421.9 143.6,421.9 	"/>
	<polygon id="polygon246" fill="#9A916C" points="143.6,416.9 144.9,418.3 144.9,420.7 143.6,421.9 	"/>
	<path id="path248" d="M143.6,385.2v5h5v-5H143.6z M148.1,389.7h-3.8v-3.8h3.8V389.7L148.1,389.7z"/>
	<path id="path250" d="M143.6,401v5h5v-5H143.6z M148.1,405.6h-3.8v-3.8h3.8V405.6L148.1,405.6z"/>
	<path id="path252" d="M138.4,380.2v31.3h15.5v-31.3H138.4L138.4,380.2z M148.8,406.3h-5v-5h5V406.3L148.8,406.3z M148.8,390.4h-5
		v-5h5V390.4L148.8,390.4z"/>
	<rect id="rect256" x="144.3" y="390.4" fill="#4D4726" width="3.8" height="1.1"/>
	<rect id="rect258" x="144.3" y="399.9" fill="#4D4726" width="3.8" height="1.1"/>
	<polygon id="polygon260" fill="#262626" points="138.4,380.2 138.4,391.5 142,391.5 142,384.2 150.1,384.2 150.1,391.5 
		153.8,391.5 153.8,380.2 	"/>
	<polygon id="polygon262" fill="#262626" points="153.8,411.2 153.8,399.9 150.1,399.9 150.1,406.9 142,406.9 142,399.9 
		138.6,399.9 138.6,411.2 	"/>
	<g enable-background="new    ">
		<path fill="#CCCCCC" d="M324,357.1v-13.8h4.7c1.1,0,1.9,0.1,2.4,0.2c0.8,0.2,1.5,0.5,2,1c0.7,0.6,1.3,1.4,1.6,2.4
			c0.4,0.9,0.5,2.1,0.5,3.3c0,1.1-0.2,2-0.4,2.8c-0.2,0.8-0.5,1.5-0.9,2c-0.4,0.5-0.8,0.9-1.2,1.2c-0.5,0.3-1,0.5-1.6,0.7
			c-0.6,0.2-1.4,0.2-2.2,0.2H324L324,357.1z M325.8,355.5h2.9c0.9,0,1.6-0.1,2.1-0.2s0.9-0.4,1.2-0.7c0.5-0.5,0.8-1,1-1.8
			c0.2-0.8,0.4-1.6,0.4-2.7c0-1.5-0.2-2.5-0.7-3.3c-0.5-0.8-1.1-1.3-1.7-1.5c-0.5-0.2-1.3-0.3-2.4-0.3h-2.9L325.8,355.5L325.8,355.5
			z"/>
		<path fill="#CCCCCC" d="M337.7,345.4v-1.9h1.7v1.9H337.7z M337.7,357.1v-9.9h1.7v9.9H337.7z"/>
		<path fill="#CCCCCC" d="M348.8,353.9l1.8,0.2c-0.3,1-0.8,1.8-1.5,2.4c-0.8,0.5-1.7,0.8-2.8,0.8c-1.5,0-2.6-0.5-3.4-1.4
			c-0.8-0.9-1.3-2.1-1.3-3.7c0-1.7,0.5-3,1.3-3.9c0.8-0.9,2-1.4,3.4-1.4c1.3,0,2.4,0.5,3.3,1.4c0.8,0.9,1.3,2.2,1.3,3.8
			c0,0.1,0,0.2,0,0.5h-7.4c0.1,1.1,0.4,1.9,0.9,2.5c0.5,0.6,1.2,0.8,2.1,0.8c0.6,0,1.1-0.2,1.6-0.5
			C348.3,355.2,348.5,354.6,348.8,353.9z M343.2,351.2h5.6c-0.1-0.8-0.3-1.5-0.6-1.9c-0.5-0.6-1.2-1-2.1-1c-0.8,0-1.5,0.2-2,0.8
			C343.6,349.6,343.3,350.3,343.2,351.2z"/>
		<path fill="#CCCCCC" d="M359.1,353.5l1.7,0.2c-0.2,1.1-0.6,2.1-1.4,2.7c-0.8,0.6-1.7,1-2.8,1c-1.4,0-2.4-0.5-3.3-1.3
			c-0.8-0.8-1.2-2.1-1.2-3.8c0-1.1,0.2-2,0.5-2.8c0.4-0.8,0.9-1.4,1.6-1.8c0.7-0.5,1.5-0.6,2.4-0.6c1.1,0,2,0.3,2.7,0.8
			c0.7,0.5,1.1,1.3,1.3,2.3l-1.6,0.2c-0.2-0.7-0.5-1.1-0.8-1.5c-0.4-0.3-0.8-0.5-1.5-0.5c-0.8,0-1.5,0.3-2.1,0.9
			c-0.5,0.6-0.8,1.6-0.8,2.9c0,1.4,0.2,2.3,0.8,2.9c0.5,0.6,1.1,0.9,2,0.9c0.7,0,1.2-0.2,1.7-0.6C358.7,355,359,354.3,359.1,353.5z"
			/>
		<path fill="#CCCCCC" d="M362.2,345.4v-1.9h1.7v1.9H362.2z M362.2,357.1v-9.9h1.7v9.9H362.2z"/>
		<path fill="#CCCCCC" d="M366.5,357.1v-9.9h1.5v1.4c0.3-0.5,0.8-0.9,1.2-1.1c0.5-0.3,1.1-0.5,1.8-0.5c0.8,0,1.4,0.2,1.8,0.5
			c0.5,0.3,0.8,0.8,1,1.3c0.8-1.1,1.8-1.8,3.1-1.8c1,0,1.8,0.3,2.3,0.8c0.5,0.5,0.8,1.4,0.8,2.5v6.8h-1.7v-6.3
			c0-0.7-0.1-1.1-0.2-1.5s-0.3-0.5-0.6-0.7c-0.3-0.2-0.6-0.3-1-0.3c-0.7,0-1.3,0.2-1.8,0.7c-0.5,0.5-0.7,1.2-0.7,2.2v5.8h-1.7v-6.5
			c0-0.8-0.2-1.3-0.4-1.7c-0.3-0.4-0.7-0.5-1.4-0.5c-0.5,0-0.9,0.2-1.3,0.4c-0.4,0.2-0.7,0.6-0.8,1.1s-0.3,1.1-0.3,2.1v5.2H366.5
			L366.5,357.1z"/>
		<path fill="#CCCCCC" d="M382.5,345.4v-1.9h1.7v1.9H382.5z M382.5,357.1v-9.9h1.7v9.9H382.5z"/>
		<path fill="#CCCCCC" d="M386.7,357.1v-13.8h1.7v13.8H386.7z"/>
		<path fill="#CCCCCC" d="M397.5,355.9c-0.6,0.5-1.2,0.9-1.8,1.1s-1.2,0.3-1.8,0.3c-1.1,0-1.9-0.2-2.5-0.8c-0.6-0.5-0.9-1.2-0.9-2.1
			c0-0.5,0.1-0.9,0.3-1.3s0.5-0.8,0.8-1c0.4-0.2,0.8-0.5,1.2-0.5c0.3-0.1,0.8-0.2,1.5-0.2c1.4-0.2,2.4-0.4,3-0.6c0-0.2,0-0.4,0-0.5
			c0-0.7-0.2-1.1-0.5-1.5c-0.5-0.4-1.1-0.5-1.9-0.5c-0.8,0-1.4,0.2-1.8,0.4c-0.4,0.3-0.7,0.8-0.8,1.5l-1.7-0.2
			c0.2-0.7,0.4-1.3,0.8-1.7c0.4-0.5,0.8-0.8,1.5-1c0.6-0.2,1.4-0.4,2.3-0.4c0.8,0,1.5,0.1,2.1,0.3c0.5,0.2,0.9,0.5,1.1,0.8
			s0.5,0.7,0.5,1.1c0.1,0.3,0.1,0.8,0.1,1.5v2.2c0,1.6,0,2.5,0.1,3c0.1,0.4,0.2,0.8,0.5,1.2h-1.8
			C397.7,356.8,397.6,356.4,397.5,355.9z M397.4,352.2c-0.6,0.2-1.5,0.5-2.8,0.6c-0.7,0.1-1.1,0.2-1.5,0.3c-0.3,0.2-0.5,0.3-0.7,0.5
			c-0.2,0.2-0.2,0.5-0.2,0.8c0,0.5,0.2,0.8,0.5,1.1c0.4,0.3,0.8,0.5,1.5,0.5c0.6,0,1.2-0.2,1.8-0.5c0.5-0.3,0.8-0.7,1.1-1.1
			c0.2-0.4,0.3-0.9,0.3-1.7v-0.5H397.4L397.4,352.2z"/>
	</g>
	<g enable-background="new    ">
		<path fill="#CCCCCC" d="M328,334.5l5.3-13.8h2l5.7,13.8h-2.1l-1.6-4.1h-5.7l-1.5,4.1H328z M332,328.8h4.7l-1.5-3.8
			c-0.5-1.1-0.8-2.1-1-2.8c-0.2,0.9-0.5,1.8-0.8,2.6L332,328.8z"/>
		<path fill="#CCCCCC" d="M342.2,334.5v-9.9h1.5v1.5c0.4-0.7,0.8-1.1,1.1-1.4s0.7-0.3,1.1-0.3c0.5,0,1.1,0.2,1.8,0.5l-0.6,1.5
			c-0.4-0.2-0.8-0.4-1.2-0.4c-0.4,0-0.7,0.1-1,0.3c-0.3,0.2-0.5,0.5-0.6,0.9c-0.2,0.6-0.3,1.2-0.3,2v5.2H342.2L342.2,334.5z"/>
		<path fill="#CCCCCC" d="M355,334.5v-1.2c-0.6,1-1.5,1.5-2.8,1.5c-0.8,0-1.5-0.2-2.2-0.7c-0.7-0.5-1.1-1.1-1.5-1.8
			c-0.4-0.8-0.5-1.7-0.5-2.7c0-1,0.2-1.9,0.5-2.7c0.3-0.8,0.8-1.5,1.5-1.8c0.7-0.5,1.4-0.6,2.2-0.6c0.6,0,1.1,0.2,1.6,0.4
			c0.5,0.2,0.8,0.6,1.1,1v-4.9h1.7v13.8H355V334.5z M349.7,329.5c0,1.3,0.3,2.2,0.8,2.8c0.5,0.6,1.1,0.9,1.9,0.9
			c0.8,0,1.4-0.3,1.9-0.9c0.5-0.6,0.8-1.5,0.8-2.8c0-1.4-0.2-2.4-0.8-3c-0.5-0.6-1.1-1-1.9-1c-0.8,0-1.4,0.3-1.9,0.9
			C349.9,327.2,349.7,328.2,349.7,329.5z"/>
		<path fill="#CCCCCC" d="M365.7,334.5V333c-0.8,1.1-1.8,1.7-3.1,1.7c-0.6,0-1.1-0.1-1.7-0.3c-0.5-0.2-0.9-0.5-1.1-0.8
			s-0.5-0.8-0.5-1.2c-0.1-0.3-0.1-0.8-0.1-1.6v-6.2h1.7v5.5c0,0.9,0,1.5,0.1,1.8c0.1,0.5,0.3,0.8,0.7,1.1c0.4,0.3,0.8,0.4,1.3,0.4
			c0.5,0,1-0.2,1.5-0.4c0.5-0.2,0.8-0.6,0.9-1.1c0.2-0.5,0.3-1.1,0.3-1.9v-5.4h1.7v9.9H365.7z"/>
		<path fill="#CCCCCC" d="M370,322.7v-1.9h1.7v1.9H370z M370,334.5v-9.9h1.7v9.9H370z"/>
		<path fill="#CCCCCC" d="M374.2,334.5v-9.9h1.5v1.5c0.8-1.1,1.8-1.6,3.1-1.6c0.6,0,1.1,0.1,1.7,0.3c0.5,0.2,0.9,0.5,1.1,0.8
			s0.5,0.8,0.5,1.2c0.1,0.3,0.1,0.8,0.1,1.6v6.1h-1.7v-6c0-0.7-0.1-1.2-0.2-1.5c-0.2-0.3-0.4-0.6-0.7-0.8c-0.3-0.2-0.8-0.3-1.1-0.3
			c-0.7,0-1.4,0.2-1.8,0.7c-0.5,0.5-0.8,1.3-0.8,2.6v5.4H374.2z"/>
		<path fill="#CCCCCC" d="M384.3,329.5c0-1.8,0.5-3.2,1.5-4.1c0.8-0.8,1.9-1.1,3.1-1.1c1.4,0,2.5,0.5,3.4,1.4
			c0.8,0.9,1.3,2.1,1.3,3.7c0,1.3-0.2,2.3-0.6,3.1c-0.4,0.8-0.9,1.3-1.7,1.7c-0.8,0.4-1.5,0.6-2.4,0.6c-1.4,0-2.5-0.5-3.4-1.4
			C384.7,332.5,384.3,331.2,384.3,329.5z M386,329.5c0,1.3,0.3,2.2,0.8,2.8c0.5,0.6,1.2,0.9,2.1,0.9s1.5-0.3,2.1-1
			c0.5-0.6,0.8-1.6,0.8-2.9c0-1.2-0.3-2.1-0.8-2.8c-0.5-0.6-1.2-0.9-2.1-0.9s-1.5,0.3-2.1,0.9C386.2,327.3,386,328.2,386,329.5z"/>
	</g>
	<rect id="rect390" x="71.9" y="288.7" fill="#676666" width="83.8" height="74.8"/>
	<rect id="rect392" x="155.6" y="288.7" fill="#676666" width="17.7" height="74.8"/>
	<rect id="rect394" x="105.2" y="487.4" width="82.2" height="52.6"/>
	<rect id="rect396" x="104.6" y="484.5" width="17" height="57.8"/>
	<rect id="rect398" x="249.5" y="236.8" fill="#404040" width="15.8" height="15.8"/>
	<rect id="rect400" x="254.3" y="241.8" width="6.1" height="6.2"/>
	<polygon id="polygon402" fill="#2A2A29" points="252.1,239.6 254.3,241.8 260.3,241.8 262.7,239.6 	"/>
	<polygon id="polygon404" fill="#474747" points="262.7,239.6 260.3,241.8 260.3,247.9 262.7,250.2 	"/>
	<polygon id="polygon406" fill="#595959" points="262.7,250.2 260.3,247.9 254.3,247.9 252.1,250.2 	"/>
	<polygon id="polygon408" fill="#373737" points="252.1,250.2 254.3,247.9 254.3,241.8 252.1,239.6 	"/>
	<rect id="rect410" x="265.1" y="236.8" fill="#404040" width="15.8" height="15.8"/>
	<rect id="rect412" x="270.1" y="241.8" width="6.2" height="6.2"/>
	<polygon id="polygon414" fill="#2A2A29" points="267.9,239.6 270.1,241.8 276.3,241.8 278.5,239.6 	"/>
	<polygon id="polygon416" fill="#474747" points="278.5,239.6 276.3,241.8 276.3,247.9 278.5,250.2 	"/>
	<polygon id="polygon418" fill="#595959" points="278.5,250.2 276.3,247.9 270.1,247.9 267.9,250.2 	"/>
	<polygon id="polygon420" fill="#373737" points="267.9,250.2 270.1,247.9 270.1,241.8 267.9,239.6 	"/>
	<rect id="rect422" x="281" y="236.8" fill="#404040" width="15.8" height="15.8"/>
	<rect id="rect424" x="286" y="241.8" width="6.1" height="6.2"/>
	<polygon id="polygon426" fill="#2A2A29" points="283.7,239.6 286,241.8 292.2,241.8 294.4,239.6 	"/>
	<polygon id="polygon428" fill="#474747" points="294.4,239.6 292.2,241.8 292.2,247.9 294.4,250.2 	"/>
	<polygon id="polygon430" fill="#595959" points="294.4,250.2 292.2,247.9 286,247.9 283.7,250.2 	"/>
	<polygon id="polygon432" fill="#373737" points="283.7,250.2 286,247.9 286,241.8 283.7,239.6 	"/>
	<rect id="rect434" x="297" y="236.8" fill="#404040" width="15.8" height="15.8"/>
	<rect id="rect436" x="301.6" y="241.8" width="6.2" height="6.2"/>
	<polygon id="polygon438" fill="#2A2A29" points="299.4,239.6 301.6,241.8 307.8,241.8 310.1,239.6 	"/>
	<polygon id="polygon440" fill="#474747" points="310.1,239.6 307.8,241.8 307.8,247.9 310.1,250.2 	"/>
	<polygon id="polygon442" fill="#595959" points="310.1,250.2 307.8,247.9 301.6,247.9 299.4,250.2 	"/>
	<polygon id="polygon444" fill="#373737" points="299.4,250.2 301.6,247.9 301.6,241.8 299.4,239.6 	"/>
	<rect id="rect446" x="344.8" y="538.7" fill="#404040" width="15.8" height="15.8"/>
	<rect id="rect448" x="349.5" y="543.5" width="6.2" height="6.1"/>
	<polygon id="polygon450" fill="#2A2A29" points="347.3,541.2 349.5,543.5 355.6,543.5 357.9,541.2 	"/>
	<polygon id="polygon452" fill="#474747" points="357.9,541.2 355.6,543.5 355.6,549.6 357.9,551.9 	"/>
	<polygon id="polygon454" fill="#595959" points="357.9,551.9 355.6,549.6 349.5,549.6 347.3,551.9 	"/>
	<polygon id="polygon456" fill="#373737" points="347.3,551.9 349.5,549.6 349.5,543.5 347.3,541.2 	"/>
	<rect id="rect458" x="328.9" y="538.7" fill="#404040" width="15.8" height="15.8"/>
	<rect id="rect460" x="333.7" y="543.5" width="6.2" height="6.1"/>
	<polygon id="polygon462" fill="#2A2A29" points="331.4,541.2 333.7,543.5 339.8,543.5 342,541.2 	"/>
	<polygon id="polygon464" fill="#474747" points="342,541.2 339.8,543.5 339.8,549.6 342,551.9 	"/>
	<polygon id="polygon466" fill="#595959" points="342,551.9 339.8,549.6 333.7,549.6 331.4,551.9 	"/>
	<polygon id="polygon468" fill="#373737" points="331.4,551.9 333.7,549.6 333.7,543.5 331.4,541.2 	"/>
	<rect id="rect470" x="313" y="538.7" fill="#404040" width="15.8" height="15.8"/>
	<rect id="rect472" x="317.8" y="543.5" width="6.2" height="6.1"/>
	<polygon id="polygon474" fill="#2A2A29" points="315.6,541.2 317.8,543.5 323.9,543.5 326.2,541.2 	"/>
	<polygon id="polygon476" fill="#474747" points="326.2,541.2 323.9,543.5 323.9,549.6 326.2,551.9 	"/>
	<polygon id="polygon478" fill="#595959" points="326.2,551.9 323.9,549.6 317.8,549.6 315.6,551.9 	"/>
	<polygon id="polygon480" fill="#373737" points="315.6,551.9 317.8,549.6 317.8,543.5 315.6,541.2 	"/>
	<rect id="rect482" x="360.5" y="538.7" fill="#404040" width="15.8" height="15.8"/>
	<rect id="rect484" x="365.4" y="543.5" width="6.2" height="6.1"/>
	<polygon id="polygon486" fill="#2A2A29" points="363.1,541.2 365.4,543.5 371.6,543.5 373.8,541.2 	"/>
	<polygon id="polygon488" fill="#474747" points="373.8,541.2 371.6,543.5 371.6,549.6 373.8,551.9 	"/>
	<polygon id="polygon490" fill="#595959" points="373.8,551.9 371.6,549.6 365.4,549.6 363.1,551.9 	"/>
	<polygon id="polygon492" fill="#373737" points="363.1,551.9 365.4,549.6 365.4,543.5 363.1,541.2 	"/>
	<rect id="rect494" x="376.3" y="538.7" fill="#404040" width="15.8" height="15.8"/>
	<rect id="rect496" x="381.4" y="543.5" width="6.2" height="6.1"/>
	<polygon id="polygon498" fill="#2A2A29" points="379,541.2 381.4,543.5 387.4,543.5 389.7,541.2 	"/>
	<polygon id="polygon500" fill="#474747" points="389.7,541.2 387.4,543.5 387.4,549.6 389.7,551.9 	"/>
	<polygon id="polygon502" fill="#595959" points="389.7,551.9 387.4,549.6 381.4,549.6 379,551.9 	"/>
	<polygon id="polygon504" fill="#373737" points="379,551.9 381.4,549.6 381.4,543.5 379,541.2 	"/>
	<rect id="rect506" x="392.2" y="538.7" fill="#404040" width="15.8" height="15.8"/>
	<rect id="rect508" x="397.2" y="543.5" width="6.2" height="6.1"/>
	<polygon id="polygon510" fill="#2A2A29" points="395,541.2 397.2,543.5 403.3,543.5 405.4,541.2 	"/>
	<polygon id="polygon512" fill="#474747" points="405.4,541.2 403.3,543.5 403.3,549.6 405.4,551.9 	"/>
	<polygon id="polygon514" fill="#595959" points="405.4,551.9 403.3,549.6 397.2,549.6 395,551.9 	"/>
	<polygon id="polygon516" fill="#373737" points="395,551.9 397.2,549.6 397.2,543.5 395,541.2 	"/>
	<rect id="rect518" x="424.2" y="538.7" fill="#404040" width="15.8" height="15.8"/>
	<rect id="rect520" x="428.9" y="543.5" width="6.1" height="6.1"/>
	<polygon id="polygon522" fill="#2A2A29" points="426.6,541.2 428.9,543.5 435.1,543.5 437.3,541.2 	"/>
	<polygon id="polygon524" fill="#474747" points="437.3,541.2 435.1,543.5 435.1,549.6 437.3,551.9 	"/>
	<polygon id="polygon526" fill="#595959" points="437.3,551.9 435.1,549.6 428.9,549.6 426.6,551.9 	"/>
	<polygon id="polygon528" fill="#373737" points="426.6,551.9 428.9,549.6 428.9,543.5 426.6,541.2 	"/>
	<rect id="rect530" x="440" y="538.7" fill="#404040" width="15.8" height="15.8"/>
	<rect id="rect532" x="444.8" y="543.5" width="6.1" height="6.1"/>
	<polygon id="polygon534" fill="#2A2A29" points="442.6,541.2 444.8,543.5 450.9,543.5 453.3,541.2 	"/>
	<polygon id="polygon536" fill="#474747" points="453.3,541.2 450.9,543.5 450.9,549.6 453.3,551.9 	"/>
	<polygon id="polygon538" fill="#595959" points="453.3,551.9 450.9,549.6 444.8,549.6 442.6,551.9 	"/>
	<polygon id="polygon540" fill="#373737" points="442.6,551.9 444.8,549.6 444.8,543.5 442.6,541.2 	"/>
	<rect id="rect542" x="455.7" y="538.7" fill="#404040" width="15.8" height="15.8"/>
	<rect id="rect544" x="460.7" y="543.5" width="6.1" height="6.1"/>
	<polygon id="polygon546" fill="#2A2A29" points="458.5,541.2 460.7,543.5 466.8,543.5 469.1,541.2 	"/>
	<polygon id="polygon548" fill="#474747" points="469.1,541.2 466.8,543.5 466.8,549.6 469.1,551.9 	"/>
	<polygon id="polygon550" fill="#595959" points="469.1,551.9 466.8,549.6 460.7,549.6 458.5,551.9 	"/>
	<polygon id="polygon552" fill="#373737" points="458.5,551.9 460.7,549.6 460.7,543.5 458.5,541.2 	"/>
	<rect id="rect554" x="471.5" y="538.7" fill="#404040" width="15.8" height="15.8"/>
	<rect id="rect556" x="476.6" y="543.5" width="6.1" height="6.1"/>
	<polygon id="polygon558" fill="#2A2A29" points="474.3,541.2 476.6,543.5 482.5,543.5 484.9,541.2 	"/>
	<polygon id="polygon560" fill="#474747" points="484.9,541.2 482.5,543.5 482.5,549.6 484.9,551.9 	"/>
	<polygon id="polygon562" fill="#595959" points="484.9,551.9 482.5,549.6 476.6,549.6 474.3,551.9 	"/>
	<polygon id="polygon564" fill="#373737" points="474.3,551.9 476.6,549.6 476.6,543.5 474.3,541.2 	"/>
	<rect id="rect566" x="487.5" y="538.7" fill="#404040" width="15.8" height="15.8"/>
	<rect id="rect568" x="492.2" y="543.5" width="6.1" height="6.1"/>
	<polygon id="polygon570" fill="#2A2A29" points="490.2,541.2 492.2,543.5 498.4,543.5 500.6,541.2 	"/>
	<polygon id="polygon572" fill="#474747" points="500.6,541.2 498.4,543.5 498.4,549.6 500.6,551.9 	"/>
	<polygon id="polygon574" fill="#595959" points="500.6,551.9 498.4,549.6 492.2,549.6 490.2,551.9 	"/>
	<polygon id="polygon576" fill="#373737" points="490.2,551.9 492.2,549.6 492.2,543.5 490.2,541.2 	"/>
	<rect id="rect578" x="503.4" y="538.7" fill="#404040" width="15.8" height="15.8"/>
	<rect id="rect580" x="508" y="543.5" width="6.1" height="6.1"/>
	<polygon id="polygon582" fill="#2A2A29" points="505.8,541.2 508,543.5 514.2,543.5 516.5,541.2 	"/>
	<polygon id="polygon584" fill="#474747" points="516.5,541.2 514.2,543.5 514.2,549.6 516.5,551.9 	"/>
	<polygon id="polygon586" fill="#595959" points="516.5,551.9 514.2,549.6 508,549.6 505.8,551.9 	"/>
	<polygon id="polygon588" fill="#373737" points="505.8,551.9 508,549.6 508,543.5 505.8,541.2 	"/>
	<rect id="rect590" x="312.8" y="236.8" fill="#404040" width="15.8" height="15.8"/>
	<rect id="rect592" x="317.6" y="241.8" width="6.2" height="6.2"/>
	<polygon id="polygon594" fill="#2A2A29" points="315.3,239.6 317.6,241.8 323.7,241.8 326,239.6 	"/>
	<polygon id="polygon596" fill="#474747" points="326,239.6 323.7,241.8 323.7,247.9 326,250.2 	"/>
	<polygon id="polygon598" fill="#595959" points="326,250.2 323.7,247.9 317.6,247.9 315.3,250.2 	"/>
	<polygon id="polygon600" fill="#373737" points="315.3,250.2 317.6,247.9 317.6,241.8 315.3,239.6 	"/>
	<rect id="rect602" x="328.6" y="236.8" fill="#404040" width="15.8" height="15.8"/>
	<rect id="rect604" x="333.5" y="241.8" width="6.2" height="6.2"/>
	<polygon id="polygon606" fill="#2A2A29" points="331.2,239.6 333.5,241.8 339.5,241.8 341.9,239.6 	"/>
	<polygon id="polygon608" fill="#474747" points="341.9,239.6 339.5,241.8 339.5,247.9 341.9,250.2 	"/>
	<polygon id="polygon610" fill="#595959" points="341.9,250.2 339.5,247.9 333.5,247.9 331.2,250.2 	"/>
	<polygon id="polygon612" fill="#373737" points="331.2,250.2 333.5,247.9 333.5,241.8 331.2,239.6 	"/>
	<rect id="rect614" x="344.3" y="236.8" fill="#404040" width="15.8" height="15.8"/>
	<rect id="rect616" x="349.3" y="241.8" width="6.2" height="6.2"/>
	<polygon id="polygon618" fill="#2A2A29" points="347.1,239.6 349.3,241.8 355.5,241.8 357.7,239.6 	"/>
	<polygon id="polygon620" fill="#474747" points="357.7,239.6 355.5,241.8 355.5,247.9 357.7,250.2 	"/>
	<polygon id="polygon622" fill="#595959" points="357.7,250.2 355.5,247.9 349.3,247.9 347.1,250.2 	"/>
	<polygon id="polygon624" fill="#373737" points="347.1,250.2 349.3,247.9 349.3,241.8 347.1,239.6 	"/>
	<rect id="rect626" x="360.2" y="236.8" fill="#404040" width="15.8" height="15.8"/>
	<rect id="rect628" x="365.1" y="241.8" width="6.2" height="6.2"/>
	<polygon id="polygon630" fill="#2A2A29" points="362.9,239.6 365.1,241.8 371.3,241.8 373.3,239.6 	"/>
	<polygon id="polygon632" fill="#474747" points="373.3,239.6 371.3,241.8 371.3,247.9 373.3,250.2 	"/>
	<polygon id="polygon634" fill="#595959" points="373.3,250.2 371.3,247.9 365.1,247.9 362.9,250.2 	"/>
	<polygon id="polygon636" fill="#373737" points="362.9,250.2 365.1,247.9 365.1,241.8 362.9,239.6 	"/>
	<rect id="rect638" x="392.4" y="236.8" fill="#404040" width="15.8" height="15.8"/>
	<rect id="rect640" x="397.2" y="241.8" width="6.2" height="6.2"/>
	<polygon id="polygon642" fill="#2A2A29" points="395,239.6 397.2,241.8 403.3,241.8 405.6,239.6 	"/>
	<polygon id="polygon644" fill="#474747" points="405.6,239.6 403.3,241.8 403.3,247.9 405.6,250.2 	"/>
	<polygon id="polygon646" fill="#595959" points="405.6,250.2 403.3,247.9 397.2,247.9 395,250.2 	"/>
	<polygon id="polygon648" fill="#373737" points="395,250.2 397.2,247.9 397.2,241.8 395,239.6 	"/>
	<rect id="rect650" x="408.3" y="236.8" fill="#404040" width="15.8" height="15.8"/>
	<rect id="rect652" x="413" y="241.8" width="6.2" height="6.2"/>
	<polygon id="polygon654" fill="#2A2A29" points="410.8,239.6 413,241.8 419.2,241.8 421.4,239.6 	"/>
	<polygon id="polygon656" fill="#474747" points="421.4,239.6 419.2,241.8 419.2,247.9 421.4,250.2 	"/>
	<polygon id="polygon658" fill="#595959" points="421.4,250.2 419.2,247.9 413,247.9 410.8,250.2 	"/>
	<polygon id="polygon660" fill="#373737" points="410.8,250.2 413,247.9 413,241.8 410.8,239.6 	"/>
	<rect id="rect662" x="424" y="236.8" fill="#404040" width="15.8" height="15.8"/>
	<rect id="rect664" x="428.9" y="241.8" width="6.1" height="6.2"/>
	<polygon id="polygon666" fill="#2A2A29" points="426.6,239.6 428.9,241.8 435.1,241.8 437.3,239.6 	"/>
	<polygon id="polygon668" fill="#474747" points="437.3,239.6 435.1,241.8 435.1,247.9 437.3,250.2 	"/>
	<polygon id="polygon670" fill="#595959" points="437.3,250.2 435.1,247.9 428.9,247.9 426.6,250.2 	"/>
	<polygon id="polygon672" fill="#373737" points="426.6,250.2 428.9,247.9 428.9,241.8 426.6,239.6 	"/>
	<rect id="rect674" x="439.9" y="236.8" fill="#404040" width="15.8" height="15.8"/>
	<rect id="rect676" x="444.8" y="241.8" width="6.1" height="6.2"/>
	<polygon id="polygon678" fill="#2A2A29" points="442.6,239.6 444.6,241.8 450.9,241.8 453.3,239.6 	"/>
	<polygon id="polygon680" fill="#474747" points="453.3,239.6 450.9,241.8 450.9,247.9 453.3,250.2 	"/>
	<polygon id="polygon682" fill="#595959" points="453.3,250.2 450.9,247.9 444.6,247.9 442.6,250.2 	"/>
	<polygon id="polygon684" fill="#373737" points="442.6,250.2 444.6,247.9 444.6,241.8 442.6,239.6 	"/>
	<rect id="rect686" x="455.7" y="236.8" fill="#404040" width="15.8" height="15.8"/>
	<rect id="rect688" x="460.5" y="241.8" width="6.1" height="6.2"/>
	<polygon id="polygon690" fill="#2A2A29" points="458.2,239.6 460.5,241.8 466.6,241.8 468.9,239.6 	"/>
	<polygon id="polygon692" fill="#474747" points="468.9,239.6 466.6,241.8 466.6,247.9 468.9,250.2 	"/>
	<polygon id="polygon694" fill="#595959" points="468.9,250.2 466.6,247.9 460.5,247.9 458.2,250.2 	"/>
	<polygon id="polygon696" fill="#373737" points="458.2,250.2 460.5,247.9 460.5,241.8 458.2,239.6 	"/>
	<rect id="rect698" x="471.5" y="236.8" fill="#404040" width="15.8" height="15.8"/>
	<rect id="rect700" x="476.4" y="241.8" width="6.1" height="6.2"/>
	<polygon id="polygon702" fill="#2A2A29" points="474.1,239.6 476.4,241.8 482.5,241.8 484.8,239.6 	"/>
	<polygon id="polygon704" fill="#474747" points="484.8,239.6 482.5,241.8 482.5,247.9 484.8,250.2 	"/>
	<polygon id="polygon706" fill="#595959" points="484.8,250.2 482.5,247.9 476.4,247.9 474.1,250.2 	"/>
	<polygon id="polygon708" fill="#373737" points="474.1,250.2 476.4,247.9 476.4,241.8 474.1,239.6 	"/>
	<rect id="rect710" x="487.5" y="236.8" fill="#404040" width="15.8" height="15.8"/>
	<rect id="rect712" x="492.2" y="241.8" width="6.1" height="6.2"/>
	<polygon id="polygon714" fill="#2A2A29" points="490,239.6 492.2,241.8 498.4,241.8 500.6,239.6 	"/>
	<polygon id="polygon716" fill="#474747" points="500.6,239.6 498.4,241.8 498.4,247.9 500.6,250.2 	"/>
	<polygon id="polygon718" fill="#595959" points="500.6,250.2 498.4,247.9 492.2,247.9 490,250.2 	"/>
	<polygon id="polygon720" fill="#373737" points="490,250.2 492.2,247.9 492.2,241.8 490,239.6 	"/>
	<rect id="rect722" x="503.1" y="236.8" fill="#404040" width="15.8" height="15.8"/>
	<rect id="rect724" x="508" y="241.8" width="6.1" height="6.2"/>
	<polygon id="polygon726" fill="#2A2A29" points="505.8,239.6 508,241.8 514.2,241.8 516.5,239.6 	"/>
	<polygon id="polygon728" fill="#474747" points="516.5,239.6 514.2,241.8 514.2,247.9 516.5,250.2 	"/>
	<polygon id="polygon730" fill="#595959" points="516.5,250.2 514.2,247.9 508,247.9 505.8,250.2 	"/>
	<polygon id="polygon732" fill="#373737" points="505.8,250.2 508,247.9 508,241.8 505.8,239.6 	"/>
</g>
</svg>
