<?xml version="1.0" ?><!DOCTYPE svg  PUBLIC '-//W3C//DTD SVG 1.1//EN'  'http://www.w3.org/Graphics/SVG/1.1/DTD/svg11.dtd'><svg enable-background="new 0 0 256 256" height="256px" id="Layer_1" version="1.1" viewBox="0 0 256 256" width="256px" xml:space="preserve" xmlns="http://www.w3.org/2000/svg" xmlns:xlink="http://www.w3.org/1999/xlink"><g><g><path d="M85.332,53.334H74.668V10.668h-64v42.666H0V96h10.668v149.334h64V96h10.664V53.334z M32,32h21.332v21.334     H32V32z M53.332,224H32V96h21.332V224z" fill="#5EA4BC"/><path d="M170.668,160H160V10.668H96V160H85.332v42.668H96v42.666h64v-42.666h10.668V160z M117.332,32h21.336v128     h-21.336V32z M138.668,224h-21.336v-21.332h21.336V224z" fill="#5EA4BC"/><path d="M256,96h-10.668V10.668h-64V96h-10.664v42.668h10.664v106.666h64V138.668H256V96z M202.668,32H224v64     h-21.332V32z M224,224h-21.332v-85.332H224V224z" fill="#5EA4BC"/></g></g></svg>