<?xml version="1.0" ?><!DOCTYPE svg  PUBLIC '-//W3C//DTD SVG 1.1//EN'  'http://www.w3.org/Graphics/SVG/1.1/DTD/svg11.dtd'><svg enable-background="new 0 0 200 200" height="200px" id="Layer_1" version="1.1" viewBox="0 0 200 200" width="200px" xml:space="preserve" xmlns="http://www.w3.org/2000/svg" xmlns:xlink="http://www.w3.org/1999/xlink"><g><path d="M200,100c0,55.234-44.764,100-100,100C44.766,200,0,155.234,0,100S44.766,0,100,0   C155.236,0,200,44.766,200,100z" fill="#81CF9B"/><circle cx="100" cy="100" fill="#3F4A5A" r="83.333"/><path d="M100,16.667V100h83.333C183.333,53.976,146.025,16.667,100,16.667z" fill="#262E37"/><g><path d="M100,155.769c-30.75,0-55.767-25.02-55.767-55.769c0-30.75,25.016-55.767,55.767-55.767    c30.749,0,55.769,25.016,55.769,55.767C155.769,130.749,130.749,155.769,100,155.769z M100,44.648    c-30.521,0-55.352,24.831-55.352,55.352c0,30.52,24.831,55.35,55.352,55.35c30.52,0,55.35-24.83,55.35-55.35    C155.35,69.479,130.52,44.648,100,44.648z" fill="#CCCBCA"/><path d="M100,127.986c-15.433,0-27.985-12.555-27.985-27.986c0-15.433,12.552-27.985,27.985-27.985    c15.43,0,27.985,12.552,27.985,27.985C127.985,115.432,115.43,127.986,100,127.986z M100,72.43    c-15.202,0-27.57,12.368-27.57,27.57c0,15.202,12.368,27.568,27.57,27.568c15.2,0,27.566-12.366,27.566-27.568    C127.566,84.798,115.2,72.43,100,72.43z" fill="#CCCBCA"/><rect fill="#CCCBCA" height="166.666" width="0.417" x="99.792" y="16.667"/><rect fill="#CCCBCA" height="0.417" width="166.667" x="16.667" y="99.792"/><rect fill="#CCCBCA" height="166.665" transform="matrix(0.7048 0.7095 -0.7095 0.7048 100.4696 -41.4199)" width="0.416" x="99.791" y="16.668"/><rect fill="#CCCBCA" height="0.414" transform="matrix(0.7071 0.7071 -0.7071 0.7071 100.0009 -41.4207)" width="166.666" x="16.666" y="99.793"/></g><path d="M108.333,100c0,4.604-3.74,8.332-8.333,8.332c-4.604,0-8.333-3.728-8.333-8.332s3.729-8.333,8.333-8.333   C104.593,91.667,108.333,95.396,108.333,100z" fill="#262E37"/><g><circle cx="86.667" cy="63.333" fill="#81CF9B" r="6.667"/><path d="M40.833,125.52c0,1.842-1.493,3.331-3.333,3.331s-3.333-1.489-3.333-3.331    c0-1.843,1.493-3.332,3.333-3.332S40.833,123.677,40.833,125.52z" fill="#81CF9B"/><circle cx="158.924" cy="72.222" fill="#FFFFFF" r="5"/><circle cx="121.25" cy="67.222" fill="#FFFFFF" r="2.5"/><circle cx="120.002" cy="163.924" fill="#81CF9B" r="5"/></g></g></svg>