<?xml version="1.0" ?><svg height="24px" version="1.1" viewBox="0 0 24 24" width="24px" xmlns="http://www.w3.org/2000/svg" xmlns:sketch="http://www.bohemiancoding.com/sketch/ns" xmlns:xlink="http://www.w3.org/1999/xlink"><title/><desc/><defs/><g fill="none" fill-rule="evenodd" id="Page-1" stroke="none" stroke-width="1"><g id="bluetooth_wave_sync" transform="translate(-5.500000, 0.000000)"><path d="M22.2204577,2.71499299 C25.9008871,4.19107576 28.5,7.79201021 28.5,12 C28.5,16.2079898 25.9008871,19.8089242 22.2204577,21.285007 L21.8060734,20.3733616 C25.140848,19.0556035 27.5,15.8033065 27.5,12 C27.5,8.19669349 25.140848,4.94439646 21.8060734,3.62663844 L22.2204577,2.71499299 Z M20.9768919,5.45083774 C23.6204236,6.45114577 25.5,9.00607359 25.5,12 C25.5,14.9939264 23.6204236,17.5488542 20.9768919,18.5491623 L20.5619564,17.636304 C22.8599207,16.7953934 24.5,14.5892272 24.5,12 C24.5,9.4107728 22.8599207,7.20460665 20.5619564,6.36369595 L20.9768919,5.45083774 Z M19.7305255,8.19284396 C21.3375834,8.71188216 22.5,10.2201926 22.5,12 C22.5,13.7798074 21.3375834,15.2881178 19.7305255,15.807156 L19.3129733,14.8885412 C20.5748212,14.5341211 21.5,13.3751041 21.5,12 C21.5,10.6248959 20.5748212,9.46587888 19.3129733,9.11145876 L19.7305255,8.19284396 Z" fill="#95A5A6" id="Oval-116"/><path d="M6.54327625,1.35355339 L4.38345863,1.35355339 L6.38600713,3.35355339 L8.53512147,3.35355339 L12.3994949,3.35355339 L12.3994949,17.3535534 L14.3994949,17.3535534 L14.3994949,1.35355339 L6.54327625,1.35355339 Z" fill="#2980B9" id="Rectangle-483" transform="translate(9.399495, 9.353553) rotate(45.000000) translate(-9.399495, -9.353553) "/><path d="M4.4157411,6.64644661 L6.41216111,8.64644661 L12.3994949,8.64644661 L12.3994949,22.6464466 L14.3994949,22.6464466 L14.3994949,6.64644661 L4.4157411,6.64644661 Z" fill="#2980B9" id="Rectangle-484" transform="translate(9.399495, 14.646447) scale(1, -1) rotate(45.000000) translate(-9.399495, -14.646447) "/><path d="M11.5,2 L11.5,23 L13.5,21 L13.5,3 L11.5,2 Z" fill="#2980B9" id="Rectangle-481"/></g></g></svg>