<?xml version="1.0" ?><svg height="18px" version="1.1" viewBox="0 0 24 18" width="24px" xmlns="http://www.w3.org/2000/svg" xmlns:sketch="http://www.bohemiancoding.com/sketch/ns" xmlns:xlink="http://www.w3.org/1999/xlink"><title/><desc/><defs><path d="M4.92893219,19.0710678 C3.11928813,17.2614237 2,14.7614237 2,12 C2,9.23857625 3.11928813,6.73857625 4.92893219,4.92893219 L4.92893219,4.92893219 L3.51471863,3.51471863 C1.34314575,5.6862915 0,8.6862915 0,12 C0,15.3137085 1.34314575,18.3137085 3.51471863,20.4852814 L4.92893219,19.0710678 Z M19.0710678,19.0710678 C20.8807119,17.2614237 22,14.7614237 22,12 C22,9.23857625 20.8807119,6.73857625 19.0710678,4.92893219 L20.4852814,3.51471863 C22.6568542,5.6862915 24,8.6862915 24,12 C24,15.3137085 22.6568542,18.3137085 20.4852814,20.4852814 L19.0710678,19.0710678 Z M6.34314575,17.6568542 C4.8954305,16.209139 4,14.209139 4,12 C4,9.790861 4.8954305,7.790861 6.34314575,6.34314575 L6.34314575,6.34314575 L7.75735931,7.75735931 C6.67157288,8.84314575 6,10.3431458 6,12 C6,13.6568542 6.67157288,15.1568542 7.75735931,16.2426407 L6.34314575,17.6568542 Z M17.6568542,17.6568542 C19.1045695,16.209139 20,14.209139 20,12 C20,9.790861 19.1045695,7.790861 17.6568542,6.34314575 L16.2426407,7.75735931 C17.3284271,8.84314575 18,10.3431458 18,12 C18,13.6568542 17.3284271,15.1568542 16.2426407,16.2426407 L17.6568542,17.6568542 Z" id="path-1"/><circle cx="12" cy="12" id="path-2" r="2"/></defs><g fill="none" fill-rule="evenodd" id="Page-1" stroke="none" stroke-width="1"><g id="wave_bluetooth_telecommunication" transform="translate(0.000000, -3.000000)"><g id="Oval-9"><use fill="#6099CF" fill-rule="evenodd" xlink:href="#path-1"/><use fill="none" xlink:href="#path-1"/></g><g id="Oval-9"><use fill="#363636" fill-rule="evenodd" xlink:href="#path-2"/><use fill="none" xlink:href="#path-2"/></g></g></g></svg>