<?xml version="1.0" encoding="utf-8"?>
<!-- Generator: Adobe Illustrator 18.1.1, SVG Export Plug-In . SVG Version: 6.00 Build 0)  -->
<!DOCTYPE svg PUBLIC "-//W3C//DTD SVG 1.1//EN" "http://www.w3.org/Graphics/SVG/1.1/DTD/svg11.dtd">
<svg version="1.1" id="use269479-7" xmlns="http://www.w3.org/2000/svg" xmlns:xlink="http://www.w3.org/1999/xlink" x="0px"
	 y="0px" viewBox="-153.2 217.4 360 360" enable-background="new -153.2 217.4 360 360" xml:space="preserve">
<symbol  id="Female_Header" viewBox="-4.5 -4.5 9 9">
	<g id="breadboard-9_1_" transform="translate(0,-8.276761e-5)">
		<polygon id="connector0pin-2_1_" fill="none" points="-1.7,1.7 1.7,1.7 1.7,-1.7 -1.7,-1.7 		"/>
		<polygon id="connector0terminal-7_1_" fill="none" points="-1.4,1.4 1.3,1.4 1.3,-1.4 -1.4,-1.4 		"/>
		<polygon id="rect268452-8_1_" fill="#404040" points="-4.5,4.5 4.5,4.5 4.5,-4.5 -4.5,-4.5 		"/>
		<polygon id="rect268454-1_1_" points="-1.7,1.7 1.7,1.7 1.7,-1.7 -1.7,-1.7 		"/>
		<polygon id="polygon268456-7_1_" fill="#2A2A29" points="3,3 -3,3 -1.7,1.7 1.7,1.7 		"/>
		<polygon id="polygon268458-5_1_" fill="#474747" points="3,-3 3,3 1.7,1.7 1.7,-1.7 		"/>
		<polygon id="polygon268460-7_1_" fill="#595959" points="-3,-3 3,-3 1.7,-1.7 -1.7,-1.7 		"/>
		<polygon id="polygon268462-5_1_" fill="#373737" points="-3,3 -3,-3 -1.7,-1.7 -1.7,1.7 		"/>
	</g>
</symbol>
<g id="Layer_2">
</g>
<g id="svg3648" sodipodi:docname="breadboard-beaglebone-a5.svg" inkscape:version="0.48.2 r9819" xmlns:rdf="http://www.w3.org/1999/02/22-rdf-syntax-ns#" xmlns:svg="http://www.w3.org/2000/svg" xmlns:cc="http://creativecommons.org/ns#" xmlns:dc="http://purl.org/dc/elements/1.1/" xmlns:sodipodi="http://sodipodi.sourceforge.net/DTD/sodipodi-0.dtd" xmlns:inkscape="http://www.inkscape.org/namespaces/inkscape">
	<g id="g8134" transform="matrix(0.99956917,0,0,1,0.48406035,-858.8623)">
		<path d="M176.1,1194.2v108.6c0,23.5-19,42.5-42.5,42.5h-240.3c-12.9,0-23.4-10.5-23.4-23.4v-146.7c0-12.9,10.5-23.4,23.4-23.4
			h240.3C157.1,1151.7,176.1,1170.7,176.1,1194.2z"/>
	</g>
	
		<sodipodi:namedview  inkscape:pageopacity="0" inkscape:window-x="0" inkscape:pageshadow="2" inkscape:window-y="30" inkscape:current-layer="svg3648" inkscape:window-maximized="0" inkscape:window-height="840" inkscape:window-width="1253" gridtolerance="10" guidetolerance="10" objecttolerance="10" id="namedview402" showgrid="false" inkscape:cx="196.18058" pagecolor="#ffffff" inkscape:zoom="2.0825397" bordercolor="#666666" inkscape:cy="58.335366" borderopacity="1">
		</sodipodi:namedview>
	<path id="path14366" inkscape:connector-curvature="0" fill="#FFFFFF" d="M162.6,466.7c0,3.1-2.5,5.6-5.6,5.6s-5.6-2.5-5.6-5.6
		s2.5-5.6,5.6-5.6S162.6,463.6,162.6,466.7z"/>
	<rect id="rect14414" x="4.2" y="358.3" fill="#333333" width="51.5" height="53.2"/>
	<rect id="rect14414_1_" x="-47" y="319.8" fill="#333333" width="41.6" height="39.1"/>
	<rect id="rect14414_2_" x="75.4" y="331.9" fill="#333333" width="32.4" height="31.1"/>
	<rect id="rect14414_4_" x="-59.6" y="422" fill="#333333" width="21.1" height="20.3"/>
	<rect id="rect14414_5_" x="-49.1" y="369.3" fill="#333333" width="15.5" height="14.9"/>
	<rect id="rect14414_3_" x="75.4" y="374.2" fill="#333333" width="32.4" height="50.2"/>
	<path id="path14548" inkscape:connector-curvature="0" fill="#FFFFFF" d="M162.6,313.5c0,3.1-2.5,5.6-5.6,5.6s-5.6-2.5-5.6-5.6
		c0-3.1,2.5-5.6,5.6-5.6S162.6,310.4,162.6,313.5z"/>
	<path id="path14550" inkscape:connector-curvature="0" fill="#FFFFFF" d="M-71.7,304c0,3.1-2.5,5.6-5.6,5.6c-3.1,0-5.6-2.5-5.6-5.6
		c0,0,0,0,0,0c0-3.1,2.5-5.6,5.6-5.6C-74.2,298.4-71.7,300.9-71.7,304C-71.7,304-71.7,304-71.7,304z"/>
	<path id="path14552" inkscape:connector-curvature="0" fill="#FFFFFF" d="M-71.7,474.9c0,3.1-2.5,5.6-5.6,5.6s-5.6-2.5-5.6-5.6
		s2.5-5.6,5.6-5.6S-71.7,471.7-71.7,474.9L-71.7,474.9z"/>
	<g id="g14685" transform="translate(274.46457,119.7421)">
		<g id="g14687">
			<g id="g14689">
				<path id="path14691" inkscape:connector-curvature="0" fill="#7A7A7A" d="M-98.7,328.9v-34.8c-1.5,0-1.7-1.1-1.7-1.3H-139v37.4
					h38.6C-100.4,330.1-100.2,328.9-98.7,328.9z"/>
			</g>
		</g>
		<path id="path14693" inkscape:connector-curvature="0" d="M-122.8,319.3c0-0.3,0.2-0.5,0.5-0.4l18.3,1.9c0.3,0,0.5,0.3,0.5,0.5v3
			c0,0.3-0.2,0.5-0.5,0.5l-18.3,1.9c-0.3,0-0.5-0.2-0.5-0.4v-0.4c0-0.3,0.2-0.5,0.5-0.5l16.6-1.4c0.3,0,0.5-0.3,0.5-0.5v-1.1
			c0-0.3-0.2-0.5-0.5-0.5l-16.6-1.4c-0.3,0-0.5-0.3-0.5-0.5C-122.8,319.8-122.8,319.3-122.8,319.3z"/>
		<path id="path14695" inkscape:connector-curvature="0" d="M-122.8,296.8c0-0.3,0.2-0.5,0.5-0.4l18.3,1.9c0.3,0,0.5,0.3,0.5,0.5v3
			c0,0.3-0.2,0.5-0.5,0.5l-18.3,1.9c-0.3,0-0.5-0.2-0.5-0.4v-0.4c0-0.3,0.2-0.5,0.5-0.5l16.6-1.4c0.3,0,0.5-0.2,0.5-0.5v-1.1
			c0-0.3-0.2-0.5-0.5-0.5l-16.6-1.4c-0.3,0-0.5-0.2-0.5-0.5L-122.8,296.8L-122.8,296.8z"/>
		<g id="g14697">
			<polygon id="polygon14699" fill="none" points="-106.7,299.1 -106.7,301.5 -105.3,301.4 -105.3,299.3 			"/>
			<polygon id="polygon14701" fill="#939393" points="-105.3,301.4 -106.7,301.5 -106.7,299.1 -105.3,299.3 			"/>
			<polygon id="polygon14703" fill="#666666" points="-107.3,301.5 -106.7,301.5 -106.7,299.1 -107.3,299.1 			"/>
		</g>
		<g id="g14705">
			<polygon id="polygon14707" fill="none" points="-106.7,321.6 -106.7,324 -105.3,323.8 -105.3,321.8 			"/>
			<polygon id="polygon14709" fill="#939393" points="-105.3,323.8 -106.7,324 -106.7,321.6 -105.3,321.8 			"/>
			<polygon id="polygon14711" fill="#666666" points="-107.3,324 -106.7,324 -106.7,321.6 -107.3,321.6 			"/>
		</g>
		<rect id="rect14713" x="-120.2" y="307" fill="#666666" width="3.5" height="9.5"/>
		<rect id="rect14715" x="-122.1" y="307" fill="#939393" width="1.9" height="9.5"/>
		<path id="path14717" inkscape:connector-curvature="0" d="M-101.9,317.1c0-0.3-0.2-0.5-0.5-0.5l-20.2-1.2c-0.3,0-0.5-0.2-0.5-0.5
			v-6.7c0-0.3,0.2-0.5,0.5-0.5l20.2-1.2c0.3,0,0.5-0.2,0.5-0.5v-0.9c0-0.3-0.2-0.5-0.5-0.5l-22.9,1.6c-0.3,0-0.5,0.2-0.5,0.5v9.4
			c0,0.3,0.2,0.5,0.5,0.5l22.9,1.6c0.3,0,0.5-0.2,0.5-0.5L-101.9,317.1L-101.9,317.1z"/>
		
			<line id="line14719" fill="none" stroke="#FFFFFF" stroke-width="0.8064" stroke-linecap="round" stroke-opacity="0.24" x1="-137.9" y1="329.7" x2="-101.1" y2="329.7"/>
		
			<line id="line14721" fill="none" stroke="#FFFFFF" stroke-width="0.4032" stroke-linecap="round" stroke-opacity="0.15" x1="-137.9" y1="293.4" x2="-100.9" y2="293.4"/>
		<path id="path14723" inkscape:connector-curvature="0" fill="#515151" d="M-98.7,294.2c-0.5,0-0.8-0.1-1-0.3v35.3
			c0.2-0.1,0.6-0.3,1-0.3V294.2z"/>
		
			<line id="line14725" fill="none" stroke="#FFFFFF" stroke-width="0.4032" stroke-linecap="round" stroke-opacity="0.15" x1="-99.8" y1="294.6" x2="-99.8" y2="328.5"/>
	</g>
	<g id="g14874" transform="matrix(-1.3239874,0,0,-1.2402686,51.820867,175.2732)">
		<g id="g14834">
			<g id="g14836">
				<rect id="rect14838" x="106.7" y="-235.2" fill="#232323" width="33" height="23.7"/>
				<rect id="rect14840" x="107.1" y="-213.7" fill="#494949" width="31.9" height="1.6"/>
				<rect id="rect14842" x="107.1" y="-219.1" fill="#3D3D3D" fill-opacity="0.3" width="31.9" height="5.4"/>
				<rect id="rect14844" x="107.1" y="-234.7" width="33" height="1.6"/>
				<rect id="rect14846" x="107.1" y="-233.1" fill="#0F0F0F" fill-opacity="0.4" width="33" height="5.8"/>
			</g>
			<rect id="rect14848" x="106.7" y="-235.2" opacity="0.2" enable-background="new    " width="0.6" height="23.7"/>
		</g>
		
			<line id="line14850" opacity="0.5" fill="none" stroke="#000000" stroke-width="0.25" stroke-miterlimit="10" enable-background="new    " x1="109.5" y1="-235.2" x2="109.5" y2="-211.5"/>
		<g id="g14852">
			<rect id="rect14854" x="136.2" y="-235.2" opacity="0.25" enable-background="new    " width="1.3" height="23.7"/>
			
				<path id="path14856" inkscape:connector-curvature="0" opacity="0.25" stroke="#565656" stroke-width="0.25" stroke-miterlimit="10" enable-background="new    " d="
				M137.2-215.8v-15.1h-13.3c-4.2,0-7.5,3.4-7.5,7.5c0,4.2,3.4,7.5,7.5,7.5L137.2-215.8L137.2-215.8z"/>
		</g>
		<g id="g14858">
			<path id="path14860" inkscape:connector-curvature="0" fill="#232323" d="M137.2-215.8v-15.1h-13.3c-4.2,0-7.5,3.4-7.5,7.5
				c0,4.2,3.4,7.5,7.5,7.5L137.2-215.8L137.2-215.8z"/>
			<rect id="rect14862" x="136.4" y="-236.1" fill="#232323" width="7.7" height="25.5"/>
		</g>
		<rect id="rect14864" x="105" y="-226.2" fill="#6D6D6D" width="1.7" height="5.7"/>
		<rect id="rect14866" x="105.7" y="-229" fill="#494949" width="1" height="11.2"/>
	</g>
	<g id="magjack" transform="matrix(1.2499999,0,0,1.2499999,21.137486,60.14724)">
		<g id="g45897" transform="matrix(0,-1,1,0,-8.45496,51.654)">
			<g id="g45899">
				<g id="g45901">
					<g id="g45903">
						<path id="path45905" inkscape:connector-curvature="0" fill="#7A7A7A" d="M-225.8-119.7v60.1h43.2v-60.1
							C-182.8-119.7-225.6-119.7-225.8-119.7z"/>
					</g>
				</g>
				<g id="g45907">
					
						<line id="line45909" fill="none" stroke="#FFFFFF" stroke-width="0.8064" stroke-linecap="round" stroke-opacity="0.5" x1="-183.2" y1="-60.1" x2="-183.2" y2="-94"/>
					
						<line id="line45911" fill="none" stroke="#FFFFFF" stroke-width="0.8064" stroke-linecap="round" stroke-opacity="0.5" x1="-225.2" y1="-60.1" x2="-225.2" y2="-94"/>
				</g>
			</g>
			<g id="g45913">
				<path id="path45915" inkscape:connector-curvature="0" fill="#666666" d="M-194.7-110.8l0.1-8c0-0.3,0.3-0.6,0.6-0.6l0.2,0
					l-6.8,0h0.2c0.3,0,0.5,0.2,0.6,0.6l0.1,8L-194.7-110.8z"/>
				<path id="path45917" inkscape:connector-curvature="0" d="M-193.9-119.4c0.3,0,0.5,0.2,0.5,0.6l-0.5,23.2c0,0.6-0.4,1.1-0.9,1.1
					l-4.9,0c-0.5,0-0.9-0.5-0.9-1.1l-0.5-23.2c0-0.3,0.2-0.6,0.5-0.6h0.2c0.3,0,0.5,0.2,0.6,0.6l0.4,19.8c0,0.6,0.5,1.1,1.1,1.1
					l2.4,0c0.6,0,1.1-0.5,1.1-1.1l0.3-19.8c0-0.3,0.3-0.6,0.6-0.6L-193.9-119.4L-193.9-119.4z"/>
				<g id="g45919">
					<path id="path45921" inkscape:connector-curvature="0" fill="#666666" d="M-198.4-97.9l2.3,0c0.5,0,1.1-0.5,1.1-1.1l0.1-1h-4.6
						l0,1C-199.5-98.4-199-97.9-198.4-97.9z"/>
				</g>
				<g id="g45923">
					<path id="path45925" inkscape:connector-curvature="0" fill="#999999" d="M-199.6-99.6c0.1,0.6,0.6,1.1,1.1,1.1l2.3,0
						c0.5,0,1.1-0.5,1.2-1.1L-195-99c-0.1,0.6-0.6,1.1-1.1,1.1l-2.3,0c-0.6,0-1.1-0.5-1.1-1.1L-199.6-99.6z"/>
				</g>
			</g>
			<g id="g45927">
				<path id="path45929" inkscape:connector-curvature="0" fill="#666666" d="M-208.9-110.8l0.1-8c0-0.3,0.3-0.6,0.6-0.6l0.2,0
					l-6.8,0h0.2c0.3,0,0.5,0.2,0.6,0.6l0.1,8L-208.9-110.8z"/>
				<path id="path45931" inkscape:connector-curvature="0" d="M-208.1-119.4c0.3,0,0.5,0.2,0.5,0.6l-0.5,23.2c0,0.6-0.4,1.1-0.9,1.1
					l-4.9,0c-0.5,0-0.9-0.5-0.9-1.1l-0.5-23.2c0-0.3,0.2-0.6,0.5-0.6h0.2c0.3,0,0.5,0.2,0.6,0.6l0.4,19.8c0,0.6,0.5,1.1,1.1,1.1
					l2.4,0c0.6,0,1.1-0.5,1.1-1.1l0.3-19.8c0-0.3,0.3-0.6,0.6-0.6L-208.1-119.4L-208.1-119.4z"/>
				<g id="g45933">
					<path id="path45935" inkscape:connector-curvature="0" fill="#666666" d="M-212.6-97.9l2.3,0c0.5,0,1.1-0.5,1.1-1.1l0.1-1h-4.6
						l0,1C-213.7-98.4-213.2-97.9-212.6-97.9z"/>
				</g>
				<g id="g45937">
					<path id="path45939" inkscape:connector-curvature="0" fill="#999999" d="M-213.8-99.6c0.1,0.6,0.6,1.1,1.2,1.1l2.3,0
						c0.5,0,1.1-0.5,1.1-1.1l-0.1,0.6c-0.1,0.6-0.6,1.1-1.1,1.1l-2.3,0c-0.6,0-1.1-0.5-1.1-1.1L-213.8-99.6z"/>
				</g>
			</g>
			<g id="g45941">
				<g id="g45943">
					
						<path id="path45945" inkscape:connector-curvature="0" fill="none" stroke="#7A7A7A" stroke-width="0.75" stroke-miterlimit="10" d="
						M-225.3-118.3c-1.3,4.7-3.5,6-3.5,12.5c0,2.8,0,4.7,0,5.4s-0.4,3.8-1.4,3.8"/>
					<path id="path45947" inkscape:connector-curvature="0" fill="#CCCCCC" d="M-229.4-96.6l-0.4-0.7c-0.1,0.2-0.2,0.4-0.4,0.4v0.8
						C-229.9-96.2-229.6-96.3-229.4-96.6z"/>
				</g>
				<g id="g45949">
					
						<path id="path45951" inkscape:connector-curvature="0" fill="none" stroke="#7A7A7A" stroke-width="0.75" stroke-miterlimit="10" d="
						M-183.1-118.3c1.3,4.7,3.5,6,3.5,12.5c0,2.8,0,4.7,0,5.4s0.4,3.8,1.4,3.8"/>
					<path id="path45953" inkscape:connector-curvature="0" fill="#CCCCCC" d="M-179-96.6l0.4-0.7c0.1,0.2,0.2,0.4,0.4,0.4v0.8
						C-178.5-96.2-178.8-96.3-179-96.6z"/>
				</g>
			</g>
			
				<line id="line45955" fill="none" stroke="#FFFFFF" stroke-width="0.8064" stroke-linecap="round" stroke-opacity="0.5" x1="-184.5" y1="-60.1" x2="-224" y2="-60.1"/>
			<g id="g45957">
				
					<line id="line45959" fill="none" stroke="#4D4D4D" stroke-width="0.8064" stroke-linecap="round" x1="-187.4" y1="-60.5" x2="-202.1" y2="-60.5"/>
				
					<line id="line45961" fill="none" stroke="#4D4D4D" stroke-width="0.8064" stroke-linecap="round" x1="-206.3" y1="-60.5" x2="-221.1" y2="-60.5"/>
			</g>
		</g>
	</g>
	<g>
		
			<use xlink:href="#Female_Header"  width="9" height="9" x="-4.5" y="-4.5" transform="matrix(1 0 0 -1 -51.0906 470.6181)" overflow="visible"/>
		
			<use xlink:href="#Female_Header"  width="9" height="9" x="-4.5" y="-4.5" transform="matrix(1 0 0 -1 -60.091 470.6168)" overflow="visible"/>
		
			<use xlink:href="#Female_Header"  width="9" height="9" x="-4.5" y="-4.5" transform="matrix(1 0 0 -1 -51.0906 479.6177)" overflow="visible"/>
		
			<use xlink:href="#Female_Header"  width="9" height="9" x="-4.5" y="-4.5" transform="matrix(1 0 0 -1 -60.091 479.6165)" overflow="visible"/>
		
			<use xlink:href="#Female_Header"  width="9" height="9" x="-4.5" y="-4.5" transform="matrix(1 0 0 -1 -33.0908 470.6181)" overflow="visible"/>
		
			<use xlink:href="#Female_Header"  width="9" height="9" x="-4.5" y="-4.5" transform="matrix(1 0 0 -1 -42.0912 470.6168)" overflow="visible"/>
		
			<use xlink:href="#Female_Header"  width="9" height="9" x="-4.5" y="-4.5" transform="matrix(1 0 0 -1 -33.0908 479.6177)" overflow="visible"/>
		
			<use xlink:href="#Female_Header"  width="9" height="9" x="-4.5" y="-4.5" transform="matrix(1 0 0 -1 -42.0912 479.6165)" overflow="visible"/>
		
			<use xlink:href="#Female_Header"  width="9" height="9" x="-4.5" y="-4.5" transform="matrix(1 0 0 -1 -15.091 470.6181)" overflow="visible"/>
		
			<use xlink:href="#Female_Header"  width="9" height="9" x="-4.5" y="-4.5" transform="matrix(1 0 0 -1 -24.0915 470.6168)" overflow="visible"/>
		
			<use xlink:href="#Female_Header"  width="9" height="9" x="-4.5" y="-4.5" transform="matrix(1 0 0 -1 -15.091 479.6177)" overflow="visible"/>
		
			<use xlink:href="#Female_Header"  width="9" height="9" x="-4.5" y="-4.5" transform="matrix(1 0 0 -1 -24.0915 479.6165)" overflow="visible"/>
		
			<use xlink:href="#Female_Header"  width="9" height="9" x="-4.5" y="-4.5" transform="matrix(1 0 0 -1 2.9088 470.6181)" overflow="visible"/>
		
			<use xlink:href="#Female_Header"  width="9" height="9" x="-4.5" y="-4.5" transform="matrix(1 0 0 -1 -6.0917 470.6168)" overflow="visible"/>
		
			<use xlink:href="#Female_Header"  width="9" height="9" x="-4.5" y="-4.5" transform="matrix(1 0 0 -1 2.9088 479.6177)" overflow="visible"/>
		
			<use xlink:href="#Female_Header"  width="9" height="9" x="-4.5" y="-4.5" transform="matrix(1 0 0 -1 -6.0917 479.6165)" overflow="visible"/>
		
			<use xlink:href="#Female_Header"  width="9" height="9" x="-4.5" y="-4.5" transform="matrix(1 0 0 -1 20.9086 470.6181)" overflow="visible"/>
		
			<use xlink:href="#Female_Header"  width="9" height="9" x="-4.5" y="-4.5" transform="matrix(1 0 0 -1 11.9081 470.6168)" overflow="visible"/>
		
			<use xlink:href="#Female_Header"  width="9" height="9" x="-4.5" y="-4.5" transform="matrix(1 0 0 -1 20.9086 479.6177)" overflow="visible"/>
		
			<use xlink:href="#Female_Header"  width="9" height="9" x="-4.5" y="-4.5" transform="matrix(1 0 0 -1 11.9081 479.6165)" overflow="visible"/>
		
			<use xlink:href="#Female_Header"  width="9" height="9" x="-4.5" y="-4.5" transform="matrix(1 0 0 -1 38.9083 470.6181)" overflow="visible"/>
		
			<use xlink:href="#Female_Header"  width="9" height="9" x="-4.5" y="-4.5" transform="matrix(1 0 0 -1 29.9079 470.6168)" overflow="visible"/>
		
			<use xlink:href="#Female_Header"  width="9" height="9" x="-4.5" y="-4.5" transform="matrix(1 0 0 -1 38.9083 479.6177)" overflow="visible"/>
		
			<use xlink:href="#Female_Header"  width="9" height="9" x="-4.5" y="-4.5" transform="matrix(1 0 0 -1 29.9079 479.6165)" overflow="visible"/>
		
			<use xlink:href="#Female_Header"  width="9" height="9" x="-4.5" y="-4.5" transform="matrix(1 0 0 -1 56.9081 470.6181)" overflow="visible"/>
		
			<use xlink:href="#Female_Header"  width="9" height="9" x="-4.5" y="-4.5" transform="matrix(1 0 0 -1 47.9077 470.6168)" overflow="visible"/>
		
			<use xlink:href="#Female_Header"  width="9" height="9" x="-4.5" y="-4.5" transform="matrix(1 0 0 -1 56.9081 479.6177)" overflow="visible"/>
		
			<use xlink:href="#Female_Header"  width="9" height="9" x="-4.5" y="-4.5" transform="matrix(1 0 0 -1 47.9077 479.6165)" overflow="visible"/>
		
			<use xlink:href="#Female_Header"  width="9" height="9" x="-4.5" y="-4.5" transform="matrix(1 0 0 -1 74.9079 470.6181)" overflow="visible"/>
		
			<use xlink:href="#Female_Header"  width="9" height="9" x="-4.5" y="-4.5" transform="matrix(1 0 0 -1 65.9074 470.6168)" overflow="visible"/>
		
			<use xlink:href="#Female_Header"  width="9" height="9" x="-4.5" y="-4.5" transform="matrix(1 0 0 -1 74.9079 479.6177)" overflow="visible"/>
		
			<use xlink:href="#Female_Header"  width="9" height="9" x="-4.5" y="-4.5" transform="matrix(1 0 0 -1 65.9074 479.6165)" overflow="visible"/>
		
			<use xlink:href="#Female_Header"  width="9" height="9" x="-4.5" y="-4.5" transform="matrix(1 0 0 -1 92.9077 470.6181)" overflow="visible"/>
		
			<use xlink:href="#Female_Header"  width="9" height="9" x="-4.5" y="-4.5" transform="matrix(1 0 0 -1 83.9072 470.6168)" overflow="visible"/>
		
			<use xlink:href="#Female_Header"  width="9" height="9" x="-4.5" y="-4.5" transform="matrix(1 0 0 -1 92.9077 479.6177)" overflow="visible"/>
		
			<use xlink:href="#Female_Header"  width="9" height="9" x="-4.5" y="-4.5" transform="matrix(1 0 0 -1 83.9072 479.6165)" overflow="visible"/>
		
			<use xlink:href="#Female_Header"  width="9" height="9" x="-4.5" y="-4.5" transform="matrix(1 0 0 -1 110.9074 470.6181)" overflow="visible"/>
		
			<use xlink:href="#Female_Header"  width="9" height="9" x="-4.5" y="-4.5" transform="matrix(1 0 0 -1 101.907 470.6168)" overflow="visible"/>
		
			<use xlink:href="#Female_Header"  width="9" height="9" x="-4.5" y="-4.5" transform="matrix(1 0 0 -1 110.9074 479.6177)" overflow="visible"/>
		
			<use xlink:href="#Female_Header"  width="9" height="9" x="-4.5" y="-4.5" transform="matrix(1 0 0 -1 101.907 479.6165)" overflow="visible"/>
		
			<use xlink:href="#Female_Header"  width="9" height="9" x="-4.5" y="-4.5" transform="matrix(1 0 0 -1 128.9072 470.6181)" overflow="visible"/>
		
			<use xlink:href="#Female_Header"  width="9" height="9" x="-4.5" y="-4.5" transform="matrix(1 0 0 -1 119.9067 470.6168)" overflow="visible"/>
		
			<use xlink:href="#Female_Header"  width="9" height="9" x="-4.5" y="-4.5" transform="matrix(1 0 0 -1 128.9072 479.6177)" overflow="visible"/>
		
			<use xlink:href="#Female_Header"  width="9" height="9" x="-4.5" y="-4.5" transform="matrix(1 0 0 -1 137.909 470.6181)" overflow="visible"/>
		
			<use xlink:href="#Female_Header"  width="9" height="9" x="-4.5" y="-4.5" transform="matrix(1 0 0 -1 137.909 479.6177)" overflow="visible"/>
		
			<use xlink:href="#Female_Header"  width="9" height="9" x="-4.5" y="-4.5" transform="matrix(1 0 0 -1 119.9067 479.6165)" overflow="visible"/>
	</g>
	<g>
		
			<use xlink:href="#Female_Header"  width="9" height="9" x="-4.5" y="-4.5" transform="matrix(1 0 0 -1 -51.0906 300.0061)" overflow="visible"/>
		
			<use xlink:href="#Female_Header"  width="9" height="9" x="-4.5" y="-4.5" transform="matrix(1 0 0 -1 -60.091 300.0048)" overflow="visible"/>
		
			<use xlink:href="#Female_Header"  width="9" height="9" x="-4.5" y="-4.5" transform="matrix(1 0 0 -1 -51.0906 309.0058)" overflow="visible"/>
		
			<use xlink:href="#Female_Header"  width="9" height="9" x="-4.5" y="-4.5" transform="matrix(1 0 0 -1 -60.091 309.0045)" overflow="visible"/>
		
			<use xlink:href="#Female_Header"  width="9" height="9" x="-4.5" y="-4.5" transform="matrix(1 0 0 -1 -33.0908 300.0061)" overflow="visible"/>
		
			<use xlink:href="#Female_Header"  width="9" height="9" x="-4.5" y="-4.5" transform="matrix(1 0 0 -1 -42.0912 300.0048)" overflow="visible"/>
		
			<use xlink:href="#Female_Header"  width="9" height="9" x="-4.5" y="-4.5" transform="matrix(1 0 0 -1 -33.0908 309.0058)" overflow="visible"/>
		
			<use xlink:href="#Female_Header"  width="9" height="9" x="-4.5" y="-4.5" transform="matrix(1 0 0 -1 -42.0912 309.0045)" overflow="visible"/>
		
			<use xlink:href="#Female_Header"  width="9" height="9" x="-4.5" y="-4.5" transform="matrix(1 0 0 -1 -15.091 300.0061)" overflow="visible"/>
		
			<use xlink:href="#Female_Header"  width="9" height="9" x="-4.5" y="-4.5" transform="matrix(1 0 0 -1 -24.0915 300.0048)" overflow="visible"/>
		
			<use xlink:href="#Female_Header"  width="9" height="9" x="-4.5" y="-4.5" transform="matrix(1 0 0 -1 -15.091 309.0058)" overflow="visible"/>
		
			<use xlink:href="#Female_Header"  width="9" height="9" x="-4.5" y="-4.5" transform="matrix(1 0 0 -1 -24.0915 309.0045)" overflow="visible"/>
		
			<use xlink:href="#Female_Header"  width="9" height="9" x="-4.5" y="-4.5" transform="matrix(1 0 0 -1 2.9088 300.0061)" overflow="visible"/>
		
			<use xlink:href="#Female_Header"  width="9" height="9" x="-4.5" y="-4.5" transform="matrix(1 0 0 -1 -6.0917 300.0048)" overflow="visible"/>
		
			<use xlink:href="#Female_Header"  width="9" height="9" x="-4.5" y="-4.5" transform="matrix(1 0 0 -1 2.9088 309.0058)" overflow="visible"/>
		
			<use xlink:href="#Female_Header"  width="9" height="9" x="-4.5" y="-4.5" transform="matrix(1 0 0 -1 -6.0917 309.0045)" overflow="visible"/>
		
			<use xlink:href="#Female_Header"  width="9" height="9" x="-4.5" y="-4.5" transform="matrix(1 0 0 -1 20.9086 300.0061)" overflow="visible"/>
		
			<use xlink:href="#Female_Header"  width="9" height="9" x="-4.5" y="-4.5" transform="matrix(1 0 0 -1 11.9081 300.0048)" overflow="visible"/>
		
			<use xlink:href="#Female_Header"  width="9" height="9" x="-4.5" y="-4.5" transform="matrix(1 0 0 -1 20.9086 309.0058)" overflow="visible"/>
		
			<use xlink:href="#Female_Header"  width="9" height="9" x="-4.5" y="-4.5" transform="matrix(1 0 0 -1 11.9081 309.0045)" overflow="visible"/>
		
			<use xlink:href="#Female_Header"  width="9" height="9" x="-4.5" y="-4.5" transform="matrix(1 0 0 -1 38.9083 300.0061)" overflow="visible"/>
		
			<use xlink:href="#Female_Header"  width="9" height="9" x="-4.5" y="-4.5" transform="matrix(1 0 0 -1 29.9079 300.0048)" overflow="visible"/>
		
			<use xlink:href="#Female_Header"  width="9" height="9" x="-4.5" y="-4.5" transform="matrix(1 0 0 -1 38.9083 309.0058)" overflow="visible"/>
		
			<use xlink:href="#Female_Header"  width="9" height="9" x="-4.5" y="-4.5" transform="matrix(1 0 0 -1 29.9079 309.0045)" overflow="visible"/>
		
			<use xlink:href="#Female_Header"  width="9" height="9" x="-4.5" y="-4.5" transform="matrix(1 0 0 -1 56.9081 300.0061)" overflow="visible"/>
		
			<use xlink:href="#Female_Header"  width="9" height="9" x="-4.5" y="-4.5" transform="matrix(1 0 0 -1 47.9077 300.0048)" overflow="visible"/>
		
			<use xlink:href="#Female_Header"  width="9" height="9" x="-4.5" y="-4.5" transform="matrix(1 0 0 -1 56.9081 309.0058)" overflow="visible"/>
		
			<use xlink:href="#Female_Header"  width="9" height="9" x="-4.5" y="-4.5" transform="matrix(1 0 0 -1 47.9077 309.0045)" overflow="visible"/>
		
			<use xlink:href="#Female_Header"  width="9" height="9" x="-4.5" y="-4.5" transform="matrix(1 0 0 -1 74.9079 300.0061)" overflow="visible"/>
		
			<use xlink:href="#Female_Header"  width="9" height="9" x="-4.5" y="-4.5" transform="matrix(1 0 0 -1 65.9074 300.0048)" overflow="visible"/>
		
			<use xlink:href="#Female_Header"  width="9" height="9" x="-4.5" y="-4.5" transform="matrix(1 0 0 -1 74.9079 309.0058)" overflow="visible"/>
		
			<use xlink:href="#Female_Header"  width="9" height="9" x="-4.5" y="-4.5" transform="matrix(1 0 0 -1 65.9074 309.0045)" overflow="visible"/>
		
			<use xlink:href="#Female_Header"  width="9" height="9" x="-4.5" y="-4.5" transform="matrix(1 0 0 -1 92.9077 300.0061)" overflow="visible"/>
		
			<use xlink:href="#Female_Header"  width="9" height="9" x="-4.5" y="-4.5" transform="matrix(1 0 0 -1 83.9072 300.0048)" overflow="visible"/>
		
			<use xlink:href="#Female_Header"  width="9" height="9" x="-4.5" y="-4.5" transform="matrix(1 0 0 -1 92.9077 309.0058)" overflow="visible"/>
		
			<use xlink:href="#Female_Header"  width="9" height="9" x="-4.5" y="-4.5" transform="matrix(1 0 0 -1 83.9072 309.0045)" overflow="visible"/>
		
			<use xlink:href="#Female_Header"  width="9" height="9" x="-4.5" y="-4.5" transform="matrix(1 0 0 -1 110.9074 300.0061)" overflow="visible"/>
		
			<use xlink:href="#Female_Header"  width="9" height="9" x="-4.5" y="-4.5" transform="matrix(1 0 0 -1 101.907 300.0048)" overflow="visible"/>
		
			<use xlink:href="#Female_Header"  width="9" height="9" x="-4.5" y="-4.5" transform="matrix(1 0 0 -1 110.9074 309.0058)" overflow="visible"/>
		
			<use xlink:href="#Female_Header"  width="9" height="9" x="-4.5" y="-4.5" transform="matrix(1 0 0 -1 101.907 309.0045)" overflow="visible"/>
		
			<use xlink:href="#Female_Header"  width="9" height="9" x="-4.5" y="-4.5" transform="matrix(1 0 0 -1 128.9072 300.0061)" overflow="visible"/>
		
			<use xlink:href="#Female_Header"  width="9" height="9" x="-4.5" y="-4.5" transform="matrix(1 0 0 -1 119.9067 300.0048)" overflow="visible"/>
		
			<use xlink:href="#Female_Header"  width="9" height="9" x="-4.5" y="-4.5" transform="matrix(1 0 0 -1 128.9072 309.0058)" overflow="visible"/>
		
			<use xlink:href="#Female_Header"  width="9" height="9" x="-4.5" y="-4.5" transform="matrix(1 0 0 -1 137.909 300.0061)" overflow="visible"/>
		
			<use xlink:href="#Female_Header"  width="9" height="9" x="-4.5" y="-4.5" transform="matrix(1 0 0 -1 137.909 309.0058)" overflow="visible"/>
		
			<use xlink:href="#Female_Header"  width="9" height="9" x="-4.5" y="-4.5" transform="matrix(1 0 0 -1 119.9067 309.0045)" overflow="visible"/>
	</g>
	<circle fill="#E3DBDB" cx="97.3" cy="449.1" r="9.9"/>
</g>
<g id="Layer_3">
	<g>
		<rect x="60.1" y="340.9" fill="none" width="19.2" height="73.1"/>
		<g enable-background="new    ">
			<path fill="none" stroke="#FFFFFF" stroke-width="0.41" d="M70.3,412.1v1.1l-9.4,0V412h3.4c-0.6-0.5-0.9-1.1-0.9-1.9
				c0-0.4,0.1-0.8,0.3-1.2s0.4-0.7,0.7-0.9c0.3-0.2,0.7-0.4,1.1-0.6c0.4-0.1,0.9-0.2,1.4-0.2c1.2,0,2.1,0.3,2.7,0.9
				c0.6,0.6,1,1.3,1,2.1c0,0.8-0.3,1.4-1,1.9H70.3z M66.8,412.1c0.8,0,1.4-0.1,1.8-0.3c0.6-0.4,0.9-0.9,0.9-1.5
				c0-0.5-0.2-0.9-0.7-1.3c-0.4-0.4-1.1-0.6-2-0.6c-0.9,0-1.5,0.2-2,0.5c-0.4,0.4-0.6,0.8-0.6,1.3c0,0.5,0.2,0.9,0.7,1.3
				C65.3,412,66,412.1,66.8,412.1z"/>
			<path fill="none" stroke="#FFFFFF" stroke-width="0.41" d="M68.1,401.2l0.1-1.2c0.7,0.2,1.2,0.5,1.6,1s0.6,1.2,0.6,2
				c0,1-0.3,1.8-0.9,2.4c-0.6,0.6-1.5,0.9-2.6,0.9c-1.1,0-2-0.3-2.7-0.9s-1-1.4-1-2.3c0-0.9,0.3-1.7,0.9-2.2s1.5-0.9,2.6-0.9
				c0.1,0,0.2,0,0.3,0v5.1c0.7,0,1.3-0.3,1.7-0.6s0.6-0.9,0.6-1.4c0-0.4-0.1-0.8-0.3-1.1C68.9,401.6,68.6,401.4,68.1,401.2z
				 M66.2,405v-3.8c-0.6,0.1-1,0.2-1.3,0.4c-0.4,0.4-0.7,0.8-0.7,1.4c0,0.5,0.2,1,0.5,1.3C65.1,404.8,65.6,405,66.2,405z"/>
			<path fill="none" stroke="#FFFFFF" stroke-width="0.41" d="M69.4,394.1c0.4,0.4,0.6,0.8,0.8,1.2c0.1,0.4,0.2,0.8,0.2,1.3
				c0,0.7-0.2,1.3-0.5,1.7s-0.8,0.6-1.4,0.6c-0.3,0-0.6-0.1-0.9-0.2c-0.3-0.2-0.5-0.4-0.7-0.6c-0.2-0.2-0.3-0.5-0.4-0.8
				c-0.1-0.2-0.1-0.6-0.2-1c-0.1-0.9-0.2-1.6-0.4-2.1c-0.2,0-0.3,0-0.3,0c-0.5,0-0.8,0.1-1,0.3c-0.3,0.3-0.4,0.7-0.4,1.3
				c0,0.5,0.1,0.9,0.3,1.2c0.2,0.3,0.5,0.5,1,0.6l-0.2,1.1c-0.5-0.1-0.9-0.3-1.2-0.5c-0.3-0.2-0.5-0.6-0.7-1c-0.2-0.4-0.2-1-0.2-1.5
				c0-0.6,0.1-1.1,0.2-1.4c0.1-0.4,0.3-0.6,0.5-0.8s0.5-0.3,0.8-0.4c0.2,0,0.6-0.1,1.1-0.1h1.5c1.1,0,1.8,0,2-0.1s0.6-0.1,0.8-0.3
				v1.2C70,394,69.8,394.1,69.4,394.1z M66.9,394.2c0.2,0.4,0.3,1,0.4,1.9c0.1,0.5,0.1,0.8,0.2,1s0.2,0.3,0.4,0.5
				c0.2,0.1,0.3,0.2,0.5,0.2c0.3,0,0.6-0.1,0.8-0.4c0.2-0.2,0.3-0.6,0.3-1c0-0.4-0.1-0.8-0.3-1.2c-0.2-0.3-0.5-0.6-0.8-0.8
				c-0.3-0.1-0.6-0.2-1.2-0.2H66.9z"/>
			<path fill="none" stroke="#FFFFFF" stroke-width="0.41" d="M70.8,391.4l0.2-1.1c0.3,0,0.6-0.2,0.8-0.4c0.2-0.3,0.3-0.7,0.3-1.2
				c0-0.5-0.1-0.9-0.3-1.2c-0.2-0.3-0.5-0.5-0.9-0.6c-0.2-0.1-0.7-0.1-1.5-0.1c0.6,0.5,0.9,1.1,0.9,1.9c0,0.9-0.3,1.7-1,2.2
				c-0.7,0.5-1.5,0.8-2.4,0.8c-0.7,0-1.3-0.1-1.8-0.4c-0.6-0.2-1-0.6-1.3-1c-0.3-0.4-0.5-1-0.5-1.6c0-0.8,0.3-1.5,1-2h-0.8v-1.1
				l5.9,0c1.1,0,1.8,0.1,2.3,0.3s0.8,0.6,1.1,1c0.3,0.5,0.4,1,0.4,1.7c0,0.8-0.2,1.5-0.5,2C72.1,391.2,71.6,391.5,70.8,391.4z
				 M66.7,390.5c0.9,0,1.5-0.2,2-0.5c0.4-0.4,0.6-0.8,0.6-1.3c0-0.5-0.2-1-0.6-1.3s-1.1-0.5-1.9-0.5c-0.8,0-1.5,0.2-1.9,0.6
				c-0.4,0.4-0.6,0.8-0.6,1.3c0,0.5,0.2,1,0.6,1.3C65.3,390.3,65.9,390.5,66.7,390.5z"/>
			<path fill="none" stroke="#FFFFFF" stroke-width="0.41" d="M70.3,383.9l-9.4,0v-1.2l9.4,0V383.9z"/>
			<path fill="none" stroke="#FFFFFF" stroke-width="0.41" d="M68.1,376.3l0.1-1.2c0.7,0.2,1.2,0.5,1.6,1s0.6,1.2,0.6,2
				c0,1-0.3,1.8-0.9,2.4c-0.6,0.6-1.5,0.9-2.6,0.9c-1.1,0-2-0.3-2.7-0.9c-0.6-0.6-1-1.4-1-2.3c0-0.9,0.3-1.7,0.9-2.2
				s1.5-0.9,2.6-0.9c0.1,0,0.2,0,0.3,0v5.1c0.7,0,1.3-0.3,1.7-0.6s0.6-0.9,0.6-1.4c0-0.4-0.1-0.8-0.3-1.1S68.6,376.5,68.1,376.3z
				 M66.2,380.1v-3.8c-0.6,0.1-1,0.2-1.3,0.4c-0.4,0.4-0.7,0.8-0.7,1.4c0,0.5,0.2,1,0.5,1.3S65.6,380.1,66.2,380.1z"/>
			<path fill="none" stroke="#FFFFFF" stroke-width="0.41" d="M70.3,372.6v1.1l-9.4,0v-1.2h3.4c-0.6-0.5-0.9-1.1-0.9-1.9
				c0-0.4,0.1-0.8,0.3-1.2s0.4-0.7,0.7-0.9c0.3-0.2,0.7-0.4,1.1-0.6s0.9-0.2,1.4-0.2c1.2,0,2.1,0.3,2.7,0.9c0.6,0.6,1,1.3,1,2.1
				c0,0.8-0.3,1.4-1,1.9H70.3z M66.8,372.6c0.8,0,1.4-0.1,1.8-0.3c0.6-0.4,0.9-0.9,0.9-1.5c0-0.5-0.2-0.9-0.7-1.3
				c-0.4-0.4-1.1-0.6-2-0.6c-0.9,0-1.5,0.2-2,0.5c-0.4,0.4-0.6,0.8-0.6,1.3c0,0.5,0.2,0.9,0.7,1.3C65.3,372.4,66,372.6,66.8,372.6z"
				/>
			<path fill="none" stroke="#FFFFFF" stroke-width="0.41" d="M66.9,366.8c-1.3,0-2.2-0.4-2.8-1.1c-0.5-0.6-0.8-1.3-0.8-2.1
				c0-0.9,0.3-1.7,0.9-2.3c0.6-0.6,1.5-0.9,2.5-0.9c0.9,0,1.6,0.1,2.1,0.4c0.5,0.3,0.9,0.6,1.2,1.2s0.4,1.1,0.4,1.6
				c0,1-0.3,1.7-0.9,2.3C68.9,366.5,68,366.8,66.9,366.8z M66.9,365.6c0.9,0,1.5-0.2,2-0.6s0.7-0.9,0.7-1.4c0-0.6-0.2-1.1-0.7-1.4
				c-0.4-0.4-1.1-0.6-2-0.6c-0.8,0-1.5,0.2-1.9,0.6c-0.4,0.4-0.7,0.9-0.7,1.4c0,0.6,0.2,1.1,0.6,1.4C65.3,365.4,66,365.6,66.9,365.6
				z"/>
			<path fill="none" stroke="#FFFFFF" stroke-width="0.41" d="M70.3,359l-6.8,0v-1h1c-0.7-0.5-1.1-1.2-1.1-2.2
				c0-0.4,0.1-0.8,0.2-1.1c0.1-0.3,0.3-0.6,0.6-0.8c0.2-0.2,0.5-0.3,0.9-0.4c0.2,0,0.6-0.1,1.1-0.1h4.2v1.2h-4.2
				c-0.5,0-0.8,0-1.1,0.1s-0.4,0.2-0.6,0.5c-0.1,0.2-0.2,0.5-0.2,0.8c0,0.5,0.2,0.9,0.5,1.3c0.3,0.4,0.9,0.5,1.8,0.5h3.7V359z"/>
			<path fill="none" stroke="#FFFFFF" stroke-width="0.41" d="M68.1,347l0.1-1.2c0.7,0.2,1.2,0.5,1.6,1s0.6,1.2,0.6,2
				c0,1-0.3,1.8-0.9,2.4c-0.6,0.6-1.5,0.9-2.6,0.9c-1.1,0-2-0.3-2.7-0.9c-0.6-0.6-1-1.4-1-2.3c0-0.9,0.3-1.7,0.9-2.2
				s1.5-0.9,2.6-0.9c0.1,0,0.2,0,0.3,0v5.1c0.7,0,1.3-0.3,1.7-0.6s0.6-0.9,0.6-1.4c0-0.4-0.1-0.8-0.3-1.1S68.6,347.2,68.1,347z
				 M66.2,350.8V347c-0.6,0.1-1,0.2-1.3,0.4c-0.4,0.4-0.7,0.8-0.7,1.4c0,0.5,0.2,1,0.5,1.3S65.6,350.8,66.2,350.8z"/>
		</g>
		<g>
			<path fill="#231F20" d="M66,427.9c-0.1,0-0.1,0-0.2,0C65.9,427.9,65.9,427.9,66,427.9z"/>
			<path fill="#231F20" d="M65.7,427.8c-0.6,0-1.2-0.2-1.8-0.7c-0.1-0.1-0.1-0.1-0.2-0.2c0.1,0.1,0.1,0.1,0.2,0.2
				C64.5,427.6,65.1,427.8,65.7,427.8z"/>
			<path fill="#231F20" d="M62.3,426.1c0.1,0,0.3,0.1,0.4,0.2C62.6,426.2,62.5,426.1,62.3,426.1z"/>
			<path fill="#FFFFFF" d="M71.1,422.4c-0.2-0.5-0.4-1-0.6-1.6c0.2-0.3,0.6-0.5,0.6-0.8c0.5-1.9-1.6-2.4-3-1.8
				c-0.2,0-0.5-0.1-1.6-0.4c-1.7,0-2.7-0.5-3.3,1.4c-0.9,1-1.5,2.1-1.9,3.4c-1.8,0.7-3.2,1.4-4.2,3.1c-1.2,2.4-0.6,5,1,6.9
				c0.4,1.3,0.7,1.6,1.9,2.2c2.4,1.1,2.4,0.9,4.7,2c0.1,0,0.9,0.4,1.2,0.4c0.5,0,0.9,0,1.5-0.1c0.2,0,1.1-0.1,1.5-0.5
				c0.8-0.6,1.8-1.8,1.8-2.9 M70.5,435.7c-0.1,0.1-0.2,0.2-0.2,0.3 M63.8,418.6c0.7,0.6,0.9,1.4,0.9,2.3
				C64,420.9,63.3,419.1,63.8,418.6z M59.6,433.8c-1.5-1.1-1.2-2.5,0.3-3.3c2.8-0.7,2.8-0.7,5.4-1.6c1.3-0.2,2.4-0.4,3.7,0.3
				c1.2,1.2,1.2,2.1,1.2,3.7C69,439.2,63.4,435.8,59.6,433.8z M70.4,419.1c0.1,0.2,0.1,0.4,0.1,0.6c-0.3,0.4-0.9,1.1-1.4,1.2
				c-0.2-0.7-0.6-1.3-0.9-1.9C68.7,418.2,69.8,418.3,70.4,419.1z M70.7,433c0-2.8-0.9-4.7-3.9-4.8c-0.4,0-0.7,0.1-1.1,0.2
				c-2.9,0.9-5.7,1.6-6.3,1.9c-0.7,0.4-0.9,0.8-1.3,1.5c-0.7-1.2-1.2-2.1-1.1-3.6c-0.1,0-0.1,0,0-0.4l0,0c0.3-1.7,1.2-3.2,2.9-4
				c0.1,1,0.8,1.3,1.3,0.4c0.1-0.3,0-0.9-0.1-1c0.1,0,0.3-0.1,0.5-0.1c-0.1,0.8-0.4,1.4-0.7,1.9c0.3-0.5,0.6-1.1,0.7-1.9
				c0.4-1.1,0.9-2.2,1.6-3.1c0.1,0.1,0,0.1,0.4,0.8c0.6,0.6,0.9,1,1.7,0.9c1.5-0.6,1.5-2.1,0.7-3.4c2.4,0.5,2.8,4.8,3,6.6
				c0.8,1.6,1.3-1.9,1.4-2.3c0.5,1.2,0.2,3.2,0.2,4.5c0.1,0,0.3,0,0.4,0c0.1-0.6,0.1-1.3,0.2-1.9l0,0c-0.1-0.7-0.1-1.4-0.2-2.2
				 M60.4,423.9c0.1,0,0.2,0.1,0.2,0.2s-0.1,0.2-0.2,0.2c-0.1,0-0.2-0.1-0.2-0.2C60.2,424.1,60.3,423.9,60.4,423.9z"/>
			<path fill="#B28D2F" d="M61,426.1c0.5-0.1,0.9-0.1,1.3,0C62,426,61.6,426,61,426.1c-1.4,0.6-2.7,1.3-4,2.1l0,0l0,0
				C58.3,427.4,59.7,426.6,61,426.1z"/>
			<path fill="#B28D2F" d="M62.7,426.3c0.3,0.2,0.6,0.4,0.9,0.7C63.3,426.7,63,426.4,62.7,426.3z"/>
			<path fill="#B28D2F" d="M71.1,430.5c0-1.6,0.2-3.5-1.9-3.5c-1.2,0.4-2.2,0.8-3.2,0.8c1,0,2.1-0.4,3.2-0.8
				C71.3,427.1,71.1,428.9,71.1,430.5"/>
			<path fill="#B28D2F" d="M72.3,424.5c-0.4,0.2-0.7,0.4-1.1,0.6l0,0C71.6,424.9,71.9,424.7,72.3,424.5z"/>
			<path fill="#FFFFFF" d="M61.9,427.7c-0.6-1.3-1.6-0.5-1.5,0.5c0,0.3,0.1,0.6,0.3,0.8c0.7,0.4,1.1-0.2,1.2-0.6
				C62,428.1,62,428,61.9,427.7z M61.1,428.5c0,0.2-0.1,0.3-0.2,0.3c0,0-0.1,0-0.1,0c0,0,0,0,0,0c0,0,0,0,0-0.1c0,0-0.1-0.1-0.1-0.2
				c0-0.2,0.1-0.3,0.2-0.3C61,428.2,61.1,428.3,61.1,428.5z"/>
			<path fill="#B28D2F" d="M60.9,425c-0.8,1.1-2,1.6-3.7,2.7c-0.1,0-0.1,0-0.2,0l0,0c0.1,0,0.1,0,0.2,0
				C58.9,426.7,60.1,426.2,60.9,425z"/>
			<path fill="#FFFFFF" d="M60.7,428.7C60.7,428.7,60.8,428.7,60.7,428.7C60.8,428.7,60.8,428.7,60.7,428.7
				C60.8,428.7,60.8,428.7,60.7,428.7z"/>
			<path fill="#FFFFFF" d="M60.4,424.4c0.1,0,0.2-0.1,0.2-0.2s-0.1-0.2-0.2-0.2c-0.1,0-0.2,0.1-0.2,0.2
				C60.2,424.3,60.3,424.4,60.4,424.4z M60.5,424c0,0.1-0.1,0.2,0,0.2c-0.2,0-0.1,0.1-0.2,0C60.3,423.9,60.2,424,60.5,424z"/>
			<path fill="#FFFFFF" d="M60.5,424.3c0-0.1,0.1-0.1,0-0.2c-0.3-0.1-0.2-0.1-0.2,0.2C60.4,424.4,60.3,424.3,60.5,424.3z"/>
			<path fill="#FFFFFF" d="M60.7,428.5c0,0.1,0,0.1,0.1,0.2c0-0.1,0-0.1,0-0.4c0,0,0.1,0,0.1,0c0.1,0.1,0.1,0.1,0.2,0.1
				c0,0.1,0,0.1,0,0.2c-0.1,0-0.1,0.1-0.2,0.1c0,0,0.1,0,0.1,0c0.1,0,0.2-0.1,0.2-0.3s-0.1-0.3-0.2-0.3
				C60.8,428.2,60.7,428.3,60.7,428.5z"/>
			<path fill="#FFFFFF" d="M61,428.4c-0.1,0-0.1-0.1-0.2-0.1c-0.1,0-0.1,0-0.1,0c0,0.2,0,0.3,0,0.4c0,0,0,0,0,0
				c0.1,0,0.1-0.1,0.2-0.1C61,428.5,61,428.5,61,428.4z"/>
		</g>
	</g>
</g>
</svg>
