<?xml version="1.0" encoding="utf-8"?>
<!-- Generator: Adobe Illustrator 18.1.1, SVG Export Plug-In . SVG Version: 6.00 Build 0)  -->
<svg version="1.1" id="Layer_1" xmlns="http://www.w3.org/2000/svg" xmlns:xlink="http://www.w3.org/1999/xlink" x="0px" y="0px"
	 viewBox="0 138.6 612 528" enable-background="new 0 138.6 612 528" xml:space="preserve">
<g>
	<g>
		<rect x="230.8" y="280.6" fill="#2DB6B8" width="150.4" height="229.7"/>
		<path fill="#2DB6B8" d="M230.8,281.9c0,0-0.4-45.4,51.3-56.3h51c0,0,44.1,9.8,48.1,56.3H230.8z"/>
		<path fill="#2DB6B8" d="M230.8,510.2c0,0-0.4,45.4,51.3,56.3h51c0,0,44.1-9.8,48.1-56.3H230.8z"/>
	</g>
	<g>
		<g>
			<circle fill="#B57F41" cx="239.6" cy="460.2" r="6.7"/>
			<g>
				<circle fill="#DDE6DD" cx="239.6" cy="460.2" r="4.3"/>
			</g>
		</g>
		<g>
			<circle fill="#B57F41" cx="259.6" cy="460.2" r="6.7"/>
			<g>
				<circle fill="#DDE6DD" cx="259.6" cy="460.2" r="4.3"/>
			</g>
		</g>
		<g>
			<circle fill="#B57F41" cx="278.8" cy="460.2" r="6.7"/>
			<g>
				<circle fill="#DDE6DD" cx="278.8" cy="460.2" r="4.3"/>
			</g>
		</g>
		<g>
			<circle fill="#B57F41" cx="297.3" cy="460.2" r="6.7"/>
			<g>
				<circle fill="#DDE6DD" cx="297.3" cy="460.2" r="4.3"/>
			</g>
		</g>
		<g>
			<circle fill="#B57F41" cx="315.8" cy="460.2" r="6.7"/>
			<g>
				<circle fill="#DDE6DD" cx="315.8" cy="460.2" r="4.3"/>
			</g>
		</g>
		<g>
			<circle fill="#B57F41" cx="334.9" cy="460.2" r="6.7"/>
			<g>
				<circle fill="#DDE6DD" cx="334.9" cy="460.2" r="4.3"/>
			</g>
		</g>
		<g>
			<circle fill="#B57F41" cx="354.3" cy="460.2" r="6.7"/>
			<g>
				<circle fill="#DDE6DD" cx="354.3" cy="460.2" r="4.3"/>
			</g>
		</g>
		<g>
			<circle fill="#B57F41" cx="372.9" cy="460.2" r="6.7"/>
			<g>
				<circle fill="#DDE6DD" cx="372.9" cy="460.2" r="4.3"/>
			</g>
		</g>
		<g>
			<circle fill="#B57F41" cx="259.3" cy="536.5" r="6.7"/>
			<g>
				<circle fill="#DDE6DD" cx="259.3" cy="536.5" r="4.3"/>
			</g>
		</g>
		<g>
			<circle fill="#B57F41" cx="278.5" cy="536.5" r="6.7"/>
			<g>
				<circle fill="#DDE6DD" cx="278.5" cy="536.5" r="4.3"/>
			</g>
		</g>
		<g>
			<circle fill="#B57F41" cx="296.9" cy="536.5" r="6.7"/>
			<g>
				<circle fill="#DDE6DD" cx="296.9" cy="536.5" r="4.3"/>
			</g>
		</g>
		<g>
			<circle fill="#B57F41" cx="316.1" cy="536.5" r="6.7"/>
			<g>
				<circle fill="#DDE6DD" cx="316.1" cy="536.5" r="4.3"/>
			</g>
		</g>
		<g>
			<circle fill="#B57F41" cx="335.3" cy="536.5" r="6.7"/>
			<g>
				<circle fill="#DDE6DD" cx="335.3" cy="536.5" r="4.3"/>
			</g>
		</g>
		<g>
			<circle fill="#B57F41" cx="354.8" cy="536.5" r="6.7"/>
			<g>
				<circle fill="#DDE6DD" cx="354.8" cy="536.5" r="4.3"/>
			</g>
		</g>
		<g>
			<circle fill="#B57F41" cx="278.5" cy="554.7" r="6.7"/>
			<g>
				<circle fill="#DDE6DD" cx="278.5" cy="554.7" r="4.3"/>
			</g>
		</g>
		<g>
			<circle fill="#B57F41" cx="297.6" cy="554.7" r="6.7"/>
			<g>
				<circle fill="#DDE6DD" cx="297.6" cy="554.7" r="4.3"/>
			</g>
		</g>
		<g>
			<circle fill="#B57F41" cx="316.1" cy="554.7" r="6.7"/>
			<g>
				<circle fill="#DDE6DD" cx="316.1" cy="554.7" r="4.3"/>
			</g>
		</g>
		<g>
			<circle fill="#B57F41" cx="334.9" cy="554.7" r="6.7"/>
			<g>
				<circle fill="#DDE6DD" cx="334.9" cy="554.7" r="4.3"/>
			</g>
		</g>
		<g>
			<circle fill="#B57F41" cx="239.4" cy="414.8" r="6.7"/>
			<g>
				<circle fill="#DDE6DD" cx="239.4" cy="414.8" r="4.3"/>
			</g>
		</g>
		<g>
			<circle fill="#B57F41" cx="239.6" cy="433.5" r="6.7"/>
			<g>
				<circle fill="#DDE6DD" cx="239.6" cy="433.5" r="4.3"/>
			</g>
		</g>
		<g>
			<circle fill="#B57F41" cx="259.3" cy="433.5" r="6.7"/>
			<g>
				<circle fill="#DDE6DD" cx="259.3" cy="433.5" r="4.3"/>
			</g>
		</g>
		<g>
			<circle fill="#B57F41" cx="277.6" cy="433.5" r="6.7"/>
			<g>
				<circle fill="#DDE6DD" cx="277.6" cy="433.5" r="4.3"/>
			</g>
		</g>
		<g>
			<circle fill="#B57F41" cx="372.6" cy="432.2" r="6.7"/>
			<g>
				<circle fill="#DDE6DD" cx="372.6" cy="432.2" r="4.3"/>
			</g>
		</g>
	</g>
	<g>
		<g>
			<circle fill="#B57F41" cx="239.4" cy="478.6" r="6.7"/>
			<g>
				<circle fill="#DDE6DD" cx="239.4" cy="478.6" r="4.3"/>
			</g>
		</g>
		<g>
			<circle fill="#B57F41" cx="259.3" cy="478.6" r="6.7"/>
			<g>
				<circle fill="#DDE6DD" cx="259.3" cy="478.6" r="4.3"/>
			</g>
		</g>
		<g>
			<circle fill="#B57F41" cx="278.5" cy="478.6" r="6.7"/>
			<g>
				<circle fill="#DDE6DD" cx="278.5" cy="478.6" r="4.3"/>
			</g>
		</g>
		<g>
			<circle fill="#B57F41" cx="296.9" cy="478.6" r="6.7"/>
			<g>
				<circle fill="#DDE6DD" cx="296.9" cy="478.6" r="4.3"/>
			</g>
		</g>
		<g>
			<circle fill="#B57F41" cx="315.5" cy="478.6" r="6.7"/>
			<g>
				<circle fill="#DDE6DD" cx="315.5" cy="478.6" r="4.3"/>
			</g>
		</g>
		<g>
			<circle fill="#B57F41" cx="334.6" cy="478.6" r="6.7"/>
			<g>
				<circle fill="#DDE6DD" cx="334.6" cy="478.6" r="4.3"/>
			</g>
		</g>
		<g>
			<circle fill="#B57F41" cx="354.1" cy="478.6" r="6.7"/>
			<g>
				<circle fill="#DDE6DD" cx="354.1" cy="478.6" r="4.3"/>
			</g>
		</g>
		<g>
			<circle fill="#B57F41" cx="372.6" cy="478.6" r="6.7"/>
			<g>
				<circle fill="#DDE6DD" cx="372.6" cy="478.6" r="4.3"/>
			</g>
		</g>
	</g>
	<g>
		<g>
			<circle fill="#B57F41" cx="240.1" cy="497.2" r="6.7"/>
			<g>
				<circle fill="#DDE6DD" cx="240.1" cy="497.2" r="4.3"/>
			</g>
		</g>
		<g>
			<circle fill="#B57F41" cx="259.9" cy="497.2" r="6.7"/>
			<g>
				<circle fill="#DDE6DD" cx="259.9" cy="497.2" r="4.3"/>
			</g>
		</g>
		<g>
			<circle fill="#B57F41" cx="279.3" cy="497.2" r="6.7"/>
			<g>
				<circle fill="#DDE6DD" cx="279.3" cy="497.2" r="4.3"/>
			</g>
		</g>
		<g>
			<circle fill="#B57F41" cx="297.6" cy="497.2" r="6.7"/>
			<g>
				<circle fill="#DDE6DD" cx="297.6" cy="497.2" r="4.3"/>
			</g>
		</g>
		<g>
			<circle fill="#B57F41" cx="316.1" cy="497.2" r="6.7"/>
			<g>
				<circle fill="#DDE6DD" cx="316.1" cy="497.2" r="4.3"/>
			</g>
		</g>
		<g>
			<circle fill="#B57F41" cx="335.3" cy="497.2" r="6.7"/>
			<g>
				<circle fill="#DDE6DD" cx="335.3" cy="497.2" r="4.3"/>
			</g>
		</g>
		<g>
			<circle fill="#B57F41" cx="354.8" cy="497.2" r="6.7"/>
			<g>
				<circle fill="#DDE6DD" cx="354.8" cy="497.2" r="4.3"/>
			</g>
		</g>
		<g>
			<circle fill="#B57F41" cx="373.3" cy="497.2" r="6.7"/>
			<g>
				<circle fill="#DDE6DD" cx="373.3" cy="497.2" r="4.3"/>
			</g>
		</g>
	</g>
	<g>
		<g>
			<circle fill="#B57F41" cx="240.1" cy="516.8" r="6.7"/>
			<g>
				<circle fill="#DDE6DD" cx="240.1" cy="516.8" r="4.3"/>
			</g>
		</g>
		<g>
			<circle fill="#B57F41" cx="259.9" cy="516.8" r="6.7"/>
			<g>
				<circle fill="#DDE6DD" cx="259.9" cy="516.8" r="4.3"/>
			</g>
		</g>
		<g>
			<circle fill="#B57F41" cx="279.3" cy="516.8" r="6.7"/>
			<g>
				<circle fill="#DDE6DD" cx="279.3" cy="516.8" r="4.3"/>
			</g>
		</g>
		<g>
			<circle fill="#B57F41" cx="297.6" cy="516.8" r="6.7"/>
			<g>
				<circle fill="#DDE6DD" cx="297.6" cy="516.8" r="4.3"/>
			</g>
		</g>
		<g>
			<circle fill="#B57F41" cx="316.1" cy="516.8" r="6.7"/>
			<g>
				<circle fill="#DDE6DD" cx="316.1" cy="516.8" r="4.3"/>
			</g>
		</g>
		<g>
			<circle fill="#B57F41" cx="335.3" cy="516.8" r="6.7"/>
			<g>
				<circle fill="#DDE6DD" cx="335.3" cy="516.8" r="4.3"/>
			</g>
		</g>
		<g>
			<circle fill="#B57F41" cx="354.8" cy="516.8" r="6.7"/>
			<g>
				<circle fill="#DDE6DD" cx="354.8" cy="516.8" r="4.3"/>
			</g>
		</g>
		<g>
			<circle fill="#B57F41" cx="373.3" cy="516.8" r="6.7"/>
			<g>
				<circle fill="#DDE6DD" cx="373.3" cy="516.8" r="4.3"/>
			</g>
		</g>
	</g>
	<rect x="238.2" y="376" display="none" fill="#DDE6DD" width="13.2" height="12.4"/>
	<polygon display="none" fill="#DDE6DD" points="269.7,416.8 266.7,416.5 266.7,414 269.5,414 269.5,408 266.7,408.1 266.7,405.8 
		269.4,405.6 269.4,398.2 266.7,398.2 266.7,396 279.3,396 281.9,396 281.9,398.2 278.8,398.2 278.8,405.1 281.9,405.1 281.9,408 
		279.3,408 279.3,413.5 281.9,413.5 281.9,416.6 279.3,416.6 279.3,417.9 269.7,417.9 	"/>
	<rect x="270.8" y="396" fill="#725752" width="7.2" height="21.8"/>
	<rect x="280.9" y="379" fill="#DDE6DD" width="4.8" height="4.4"/>
	<rect x="280.9" y="387" fill="#DDE6DD" width="4.8" height="4.4"/>
	<rect x="280.9" y="383.5" fill="#725752" width="4.8" height="4.4"/>
	<rect x="293.1" y="371" fill="#1C1F27" width="29.7" height="30.5"/>
	<rect x="296.9" y="401.5" fill="#DDE6DD" width="1.5" height="2.1"/>
	<rect x="301.2" y="401.5" fill="#DDE6DD" width="1.5" height="2.1"/>
	<rect x="305.2" y="401.5" fill="#DDE6DD" width="1.5" height="2.1"/>
	<rect x="308.8" y="401.5" fill="#DDE6DD" width="1.5" height="2.1"/>
	<rect x="312.8" y="401.5" fill="#DDE6DD" width="1.5" height="2.1"/>
	<rect x="317.3" y="401.5" fill="#DDE6DD" width="1.5" height="2.1"/>
	<rect x="297.2" y="369" fill="#DDE6DD" width="1.5" height="2.1"/>
	<rect x="301.4" y="369" fill="#DDE6DD" width="1.5" height="2.1"/>
	<rect x="305.5" y="369" fill="#DDE6DD" width="1.5" height="2.1"/>
	<rect x="308.9" y="369" fill="#DDE6DD" width="1.5" height="2.1"/>
	<rect x="313.1" y="369" fill="#DDE6DD" width="1.5" height="2.1"/>
	<rect x="317.6" y="369" fill="#DDE6DD" width="1.5" height="2.1"/>
	<rect x="323" y="375.4" fill="#DDE6DD" width="2.1" height="1.5"/>
	<rect x="323" y="379.6" fill="#DDE6DD" width="2.1" height="1.5"/>
	<rect x="323" y="383.8" fill="#DDE6DD" width="2.1" height="1.5"/>
	<rect x="323" y="387.1" fill="#DDE6DD" width="2.1" height="1.5"/>
	<rect x="323" y="391.2" fill="#DDE6DD" width="2.1" height="1.5"/>
	<rect x="323" y="395.9" fill="#DDE6DD" width="2.1" height="1.5"/>
	<rect x="291.2" y="375.4" fill="#DDE6DD" width="2.1" height="1.5"/>
	<rect x="291.2" y="379.6" fill="#DDE6DD" width="2.1" height="1.5"/>
	<rect x="291.2" y="383.8" fill="#DDE6DD" width="2.1" height="1.5"/>
	<rect x="291.2" y="387.1" fill="#DDE6DD" width="2.1" height="1.5"/>
	<rect x="291.2" y="391.2" fill="#DDE6DD" width="2.1" height="1.5"/>
	<rect x="291.2" y="395.9" fill="#DDE6DD" width="2.1" height="1.5"/>
	<rect x="348.9" y="403" fill="#DDE6DD" width="7.2" height="8.1"/>
	<rect x="348.9" y="413.8" fill="#DDE6DD" width="7.2" height="8.1"/>
	<rect x="363.4" y="403" fill="#DDE6DD" width="7.2" height="8.1"/>
	<rect x="363.4" y="413.8" fill="#DDE6DD" width="7.2" height="8.1"/>
	<rect x="356.1" y="403" fill="#FFFFFF" width="7.2" height="8.1"/>
	<rect x="356.1" y="413.8" fill="#FFFFFF" width="7.2" height="8.1"/>
	<rect x="260.1" y="241.1" fill="#164281" width="89.5" height="117.4"/>
	<circle fill="#B57F41" cx="365.8" cy="267.8" r="6.4"/>
	<circle fill="#DDE6DD" cx="365.8" cy="267.8" r="2.3"/>
	<circle fill="#B57F41" cx="365.8" cy="286.6" r="6.4"/>
	<circle fill="#DDE6DD" cx="365.8" cy="286.6" r="2.3"/>
	<circle fill="#B57F41" cx="365.8" cy="306.1" r="6.4"/>
	<circle fill="#DDE6DD" cx="365.8" cy="306.1" r="2.3"/>
	<g>
		<rect x="238.6" y="357.2" fill="#DDE6DD" width="4.3" height="12.6"/>
		<rect x="245.4" y="357.2" fill="#DDE6DD" width="4.3" height="12.6"/>
		<rect x="251.9" y="357.2" fill="#DDE6DD" width="4.3" height="12.6"/>
		<rect x="238.6" y="361.4" fill="#EC6051" width="4.3" height="3.8"/>
		<rect x="245.4" y="361.4" fill="#7BBC5E" width="4.3" height="3.8"/>
		<rect x="251.9" y="361.4" fill="#58BBDE" width="4.3" height="3.8"/>
		<rect x="242.9" y="298.5" fill="#DDE6DD" width="11" height="26.2"/>
		<rect x="242.9" y="265.5" fill="#DDE6DD" width="6.7" height="19.3"/>
		<rect x="242.9" y="271.9" fill="#5C4B4A" width="6.7" height="6.7"/>
		<rect x="253.8" y="268.8" fill="#DDE6DD" width="4.5" height="13.1"/>
		<rect x="253.8" y="273" fill="#5C4B4A" width="4.5" height="4.5"/>
		<rect x="362" y="379" fill="#DDE6DD" width="4.5" height="13.1"/>
		<rect x="362" y="383.2" fill="#5C4B4A" width="4.5" height="4.5"/>
		<rect x="332.3" y="377.8" fill="#DDE6DD" width="3.8" height="10.9"/>
		<rect x="332.3" y="381.4" fill="#5C4B4A" width="3.8" height="3.8"/>
		<rect x="330.7" y="369" fill="#DDE6DD" width="10.9" height="3.8"/>
		<rect x="334.2" y="369" fill="#5C4B4A" width="3.8" height="3.8"/>
		<rect x="330.7" y="362.5" fill="#DDE6DD" width="10.9" height="3.8"/>
		<rect x="334.2" y="362.5" fill="#5C4B4A" width="3.8" height="3.8"/>
		<rect x="357.7" y="363.1" fill="#DDE6DD" width="10.9" height="3.8"/>
		<rect x="361.3" y="363.1" fill="#5C4B4A" width="3.8" height="3.8"/>
		<rect x="353.5" y="336.2" fill="#DDE6DD" width="10.9" height="3.8"/>
		<rect x="357" y="336.2" fill="#5C4B4A" width="3.8" height="3.8"/>
		<rect x="338.5" y="377.8" fill="#DDE6DD" width="3.8" height="10.9"/>
		<rect x="338.5" y="381.4" fill="#5C4B4A" width="3.8" height="3.8"/>
		<rect x="338.5" y="391" fill="#DDE6DD" width="3.8" height="10.9"/>
		<rect x="338.5" y="394.5" fill="#5C4B4A" width="3.8" height="3.8"/>
		<rect x="332.3" y="391" fill="#DDE6DD" width="3.8" height="10.9"/>
		<rect x="332.3" y="394.5" fill="#5C4B4A" width="3.8" height="3.8"/>
		<rect x="357.7" y="344.8" fill="#1C2127" width="15.5" height="15.3"/>
	</g>
	<rect x="346.1" y="384.4" fill="#1C2127" width="12.9" height="5.5"/>
	<rect x="350.6" y="380.1" fill="#DDE6DD" width="2.8" height="4.3"/>
	<rect x="347.7" y="390" fill="#DDE6DD" width="2.8" height="4.3"/>
	<rect x="354.9" y="390" fill="#DDE6DD" width="2.8" height="4.3"/>
	<rect x="313.4" y="243.8" fill="#DDE6DD" width="19.2" height="4.4"/>
	<rect x="317.1" y="247.3" fill="#DDE6DD" width="9.5" height="6.5"/>
	<rect x="327.8" y="249.5" fill="#DDE6DD" width="13.3" height="4.4"/>
	<rect x="333.9" y="243.8" fill="#DDE6DD" width="7.3" height="6.9"/>
	<rect x="316.1" y="258.1" fill="#243264" width="25" height="12"/>
</g>
<rect x="272.9" y="277.5" fill="#FFFFFF" width="65.2" height="70.5"/>
</svg>
