<!-- Generator: Adobe Illustrator 18.1.1, SVG Export Plug-In  -->
<svg version="1.1"
	 xmlns="http://www.w3.org/2000/svg" xmlns:xlink="http://www.w3.org/1999/xlink" xmlns:a="http://ns.adobe.com/AdobeSVGViewerExtensions/3.0/"
	 x="0px" y="0px" width="322.968px" height="286.106px" viewBox="0 0 322.968 286.106" enable-background="new 0 0 322.968 286.106"
	 xml:space="preserve">
<defs>
</defs>
<g id="_x33__1_">
	<path fill="#29ABE2" d="M307.812,32.368C293.984,14.2,272.219,3.721,241.215,0.434C238.734,0.186,236.068,0,233.34,0
		c-27.47,0-54.815,12.898-71.868,33.36C144.42,12.898,117.074,0,89.666,0c-2.728,0-5.333,0.124-7.937,0.434
		C50.787,3.783,29.022,14.2,15.194,32.368C1.49,50.413-2.974,74.844,1.924,104.918c1.86,11.162,6.945,23.005,14.2,35.035h45.762
		l4.837-76.642c0.434-6.015,5.023-10.975,10.975-11.72c6.015-0.744,11.72,2.852,13.642,8.619l36.337,110.871l20.215-80.115
		c1.426-5.581,6.449-9.487,12.216-9.549h0.062c5.767,0,10.789,3.845,12.216,9.425l12.898,49.111l11.658-18.975
		c1.984-3.162,5.271-5.333,8.991-5.891c3.72-0.558,7.503,0.682,10.293,3.162l13.332,12.216h23.749
		c7.007,0,12.588,5.643,12.588,12.588c0,7.007-5.643,12.588-12.588,12.588h-28.648c-3.162,0-6.263-1.178-8.557-3.348l-5.705-5.209
		l-19.099,31.252c-2.666,4.341-7.565,6.635-12.588,5.891c-5.023-0.744-9.115-4.403-10.355-9.301l-7.937-30.198l-18.913,74.782
		c-1.364,5.457-6.201,9.363-11.782,9.549c-0.124,0-0.248,0-0.496,0c-5.457,0-10.293-3.534-12.03-8.681l-29.454-89.85l-1.426,22.881
		c-0.434,6.635-5.953,11.844-12.588,11.844H34.045c21.889,27.408,51.343,55.063,77.2,79.433l0.992,0.93
		c12.712,11.906,23.625,22.261,30.694,29.888c0.93,1.054,9.611,10.603,19.099,10.603c9.549,0,18.044-9.611,18.851-10.603
		c7.565-8.185,19.843-19.843,31.996-31.314c44.956-42.662,101.012-95.741,108.019-139.395
		C326.042,74.72,321.577,50.289,307.812,32.368z"/>
</g>
</svg>