<?xml version="1.0" encoding="utf-8"?>
<!-- Generator: Adobe Illustrator 18.1.1, SVG Export Plug-In . SVG Version: 6.00 Build 0)  -->
<!DOCTYPE svg PUBLIC "-//W3C//DTD SVG 1.1//EN" "http://www.w3.org/Graphics/SVG/1.1/DTD/svg11.dtd">
<svg version="1.1" id="Layer_1" xmlns="http://www.w3.org/2000/svg" xmlns:xlink="http://www.w3.org/1999/xlink" x="0px" y="0px"
	 viewBox="0 0 612 792" enable-background="new 0 0 612 792" xml:space="preserve">
<g>
	<g>
		<path fill="#FEFEFE" d="M306,146.5c82.2,0,164.3,0,246.5-0.1c2.9,0,3.5,0.6,3.5,3.5c-0.1,164-0.1,328.1,0,492.1
			c0,2.9-0.6,3.5-3.5,3.5c-164.3-0.1-328.7-0.1-493,0c-2.9,0-3.5-0.6-3.5-3.5c0-164,0-328.1-0.1-492.1c0-2.9,0.6-3.5,3.5-3.5
			C141.6,146.5,223.8,146.5,306,146.5z M305.9,147.4c-80.6,0-161.2,0-241.8,0c-6.5,0-7.2,0.7-7.2,7.3c0,160.9,0,321.9,0,482.8
			c0,6.5,0.7,7.2,7.3,7.2c161.2,0,322.4,0,483.6,0c6.5,0,7.2-0.7,7.2-7.3c0-160.9,0-321.9,0-482.8c0-6.5-0.7-7.2-7.3-7.2
			C467.2,147.4,386.5,147.4,305.9,147.4z"/>
		<path fill="#FE0004" d="M305.9,147.4c80.6,0,161.2,0,241.8,0c6.6,0,7.3,0.7,7.3,7.2c0,160.9,0,321.9,0,482.8
			c0,6.6-0.7,7.3-7.2,7.3c-161.2,0-322.4,0-483.6,0c-6.6,0-7.3-0.7-7.3-7.2c0-160.9,0-321.9,0-482.8c0-6.6,0.7-7.3,7.2-7.3
			C144.7,147.4,225.3,147.4,305.9,147.4z M306.3,611.7c4.2,0.1,8.4-0.5,12.6-0.7c11.1-0.6,22-2.3,32.8-4.8
			c42.7-10.1,78.2-32,106.6-65.3c27.9-32.7,43.1-70.8,46.7-113.3c2.2-26.2-0.8-52-9.1-77.1c-2.4-7.3-2.3-7.3,4.1-11.6
			c19.1-12.8,29.6-30.8,31.2-53.5c1.6-22.8-6.4-42.4-23.8-57.6c-17.4-15.3-37.8-20-60.3-15.7c-15.2,2.9-27.9,10.5-38.2,22.2
			c-2.8,3.2-5.7,3.5-9.3,1.6c-4.5-2.4-8.9-4.6-13.6-6.6c-20.8-9.1-42.5-14.3-65.1-16.1c-18.3-1.5-36.3-0.1-54.3,3.4
			c-17.5,3.4-34.2,9.2-50.1,17.2c-3.5,1.8-5.9,1.8-8.9-1.3c-17.8-18.2-39.6-25.2-64.4-20.6c-37.4,7.1-60.3,42.1-56,76.3
			c2.4,19.7,11.3,35.5,26.8,47.7c5.2,4.1,5.6,4.8,3.4,11c-5.9,17.1-9.5,34.8-10.6,52.8c-1.2,19.9,0.4,39.8,5.3,59.2
			c10.2,41.2,31.2,75.9,63.2,103.8C213,595.2,257,610.5,306.3,611.7z"/>
		<path fill="#FEFEFE" d="M306.3,611.7c-49.2-1.2-93.2-16.4-130.7-49c-32.1-27.9-53-62.6-63.2-103.8c-4.8-19.5-6.5-39.3-5.3-59.2
			c1.1-18,4.6-35.7,10.6-52.8c2.1-6.2,1.8-6.9-3.4-11c-15.5-12.2-24.3-28.1-26.8-47.7c-4.3-34.1,18.6-69.2,56-76.3
			c24.8-4.6,46.6,2.4,64.4,20.6c3,3,5.4,3,8.9,1.3c15.9-8,32.6-13.8,50.1-17.2c18-3.5,36-4.9,54.3-3.4c22.6,1.9,44.3,7,65.1,16.1
			c4.6,2,9.1,4.3,13.6,6.6c3.6,1.9,6.5,1.6,9.3-1.6c10.2-11.7,23-19.3,38.2-22.2c22.5-4.3,42.9,0.4,60.3,15.7
			c17.4,15.2,25.4,34.8,23.8,57.6c-1.6,22.6-12.2,40.7-31.2,53.5c-6.4,4.3-6.4,4.3-4.1,11.6c8.3,25.1,11.2,50.9,9.1,77.1
			c-3.5,42.6-18.8,80.6-46.7,113.3c-28.5,33.4-64,55.2-106.6,65.3c-10.7,2.5-21.6,4.2-32.8,4.8C314.7,611.2,310.5,611.7,306.3,611.7
			z M304.1,430.1c-5.1,0.5-9.6-0.2-14.3,0.7c-4.6,0.8-9.5,0.4-14.2,1.3c-8.2,1.5-16.5,2.9-24.1,6.6c-9.3,4.6-12.7,12.2-10,22.3
			c3,11.3,9.5,20.5,18.3,27.5c19.9,15.7,41.6,24.4,67.3,14.5c18.9-7.3,33.5-19,40.8-38.5c4.5-12.1,0.1-21.9-11.8-26.3
			C339.2,431.7,321.5,430.6,304.1,430.1z"/>
		<path fill="#FE0004" d="M304.1,430.1c17.3,0.5,35,1.6,51.9,7.9c11.9,4.5,16.3,14.4,11.8,26.3c-7.3,19.5-21.8,31.2-40.8,38.5
			c-25.7,9.9-47.4,1.2-67.3-14.5c-8.9-7-15.4-16.2-18.3-27.5c-2.6-10,0.8-17.6,10-22.3c7.6-3.8,15.9-5.2,24.1-6.6
			c4.6-0.8,9.5-0.5,14.2-1.3C294.5,429.9,299.1,430.5,304.1,430.1z"/>
	</g>
</g>
</svg>
