<?xml version="1.0" encoding="utf-8"?>
<!-- Generator: Adobe Illustrator 18.1.1, SVG Export Plug-In . SVG Version: 6.00 Build 0)  -->
<!DOCTYPE svg PUBLIC "-//W3C//DTD SVG 1.1//EN" "http://www.w3.org/Graphics/SVG/1.1/DTD/svg11.dtd">
<svg version="1.1"
	 id="svg3215" xmlns:svg="http://www.w3.org/2000/svg" xmlns:sodipodi="http://sodipodi.sourceforge.net/DTD/sodipodi-0.dtd" xmlns:inkscape="http://www.inkscape.org/namespaces/inkscape" xmlns:cc="http://creativecommons.org/ns#" xmlns:dc="http://purl.org/dc/elements/1.1/" xmlns:rdf="http://www.w3.org/1999/02/22-rdf-syntax-ns#" inkscape:version="0.48.2 r9819" sodipodi:docname="blink1.png"
	 xmlns="http://www.w3.org/2000/svg" xmlns:xlink="http://www.w3.org/1999/xlink" x="0px" y="0px" viewBox="-94 -4 800 800"
	 enable-background="new -94 -4 800 800" xml:space="preserve">
<g>
	
		<sodipodi:namedview  id="namedview3217" showgrid="false" guidetolerance="10" inkscape:cx="150" inkscape:zoom="2.3681944" gridtolerance="10" inkscape:cy="112.5" bordercolor="#666666" objecttolerance="10" pagecolor="#ffffff" borderopacity="1" inkscape:window-width="1440" inkscape:window-height="776" inkscape:window-maximized="1" inkscape:window-y="0" inkscape:pageopacity="0" inkscape:window-x="0" inkscape:pageshadow="2" inkscape:current-layer="svg3215">
		</sodipodi:namedview>
	<g>
		<path fill="#010101" d="M44.1,346c0-29.1,0.3-58.2-0.3-87.5c-0.3-6.9,0.8-10.3,7.9-11.9c66.4-15.1,132.8-30.5,198.9-45.7
			c4.2-1.1,8.4-0.8,12.9,1.1c30.5,13.5,63.4,23,91.3,41c38.9,25.2,82.5,39.4,122.7,60.8c5.3,2.9,7.9,5.8,6.1,11.1
			c-8.7,28.3,4.8,42.6,29.6,53.5c24.9,10.9,47.9,26.1,71.7,39.4c5.3,2.9,9,5.8,8.7,12.9c-0.8,30.5-1.1,61.1-1.1,91.6
			c0,6.6-2.9,8.7-8.7,10.6c-55.8,16.9-111.6,33.9-167.4,51.3c-6.1,1.9-10.1,0.3-14.6-2.9c-14-9.8-28.6-19.3-42.3-29.4
			c-5.8-4.2-10.6-4.5-16.9-1.9c-18,7.1-36.2,13.2-54,20.7c-8.2,3.4-14.6,2.6-21.9-1.9c-19.3-11.4-39.2-21.9-58.8-32.8
			c-4.5-2.3-9.3-6.4-14.8-4c-12.4,5.3-21.7-1.3-31.4-7.4c-35-21.1-70.1-42.3-105.3-63c-7.4-4.5-10.1-9.3-10.1-18
			c0.5-29.1,0.3-58.5,0.3-87.5C45.7,346,44.9,346,44.1,346z"/>
		<path fill="#4D4D4D" d="M452.7,306.1c-23.8,7.1-48.2,14.3-72.2,21.4c-30.6,9-61.6,17.7-92.3,26.7c-6.1,1.9-11.4,2.2-17.4-1.3
			c-14-7.9-28.8-15.1-43.4-22.2c-12.9-6.4-24.9-15.6-40.7-12.7c-1.6,0.3-3.4-0.5-5-1.3c-40.3-19.8-80.1-39.5-123.5-61
			c38.1-8.7,73.2-16.9,108.4-24.9c25.7-5.8,51.3-11.1,77-17.4c7.1-1.9,13.7-1.9,20.4,1.3c24.9,11.1,51.6,19,74.6,33.3
			c35,21.4,72.8,35.4,109.5,52.9C450.1,301.3,452.5,301.8,452.7,306.1z"/>
		<path fill="#F6911E" d="M175.8,503.4c-34.1-19.3-65.9-38.1-98.7-55c-14-7.1-18.8-15.6-18.2-31.4c1.3-37.3,0.5-74.8,0.5-113.2
			c11.7,5.3,24.9,11.4,37.8,17.4c23.8,11.4,47.6,22.7,71.4,33.9c5,2.3,7.4,4.8,7.4,10.9C175.8,410.6,175.8,455.6,175.8,503.4z"/>
		<path fill="#DADADA" d="M578.6,416.1c-44.7,14-87,24.6-127,40.7c-30.9,12.4-55.8,9.5-82.5-9.5c-20.7-14.8-43.9-25.9-65.9-38.6
			c-0.3-0.3-0.5-0.8-1.9-2.3c30.5-8.7,60.3-17.2,90.5-25.7c21.9-6.4,43.9-12.1,65.9-18.8c5-1.6,9-1.6,13.7,0.8
			C506.2,379.9,540.8,397.1,578.6,416.1z"/>
		<path fill="#F5911E" d="M267.3,474.8c0,19-0.3,37.8,0,56.9c0.3,9-0.5,13.7-10.9,7.4c-14.8-9-36.7-11.9-44.5-25.9
			c-7.1-13.5-2.2-33.6-2.3-50.8c-0.3-25.9-0.3-52.1-1.1-78c-0.3-8.7,1.6-10.3,9.3-5.8c13.2,7.6,26.7,15.4,40.4,22.2
			c6.4,3.1,8.7,7.4,8.4,14.6c-0.5,19.9-0.3,39.7-0.3,59.5C267.1,474.8,267.1,474.8,267.3,474.8z"/>
		<path fill="#727272" d="M305.9,423.8c30.6,17.7,61.4,35.4,92,52.9c4,2.3,5,5.6,5,9.8c0,19,0,37.8,0,60
			c-33.9-41.5-66.1-81.2-98.4-120.6C305.1,425.1,305.4,424.6,305.9,423.8z"/>
		<path fill="#818181" d="M57.3,267.8c40,19.9,78.5,39.2,116.9,58.5c6.4,3.1,12.7,5.8,20.1,4.2c5.6-1.1,10.3,1.6,15.1,4
			c19,10.1,37.8,20.9,57.4,29.9c9.3,4.2,11.7,9.8,8.2,20.1c-21.9-12.4-43.9-24.3-65.3-36.7c-5.8-3.4-11.4-6.1-18.5-3.7
			c-5.6,2.2-11.1,0.3-16.4-2.3c-36.2-17.7-72.8-35.7-109.3-52.6C55.5,284.4,55.7,278,57.3,267.8z"/>
		<path fill="#656565" d="M289.8,368c14-4.5,27.2-8.7,40.4-12.9c41.5-12.7,83-25.7,124.5-38.1c3.7-1.1,9.5-6.9,11.7,0.5
			c1.9,6.4,0.8,12.4-7.9,15.1c-32.3,9.8-64.5,20.1-96.8,30.2c-13.5,4.2-27,7.9-40,12.9C309.6,380.5,299.9,378.3,289.8,368z"/>
		<path fill="#AFAFAF" d="M578.3,466.3c0,4,0,7.9,0,11.9c0,27.5,0.3,26.7-26.7,19.3c-14-3.7-18-10.6-17.4-24.6
			c1.1-29.6,0.3-29.6,27.8-40.4c16.6-6.6,16.6-6.6,16.6,11.4C578.3,451.3,578.3,459,578.3,466.3z"/>
		<path fill="#F3901E" d="M279,415.3c15.4,15.1,24.9,28.8,23,50c-2.2,22.2-0.5,44.9-0.8,67.5c0,7.6-12.4,18.2-19.3,16.9
			c-4.8-0.8-2.9-4.8-2.9-7.4C279,500.5,279,459.3,279,415.3z"/>
		<path fill="#EE8E1D" d="M188.5,436.8c0-21.1,0-42.3,0-63.4c0-3.7-1.3-9,4.5-9.3c6.4-0.3,4.2,5.6,4.5,9
			c0.5,41.8,0.8,83.8,1.1,125.9c0,1.9,0,3.4,0,5.3c0,4.5-2.6,6.9-6.6,6.4c-4.8-0.3-3.1-4.5-3.1-7.4
			C188.5,480.9,188.5,458.7,188.5,436.8z"/>
		<path fill="#050505" d="M449.6,425.9c-26.7,12.1-41.5,9.8-66.7-10.3C407.8,399.7,428.4,412.7,449.6,425.9z"/>
		<path fill="#040404" d="M509.6,410c-25.9,16.2-46.3,4.2-66.4-9.5C468.4,383.3,488.4,397.3,509.6,410z"/>
	</g>
</g>
</svg>
