<?xml version="1.0" encoding="utf-8"?>
<!-- Generator: Adobe Illustrator 18.1.0, SVG Export Plug-In . SVG Version: 6.00 Build 0)  -->
<svg version="1.1" id="Layer_1" xmlns="http://www.w3.org/2000/svg" xmlns:xlink="http://www.w3.org/1999/xlink" x="0px" y="0px"
	 viewBox="0 0 500 500" enable-background="new 0 0 500 500" xml:space="preserve">
<polygon fill="#D1D1D1" points="56.3,122 212.5,58 328,90 400,122 410.2,152 384,188 398,216 410.2,250 250,284 90,250.5 56.3,228 
	31.3,212 31.3,134 "/>
<path fill="#353535" d="M429.2,224l4.2-66.7h-1c1-4.2,1-7.3,1-9.4c0-62.5-84.4-102.1-214.6-102.1C116.7,45.8,18.8,99,6.3,161.5
	c-1,3.1-1,13.5-1,25l0,0c0,63.5,0,127.1,0,190.6c145.8,104.2,343.8,104.2,489.6,0c0-63.5,0-127.1,0-190.6
	C474,200,452.1,212.5,429.2,224z M46.9,168.8c8.3-33.3,78.1-82.3,172.9-82.3c108.3,0,172.9,31.2,172.9,61.5c0,0,0,8.3-10.4,17.7
	c-9.4,9.4-34.4,25-89.6,27.1l2.1-70.8l-18.8-2.1c-135.4-17.7-167.7,4.2-179.2,21.9c-7.3,11.5-4.5,24.3-5.2,33.3l1.3,63.3
	c-16.6-4.7-29.5-7.3-42.5-28.8C42.5,187.3,45.9,178.3,46.9,168.8z M133.3,164.6v-2.1c5.2-4.2,30.2-15.6,120.8-5.2l-1,34.4
	C200,188.5,142.7,176,133.3,164.6z M135.4,247.9l-1-36.5c47.9,18.8,120.8,21.9,132.3,21.9c4.2,0,8.3,0,11.5,0
	c46.9,0,84.4-7.3,110.4-22.9l-2.1,30.2C306.2,268.8,217.7,270.8,135.4,247.9z"/>
<polygon fill="#FF0000" points="31.3,250.5 31.3,368 81.3,397.3 81.3,274.5 "/>
<polygon fill="#FF7900" points="116.5,284 116.5,409.5 173,427.5 173,297.3 "/>
<polygon fill="#F9FF00" points="212.5,304 212.5,429.5 275.3,432.7 275.3,304 "/>
<polygon fill="#00FF4E" points="315.8,299.3 315.8,429.5 372.3,414 372.3,288 "/>
<polygon fill="#00F9FF" points="410.2,276.7 410.2,397.3 466.7,374.7 466.7,250.5 "/>
</svg>
