<?xml version="1.0" ?><!DOCTYPE svg  PUBLIC '-//W3C//DTD SVG 1.0//EN'  'http://www.w3.org/TR/2001/REC-SVG-20010904/DTD/svg10.dtd'><svg height="110px" style="enable-background:new 0 0 110 110;" version="1.0" viewBox="0 0 110 110" width="110px" xml:space="preserve" xmlns="http://www.w3.org/2000/svg" xmlns:xlink="http://www.w3.org/1999/xlink"><g id="Multicolor"><g><g><g><polygon points="87,87 87,31 69,23 39,31 23,23 23,79 39,87 69,79     " style="fill:#059BBF;"/></g></g><g><g><polygon points="69,79 87,87 87,31 69,23     " style="fill:#0484AB;"/></g></g><g><g><polygon points="39,31 23,23 23,79 39,87     " style="fill:#0484AB;"/></g></g><g><path d="M81.769,33.154l-12-5c-0.407-0.17-0.859-0.2-1.284-0.086l-29.268,7.805l-9.322-4.661     c-0.62-0.31-1.357-0.277-1.946,0.088C27.359,31.663,27,32.307,27,33v42c0,0.757,0.428,1.45,1.105,1.789l10,5     c0.423,0.211,0.923,0.273,1.41,0.144l29.343-7.825l11.373,4.739c0.617,0.257,1.322,0.188,1.878-0.182     C82.666,78.293,83,77.669,83,77V35C83,34.192,82.515,33.464,81.769,33.154z M79,60.178l-6-3.818v-5.556l6,3.75V60.178z      M68.858,32.107L79,36.333v15.862l-6.47-4.044c-0.309-0.193-0.697-0.203-1.015-0.026C71.197,48.302,71,48.636,71,49v6.087     l-1.463-0.931c-0.36-0.229-0.827-0.204-1.162,0.063l-5,4C63.138,58.409,63,58.696,63,59v12.53l-12,3.2V60     c0-0.296-0.132-0.578-0.359-0.768c-0.228-0.19-0.529-0.27-0.819-0.216l-10.812,1.966L31,59.38V45.387l7.684,2.561     C38.786,47.983,38.893,48,39,48h8c0.265,0,0.52-0.105,0.707-0.293l4-4C51.895,43.52,52,43.265,52,43v-6.397l11-2.934v2.653     l-4.372,1.749c-0.513,0.206-0.762,0.787-0.557,1.3c0.203,0.505,0.777,0.764,1.3,0.557L63,38.477v2.845l-4.372,1.749     c-0.513,0.206-0.762,0.787-0.557,1.3c0.203,0.505,0.777,0.764,1.3,0.557L63,43.477v2.845l-4.372,1.749     c-0.513,0.206-0.762,0.787-0.557,1.3c0.203,0.505,0.777,0.764,1.3,0.557L63,48.477V52l2-1v-3.979c0-0.001,0-0.002,0-0.003v-4.997     c0-0.001,0-0.002,0-0.003v-4.997c0-0.001,0-0.002,0-0.003v-3.881L68.858,32.107z M38.105,39.789     c0.437,0.218,0.939,0.269,1.41,0.144L50,37.136v5.449L46.586,46h-7.424L31,43.279v-7.043L38.105,39.789z M39.217,77.872     L31,73.764V61.42l7.804,1.561c0.124,0.025,0.251,0.026,0.375,0.003L49,61.198v14.065L39.217,77.872z M69.769,70.154     c-0.407-0.169-0.859-0.199-1.284-0.086L65,70.997V59.48l4.066-3.253L79,62.549V74L69.769,70.154z" style="fill:#E2E4E5;"/></g></g></g></svg>