<?xml version="1.0" ?><!DOCTYPE svg  PUBLIC '-//W3C//DTD SVG 1.1//EN'  'http://www.w3.org/Graphics/SVG/1.1/DTD/svg11.dtd'><svg enable-background="new 0 0 100 100" height="100px" id="Layer_2" version="1.1" viewBox="0 0 100 100" width="100px" xml:space="preserve" xmlns="http://www.w3.org/2000/svg" xmlns:xlink="http://www.w3.org/1999/xlink"><g><g><path d="M59.574,79.539h-2.137v-14.79c0-0.658-0.532-1.188-1.188-1.188c-0.656,0-1.188,0.53-1.188,1.188v14.79    h-1.985c-0.656,0-1.188,0.532-1.188,1.188c0,0.658,0.531,1.188,1.188,1.188h0.451l-0.497,0.536    c-0.445,0.481-0.417,1.234,0.064,1.679c0.229,0.212,0.518,0.317,0.807,0.317c0.319,0,0.639-0.128,0.873-0.38l1.992-2.152h0.67l0,0    h2.137c0.656,0,1.188-0.532,1.188-1.188C60.762,80.069,60.23,79.539,59.574,79.539z" fill="#5E3170"/><path d="M47.199,79.539h-2.136v-14.79c0-0.658-0.532-1.188-1.188-1.188c-0.657,0-1.188,0.53-1.188,1.188v14.79    h-1.984c-0.656,0-1.188,0.532-1.188,1.188c0,0.658,0.532,1.188,1.188,1.188h0.45l-0.496,0.536    c-0.446,0.481-0.417,1.234,0.063,1.679c0.229,0.212,0.519,0.317,0.808,0.317c0.319,0,0.638-0.128,0.873-0.38l1.992-2.152h0.67l0,0    h2.136c0.657,0,1.188-0.532,1.188-1.188C48.387,80.069,47.856,79.539,47.199,79.539z" fill="#5E3170"/></g><path d="M82.896,32.104c0,0.541-0.096,1.094-0.295,1.627l-2.784,7.327c-2.396-1.273-5.439-2.347-8.604-3.231   c0.01-0.028,0.029-0.057,0.039-0.086l2.68-7.062c0.028-0.065,0.048-0.133,0.076-0.199c0.903-2.376,3.556-3.564,5.922-2.672   C81.765,28.501,82.896,30.25,82.896,32.104z" fill="#BB87BA"/><path d="M74.235,29.053c0,0.477-0.066,0.961-0.228,1.426c-0.028,0.066-0.048,0.134-0.076,0.199l-2.68,7.062   c-0.01,0.029-0.029,0.058-0.039,0.086c-0.086-0.028-0.181-0.057-0.275-0.086c-2.966-0.826-6.037-1.481-8.765-1.977l3.186-8.346   c0.892-2.368,3.545-3.565,5.912-2.663C73.104,25.449,74.235,27.189,74.235,29.053z" fill="#4AB2A5"/><path d="M24.529,36.486l-7.425-3.574l7.157-4.117c-0.018,0.134-0.046,0.344-0.065,0.657c0,0,0,0.01,0,0.019   c-0.01,0.085-0.02,0.171-0.02,0.265v0.049C24.121,30.878,24.129,32.883,24.529,36.486z" fill="#5E3170"/><path d="M79.817,41.078l-0.021,0.056C75.328,54.11,65.205,66.629,50.613,66.687   c-20.305,0.105-24.811-14.629-26.084-30.2c-0.399-3.604-0.408-5.608-0.353-6.702c-0.009,0.247-0.018,0.493-0.018,0.741   c0,0.59,0.027,1.16,0.103,1.73c0,0,0,0.009,0,0.029c0.098,0.845,0.268,1.663,0.495,2.442c0.058,0.208,0.115,0.399,0.189,0.599   c0.191,0.58,0.429,1.149,0.695,1.701c1.482,3.071,3.991,5.571,7.082,7.035c1.938,0.922,4.116,1.436,6.407,1.436   c1.168,0,2.301-0.133,3.384-0.391c0,0,0.009,0.012,0.019,0.029c0.011,0.019,0.028,0.037,0.058,0.076   c0.874,1.283,9.088,13.157,21.569,8.879c9.058-3.434,12.558-9.411,14.962-12.244c0.161-0.181,0.305-0.369,0.457-0.532   L79.817,41.078z" fill="#D9BADA"/><path d="   M39.369,29.965c0,1.855-1.503,3.365-3.377,3.365c-1.853,0-3.364-1.51-3.364-3.365c0-1.862,1.512-3.374,3.364-3.374   C37.866,26.591,39.369,28.103,39.369,29.965z" fill="none" stroke="#B77DB5" stroke-linecap="round" stroke-linejoin="round" stroke-miterlimit="10" stroke-width="2.5"/><path d="M35.992,33.33c-1.853,0-3.364-1.51-3.364-3.365c0-1.862,1.512-3.374,3.364-3.374   c1.874,0,3.377,1.512,3.377,3.374C39.369,31.82,37.866,33.33,35.992,33.33z M71.212,37.826c-0.086-0.028-0.181-0.057-0.275-0.086   c-2.966-0.826-6.037-1.481-8.765-1.977c-0.104-0.02-0.189-0.038-0.275-0.057c-4.963-0.913-7.806-1.331-7.806-1.331l-0.465-0.105   c0.305-1.207,0.465-2.461,0.465-3.745c0-8.261-6.701-14.973-14.961-14.973c-7.681,0-14.021,5.791-14.869,13.242   c-0.027,0.219-0.046,0.438-0.065,0.657c0,0,0,0.01,0,0.019c-0.01,0.085-0.02,0.171-0.02,0.265v0.049   c-0.009,0.247-0.018,0.493-0.018,0.741c0,0.59,0.027,1.16,0.103,1.73c0,0,0,0.009,0,0.029c0.098,0.845,0.268,1.663,0.495,2.442   c0.058,0.208,0.115,0.399,0.189,0.599c0.191,0.58,0.429,1.149,0.695,1.701c1.482,3.071,3.991,5.571,7.082,7.035   c1.938,0.922,4.116,1.436,6.407,1.436c1.168,0,2.301-0.133,3.384-0.391c0,0,0.009,0.012,0.019,0.029   c0.011,0.019,0.028,0.037,0.058,0.076c0.874,1.283,9.088,13.157,21.569,8.879c9.058-3.434,12.558-9.411,14.962-12.244   c0.161-0.181,0.305-0.369,0.457-0.532l0.238-0.237v-0.021C77.42,39.784,74.377,38.711,71.212,37.826z" fill="#EAD7EA"/><path d="M39.369,29.965c0,1.855-1.503,3.365-3.377,3.365c-1.853,0-3.364-1.51-3.364-3.365   c0-1.862,1.512-3.374,3.364-3.374C37.866,26.591,39.369,28.103,39.369,29.965z" fill="#BB87BA"/></g></svg>