<?xml version="1.0" ?><!DOCTYPE svg  PUBLIC '-//W3C//DTD SVG 1.1//EN'  'http://www.w3.org/Graphics/SVG/1.1/DTD/svg11.dtd'><svg enable-background="new 0 0 841.89 595.28" id="Layer_1" version="1.1" viewBox="0 0 841.89 595.28" xml:space="preserve" xmlns="http://www.w3.org/2000/svg" xmlns:xlink="http://www.w3.org/1999/xlink"><linearGradient gradientUnits="userSpaceOnUse" id="SVGID_1_" x1="427.963" x2="390.9481" y1="469.0742" y2="121.3061"><stop offset="0" style="stop-color:#555454"/><stop offset="0.1569" style="stop-color:#4B4A4A"/><stop offset="0.4271" style="stop-color:#40403F"/><stop offset="0.764" style="stop-color:#3C3C3B"/></linearGradient><path d="M506.242,453.528c-3.708,1.783-10.4,6.394-22.439,8.771c-3.387,0.666-7.523,1.331-11.873,1.925  c0,0,0,0-0.012,0c-11.113,1.521-23.652,2.674-28.667,2.674c-6.989,0-13.371,0.749-16.045-0.891c-2.674-1.64-4.457-4.612-4.457-5.943  s-0.297-4.302-0.297-4.302h-7.583c0,0,0.749,7.725-3.708,10.839s-9.366,4.754-19.468,4.017c-10.103-0.749-11.291-2.234-12.48-4.612  c-1.189-2.377-1.783-4.16-1.783-4.16s-0.879,2.829-2.377,2.971c-1.474,0.143-3.411-0.143-3.411-0.143s-1.628,2.223-4.16,2.662  c-2.532,0.452-11.446,0.452-12.634-0.44c-1.189-0.891-3.257-2.223-3.566-3.268c-0.285-1.046-2.52-6.085-1.925-8.617  s5.051-7.571,5.051-10.542c0-2.615-1.379-24.983-1.711-30.343c-0.048-0.737-0.071-1.153-0.071-1.153l-11.838-15.701l-0.939-1.248  c0,0-4.612-7.868-1.64-9.354c2.971-1.486,7.44-1.343,9.508-0.155c0.963,0.547,2.389,1.45,3.613,2.258  c0.012,0,0.012,0.012,0.024,0.012c1.426,0.939,2.615,1.747,2.615,1.747V390.5l-0.059-27.503c0,0-0.986-24.365-5.539-34.467  c-4.564-10.103-15.261-32.483-15.261-51.107c0-18.612,11.101-37.237,11.101-37.237s0.987-9.116,0-16.247  c-0.998-7.131-0.998-24.959-2.579-28.525c-1.581-3.566-0.986-10.103-0.594-14.06c0.392-3.958-3.173-11.885-3.173-15.059  c0-3.161,1.593-8.712,0.998-13.466c-0.594-4.754-0.404-22.38-0.404-22.38s-0.594-7.333,8.724-1.783l16.889,24.615  c0,0,2.971,0.143,4.302,0.88c1.331,0.749,3.268,3.126,7.274,3.126c4.017,0,7.131-0.594,10.257,0.155  c3.126,0.737,7.286,3.114,10.697,2.52c3.411-0.594,8.759-5.051,12.777-8.462c4.017-3.423,15.903-17.685,22.725-14.857  c6.846,2.817,1.498,21.833,1.498,21.833s-2.686,4.005-2.686,5.348c0,1.343-1.331,8.914-1.925,11.588  c-0.594,2.674-1.331,4.16-2.377,4.302c-1.046,0.155-3.268,2.829-3.566,6.252c-0.297,3.411,0.297,6.228-0.594,9.508  c-0.891,3.257-4.302,10.388-4.302,14.405s0.737,6.989,4.302,12.777c3.566,5.788,5.348,13.228,5.348,13.228s0.297,3.114,3.423,4.897  c3.114,1.783,9.793,3.708,19.456,11.588c9.663,7.88,19.171,14.108,28.228,34.907s12.777,30.308,13.074,34.919  c0.297,4.612,1.64,28.073,1.64,28.073s0.285,13.228,3.257,18.731c2.971,5.491,3.423,13.514,3.28,16.639  c-0.155,3.114-1.937,12.325-2.234,17.673c-0.297,5.348-2.234,14.108-1.046,16.485c0.903,1.818,1.652,4.326,3.078,6.537  c0.428,0.677,0.939,1.331,1.533,1.937c2.52,2.532,5.051,9.354,4.612,10.851c-0.452,1.474-0.452,5.634,0.44,7.131  C507.431,447.728,509.95,451.745,506.242,453.528z" fill="url(#SVGID_1_)"/><ellipse cx="362.996" cy="186.534" fill="#EFC30A" rx="6.972" ry="6.034" transform="matrix(0.9909 0.1347 -0.1347 0.9909 28.4382 -47.2013)"/><ellipse cx="396.448" cy="189.389" fill="#EFC30A" rx="6.972" ry="6.034" transform="matrix(0.9515 -0.3075 0.3075 0.9515 -39.0281 131.0822)"/><path d="M364.956,185.612c-0.222,2.059-1.456,3.613-1.806,3.577s-1.223-1.82-1.001-3.879  c0.222-2.059,1.437-3.644,1.806-3.577C364.324,181.799,365.178,183.553,364.956,185.612z" fill="#090A0A"/><path d="M398.033,187.572c0.607,1.98,0.039,3.855-0.251,3.999c-0.29,0.145-1.841-1.192-2.448-3.172  c-0.607-1.98-0.17-3.849,0.251-3.999C396.006,184.251,397.426,185.592,398.033,187.572z" fill="#090A0A"/><path d="M376.839,204.949c-0.39-0.086-8.788-1.898-8.912,0.42c-0.127,2.374,5.507,5.503,5.889,6.713  c0.376,1.195,0.418,3.376,2.406,3.684l-0.001,0.016c0.014,0,0.024-0.005,0.038-0.006c0.014,0.002,0.023,0.008,0.037,0.01  l0.001-0.016c2.009-0.093,2.284-2.258,2.786-3.405c0.509-1.163,6.446-3.671,6.573-6.045  C385.779,204.002,377.236,204.905,376.839,204.949z" fill="#575756"/><path d="M375.875,215.301c0,0,0.743,2.006-0.223,2.303c-0.966,0.297-4.606,2.451-4.977,2.897  c-0.371,0.446,2.377,0.149,3.268-0.297c0.891-0.446,2.451-0.891,2.451-0.891s5.196,2.46,4.952,1.758  c-0.396-1.139-3.392-2.724-3.987-3.318s-0.687-1.467-0.464-2.284C377.119,214.651,375.875,215.301,375.875,215.301z" fill="#575756"/><linearGradient gradientUnits="userSpaceOnUse" id="SVGID_2_" x1="312.9958" x2="481.7674" y1="370.8601" y2="450.4917"><stop offset="0" style="stop-color:#706F6F"/><stop offset="0.1508" style="stop-color:#5C5B5B"/><stop offset="0.3279" style="stop-color:#4B4A4A"/><stop offset="0.5221" style="stop-color:#40403F"/><stop offset="0.764" style="stop-color:#3C3C3B"/></linearGradient><path d="M506.242,453.528c-3.708,1.783-10.4,6.394-22.439,8.771c-3.387,0.666-7.523,1.331-11.873,1.925  c0,0,0,0-0.012,0c-14.048-1.379-42.787-6.751-59.272-13.965c-20.36-8.914-35.501-16.485-40.565-19.456  c0,0-10.946-8.13-19.385-16.675c-3.316-3.352-6.24-6.763-7.951-9.782c-1.521-2.662-2.864-5.016-3.958-7.072  c-3.28-6.18-4.184-9.627-0.048-10.756c3.126-0.832,6.953,0.19,10.59,2.258c0.012,0,0.012,0.012,0.024,0.012  c0.891,0.511,1.771,1.082,2.615,1.712c1.795,1.307,3.459,2.841,4.897,4.493c4.897,5.646,24.068,26.148,61.209,35.81  c37.142,9.651,73.689,8.914,76.66,8.462c2.971-0.452,4.457-4.612,3.566-7.868c-0.428-1.593-0.618-3.578-0.345-5.063  c0.428,0.677,0.939,1.331,1.533,1.937c2.52,2.532,5.051,9.354,4.612,10.851c-0.452,1.474-0.452,5.634,0.44,7.131  C507.431,447.728,509.95,451.745,506.242,453.528z" fill="url(#SVGID_2_)"/><linearGradient gradientUnits="userSpaceOnUse" id="SVGID_3_" x1="350.4742" x2="350.4742" y1="174.2035" y2="130.1871"><stop offset="0.2422" style="stop-color:#7F2210"/><stop offset="0.276" style="stop-color:#812815"/><stop offset="0.3775" style="stop-color:#873924"/><stop offset="0.4838" style="stop-color:#8C4733"/><stop offset="0.5947" style="stop-color:#8F513F"/><stop offset="0.712" style="stop-color:#915847"/><stop offset="0.8403" style="stop-color:#925D4C"/><stop offset="1" style="stop-color:#925E4E"/></linearGradient><path d="M345.196,174.024c-0.443-0.443-3.566-4.16-3.566-7.329s0.198-8.32,0.198-10.301  c0-1.981-2.377-24.959-0.792-25.355c1.585-0.396,3.169-1.585,4.16-0.198c0.99,1.387,10.499,11.885,10.697,13.866  c0.198,1.981,3.169,8.122,3.566,10.301s1.783,1.584,0.396,3.367c-1.387,1.783-1.387,3.764-3.962,4.556  C353.318,163.724,346.979,175.807,345.196,174.024z" fill="url(#SVGID_3_)"/><linearGradient gradientUnits="userSpaceOnUse" id="SVGID_4_" x1="422.6979" x2="418.8961" y1="176.6518" y2="140.9324"><stop offset="0.2422" style="stop-color:#7F2210"/><stop offset="0.276" style="stop-color:#812815"/><stop offset="0.3775" style="stop-color:#873924"/><stop offset="0.4838" style="stop-color:#8C4733"/><stop offset="0.5947" style="stop-color:#8F513F"/><stop offset="0.712" style="stop-color:#915847"/><stop offset="0.8403" style="stop-color:#925D4C"/><stop offset="1" style="stop-color:#925E4E"/></linearGradient><path d="M418.687,146.292c0,0-10.499,10.301-11.489,11.489c-0.99,1.189,6.141,6.141,6.141,7.527  s6.735,3.962,6.933,5.15c0.198,1.189,4.358,7.131,4.952,5.745c0.594-1.387,3.169-8.518,3.169-10.301  c0-1.783,1.585-5.745,1.981-6.735s2.971-8.122,2.773-11.093s-0.198-8.32-2.971-8.32  C427.403,139.755,421.658,142.924,418.687,146.292z" fill="url(#SVGID_4_)"/></svg>