<?xml version="1.0" encoding="UTF-8" standalone="no"?>
<svg
   xmlns:dc="http://purl.org/dc/elements/1.1/"
   xmlns:cc="http://creativecommons.org/ns#"
   xmlns:rdf="http://www.w3.org/1999/02/22-rdf-syntax-ns#"
   xmlns:svg="http://www.w3.org/2000/svg"
   xmlns="http://www.w3.org/2000/svg"
   xmlns:sodipodi="http://sodipodi.sourceforge.net/DTD/sodipodi-0.dtd"
   xmlns:inkscape="http://www.inkscape.org/namespaces/inkscape"
   version="1.1"
   x="0"
   y="0"
   width="512"
   height="512"
   viewBox="0, 0, 512, 512"
   id="svg3336"
   inkscape:version="0.91 r13725"
   sodipodi:docname="octoblu-icon-6.svg">
  <metadata
     id="metadata3406">
    <rdf:RDF>
      <cc:Work
         rdf:about="">
        <dc:format>image/svg+xml</dc:format>
        <dc:type
           rdf:resource="http://purl.org/dc/dcmitype/StillImage" />
        <dc:title></dc:title>
      </cc:Work>
    </rdf:RDF>
  </metadata>
  <defs
     id="defs3404" />
  <sodipodi:namedview
     pagecolor="#ffffff"
     bordercolor="#666666"
     borderopacity="1"
     objecttolerance="10"
     gridtolerance="10"
     guidetolerance="10"
     inkscape:pageopacity="0"
     inkscape:pageshadow="2"
     inkscape:window-width="2048"
     inkscape:window-height="1089"
     id="namedview3402"
     showgrid="false"
     inkscape:zoom="1.796875"
     inkscape:cx="256"
     inkscape:cy="256"
     inkscape:window-x="-8"
     inkscape:window-y="-8"
     inkscape:window-maximized="1"
     inkscape:current-layer="Layer_1" />
  <g
     id="Layer_1">
    <g
       id="g3339">
      <path
         d="M256.5,491 C126.989,491 22,386.011 22,256.5 C22,126.989 126.989,22 256.5,22 C386.011,22 491,126.989 491,256.5 C491,386.011 386.011,491 256.5,491 z"
         fill="#FFFFFF"
         id="path3341" />
      <path
         d="M256.5,491 C126.989,491 22,386.011 22,256.5 C22,126.989 126.989,22 256.5,22 C386.011,22 491,126.989 491,256.5 C491,386.011 386.011,491 256.5,491 z"
         fill-opacity="0"
         stroke="#F5A531"
         stroke-width="41"
         id="path3343" />
    </g>
    <path
       d="M130.08,168.428 L130.08,111.628 L141.2,111.628 L141.2,168.428 z"
       fill="#383838"
       id="path3345" />
    <path
       d="M192.32,168.428 L181.76,168.428 L181.76,139.068 Q181.76,135.548 179.84,133.628 Q177.92,131.708 174.88,131.708 Q172.48,131.708 169.72,132.628 Q166.96,133.548 164.8,135.228 L164.8,168.428 L154.24,168.428 L154.24,123.948 L163.04,123.948 L164.16,127.628 Q170.8,123.148 178.72,123.148 Q182.48,123.148 185.6,124.908 Q188.72,126.668 190.52,129.828 Q192.32,132.988 192.32,137.388 z"
       fill="#383838"
       id="path3347" />
    <path
       d="M231.84,155.628 Q231.84,162.108 227.76,165.668 Q223.68,169.228 215.52,169.228 Q206.64,169.228 200.96,167.068 L203.04,158.108 Q209.2,160.588 215.44,160.588 Q218.32,160.588 219.88,159.508 Q221.44,158.428 221.44,156.348 Q221.44,154.588 220.6,153.628 Q219.76,152.668 217.92,151.668 Q216.08,150.668 212.96,149.548 Q207.68,147.628 204.8,144.268 Q201.92,140.908 201.92,136.188 Q201.92,129.628 205.76,126.388 Q209.6,123.148 217.68,123.148 Q223.44,123.148 229.84,124.908 L228,133.628 Q221.44,131.708 217.6,131.708 Q214.4,131.708 213.08,132.788 Q211.76,133.868 211.76,135.468 Q211.76,136.828 212.6,137.828 Q213.44,138.828 215.36,139.828 Q217.28,140.828 220.72,142.108 Q226.24,144.108 229.04,147.428 Q231.84,150.748 231.84,155.628 z"
       fill="#383838"
       id="path3349" />
    <path
       d="M240.8,168.428 L240.8,123.948 L251.36,123.948 L251.36,168.428 z M240.24,112.348 Q240.24,109.948 241.96,108.228 Q243.68,106.508 246.08,106.508 Q248.48,106.508 250.2,108.228 Q251.92,109.948 251.92,112.348 Q251.92,114.668 250.24,116.428 Q248.56,118.188 246.08,118.188 Q243.68,118.188 241.96,116.468 Q240.24,114.748 240.24,112.348 z"
       fill="#383838"
       id="path3351" />
    <path
       d="M272,146.508 Q272,160.588 280.8,160.588 Q282.96,160.588 285.76,159.548 Q288.56,158.508 290,157.068 L290,132.908 Q286,131.708 281.84,131.708 Q277.44,131.708 274.72,135.828 Q272,139.948 272,146.508 z M290,164.748 Q284.48,169.228 277.92,169.228 Q261.12,169.228 261.12,146.748 Q261.12,135.708 266.64,129.428 Q272.16,123.148 282,123.148 Q290,123.148 300.56,126.108 L300.56,169.308 Q300.56,177.788 295.08,182.388 Q289.6,186.988 279.52,186.988 Q270.8,186.988 264,184.028 L266.72,175.868 Q269.04,176.668 272.08,177.508 Q275.12,178.348 279.68,178.348 Q284.8,178.348 287.4,175.868 Q290,173.388 290,168.828 z"
       fill="#383838"
       id="path3353" />
    <path
       d="M340.48,168.428 L340.48,139.068 Q340.48,135.628 338.64,133.668 Q336.8,131.708 333.52,131.708 Q330.96,131.708 328.12,132.588 Q325.28,133.468 323.12,135.228 L323.12,168.428 L312.56,168.428 L312.56,106.988 L323.12,106.988 L323.12,127.628 Q329.68,123.148 337.04,123.148 Q343.44,123.148 347.24,126.948 Q351.04,130.748 351.04,137.708 L351.04,168.428 z"
       fill="#383838"
       id="path3355" />
    <path
       d="M374.8,132.108 L374.8,155.868 Q374.8,160.508 378.96,160.508 Q381.04,160.508 386.32,159.308 L387.6,167.228 Q382.24,169.228 375.28,169.228 Q369.68,169.228 366.96,166.308 Q364.24,163.388 364.24,157.468 L364.24,132.108 L357.76,132.108 L357.76,123.948 L364.56,123.948 L365.76,112.748 L374.8,112.748 L374.8,123.948 L386.56,123.948 L386.56,132.108 z"
       fill="#383838"
       id="path3357" />
    <path
       d="M22.831,269.299 L478.666,269.299 L426.07,422.413 L99.973,428.257 L22.831,269.299 z"
       id="path3359"
       fill="#F5A531" />
    <path
       d="M118.323,419.4 L401.174,419.4 L336.425,485.528 L194.381,484.36 L118.323,419.4 z"
       fill="#F5A531"
       id="path3361" />
    <path
       d="m 194.06418,392.77491 c 0.45179,4.26291 3.26704,8.27322 7.97982,10.52135 3.91226,1.86683 7.94452,3.24048 12.06291,4.16909 -2.32109,6.67342 -6.5849,16.32992 -14.17364,26.67204 -7.21036,9.8285 -7.29507,21.68983 -0.22731,32.54677 10.41245,15.99914 33.40456,26.75023 57.22261,26.75023 16.35637,0 30.89992,-6.41721 40.94388,-18.07285 14.35718,-16.66311 17.53951,-41.25422 8.50503,-65.76715 -8.37232,-22.72428 2.82513,-34.84783 10.23597,-40.05858 6.03993,4.95936 14.23294,8.01821 23.2886,8.01821 18.55605,0 33.60786,-12.82 33.60786,-28.6363 0,-15.8163 -15.05181,-28.63269 -33.60786,-28.63269 -18.56311,0 -33.60787,12.82 -33.60787,28.63269 0,2.22768 0.32614,4.38199 0.88947,6.46292 -13.99292,8.71948 -30.14599,28.34762 -18.84125,59.03479 7.12848,19.35028 4.94151,39.04939 -5.71661,51.4135 -4.51794,5.24805 -12.65025,11.50168 -25.70287,11.50168 -16.88724,0 -33.62058,-7.5912 -40.68693,-18.45536 -2.6077,-4.0067 -4.76502,-10.0763 -0.27107,-16.20483 10.03972,-13.69086 15.06452,-26.46635 17.44633,-34.27527 5.57966,-0.7157 11.02802,-2.24933 16.26742,-4.63339 4.67184,-2.12544 7.53791,-5.97095 8.16901,-10.12801 22.20429,-17.10215 32.4558,-47.91682 33.04595,-49.7199 1.19726,-3.69877 -0.84852,-7.49737 -4.66336,-9.22828 3.06655,-23.13325 -6.98305,-34.7925 -13.04698,-39.54136 0.46309,-2.22287 -0.58028,-4.5997 -2.87313,-5.87473 l -11.14239,-6.20431 c -2.90984,-1.61904 -6.56937,-0.8023 -8.16477,1.83676 l -5.30859,8.74233 c -1.59963,2.63906 -0.18919,5.45373 3.15127,6.29332 l 12.5966,3.1635 c 3.19503,0.8023 7.02116,-0.49798 8.82975,-2.88203 5.01916,4.50588 12.24928,14.53767 9.75877,33.67384 -3.42376,0.55572 -6.3576,2.67996 -7.35155,5.7352 -3.02702,9.25595 -11.76925,28.37408 -24.74846,39.83726 -4.1325,-1.36042 -8.88199,-1.29306 -13.09498,0.61827 -2.74465,1.24856 -5.42718,1.87765 -8.18172,1.92697 l -0.56756,0 c -2.90137,-0.0529 -5.73497,-0.74938 -8.63775,-2.13266 -4.10851,-1.96426 -8.78881,-2.13626 -12.91709,-0.89612 -12.68837,-11.5101 -21.24422,-30.22407 -24.22183,-39.35251 -0.99677,-3.04683 -3.94191,-5.17708 -7.35437,-5.73159 -2.49475,-19.13618 4.73255,-29.16797 9.76017,-33.67385 1.81,2.38405 5.6319,3.68434 8.82553,2.88203 l 12.59801,-3.1635 c 3.3348,-0.83959 4.75372,-3.65907 3.14985,-6.29452 l -5.30435,-8.74233 c -1.59963,-2.63906 -5.25776,-3.4558 -8.16477,-1.83676 l -11.15368,6.20912 c -2.29004,1.27383 -3.33057,3.65066 -2.87031,5.87353 -6.05546,4.75006 -16.11353,16.4045 -13.04415,39.54136 -3.81767,1.73211 -5.85639,5.52951 -4.66478,9.23309 0.57886,1.76579 10.52257,31.59773 31.97717,48.84903 z M 339.90205,337.7324 c 7.24142,0 13.12463,5.00507 13.12463,11.18652 0,6.17785 -5.88321,11.18653 -13.12463,11.18653 -7.25131,0 -13.13028,-5.00868 -13.13028,-11.18653 0,-6.18145 5.87474,-11.18652 13.13028,-11.18652 z"
       id="medical-stethoscope-variant"
       inkscape:connector-curvature="0"
       style="fill:#ffffff" />
    <path
       d="M172.092,238.929 Q172.092,244.49 168.206,247.94 Q164.32,251.391 157.955,251.391 Q150.384,251.391 144.287,249.314 L145.426,245.83 Q149.044,247.17 151.757,247.672 Q154.471,248.175 157.888,248.175 Q162.645,248.175 165.593,245.595 Q168.541,243.016 168.541,238.996 Q168.541,235.981 167.469,234.138 Q166.397,232.296 163.918,230.554 Q161.439,228.812 157.017,227.003 Q150.719,224.39 147.972,221.107 Q145.225,217.824 145.225,212.933 Q145.225,208.243 148.675,205.362 Q152.126,202.481 157.955,202.481 Q160.903,202.481 163.482,202.883 Q166.062,203.285 169.345,204.357 L168.34,207.573 Q162.645,205.563 157.888,205.563 Q153.466,205.563 151.087,207.64 Q148.709,209.717 148.709,213.134 Q148.709,215.948 149.781,217.824 Q150.853,219.7 153.298,221.341 Q155.744,222.983 159.898,224.658 Q166.531,227.405 169.311,230.688 Q172.092,233.971 172.092,238.929 z"
       fill="#1C1C1C"
       id="path3386" />
    <path
       d="M208.004,232.564 L183.549,232.564 Q183.549,240.202 186.798,244.255 Q190.048,248.309 196.48,248.309 Q201.371,248.309 207.468,245.696 L208.272,248.845 Q205.659,249.984 202.443,250.687 Q199.227,251.391 196.145,251.391 Q188.239,251.391 184.118,246.634 Q179.998,241.877 179.998,232.899 Q179.998,223.519 183.716,218.46 Q187.435,213.402 194.336,213.402 Q200.969,213.402 204.486,217.556 Q208.004,221.71 208.004,229.75 z M204.386,229.482 Q204.386,223.05 201.873,219.767 Q199.361,216.484 194.403,216.484 Q189.646,216.484 186.899,219.733 Q184.152,222.983 183.616,229.482 z"
       fill="#1C1C1C"
       id="path3388" />
    <path
       d="M218.121,214.072 L220.801,214.072 L221.27,218.628 Q223.481,215.68 225.658,214.541 Q227.836,213.402 230.918,213.402 Q232.794,213.402 234,213.67 L233.464,217.02 Q232.258,216.618 230.248,216.618 Q227.635,216.618 225.591,217.991 Q223.548,219.365 221.471,222.447 L221.471,250.721 L218.121,250.721 z"
       fill="#1C1C1C"
       id="path3390" />
    <path
       d="M247.199,250.721 L234.67,214.072 L238.221,214.072 L249.209,246.634 L260.197,214.072 L263.748,214.072 L251.219,250.721 z"
       fill="#1C1C1C"
       id="path3392" />
    <path
       d="M269.778,250.721 L269.778,214.072 L273.128,214.072 L273.128,250.721 z M268.974,202.883 Q268.974,201.878 269.711,201.107 Q270.448,200.337 271.453,200.337 Q272.525,200.337 273.262,201.107 Q273.999,201.878 273.999,202.883 Q273.999,203.955 273.262,204.658 Q272.525,205.362 271.453,205.362 Q270.448,205.362 269.711,204.658 Q268.974,203.955 268.974,202.883 z"
       fill="#1C1C1C"
       id="path3394" />
    <path
       d="M306.561,218.025 Q304.819,217.489 302.775,216.986 Q300.732,216.484 298.253,216.484 Q293.027,216.484 289.911,220.705 Q286.796,224.926 286.796,232.363 Q286.796,248.309 299.191,248.309 Q301.134,248.309 303.579,247.806 Q306.025,247.304 308.102,246.5 L308.839,249.515 Q307.231,250.252 304.417,250.821 Q301.603,251.391 299.057,251.391 Q291.285,251.391 287.265,246.5 Q283.245,241.609 283.245,232.363 Q283.245,223.653 287.298,218.527 Q291.352,213.402 298.186,213.402 Q302.742,213.402 307.432,214.809 z"
       fill="#1C1C1C"
       id="path3396" />
    <path
       d="M343.009,232.564 L318.554,232.564 Q318.554,240.202 321.803,244.255 Q325.053,248.309 331.485,248.309 Q336.376,248.309 342.473,245.696 L343.277,248.845 Q340.664,249.984 337.448,250.687 Q334.232,251.391 331.15,251.391 Q323.244,251.391 319.123,246.634 Q315.003,241.877 315.003,232.899 Q315.003,223.519 318.721,218.46 Q322.44,213.402 329.341,213.402 Q335.974,213.402 339.491,217.556 Q343.009,221.71 343.009,229.75 z M339.391,229.482 Q339.391,223.05 336.878,219.767 Q334.366,216.484 329.408,216.484 Q324.651,216.484 321.904,219.733 Q319.157,222.983 318.621,229.482 z"
       fill="#1C1C1C"
       id="path3398" />
    <path
       d="M371.685,241.006 Q371.685,245.629 368.502,248.51 Q365.32,251.391 360.094,251.391 Q354.734,251.391 350.111,249.984 L350.848,246.768 Q352.724,247.371 355.002,247.907 Q357.28,248.443 360.295,248.443 Q363.913,248.443 366.157,246.466 Q368.402,244.49 368.402,241.341 Q368.402,239.264 367.598,237.957 Q366.794,236.651 365.052,235.445 Q363.31,234.239 360.429,233.167 Q355.471,231.358 353.092,228.879 Q350.714,226.4 350.714,222.648 Q350.714,218.427 353.427,215.914 Q356.141,213.402 360.898,213.402 Q362.908,213.402 365.42,213.77 Q367.933,214.139 369.608,214.541 L368.871,217.69 Q367.062,217.221 365.085,216.819 Q363.109,216.417 360.831,216.417 Q357.615,216.417 355.772,218.058 Q353.93,219.7 353.93,222.447 Q353.93,224.591 354.734,225.897 Q355.538,227.204 357.347,228.309 Q359.156,229.415 362.104,230.42 Q371.685,233.77 371.685,241.006 z"
       fill="#1C1C1C"
       id="path3400" />
  </g>
</svg>
