<?xml version="1.0" encoding="utf-8"?>
<!-- Generator: Adobe Illustrator 18.1.1, SVG Export Plug-In . SVG Version: 6.00 Build 0)  -->
<!DOCTYPE svg PUBLIC "-//W3C//DTD SVG 1.1//EN" "http://www.w3.org/Graphics/SVG/1.1/DTD/svg11.dtd">
<svg version="1.1" id="Layer_1" xmlns="http://www.w3.org/2000/svg" xmlns:xlink="http://www.w3.org/1999/xlink" x="0px" y="0px"
	 viewBox="0 0 612 792" enable-background="new 0 0 612 792" xml:space="preserve">
<g id="U3BWAY_1_">
	<g>
		<path d="M555.8,393.9c0,56.8,0.7,113.6-0.4,170.4c-0.7,42.4-38.6,83.6-83.6,83.3c-109.4-0.4-218.5,0-327.9,0
			c-47.7,0-87.1-37.9-87.5-85.9c-0.7-87.2,0-174.2,0-261.3c0-24.6,0-49.2,0-73.9C57,180,96.5,144,143.4,144.3
			c108.3,0.7,216.6,0.7,324.9,0c47.7-0.3,87.1,36,87.1,83.7C555.8,283.3,555.8,338.7,555.8,393.9L555.8,393.9z M486.1,407.3
			c0.4-104.9-79.9-188.2-185.2-187c-104.1,1.1-181.4,80.3-182.9,185.6c-1.6,100,82.9,184,182.5,184.4
			C403.2,590.5,485.7,509.2,486.1,407.3z"/>
		<path fill="#FFFFFF" d="M486.1,407.3c-0.3,101.8-82.9,183.2-185.2,182.9c-99.6-0.4-184-84.5-182.5-184.4
			c1.6-105.3,78.8-184.4,182.9-185.6C406.6,219,486.9,302.3,486.1,407.3z M472.9,404.2c0-93.1-77.6-170.8-170-170.4
			c-93.9,0.4-171.5,77.3-171.9,170.4c-0.4,93.9,77.3,171.5,171.9,171.9C396,576.6,472.9,498.9,472.9,404.2z"/>
		<path d="M472.9,404.2c0,94.7-76.9,172.3-170,171.9c-94.7-0.4-171.9-78-171.9-171.9c0.4-93.1,78-170,171.9-170.4
			C395.2,233.4,472.9,311.4,472.9,404.2z M311.1,522.4c15.9,16.3,16.3,16.3,30,2.3c72-72.3,70.8-179.1-2.3-250.7
			c-12.9-12.5-17.8-11.3-27.3,6.4c35.6,31.8,56.8,70,57.2,119.6C368.7,450.5,347.1,489.1,311.1,522.4z M277,494
			c4.2,3,7.6,14.8,18.2,4.9c59.4-56.8,56.1-143.9-0.7-196.5c-2.6-2.3-10.2-1.9-13.6,0c-9.9,5.7-3.4,11.3,1.6,16.6
			c32.2,33.7,43.6,73.4,28,117.4C303.5,456.5,289.1,473.9,277,494z M235.7,341c2.6,3,4.9,5.7,7.2,8.3c27.3,32.6,28,68.9,1.1,101.8
			c-4.9,6-8.7,10.6-0.4,17.4c8.3,6.9,12.5,1.9,17.4-3.4c32.2-34.4,33.7-86.7,3.4-124.2C252,325,250.5,325,235.7,341z M201.7,430.4
			c10.6,13.2,12.9,14,18.9,8.3c18.9-17.4,18.9-59.8-1.1-75.3c-2.6-1.9-9.1-1.6-11.8,0.4c-2.6,1.9-5.3,9.1-4.2,11
			C217.6,393.9,214.9,412.6,201.7,430.4z"/>
		<path fill="#FFFFFF" d="M311.1,522.4c36-33.3,57.9-72,57.5-121.9c-0.4-49.6-21.5-87.8-57.2-119.6c9.1-17.8,14.4-18.9,27.3-6.4
			c73,71.6,74.2,178,2.6,250.7C327.3,538.7,327,538.7,311.1,522.4z"/>
		<path fill="#FFFFFF" d="M277,494c12.1-20.5,26.5-37.9,33.3-57.5c15.2-43.9,3.8-83.6-28-117.4c-4.9-5.3-11.8-10.6-1.6-16.6
			c3.4-2.3,11.3-2.3,13.6,0C351.2,355,354.6,442.6,295,499C284.2,509.2,281.1,497,277,494z"/>
		<path fill="#FFFFFF" d="M235.7,341c14.8-15.9,16.3-15.9,28.8-0.4c30.3,37.5,29.1,90.1-3.4,124.2c-4.9,5.3-9.5,10.2-17.4,3.4
			c-7.9-6.9-4.6-11,0.4-17.4c26.5-33,26.1-69.3-1.1-101.8C240.7,346.6,238.7,344,235.7,341z"/>
		<path fill="#FFFFFF" d="M201.7,430.4c13.2-17.8,15.9-36,2.3-55.7c-1.6-1.9,1.1-9.1,4.2-11c2.6-1.9,9.1-2.3,11.8-0.4
			c19.7,15.5,20.1,58.3,1.1,75.3C214.5,444.4,212.6,443.2,201.7,430.4z"/>
	</g>
</g>
</svg>
