<?xml version="1.0" encoding="utf-8"?>
<!-- Generator: Adobe Illustrator 18.1.1, SVG Export Plug-In . SVG Version: 6.00 Build 0)  -->
<svg version="1.0" id="Layer_1" xmlns="http://www.w3.org/2000/svg" xmlns:xlink="http://www.w3.org/1999/xlink" x="0px" y="0px"
	 viewBox="0 0 207 139.3" enable-background="new 0 0 207 139.3" xml:space="preserve">
<g>
	<path fill="#EC5E4F" d="M39.3,55.5C47.8,43.7,60,38.8,74.9,42.2c18.5-30.8,36.7-41,61.5-34.8c25.2,6.3,37.3,25,38.2,58.6
		c2,3.7,5.8,2.2,8.7,3.1c15.3,4.5,25.6,19,23.4,33c-2.4,15.3-14.2,26-30.3,26.5c-12.4,0.4-25,1.9-36-0.9c-6.7-4.8-6.8-11.4-8.5-16.8
		c-6.2-20.9-27.4-32.6-43.1-31C67.2,82,51,91.7,46.1,115.5c-0.9,4.3-2,8.3-4,12C20.1,129.4,4,118,0.5,98.1
		C-2.9,78.5,11.8,62,39.3,55.5z"/>
	<path fill="#EC5E4F" d="M75.7,111.8c10.8,1.6,15.2-5,18.1-12.5c8.8,2.2,11.8,8.4,13.8,15.4c-1.4,9-6.6,14.4-15.6,16
		C83.1,128.9,77.9,123.5,75.7,111.8z"/>
</g>
</svg>
