<?xml version="1.0" encoding="UTF-8"?>
<svg xmlns="http://www.w3.org/2000/svg" xmlns:xlink="http://www.w3.org/1999/xlink" width="1000pt" height="720pt" viewBox="0 0 1000 1000">
<g id="surface1">
<path style="fill-rule:nonzero;fill:rgb(0%,23.137255%,44.313725%);fill-opacity:1;stroke-width:0.6907;stroke-linecap:butt;stroke-linejoin:miter;stroke:rgb(0%,23.137255%,44.313725%);stroke-opacity:1;stroke-miterlimit:10;" d="M 223.799867 169.199777 C 223.799867 169.199777 220.000321 166.800104 234.799996 157.499711 C 249.59967 148.300315 245.500263 148.600176 244.300035 141.400377 C 244.300035 141.400377 248.999948 146.000075 232.700184 154.299887 C 216.399638 162.699914 222.999715 164.700293 223.799867 169.199777 Z M 223.799867 169.199777 " transform="matrix(4.989288,0,0,4.989288,-583.172358,-445.260676)"/>
<path style="fill-rule:nonzero;fill:rgb(0%,23.137255%,44.313725%);fill-opacity:1;stroke-width:0.6907;stroke-linecap:butt;stroke-linejoin:miter;stroke:rgb(0%,23.137255%,44.313725%);stroke-opacity:1;stroke-miterlimit:10;" d="M 225.000094 175.900068 C 225.000094 175.900068 224.000296 171.500017 240.999997 175.300346 C 257.999697 179.099892 254.799874 176.499791 259.09971 170.599651 C 259.09971 170.599651 259.199925 177.199728 241.800149 171.600232 C 224.400372 166.100167 227.600196 172.199954 225.000094 175.900068 Z M 225.000094 175.900068 " transform="matrix(4.989288,0,0,4.989288,-583.172358,-445.260676)"/>
<path style="fill-rule:nonzero;fill:rgb(0%,23.137255%,44.313725%);fill-opacity:1;stroke-width:0.6907;stroke-linecap:butt;stroke-linejoin:miter;stroke:rgb(0%,23.137255%,44.313725%);stroke-opacity:1;stroke-miterlimit:10;" d="M 219.300384 181.699994 C 219.300384 181.699994 221.800271 177.999879 230.600373 192.999984 C 239.399693 208.000088 239.200047 203.899898 246.399846 203.000314 C 246.399846 203.000314 241.699934 207.499797 233.800197 191.000387 C 225.999893 174.500194 223.799867 181.000057 219.300384 181.699994 Z M 219.300384 181.699994 " transform="matrix(4.989288,0,0,4.989288,-583.172358,-445.260676)"/>
<path style="fill-rule:nonzero;fill:rgb(0%,23.137255%,44.313725%);fill-opacity:1;stroke-width:0.6907;stroke-linecap:butt;stroke-linejoin:miter;stroke:rgb(0%,23.137255%,44.313725%);stroke-opacity:1;stroke-miterlimit:10;" d="M 211.100003 180.899842 C 211.100003 180.899842 215.500055 180.30012 210.299851 196.899745 C 205.000216 213.500152 207.900179 210.60019 213.400243 215.300102 C 213.400243 215.300102 206.900381 214.799812 213.899751 197.999757 C 220.899904 181.199703 214.599688 183.799805 211.100003 180.899842 Z M 211.100003 180.899842 " transform="matrix(4.989288,0,0,4.989288,-583.172358,-445.260676)"/>
<path style="fill-rule:nonzero;fill:rgb(0%,23.137255%,44.313725%);fill-opacity:1;stroke-width:0.6907;stroke-linecap:butt;stroke-linejoin:miter;stroke:rgb(0%,23.137255%,44.313725%);stroke-opacity:1;stroke-miterlimit:10;" d="M 179.400059 196.000161 C 179.400059 196.000161 176.799958 192.400261 193.899873 189.100223 C 210.999788 185.800184 206.999813 184.599957 208.600116 177.500372 C 208.600116 177.500372 211.29965 183.499944 193.099721 185.400108 C 175.000008 187.200058 180.299643 191.499895 179.400059 196.000161 Z M 179.400059 196.000161 " transform="matrix(4.989288,0,0,4.989288,-583.172358,-445.260676)"/>
<path style="fill-rule:nonzero;fill:rgb(0%,23.137255%,44.313725%);fill-opacity:1;stroke-width:0.6907;stroke-linecap:butt;stroke-linejoin:miter;stroke:rgb(0%,23.137255%,44.313725%);stroke-opacity:1;stroke-miterlimit:10;" d="M 175.100223 170.999726 C 175.100223 170.999726 174.700147 166.500243 191.100125 172.300169 C 207.500103 178.100094 204.700355 175.099917 209.599914 169.700067 C 209.599914 169.700067 208.899977 176.19993 192.300353 168.700269 C 175.59973 161.199825 178.099617 167.600256 175.100223 170.999726 Z M 175.100223 170.999726 " transform="matrix(4.989288,0,0,4.989288,-583.172358,-445.260676)"/>
<path style="fill-rule:nonzero;fill:rgb(46.666667%,73.72549%,12.156863%);fill-opacity:1;stroke-width:0.6907;stroke-linecap:butt;stroke-linejoin:miter;stroke:rgb(46.666667%,73.72549%,12.156863%);stroke-opacity:1;stroke-miterlimit:10;" d="M 188.799885 142.599821 C 188.799885 142.599821 191.599633 139.100136 199.200291 154.800178 C 206.699952 170.500219 206.900381 166.400029 214.10018 165.999953 C 214.10018 165.999953 209.000192 170.100143 202.50033 153.000228 C 196.099899 136.099959 193.300151 142.400175 188.799885 142.599821 Z M 188.799885 142.599821 " transform="matrix(4.989288,0,0,4.989288,-583.172358,-445.260676)"/>
<path style="fill-rule:nonzero;fill:rgb(0%,23.137255%,44.313725%);fill-opacity:1;stroke-width:0.6907;stroke-linecap:butt;stroke-linejoin:miter;stroke:rgb(0%,23.137255%,44.313725%);stroke-opacity:1;stroke-miterlimit:10;" d="M 215.200193 131.500261 C 215.200193 131.500261 219.600245 130.800324 214.800118 147.500163 C 209.99999 164.200003 212.799738 161.199825 218.500232 165.800306 C 218.500232 165.800306 211.900155 165.499662 218.500232 148.499962 C 225.000094 131.400046 218.699878 134.300009 215.200193 131.500261 Z M 215.200193 131.500261 " transform="matrix(4.989288,0,0,4.989288,-583.172358,-445.260676)"/>
<path style=" stroke:none;fill-rule:nonzero;fill:rgb(0%,0%,0%);fill-opacity:1;" d="M 0 516.25 C 0 479.792969 9.113281 445.9375 27.34375 414.6875 C 45.574219 383.4375 70.3125 358.699219 101.5625 340.46875 C 96.355469 326.144531 93.75 311.824219 93.75 297.5 C 93.75 258.4375 107.421875 225.234375 134.765625 197.890625 C 162.109375 170.546875 195.3125 156.875 234.375 156.875 C 247.394531 156.875 261.71875 159.480469 277.34375 164.6875 C 299.480469 115.207031 333.332031 75.496094 378.90625 45.546875 C 424.480469 15.597656 475.261719 0.625 531.25 0.625 C 604.167969 0.625 666.992188 25.039062 719.726562 73.867188 C 772.460938 122.695312 802.734375 182.917969 810.546875 254.53125 C 865.234375 264.949219 910.480469 291.640625 946.289062 334.609375 C 982.09375 377.578125 1000 427.707031 1000 485 C 1000 550.105469 977.214844 605.441406 931.640625 651.015625 C 886.066406 696.589844 830.730469 719.375 765.625 719.375 L 203.125 719.375 C 147.136719 719.375 99.285156 699.519531 59.570312 659.804688 C 19.855469 620.089844 0 572.238281 0 516.25 Z M 62.5 516.25 C 62.5 555.3125 76.171875 588.515625 103.515625 615.859375 C 130.859375 643.203125 164.0625 656.875 203.125 656.875 L 765.625 656.875 C 812.5 656.875 852.863281 639.949219 886.71875 606.09375 C 920.570312 572.238281 937.5 531.875 937.5 485 C 937.5 443.332031 924.476562 406.875 898.4375 375.625 C 872.394531 344.375 839.191406 324.84375 798.828125 317.03125 C 775.390625 311.824219 761.394531 306.941406 756.835938 302.382812 C 752.277344 297.824219 749.347656 283.828125 748.046875 260.390625 C 742.835938 204.402344 719.398438 157.527344 677.734375 119.765625 C 636.066406 82.003906 587.238281 63.125 531.25 63.125 C 489.582031 63.125 450.519531 74.519531 414.0625 97.304688 C 377.605469 120.09375 350.910156 151.015625 333.984375 190.078125 C 327.472656 203.097656 323.566406 211.238281 322.265625 214.492188 C 320.964844 217.75 318.035156 221.980469 313.476562 227.1875 C 308.917969 232.394531 304.035156 234.347656 298.828125 233.046875 C 293.617188 231.746094 286.457031 229.792969 277.34375 227.1875 C 263.019531 220.675781 248.695312 218.074219 234.375 219.375 C 212.238281 219.375 193.683594 226.863281 178.710938 241.835938 C 163.738281 256.8125 156.25 275.367188 156.25 297.5 C 156.25 304.011719 157.550781 311.824219 160.15625 320.9375 C 169.269531 343.074219 172.523438 358.046875 169.921875 365.859375 C 167.316406 373.671875 154.945312 383.4375 132.8125 395.15625 C 85.9375 422.5 62.5 462.863281 62.5 516.25 Z M 62.5 516.25 "/>
</g>
</svg>
