<?xml version="1.0" encoding="utf-8"?>
<!-- Generator: Adobe Illustrator 18.1.1, SVG Export Plug-In . SVG Version: 6.00 Build 0)  -->
<svg version="1.1" id="Layer_1" xmlns="http://www.w3.org/2000/svg" xmlns:xlink="http://www.w3.org/1999/xlink" x="0px" y="0px"
	 viewBox="0 0 612 553.7" enable-background="new 0 0 612 553.7" xml:space="preserve">
<g>
	<path fill="#005172" d="M257.2,354.5c0.9-3.4,1.8-6.7,2.7-10.1c6.1-23,11.1-46.2,14.9-69.7c2.9-18.2,5-36.6,5.6-55
		c0.5-13.1,0.1-26.1-1.7-39.1c-0.2-1.3,0.1-2.1,1.3-2.8c12.7-8.2,26.3-14.6,40.4-20.1c20.5-8,41.6-13.7,63.2-17.8
		c19.5-3.7,39.1-6,58.8-7.1c6.2-0.4,12.3-0.5,18.5-0.8c0.9,0,1.4,0.2,1.8,1.1c7,16.8,12,34.1,15.2,52c2.5,14.4,3.7,28.8,3,43.4
		c-1.3,27.6-9.1,53-25.8,75.4c-0.2,0.3-0.5,0.6-0.8,1c-0.1,0.1-0.2,0.1-0.3,0.2c-2.4-4.6-5.5-8.8-9.3-12.4
		c-8.3-7.8-18.3-11.8-29.5-13c-14.8-1.5-29,1.4-43,6c-18,5.9-34.8,14.5-51.1,24.2c-22,13.1-42.6,28.1-62.7,43.9
		c-0.4,0.3-0.8,0.6-1.2,0.9C257.4,354.6,257.3,354.6,257.2,354.5z"/>
	<path fill="#005172" d="M311.9,146.4c-0.2-6-0.5-11.7-1-17.3C309,108.2,306,87.5,299,67.6c-3-8.5-6.9-16.7-12.5-23.8
		c-0.5-0.7-0.4-0.9,0.3-1.3c21.4-11.8,43.7-21.3,68-25.6c7.9-1.4,15.9-1.9,23.9-1.4c7.5,0.5,13.6,3.7,18.6,9
		c5.9,6.3,9.6,13.9,12.5,21.8c3.8,10.2,5.9,20.8,7.4,31.6c1.5,11,2.2,22.1,2,33.2c0,3.3-0.2,6.5-0.6,9.8c-0.7,0.1-1.1-0.4-1.6-0.6
		c-6.2-3.4-12.5-6.6-19.4-8.4c-13.5-3.5-26.7-2-39.5,2.9c-13,5-24.3,12.7-34.9,21.6c-3.3,2.7-6.4,5.5-9.5,8.4
		C313.1,145.4,312.6,145.7,311.9,146.4z"/>
	<path fill="#005172" d="M272.1,182.7c0.3,2.8,0.6,5.5,0.8,8.3c1,13.1,0.7,26.3-0.1,39.4c-1.1,16.4-3.2,32.6-6,48.8
		c-2.2,13.1-4.8,26-7.8,38.9c-0.2,0.7-0.4,1.2-1,1.5c-24,12.5-46,28-67.3,44.5c-2,1.6-4,3.1-6.2,4.5c0.7-2.5,1.3-5,2-7.5
		c5.9-22.3,10.8-44.8,14.3-67.7c3.1-20.7,5.1-41.6,4.4-62.6c-0.2-5.8-0.6-11.5-1.5-17.2c-0.2-1.5,0.2-2.3,1.4-3.1
		c12.3-7.9,25.5-13.9,39.2-19.1C253.3,188.2,262.5,185.2,272.1,182.7z"/>
	<path fill="#005172" d="M111.6,384.5c1-3.9,2-7.6,3-11.3c5.1-20,9.3-40.3,12.2-60.7c2.3-16.5,3.7-33.1,3.3-49.8
		c-0.1-5.8-0.6-11.5-1.3-17.2c-0.2-1.2,0.2-1.7,1.1-2.3c10-6.5,20.7-11.5,31.8-15.8c11-4.4,22.3-7.9,33.9-10.8
		c1.1-0.3,1.5-0.2,1.6,1c1.4,14.3,1.2,28.6,0.1,42.9c-1.9,25.3-6.3,50.2-11.8,74.9c-0.2,0.8-0.3,1.5-1.2,1.9
		c-19.8,9.4-38.1,21.4-55.7,34.4c-5.4,4-10.6,8.1-15.9,12.2C112.3,384.1,112.1,384.2,111.6,384.5z"/>
	<path fill="#005172" d="M231.8,183.3c-0.3-4.1-0.4-8-0.7-11.8c-1.5-19.5-4.2-38.9-10.7-57.5c-2.7-7.9-6.2-15.4-11.3-22
		c-0.5-0.6-0.5-0.9,0.3-1.3c19.9-10.9,40.7-19.6,63.3-23.1c5.6-0.9,11.3-1.2,17.1-1c1.1,0,1.6,0.4,2,1.4c4,10.7,6.6,21.8,8.5,33.1
		c2.8,16.5,4.3,33.1,4.8,49.9c0,0.8,0.4,1.6-1.1,1.3c-13.7-2.2-26.5,0.8-38.7,6.9c-11.8,5.9-22.1,13.9-31.8,22.8
		C232.9,182.3,232.4,182.7,231.8,183.3z"/>
	<path fill="#005172" d="M155.6,214.4c-0.5-4.4-0.9-8.8-1.4-13.2c-2.2-17.4-5.4-34.6-12.2-50.9c-2.4-5.7-5.3-11.2-9.3-16.1
		c-0.5-0.6-0.7-1,0.2-1.5c16.2-9.5,33-17.4,51.4-21.6c7.7-1.7,15.4-2.8,23.3-2c0.1,0,0.1,0,0.2,0c2.4,0.1,3.9,1,4.9,3.6
		c3.6,10,6.1,20.4,7.9,30.9c2.3,13.4,3.5,26.9,4.1,40.4c0,0.5,0,1,0,1.6c-4.3-1-8.6-1.4-13-1.3c-9.9,0.3-19,3.4-27.6,8.1
		c-9.7,5.3-18.2,12.3-26.2,20c-0.7,0.7-1.3,1.5-1.9,2.2C155.9,214.6,155.8,214.5,155.6,214.4z"/>
	<path fill="#025272" d="M507.8,443.7c6.6,0,13.2-0.1,19.7,0c5,0.1,10,0.7,14.7,2.4c9.1,3.2,13.8,9.8,14.3,19.4
		c0.5,10.3-4.4,17.3-12.8,22.5c-2,1.2-2,1.2-1.1,3.4c4.2,10,8.7,19.9,15,28.8c1.5,2.1,3.2,4.1,5.1,5.9c1.2,1.2,2.6,2.2,4,3
		c0.6,0.3,1.8,0.4,1.7,0.9c-0.1,1-0.8,2-1.3,2.9c-0.2,0.4-0.6,0.1-1,0c-7.9-1.8-15.8-3.6-23.7-5.3c-0.8-0.2-1.2-0.7-1.5-1.3
		c-6.4-9.9-12.1-20.3-17.1-31c-0.5-1-1-1.5-2.2-1.3c-1.9,0.3-3.9,0.2-5.8,0c-1.1-0.1-1.5,0.1-1.5,1.3c0.1,9,0,18.1,0,27.1
		c0,1,0.4,1.4,1.3,1.6c3.4,0.6,6.8,1.3,10.2,1.9c1,0.2,1.4,0.5,1.4,1.7c-0.1,3.4,0,3.4-3.4,3.4c-12.8,0-25.6,0-38.4,0
		c-1.4,0-1.7-0.4-1.6-1.7c0.1-3.2,0-3.2,3.2-3.8c2.6-0.5,5.3-1.1,7.9-1.6c0.8-0.2,1.1-0.5,1.1-1.4c0-23.5,0-46.9,0-70.4
		c0-0.9-0.2-1.3-1.2-1.5c-3.3-0.6-6.6-1.3-9.9-2c-0.9-0.2-1.2-0.5-1.2-1.5c0-3.5,0-3.5,3.5-3.5C494.3,443.6,501,443.6,507.8,443.7
		C507.8,443.6,507.8,443.6,507.8,443.7z M514.6,468.3c0,6,0,12,0,18c0,1,0.3,1.4,1.3,1.7c2.7,0.6,5.3,0.7,8,0.4
		c7.3-0.8,12.7-5.6,14.1-12.8c0.9-4.4,0.6-8.8-0.5-13.2c-1.7-6.6-5.8-10.7-12.4-12.3c-3-0.8-6-0.9-9.1-1c-1.2-0.1-1.4,0.4-1.4,1.5
		C514.6,456.4,514.6,462.3,514.6,468.3z"/>
	<path fill="#025272" d="M216.2,443.7c6.6,0,13.2,0,19.7,0c4.7,0,9.2,0.6,13.7,2c9.9,3.2,15,10,15.3,20.4
		c0.3,9.8-4.6,16.6-12.5,21.6c-2.3,1.5-2.4,1.5-1.3,4.1c4.1,9.8,8.6,19.5,14.7,28.2c1.9,2.7,3.9,5.2,6.5,7.2
		c0.8,0.6,1.7,1.1,2.5,1.7c0.6,0.4,1.9,0.3,1.8,1c-0.1,0.9-0.7,1.9-1.2,2.8c-0.3,0.5-0.7,0.2-1.1,0.1c-7.9-1.8-15.8-3.6-23.7-5.3
		c-0.8-0.2-1.1-0.8-1.5-1.4c-6.4-9.9-12.1-20.2-17-30.9c-0.6-1.2-1.2-1.5-2.4-1.4c-1.9,0.3-3.8,0.2-5.6,0c-1.1-0.1-1.5,0.1-1.5,1.3
		c0.1,9,0.1,18.1,0,27.1c0,1,0.4,1.4,1.3,1.6c3.4,0.6,6.7,1.3,10.1,1.9c1.1,0.2,1.6,0.6,1.6,1.8c-0.1,3.3,0,3.3-3.4,3.3
		c-12.7,0-25.5,0-38.2,0c-1.3,0-1.9-0.2-1.8-1.7c0.1-3.1,0-3.1,3.1-3.7c2.6-0.5,5.3-1.1,7.9-1.6c0.9-0.2,1.3-0.4,1.3-1.5
		c0-23.5,0-46.9,0-70.4c0-1-0.4-1.3-1.2-1.5c-3.2-0.6-6.4-1.4-9.6-1.9c-1.1-0.2-1.5-0.6-1.5-1.7c0.1-3.3,0-3.3,3.2-3.3
		C202.5,443.6,209.3,443.6,216.2,443.7C216.2,443.6,216.2,443.6,216.2,443.7z M222.8,468.2c0,6,0,11.9,0,17.9c0,1.2,0.4,1.7,1.5,1.9
		c2.7,0.6,5.4,0.6,8,0.3c7-0.8,12.1-5.4,13.7-12.2c1-4.5,0.7-9-0.3-13.5c-1.6-6.9-6-11.1-12.9-12.7c-2.8-0.7-5.7-0.8-8.6-0.8
		c-1.1,0-1.5,0.3-1.5,1.4C222.8,456.4,222.8,462.3,222.8,468.2z"/>
	<path fill="#025272" d="M102.2,486.6c0.2-7.3,1-14.3,3.7-20.9c3.9-9.9,10.9-16.9,20.9-20.5c12.9-4.6,26-4.9,39-0.9
		c11.7,3.5,19.6,11.3,23.4,22.9c4.3,13,4.3,26.2-0.1,39.2c-4.4,13-13.7,21.1-26.9,24.5c-11.3,2.9-22.7,2.6-33.8-1
		c-13.1-4.2-20.7-13.6-24.1-26.6c-0.5-2-0.9-4.1-1.3-6.1C102.6,493.6,102.4,490.1,102.2,486.6z M122.5,484.1
		c0.1,6.1,0.4,11.7,1.4,17.2c1.2,6.2,3.1,12.2,7,17.4c9,11.9,26.1,11.4,34.3-1c3.2-4.8,4.8-10.1,5.8-15.6c1.5-8.8,1.2-17.6-0.1-26.3
		c-1-6.5-2.7-12.7-6.3-18.3c-5.2-8.1-13.2-11.6-22.7-9.8c-7.7,1.5-12.6,6.3-15.6,13.3C123.1,468.4,122.6,476.5,122.5,484.1z"/>
	<path fill="#025272" d="M408.2,530.9c-6.6,0-13.2,0-19.7,0c-1.1,0-1.4-0.3-1.4-1.3c0-3.5,0-3.5,3.3-4.2c2.4-0.5,4.9-1,7.3-1.6
		c0.7-0.1,1-0.3,0.7-1.2c-2.6-7-5.1-14-7.6-21.1c-0.3-0.7-0.6-0.9-1.3-0.9c-8.5,0-16.9,0-25.4,0c-0.8,0-1.2,0.2-1.4,1
		c-2.3,7-4.7,14-7.1,21c-0.3,0.9,0,1.1,0.8,1.3c3.1,0.6,6.2,1.3,9.3,1.9c0.9,0.2,1.3,0.5,1.3,1.5c0,3.6,0,3.6-3.6,3.6
		c-8.3,0-16.6,0-24.9,0c-1.3,0-1.8-0.2-1.7-1.6c0.1-3.1,0-3.1,3.2-3.9c1.9-0.5,3.7-1,5.6-1.4c1-0.2,1.4-0.7,1.8-1.6
		c9.1-24.6,18.2-49.2,27.3-73.8c0.7-2,1.5-3.9,2.1-5.9c0.3-0.8,0.7-0.9,1.5-0.9c2.8,0,5.6,0.1,8.4,0c1.1,0,1.5,0.3,1.8,1.3
		c8.2,21.3,16.4,42.6,24.7,63.9c2,5.1,4,10.2,5.9,15.4c0.4,0.9,0.8,1.5,1.9,1.7c2.5,0.5,5,1.2,7.6,1.8c0.8,0.2,1.2,0.5,1.2,1.4
		c0,3.7,0.1,3.7-3.6,3.7C420,530.9,414.1,530.9,408.2,530.9z M387.8,493.8c-3.9-10.1-7.8-20-11.7-30.3c-3.7,10.3-7.2,20.2-10.7,30.2
		c0.4,0,0.6,0.1,0.8,0.1C373.2,493.8,380.4,493.8,387.8,493.8z"/>
	<path fill="#025272" d="M94.9,459c0,3.7,0,7.3,0,11c0,1-0.3,1.3-1.3,1.3c-3.3,0-3.3,0-4-3.3c-3.3-15.5-15.4-21.2-28.1-20.1
		c-9.6,0.8-16.7,5.8-20.8,14.3c-7.9,16.2-8,32.6,0.9,48.5c4.6,8.3,11.6,13.8,21.1,15.5c10.8,1.9,20.4-0.8,28.4-8.5
		c1.9-1.8,3.5-4,4.4-6.5c0.5-1.3,1.4-1,2.3-0.9c1,0.1,0.4,1,0.4,1.5c-0.2,3.6-0.5,7.1-0.7,10.7c-0.1,1-0.4,1.5-1.3,1.9
		c-5.9,3-11.7,5.9-18.3,7c-11.1,1.9-22.1,2.3-33-1.2c-16.1-5.3-25.7-16.5-28.9-33c-2-9.9-1.6-19.7,1.9-29.2
		c4.7-12.6,14.1-20.1,26.8-23.8c11.1-3.2,22.2-2.8,33.4-0.5c5.4,1.1,10.6,2.9,16.2,3.2c0.9,0,0.6,0.7,0.6,1.1
		C94.9,451.5,94.9,455.2,94.9,459z"/>
	<path fill="#025272" d="M333,457.8c0,3.1,0,6.2,0,9.3c0,0.9-0.3,1.2-1.2,1.2c-3.1,0-3.2,0.1-3.7-3c-0.5-3.3-1.3-6.6-3-9.6
		c-3.2-6.1-8.4-8.7-15.2-8.6c-1.4,0-2.9,0.2-4.2,0.6c-4.4,1.3-7.5,3.8-8.6,8.4c-1.2,5.1-0.3,9.7,3.6,13.5c2.7,2.7,6,4.3,9.4,5.9
		c4.6,2.1,9.4,4,13.8,6.4c9.7,5.3,14.7,13.4,14,24.5c-0.7,11.6-6.9,19.4-17.4,23.8c-8.2,3.4-16.5,2.8-24.9,0.8
		c-4.1-1-7.9-2.6-11.6-4.6c-0.7-0.4-1-0.8-1-1.7c0-6.4-0.1-12.8-0.9-19.2c-0.1-1.2,0.2-1.4,1.3-1.4c3.5,0.1,3.5,0,4.3,3.5
		c1,4.8,2.6,9.3,5.8,13.1c5.3,6.5,15.4,8.2,22.8,4.3c6.7-3.6,10.3-16.4,1.6-22.9c-2.6-1.9-5.3-3.6-8.2-5c-5.7-3-11.6-5.7-16.9-9.4
		c-15.1-10.7-10.8-33.7,0-40.8c4.6-3.1,9.7-4.6,15.2-5.1c8.5-0.8,16.4,1.2,24,4.8c0.9,0.4,1.1,0.9,1.1,1.8
		C333,451.6,333,454.7,333,457.8z"/>
	<path fill="#005172" d="M446.9,487.1c0-11.6,0-23.2,0-34.7c0-1.3-0.5-1.7-1.6-1.9c-3.2-0.6-6.3-1.3-9.4-1.9c-1-0.2-1.3-0.6-1.3-1.6
		c0-3.4,0-3.4,3.5-3.4c12.6,0,25.2,0,37.8,0c1.3,0,1.6,0.3,1.6,1.6c-0.1,3.2,0,3.2-3.1,3.8c-2.7,0.5-5.4,1.1-8.1,1.7
		c-0.8,0.2-1.2,0.4-1.2,1.4c0,23.5,0,47,0,70.5c0,1.1,0.5,1.2,1.3,1.4c3.2,0.6,6.4,1.3,9.6,1.9c0.9,0.2,1.5,0.4,1.4,1.6
		c-0.1,3.5,0,3.5-3.5,3.5c-12.6,0-25.2,0-37.8,0c-1.2,0-1.6-0.2-1.6-1.5c0.1-3.4,0-3.3,3.4-4c2.5-0.5,5.1-1.1,7.6-1.5
		c1.1-0.2,1.4-0.7,1.3-1.7C446.9,510.5,446.9,498.8,446.9,487.1z"/>
	<path fill="#025272" d="M378.7,290.9c-4,12.4-9.7,23.5-17.6,33.8c-4.4-8.2-10.7-14.3-19.3-18.4
		C353.7,300.1,365.7,294.8,378.7,290.9z"/>
	<path fill="#025272" d="M597.7,459c0.1,9.6-7.9,17.6-17.6,17.7c-9.8,0.1-17.7-7.7-17.7-17.4c-0.1-9.9,7.8-17.9,17.6-17.9
		C589.8,441.3,597.6,449.1,597.7,459z M564.4,459.2c0,8.8,6.9,15.6,15.6,15.6c8.8-0.1,15.7-7,15.6-15.8c-0.1-8.8-6.9-15.6-15.6-15.6
		C571.2,443.4,564.4,450.3,564.4,459.2z"/>
	<path fill="#025272" d="M584.5,461.3c1.5,2.2,2.9,4.3,4.5,6.6c-1.6,0-2.9,0-4.2,0c-0.6,0-0.9-0.4-1.2-0.8c-1-1.4-1.9-2.9-2.9-4.3
		c-0.5-0.8-2.7-1.3-3.5-0.9c-0.5,0.3-0.3,0.7-0.3,1.1c0,1.3,0,2.6,0,4c0,0.7-0.2,0.9-1,1c-3.2,0.1-3.2,0.2-3.2-3c0-4.8,0-9.7,0-14.5
		c0-1,0.2-1.3,1.2-1.3c2.7,0.1,5.5-0.1,8.2,0.1c4.7,0.2,7.4,4.2,5.9,8.4C587.6,459.1,586.9,459.9,584.5,461.3z M576.9,455.6
		c0,0.7,0,1.3,0,2c0,0.5,0.1,0.8,0.7,0.8c1.5-0.1,3.1,0.2,4.6-0.2c1.5-0.4,2.2-1.3,2.1-2.7c-0.1-1.4-0.9-2.3-2.4-2.5
		c-0.8-0.1-1.5-0.1-2.3-0.1C576.9,452.8,576.9,452.8,576.9,455.6z"/>
</g>
</svg>
