<?xml version="1.0" ?><!DOCTYPE svg  PUBLIC '-//W3C//DTD SVG 1.1//EN'  'http://www.w3.org/Graphics/SVG/1.1/DTD/svg11.dtd'><svg enable-background="new 0 0 512 512" id="Layer_1" version="1.1" viewBox="0 0 512 512" xml:space="preserve" xmlns="http://www.w3.org/2000/svg" xmlns:xlink="http://www.w3.org/1999/xlink"><g id="Binocular"><circle cx="108.7" cy="188.2" fill="#080A0C" r="68.7"/><circle cx="403.3" cy="188.2" fill="#080A0C" r="68.7"/><circle cx="108.7" cy="234.7" fill="#122B47" r="83.8"/><circle cx="403.3" cy="234.7" fill="#122B47" r="83.8"/><g><path d="M166.2,300.1L166.2,300.1l-0.1-9.8v-66.9l14.6,8c27.9,15.4,55.2,23.2,81,23.2c0,0,0,0,0,0    c43.1,0,67.4-21.7,67.6-21.9l16.4-14.9l0.2,49.8h0l0,9.8v66.9l-14.6-8c-27.9-15.4-55.2-23.2-81-23.2c-43.1,0-67.4,21.7-67.6,21.9    l-16.4,14.9L166.2,300.1z" fill="#122B47"/><path d="M335.9,240l0.1,37.5h0v50.3c-33.2-18.3-62.1-24.5-85.8-24.5c-47.4,0-74.2,24.5-74.2,24.5l-0.1-37.5h0V240    c33.2,18.3,62.1,24.5,85.8,24.5C309.1,264.4,335.9,240,335.9,240 M355.4,194.5l-32.7,30.9c-1.7,1.5-23.3,19.4-61.1,19.4    c-24.2,0-49.8-7.4-76.3-22l-29.1-16.1V240v50.3v19.6h0.1l0.1,17.9l0.2,45.4l32.7-30.9c1.7-1.5,23.3-19.4,61.1-19.4    c24.2,0,49.8,7.4,76.3,22l29.1,16.1v-33.3v-50.3v-19.6h-0.1l-0.1-17.9L355.4,194.5L355.4,194.5z" fill="#0676B7"/></g><g><g><g><circle cx="403.3" cy="283.8" fill="#27AAE1" r="83.8"/><path d="M462.6,224.6c32.7,32.7,32.7,85.8,0,118.5s-85.8,32.7-118.5,0s-32.7-85.8,0-118.5      S429.8,191.9,462.6,224.6 M480.2,206.9c-42.4-42.4-111.4-42.4-153.8,0s-42.4,111.4,0,153.8s111.4,42.4,153.8,0      S522.6,249.3,480.2,206.9L480.2,206.9z" fill="#E6E7E8"/></g><path d="M344,224.6c-15.7,15.7-23.8,36-24.4,56.5c82.1,25.6,141.2,3.7,166.5-9.5c-2.5-17.2-10.3-33.8-23.6-47.1     C429.8,191.9,376.8,191.9,344,224.6z" fill="#38BBE9"/><path d="M437.7,312.7c-3.3-3.3-3.7-8.6-0.8-12.3c14.8-19,3.3-34.7,3.2-34.9c-3.1-4.1-2.3-10,1.8-13.1     c4.1-3.1,10-2.3,13.1,1.8c7.1,9.4,15.4,33.5-3.3,57.6c-3.2,4.1-9.1,4.8-13.1,1.6C438.3,313.2,438,313,437.7,312.7z" fill="#FFFFFF"/><g opacity="0.5"><path d="M353.5,234.1c31.1-31.1,80.6-32.6,113.5-4.5c-1.4-1.7-2.9-3.4-4.5-5c-32.7-32.7-85.8-32.7-118.5,0      s-32.7,85.8,0,118.5c1.6,1.6,3.3,3.1,5,4.5C320.9,314.7,322.4,265.2,353.5,234.1z" fill="#1C75BC"/></g></g><g><g><circle cx="108.7" cy="283.8" fill="#27AAE1" r="83.8"/><path d="M168,224.6c32.7,32.7,32.7,85.8,0,118.5s-85.8,32.7-118.5,0s-32.7-85.8,0-118.5S135.2,191.9,168,224.6       M185.6,206.9c-42.4-42.4-111.4-42.4-153.8,0s-42.4,111.4,0,153.8s111.4,42.4,153.8,0S228,249.3,185.6,206.9L185.6,206.9z" fill="#E6E7E8"/></g><path d="M49.4,224.6c-15.7,15.7-23.8,36-24.4,56.5c82.1,25.6,141.2,3.7,166.5-9.5c-2.5-17.2-10.3-33.8-23.6-47.1     C135.2,191.9,82.2,191.9,49.4,224.6z" fill="#38BBE9"/><path d="M143.1,312.7c-3.3-3.3-3.7-8.6-0.8-12.3c14.8-19,3.3-34.7,3.2-34.9c-3.1-4.1-2.3-10,1.8-13.1     c4.1-3.1,10-2.3,13.1,1.8c7.1,9.4,15.4,33.5-3.3,57.6c-3.2,4.1-9.1,4.8-13.1,1.6C143.7,313.2,143.4,313,143.1,312.7z" fill="#FFFFFF"/><g opacity="0.5"><path d="M58.9,234.1c31.1-31.1,80.6-32.6,113.5-4.5c-1.4-1.7-2.9-3.4-4.5-5c-32.7-32.7-85.8-32.7-118.5,0      s-32.7,85.8,0,118.5c1.6,1.6,3.3,3.1,5,4.5C26.3,314.7,27.8,265.2,58.9,234.1z" fill="#1C75BC"/></g></g></g></g></svg>