<?xml version="1.0" ?><!DOCTYPE svg  PUBLIC '-//W3C//DTD SVG 1.1//EN'  'http://www.w3.org/Graphics/SVG/1.1/DTD/svg11.dtd'><svg enable-background="new 0 0 128 128" height="128px" id="Layer_1" version="1.1" viewBox="0 0 128 128" width="128px" xml:space="preserve" xmlns="http://www.w3.org/2000/svg" xmlns:xlink="http://www.w3.org/1999/xlink"><g><path d="M64,54.833c-35.346,0-64-9.552-64-21.333v20C0,64.521,29.31,73.833,64,73.833s64-9.312,64-20.333v-20   C128,45.281,99.344,54.833,64,54.833z" fill="#010101"/><path d="M64,75.833c-30.832,0-56.786-7.19-64-16.877v32.545c0,11.781,28.654,21.332,64,21.332   c35.343,0,64-9.551,64-21.332V58.956C120.787,68.643,94.832,75.833,64,75.833z" fill="#010101"/><path d="M96,36.5c5.494,0,9-1.777,9-3s-3.506-3-9-3s-9,1.777-9,3S90.506,36.5,96,36.5z" fill="#010101"/><path d="M32,36.5c5.494,0,9-1.777,9-3s-3.506-3-9-3s-9,1.777-9,3S26.506,36.5,32,36.5z" fill="#010101"/><path d="M19.694,45.738c11.791,3.93,27.525,6.095,44.306,6.095c16.781,0,32.515-2.165,44.306-6.095   C118.76,42.254,125,37.679,125,33.5s-6.24-8.754-16.693-12.238C96.516,17.332,80.781,15.167,64,15.167   c-16.781,0-32.516,2.165-44.306,6.095C9.242,24.746,3,29.321,3,33.5S9.242,42.254,19.694,45.738z M9.5,39.014   c-0.14,0.18-0.36,0.27-0.57,0.27c-0.17,0-0.34-0.06-0.48-0.18c-0.32-0.26-0.36-0.73-0.1-1.05c0.27-0.32,0.74-0.36,1.06-0.1   C9.73,38.224,9.771,38.694,9.5,39.014z M13.11,38.434c0.2-0.37,0.65-0.5,1.02-0.31c0.36,0.2,0.5,0.65,0.31,1.02   c-0.14,0.25-0.4,0.39-0.67,0.39c-0.12,0-0.24-0.03-0.35-0.09C13.05,39.254,12.92,38.794,13.11,38.434z M15.811,39.784   c0.16-0.39,0.6-0.57,0.98-0.4c0.38,0.16,0.56,0.59,0.4,0.98c-0.12,0.28-0.4,0.46-0.69,0.46c-0.1,0-0.19-0.021-0.29-0.06   C15.831,40.604,15.65,40.164,15.811,39.784z M18.61,40.894c0.14-0.39,0.56-0.6,0.96-0.46c0.39,0.13,0.6,0.56,0.46,0.95   c-0.11,0.31-0.4,0.51-0.71,0.51c-0.08,0-0.16-0.02-0.24-0.04C18.681,41.714,18.48,41.284,18.61,40.894z M21.47,41.844   c0.12-0.4,0.54-0.62,0.94-0.51c0.39,0.12,0.62,0.54,0.5,0.94c-0.09,0.32-0.39,0.53-0.72,0.53c-0.07,0-0.14-0.01-0.21-0.03   C21.59,42.654,21.36,42.244,21.47,41.844z M23.21,44.874c-0.1,0.33-0.4,0.55-0.73,0.55c-0.06,0-0.13-0.01-0.2-0.03   c-0.4-0.11-0.63-0.53-0.521-0.92c0.11-0.4,0.53-0.64,0.93-0.52C23.09,44.064,23.32,44.474,23.21,44.874z M26.11,45.614   c-0.09,0.34-0.39,0.57-0.73,0.57c-0.06,0-0.12,0-0.18-0.02c-0.4-0.1-0.65-0.5-0.55-0.91c0.1-0.4,0.51-0.64,0.91-0.54   C25.96,44.814,26.21,45.214,26.11,45.614z M24.38,42.664c0.1-0.4,0.51-0.64,0.91-0.54s0.64,0.51,0.54,0.91   c-0.08,0.34-0.39,0.57-0.73,0.57c-0.06,0-0.12-0.01-0.18-0.03C24.521,43.474,24.271,43.064,24.38,42.664z M29.031,46.274   c-0.07,0.35-0.38,0.59-0.73,0.59c-0.05,0-0.11-0.01-0.16-0.021c-0.4-0.09-0.66-0.49-0.57-0.89c0.08-0.41,0.48-0.66,0.89-0.58   C28.86,45.464,29.121,45.864,29.031,46.274z M27.311,43.384c0.09-0.4,0.48-0.66,0.89-0.57c0.4,0.09,0.66,0.49,0.57,0.89   c-0.08,0.35-0.39,0.59-0.73,0.59c-0.05,0-0.11,0-0.16-0.02C27.47,44.184,27.22,43.784,27.311,43.384z M31.241,47.454   c-0.05,0-0.09,0-0.14-0.01c-0.41-0.08-0.68-0.47-0.6-0.88c0.08-0.4,0.47-0.67,0.88-0.6c0.4,0.08,0.67,0.47,0.59,0.88   C31.911,47.204,31.59,47.454,31.241,47.454z M30.26,44.014c0.07-0.41,0.47-0.68,0.87-0.6c0.41,0.08,0.68,0.47,0.6,0.88   c-0.07,0.36-0.39,0.61-0.74,0.61c-0.04,0-0.09-0.01-0.14-0.01C30.44,44.814,30.181,44.414,30.26,44.014z M33.22,44.564   c0.07-0.41,0.46-0.69,0.86-0.62c0.41,0.07,0.69,0.46,0.62,0.87c-0.06,0.36-0.38,0.62-0.74,0.62c-0.04,0-0.08,0-0.12-0.01   C33.431,45.354,33.15,44.974,33.22,44.564z M34.19,47.974c-0.04,0-0.08,0-0.12-0.01c-0.41-0.07-0.69-0.45-0.62-0.86   c0.06-0.41,0.45-0.68,0.86-0.62c0.41,0.07,0.69,0.46,0.62,0.87C34.871,47.714,34.55,47.974,34.19,47.974z M36.201,45.044   c0.06-0.41,0.44-0.69,0.85-0.63c0.41,0.06,0.69,0.44,0.63,0.85c-0.05,0.37-0.37,0.64-0.74,0.64c-0.03,0-0.07-0.01-0.11-0.01   C36.42,45.834,36.141,45.454,36.201,45.044z M37.15,48.434c-0.04,0-0.07,0-0.11-0.01c-0.41-0.06-0.69-0.44-0.63-0.84   c0.06-0.41,0.44-0.7,0.85-0.64c0.41,0.06,0.69,0.44,0.63,0.85C37.84,48.164,37.51,48.434,37.15,48.434z M39.19,45.464   c0.05-0.41,0.42-0.7,0.83-0.65c0.41,0.05,0.7,0.42,0.65,0.84c-0.04,0.37-0.37,0.649-0.74,0.649c-0.03,0-0.06,0-0.09,0   C39.42,46.244,39.13,45.874,39.19,45.464z M40.121,48.834c-0.027,0-0.055,0-0.09,0c-0.42-0.06-0.71-0.43-0.66-0.84   c0.05-0.41,0.43-0.7,0.84-0.65c0.41,0.05,0.7,0.42,0.65,0.83C40.811,48.564,40.491,48.834,40.121,48.834z M42.181,45.824   c0.04-0.41,0.41-0.71,0.83-0.67c0.41,0.05,0.71,0.42,0.66,0.83c-0.04,0.38-0.37,0.67-0.74,0.67c-0.03,0-0.06,0-0.08-0.01   C42.431,46.604,42.141,46.234,42.181,45.824z M64.031,50.254c-0.41,0-0.75-0.34-0.75-0.75c0-0.42,0.34-0.75,0.75-0.75   c0.41,0,0.75,0.33,0.75,0.75C64.781,49.914,64.44,50.254,64.031,50.254z M67.031,50.224c-0.004,0-0.006,0-0.012,0   c-0.41,0-0.738-0.33-0.75-0.74c0-0.41,0.33-0.75,0.74-0.75h0.01c0.41-0.01,0.75,0.32,0.762,0.73   C67.781,49.884,67.451,50.224,67.031,50.224z M70.041,50.164c0,0-0.01,0-0.021,0c-0.398,0-0.738-0.32-0.75-0.73   c-0.01-0.41,0.32-0.76,0.73-0.77s0.76,0.32,0.77,0.73C70.781,49.804,70.451,50.154,70.041,50.164z M73.051,50.054   c-0.01,0-0.02,0-0.031,0c-0.398,0-0.738-0.31-0.76-0.71c-0.01-0.42,0.311-0.77,0.721-0.78c0.42-0.02,0.771,0.3,0.779,0.71   C73.781,49.694,73.461,50.044,73.051,50.054z M76.051,49.904c-0.01,0-0.031,0-0.041,0c-0.4,0-0.729-0.311-0.75-0.7   c-0.029-0.42,0.291-0.77,0.701-0.8c0.42-0.021,0.77,0.3,0.799,0.71C76.781,49.524,76.461,49.884,76.051,49.904z M79.051,49.704   c-0.02,0.01-0.031,0.01-0.051,0.01c-0.391,0-0.719-0.31-0.75-0.7c-0.029-0.41,0.281-0.77,0.689-0.8   c0.41-0.03,0.771,0.28,0.801,0.69C79.77,49.314,79.461,49.674,79.051,49.704z M82.051,49.464c-0.02,0-0.051,0-0.07,0   c-0.381,0-0.711-0.29-0.738-0.68c-0.041-0.41,0.26-0.78,0.68-0.82c0.41-0.03,0.77,0.27,0.809,0.68   C82.77,49.064,82.461,49.424,82.051,49.464z M85.041,49.164c-0.021,0.01-0.051,0.01-0.08,0.01c-0.371,0-0.701-0.29-0.74-0.67   c-0.051-0.42,0.25-0.78,0.66-0.83c0.41-0.04,0.789,0.26,0.83,0.67C85.75,48.754,85.461,49.124,85.041,49.164z M85.27,46.634   c-0.02,0.01-0.049,0.01-0.08,0.01c-0.379,0-0.697-0.29-0.738-0.67c-0.051-0.42,0.25-0.78,0.658-0.83   c0.41-0.04,0.791,0.25,0.83,0.67C85.979,46.224,85.68,46.594,85.27,46.634z M88.031,48.824c-0.031,0-0.062,0-0.092,0   c-0.371,0-0.699-0.271-0.738-0.65c-0.053-0.41,0.238-0.79,0.648-0.84s0.779,0.24,0.83,0.65   C88.74,48.394,88.439,48.774,88.031,48.824z M88.281,46.284c-0.031,0-0.062,0.01-0.092,0.01c-0.371,0-0.699-0.28-0.75-0.66   c-0.051-0.41,0.24-0.79,0.66-0.84c0.41-0.05,0.779,0.24,0.83,0.65C88.99,45.854,88.689,46.234,88.281,46.284z M91.02,48.414   c-0.039,0.01-0.08,0.01-0.107,0.01c-0.371,0-0.691-0.27-0.74-0.64c-0.062-0.41,0.219-0.79,0.629-0.85s0.791,0.23,0.85,0.64   C91.711,47.984,91.43,48.364,91.02,48.414z M91.291,45.874c0,0,0,0-0.01,0c-0.031,0.01-0.07,0.01-0.102,0.01   c-0.371,0-0.689-0.27-0.75-0.64c-0.061-0.41,0.23-0.79,0.639-0.85c0.41-0.06,0.791,0.22,0.852,0.63   C91.979,45.434,91.689,45.814,91.291,45.874z M93.99,47.954c-0.039,0.01-0.08,0.01-0.119,0.01c-0.361,0-0.682-0.26-0.74-0.62   c-0.07-0.41,0.209-0.8,0.619-0.87c0.41-0.06,0.791,0.21,0.859,0.62C94.68,47.504,94.398,47.894,93.99,47.954z M94.281,45.404   c-0.041,0.01-0.092,0.01-0.133,0.01c-0.357,0-0.67-0.26-0.729-0.62c-0.07-0.41,0.201-0.8,0.611-0.87   c0.408-0.07,0.799,0.21,0.867,0.62C94.961,44.954,94.689,45.334,94.281,45.404z M96.961,47.434c-0.051,0.01-0.09,0.01-0.143,0.01   c-0.35,0-0.67-0.25-0.738-0.61c-0.07-0.41,0.189-0.8,0.6-0.88c0.41-0.07,0.801,0.19,0.881,0.6   C97.641,46.964,97.371,47.354,96.961,47.434z M97.27,44.864c-0.049,0.01-0.1,0.02-0.139,0.02c-0.361,0-0.67-0.25-0.74-0.61   c-0.08-0.41,0.18-0.8,0.59-0.88s0.801,0.19,0.879,0.6C97.939,44.394,97.67,44.784,97.27,44.864z M99.92,46.834   c-0.061,0.01-0.109,0.01-0.16,0.01c-0.35,0-0.66-0.24-0.74-0.59c-0.08-0.4,0.17-0.8,0.58-0.89c0.4-0.09,0.801,0.17,0.893,0.58   C100.58,46.344,100.318,46.744,99.92,46.834z M100.24,44.254c-0.051,0.01-0.109,0.01-0.16,0.01c-0.352,0-0.66-0.23-0.73-0.58   c-0.09-0.41,0.16-0.81,0.57-0.9c0.398-0.09,0.801,0.17,0.891,0.57C100.898,43.764,100.641,44.164,100.24,44.254z M102.859,46.154   c-0.061,0.01-0.119,0.02-0.18,0.02c-0.34,0-0.648-0.23-0.729-0.57c-0.102-0.4,0.148-0.81,0.549-0.91   c0.398-0.1,0.801,0.15,0.898,0.55C103.5,45.644,103.26,46.054,102.859,46.154z M103.201,43.544c-0.062,0.02-0.133,0.03-0.191,0.03   c-0.33,0-0.639-0.23-0.719-0.57c-0.111-0.4,0.139-0.81,0.539-0.91c0.398-0.1,0.811,0.14,0.91,0.54   C103.84,43.034,103.6,43.444,103.201,43.544z M105.781,45.374c-0.07,0.02-0.143,0.03-0.213,0.03c-0.318,0-0.629-0.21-0.719-0.54   c-0.109-0.4,0.119-0.82,0.521-0.93c0.398-0.11,0.809,0.12,0.92,0.52C106.41,44.854,106.17,45.264,105.781,45.374z M106.131,42.744   c-0.07,0.02-0.141,0.03-0.211,0.03c-0.32,0-0.619-0.21-0.719-0.54c-0.121-0.4,0.107-0.81,0.51-0.93   c0.389-0.12,0.809,0.11,0.93,0.51C106.76,42.204,106.531,42.624,106.131,42.744z M108.67,44.494c-0.08,0.03-0.15,0.04-0.23,0.04   c-0.318,0-0.607-0.2-0.709-0.52c-0.131-0.39,0.08-0.82,0.471-0.94c0.398-0.13,0.818,0.08,0.949,0.47   C109.281,43.944,109.068,44.364,108.67,44.494z M111.531,43.474c-0.092,0.04-0.182,0.05-0.271,0.05c-0.301,0-0.58-0.18-0.701-0.48   c-0.148-0.38,0.041-0.82,0.432-0.97c0.391-0.15,0.818,0.05,0.971,0.43C112.109,42.894,111.92,43.324,111.531,43.474z    M114.34,42.284c-0.109,0.05-0.219,0.07-0.32,0.07c-0.289,0-0.549-0.16-0.68-0.43c-0.18-0.38-0.021-0.82,0.361-1   c0.367-0.17,0.818-0.01,1,0.36C114.871,41.664,114.711,42.104,114.34,42.284z M117.051,40.854c-0.121,0.07-0.25,0.11-0.381,0.11   c-0.26,0-0.51-0.13-0.65-0.37c-0.209-0.36-0.09-0.82,0.262-1.03c0.359-0.21,0.818-0.09,1.029,0.26   C117.52,40.184,117.41,40.644,117.051,40.854z M118.141,34.524c0.18-0.37,0.629-0.53,1-0.35c0.379,0.18,0.529,0.63,0.352,1   c-0.133,0.27-0.4,0.43-0.682,0.43c-0.1,0-0.221-0.03-0.318-0.08C118.121,35.344,117.961,34.894,118.141,34.524z M121.75,36.694   c-0.141,0.23-0.379,0.35-0.629,0.35c-0.143,0-0.281-0.04-0.41-0.12c-0.34-0.22-0.451-0.68-0.221-1.03   c0.221-0.35,0.68-0.46,1.029-0.23C121.871,35.884,121.971,36.344,121.75,36.694z M122.75,33.374c0,0.02,0,0.04,0,0.06   c0,0.019,0,0.039,0,0.066c0,0.001,0,0.002,0,0.004c0,0.41-0.34,0.75-0.75,0.75c-0.42,0-0.75-0.34-0.75-0.75   c0-0.002,0-0.002,0-0.004c0-0.017,0-0.027,0-0.036c0-0.02,0-0.04,0-0.06c-0.01-0.41,0.318-0.75,0.729-0.76   C122.391,32.634,122.74,32.954,122.75,33.374z M120.641,29.984c0.352-0.23,0.811-0.13,1.039,0.21c0.23,0.35,0.131,0.81-0.209,1.04   c-0.131,0.09-0.27,0.13-0.41,0.13c-0.25,0-0.479-0.12-0.631-0.34C120.201,30.674,120.291,30.214,120.641,29.984z M119.6,39.074   c-0.139,0.11-0.309,0.17-0.49,0.17c-0.209,0-0.42-0.09-0.568-0.27c-0.26-0.31-0.221-0.79,0.09-1.05   c0.32-0.27,0.791-0.23,1.061,0.09C119.961,38.334,119.92,38.804,119.6,39.074z M118.451,27.954c0.26-0.32,0.738-0.37,1.059-0.1   c0.311,0.26,0.361,0.73,0.09,1.06c-0.139,0.17-0.357,0.27-0.568,0.27c-0.172,0-0.342-0.06-0.48-0.18   C118.229,28.744,118.189,28.274,118.451,27.954z M118.381,31.324c0.359-0.19,0.82-0.06,1.01,0.31c0.199,0.36,0.061,0.82-0.301,1.01   c-0.109,0.07-0.24,0.1-0.359,0.1c-0.26,0-0.52-0.15-0.66-0.4C117.881,31.984,118.01,31.524,118.381,31.324z M117.33,37.684   c-0.141,0.11-0.311,0.16-0.471,0.16c-0.221,0-0.439-0.09-0.59-0.28c-0.26-0.32-0.201-0.8,0.119-1.05   c0.33-0.26,0.801-0.21,1.062,0.12C117.701,36.954,117.648,37.424,117.33,37.684z M117.311,30.254c-0.148,0.19-0.371,0.29-0.6,0.29   c-0.15,0-0.32-0.05-0.451-0.16c-0.33-0.25-0.389-0.72-0.139-1.05c0.26-0.33,0.729-0.39,1.059-0.14   C117.5,29.454,117.561,29.924,117.311,30.254z M115.92,26.354c0.211-0.36,0.67-0.48,1.031-0.27c0.357,0.21,0.469,0.67,0.26,1.03   c-0.143,0.24-0.393,0.37-0.643,0.37c-0.129,0-0.26-0.04-0.379-0.11C115.83,27.164,115.711,26.704,115.92,26.354z M114.689,39.394   c-0.121,0.06-0.238,0.09-0.359,0.09c-0.271,0-0.521-0.15-0.66-0.4c-0.199-0.36-0.061-0.82,0.301-1.01   c0.369-0.2,0.82-0.07,1.021,0.3C115.189,38.734,115.051,39.194,114.689,39.394z M114.83,28.534c-0.129,0.26-0.391,0.4-0.66,0.4   c-0.119,0-0.24-0.03-0.352-0.09c-0.367-0.189-0.5-0.65-0.309-1.01c0.189-0.37,0.65-0.51,1.01-0.31   C114.891,27.714,115.031,28.174,114.83,28.534z M113.229,25.034c0.182-0.38,0.621-0.54,1-0.37c0.371,0.18,0.541,0.62,0.361,1   c-0.121,0.27-0.391,0.43-0.68,0.43c-0.102,0-0.211-0.02-0.312-0.07C113.221,25.854,113.061,25.404,113.229,25.034z M111.898,40.714   c-0.09,0.04-0.188,0.06-0.289,0.06c-0.291,0-0.568-0.17-0.689-0.46c-0.16-0.38,0.02-0.82,0.398-0.98c0.383-0.16,0.82,0.02,0.98,0.4   C112.459,40.114,112.281,40.554,111.898,40.714z M112.141,27.194c-0.121,0.29-0.41,0.46-0.701,0.46   c-0.09,0-0.188-0.021-0.289-0.061c-0.381-0.15-0.561-0.59-0.398-0.979c0.16-0.38,0.6-0.561,0.979-0.4   S112.291,26.814,112.141,27.194z M110.451,23.914c0.148-0.39,0.59-0.58,0.969-0.43c0.391,0.15,0.58,0.58,0.43,0.97   c-0.107,0.3-0.389,0.48-0.699,0.48c-0.09,0-0.18-0.02-0.27-0.05h0.01C110.5,24.734,110.311,24.304,110.451,23.914z M109.041,41.814   c-0.08,0.02-0.17,0.04-0.25,0.04c-0.312,0-0.602-0.19-0.711-0.5c-0.129-0.4,0.068-0.82,0.471-0.96   c0.389-0.14,0.809,0.07,0.949,0.46S109.43,41.674,109.041,41.814z M109.33,26.084c-0.109,0.31-0.4,0.5-0.709,0.5   c-0.08,0-0.16-0.01-0.24-0.04c-0.391-0.13-0.6-0.56-0.471-0.95c0.141-0.39,0.561-0.6,0.961-0.46   C109.26,25.264,109.471,25.694,109.33,26.084z M107.621,22.954c0.129-0.4,0.549-0.61,0.938-0.48c0.4,0.12,0.611,0.55,0.48,0.94   c-0.102,0.32-0.391,0.52-0.709,0.52c-0.08,0-0.15-0.01-0.23-0.04C107.701,23.764,107.49,23.344,107.621,22.954z M106.471,25.134   c-0.1,0.33-0.4,0.54-0.721,0.54c-0.07,0-0.141-0.01-0.209-0.03c-0.4-0.12-0.631-0.53-0.51-0.93c0.107-0.4,0.527-0.62,0.93-0.51   C106.35,24.324,106.58,24.734,106.471,25.134z M104.74,22.114c0.109-0.4,0.529-0.64,0.93-0.521c0.398,0.11,0.631,0.521,0.51,0.92   c-0.09,0.33-0.389,0.55-0.709,0.55c-0.07,0-0.141-0.01-0.211-0.03C104.859,22.924,104.631,22.504,104.74,22.114z M101.84,21.374   c0.1-0.41,0.5-0.65,0.9-0.55c0.408,0.1,0.648,0.5,0.551,0.91c-0.08,0.34-0.393,0.57-0.73,0.57c-0.051,0-0.121-0.01-0.18-0.03h0.01   C101.979,22.174,101.74,21.774,101.84,21.374z M103.561,24.314c-0.08,0.34-0.391,0.57-0.721,0.57c-0.059,0-0.119-0.01-0.189-0.02   c-0.398-0.1-0.641-0.51-0.541-0.91c0.102-0.41,0.512-0.65,0.91-0.55C103.42,23.504,103.66,23.914,103.561,24.314z M98.91,20.724   c0.09-0.41,0.488-0.67,0.891-0.58c0.41,0.09,0.67,0.49,0.58,0.89c-0.08,0.35-0.391,0.59-0.73,0.59c-0.061,0-0.109,0-0.158-0.01   C99.08,21.524,98.83,21.124,98.91,20.724z M100.631,23.604c-0.07,0.35-0.381,0.59-0.73,0.59c-0.051,0-0.109-0.01-0.158-0.02   c-0.41-0.09-0.66-0.49-0.57-0.89c0.09-0.41,0.49-0.66,0.889-0.57C100.471,22.794,100.721,23.194,100.631,23.604z M97.689,22.974   c-0.08,0.36-0.391,0.61-0.738,0.61c-0.053,0-0.102,0-0.143-0.01c-0.41-0.08-0.68-0.47-0.6-0.88c0.08-0.41,0.471-0.67,0.881-0.59   C97.49,22.174,97.76,22.574,97.689,22.974z M96.85,19.544c0.4,0.08,0.67,0.47,0.59,0.88c-0.059,0.36-0.379,0.61-0.729,0.61   c-0.049,0-0.102,0-0.141-0.01c-0.408-0.08-0.68-0.47-0.6-0.88C96.051,19.744,96.439,19.474,96.85,19.544z M94.721,22.424   c-0.061,0.37-0.381,0.63-0.74,0.63c-0.041,0-0.08,0-0.121-0.01c-0.408-0.07-0.688-0.46-0.617-0.86   c0.068-0.41,0.447-0.69,0.857-0.62S94.791,22.014,94.721,22.424z M93.881,19.024c0.41,0.07,0.688,0.45,0.619,0.86   c-0.061,0.37-0.379,0.63-0.74,0.63c-0.039,0-0.08,0-0.129-0.01h0.01c-0.41-0.07-0.689-0.45-0.621-0.86   C93.09,19.234,93.471,18.954,93.881,19.024z M91.74,21.944c-0.051,0.38-0.381,0.65-0.74,0.65c-0.039,0-0.07-0.01-0.109-0.01   c-0.41-0.06-0.689-0.44-0.631-0.85c0.061-0.407,0.436-0.694,0.842-0.64H91.1h0.002c0.006,0,0.008,0,0.008,0s-0.002,0-0.008,0   C91.512,21.155,91.801,21.534,91.74,21.944z M90.898,18.564c0.41,0.06,0.701,0.44,0.643,0.85c-0.062,0.37-0.381,0.64-0.74,0.64   c-0.041,0-0.07,0-0.111,0v-0.01c-0.408-0.05-0.697-0.44-0.639-0.85C90.109,18.784,90.49,18.504,90.898,18.564z M88.75,21.534   c-0.039,0.38-0.369,0.65-0.74,0.65c-0.029,0-0.059,0-0.09,0c-0.41-0.05-0.709-0.43-0.65-0.84c0.041-0.41,0.42-0.7,0.83-0.65   C88.51,20.744,88.811,21.124,88.75,21.534z M87.92,18.164c0.41,0.05,0.701,0.43,0.648,0.84c-0.049,0.38-0.367,0.65-0.75,0.65   c-0.027,0-0.059,0-0.09,0c-0.41-0.05-0.697-0.43-0.648-0.84C87.131,18.404,87.51,18.114,87.92,18.164z M96,28.5   c5.334,0,11,1.752,11,5s-5.666,5-11,5c-5.332,0-11-1.752-11-5S90.668,28.5,96,28.5z M85.76,21.174   c-0.039,0.38-0.369,0.67-0.75,0.67c-0.02,0-0.049,0-0.07-0.01c-0.42-0.04-0.719-0.41-0.67-0.82c0.041-0.42,0.41-0.71,0.82-0.67   S85.801,20.754,85.76,21.174z M84.93,17.824c0.41,0.04,0.711,0.41,0.66,0.82c-0.039,0.39-0.359,0.67-0.74,0.67   c-0.029,0-0.049,0-0.08,0c-0.41-0.05-0.709-0.42-0.67-0.83C84.148,18.074,84.52,17.774,84.93,17.824z M82.26,46.934   c-0.02,0-0.049,0-0.07,0c-0.379,0-0.709-0.29-0.75-0.68c-0.027-0.41,0.271-0.78,0.682-0.81c0.42-0.04,0.779,0.26,0.818,0.68   C82.979,46.534,82.67,46.894,82.26,46.934z M82.01,21.544c-0.02,0-0.039,0-0.059,0c-0.42-0.04-0.723-0.4-0.682-0.81   c0.029-0.41,0.391-0.72,0.811-0.68c0.41,0.03,0.711,0.4,0.68,0.811C82.721,21.254,82.398,21.544,82.01,21.544z M81.93,17.524   c0.42,0.04,0.721,0.4,0.68,0.82c-0.027,0.39-0.357,0.68-0.738,0.68c-0.021,0-0.051,0-0.07,0c-0.41-0.04-0.719-0.4-0.68-0.82   C81.16,17.794,81.52,17.484,81.93,17.524z M79.24,47.184c-0.021,0-0.029,0-0.051,0c-0.391,0-0.721-0.3-0.75-0.7   c-0.029-0.41,0.279-0.77,0.689-0.8s0.77,0.28,0.801,0.69C79.961,46.794,79.648,47.154,79.24,47.184z M79.01,21.304   c-0.02,0-0.039,0-0.059,0c-0.41-0.03-0.723-0.39-0.691-0.8c0.031-0.42,0.391-0.73,0.801-0.7c0.41,0.03,0.721,0.39,0.689,0.811   C79.721,21.004,79.398,21.304,79.01,21.304z M78.939,17.284c0.41,0.03,0.721,0.39,0.689,0.8c-0.029,0.4-0.359,0.7-0.75,0.7   c-0.021,0-0.029,0-0.049,0c-0.42-0.03-0.73-0.39-0.701-0.81C78.16,17.564,78.52,17.254,78.939,17.284z M76.221,47.374   c-0.01,0-0.031,0-0.041,0c-0.398,0-0.729-0.3-0.75-0.7c-0.029-0.41,0.291-0.77,0.701-0.79c0.42-0.03,0.77,0.29,0.799,0.7   C76.951,46.994,76.631,47.354,76.221,47.374z M76,21.114c-0.021,0-0.029,0-0.049,0c-0.41-0.03-0.73-0.38-0.701-0.8   c0.02-0.41,0.381-0.73,0.791-0.7c0.41,0.02,0.729,0.38,0.699,0.79C76.721,20.804,76.391,21.114,76,21.114z M75.934,17.085   c-0.002,0-0.002-0.001-0.004-0.001c0.01,0,0.01,0,0.01,0C75.938,17.084,75.936,17.085,75.934,17.085   c0.418,0.032,0.729,0.38,0.707,0.799c-0.02,0.4-0.35,0.7-0.75,0.7c-0.01,0-0.031,0-0.041,0c-0.42-0.02-0.729-0.38-0.709-0.79   C75.17,17.376,75.518,17.068,75.934,17.085z M73.201,47.524c0,0,0,0,0,0.01c-0.012,0-0.021,0-0.031,0c-0.4,0-0.74-0.32-0.76-0.72   c-0.012-0.42,0.311-0.77,0.721-0.78c0.41-0.02,0.77,0.3,0.779,0.71C73.93,47.164,73.609,47.514,73.201,47.524z M72.979,20.964   c-0.01,0-0.02,0-0.027,0c-0.41-0.02-0.73-0.37-0.723-0.79c0.021-0.41,0.371-0.73,0.791-0.71c0.41,0.02,0.73,0.37,0.709,0.78   C73.721,20.644,73.381,20.964,72.979,20.964z M72.93,16.934c0.41,0.02,0.74,0.37,0.721,0.78s-0.35,0.72-0.75,0.72   c-0.01,0-0.02,0-0.029,0c-0.42-0.02-0.74-0.37-0.721-0.78C72.17,17.244,72.52,16.914,72.93,16.934z M70.17,47.634   c-0.01,0-0.01,0-0.021,0c-0.408,0-0.738-0.32-0.75-0.72c-0.01-0.42,0.32-0.76,0.73-0.78c0.41-0.01,0.76,0.32,0.77,0.73   C70.91,47.284,70.59,47.624,70.17,47.634z M69.971,20.854c-0.01,0-0.01,0-0.02,0c-0.42-0.01-0.74-0.35-0.73-0.77   c0.01-0.41,0.35-0.74,0.771-0.73c0.408,0.02,0.738,0.36,0.729,0.77S70.371,20.854,69.971,20.854z M69.93,16.834   c0.41,0.01,0.74,0.35,0.73,0.77c-0.021,0.4-0.352,0.73-0.75,0.73c-0.012,0-0.021,0-0.021,0h-0.01c-0.41-0.02-0.74-0.36-0.73-0.77   C69.17,17.144,69.51,16.824,69.93,16.834z M67.148,47.704h-0.01c-0.41,0-0.75-0.33-0.75-0.74c-0.01-0.42,0.32-0.76,0.73-0.76   c0.42-0.01,0.76,0.32,0.77,0.74C67.891,47.354,67.561,47.694,67.148,47.704z M66.961,20.794c-0.01,0-0.01,0-0.021,0   c-0.408,0-0.738-0.34-0.729-0.76c0-0.41,0.34-0.74,0.76-0.74c0.41,0.01,0.74,0.35,0.74,0.76   C67.701,20.464,67.359,20.794,66.961,20.794z M66.92,16.774c0.41,0,0.75,0.34,0.74,0.76c-0.012,0.41-0.342,0.74-0.75,0.74h-0.012   c-0.408-0.01-0.75-0.35-0.738-0.76C66.16,17.094,66.5,16.764,66.92,16.774z M64.121,47.724c-0.02,0-0.04,0-0.06,0s-0.04,0-0.06,0   c-0.41,0-0.75-0.34-0.75-0.75c0-0.41,0.34-0.75,0.75-0.75c0.02,0,0.03,0,0.05,0c0.02,0,0.04,0,0.07,0c0.42,0,0.75,0.33,0.75,0.75   C64.871,47.384,64.541,47.724,64.121,47.724z M63.94,20.774c-0.41,0-0.75-0.33-0.75-0.75c0-0.41,0.34-0.75,0.75-0.75   c0.41,0,0.749,0.34,0.749,0.75C64.689,20.444,64.351,20.774,63.94,20.774z M63.911,16.754c0.42,0,0.75,0.33,0.75,0.75   c0,0.41-0.331,0.75-0.75,0.75c-0.41,0-0.75-0.34-0.75-0.75C63.161,17.084,63.5,16.754,63.911,16.754z M61.031,50.234   c0,0,0,0-0.01,0c0,0,0,0,0-0.01c-0.41,0-0.74-0.34-0.74-0.76c0.01-0.41,0.35-0.74,0.76-0.73c0.42,0,0.75,0.34,0.74,0.75   C61.781,49.904,61.44,50.234,61.031,50.234z M60.98,47.704c0,0,0,0-0.01,0c-0.41-0.01-0.74-0.35-0.74-0.76   c0.01-0.42,0.35-0.75,0.76-0.74c0.42,0,0.75,0.35,0.74,0.76C61.73,47.374,61.391,47.704,60.98,47.704z M60.911,16.774   c0.41-0.01,0.75,0.32,0.76,0.74c0.01,0.41-0.33,0.75-0.74,0.76c0,0,0,0-0.01,0c-0.41,0-0.75-0.33-0.75-0.74   C60.161,17.114,60.491,16.774,60.911,16.774z M60.911,19.294c0.42,0,0.76,0.33,0.76,0.74c0.01,0.42-0.32,0.76-0.74,0.76   c0,0,0,0-0.01,0c-0.41,0-0.74-0.33-0.75-0.74C60.17,19.644,60.5,19.304,60.911,19.294z M58.041,50.164c-0.01,0-0.02,0-0.02,0   c-0.42-0.01-0.74-0.35-0.73-0.77c0.01-0.41,0.36-0.74,0.77-0.73c0.41,0.02,0.74,0.36,0.73,0.77   C58.781,49.844,58.44,50.164,58.041,50.164z M57.97,47.644c-0.01,0-0.01,0-0.02,0c-0.42-0.01-0.74-0.36-0.73-0.77   c0.01-0.42,0.35-0.74,0.771-0.73c0.41,0.01,0.74,0.35,0.729,0.77C58.71,47.324,58.371,47.644,57.97,47.644z M57.9,16.834   c0.42-0.01,0.76,0.32,0.77,0.73c0.02,0.42-0.31,0.76-0.73,0.77c-0.41,0.01-0.75-0.31-0.77-0.73   C57.161,17.194,57.491,16.844,57.9,16.834z M57.891,19.364c0.41-0.01,0.76,0.31,0.77,0.729c0.01,0.41-0.32,0.76-0.73,0.771   c-0.01,0-0.01,0-0.02,0c-0.41,0-0.74-0.32-0.75-0.73C57.15,19.714,57.47,19.374,57.891,19.364z M55.041,50.064   c-0.01,0-0.02,0-0.03,0c-0.41-0.02-0.729-0.37-0.71-0.79c0.01-0.41,0.36-0.73,0.78-0.71c0.41,0.01,0.73,0.36,0.71,0.78   C55.781,49.744,55.44,50.064,55.041,50.064z M54.951,47.534c-0.01,0-0.02,0-0.03,0c-0.41-0.02-0.73-0.37-0.71-0.78   c0.01-0.41,0.36-0.73,0.78-0.72c0.41,0.02,0.729,0.37,0.72,0.78C55.69,47.224,55.351,47.534,54.951,47.534z M54.9,16.944   c0.41-0.02,0.76,0.3,0.78,0.72c0.02,0.41-0.3,0.76-0.72,0.78c-0.01,0-0.02,0-0.03,0c-0.4,0-0.73-0.31-0.75-0.72   C54.161,17.314,54.48,16.964,54.9,16.944z M54.86,19.464c0.42-0.01,0.77,0.31,0.78,0.72c0.02,0.41-0.3,0.76-0.71,0.78   c-0.01,0-0.02,0-0.03,0c-0.4,0-0.74-0.31-0.75-0.71C54.13,19.834,54.451,19.484,54.86,19.464z M52.05,49.914c-0.01,0-0.03,0-0.04,0   c-0.42-0.03-0.729-0.38-0.71-0.8c0.03-0.41,0.38-0.73,0.8-0.7c0.41,0.02,0.72,0.38,0.7,0.79   C52.781,49.604,52.451,49.914,52.05,49.914z M51.19,46.594c0.03-0.41,0.38-0.729,0.8-0.71c0.41,0.03,0.72,0.38,0.7,0.8   c-0.02,0.39-0.35,0.7-0.75,0.7c-0.01,0-0.03,0-0.04,0C51.491,47.364,51.17,47.004,51.19,46.594z M51.9,17.094   c0.41-0.02,0.76,0.3,0.79,0.71c0.02,0.41-0.3,0.771-0.71,0.79c-0.01,0-0.03,0-0.04,0c-0.4,0-0.73-0.31-0.75-0.7   C51.161,17.474,51.48,17.124,51.9,17.094z M51.84,19.624c0.41-0.03,0.77,0.29,0.79,0.7c0.02,0.41-0.29,0.77-0.7,0.79   c-0.02,0-0.03,0-0.05,0c-0.39,0-0.72-0.3-0.75-0.7C51.11,19.994,51.431,19.644,51.84,19.624z M49.061,49.714c-0.02,0-0.03,0-0.05,0   c-0.42-0.03-0.729-0.39-0.7-0.8c0.03-0.42,0.39-0.73,0.81-0.7c0.41,0.03,0.72,0.39,0.69,0.8   C49.781,49.414,49.451,49.714,49.061,49.714z M48.19,46.384c0.03-0.41,0.39-0.72,0.8-0.69c0.41,0.03,0.72,0.39,0.69,0.8   c-0.03,0.4-0.36,0.7-0.75,0.7c-0.01,0-0.03,0-0.05-0.01C48.47,47.154,48.161,46.804,48.19,46.384z M48.891,17.294   c0.41-0.03,0.78,0.28,0.81,0.69c0.03,0.42-0.28,0.78-0.7,0.81c-0.02,0-0.03,0-0.05,0c-0.39,0-0.72-0.3-0.75-0.69   C48.17,17.684,48.48,17.324,48.891,17.294z M48.82,19.814c0.41-0.03,0.77,0.28,0.8,0.7c0.03,0.41-0.28,0.77-0.69,0.8   c-0.02,0-0.04,0-0.06,0c-0.39,0-0.72-0.3-0.74-0.7C48.101,20.204,48.411,19.844,48.82,19.814z M46.081,49.474   c-0.02,0-0.05,0-0.07-0.01c-0.41-0.03-0.72-0.4-0.68-0.81c0.04-0.41,0.4-0.72,0.81-0.68c0.41,0.04,0.72,0.4,0.68,0.82   C46.791,49.174,46.46,49.474,46.081,49.474z M45.181,46.134c0.04-0.42,0.4-0.72,0.81-0.68c0.42,0.03,0.72,0.4,0.69,0.81   c-0.04,0.39-0.37,0.68-0.76,0.68c-0.02,0-0.04,0-0.06,0C45.451,46.904,45.141,46.544,45.181,46.134z M45.891,17.544   c0.42-0.04,0.78,0.27,0.82,0.68c0.04,0.41-0.27,0.77-0.68,0.81c-0.021,0-0.05,0-0.07,0c-0.38,0-0.71-0.29-0.74-0.68   C45.181,17.944,45.48,17.584,45.891,17.544z M45.8,20.064c0.41-0.04,0.78,0.27,0.82,0.68c0.03,0.41-0.27,0.77-0.69,0.81   c-0.02,0-0.04,0-0.06,0c-0.39,0-0.71-0.29-0.75-0.68C45.081,20.464,45.391,20.094,45.8,20.064z M43.09,49.184   c-0.02,0-0.05-0.01-0.08-0.01c-0.41-0.04-0.71-0.41-0.66-0.82c0.04-0.42,0.41-0.71,0.82-0.67c0.42,0.04,0.71,0.41,0.67,0.83   C43.8,48.894,43.47,49.184,43.09,49.184z M42.9,17.834c0.41-0.04,0.78,0.26,0.83,0.67c0.04,0.41-0.26,0.78-0.67,0.83   c-0.03,0-0.05,0-0.08,0c-0.38,0-0.71-0.29-0.75-0.67C42.19,18.254,42.491,17.884,42.9,17.834z M42.791,20.354   c0.41-0.04,0.78,0.26,0.82,0.67c0.05,0.41-0.25,0.78-0.66,0.83c-0.03,0-0.06,0-0.08,0c-0.38,0-0.71-0.29-0.75-0.67   C42.081,20.774,42.371,20.404,42.791,20.354z M39.911,18.184c0.41-0.05,0.79,0.24,0.84,0.65s-0.24,0.79-0.65,0.84   c-0.04,0-0.07,0-0.1,0c-0.37,0-0.69-0.27-0.74-0.65C39.21,18.614,39.5,18.234,39.911,18.184z M39.781,20.704   c0.41-0.05,0.78,0.24,0.84,0.65c0.05,0.41-0.24,0.79-0.66,0.84c-0.03,0-0.06,0.01-0.09,0.01c-0.37,0-0.7-0.28-0.74-0.66   C39.081,21.134,39.36,20.754,39.781,20.704z M36.931,18.584c0.41-0.06,0.79,0.23,0.85,0.64c0.06,0.41-0.23,0.79-0.64,0.85   c-0.03,0-0.07,0.01-0.11,0.01c-0.36,0-0.68-0.27-0.74-0.65C36.23,19.024,36.521,18.644,36.931,18.584z M36.771,21.114   c0.41-0.061,0.79,0.229,0.85,0.64s-0.22,0.79-0.63,0.85c-0.03,0-0.07,0-0.11,0c-0.36,0-0.68-0.27-0.74-0.64   C36.081,21.554,36.36,21.174,36.771,21.114z M33.951,19.054c0.41-0.07,0.8,0.2,0.86,0.61c0.07,0.41-0.2,0.8-0.61,0.87   c-0.04,0-0.09,0.01-0.13,0.01c-0.36,0-0.67-0.26-0.74-0.63C33.271,19.504,33.541,19.124,33.951,19.054z M33.781,21.584   c0.41-0.07,0.79,0.21,0.86,0.61c0.07,0.41-0.21,0.8-0.61,0.87c-0.05,0.01-0.09,0.01-0.13,0.01c-0.36,0-0.68-0.26-0.74-0.63   C33.09,22.044,33.371,21.654,33.781,21.584z M30.98,19.584c0.41-0.08,0.8,0.19,0.88,0.59c0.08,0.41-0.19,0.8-0.6,0.88   c-0.04,0.01-0.09,0.01-0.14,0.01c-0.35,0-0.66-0.25-0.73-0.61C30.311,20.054,30.581,19.654,30.98,19.584z M30.791,22.124   c0.41-0.08,0.8,0.19,0.88,0.59c0.08,0.41-0.19,0.8-0.59,0.88c-0.05,0.01-0.1,0.01-0.15,0.01c-0.35,0-0.66-0.24-0.73-0.6   C30.121,22.594,30.391,22.204,30.791,22.124z M28.031,20.184c0.4-0.09,0.8,0.17,0.89,0.57c0.09,0.41-0.17,0.81-0.57,0.89   c-0.06,0.01-0.11,0.02-0.16,0.02c-0.35,0-0.66-0.24-0.73-0.59C27.371,20.664,27.621,20.264,28.031,20.184z M27.82,22.734   c0.4-0.09,0.8,0.17,0.89,0.57c0.09,0.41-0.16,0.811-0.57,0.9c-0.05,0.01-0.11,0.01-0.16,0.01c-0.34,0-0.65-0.23-0.73-0.58   C27.161,23.224,27.411,22.824,27.82,22.734z M25.09,20.864c0.4-0.1,0.81,0.14,0.91,0.55c0.1,0.4-0.15,0.8-0.55,0.9   c-0.06,0.02-0.12,0.03-0.18,0.03c-0.34,0-0.64-0.229-0.73-0.57C24.44,21.364,24.69,20.964,25.09,20.864z M24.86,23.434   c0.4-0.1,0.81,0.14,0.91,0.54c0.1,0.41-0.14,0.82-0.54,0.92c-0.06,0.01-0.12,0.02-0.18,0.02c-0.34,0-0.64-0.23-0.73-0.56   C24.22,23.944,24.46,23.544,24.86,23.434z M22.17,21.634c0.4-0.11,0.81,0.12,0.92,0.521c0.12,0.399-0.11,0.81-0.51,0.93   c-0.07,0.02-0.14,0.03-0.21,0.03c-0.32,0-0.62-0.22-0.72-0.55C21.541,22.164,21.771,21.754,22.17,21.634z M21.931,24.244   c0.39-0.12,0.81,0.11,0.93,0.5c0.11,0.4-0.12,0.82-0.51,0.94c-0.07,0.02-0.14,0.03-0.21,0.03c-0.33,0-0.63-0.22-0.72-0.54   C21.3,24.774,21.531,24.354,21.931,24.244z M32,28.5c5.333,0,11,1.752,11,5s-5.667,5-11,5s-11-1.752-11-5S26.668,28.5,32,28.5z    M20.331,44.034c-0.1,0.32-0.4,0.52-0.71,0.52c-0.08,0-0.16-0.02-0.24-0.04c-0.39-0.13-0.6-0.55-0.48-0.95   c0.13-0.39,0.56-0.61,0.95-0.48S20.46,43.644,20.331,44.034z M19.271,22.524c0.4-0.13,0.82,0.08,0.95,0.48   c0.13,0.39-0.08,0.81-0.479,0.94c-0.07,0.03-0.15,0.04-0.23,0.04c-0.32,0-0.61-0.2-0.72-0.51   C18.67,23.074,18.88,22.654,19.271,22.524z M19.021,25.164c0.39-0.13,0.82,0.08,0.95,0.47c0.14,0.39-0.07,0.82-0.46,0.95   c-0.08,0.03-0.17,0.04-0.25,0.04c-0.31,0-0.6-0.19-0.7-0.5C18.42,25.734,18.63,25.304,19.021,25.164z M17.491,43.064   c-0.11,0.3-0.39,0.49-0.7,0.49c-0.09,0-0.18-0.02-0.27-0.06c-0.38-0.14-0.58-0.58-0.43-0.97c0.15-0.38,0.59-0.57,0.97-0.42   C17.451,42.244,17.641,42.684,17.491,43.064z M16.42,23.544c0.38-0.15,0.82,0.04,0.97,0.43c0.15,0.38-0.05,0.82-0.43,0.97   c-0.09,0.03-0.18,0.05-0.27,0.05c-0.3,0-0.59-0.18-0.7-0.48C15.84,24.124,16.031,23.694,16.42,23.544z M16.15,26.264   c0.39-0.16,0.83,0.01,0.99,0.4c0.16,0.38-0.02,0.82-0.4,0.98c-0.1,0.04-0.2,0.06-0.29,0.06c-0.3,0-0.57-0.18-0.69-0.46   C15.59,26.864,15.771,26.424,16.15,26.264z M14.72,41.944c-0.13,0.28-0.4,0.44-0.68,0.44c-0.11,0-0.22-0.03-0.32-0.07   c-0.38-0.18-0.54-0.63-0.36-1c0.17-0.38,0.62-0.54,0.99-0.36C14.73,41.124,14.891,41.574,14.72,41.944z M13.61,24.744   c0.38-0.18,0.82-0.02,1,0.36c0.18,0.37,0.02,0.82-0.36,0.99c-0.1,0.05-0.21,0.07-0.32,0.07c-0.28,0-0.55-0.15-0.68-0.43   C13.081,25.364,13.241,24.914,13.61,24.744z M13.371,27.584c0.36-0.2,0.82-0.06,1.01,0.3c0.2,0.37,0.06,0.82-0.3,1.021   c-0.12,0.06-0.24,0.09-0.36,0.09c-0.27,0-0.52-0.15-0.66-0.4C12.86,28.234,13,27.774,13.371,27.584z M12.031,40.624   c-0.14,0.24-0.39,0.37-0.65,0.37c-0.13,0-0.26-0.04-0.38-0.11c-0.35-0.21-0.47-0.67-0.26-1.03c0.21-0.35,0.67-0.47,1.03-0.26   C12.121,39.804,12.241,40.264,12.031,40.624z M10.641,36.714c0.26-0.33,0.73-0.39,1.06-0.13c0.32,0.25,0.38,0.72,0.13,1.05   c-0.15,0.19-0.37,0.29-0.6,0.29c-0.16,0-0.32-0.05-0.46-0.16C10.451,37.504,10.391,37.034,10.641,36.714z M10.9,26.174   c0.35-0.21,0.82-0.1,1.03,0.26c0.21,0.35,0.1,0.82-0.26,1.03c-0.12,0.07-0.25,0.1-0.38,0.1c-0.26,0-0.51-0.13-0.65-0.36   C10.431,26.844,10.541,26.384,10.9,26.174z M10.72,29.274c0.33-0.25,0.8-0.2,1.061,0.13c0.25,0.32,0.2,0.79-0.13,1.05   c-0.14,0.11-0.3,0.16-0.46,0.16c-0.22,0-0.44-0.1-0.59-0.29C10.34,30.004,10.4,29.534,10.72,29.274z M9.581,35.624   c-0.11,0.06-0.22,0.08-0.34,0.08c-0.271,0-0.53-0.14-0.67-0.4c-0.19-0.37-0.05-0.82,0.32-1.01c0.37-0.19,0.82-0.05,1.01,0.32v-0.01   C10.09,34.974,9.951,35.434,9.581,35.624z M9.88,32.434c-0.13,0.26-0.4,0.41-0.67,0.41c-0.12,0-0.23-0.02-0.34-0.08   c-0.37-0.18-0.52-0.63-0.33-1.01c0.19-0.37,0.64-0.51,1.01-0.33C9.92,31.614,10.07,32.064,9.88,32.434z M8.36,27.964   c0.31-0.26,0.78-0.23,1.05,0.09c0.27,0.32,0.23,0.79-0.08,1.061c-0.14,0.12-0.32,0.18-0.49,0.18c-0.21,0-0.42-0.09-0.57-0.27   C8,28.714,8.041,28.234,8.36,27.964z M7.32,36.974c-0.12,0.08-0.27,0.12-0.41,0.12c-0.24,0-0.48-0.12-0.63-0.34   c-0.22-0.35-0.12-0.81,0.22-1.04c0.35-0.22,0.82-0.13,1.04,0.22C7.771,36.284,7.67,36.744,7.32,36.974z M6.22,30.354   c0.22-0.35,0.68-0.46,1.03-0.24c0.35,0.22,0.46,0.689,0.24,1.04c-0.15,0.22-0.39,0.35-0.64,0.35c-0.14,0-0.27-0.04-0.4-0.12   C6.101,31.164,6,30.704,6.22,30.354z M5.25,33.564c0-0.022,0.011-0.042,0.013-0.064c0.034-0.379,0.339-0.687,0.727-0.696   c0.395,0,0.717,0.309,0.75,0.696c0.001,0.016,0.009,0.028,0.01,0.044c0,0.42-0.33,0.76-0.74,0.76H6   C5.59,34.304,5.26,33.974,5.25,33.564z" fill="#010101"/></g></svg>