<?xml version="1.0" encoding="utf-8"?>
<!-- Generator: Adobe Illustrator 18.1.1, SVG Export Plug-In . SVG Version: 6.00 Build 0)  -->
<svg version="1.1" id="Layer_1" xmlns:svg="http://www.w3.org/2000/svg"
	 xmlns="http://www.w3.org/2000/svg" xmlns:xlink="http://www.w3.org/1999/xlink" x="0px" y="0px" viewBox="-460 187.3 633.3 496.7"
	 enable-background="new -460 187.3 633.3 496.7" xml:space="preserve">
<g id="breadbaordbreadboard">
	<g>
		<path fill="#035CA3" d="M-460,209.3v445.3h633.4V209.3H-460z M-379.8,256.3c-11.5,0-20.8-9.3-20.8-20.8c0-11.5,9.3-20.8,20.8-20.8
			c11.5,0,20.8,9.3,20.8,20.8C-359,247-368.4,256.3-379.8,256.3z M136.7,632.4c-12.4,0-22.4-10-22.4-22.4c0-12.4,10-22.4,22.4-22.4
			c12.4,0,22.4,10,22.4,22.4C159.1,622.4,149.1,632.4,136.7,632.4z"/>
		<rect x="-460" y="550.5" fill="#036EA3" width="256.9" height="104"/>
		<rect x="-460" y="654.6" fill="#1A476C" width="633.4" height="5.8"/>
		<rect x="-313.3" y="218" fill="#D0CFCE" width="481.8" height="327.1"/>
		<rect x="-313.3" y="545" fill="#9C9B9B" width="481.8" height="10.6"/>
		<rect x="-423.2" y="585.4" fill="#B5B1AC" width="195.8" height="56.9"/>
		<rect x="-423.2" y="642.3" fill="#888581" width="195.8" height="5.2"/>
		<rect x="-245.4" y="585.4" fill="#D0CFCE" width="18.1" height="56.9"/>
		<rect x="-268.7" y="585.4" fill="#D0CFCE" width="18.1" height="56.9"/>
		<polygon fill="#D0CFCE" points="-380.5,585.4 -380.5,607.4 -357.2,607.4 -357.2,610 -408.3,610 -408.3,607.4 -390.8,607.4 
			-390.8,585.4 -423.2,585.4 -423.2,642.3 -390.8,642.3 -390.8,620.3 -408.3,620.3 -408.3,618.4 -357.2,618.4 -357.2,620.3 
			-380.5,620.3 -380.5,642.3 -281,642.3 -281,585.4 		"/>
		<g>
			<g>
				<path fill="#1A1A1A" d="M-188.1,370.8c-37.6,3.3-76.6-2-81.8-31c-2.6-14.5,4-29.7,12.5-39v-5.3c-15.8,13.9-24.4,31-19.1,51.5
					c5.9,26.4,39.6,41.6,91.1,36.3c20.5-2,46.8-8.6,65.3-18.5v-14.5C-137.3,360.9-165,368.8-188.1,370.8 M-89.1,295.5
					c-8.6-43.6-93.1-46.2-147.2-13.2v4c54.1-27.7,130.7-27.7,137.9,12.5c2.6,13.2-5.3,27.1-18.5,35v10.6
					C-101,337.1-84.5,318.6-89.1,295.5z M-123.4,343.1c-7.3-0.7-9.9-5.3-9.9-10.6v-43.6h9.9V343.1z M-240.2,343.7
					c-7.3-0.7-9.9-5.3-9.9-10.6v-28.4h9.9V343.7z M-250.1,290.3h9.9v9.2h-9.9V290.3z M-181.5,343.1c-7.9,0-11.2-5.3-11.2-11.2v-37.6
					h9.9v10.6h7.3v7.9h-7.9v19.1c0,2,1.3,3.3,3.3,3.3h4v7.9L-181.5,343.1 M-163.7,327.2c0,5.3,3.3,8.6,8.6,8.6c4.6,0,6.6-1.3,9.2-4
					l5.9,5.9c-3.9,4-7.9,5.9-15.2,5.9c-9.2,0-18.5-5.3-18.5-19.8c0-12.5,7.9-19.8,17.8-19.8c10.6,0,16.5,8.6,16.5,19.1v3.3h-24.4
					 M-155.8,312c-3.3,0-5.9,2-7.3,4c-0.6,1.3-0.6,2.6-0.6,4h15.2C-149.1,316-151.1,312-155.8,312z M-221.8,312.7v30.4h-9.9v-38.3
					h19.8c8.6,0,11.2,5.9,11.2,11.2v27.1h-9.3V316c0-2-1.3-4-4-4h-7.9L-221.8,312.7L-221.8,312.7z"/>
				<path fill="#1A1A1A" d="M-110.9,294.9c-2,0-3.9-2-3.9-4c0-2,2-4,3.9-4c2,0,3.9,2,3.9,4C-106.9,292.9-108.9,294.9-110.9,294.9
					 M-110.9,287.6c-2,0-3.3,1.3-3.3,3.3c0,2,1.3,3.3,3.3,3.3c2,0,3.3-1.3,3.3-3.3C-107.6,289-108.9,287.6-110.9,287.6z
					 M-109.5,292.9L-109.5,292.9L-109.5,292.9l-2-2l0,0l0,0l0,0v2l0,0h-0.7l0,0V289v-0.7c0,0,0.7,0,1.3,0c1.3,0,2,0.7,2,1.3l0,0
					c0,0.7-0.7,1.3-0.7,1.3L-109.5,292.9C-108.9,292.9-108.9,292.9-109.5,292.9C-108.9,292.9-108.9,292.9-109.5,292.9z
					 M-110.2,289.6C-110.2,289-110.2,289-110.2,289.6c-0.7-0.6-0.7-0.6-1.3-0.6l0,0v1.3L-110.2,289.6
					C-110.2,290.3-110.2,290.3-110.2,289.6L-110.2,289.6z"/>
				<path fill="#1A1A1A" d="M-62,319.3v19.8h26.4v4h-31v-50.8h31v3.9H-62v19.1h22.4v4L-62,319.3 M-15.2,305.4c2.6,0,5.3,0.7,7.9,2
					c2,1.3,3.9,2.7,5.3,5.3v-21.8h4.6v52.8h-2c-1.3,0-2-0.7-2-2v-4.6c-1.3,2.6-2.6,4-5.3,5.9c-2,1.3-5.3,2-8.6,2
					c-2.6,0-4.6-0.7-6.6-1.3c-2-0.7-4-2-5.3-4c-1.3-1.3-2.6-4-3.3-6c-0.7-2.6-1.3-5.3-1.3-7.9c0-3.3,0.7-5.9,1.3-7.9
					c0.7-2.7,2-4.6,3.3-6c1.3-1.3,3.3-2.7,5.3-4C-19.8,306.1-17.1,305.4-15.2,305.4z M-2,324.6c0-4.6-1.3-8.6-3.3-11.2
					c-2-2.6-5.3-4-9.2-4s-7.3,1.3-9.2,4c-2,2.6-3.3,6.6-3.3,11.2c0,4.6,1.3,8.6,3.3,11.2c2,2.6,5.3,4,9.2,4c4,0,7.3-1.3,9.2-4
					C-3.3,333.2-2,329.2-2,324.6z M11.9,292.2h5.3v5.9h-5.3V292.2z M12.6,306.7h4.6v36.3h-4.6V306.7z M38.3,309.4
					c-2.6,0-4.6,0.7-6.6,1.3c-1.3,0.7-2.6,2.6-2.6,4.6c0,1.3,0.7,2.6,1.3,4c0.7,0.7,2,1.3,4,2l7.3,2c2.6,0.7,5.3,2,6.6,3.3
					c1.3,1.3,2,3.3,2,5.9c0,3.3-1.3,6-3.3,7.9c-2.6,2-5.3,3.3-9.9,3.3c-2.7,0-5.9-0.7-7.9-1.3c-2.7-0.7-4.6-2-5.9-3.3l2-3.3
					c1.3,1.3,3.3,2,5.3,2.7c2,0.7,4,1.3,6.6,1.3c2.6,0,5.3-0.7,6.6-2c1.3-1.3,2.6-2.7,2.6-5.3c0-1.3-0.7-2.6-1.3-4c-0.7-0.7-2-2-4-2
					l-7.2-1.3c-2.6-0.7-4.6-2-6.6-3.3c-1.3-1.3-2-3.3-2-5.9c0-1.3,0.7-3.3,1.3-4.6c0.7-1.3,1.3-2,2.6-3.3c1.3-0.7,2.6-1.3,3.9-2
					c1.3-0.7,3.3-0.7,5.3-0.7c2,0,4,0,6.6,0.7c2,0.7,4,1.3,5.3,2.7l-2,3.3c-1.3-0.7-2.6-1.3-4.6-2C42.3,310.1,40.3,309.4,38.3,309.4
					z M73.9,344.4c-2.6,0-5.3-0.7-7.2-1.3c-2-0.7-4-2-5.3-4c-1.3-2-2.6-4-3.3-5.9c-0.7-2.7-1.3-5.3-1.3-7.9c0-2.6,0.7-5.3,1.3-7.9
					c0.7-2.6,2-4.6,3.3-5.9c1.3-1.3,3.3-2.6,5.3-4c2-0.7,4.6-1.3,7.2-1.3c2.7,0,5.3,0.7,7.3,1.3c2,0.7,4,2,5.3,4
					c1.3,1.3,2.6,4,3.3,5.9c0.7,2.7,1.3,5.3,1.3,7.9c0,2.7-0.7,5.3-1.3,7.9c-0.7,2.6-2,4.6-3.3,5.9c-1.3,2-3.3,2.6-5.3,4
					C79.2,343.7,76.6,344.4,73.9,344.4z M60.7,325.2c0,4.6,1.3,8.6,3.3,11.2c2,2.6,5.3,4,9.2,4c3.9,0,7.2-1.3,9.2-4
					c2-2.6,3.3-6.6,3.3-11.2c0-4.6-1.3-8.6-3.3-11.2c-2-2.6-5.3-3.9-9.2-3.9c-4,0-7.3,1.3-9.2,3.9C62.1,316,60.7,320,60.7,325.2z
					 M99.7,306.7h2c1.3,0,2,0.7,2,2v4.6c1.3-2.6,2.6-4.6,5.3-5.9c2-1.3,5.3-2,7.9-2c3.9,0,7.3,1.3,9.9,3.3c2,2.7,3.3,6,3.3,10.6
					v23.8h-4.6v-22.5c0-3.9-0.7-6.6-2-7.9c-1.3-2-4-2.6-7.3-2.6c-4,0-7.3,1.3-9.2,4c-2,2.6-3.3,6.6-3.3,11.2v17.8h-4L99.7,306.7
					L99.7,306.7z"/>
			</g>
			<text transform="matrix(1 0 0 1 -275.8799 513.967)" font-family="'ArialMT'" font-size="39.6017">What will you make?</text>
		</g>
		<rect x="-421.9" y="444.2" fill="#F7BD13" width="5.2" height="18.1"/>
		<rect x="-421.9" y="444.2" fill="#FCE5A1" width="5.2" height="0.7"/>
		<rect x="-421.9" y="463" fill="#B98E0E" width="5.2" height="0.7"/>
		<rect x="-404.4" y="490.8" fill="#B98E0E" width="40" height="0.7"/>
		<rect x="-404.4" y="485.6" fill="#F7BD13" width="40" height="5.8"/>
		<rect x="-418.6" y="418.4" fill="#E6E6E6" width="68.5" height="68.5"/>
		<polygon opacity="0.22" fill="#1D1D1B" enable-background="new    " points="-350.8,419 -350.8,485.6 -418,485.6 -418.6,486.2 
			-350.1,486.2 -350.1,418.4 		"/>
		<polygon opacity="0.42" fill="#FFFFFF" enable-background="new    " points="-418,485.6 -418,419 -350.8,419 -350.1,417.7 
			-418.6,417.7 -418.6,486.9 		"/>
		<polygon fill="#B3B3B3" points="-418.6,486.2 -418.6,488.8 -404.4,488.8 -404.4,487.5 -364.3,487.5 -364.3,488.8 -350.1,488.8 
			-350.1,486.2 		"/>
		<rect x="-404.4" y="487.5" fill="#B98E0E" width="40" height="0.7"/>
		<rect x="-365.6" y="444.2" fill="#F7BD13" width="19.4" height="18.1"/>
		<rect x="-365.6" y="444.2" fill="#FCE5A1" width="19.4" height="0.7"/>
		<rect x="-365.6" y="444.2" opacity="0.22" fill="#1D1D1B" enable-background="new    " width="14.9" height="0.7"/>
		<rect x="-350.1" y="463" fill="#B98E0E" width="3.2" height="0.7"/>
		<circle fill="#FAD771" cx="-384.4" cy="452.6" r="23.9"/>
		<circle fill="#FEE98C" cx="-384.4" cy="452.6" r="23.9"/>
		<circle fill="#ECB74D" cx="-384.4" cy="452.6" r="23.3"/>
		<path fill="#DB7D00" d="M-407.6,453.3c0-12.9,10.3-23.3,23.3-23.3c13,0,23.3,10.3,23.3,23.3v-0.6c0-12.9-10.3-23.3-23.3-23.3
			c-12.9,0-23.3,10.3-23.3,23.3V453.3z"/>
		<circle fill="#FEE068" cx="-384.4" cy="452.6" r="7.1"/>
		<rect x="-390.8" y="446.2" fill="#FEE068" width="13.6" height="6.5"/>
		<circle fill="#ECC847" cx="-384.4" cy="446.8" r="7.1"/>
		<path fill="#FBC91A" d="M-384.4,441c2.5,0,4.5,2,4.5,4.5c0,2.5-2,4.5-4.5,4.5c-2.5,0-4.5-2-4.5-4.5
			C-388.9,443-386.9,441-384.4,441z"/>
		<path opacity="0.16" fill="#1D1D1B" enable-background="new    " d="M-384.4,450c2.6,0,4.5-1.9,4.5-4.5l2.6,1.3
			c0,3.9-3.2,7.1-7.1,7.1V450L-384.4,450z"/>
		<path opacity="0.27" fill="#1D1D1B" enable-background="new    " d="M-384.4,459.1c3.9,0,7.1-3.2,7.1-7.1v-5.2
			c0,3.9-3.2,7.1-7.1,7.1V459.1z"/>
		<path opacity="0.25" fill="#FFFFFF" enable-background="new    " d="M-384.4,440.3c-4.5,0-7.1,3.2-7.1,7.1c0,3.2,7.1,0,7.1,0
			S-384.4,442.3-384.4,440.3z"/>
		<path fill="#E8A00E" d="M-408.3,446.8c0,12.9,11,23.9,23.9,23.9c13,0,23.9-11,23.9-23.9v5.2c0,12.9-11,23.9-23.9,23.9
			c-12.9,0-23.9-11-23.9-23.9V446.8z"/>
		<path fill="#E8A00E" d="M-407,446.8c0-12.9,10.3-23.3,23.3-23.3c12.9,0,23.3,10.3,23.3,23.3v5.2c0-12.9-10.3-23.3-23.3-23.3
			c-12.9,0-23.3,10.3-23.3,23.3V446.8z"/>
		<path fill="#FEE068" d="M-384.4,422.9c-12.9,0-23.9,11-23.9,23.9s11,23.9,23.9,23.9c13,0,23.9-11,23.9-23.9
			C-360.5,433.9-370.8,422.9-384.4,422.9z M-384.4,470.1c-12.9,0-23.3-10.4-23.3-23.3c0-12.9,10.3-23.3,23.3-23.3
			c13,0,23.3,10.4,23.3,23.3C-361.1,459.7-371.4,470.1-384.4,470.1z"/>
		<path opacity="0.49" fill="#FFFFFF" enable-background="new    " d="M-407,446.8c0-12.9,10.3-23.3,23.3-23.3
			c12.9,0,23.3,10.3,23.3,23.3v0.7c0-12.9-10.3-23.3-23.3-23.3C-396.7,424.2-407,434.5-407,446.8L-407,446.8z"/>
		<path opacity="0.12" enable-background="new    " d="M-360.5,447.4c0,12.9-11,23.9-23.9,23.9c-12.9,0-23.9-11-23.9-23.9v-0.7
			c0,12.9,11,23.9,23.9,23.9C-371.4,470.7-360.5,460.4-360.5,447.4L-360.5,447.4z"/>
		<path opacity="0.12" enable-background="new    " d="M-359.8,453.3c0,13.6-11,24.6-24.5,24.6c-13.6,0-24.5-11-24.5-24.6v-0.6
			c0,13.6,11,24.6,24.5,24.6C-370.8,477.2-359.8,466.2-359.8,453.3L-359.8,453.3z"/>
		<path fill="#F7BD13" d="M136.7,577.7c-17.9,0-32.3,14.4-32.3,32.3c0,17.9,14.5,32.3,32.3,32.3c17.8,0,32.3-14.5,32.3-32.3
			C169,592.1,154.6,577.7,136.7,577.7z M136.7,632.4c-12.4,0-22.4-10-22.4-22.4c0-12.4,10-22.4,22.4-22.4c12.4,0,22.4,10,22.4,22.4
			C159.1,622.4,149.1,632.4,136.7,632.4z"/>
		<path fill="#F7BD13" d="M-363.9,210c-0.4-0.3-1.2-0.7-1.2-0.7l-29.6,0c-9.1,5.2-15.3,15-15.3,26.2c0,16.6,13.5,30,30.1,30
			c16.6,0,30-13.5,30-30C-349.8,224.7-355.4,215.3-363.9,210z M-379.8,256.3c-11.5,0-20.8-9.3-20.8-20.8c0-11.5,9.3-20.8,20.8-20.8
			c11.5,0,20.8,9.3,20.8,20.8C-359,247-368.4,256.3-379.8,256.3z"/>
	</g>
	<g>
		<rect id="connector1pad" x="-460" y="187.3" fill="#CCCCCC" width="9.2" height="22"/>
		<rect id="connector3pad" x="-441.7" y="187.3" fill="#CCCCCC" width="9.2" height="22"/>
		<rect id="connector5pad" x="-423.3" y="187.3" fill="#CCCCCC" width="9.2" height="22"/>
		<rect id="connector7pad" x="-404.9" y="187.3" fill="#CCCCCC" width="9.2" height="22"/>
		<rect id="connector9pad" x="-386.6" y="187.3" fill="#CCCCCC" width="9.2" height="22"/>
		<rect id="connector11pad" x="-368.2" y="187.3" fill="#CCCCCC" width="9.2" height="22"/>
		<rect id="connector13pad" x="-349.9" y="187.3" fill="#CCCCCC" width="9.2" height="22"/>
		<rect id="connector15pad" x="-331.5" y="187.3" fill="#CCCCCC" width="9.1" height="22"/>
		<rect id="connector17pad" x="-313.2" y="187.3" fill="#CCCCCC" width="9.1" height="22"/>
		<rect id="connector19pad" x="-294.8" y="187.3" fill="#CCCCCC" width="9.2" height="22"/>
		<rect id="connector21pad" x="-276.5" y="187.3" fill="#CCCCCC" width="9.2" height="22"/>
		<rect id="connector23pad" x="-258.1" y="187.3" fill="#CCCCCC" width="9.2" height="22"/>
		<rect id="connector25pad" x="-239.8" y="187.3" fill="#CCCCCC" width="9.2" height="22"/>
		<rect id="connector27pad" x="-221.5" y="187.3" fill="#CCCCCC" width="9.2" height="22"/>
		<rect id="connector29pad" x="-203.1" y="187.3" fill="#CCCCCC" width="9.2" height="22"/>
		<rect id="connector31pad" x="-184.8" y="187.3" fill="#CCCCCC" width="9.2" height="22"/>
		<rect id="connector33pad" x="-166.4" y="187.3" fill="#CCCCCC" width="9.2" height="22"/>
		<rect id="connector35pad" x="-148" y="187.3" fill="#CCCCCC" width="9.2" height="22"/>
		<rect id="connector37pad" x="-129.7" y="187.3" fill="#CCCCCC" width="9.2" height="22"/>
		<rect id="connector39pad" x="-111.4" y="187.3" fill="#CCCCCC" width="9.2" height="22"/>
		<rect id="connector41pad" x="-93" y="187.3" fill="#CCCCCC" width="9.2" height="22"/>
		<rect id="connector43pad" x="-74.6" y="187.3" fill="#CCCCCC" width="9.2" height="22"/>
		<rect id="connector45pad" x="-56.3" y="187.3" fill="#CCCCCC" width="9.1" height="22"/>
		<rect id="connector47pad" x="-37.9" y="187.3" fill="#CCCCCC" width="9.2" height="22"/>
		<rect id="connector49pad" x="-19.6" y="187.3" fill="#CCCCCC" width="9.2" height="22"/>
		<rect id="connector51pad" x="-1.2" y="187.3" fill="#CCCCCC" width="9.2" height="22"/>
		<rect id="connector53pad" x="17.1" y="187.3" fill="#CCCCCC" width="9.1" height="22"/>
		<rect id="connector55pad" x="35.5" y="187.3" fill="#CCCCCC" width="9.2" height="22"/>
		<rect id="connector57pad" x="53.8" y="187.3" fill="#CCCCCC" width="9.2" height="22"/>
		<rect id="connector59pad" x="72.1" y="187.3" fill="#CCCCCC" width="9.2" height="22"/>
		<rect id="connector61pad" x="90.5" y="187.3" fill="#CCCCCC" width="9.2" height="22"/>
		<rect id="connector63pad" x="108.8" y="187.3" fill="#CCCCCC" width="9.2" height="22"/>
		<rect id="connector65pad" x="127.2" y="187.3" fill="#CCCCCC" width="9.2" height="22"/>
		<rect id="connector67pad" x="145.5" y="187.3" fill="#CCCCCC" width="9.2" height="22"/>
		<rect id="connector69pad" x="163.9" y="187.3" fill="#CCCCCC" width="9.2" height="22"/>
		<rect id="connector0pad" x="-460" y="660.1" fill="#CCCCCC" width="9.2" height="22"/>
		<rect id="connector2pad" x="-441.6" y="660.1" fill="#CCCCCC" width="9.2" height="22"/>
		<rect id="connector4pad" x="-423.3" y="660.1" fill="#CCCCCC" width="9.2" height="22"/>
		<rect id="connector6pad" x="-404.9" y="660.1" fill="#CCCCCC" width="9.2" height="22"/>
		<rect id="connector8pad" x="-386.6" y="660.1" fill="#CCCCCC" width="9.2" height="22"/>
		<rect id="connector10pad" x="-368.2" y="660.1" fill="#CCCCCC" width="9.2" height="22"/>
		<rect id="connector12pad" x="-349.9" y="660.1" fill="#CCCCCC" width="9.2" height="22"/>
		<rect id="connector14pad" x="-331.5" y="660.1" fill="#CCCCCC" width="9.1" height="22"/>
		<rect id="connector16pad" x="-313.2" y="660.1" fill="#CCCCCC" width="9.1" height="22"/>
		<rect id="connector18pad" x="-294.8" y="660.1" fill="#CCCCCC" width="9.2" height="22"/>
		<rect id="connector20pad" x="-276.5" y="660.1" fill="#CCCCCC" width="9.2" height="22"/>
		<rect id="connector22pad" x="-258.1" y="660.1" fill="#CCCCCC" width="9.2" height="22"/>
		<rect id="connector24pad" x="-239.8" y="660.1" fill="#CCCCCC" width="9.2" height="22"/>
		<rect id="connector26pad" x="-221.5" y="660.1" fill="#CCCCCC" width="9.2" height="22"/>
		<rect id="connector28pad" x="-203.1" y="660.1" fill="#CCCCCC" width="9.2" height="22"/>
		<rect id="connector30pad" x="-184.8" y="660.1" fill="#CCCCCC" width="9.2" height="22"/>
		<rect id="connector32pad" x="-166.4" y="660.1" fill="#CCCCCC" width="9.2" height="22"/>
		<rect id="connector34pad" x="-148" y="660.1" fill="#CCCCCC" width="9.2" height="22"/>
		<rect id="connector36pad" x="-129.7" y="660.1" fill="#CCCCCC" width="9.2" height="22"/>
		<rect id="connector38pad" x="-111.4" y="660.1" fill="#CCCCCC" width="9.2" height="22"/>
		<rect id="connector40pad" x="-93" y="660.1" fill="#CCCCCC" width="9.2" height="22"/>
		<rect id="connector42pad" x="-74.6" y="660.1" fill="#CCCCCC" width="9.2" height="22"/>
		<rect id="connector44pad" x="-56.3" y="660.1" fill="#CCCCCC" width="9.1" height="22"/>
		<rect id="connector46pad" x="-37.9" y="660.1" fill="#CCCCCC" width="9.2" height="22"/>
		<rect id="connector48pad" x="-19.6" y="660.1" fill="#CCCCCC" width="9.2" height="22"/>
		<rect id="connector50pad" x="-1.2" y="660.1" fill="#CCCCCC" width="9.2" height="22"/>
		<rect id="connector52pad" x="17.1" y="660.1" fill="#CCCCCC" width="9.1" height="22"/>
		<rect id="connector54pad" x="35.5" y="660.1" fill="#CCCCCC" width="9.2" height="22"/>
		<rect id="connector56pad" x="53.8" y="660.1" fill="#CCCCCC" width="9.2" height="22"/>
		<rect id="connector58pad" x="72.2" y="660.1" fill="#CCCCCC" width="9.2" height="22"/>
		<rect id="connector60pad" x="90.5" y="660.1" fill="#CCCCCC" width="9.2" height="22"/>
		<rect id="connector62pad" x="108.9" y="660.1" fill="#CCCCCC" width="9.2" height="22"/>
		<rect id="connector64pad" x="127.2" y="660.1" fill="#CCCCCC" width="9.2" height="22"/>
		<rect id="connector66pad" x="145.5" y="660.1" fill="#CCCCCC" width="9.2" height="22"/>
		<rect id="connector68pad" x="163.9" y="660.1" fill="#CCCCCC" width="9.2" height="22"/>
	</g>
</g>
</svg>
