<?xml version="1.0" encoding="utf-8"?>
<!-- Generator: Adobe Illustrator 18.1.1, SVG Export Plug-In . SVG Version: 6.00 Build 0)  -->
<!DOCTYPE svg PUBLIC "-//W3C//DTD SVG 1.1//EN" "http://www.w3.org/Graphics/SVG/1.1/DTD/svg11.dtd">
<svg version="1.1" id="Layer_1" xmlns="http://www.w3.org/2000/svg" xmlns:xlink="http://www.w3.org/1999/xlink" x="0px" y="0px"
	 viewBox="56 146 500 500" enable-background="new 56 146 500 500" xml:space="preserve">
<g>
	<path fill="#304630" d="M106,493.1c0-62.9,0-126,0-188.7c0.9,0,1.1-0.7,1.1-1.6c0.5-3.7,0.7-7.4,1.1-11.1c0.7-6.7,2.6-12.9,7.4-18
		c6-6.3,13.9-8.3,21.9-8.7c7.8-0.5,15.7-0.5,23.5-0.7c11.5,0,23.3,0.2,34.8,0.5c88.4,0.2,176.7,0.2,265.3,0.2c5.8,0,11.3,0.2,17,1.1
		c6.5,0.9,12.4,3.2,17,8.1c0.5,0.5,1.6,0.9,1.1,2.1c-0.2,0.9-1.4,0.9-2.1,1.1c-2.6,0.2-5.1,0.2-7.8,0.2c-95.5,0-191.3,0.2-286.8-0.2
		c-12.2,0-21.7,8.5-21,21c0.7,9.4,0.2,18.9,0.2,28.6c0,53.1,0,105.9,0,158.9c0,3-0.2,6,1.4,8.7c3.9,7.2,9.7,11.3,18.2,11.3
		c98.8,0,197.7,0,296.4,0c1.8,0,3.5,0,5.1-0.9c1.8-0.9,2.3,0,1.8,1.6c-1.8,8.7-6.7,15-14.8,18.9c-6.9,3.5-14.5,3.5-21.9,3.5
		c-103.8,0.2-207.4,0-311.2,0.2c-7.6,0-15-0.2-22.6-1.1c-10-1.4-16.8-6.7-21.3-15.5c-2.6-5.5-2.6-11.5-3.5-17.3
		C107.1,494.3,107.6,493.1,106,493.1z M138,325.9c2.3,1.4,6.3,1.1,7.8-0.9c1.4-0.7,2.3-2.3,3.5-3.2c1.8-0.5,1.6-1.8,1.6-3
		c0-2.8,0-5.3,0-8.1c0-4.1-0.9-5.1-5.1-5.1c-6.3,0-12.4,0-18.9,0c-1.1,0-2.3,0-3.2,0.5c-1.6,0.7-1.8,2.3-0.7,3.5
		c0.9,0.7,1.8,1.1,3,1.1c3.5,0.2,3.9,0.7,3.9,4.1c0,1.4,0,2.8,0,4.1c0,1.1,0.2,2.6,1.6,2.8c0.7,0.7,1.1,1.4,1.8,2.1
		c0.2,2.1,1.6,2.6,3.5,2.1C137.6,325.9,137.8,325.9,138,325.9z M140.3,352.4L140.3,352.4c2.3,0,4.6,0,6.9,0c1.8-0.2,3.7-0.9,3.7-3
		s-1.8-2.8-3.7-2.8c-2.6,0-5.1,0-7.4,0c-1.8,0-3.7,0.2-4.1-2.6c-0.5-4.8,0.2-6.5,3.2-7.4c2.8-0.9,5.5,0.5,8.5-0.2
		c2.1-0.5,3.5-1.1,3.5-3.2c0-2.3-1.8-2.8-3.7-2.8c-3-0.2-6-0.2-9,0c-4.1,0.2-8.5,4.6-8.7,8.5c-0.2,2.8,0,5.7,0,8.5
		c0,2.8,2.1,4.6,4.8,4.8C136.4,352.4,138.5,352.4,140.3,352.4z M136.6,504.7c3.7,0,7.2,0,10.9,0c1.8,0,3-0.9,3.2-2.8
		c0.2-2.1-1.1-2.8-2.8-3c-1.7-0.2-3.2-0.2-4.8-0.2c-2.3,0.2-3.7-0.5-3.5-3.2c0.2-2.1-0.5-4.1-2.8-4.4c-2.3-0.2-3.2,1.6-3.2,3.9
		c0,0.5-0.2,0.9-0.2,1.4c0,1.8-0.7,2.8-2.6,2.6c-1.8-0.2-3.5-0.7-3.2-3c0.2-3,0-6,0-8.7c0-1.8-0.5-3.5-2.8-3.5s-3.2,1.4-3.2,3.5
		c0,4.1,0,8.5,0,12.7c0,3,1.4,4.6,4.6,4.6C129.7,504.9,133.2,504.9,136.6,504.7z M142.6,279.3L142.6,279.3c-3,0-6,0-8.7,0
		c-2.1,0-3.9,0.9-4.1,3.2c-0.2,1.6,2.1,3.2,4.4,3.5c1.8,0,3.7,0,5.5,0c5.5,0,5.5,0,5.5,5.5c0,2.8-1.4,3.7-3.7,3.7s-4.6,0-6.9,0
		c-2.8,0-4.6,1.4-4.8,3.2c0,1.6,2.1,3,4.8,3c2.6,0,5.1,0,7.4,0c6.5,0,10.4-4.6,9.7-11.1c-0.2-0.9-0.7-2.3,0.7-2.6
		c1.1-0.2,1.1,1.4,1.1,2.1c0.2,2.3,1.4,3.5,3.9,3c2.3-0.2,2.6-2.1,2.8-3.7c0.7-4.6-4.4-10.2-9.2-10.4
		C147.9,279,145.2,279.3,142.6,279.3z M151.6,441.2c0-1.6,0-2.8,0-4.1c0-3.7-0.5-4.4-4.1-4.8c-3.9-0.7-7.6,0.5-11.5,0
		s-8.1-0.5-12.2,0.2c-1.1,0.2-2.1,0.7-2.1,1.8c-0.2,1.1,0,2.3,0.9,3.2c0.9,0.9,2.1,0.9,3,0.9c3.7,0.7,3.9,0.9,3.2,4.8
		c-0.7,3.9,3.5,10.4,7.6,10.9c4.6,0.5,9.2,0.7,12.7-3.7C152.1,447.5,151.4,444.2,151.6,441.2z M151.6,467.5c0-2.1,0-3.5,0-4.6
		c-0.2-3.7-1.4-4.8-5.3-4.8c-2.3,0-4.4,0.2-6.7,0c-3.9-0.5-6.7,1.4-9,4.4c-2.6,3.5-1.8,7.2-0.9,10.9c0.2,1.1,1.4,2.3,2.8,2.3
		c1.6,0,2.1-1.4,2.6-2.6c0.7-1.8,0.2-3.7,0.5-5.5c0-0.9,0-2.3,1.1-2.1c1.4,0,0.9,1.4,0.9,2.3c-0.5,3.9,0.2,7.4,3.7,10
		c2.8,2.1,3.7,2.3,6.5,0C151.4,474.7,152.1,471,151.6,467.5z M151.6,417.7c0-0.2,0-0.5,0-0.5c0-6.3-0.2-6.3-6.3-5.1
		c-0.9,0.2-1.4-0.2-1.6-1.1c-0.2-1.1,0.2-2.8-1.1-3.5c-1.4-0.5-2.6-0.9-3.9-0.9c-3.7,0-9,4.1-9.7,7.8c-1.1,5.8,1.6,12,6,13.9
		C143.3,431.8,153,426.2,151.6,417.7z M136.6,364.4c0.7,0.7,0.7,1.6,0.5,2.3c-0.7,4.8,2.1,7.8,5.8,10.6c0.7,0.5,1.4,0.5,2.1,0.5
		c3-0.7,6.7-5.1,6.7-8.1c0-3.2,0-6.5,0-9.7c0-2.6-1.4-3.7-3.7-3.9c-2.8,0-5.8,0.2-8.5,0c-8.3-0.7-12.9,9.2-9.4,16.1
		c0.7,1.1,1.6,1.8,2.8,1.6c1.4,0,1.8-0.9,2.6-1.8c0.7-1.6,0.2-3.2,0.5-4.8C135.7,366,135.2,364.8,136.6,364.4z M165.9,425.3
		c-2.1,0.5-4.4,0.2-5.3,3s-0.9,5.1,1.8,6.7c1.8,1.1,0.5,2.1-0.5,2.8c-1.8,1.6-2.3,3.5-1.4,5.7s2.8,2.8,4.8,2.8
		c2.3-0.2,3.9-1.4,4.6-3.5c0.7-1.8,0-3.5-1.4-4.8c-0.7-0.5-2.1-1.1-1.1-2.3c2.6-3,0.9-3.7-1.8-4.1c-0.7,0-1.1-0.5-1.1-1.1
		s0.5-1.1,1.1-1.1c0.9-0.2,1.8-0.5,2.8-0.7c0.7-0.2,0.9-0.7,0.9-1.6c0-0.7-0.5-1.1-0.9-1.1C167.3,425.5,166.6,425.5,165.9,425.3z
		 M163.7,470.1c-3.7,0-4.6,0.5-6.5,2.8c-2.1,2.6-1.1,6.9,1.6,7.6c3,0.7,6,0.9,9,0.2c1.8-0.5,3-1.6,3-3.7
		C170.8,472.1,168.5,470.1,163.7,470.1z M163.4,492.5c6.9,0,8.1-0.9,7.6-7.4c0-1.4-0.5-2.6-2.1-2.8c-1.6-0.2-2.8,0.2-3.2,2.1
		c-0.5,2.1-1.8,1.8-3.5,1.1c-1.1-0.5-1.6-1.4-2.3-2.3c-0.5-0.9-1.4-1.1-2.3-1.1c-1.1,0.2-1.4,0.9-1.6,1.8c-1.6,5.5,0.5,8.3,6.3,8.3
		C162.7,492.5,163.1,492.5,163.4,492.5z M129.7,390.5L129.7,390.5c0,0.7,0,1.4,0,2.3c-0.5,4.4,1.6,7.6,5.3,9.2
		c3.9,1.8,8.3,2.1,12.2-0.7c2.1-1.6,3.9-3.7,3.9-6.7c0-2.8-0.2-5.5-0.2-8.5c0-1.8-0.5-3.7-2.8-3.5c-2.3,0.2-2.8,1.8-2.8,3.7
		c0,2.6,0,5.1,0,7.4c0,1.4-0.5,2.3-1.6,3c-2.1,1.1-4.1,1.1-6.3,0.2c-1.8-0.9-2.3-2.6-2.3-4.6c0-2.3,0-4.4,0-6.7c0-1.6-0.7-3-2.8-3.2
		c-2.1-0.2-2.6,1.4-2.8,3C129.7,387,129.7,388.9,129.7,390.5z M163.1,503.5c7.6,0,8.1-0.5,8.1-6.5c0-1.8-0.7-3.5-2.6-3.7
		c-2.1,0-2.8,1.4-2.8,3.2c0,2.1-0.9,2.8-2.8,2.6c-1.4,0-2.6,0-3.9,0c-1.1,0.2-2.6,0.7-2.6,2.1c0,1.6,1.4,1.8,2.6,1.8
		C160.7,503.8,161.8,503.5,163.1,503.5z M164.1,370.9c-2.6,0-4.4,2.3-4.4,5.1c0,2.6,3.5,5.1,6.5,4.8c1.8,0,4.6-3.2,4.6-5.3
		C170.8,373.9,166.4,370.6,164.1,370.9z M165.3,406.6c3,0,5.1-2.1,5.1-4.8c0-2.6-2.6-4.8-5.1-4.8c-2.8,0-5.3,2.3-5.3,5.1
		C160.2,404.8,162,406.4,165.3,406.6z M164.1,458.1c0.2,0,1.1,0,2.1-0.2c2.1-0.5,3.5-1.8,4.1-3.7c0.5-1.4,0.2-2.8-0.9-3.9
		c-0.7-0.7-1.6-1.4-2.8-0.9c-1.1,0.5-0.9,1.4-0.7,2.3c0.2,0.9,0,1.8-0.9,2.3c-1.4,0.5-2.8,0.2-3.9-0.5c-1.1-0.7-0.5-1.4,0-2.1
		c0.5-0.9,0.5-1.6-0.2-2.3c-0.9-0.9-1.6-0.2-2.6,0.2c-0.9,0.5-1.4,1.4-1.4,2.6C156.3,455.7,158.8,458.1,164.1,458.1z M166.2,389.6
		c-0.5,0-1.6,0.2-3,0.5c-1.4,0.2-2.8,0-4.1,0.2c-1.6,0.2-2.8,1.1-2.3,3c0.5,1.8,1.8,1.8,3.2,1.4c2.3-0.5,4.4-0.7,6.7-0.2
		c1.8,0.5,3.9,0.2,3.9-2.6C170.8,389.8,168.9,389.6,166.2,389.6z M170.3,384c0-1.4-1.4-2.3-3.2-1.8c-1.8,0.5-3.9,0.5-5.8,0.5
		c-1.1,0-2.3,0.2-3.2,0.7c-1.1,0.5-1.6,1.4-1.4,2.8c0.5,1.4,1.6,1.4,2.8,1.1c2.6-0.7,4.8-0.9,7.4,0C168.7,387.4,170.3,387,170.3,384
		z M165.3,369.3c0.5,0,1.1,0,1.6,0c1.1,0,2.3-0.5,2.6-1.6c0.2-1.4-0.9-1.6-1.8-2.1c-1.6-0.7-3-1.8-4.1-3.2c-0.7-0.7-1.4-1.1-2.6-0.7
		c-1.1,0.5-1.1,1.4-1.1,2.3C160.2,368.1,161.3,369.3,165.3,369.3z M165,416.1c0.5,0,0.7,0,1.1,0c1.1,0,2.3-0.2,2.6-1.6
		c0.2-1.4-0.9-1.6-2.1-1.8c-1.4-0.2-2.3-0.9-3-2.1c-0.5-0.7-1.1-1.1-2.1-0.9c-0.7,0.2-0.9,0.9-1.1,1.8
		C160.2,414.2,161.8,416.1,165,416.1z M162,423c1.8,0,6-1.4,6.7-2.3c0.7-0.9,0.9-1.8,0-2.8c-0.7-0.7-1.4-0.7-2.3,0
		c-1.1,0.9-2.3,0.9-3.5,0.2c-1.1-0.7-2.3,0-3.2,0.9c-0.7,0.7-0.9,1.4-0.7,2.3C159.7,422.3,160.9,422.7,162,423z"/>
	<path fill="#9AA49A" d="M106,493.1c1.6,0,1.1,1.1,1.4,1.8c0.9,5.8,0.7,11.8,3.5,17.3c4.4,9,11.3,14.3,21.3,15.5
		c7.4,0.9,15,1.1,22.6,1.1c103.8,0,207.4,0,311.2-0.2c7.4,0,15,0,21.9-3.5c7.8-3.9,12.9-10.2,14.8-18.9c0.2-1.6,0-2.6-1.8-1.6
		c-1.6,0.9-3.2,0.9-5.1,0.9c-98.8,0-197.7,0-296.4,0c-8.5,0-14.3-3.9-18.2-11.3c-1.4-2.8-1.4-5.8-1.4-8.7c0-53.1,0-105.9,0-158.9
		c0-9.4,0.5-19.1-0.2-28.6c-0.9-12.4,8.5-21,21-21c95.5,0.2,191.3,0.2,286.8,0.2c2.6,0,5.1,0,7.8-0.2c0.7,0,1.8-0.2,2.1-1.1
		c0.5-0.9-0.7-1.4-1.1-2.1c-4.6-4.8-10.6-7.2-17-8.1c-5.5-0.9-11.3-1.1-17-1.1c-88.4,0-176.7,0-265.3-0.2c-11.5,0-23.3-0.5-34.8-0.5
		c-7.8,0-15.7,0-23.5,0.7c-8.3,0.5-15.9,2.3-21.9,8.7c-4.8,5.1-6.7,11.3-7.4,18c-0.5,3.7-0.7,7.4-1.1,11.1c0,0.7-0.2,1.6-1.1,1.6
		c0-7.4,0-14.8,0-22.2c1.1,0,1.6-0.7,1.6-1.8c1.8-12.7,13.1-19.8,24.2-21.5c6-0.9,12-1.1,18-1.1c105.2,0,210.2,0,315.3,0.2
		c8.5,0,17,0.5,24.9,4.8c7.2,3.9,12.2,9.4,13.6,17.8c0.2,1.1,0.5,2.1,1.6,2.1c0,6.9,0,13.6,0,20.5c-1.1,0-0.9-1.1-1.1-1.8
		c-0.2-1.8-0.7-3.7-0.9-6.3c-1.4,2.1-1.1,3.9-1.1,5.7c0,63.9,0,128,0,191.9c0,0.9,0,2.1,0,3c0,0.7,0.2,1.6,0.9,2.1
		c0.7-0.7,0.2-1.6,0.7-2.3c0.9-1.4-0.5-3.7,1.6-4.6c0,5.1,0,10.4,0,15.5c-1.4,0.7-1.4,1.8-1.6,3c-2.8,14.5-11.3,20.3-23.7,23.5
		c-5.8,1.6-11.5,1.8-17.6,1.8c-104.7,0-209.4,0-314.2,0c-7.8,0-15.7-0.7-23.3-3.9c-10-4.1-15.7-11.3-17.3-21.7
		c-0.2-1.1-0.2-2.3-1.6-2.8C106,502.1,106,497.7,106,493.1z M346.1,504.4c49.8,0,99.4,0,149.3,0c4.1,0,5.3-1.4,4.6-5.5
		c-0.2-1.4-0.2-2.6-0.2-3.9c0-66.9,0-134,0-200.9c0-3.7,0.2-7.6,0.5-11.3c0-2.3-1.1-3.5-3.5-3.5c-2.6,0-5.1,0.5-7.6,0.5
		c-93,0-185.7,0-278.6,0c-4.8,0-9.7,0-14.8,0c-1.6,0-3.2,0.2-4.8,1.1c-6.5,3-10,8.1-10,15.2c0,26.5,0,53.1,0,79.8
		c0,37.4,0,74.5,0,111.9c0,3.5,0.7,6.9,2.8,9.7c3.7,4.8,8.7,7.2,15,7.2C248,504.4,297.2,504.4,346.1,504.4z"/>
	<path fill="#304630" d="M505,491c-2.1,0.9-0.7,3.2-1.6,4.6c-0.5,0.7,0.2,1.6-0.7,2.3c-0.9-0.5-0.9-1.1-0.9-2.1c0-0.9,0-2.1,0-3
		c0-63.9,0-128,0-191.9c0-1.8-0.2-3.5,1.1-5.8c0.5,2.3,0.7,4.1,0.9,6.3c0.2,0.7,0,1.8,1.1,1.8C505,365.8,505,428.5,505,491z"/>
	<path fill="#9AA49A" d="M140.3,352.4c-2.1,0-4.1,0-6,0c-3,0-4.8-1.8-4.8-4.8c0-2.8-0.2-5.7,0-8.5c0.2-3.9,4.6-8.3,8.7-8.5
		c3-0.2,6-0.2,9,0c1.8,0,3.7,0.5,3.7,2.8c0,2.1-1.4,2.8-3.5,3.2c-2.8,0.7-5.5-0.7-8.5,0.2s-3.9,2.6-3.2,7.4c0.2,2.8,2.3,2.6,4.1,2.6
		c2.6,0,5.1,0,7.4,0c1.8,0,3.7,0.7,3.7,2.8c0,2.1-1.8,3-3.7,3C145,352.6,142.6,352.4,140.3,352.4L140.3,352.4z"/>
	<path fill="#9AA49A" d="M136.6,504.9c-3.5,0-6.9,0-10.6,0c-3,0-4.6-1.6-4.6-4.6c0-4.1,0-8.5,0-12.7c0-2.3,0.9-3.5,3.2-3.5
		c2.3,0,2.8,1.6,2.8,3.5c0,3,0.2,6,0,8.7c-0.2,2.6,1.4,3,3.2,3c1.8,0.2,2.8-0.9,2.6-2.6c0-0.5,0.2-0.9,0.2-1.4
		c0-2.1,0.9-4.1,3.2-3.9c2.3,0.2,3,2.3,2.8,4.4c-0.2,2.8,0.9,3.2,3.5,3.2c1.6-0.2,3.2,0,4.8,0.2c1.6,0.2,3.2,0.9,2.8,3
		c-0.2,1.8-1.6,2.8-3.2,2.8C143.8,504.9,140.3,504.7,136.6,504.9z"/>
	<path fill="#9AA49A" d="M142.6,279.3c2.8,0,5.3,0,8.1,0c5.1,0.2,10,5.7,9.2,10.4c-0.2,1.6-0.5,3.2-2.8,3.7c-2.6,0.5-3.5-0.9-3.9-3
		c0-0.9,0-2.3-1.1-2.1c-1.4,0.2-0.7,1.6-0.7,2.6c0.9,6.3-3.2,11.1-9.7,11.1c-2.6,0-5.1,0-7.4,0c-2.8,0-4.8-1.4-4.8-3
		c0-1.8,2.1-3.2,4.8-3.2c2.3,0,4.6,0,6.9,0s3.7-0.9,3.7-3.7c0-5.5,0-5.5-5.5-5.5c-1.8,0-3.7,0-5.5,0c-2.3,0-4.6-1.8-4.4-3.5
		c0.2-2.3,2.1-3.2,4.1-3.2C136.6,279,139.6,279.3,142.6,279.3L142.6,279.3z M142.9,281.4L142.9,281.4c-2.8,0-5.5,0-8.3,0
		c-0.9,0-2.3-0.2-2.3,1.4c0,1.1,1.1,1.1,2.1,1.1c1.8,0,3.7,0,5.5,0c7.8-0.5,7.2,1.8,7.2,7.6c0,3.5-2.1,5.3-5.8,5.5
		c-2.3,0-4.4,0-6.7,0c-1.1,0-2.8,0-2.8,1.6c0,1.4,1.6,1.4,2.8,1.4c2.3,0,4.4,0,6.7,0c5.3,0,8.3-3,8.3-8.3c0-1.4,0-2.6,0-3.9
		c0-1.1,0-2.3,1.4-2.8c1.4-0.2,2.3,0.5,3,1.4c0.7,0.7,0.7,1.6,0.9,2.6c0.2,0.9,0.2,2.3,1.6,2.3c1.4-0.2,1.4-1.4,1.4-2.6
		c0-3.5-3.7-7.2-6.9-7.2C148.1,281.4,145.4,281.4,142.9,281.4z"/>
	<path fill="#FEFEFE" d="M133.7,323.8c-0.7-0.7-1.1-1.4-1.8-2.1c0-2.6-0.2-4.8-0.2-7.4c0-3.9-0.9-4.8-4.8-5.1c-0.7,0-1.4,0-1.8-0.5
		c-0.5-0.2-0.7-0.7-0.9-0.9c0-0.5,0.5-0.7,0.9-0.9c0.7-0.2,1.1-0.2,1.8-0.2c6.5,0,13.1,0,19.6,0c2.3,0,3.2,0.9,3.2,3.2
		c-0.2,3.9,0.2,7.8-0.2,11.8c-1.1,1.1-1.8,2.6-3.5,3.2c-2.6,0.5-5.3-0.2-7.8,0.9c-0.2,0-0.7,0-0.9,0
		C136.4,324.5,135,324,133.7,323.8z M140.3,309.9c-5.5,0-6,0.5-6,5.3c0,4.6,2.1,6.9,6.3,6.9s5.8-2.1,5.8-7.8
		C146.3,310.2,146.1,309.9,140.3,309.9z"/>
	<path fill="#9AA49A" d="M151.6,441.2c-0.2,3,0.5,6-2.1,9c-3.7,4.4-8.1,4.4-12.7,3.7c-4.1-0.5-8.3-6.7-7.6-10.9
		c0.7-3.9,0.5-4.1-3.2-4.8c-1.1-0.2-2.1-0.2-3-0.9c-0.9-0.9-1.1-2.1-0.9-3.2s1.1-1.6,2.1-1.8c3.9-0.9,8.1-0.7,12.2-0.2
		c3.9,0.5,7.6-0.5,11.5,0c3.7,0.7,4.1,1.1,4.1,4.8C151.6,438.5,151.6,439.8,151.6,441.2z M136.4,434c-3.2,0-6.5,0-9.7,0
		c-0.9,0-2.1-0.2-2.3,1.1c0,1.1,1.1,1.1,2.1,1.1c4.6,0.5,5.5,1.1,4.8,6c-0.5,3.7,0.5,7.2,3.9,9c3,1.6,6.7,1.8,9.7,0
		c2.6-1.4,4.6-3.5,4.1-6.7c-0.2-2.3-0.2-4.4,0.2-6.7c0.7-3-0.7-4.1-3.9-4.1C142.4,433.8,139.4,434,136.4,434z"/>
	<path fill="#9AA49A" d="M151.6,467.5c0.5,3.7-0.2,7.2-3.9,10c-2.8,2.1-3.7,2.1-6.5,0c-3.5-2.8-4.1-6-3.7-10c0-0.7,0.5-2.1-0.9-2.3
		c-1.1,0-1.1,1.1-1.1,2.1c0,1.8,0.2,3.7-0.5,5.5c-0.5,1.1-0.7,2.6-2.6,2.6c-1.6,0-2.6-0.9-2.8-2.3c-0.7-3.7-1.6-7.6,0.9-10.9
		c2.1-3,4.8-4.8,9-4.4c2.1,0.2,4.4,0,6.7,0c3.9,0,4.8,0.9,5.3,4.8C151.8,464,151.6,465.5,151.6,467.5z M149.6,466.8
		c0-1.4,0-2.8,0-4.1c0.2-2.3-0.9-3.5-3.2-3.2c-2.6,0-5.1,0-7.8,0c-1.6,0-2.8,0.7-4.1,1.6c-3.7,2.8-2.8,6.5-2.8,10.2
		c0,0.5,0.2,1.1,0.9,1.1c0.9,0,1.1-0.5,1.1-1.1c0-0.9,0-1.6,0-2.6c-0.2-1.8,0.5-3.7,1.6-5.1c0.7-0.9,1.6-1.1,2.8-0.9
		c1.1,0.2,1.4,1.1,1.4,2.1c0,1.4,0.2,2.8,0,4.1c-0.2,2.8,0.9,5.1,3,6.7c1.6,1.4,2.8,1.4,4.6,0C150,473.5,149.8,470.3,149.6,466.8z"
		/>
	<path fill="#9AA49A" d="M151.6,417.7c1.4,8.5-8.5,14.1-16.6,10.4c-4.4-2.1-7.2-8.1-6-13.9c0.7-3.7,6-7.8,9.7-7.8
		c1.4,0,2.8,0.5,3.9,0.9c1.6,0.7,1.1,2.1,1.4,3.5c0.2,0.9,0.5,1.4,1.6,1.1c6-1.1,6.3-1.1,6.3,5.1
		C151.6,417.2,151.6,417.4,151.6,417.7z M142.2,415.6L142.2,415.6c0-0.9,0-2.1,0-3c0-1.4,0.7-3.2-1.1-3.9c-1.8-0.9-3.9-0.9-5.7,0.2
		c-3.7,2.3-5.8,10-3.5,13.9c2.6,4.8,11.3,6,15.5,2.6c3.7-3.2,2.8-7.2,2.6-11.1c0-0.7-0.5-1.1-1.1-1.4c-0.9,0-1.4,0.5-1.6,1.1
		c-0.2,0.9-0.2,1.8-0.2,2.8c0,1.4,0.2,3-0.5,4.4c-0.5,0.9-1.1,1.6-2.3,1.4c-1.1-0.2-1.6-1.1-1.6-2.3
		C142.2,418.8,142.2,417.2,142.2,415.6z"/>
	<path fill="#9AA49A" d="M136.6,364.4c-1.6,0.5-0.9,1.8-1.1,2.8c-0.2,1.6,0.2,3.2-0.5,4.8c-0.5,1.1-1.1,1.8-2.6,1.8
		c-1.4,0-2.3-0.5-2.8-1.6c-3.5-6.9,1.1-16.8,9.4-16.1c2.8,0.2,5.8,0,8.5,0c2.6,0,3.7,1.4,3.7,3.9c0,3.2,0,6.5,0,9.7
		c0,3-3.7,7.2-6.7,8.1c-0.7,0.2-1.4,0.2-2.1-0.5c-3.5-2.6-6.5-5.5-5.8-10.6C137.4,366,137.6,365.1,136.6,364.4z M150,365.1
		c0-1.1,0-2.3,0-3.7c0-3.2-0.9-4.1-4.1-4.1c-1.8,0-3.7,0.2-5.5,0c-3-0.2-5.3,0.9-7.4,3c-2.6,2.6-1.6,5.5-1.8,8.3
		c0,1.1-0.2,2.8,1.4,2.8c1.8,0,1.4-1.6,1.4-2.8c0-1.8-0.2-3.7,0.7-5.5c0.5-0.9,1.4-1.8,2.6-1.6c1.4,0.2,1.6,1.1,1.6,2.6
		c0,0.9,0.2,1.8,0,2.8c-0.5,3.2,0.9,5.5,3.5,7.6c1.6,1.4,3,1.1,4.6,0C150.3,372,150,368.5,150,365.1z"/>
	<path fill="#9AA49A" d="M165.9,425.3c0.7,0,1.6,0.2,2.3,0.2c0.5,0.2,0.9,0.7,0.9,1.1c0.2,0.7-0.2,1.4-0.9,1.6
		c-0.9,0.2-1.8,0.5-2.8,0.7c-0.7,0.2-1.1,0.5-1.1,1.1s0.5,1.1,1.1,1.1c3,0.2,4.4,1.1,1.8,4.1c-0.9,1.1,0.5,1.8,1.1,2.3
		c1.6,1.4,2.3,3,1.4,4.8c-0.7,1.8-2.3,3.2-4.6,3.5c-2.1,0.2-3.9-0.5-4.8-2.8c-0.9-2.3-0.5-4.1,1.4-5.7c0.9-0.9,2.6-1.6,0.5-2.8
		c-2.8-1.6-2.8-4.1-1.8-6.7C161.3,425.7,163.9,425.7,165.9,425.3z"/>
	<path fill="#9AA49A" d="M163.7,470.1c4.8,0,7.2,2.3,7.2,6.7c0,2.1-1.1,3.2-3,3.7c-3,0.9-6,0.7-9-0.2c-2.8-0.7-3.7-5.1-1.6-7.6
		C159.2,470.3,160.2,470.1,163.7,470.1z M163.7,477.2c0.9-0.2,2.3-0.2,2.3-1.6c0-1.1-1.4-1.6-2.6-1.6c-1.4,0-2.6,0.5-2.6,1.8
		C161.1,477,162.5,477,163.7,477.2z"/>
	<path fill="#9AA49A" d="M163.4,492.5c-0.5,0-0.7,0-1.1,0c-5.8,0-7.8-2.8-6.3-8.3c0.2-0.9,0.5-1.8,1.6-1.8c0.9,0,1.8,0.2,2.3,1.1
		c0.7,0.9,1.1,1.8,2.3,2.3c1.6,0.7,3,0.9,3.5-1.1c0.5-1.8,1.6-2.3,3.2-2.1c1.6,0.2,1.8,1.4,2.1,2.8
		C171.5,491.5,170.5,492.5,163.4,492.5z M159.4,490.3c2.3,0,4.6,0,6.9,0c0.5,0,0.9-0.2,1.1-0.7c0.2-0.5-0.2-0.7-0.5-0.7
		C164.6,489,161.8,488,159.4,490.3z"/>
	<path fill="#9AA49A" d="M129.7,390.5c0-1.6-0.2-3.2,0-5.1c0.2-1.6,0.7-3.2,2.8-3c2.1,0.2,2.6,1.6,2.8,3.2c0,2.3,0,4.4,0,6.7
		c0,2.1,0.5,3.7,2.3,4.6c2.1,0.9,4.1,0.9,6.3-0.2c1.1-0.7,1.6-1.6,1.6-3c0-2.6,0-5.1,0-7.4c0-1.8,0.7-3.7,2.8-3.7
		c2.6-0.2,2.8,1.6,2.8,3.5c0,2.8,0.2,5.5,0.2,8.5c0,3-1.8,5.1-3.9,6.7c-3.9,3-8.3,2.6-12.2,0.7c-3.5-1.6-5.8-4.8-5.3-9.2
		C130,391.8,129.7,391.1,129.7,390.5L129.7,390.5z M149.6,390.9c0-1.8,0-3.5,0-5.3c0-0.9-0.2-1.8-1.4-1.8c-1.1,0-1.1,0.9-1.1,1.8
		c0,2.3,0,4.8,0,7.2c-0.2,3.9-2.6,5.8-6.9,5.8c-4.1,0-6.3-2.1-6.3-6c0-2.3,0-4.4,0-6.7c0-0.9-0.2-2.1-1.4-2.1s-1.1,1.1-1.1,1.8
		c-0.2,2.3,0,4.6-0.2,6.9c-0.5,3.9,1.6,6.9,4.8,8.1c3.7,1.4,7.6,1.6,11.3-1.4C150.5,396.9,149.3,393.7,149.6,390.9z"/>
	<path fill="#9AA49A" d="M163.1,503.5c-1.4,0-2.6,0-3.9,0c-1.1,0-2.6-0.2-2.6-1.8c0-1.4,1.4-1.8,2.6-2.1c1.1-0.2,2.6-0.2,3.9,0
		c1.8,0,3-0.5,2.8-2.6c0-1.8,0.7-3.5,2.8-3.2c1.8,0,2.6,1.8,2.6,3.7C171.2,503.2,170.8,503.8,163.1,503.5z"/>
	<path fill="#9AA49A" d="M164.1,370.9c2.3,0,6.7,3,6.7,4.8c0,2.1-2.8,5.1-4.6,5.3c-3,0.2-6.3-2.3-6.5-4.8
		C159.7,373.2,161.6,370.9,164.1,370.9z"/>
	<path fill="#9AA49A" d="M165.3,406.6c-3.2,0-5.3-1.8-5.3-4.6s2.6-5.1,5.3-5.1c2.6,0,4.8,2.6,5.1,4.8
		C170.3,404.6,168.3,406.6,165.3,406.6z"/>
	<path fill="#9AA49A" d="M164.1,458.1c-5.3,0-7.8-2.3-7.4-6c0.2-1.1,0.7-1.8,1.4-2.6c0.7-0.5,1.6-0.9,2.6-0.2
		c0.7,0.7,0.7,1.4,0.2,2.3c-0.2,0.7-1.1,1.6,0,2.1c1.1,0.7,2.6,0.9,3.9,0.5c1.1-0.5,1.4-1.1,0.9-2.3c-0.2-0.9-0.5-1.8,0.7-2.3
		c1.1-0.5,1.8,0,2.8,0.9c1.1,1.1,1.4,2.6,0.9,3.9c-0.7,2.1-2.1,3.2-4.1,3.7C165.3,458.1,164.3,458.1,164.1,458.1z"/>
	<path fill="#9AA49A" d="M149.3,321.7c0.5-3.9,0.2-7.8,0.2-11.8c0-2.3-0.9-3.2-3.2-3.2c-6.5,0-13.1,0-19.6,0c-0.7,0-1.4,0-1.8,0.2
		c-0.5,0-0.9,0.5-0.9,0.9s0.5,0.9,0.9,0.9c0.5,0.2,1.1,0.2,1.8,0.5c3.9,0.2,4.6,1.1,4.8,5.1c0,2.6,0.2,4.8,0.2,7.4
		c-1.6-0.5-1.6-1.6-1.6-2.8c0-1.4,0-2.8,0-4.1c0-3.5-0.2-3.9-3.9-4.1c-1.1,0-2.3-0.5-3-1.1c-1.4-1.1-1.1-2.8,0.7-3.5
		c0.9-0.5,2.1-0.5,3.2-0.5c6.3,0,12.4,0,18.9,0c3.9,0,5.1,1.1,5.1,5.1c0,2.8,0,5.3,0,8.1C150.9,319.9,150.9,321.3,149.3,321.7z"/>
	<path fill="#9AA49A" d="M166.2,389.6c2.8-0.2,4.6,0,4.6,2.6c0,2.8-2.1,2.8-3.9,2.6c-2.3-0.5-4.6-0.2-6.7,0.2
		c-1.6,0.5-2.8,0.5-3.2-1.4c-0.5-1.8,0.9-2.8,2.3-3c1.4-0.2,2.8-0.2,4.1-0.2C164.6,390,165.7,389.8,166.2,389.6z"/>
	<path fill="#9AA49A" d="M170.3,384c0,3-1.6,3.5-3.2,3c-2.6-0.9-5.1-0.7-7.4,0c-1.1,0.2-2.3,0.2-2.8-1.1c-0.2-1.1,0.2-2.1,1.4-2.8
		c0.9-0.5,2.1-0.7,3.2-0.7c1.8,0,3.7,0,5.8-0.5C168.9,381.7,170.3,382.6,170.3,384z"/>
	<path fill="#9AA49A" d="M165.3,369.3c-4.1,0-5.1-1.1-5.1-5.3c0-0.9,0-1.8,1.1-2.3c0.9-0.5,1.8,0,2.6,0.7c1.1,1.4,2.6,2.6,4.1,3.2
		c0.9,0.5,2.1,0.7,1.8,2.1c-0.2,1.1-1.4,1.6-2.6,1.6C166.4,369.3,165.9,369.3,165.3,369.3z"/>
	<path fill="#9AA49A" d="M165,416.1c-3.2,0-4.8-1.6-4.6-4.6c0-0.7,0.2-1.4,1.1-1.8c0.9-0.5,1.6,0,2.1,0.9c0.7,1.1,1.6,1.8,3,2.1
		c0.9,0.2,2.1,0.5,2.1,1.8c-0.2,1.4-1.4,1.6-2.6,1.6C165.7,416.1,165.5,416.1,165,416.1z"/>
	<path fill="#9AA49A" d="M162,423c-1.1-0.2-2.3-0.7-2.8-1.8c-0.5-0.9,0-1.6,0.7-2.3c0.9-0.9,1.8-1.6,3.2-0.9
		c1.4,0.7,2.3,0.7,3.5-0.2c0.7-0.7,1.6-0.7,2.3,0c0.9,0.9,0.5,1.8,0,2.8C168,421.6,163.9,423,162,423z M162.2,419.3
		c-0.7,0-1.4,0.5-1.4,1.1c0,1.1,0.9,1.4,1.8,1.1c0.7,0,1.6-0.2,1.6-0.9C164.1,419.6,162.9,419.8,162.2,419.3z"/>
	<path fill="#9AA49A" d="M138,325.9c2.6-0.9,5.3-0.5,7.8-0.9C144.2,326.8,140.6,327.3,138,325.9z"/>
	<path fill="#9AA49A" d="M133.7,323.8c1.4,0.2,2.6,0.7,3.5,2.1C135.2,326.3,134.1,325.9,133.7,323.8z"/>
	<path fill="#FEFEFE" d="M346.1,504.4c-49.2,0-98.3,0-147.2,0c-6.3,0-11.3-2.1-15-7.2c-2.1-2.8-2.8-6-2.8-9.7c0-37.4,0-74.5,0-111.9
		c0-26.5,0-53.1,0-79.8c0-7.2,3.5-12.2,10-15.2c1.6-0.7,3-1.1,4.8-1.1c4.8,0,9.7,0,14.8,0c93,0,185.7,0,278.6,0
		c2.6,0,5.1-0.2,7.6-0.5c2.3,0,3.5,1.1,3.5,3.5c-0.2,3.7-0.5,7.6-0.5,11.3c0,66.9,0,134,0,200.9c0,1.4,0,2.6,0.2,3.9
		c0.5,4.1-0.7,5.5-4.6,5.5C445.5,504.4,395.9,504.4,346.1,504.4z M252.9,389.6c0,10.9,0,21.7,0,32.3c0.2,11.1-0.7,22.4,0.5,33.5
		c1.1,10.4,12.2,14.1,19.8,9.7c4.4-2.6,6.7-6.5,6.7-11.8c0-15.5,0-30.9,0-46.6c0-3.5,0.5-3.9,3.9-3.9c7.2,0,14.3,0.2,21.3,0
		c7.8-0.2,12.7-4.6,13.9-10.2c2.1-10-5.1-16.4-13.6-16.6c-7.4-0.2-14.8,0-22.2,0c-2.3,0-3.5-0.7-3.5-3.2c0-8.5,0-17,0-25.9
		c0-2.6,1.1-3.5,3.7-3c0.7,0,1.4,0.2,1.8,0.2c19.6,0,39.2,0,58.6,0c6.7,0,12.7-4.4,14.3-9.4c2.8-9-3.7-18-13.9-18
		c-27.2,0-54.2,0-81.4,0c-2.8,0-5.3,0.5-7.6,2.8c-2.6,2.3-2.8,5.3-2.8,8.3C252.9,348.2,252.9,368.7,252.9,389.6z M387.2,462
		L387.2,462c9.2,0,18.2,0,27.4,0c3.2,0,6-0.7,8.7-2.8c3.9-3,6.5-9.2,5.3-13.1c-2.1-6.9-6.9-10.9-13.1-11.1c-11.1,0-22.4,0-33.5,0
		c-4.4,0-8.5-1.1-12-3.9c-5.5-4.1-5.7-10.2-5.3-16.1c0.2-2.3-0.2-5.1,0.9-7.4c3-6,7.8-9.2,14.5-9.2c10.6-0.2,21.5,0,32,0
		c5.3,0,10.2-1.4,13.6-5.7c2.1-2.8,3.7-5.8,3-9.2c-1.4-8.1-7.4-12.7-15.7-12.7c-17,0-33.9,0-51,0c-3.5,0-6.9,0.5-10.2,1.8
		c-10.2,4.4-15.2,12.2-15.5,22.6c-0.5,12.9,0,25.6-0.2,38.5c0,4.1,0.5,8.1,1.4,12c2.1,8.7,12,16.4,20.7,16.4
		C368.3,462,377.7,462,387.2,462z"/>
	<path fill="#FEFEFE" d="M142.9,281.4c2.8,0,5.3,0,8.1,0c3.5,0,7.2,3.9,6.9,7.2c0,1.1,0,2.6-1.4,2.6c-1.4,0.2-1.4-1.4-1.6-2.3
		c-0.2-0.9-0.2-1.8-0.9-2.6c-0.7-0.9-1.8-1.8-3-1.4c-1.4,0.5-1.4,1.6-1.4,2.8c0,1.4,0,2.6,0,3.9c0,5.3-3,8.3-8.3,8.3
		c-2.3,0-4.4,0-6.7,0c-1.1,0-2.6,0-2.8-1.4c0-1.6,1.6-1.6,2.8-1.6c2.3,0,4.4,0,6.7,0c3.5,0,5.5-1.8,5.8-5.5c0.2-6,0.7-8.1-7.2-7.6
		c-1.8,0-3.7,0-5.5,0c-0.9,0-2.1,0-2.1-1.1c0-1.4,1.1-1.4,2.3-1.4C137.4,281.4,140.1,281.4,142.9,281.4L142.9,281.4z"/>
	<path fill="#304630" d="M140.3,309.9c5.5,0,6,0.2,6,4.4c0,5.7-1.4,7.8-5.7,7.8s-6.3-2.1-6.3-6.9
		C134.3,310.4,134.8,309.9,140.3,309.9z"/>
	<path fill="#FEFEFE" d="M136.4,434c3,0,6,0,9.2,0c3.2,0,4.4,1.1,3.9,4.1c-0.5,2.3-0.5,4.4-0.2,6.7c0.5,3-1.6,5.1-4.1,6.7
		c-3.2,1.8-6.7,1.8-9.7,0c-3.5-1.8-4.4-5.3-3.9-9c0.5-4.8-0.2-5.5-4.8-6c-0.9,0-2.1,0-2.1-1.1s1.4-1.1,2.3-1.1
		C130,433.8,133.2,434,136.4,434z M140.8,436.1c-0.9,0-1.8,0-2.6,0c-4.4,0-4.8,0.5-4.8,4.8c0,1.1,0,2.3,0,3.7c0,2.3,2.6,5.1,5.1,5.5
		c3,0.5,6,0,7.4-2.8c1.6-2.8,1.6-6.3,0.2-9.2C145.2,435,142.4,436.8,140.8,436.1z"/>
	<path fill="#FEFEFE" d="M149.6,466.8c0.2,3.2,0.5,6.7-2.8,9c-1.8,1.4-3,1.4-4.6,0c-2.1-1.8-3.2-3.9-3-6.7c0.2-1.4,0-2.8,0-4.1
		c0-0.9-0.2-1.8-1.4-2.3c-1.1-0.2-2.1,0-2.8,0.9c-1.1,1.4-1.8,3.2-1.6,5.1c0,0.9,0,1.6,0,2.6c0,0.7-0.2,1.4-1.1,1.1
		c-0.7,0-0.9-0.7-0.9-1.1c0-3.7-0.7-7.4,2.8-10.2c1.4-0.9,2.6-1.8,4.1-1.6c2.6,0,5.1,0,7.8,0c2.3,0,3.5,0.9,3.2,3.2
		C149.6,464,149.6,465.5,149.6,466.8z M147,467.7L147,467.7c0-0.9,0-1.8,0-2.8c0-1.4-0.7-2.6-2.3-2.8c-1.6-0.2-2.8,0.9-2.8,2.3
		c-0.2,2.1-0.2,4.1,0,6.3c0,1.1,0.7,2.3,2.3,2.3c1.4,0,2.3-0.9,2.8-2.3C147.2,469.8,147,468.6,147,467.7z"/>
	<path fill="#FEFEFE" d="M142.2,415.6c0,1.6,0,3.2,0,4.6c0,1.1,0.5,2.1,1.6,2.3c1.1,0.2,1.8-0.5,2.3-1.4c0.7-1.4,0.5-2.8,0.5-4.4
		c0-0.9,0-1.8,0.2-2.8c0.2-0.7,0.9-1.4,1.6-1.1c0.7,0,1.1,0.7,1.1,1.4c0,3.9,0.9,7.8-2.6,11.1c-4.1,3.7-12.9,2.3-15.5-2.6
		c-2.1-3.9-0.2-11.5,3.5-13.9c1.8-1.1,3.9-1.1,5.8-0.2c1.8,0.9,0.9,2.6,1.1,3.9C142.2,413.8,142.2,414.7,142.2,415.6L142.2,415.6z
		 M139.4,416.1c0-1.6,0-3.2-1.8-3.7c-1.8-0.5-2.6,1.1-3,2.6c-0.9,2.1-0.9,4.4,0.2,6.5c0.5,1.1,1.1,2.3,2.6,2.1
		c1.6-0.2,1.8-1.6,1.8-3C139.4,418.8,138.7,417.2,139.4,416.1z"/>
	<path fill="#FEFEFE" d="M150,365.1c0.2,3.5,0.5,6.9-3,9.4c-1.6,1.1-3,1.4-4.6,0c-2.3-2.1-3.9-4.4-3.5-7.6c0.2-0.9,0-1.8,0-2.8
		c0-1.1-0.2-2.3-1.6-2.6c-1.4-0.2-2.1,0.7-2.6,1.6c-0.9,1.6-0.7,3.7-0.7,5.5c0,1.1,0.5,2.8-1.4,2.8c-1.6,0-1.6-1.6-1.4-2.8
		c0.2-2.8-0.7-5.7,1.8-8.3c2.1-2.1,4.4-3.2,7.4-3c1.8,0.2,3.7,0,5.5,0c3.2,0,4.1,0.9,4.1,4.1C150,362.8,150,363.9,150,365.1z
		 M147.2,366c0-1.1,0-2.1-0.2-2.8c-0.5-1.4-0.9-2.6-2.6-2.6c-1.6,0-2.1,1.4-2.1,3c0,1.8,0,3.7,0,5.5c0,1.1,0.7,2.1,1.8,2.1
		c1.1,0,2.1-0.7,2.6-1.8C146.8,368.3,147,366.9,147.2,366z"/>
	<path fill="#304630" d="M163.7,477.2c-1.1-0.2-2.8,0-2.8-1.4c0-1.4,1.1-1.8,2.6-1.8c1.1,0,2.3,0.2,2.6,1.6
		C165.9,476.8,164.8,477,163.7,477.2z"/>
	<path fill="#FEFEFE" d="M159.4,490.3c2.3-2.3,5.1-1.4,7.6-1.4c0.5,0,0.7,0.2,0.5,0.7c-0.2,0.5-0.7,0.7-1.1,0.7
		C164.1,490.3,161.8,490.3,159.4,490.3z"/>
	<path fill="#FEFEFE" d="M149.6,390.9c-0.2,2.8,0.9,6-2.3,8.5c-3.7,2.8-7.4,2.8-11.3,1.4c-3.5-1.4-5.3-4.1-4.8-8.1
		c0.2-2.3,0-4.6,0.2-6.9c0-0.7,0-1.8,1.1-1.8s1.4,1.1,1.4,2.1c0,2.3,0,4.4,0,6.7c0,3.9,2.1,6,6.3,6c4.4,0,6.7-1.8,6.9-5.7
		c0-2.3,0-4.8,0-7.2c0-0.9,0.2-1.8,1.1-1.8c1.1,0,1.4,0.9,1.4,1.8C149.6,387.2,149.6,388.9,149.6,390.9z"/>
	<path fill="#FEFEFE" d="M162.2,419.3c0.7,0.5,2.1,0.2,2.1,1.4c0,0.9-0.9,0.9-1.6,0.9c-0.9,0-1.6-0.2-1.8-1.1
		C160.9,419.8,161.3,419.3,162.2,419.3z"/>
	<path fill="#9AA49A" d="M252.9,389.6c0-20.5,0-41.1,0-61.8c0-3,0.2-6,2.8-8.3c2.3-2.1,4.8-2.8,7.6-2.8c27.2,0,54.2,0,81.4,0
		c10.2,0,16.6,9,13.9,18c-1.6,5.1-7.6,9.4-14.3,9.4c-19.6,0.2-39.2,0-58.6,0c-0.7,0-1.4-0.2-1.8-0.2c-2.6-0.2-3.7,0.5-3.7,3
		c0,8.5,0,17,0,25.9c0,2.6,1.1,3.2,3.5,3.2c7.4,0,14.8-0.2,22.2,0c8.5,0.2,15.7,6.7,13.6,16.6c-1.1,5.5-6,10.2-13.9,10.2
		c-7.2,0.2-14.3,0-21.3,0c-3.5,0-3.9,0.5-3.9,3.9c0,15.5,0,30.9,0,46.6c0,5.1-2.3,9.2-6.7,11.8c-7.6,4.4-18.7,0.5-19.8-9.7
		c-1.1-11.1-0.2-22.4-0.5-33.5C252.7,411,252.9,400.2,252.9,389.6z M254.7,389.6c0,8.7,0,17.3,0,26.1c0,12.4,0,25.2,0,37.6
		c0,9,8.1,13.1,14.3,11.3c5.5-1.6,9.2-6.9,9.2-12.9c0-15.5,0-30.9,0-46.1c0-4.1,0.9-4.8,4.8-4.8c7.4,0,14.8,0,22.2,0
		c2.8,0,5.3-0.7,7.4-2.3c3.2-2.3,5.3-7.8,4.1-11.3c-1.6-5.1-5.1-8.1-10-8.1c-7.8,0-15.5,0-23.3,0c-4.1,0-5.7-1.6-5.7-5.7
		c0-8.3,0-16.8,0-25.2c0-4.8,1.4-6.3,6.3-6.3c15.7,0,31.4,0,47,0c4.6,0,9.4,0,14.1,0c7.8-0.2,12.7-6.7,11.1-14.5
		c-0.9-4.1-7.6-8.3-11.8-8.3c-27,0-54,0-81,0c-6,0-8.5,2.8-8.5,8.7C254.7,348.2,254.7,368.7,254.7,389.6z"/>
	<path fill="#9AA49A" d="M387.2,462c-9.4,0-18.9,0-28.6,0c-8.7,0-18.7-7.6-20.7-16.4c-0.9-3.9-1.6-7.8-1.4-12
		c0-12.9-0.2-25.6,0.2-38.5c0.2-10.4,5.3-18.2,15.5-22.6c3.2-1.4,6.7-1.8,10.2-1.8c17,0,33.9,0,51,0c8.1,0,14.1,4.8,15.7,12.7
		c0.7,3.5-0.9,6.5-3,9.2c-3.5,4.4-8.3,5.7-13.6,5.7c-10.6,0-21.5-0.2-32,0c-6.7,0-11.5,3.2-14.5,9.2c-1.1,2.3-0.7,4.8-0.9,7.4
		c-0.2,6,0,12,5.3,16.1c3.7,2.8,7.6,3.9,12,3.9c11.1,0,22.4,0,33.5,0c6.3,0,11.1,4.1,13.1,11.1c1.1,3.9-1.4,10-5.3,13.1
		c-2.6,2.1-5.3,3-8.7,2.8C405.6,462,396.4,462,387.2,462L387.2,462z M384.6,373.4c-8.1,0.5-18.2-0.7-28.6,0.5
		c-8.1,0.9-16.4,9.7-16.4,18c-0.2,16.4,0,32.8,0,49.2c0,3.7,1.4,6.9,3.5,9.7c4.1,6,10.4,9,17.3,9c18.2,0.5,36.4,0.2,54.7,0
		c4.8,0,8.7-2.8,10.4-7.4c1.7-4.6,1.1-8.7-2.8-12.2c-2.8-2.3-5.7-3.2-9.2-3.2c-11.1,0-21.9,0-33,0c-5.1,0-9.7-1.6-13.1-5.3
		c-5.1-5.3-6.3-11.5-5.5-18.7c0.7-9,9-17.8,19.4-17.3c11.3,0.5,22.6,0.2,33.7,0c4.8,0,8.3-2.8,10.4-6.7c1.8-3.7,1.4-7.6-1.1-11.3
		c-2.6-3.5-6-4.4-10-4.4C404.9,373.4,395.9,373.4,384.6,373.4z"/>
	<path fill="#9AA49A" d="M140.8,436.1c1.6,0.5,4.4-1.1,5.5,1.6c1.1,3,1.4,6.5-0.2,9.2c-1.6,2.8-4.4,3.2-7.4,2.8
		c-2.3-0.2-4.8-3-5.1-5.5c0-1.1,0-2.3,0-3.7c0-4.4,0.5-4.6,4.8-4.8C139.2,436.1,139.8,436.1,140.8,436.1z M140.6,438.3
		c-4.8,0-4.8,0-4.8,3.5c0,5.1,1.1,6.7,5.1,6.7c3.5,0,4.6-1.8,4.6-6.9C145.4,438.3,145.2,438.3,140.6,438.3z"/>
	<path fill="#9AA49A" d="M147,467.7c0,1.1,0,2.3-0.2,3.2c-0.2,1.4-1.1,2.3-2.8,2.3s-2.1-1.1-2.3-2.3c-0.2-2.1-0.2-4.1,0-6.3
		c0.2-1.6,1.1-2.6,2.8-2.3c1.7,0.2,2.1,1.1,2.3,2.8C147,465.9,147,466.8,147,467.7L147,467.7z M143.3,467.7c0.5,1.1-0.7,3,1.1,3
		c1.4,0,0.7-1.8,0.7-3c0-1.2,0.9-3.2-0.7-3.2C142.6,464.5,144,466.6,143.3,467.7z"/>
	<path fill="#9AA49A" d="M139.4,416.1c-0.7,1.4,0.2,2.8,0,4.1c-0.2,1.1-0.2,2.8-1.8,3c-1.4,0.2-2.1-0.9-2.6-2.1
		c-0.9-2.1-1.1-4.1-0.2-6.5c0.5-1.4,1.1-3,3-2.6C139.2,412.6,139.2,414.4,139.4,416.1z M137.6,417c-0.7-0.7,1.1-2.8-0.9-2.8
		c-1.4,0-1.4,2.1-1.4,3.5c0,0.2,0,0.5,0,0.5c0.2,1.1,0.2,2.8,1.6,2.8s0.7-1.8,0.7-2.8C137.8,417.9,137.6,417.7,137.6,417z"/>
	<path fill="#9AA49A" d="M147.2,366c-0.2,0.9-0.2,2.3-0.7,3.5c-0.2,1.1-1.1,1.8-2.6,1.8c-1.1,0-1.8-0.9-1.8-2.1
		c-0.2-1.8,0-3.7,0-5.5c0-1.6,0.5-2.8,2.1-3c1.6,0,2.1,1.1,2.6,2.6C147,364.1,147,364.8,147.2,366z M145.4,366
		c-0.7-0.7,0.9-2.8-1.1-2.8c-1.4,0-0.7,2.1-0.7,3c0,0.7,0,1.4,0,1.8c0,0.5,0.2,0.9,0.9,0.9c0.5,0,0.9-0.5,0.9-0.9
		C145.4,367.6,145.4,366.9,145.4,366z"/>
	<path fill="#304630" d="M254.7,389.6c0-20.7,0-41.3,0-62c0-6,2.8-8.7,8.5-8.7c27,0,54,0,81,0c4.1,0,10.9,4.1,11.8,8.3
		c1.8,8.1-3.2,14.5-11.1,14.5c-4.6,0-9.4,0-14.1,0c-15.7,0-31.4,0-47,0c-4.8,0-6.3,1.4-6.3,6.3c0,8.3,0,16.8,0,25.2
		c0,4.1,1.6,5.7,5.7,5.7c7.8,0,15.5,0,23.3,0c4.8,0,8.3,3,10,8.1c1.1,3.5-0.9,9-4.1,11.3c-2.3,1.6-4.6,2.3-7.4,2.3
		c-7.4-0.2-14.8,0-22.2,0c-3.9,0-4.8,0.9-4.8,4.8c0,15.5,0,30.9,0,46.1c0,6-3.7,11.3-9.2,12.9c-6.3,1.8-14.1-2.3-14.3-11.3
		c0-12.4,0-25.2,0-37.6C254.7,406.8,254.7,398.1,254.7,389.6z"/>
	<path fill="#304630" d="M384.6,373.4c11.3,0,20.3,0,29.6,0c3.9,0,7.4,0.9,10,4.4c2.6,3.7,3,7.6,1.1,11.3c-1.8,4.1-5.5,6.7-10.4,6.7
		c-11.3,0-22.6,0.5-33.7,0c-10.4-0.5-18.5,8.3-19.4,17.3c-0.7,7.2,0.5,13.3,5.5,18.7c3.5,3.7,8.1,5.3,13.1,5.3c11.1,0,21.9,0,33,0
		c3.5,0,6.5,0.7,9.2,3.2c3.9,3.5,4.4,7.8,2.8,12.2c-1.6,4.6-5.5,7.4-10.4,7.4c-18.2,0.2-36.4,0.2-54.7,0c-6.9-0.2-13.1-3-17.3-9
		c-1.8-2.8-3.5-6.3-3.5-9.7c0-16.4-0.2-32.8,0-49.2c0-8.3,8.5-17,16.4-18C366.2,372.7,376.6,373.9,384.6,373.4z"/>
	<path fill="#304630" d="M140.6,438.3c4.6,0,4.6,0,4.6,3.2c0,4.8-1.1,6.7-4.6,6.9c-3.7,0-5.1-1.6-5.1-6.7
		C135.7,438.3,135.7,438.3,140.6,438.3z"/>
	<path fill="#304630" d="M143.3,467.7c0.5-1.1-0.7-3.2,1.1-3.2c1.6,0,0.7,2.1,0.7,3.2s0.7,3-0.7,3C142.6,471,144,468.9,143.3,467.7z
		"/>
	<path fill="#304630" d="M137.6,417c0,0.7,0,0.9,0,1.1c-0.2,0.9,0.7,2.8-0.7,2.8c-1.4,0-1.4-1.6-1.6-2.8c0-0.2,0-0.5,0-0.5
		c0-1.4,0-3.5,1.4-3.5C138.7,414.2,136.9,416.5,137.6,417z"/>
	<path fill="#304630" d="M145.4,366c0,0.9,0,1.6,0,2.3c0,0.5-0.2,0.9-0.9,0.9c-0.5,0-0.7-0.5-0.9-0.9c0-0.7-0.2-1.4,0-1.8
		c0.2-1.1-0.7-3,0.7-3C146.3,363.2,144.7,365.4,145.4,366z"/>
</g>
</svg>
