<?xml version="1.0" encoding="utf-8"?>
<!-- Generator: Adobe Illustrator 18.1.1, SVG Export Plug-In . SVG Version: 6.00 Build 0)  -->
<svg version="1.1" id="Layer_1" xmlns="http://www.w3.org/2000/svg" xmlns:xlink="http://www.w3.org/1999/xlink" x="0px" y="0px"
	 viewBox="0 0 310 266.5" enable-background="new 0 0 310 266.5" xml:space="preserve">
<g>
	<path fill="#FEFEFE" d="M298.1,148.2c0-1.3,0-2.7,0-4c0.3-17.4-0.7-34.7-7.3-51.1c-5.8-14.5-14.5-27.2-25.6-38.4
		c-16.6-16.9-36.6-27.7-58.7-35.2c-8.4-2.8-17.2-4.2-25.9-5.8c-7.5-1.3-15.1-2.3-22.7-2.1c-8.2,0.1-16.5,0.7-24.7,1.5
		c-6,0.6-12,1.5-17.6,3.3c-2.9,0.9-5.9,1.2-8.7,2.2c-7.3,2.6-14.4,6.1-21.6,8.9c-10.2,4-19.4,9.9-27.5,16.7
		C43,56.5,30.1,71,22.5,89.2c-4.5,10.8-7.7,22-8.3,33.6c-0.6,11.8,0.6,23.8,0.5,35.6c-0.1,6.1,0,12.1,1.1,18
		c3.3,17.2,13.3,30.8,25.6,42.3c16.2,15.2,35.7,25.3,57,31.6c16,4.7,32.5,6.7,49.2,8.1c12.9,1,25.5-0.8,38.1-2
		c13.4-1.3,26.5-5.1,39-9.9c19.4-7.4,36.9-18.1,51.3-33.4c9.8-10.4,16.5-22.5,19.9-36.5C298.2,167.1,297.8,157.7,298.1,148.2z"/>
	<path fill="#4AA8A7" d="M298.1,148.2c-0.3,9.5,0.2,18.9-2.1,28.3c-3.4,14.1-10,26.1-19.9,36.5c-14.4,15.3-31.9,25.9-51.3,33.4
		c-12.6,4.8-25.7,8.6-39,9.9c-12.6,1.3-25.2,3.1-38.1,2c-16.7-1.3-33.2-3.4-49.2-8.1c-21.3-6.3-40.8-16.3-57-31.6
		c-12.3-11.6-22.3-25.1-25.6-42.3c-1.1-5.9-1.2-11.9-1.1-18c0.1-11.9-1.1-23.8-0.5-35.6c0.6-11.6,3.8-22.8,8.3-33.6
		C30.1,71,43,56.5,57.9,44.2c8.1-6.7,17.3-12.6,27.5-16.7c7.2-2.8,14.3-6.3,21.6-8.9c2.8-1,5.8-1.3,8.7-2.2
		c5.7-1.8,11.7-2.7,17.6-3.3c8.2-0.8,16.4-1.4,24.7-1.5c7.6-0.1,15.2,0.8,22.7,2.1c8.7,1.6,17.5,3,25.9,5.8
		c22.1,7.5,42.1,18.3,58.7,35.2c11,11.2,19.7,23.9,25.6,38.4c6.6,16.4,7.6,33.7,7.3,51.1C298,145.6,298.1,146.9,298.1,148.2z
		 M155.2,179.8c5.3,0.4,10.5-0.2,15.8-0.7c15.4-1.5,30.3-4.6,44.7-10.3c20.4-8.1,38.7-19.3,50.9-38.3c7.1-11.1,11.8-23.1,9.5-36.8
		c-3.1-18-13.1-31.8-26.8-43.1c-45.8-38-116.7-42.4-167.7-13.1C66.5,46.1,52.9,56.6,43.8,72c-13.4,22.6-11.4,39.7,1.8,59.3
		c13.6,20.1,33.7,32.7,57.1,40.1C119.9,176.8,137.3,179.5,155.2,179.8z"/>
	<path fill="#FEFEFE" d="M155.4,170.3c17.1,0.2,33.9-2.2,50.2-7.5c19.3-6.3,36.6-15.9,50-31.6c16.4-19.2,17.9-40,4.3-60.6
		c-4.9-7.4-11.1-13.8-18.2-19.1C200.5,21.4,155.5,16,107.6,31.5C87.6,37.9,70,48.7,56.4,65c-17.5,20.9-18,43.3-1.7,64.2
		c6.3,8.1,14,14.7,22.7,20.1C101.3,164.2,127.6,170,155.4,170.3z"/>
	<path fill="#4AA8A7" d="M155.4,170.3c-27.8-0.3-54.1-6.1-78-21c-8.7-5.4-16.4-12-22.7-20.1C38.4,108.3,38.9,85.9,56.4,65
		C70,48.7,87.6,37.9,107.6,31.5c47.9-15.4,92.9-10.1,134.1,20.1c7.2,5.3,13.3,11.6,18.2,19.1c13.6,20.6,12.1,41.4-4.3,60.6
		c-13.4,15.7-30.7,25.2-50,31.6C189.3,168.1,172.6,170.5,155.4,170.3z"/>
</g>
</svg>
