<?xml version="1.0" encoding="UTF-8"?>
<svg xmlns="http://www.w3.org/2000/svg" xmlns:xlink="http://www.w3.org/1999/xlink" width="1000pt" height="1000pt" viewBox="0 0 1000 1000">
<g id="surface1">
<path style=" stroke:none;fill-rule:nonzero;fill:rgb(20%,20%,20%);fill-opacity:1;" d="M 241.214844 73.1875 C 226.949219 72.898438 212.398438 76.375 199.15625 84.054688 C 160.625 106.398438 147.472656 155.789062 169.816406 194.320312 C 192.160156 232.851562 241.550781 245.9375 280.078125 223.59375 C 318.609375 201.253906 331.699219 151.925781 309.355469 113.394531 C 294.691406 88.109375 268.449219 73.746094 241.214844 73.1875 Z M 822.003906 106.492188 C 809.003906 106.855469 795.882812 110.375 783.839844 117.359375 C 745.3125 139.703125 732.222656 189.09375 754.566406 227.621094 C 776.910156 266.152344 826.234375 279.242188 864.765625 256.898438 C 903.296875 234.554688 916.382812 185.230469 894.042969 146.699219 C 878.679688 120.210938 850.601562 105.695312 822.003906 106.492188 Z M 93.941406 390.621094 C 79.675781 390.328125 65.191406 393.871094 51.945312 401.550781 C 13.414062 423.894531 0.261719 473.222656 22.605469 511.75 C 44.949219 550.28125 94.339844 563.371094 132.867188 541.027344 C 171.398438 518.683594 184.488281 469.359375 162.144531 430.828125 C 147.484375 405.542969 121.175781 391.179688 93.941406 390.621094 Z M 905.292969 534.953125 C 892.292969 535.316406 879.171875 538.839844 867.128906 545.820312 C 828.601562 568.164062 815.511719 617.492188 837.855469 656.023438 C 860.199219 694.550781 909.523438 707.703125 948.054688 685.359375 C 986.585938 663.019531 999.738281 613.691406 977.394531 575.160156 C 962.035156 548.671875 933.890625 534.15625 905.292969 534.953125 Z M 335.5625 765.519531 C 322.5625 765.878906 309.441406 769.402344 297.402344 776.386719 C 258.871094 798.726562 245.71875 848.117188 268.0625 886.648438 C 290.40625 925.179688 339.796875 938.265625 378.324219 915.925781 C 416.855469 893.582031 429.945312 844.253906 407.601562 805.726562 C 392.242188 779.234375 364.160156 764.722656 335.5625 765.519531 Z M 335.5625 765.519531 "/>
<path style=" stroke:none;fill-rule:nonzero;fill:rgb(20%,20%,20%);fill-opacity:1;" d="M 242.167969 140.738281 C 235.195312 141.046875 229.1875 145.746094 227.203125 152.4375 C 225.222656 159.128906 227.699219 166.34375 233.378906 170.402344 L 393.351562 289.054688 C 399.058594 279.738281 405.730469 270.984375 413.1875 262.992188 L 252.847656 144.15625 C 249.800781 141.792969 246.019531 140.582031 242.167969 140.738281 Z M 820.355469 170.644531 C 817.210938 170.585938 814.117188 171.433594 811.441406 173.085938 L 645 273 C 651.585938 281.710938 657.207031 291.191406 661.84375 301.136719 L 828.347656 201.164062 C 834.714844 197.46875 837.828125 189.980469 835.964844 182.859375 C 834.097656 175.742188 827.710938 170.742188 820.355469 170.644531 Z M 372.417969 385.914062 L 92.203125 455.800781 C 86.371094 457.066406 81.691406 461.410156 79.992188 467.128906 C 78.292969 472.851562 79.839844 479.042969 84.03125 483.289062 C 88.226562 487.539062 94.398438 489.164062 100.140625 487.539062 L 379.925781 417.777344 C 376.371094 407.855469 373.78125 397.574219 372.539062 387.015625 C 372.480469 386.648438 372.472656 386.28125 372.417969 385.914062 Z M 661.722656 435.355469 C 656.878906 445.148438 650.871094 454.351562 643.960938 462.820312 L 888.773438 621.632812 C 896.359375 626.570312 906.507812 624.425781 911.449219 616.839844 C 916.386719 609.257812 914.242188 599.105469 906.65625 594.167969 Z M 453.226562 502.613281 L 327.007812 831.839844 C 323.769531 840.300781 328.007812 849.78125 336.46875 853.019531 C 344.929688 856.253906 354.410156 852.019531 357.644531 843.558594 L 483.5625 514.945312 C 473.03125 511.964844 462.855469 507.832031 453.226562 502.613281 Z M 453.226562 502.613281 "/>
<path style=" stroke:none;fill-rule:nonzero;fill:rgb(0%,63.137255%,94.509804%);fill-opacity:1;" d="M 462.9375 261.492188 C 521.363281 227.609375 596.195312 247.511719 630.074219 305.9375 C 663.957031 364.363281 644.058594 439.195312 585.628906 473.078125 C 527.203125 506.957031 452.371094 487.058594 418.492188 428.628906 C 384.609375 370.203125 404.507812 295.371094 462.9375 261.492188 Z M 462.9375 261.492188 "/>
</g>
</svg>
