<?xml version="1.0" encoding="UTF-8"?>
<svg xmlns="http://www.w3.org/2000/svg" xmlns:xlink="http://www.w3.org/1999/xlink" width="1000pt" height="988pt" viewBox="0 0 1000 1000">
<g id="surface1">
<path style="fill-rule:nonzero;fill:rgb(0%,23.137255%,44.313725%);fill-opacity:1;stroke-width:0.6907;stroke-linecap:butt;stroke-linejoin:miter;stroke:rgb(0%,23.137255%,44.313725%);stroke-opacity:1;stroke-miterlimit:10;" d="M 223.800025 169.200019 C 223.800025 169.200019 219.999916 166.800082 234.7999 157.499991 C 249.599885 148.300121 245.499855 148.600114 244.299838 141.399968 C 244.299838 141.399968 249.000043 146.00007 232.700121 154.299964 C 216.399865 162.700078 223.000125 164.700137 223.800025 169.200019 Z M 223.800025 169.200019 " transform="matrix(11.6958,0,0,11.693015,-2039.153096,-1533.544307)"/>
<path style="fill-rule:nonzero;fill:rgb(0%,23.137255%,44.313725%);fill-opacity:1;stroke-width:0.6907;stroke-linecap:butt;stroke-linejoin:miter;stroke:rgb(0%,23.137255%,44.313725%);stroke-opacity:1;stroke-miterlimit:10;" d="M 225.000041 175.900066 C 225.000041 175.900066 224.000083 171.50007 241.000043 175.300081 C 258.000002 179.100093 254.800069 176.50005 259.100157 170.600093 C 259.100157 170.600093 259.200019 177.19992 241.799943 171.599956 C 224.399866 166.099877 227.600133 172.19994 225.000041 175.900066 Z M 225.000041 175.900066 " transform="matrix(11.6958,0,0,11.693015,-2039.153096,-1533.544307)"/>
<path style="fill-rule:nonzero;fill:rgb(0%,23.137255%,44.313725%);fill-opacity:1;stroke-width:0.6907;stroke-linecap:butt;stroke-linejoin:miter;stroke:rgb(0%,23.137255%,44.313725%);stroke-opacity:1;stroke-miterlimit:10;" d="M 219.299878 181.700136 C 219.299878 181.700136 221.800108 178.00001 230.600008 192.999951 C 239.399909 207.999892 239.199851 203.899888 246.399951 202.999911 C 246.399951 202.999911 241.70008 207.500127 233.799942 190.999892 C 226 174.499991 223.800025 180.999932 219.299878 181.700136 Z M 219.299878 181.700136 " transform="matrix(11.6958,0,0,11.693015,-2039.153096,-1533.544307)"/>
<path style="fill-rule:nonzero;fill:rgb(0%,23.137255%,44.313725%);fill-opacity:1;stroke-width:0.6907;stroke-linecap:butt;stroke-linejoin:miter;stroke:rgb(0%,23.137255%,44.313725%);stroke-opacity:1;stroke-miterlimit:10;" d="M 211.100153 180.900046 C 211.100153 180.900046 215.500103 180.300061 210.299919 196.899849 C 204.999873 213.49997 207.899886 210.599935 213.39999 215.299923 C 213.39999 215.299923 206.899927 214.800159 213.89997 197.999931 C 220.900012 181.200038 214.600007 183.800081 211.100153 180.900046 Z M 211.100153 180.900046 " transform="matrix(11.6958,0,0,11.693015,-2039.153096,-1533.544307)"/>
<path style="fill-rule:nonzero;fill:rgb(0%,23.137255%,44.313725%);fill-opacity:1;stroke-width:0.6907;stroke-linecap:butt;stroke-linejoin:miter;stroke:rgb(0%,23.137255%,44.313725%);stroke-opacity:1;stroke-miterlimit:10;" d="M 179.400071 195.999872 C 179.400071 195.999872 176.799979 192.399967 193.900135 189.100053 C 210.999957 185.80014 207.000123 184.599837 208.599923 177.499912 C 208.599923 177.499912 211.299877 183.500089 193.099901 185.399928 C 175.000121 187.19988 180.299833 191.49999 179.400071 195.999872 Z M 179.400071 195.999872 " transform="matrix(11.6958,0,0,11.693015,-2039.153096,-1533.544307)"/>
<path style="fill-rule:nonzero;fill:rgb(0%,23.137255%,44.313725%);fill-opacity:1;stroke-width:0.6907;stroke-linecap:butt;stroke-linejoin:miter;stroke:rgb(0%,23.137255%,44.313725%);stroke-opacity:1;stroke-miterlimit:10;" d="M 175.099983 170.999971 C 175.099983 170.999971 174.699866 166.500089 191.099984 172.30016 C 207.500103 178.099896 204.699952 175.099975 209.599881 169.700117 C 209.599881 169.700117 208.899844 176.200058 192.300001 168.69992 C 175.599962 161.200117 178.099858 167.599838 175.099983 170.999971 Z M 175.099983 170.999971 " transform="matrix(11.6958,0,0,11.693015,-2039.153096,-1533.544307)"/>
<path style="fill-rule:nonzero;fill:rgb(46.666667%,73.72549%,12.156863%);fill-opacity:1;stroke-width:0.6907;stroke-linecap:butt;stroke-linejoin:miter;stroke:rgb(46.666667%,73.72549%,12.156863%);stroke-opacity:1;stroke-miterlimit:10;" d="M 188.800147 142.599937 C 188.800147 142.599937 191.599963 139.099917 199.199847 154.800062 C 206.699869 170.499873 206.899927 166.399869 214.100028 165.999991 C 214.100028 165.999991 209.00004 170.099995 202.499977 153.00011 C 196.10011 136.099996 193.299959 142.400165 188.800147 142.599937 Z M 188.800147 142.599937 " transform="matrix(11.6958,0,0,11.693015,-2039.153096,-1533.544307)"/>
<path style="fill-rule:nonzero;fill:rgb(0%,23.137255%,44.313725%);fill-opacity:1;stroke-width:0.6907;stroke-linecap:butt;stroke-linejoin:miter;stroke:rgb(0%,23.137255%,44.313725%);stroke-opacity:1;stroke-miterlimit:10;" d="M 215.199849 131.499894 C 215.199849 131.499894 219.600133 130.800024 214.800066 147.500031 C 209.999998 164.200038 212.800149 161.200117 218.499978 165.799885 C 218.499978 165.799885 211.900053 165.499893 218.499978 148.499893 C 225.000041 131.400008 218.700037 134.300043 215.199849 131.499894 Z M 215.199849 131.499894 " transform="matrix(11.6958,0,0,11.693015,-2039.153096,-1533.544307)"/>
</g>
</svg>
