<?xml version="1.0" encoding="utf-8"?>
<!-- Generator: Adobe Illustrator 19.0.0, SVG Export Plug-In . SVG Version: 6.00 Build 0)  -->
<!DOCTYPE svg PUBLIC "-//W3C//DTD SVG 1.1//EN" "http://www.w3.org/Graphics/SVG/1.1/DTD/svg11.dtd">
<svg version="1.1" id="Layer_1" xmlns="http://www.w3.org/2000/svg" xmlns:xlink="http://www.w3.org/1999/xlink" x="0px" y="0px"
	 viewBox="-23 114.8 564.2 564.2" style="enable-background:new -23 114.8 564.2 564.2;" xml:space="preserve">
<style type="text/css">
	.st0{fill:#C0FFC0;}
	.st1{fill:#E6FFE6;}
	.st2{fill:#4CAF50;}
</style>
<circle class="st0" cx="259.1" cy="396.9" r="247"/>
<circle class="st1" cx="259.1" cy="396.9" r="237.2"/>
<g id="Layer_2">
	<g id="Layer_1_1_">
		<path class="st2" d="M68.2,479.6l94.2,12.2c4.1,0.1,5-2.4,3.1-6l-19.4-35.4c0,0-0.2,0-0.2-0.1c41.8-20.1,74.3-52.4,97.8-91.3v163
			h-38.4c-4.1,0-5.6,1.9-3.6,5.5l55.7,76.9c2,3.6,5.4,3.8,7.5,0.2l56.2-77c2-3.6,0.4-5.5-3.7-5.5h-42.3V360.7
			c23.5,38.2,55.8,69.8,97.1,89.6c0,0,0,0,0,0.1l-19.4,35.4c-1.9,3.6-1,6,3.1,6l94.2-12.2c4.1-0.1,6-3,3.8-6.5L413,387
			c-2.2-3.5-4.5-3-6.6,0.6L387,423v0.8c-40.6-19-72.6-54.3-91.7-89.5h-1.1c25.1-11.7,42.3-39.2,42.3-69.4
			c0-43.3-35.1-78.3-78.4-78.3s-78.4,35.1-78.4,78.4c0,30.5,17.5,56.9,42.9,69.8c-19.1,35.1-51,70.2-91.6,89.2v-0.5L111.6,388
			c-1.9-3.6-4.4-4.3-6.6-0.7l-40.9,85.9C62.2,476.7,64,479.5,68.2,479.6z M258.1,218c25.9,0,47,21.2,47,47s-21,47.1-47,47.1
			c-25.9,0-47-21.2-47-47S232.2,218,258.1,218z"/>
	</g>
</g>
</svg>
