<?xml version="1.0" encoding="utf-8"?>
<!-- Generator: Adobe Illustrator 18.1.1, SVG Export Plug-In . SVG Version: 6.00 Build 0)  -->
<svg version="1.1" id="Layer_1" xmlns="http://www.w3.org/2000/svg" xmlns:xlink="http://www.w3.org/1999/xlink" x="0px" y="0px"
	 viewBox="0 0 272.5 242" enable-background="new 0 0 272.5 242" xml:space="preserve">
<g>
	<path fill="#F3B401" d="M143.5,241.9c-21.5,0.1-43,0.3-64.5,0c-9.4-0.1-16-5.4-20.7-13.6c-14.2-24.9-28.6-49.6-42.9-74.4
		c-4.1-7.1-8.2-14.1-12.1-21.2c-3.9-7-4.5-14.5-0.8-21.6C9.9,97,17.9,83.2,26.4,69.7c0.1,3,0,6,1.6,8.6
		c8.1,13.9,16.3,27.9,24.4,41.8c0.4,1.1,0.6,2.3,1.1,3.2c13,22.6,26.1,45.1,39,67.7c1.5,2.7,3.5,2.9,6.2,2.9
		c17.9,0,35.9,0.1,53.8,0.1c-0.9,4.4-1.8,8.7-2.6,13.1C148,218.8,144.7,230.2,143.5,241.9z M86.5,218.3c-0.1-4.1-3.1-7.2-6.5-6.7
		c-3.5,0.4-5.8,2.3-5.7,6.3c0.1,3.7,2.8,6.3,6.4,6.1C84.5,223.6,86.2,221.3,86.5,218.3z M30.6,121.7c0.1-4.2-2.6-6.9-6.2-6.8
		c-3.7,0.2-5.8,2.2-6,5.9c-0.2,3.6,2.6,6.4,6.2,6.2C28.4,127,30.3,124.8,30.6,121.7z"/>
	<path fill="#DA4538" d="M237.5,55c11.4,18.3,22.1,37.1,32.4,56c3.9,7.2,3.2,14.9-0.9,22c-18.6,32.4-37.3,64.8-56.1,97.1
		c-4.2,7.2-10.8,11.6-19.2,11.7c-15.5,0.3-30.9,0-46.4-0.1c6.5-3.6,9.1-10.3,12.5-16.3c5.9-10.5,12.5-20.6,17.8-31.5
		c0.4-0.5,0.9-1,1.2-1.5c13.2-22.8,26.4-45.7,39.7-68.4c1.7-2.9,0.6-4.9-0.7-7.3c-8.9-15.5-17.8-31.1-26.7-46.6
		C206.5,65.1,222,60.1,237.5,55z M198.3,217.8c-0.1-3.6-3.3-6.6-6.7-6.2c-3.7,0.4-5.7,2.7-5.9,6.3c-0.1,3.3,3.3,6.4,6.6,6
		C196.1,223.5,197.9,221.1,198.3,217.8z M254.1,121.2c-0.3-3.6-2-5.9-5.8-6.2c-3.6-0.3-6.5,2.4-6.6,5.9c-0.1,3.5,2.7,6.4,6.3,6.3
		C251.7,127,253.6,124.8,254.1,121.2z"/>
	<path fill="#4285F3" d="M28.5,66.1c10.2-18.9,21-37.4,32.1-55.7C64.8,3.4,71.8,0.1,80,0.1c37.4-0.1,74.9-0.1,112.3,0
		c8.2,0,15.2,3.4,19.5,10.3c7.9,12.7,15.1,25.8,22.6,38.8c0.3,0.5,0.1,1.2,0.2,1.9c-2.2-0.7-4-2.1-6.5-2
		c-16.4,0.1-32.7,0.1-49.1,0.2c-2-1.1-4.1-1.2-6.2-1.1c-24.3,0-48.6,0.1-72.9-0.1c-4.3,0-6.4,1.5-8.5,5.1
		c-8.7,15.5-17.8,30.7-26.8,46.1c-3.6-4.8-8.8-8-13-12.1C44,79.9,35.3,74,28.5,66.1z M191.8,18.2c-3.4,0.1-6.4,3.1-6.1,6.5
		c0.4,3.6,2.6,5.7,6.2,5.9c3.3,0.2,6.4-3,6.4-6.3C198.3,20.9,195.3,18.1,191.8,18.2z M86.5,24.1c-0.1-3.4-2.7-5.9-6.1-5.9
		c-3.6,0-6.1,2.6-6.1,6.4c0.1,3.9,2.5,5.7,6,6C83.7,30.9,86.6,27.6,86.5,24.1z"/>
	<path fill="#DAA101" d="M177.6,194.1c-5.3,10.9-11.9,21-17.8,31.5c-3.4,6-5.9,12.7-12.5,16.3c-1.3,0-2.6,0-3.8,0
		c1.2-11.7,4.5-23,6.4-34.6c0.7-4.4,1.7-8.8,2.6-13.1C160.9,194.1,169.2,194.1,177.6,194.1z"/>
	<path fill="#3D77D8" d="M28.5,66.1c6.8,7.9,15.5,13.8,23,21c4.3,4.1,9.4,7.3,13,12.1c-3.6,7.3-7.7,14.3-12.1,21
		C44.3,106.2,36.2,92.3,28,78.3c-1.6-2.7-1.5-5.7-1.6-8.6C26.5,68.1,27.5,67.1,28.5,66.1z"/>
	<path fill="#C43D32" d="M178.9,49.2c16.4,0,32.7,0,49.1-0.2c2.5,0,4.4,1.3,6.5,2c0,0-0.1-0.1-0.1-0.1c0.3,0.4,0.6,0.8,1,1.2
		c0.5,1.1,2.1,1.4,2,2.9c-15.5,5-30.9,10.1-46.4,15.1C186.6,63.4,182.6,56.4,178.9,49.2z"/>
	<path fill="#4285F3" d="M235.5,52.1c-0.3-0.4-0.6-0.8-1-1.2C235.4,50.9,235.5,51.5,235.5,52.1z"/>
	<path fill="#CBCBCB" d="M178.9,49.2c3.6,7.2,7.7,14.3,12.2,21c8.9,15.6,17.8,31.1,26.7,46.6c1.4,2.4,2.4,4.4,0.7,7.3
		c-13.3,22.8-26.5,45.6-39.7,68.4c-0.3,0.6-0.8,1-1.2,1.5c-8.4,0-16.7,0-25.1,0.1c-17.9-0.1-35.9-0.1-53.8-0.1
		c-2.6,0-4.6-0.2-6.2-2.9c-12.9-22.6-26-45.1-39-67.7c-0.6-1-0.7-2.1-1.1-3.2c4.4-6.8,8.5-13.8,12.1-21c9-15.3,18.1-30.6,26.8-46.1
		c2.1-3.6,4.2-5.2,8.5-5.1c24.3,0.2,48.6,0.1,72.9,0.1C174.9,48,177,48,178.9,49.2z M172.5,121.3c0.9-20.3-17.1-36.1-35.5-36.6
		c-19.6-0.6-37.3,16.1-37.3,36.1c0,19.2,14.7,36.9,36.8,36.7C157.4,157.3,172.7,140.9,172.5,121.3z"/>
	<path fill="#FAFAFA" d="M86.5,218.3c-0.3,3-2,5.3-5.8,5.6c-3.6,0.3-6.3-2.3-6.4-6.1c-0.1-3.9,2.2-5.8,5.7-6.3
		C83.4,211.1,86.4,214.2,86.5,218.3z"/>
	<path fill="#FCFCFC" d="M30.6,121.7c-0.3,3.1-2.2,5.3-6,5.4c-3.6,0.1-6.4-2.7-6.2-6.2c0.2-3.7,2.3-5.8,6-5.9
		C28.1,114.8,30.7,117.5,30.6,121.7z"/>
	<path fill="#FAFAFA" d="M198.3,217.8c-0.4,3.3-2.2,5.7-5.9,6.1c-3.3,0.4-6.8-2.7-6.6-6c0.2-3.6,2.1-5.9,5.9-6.3
		C195,211.2,198.2,214.2,198.3,217.8z"/>
	<path fill="#FAFAFA" d="M254.1,121.2c-0.5,3.6-2.3,5.9-6.1,6c-3.6,0.1-6.4-2.7-6.3-6.3c0.1-3.5,3-6.2,6.6-5.9
		C252,115.2,253.7,117.6,254.1,121.2z"/>
	<path fill="#FAFAFA" d="M191.8,18.2c3.4-0.1,6.5,2.7,6.5,6.1c0,3.3-3.1,6.5-6.4,6.3c-3.6-0.2-5.8-2.3-6.2-5.9
		C185.4,21.3,188.4,18.3,191.8,18.2z"/>
	<path fill="#FAFAFA" d="M86.5,24.1c0.1,3.5-2.8,6.8-6.1,6.5c-3.5-0.3-5.9-2.1-6-6c-0.1-3.8,2.4-6.4,6.1-6.4
		C83.8,18.2,86.4,20.7,86.5,24.1z"/>
</g>
</svg>
