<svg id="Layer_1" data-name="Layer 1" xmlns="http://www.w3.org/2000/svg" xmlns:xlink="http://www.w3.org/1999/xlink" viewBox="0 0 400.22 400.17"><defs><style>.cls-1{fill:none;}.cls-2{fill:#fbfdfe;}.cls-3{fill:#f9fcfe;}.cls-4{clip-path:url(#clip-path);}.cls-5{fill:#1dabf6;}</style><clipPath id="clip-path" transform="translate(-1.47 -1.43)"><circle class="cls-1" cx="201.5" cy="201.84" r="200"/></clipPath></defs><title>hackster</title><path class="cls-2" d="M180.08,217.76c-13.5,0-27,0-40.49,0-5.47,0-6.75-1.33-6.8-6.8-.06-6.5-.14-13,0-19.5.13-4.72-2-6.64-6.59-6.6-12,.09-24,0-36,0-1.49,0-3.15.18-4.43-.39-2.58-1.17-3-3.21-.53-4.9a17.32,17.32,0,0,1,5.15-1.82q38-10.45,76.11-20.85c6.56-1.79,7.63-1,7.66,5.9,0,4.67,0,9.33,0,14,0,7.07.93,8,8.19,8h79c7.76,0,8.52.78,8.53,8.62,0,5.5,0,11,0,16.5,0,6.46,1.2,7.64,7.53,7.65,11.83,0,23.66,0,35.49,0a21.05,21.05,0,0,1,4.46.33,2.58,2.58,0,0,1,2,2.57,2.45,2.45,0,0,1-1.51,2.39,24.78,24.78,0,0,1-3.75,1.33q-39,10.69-78,21.35c-6.34,1.73-7.39.93-7.42-5.63,0-5,0-10,0-15-.06-5.75-1.35-7.09-7.06-7.11C207.74,217.73,193.91,217.76,180.08,217.76Z" transform="translate(-1.47 -1.43)"/><path class="cls-2" d="M269.89,136.76c0,9.48,0,19,0,28.44,0,5.44-1.39,6.87-6.73,6.92-9.31.08-18.63,0-27.94,0-4.57,0-6.63-2-6.6-6.68.1-15.8.07-31.6,0-47.39,0-4.3,1.92-6.73,6.1-7.83q14.7-3.86,29.32-8.06c4.35-1.25,5.86.54,5.85,4.64C269.86,116.81,269.89,126.79,269.89,136.76Z" transform="translate(-1.47 -1.43)"/><path class="cls-3" d="M132.77,266.74c0-9.65,0-19.3,0-29,0-5.31,1.52-6.84,6.84-6.89,9.32-.08,18.64,0,28,0,4.58,0,6.62,2,6.59,6.69-.1,15.81-.08,31.62,0,47.42,0,4.32-1.93,6.72-6.12,7.82-9.81,2.56-19.59,5.27-29.34,8-4.32,1.23-5.92-.58-5.92-4.65Q132.77,281.46,132.77,266.74Z" transform="translate(-1.47 -1.43)"/><path class="cls-3" d="M153.34,148.3c-4.65,0-9.3-.07-14,0-3.38.07-6.12-.89-6.51-4.6s1.62-6,5.07-7c8-2.26,16-4.24,24-6.6,13.21-3.91,12.25-2.71,12.18,9.38,0,8.08-.74,8.81-8.83,8.82Z" transform="translate(-1.47 -1.43)"/><path class="cls-3" d="M249.45,254.72c4.82,0,9.63,0,14.45,0,2.94,0,5.33.83,5.86,4.11.5,3.12-.57,6-3.59,6.91-11,3.26-22,6.22-33.09,9.15-2.58.68-4.08-.79-4.38-3.41a8.5,8.5,0,0,1,0-1c0-16.7-1.65-15.93,14.82-15.77C245.46,254.73,247.46,254.72,249.45,254.72Z" transform="translate(-1.47 -1.43)"/><g class="cls-4"><path class="cls-5" d="M201.07,401.51q-97.72,0-195.44.09c-3.31,0-4.16-.5-4.15-4q.18-195.94,0-391.88c0-3.8,1-4.26,4.43-4.26q195.69.14,391.38,0c3.46,0,4.42.52,4.41,4.28q-.2,195.94,0,391.88c0,3.57-.9,4-4.17,4Q299.29,401.43,201.07,401.51Zm-21-183.75c13.83,0,27.66,0,41.49,0,5.71,0,7,1.36,7.06,7.11,0,5,0,10,0,15,0,6.55,1.08,7.36,7.42,5.63q39-10.65,78-21.35a24.78,24.78,0,0,0,3.75-1.33,2.45,2.45,0,0,0,1.51-2.39,2.58,2.58,0,0,0-2-2.57,21.05,21.05,0,0,0-4.46-.33c-11.83,0-23.66,0-35.49,0-6.33,0-7.48-1.2-7.53-7.65,0-5.5,0-11,0-16.5,0-7.84-.77-8.61-8.53-8.62h-79c-7.26,0-8.16-.89-8.19-8,0-4.67,0-9.33,0-14,0-6.86-1.1-7.69-7.66-5.9q-38.06,10.41-76.11,20.85a17.32,17.32,0,0,0-5.15,1.82c-2.49,1.69-2,3.73.53,4.9,1.28.58,2.94.39,4.43.39,12,0,24,.08,36,0,4.61,0,6.72,1.88,6.59,6.6-.17,6.49-.09,13,0,19.5,0,5.48,1.34,6.79,6.8,6.8C153.09,217.78,166.58,217.75,180.08,217.76Zm89.81-81c0-10,0-20,0-29.93,0-4.1-1.5-5.89-5.85-4.64q-14.61,4.19-29.32,8.06c-4.18,1.1-6.12,3.53-6.1,7.83.05,15.8.08,31.6,0,47.39,0,4.65,2,6.71,6.6,6.68,9.31-.05,18.63,0,27.94,0,5.34,0,6.7-1.48,6.73-6.92C269.93,155.72,269.89,146.24,269.89,136.76Zm-137.12,130q0,14.73,0,29.45c0,4.07,1.6,5.88,5.92,4.65,9.75-2.78,19.53-5.49,29.34-8,4.19-1.09,6.13-3.5,6.12-7.82-.05-15.81-.08-31.62,0-47.42,0-4.65-2-6.72-6.59-6.69-9.32.06-18.64,0-28,0-5.32,0-6.81,1.58-6.84,6.89C132.72,247.44,132.76,257.09,132.77,266.74Zm20.58-118.43h12c8.09,0,8.79-.73,8.83-8.82.07-12.09,1-13.29-12.18-9.38-8,2.35-16,4.34-24,6.6-3.44,1-5.44,3.41-5.07,7s3.13,4.67,6.51,4.6C144,148.23,148.69,148.3,153.34,148.31Zm96.11,106.41c-2,0-4,0-6,0-16.47-.16-14.8-.94-14.82,15.77a8.5,8.5,0,0,0,0,1c.31,2.62,1.81,4.09,4.38,3.41,11.06-2.93,22.12-5.89,33.09-9.15,3-.9,4.09-3.78,3.59-6.91-.53-3.28-2.92-4.12-5.86-4.11C259.08,254.74,254.27,254.73,249.45,254.72Z" transform="translate(-1.47 -1.43)"/></g></svg>