<?xml version="1.0" ?><!DOCTYPE svg  PUBLIC '-//W3C//DTD SVG 1.1//EN'  'http://www.w3.org/Graphics/SVG/1.1/DTD/svg11.dtd'><svg enable-background="new 0 0 512 512" height="512px" id="Layer_1" version="1.1" viewBox="0 0 512 512" width="512px" xml:space="preserve" xmlns="http://www.w3.org/2000/svg" xmlns:xlink="http://www.w3.org/1999/xlink"><g><path d="M440,48H72c-30.93,0-56,25.063-56,56v304c0,30.922,25.07,56,56,56h368c30.93,0,56-25.078,56-56V104   C496,73.063,470.93,48,440,48z M416,88.672c0-4.797,3.883-8.672,8.672-8.672h14.656c4.789,0,8.672,3.875,8.672,8.672v14.656   c0,4.797-3.883,8.672-8.672,8.672h-14.656c-4.789,0-8.672-3.875-8.672-8.672V88.672z M352,88.672c0-4.797,3.883-8.672,8.672-8.672   h14.656c4.789,0,8.672,3.875,8.672,8.672v14.656c0,4.797-3.883,8.672-8.672,8.672h-14.656c-4.789,0-8.672-3.875-8.672-8.672V88.672   z M288,88.672c0-4.797,3.883-8.672,8.672-8.672h14.656c4.789,0,8.672,3.875,8.672,8.672v14.656c0,4.797-3.883,8.672-8.672,8.672   h-14.656c-4.789,0-8.672-3.875-8.672-8.672V88.672z M464,408c0,13.234-10.766,24-24,24H72c-13.234,0-24-10.766-24-24V144h416V408z    M80,315.5v-71c0-2.484,2.016-4.5,4.5-4.5h7c2.484,0,4.5,2.016,4.5,4.5V272h16c8.836,0,16,7.156,16,16v27.5   c0,2.484-2.016,4.5-4.5,4.5h-7c-2.484,0-4.5-2.016-4.5-4.5v-23c0-2.484-2.016-4.5-4.5-4.5H96v27.5c0,2.484-2.016,4.5-4.5,4.5h-7   C82.016,320,80,317.984,80,315.5z M276.5,352h7c2.484,0,4.5-2.016,4.5-4.5V320h16c8.836,0,16-7.156,16-16v-32   c0-8.844-7.164-16-16-16h-16h-11.5c-2.484,0-4.5,2.016-4.5,4.5V320v27.5C272,349.984,274.016,352,276.5,352z M288,272h11.5   c2.484,0,4.5,2.016,4.5,4.5v23c0,2.484-2.016,4.5-4.5,4.5H288V272z M336,267.5v-7c0-2.484,2.016-4.5,4.5-4.5h7   c2.484,0,4.5,2.016,4.5,4.5v7c0,2.484-2.016,4.5-4.5,4.5h-7C338.016,272,336,269.984,336,267.5z M336,315.5v-7   c0-2.484,2.016-4.5,4.5-4.5h7c2.484,0,4.5,2.016,4.5,4.5v7c0,2.484-2.016,4.5-4.5,4.5h-7C338.016,320,336,317.984,336,315.5z    M369.086,334.422c-0.859-1-1.234-2.328-1.031-3.625l16.103-102.984c0.344-2.203,2.227-3.813,4.444-3.813h6.898   c1.313,0,2.563,0.578,3.422,1.578c0.852,1,1.227,2.313,1.023,3.625l-16.094,102.984c-0.345,2.203-2.228,3.813-4.445,3.813H372.5   C371.188,336,369.938,335.422,369.086,334.422z M401.086,334.422c-0.859-1-1.234-2.328-1.031-3.625l16.103-102.984   c0.344-2.203,2.227-3.813,4.444-3.813h6.898c1.313,0,2.563,0.578,3.422,1.578c0.852,1,1.227,2.313,1.023,3.625l-16.094,102.984   c-0.345,2.203-2.228,3.813-4.445,3.813H404.5C403.188,336,401.938,335.422,401.086,334.422z M144,267.5v-7   c0-2.484,2.016-4.5,4.5-4.5H160v-11.5c0-2.484,2.016-4.5,4.5-4.5h7c2.484,0,4.5,2.016,4.5,4.5V256h11.5c2.484,0,4.5,2.016,4.5,4.5   v7c0,2.484-2.016,4.5-4.5,4.5H176v27.5c0,2.484,2.016,4.5,4.5,4.5h7c2.484,0,4.5,2.016,4.5,4.5v7c0,2.484-2.016,4.5-4.5,4.5H176   c-8.836,0-16-7.156-16-16v-32h-11.5C146.016,272,144,269.984,144,267.5z M208,267.5v-7c0-2.484,2.016-4.5,4.5-4.5H224v-11.5   c0-2.484,2.016-4.5,4.5-4.5h7c2.484,0,4.5,2.016,4.5,4.5V256h11.5c2.484,0,4.5,2.016,4.5,4.5v7c0,2.484-2.016,4.5-4.5,4.5H240v27.5   c0,2.484,2.016,4.5,4.5,4.5h7c2.484,0,4.5,2.016,4.5,4.5v7c0,2.484-2.016,4.5-4.5,4.5H240c-8.836,0-16-7.156-16-16v-32h-11.5   C210.016,272,208,269.984,208,267.5z" fill="#4D4D4D"/></g></svg>