<?xml version="1.0" encoding="utf-8"?>
<!-- Generator: Adobe Illustrator 20.0.0, SVG Export Plug-In . SVG Version: 6.00 Build 0)  -->
<svg version="1.1" xmlns="http://www.w3.org/2000/svg" xmlns:xlink="http://www.w3.org/1999/xlink" x="0px" y="0px"
	 viewBox="0 0 310.9 300" style="enable-background:new 0 0 310.9 300;" xml:space="preserve">
<style type="text/css">
	.st0{fill:#FFFFFF;}
	.st1{fill:#808080;}
	.st2{fill:#CCCCCC;}
	.st3{fill:#F2F2F2;}
	.st4{fill:#E6E6E6;}
</style>
<g id="Layer_1">
	<g>
		<path class="st0" d="M61.5,298c-29.8,0-54-24.2-54-54V56c0-29.8,24.2-54,54-54h188c29.8,0,54,24.2,54,54v188c0,29.8-24.2,54-54,54
			H61.5z"/>
		<path class="st1" d="M249.5,4c28.7,0,52,23.3,52,52v188c0,28.7-23.3,52-52,52h-188c-28.7,0-52-23.3-52-52V56c0-28.7,23.3-52,52-52
			H249.5 M249.5,0h-188c-30.8,0-56,25.2-56,56v188c0,30.8,25.2,56,56,56h188c30.8,0,56-25.2,56-56V56C305.5,25.2,280.3,0,249.5,0
			L249.5,0z"/>
	</g>
	<g>
		<path class="st0" d="M64.5,294.5C35,294.5,11,270.5,11,241V59C11,29.5,35,5.5,64.5,5.5h182C276,5.5,300,29.5,300,59v182
			c0,29.5-24,53.5-53.5,53.5H64.5z"/>
		<path class="st2" d="M246.5,8c28.1,0,51,22.9,51,51v182c0,28.1-22.9,51-51,51h-182c-28.1,0-51-22.9-51-51V59c0-28.1,22.9-51,51-51
			H246.5 M246.5,3h-182c-30.8,0-56,25.2-56,56v182c0,30.8,25.2,56,56,56h182c30.8,0,56-25.2,56-56V59C302.5,28.2,277.3,3,246.5,3
			L246.5,3z"/>
	</g>
</g>
<g id="Layer_2">
	<g>
		<path class="st3" d="M155.5,190.4c-22.3,0-40.4-18.1-40.4-40.4s18.1-40.4,40.4-40.4s40.4,18.1,40.4,40.4S177.8,190.4,155.5,190.4z
			"/>
		<path class="st2" d="M155.5,116.1c18.7,0,33.9,15.2,33.9,33.9s-15.2,33.9-33.9,33.9s-33.9-15.2-33.9-33.9S136.8,116.1,155.5,116.1
			 M155.5,103.1c-25.9,0-46.9,21-46.9,46.9c0,25.9,21,46.9,46.9,46.9s46.9-21,46.9-46.9C202.4,124.1,181.4,103.1,155.5,103.1
			L155.5,103.1z"/>
	</g>
	<g>
		<path class="st2" d="M155.5,186.5c-20.1,0-36.5-16.4-36.5-36.5s16.4-36.5,36.5-36.5S192,129.9,192,150S175.6,186.5,155.5,186.5z"
			/>
		<path class="st4" d="M155.5,117c18.2,0,33,14.8,33,33s-14.8,33-33,33s-33-14.8-33-33S137.3,117,155.5,117 M155.5,110
			c-22.1,0-40,17.9-40,40s17.9,40,40,40s40-17.9,40-40S177.6,110,155.5,110L155.5,110z"/>
	</g>
	<g>
		<path class="st4" d="M155.5,181c-17.1,0-31-13.9-31-31s13.9-31,31-31s31,13.9,31,31S172.6,181,155.5,181z"/>
		<path class="st3" d="M155.5,121.5c15.7,0,28.5,12.8,28.5,28.5s-12.8,28.5-28.5,28.5S127,165.7,127,150S139.8,121.5,155.5,121.5
			 M155.5,116.5c-18.5,0-33.5,15-33.5,33.5s15,33.5,33.5,33.5s33.5-15,33.5-33.5S174,116.5,155.5,116.5L155.5,116.5z"/>
	</g>
	<g>
		<path d="M155.5,66.5c-5,0-9-4-9-9s4-9,9-9s9,4,9,9S160.5,66.5,155.5,66.5z"/>
		<path class="st1" d="M155.5,49.5c4.4,0,8,3.6,8,8s-3.6,8-8,8s-8-3.6-8-8S151.1,49.5,155.5,49.5 M155.5,47.5c-5.5,0-10,4.5-10,10
			c0,5.5,4.5,10,10,10s10-4.5,10-10C165.5,52,161,47.5,155.5,47.5L155.5,47.5z"/>
	</g>
</g>
</svg>
