<?xml version="1.0" encoding="UTF-8" standalone="no"?>
<svg width="1672px" height="1995px" viewBox="0 0 1672 1995" version="1.1" xmlns="http://www.w3.org/2000/svg" xmlns:xlink="http://www.w3.org/1999/xlink">
    <!-- Generator: Sketch 39.1 (31720) - http://www.bohemiancoding.com/sketch -->
    <title>Slice 1</title>
    <desc>Created with Sketch.</desc>
    <defs></defs>
    <g id="Page-1" stroke="none" stroke-width="1" fill="none" fill-rule="evenodd">
        <g id="hue-light">
            <g id="surface1-copy" opacity="0.75" transform="translate(626.000000, 194.000000)">
                <path d="M120.1,520.6 C81.5,417.7 0.3,309.7 0.3,208.1 C3.9,-22.2 314.4,1.2 516,1.2 C728.8,1.2 1045.7,-22.2 1045.7,208.1 C1045.7,314.6 965.7,415.3 926,520.5 L120.1,520.6 L120.1,520.6 Z" id="Shape" fill="#FFEE93"></path>
                <path d="M315.4,1392.8 C315.4,1694.4 316,1702.3 316,1702.3 C316,1768.8 421.9,1800.5 516,1800.5 C620.1,1800.5 744,1773.1 744,1695.3 L744,1391.8 L315.4,1392.8 L315.4,1392.8 Z" id="Shape" fill="#AFAFAF"></path>
                <path d="M119.6,520.3 L926.4,520.3 C798.9,754.1 832.9,1033.6 807.1,1316.5 C787.2,1371.5 781.4,1377.3 726.4,1397.2 C593.1,1396 459.8,1394.9 326.5,1393.7 C262.2,1390.2 257.5,1383.2 238.8,1320 C216.6,1046.4 248.8,744 119.6,520.3 L119.6,520.3 Z" id="Shape" fill="#E2E2E2"></path>
                <path d="M618.2,1168.3 L618.2,1149.5 C642.7,1149.1 643.7,1148.8 651.7,1149 C664.1,1149.3 671.6,1152.9 677,1158.3 C682.2,1163.6 686.3,1171.6 686.1,1183.2 C686,1189.9 681.8,1214.6 651.9,1216.1 C648.4,1216.4 640.3,1216.1 635.2,1216.3 L640.3,1197 C652.2,1198 661.6,1194.2 662.1,1183 C662.6,1170.4 651.5,1166.4 640.3,1168.3 L618.2,1168.3" id="Shape" fill="#666666"></path>
                <polyline id="Shape" fill="#666666" points="640.3 1234.5 618.2 1234.5 618.2 1164.3 640.3 1164.4 640.3 1234.5"></polyline>
                <path d="M719.6,1179.5 L737.7,1186 C749.8,1190.8 752.3,1200.4 752.2,1208.8 C751.9,1228.1 736.5,1235.3 724.2,1236.4 C710.2,1237.6 699.4,1235.2 695.8,1234.7 L695.8,1213.7 C706.9,1217.1 719.7,1216.9 724.1,1215.2 C727.4,1213.9 729.9,1212 729.7,1209.4 C729.6,1208 729.5,1206.2 725.3,1204.5 L708.6,1198.4 C697.9,1194.5 693.7,1184.3 694.2,1175.3 C695.1,1157 709.8,1147.7 724.4,1148.2 C728.9,1148.4 735,1148.3 743.8,1149.5 L743.8,1170.3 C733.9,1168 729.2,1168 724.1,1168.7 C718.4,1169.4 715.8,1172.4 715.9,1175.5 C716.1,1176.9 717.7,1178.6 719.6,1179.5" id="Shape" fill="#666666"></path>
                <polyline id="Shape" fill="#666666" points="409.6 1181.2 433.4 1181.2 433.4 1149.6 455.5 1149.6 455.5 1234.5 433.4 1234.5 433.4 1200.4 409.6 1200.4 409.6 1234.5 387.5 1234.5 387.5 1149.6 409.6 1149.6 409.6 1181.2"></polyline>
                <polygon id="Shape" fill="#666666" points="476.3 1149.6 498.4 1149.6 498.4 1234.5 476.3 1234.5"></polygon>
                <polygon id="Shape" fill="#666666" points="575 1149.6 597.1 1149.6 597.1 1234.5 575 1234.5"></polygon>
                <polyline id="Shape" fill="#666666" points="541.3 1215.2 564.1 1215.2 564.1 1234.5 519.2 1234.5 519.2 1149.6 541.3 1149.6 541.3 1215.2"></polyline>
                <path d="M308.8,1168.3 L308.8,1149.5 C333.3,1149.1 334.3,1148.8 342.3,1149 C354.7,1149.3 362.2,1152.9 367.6,1158.3 C372.8,1163.6 376.9,1171.6 376.7,1183.2 C376.6,1189.9 372.4,1214.6 342.5,1216.1 C339,1216.4 331.2,1216.1 326,1216.3 L330.8,1197 C342.7,1198 352.1,1194.2 352.6,1183 C353.1,1170.4 342,1166.4 330.8,1168.3 L308.8,1168.3" id="Shape" fill="#666666"></path>
                <polyline id="Shape" fill="#666666" points="330.9 1234.5 308.8 1234.5 308.8 1165.7 330.9 1165.8 330.9 1234.5"></polyline>
            </g>
            <g id="surface1-copy-2" opacity="0.75" transform="translate(0.000000, 194.000000)">
                <path d="M120.1,520.6 C81.5,417.7 0.3,309.7 0.3,208.1 C3.9,-22.2 314.4,1.2 516,1.2 C728.8,1.2 1045.7,-22.2 1045.7,208.1 C1045.7,314.6 965.7,415.3 926,520.5 L120.1,520.6 L120.1,520.6 Z" id="Shape" fill="#FFEE93"></path>
                <path d="M315.4,1392.8 C315.4,1694.4 316,1702.3 316,1702.3 C316,1768.8 421.9,1800.5 516,1800.5 C620.1,1800.5 744,1773.1 744,1695.3 L744,1391.8 L315.4,1392.8 L315.4,1392.8 Z" id="Shape" fill="#AFAFAF"></path>
                <path d="M119.6,520.3 L926.4,520.3 C798.9,754.1 832.9,1033.6 807.1,1316.5 C787.2,1371.5 781.4,1377.3 726.4,1397.2 C593.1,1396 459.8,1394.9 326.5,1393.7 C262.2,1390.2 257.5,1383.2 238.8,1320 C216.6,1046.4 248.8,744 119.6,520.3 L119.6,520.3 Z" id="Shape" fill="#E2E2E2"></path>
                <path d="M618.2,1168.3 L618.2,1149.5 C642.7,1149.1 643.7,1148.8 651.7,1149 C664.1,1149.3 671.6,1152.9 677,1158.3 C682.2,1163.6 686.3,1171.6 686.1,1183.2 C686,1189.9 681.8,1214.6 651.9,1216.1 C648.4,1216.4 640.3,1216.1 635.2,1216.3 L640.3,1197 C652.2,1198 661.6,1194.2 662.1,1183 C662.6,1170.4 651.5,1166.4 640.3,1168.3 L618.2,1168.3" id="Shape" fill="#666666"></path>
                <polyline id="Shape" fill="#666666" points="640.3 1234.5 618.2 1234.5 618.2 1164.3 640.3 1164.4 640.3 1234.5"></polyline>
                <path d="M719.6,1179.5 L737.7,1186 C749.8,1190.8 752.3,1200.4 752.2,1208.8 C751.9,1228.1 736.5,1235.3 724.2,1236.4 C710.2,1237.6 699.4,1235.2 695.8,1234.7 L695.8,1213.7 C706.9,1217.1 719.7,1216.9 724.1,1215.2 C727.4,1213.9 729.9,1212 729.7,1209.4 C729.6,1208 729.5,1206.2 725.3,1204.5 L708.6,1198.4 C697.9,1194.5 693.7,1184.3 694.2,1175.3 C695.1,1157 709.8,1147.7 724.4,1148.2 C728.9,1148.4 735,1148.3 743.8,1149.5 L743.8,1170.3 C733.9,1168 729.2,1168 724.1,1168.7 C718.4,1169.4 715.8,1172.4 715.9,1175.5 C716.1,1176.9 717.7,1178.6 719.6,1179.5" id="Shape" fill="#666666"></path>
                <polyline id="Shape" fill="#666666" points="409.6 1181.2 433.4 1181.2 433.4 1149.6 455.5 1149.6 455.5 1234.5 433.4 1234.5 433.4 1200.4 409.6 1200.4 409.6 1234.5 387.5 1234.5 387.5 1149.6 409.6 1149.6 409.6 1181.2"></polyline>
                <polygon id="Shape" fill="#666666" points="476.3 1149.6 498.4 1149.6 498.4 1234.5 476.3 1234.5"></polygon>
                <polygon id="Shape" fill="#666666" points="575 1149.6 597.1 1149.6 597.1 1234.5 575 1234.5"></polygon>
                <polyline id="Shape" fill="#666666" points="541.3 1215.2 564.1 1215.2 564.1 1234.5 519.2 1234.5 519.2 1149.6 541.3 1149.6 541.3 1215.2"></polyline>
                <path d="M308.8,1168.3 L308.8,1149.5 C333.3,1149.1 334.3,1148.8 342.3,1149 C354.7,1149.3 362.2,1152.9 367.6,1158.3 C372.8,1163.6 376.9,1171.6 376.7,1183.2 C376.6,1189.9 372.4,1214.6 342.5,1216.1 C339,1216.4 331.2,1216.1 326,1216.3 L330.8,1197 C342.7,1198 352.1,1194.2 352.6,1183 C353.1,1170.4 342,1166.4 330.8,1168.3 L308.8,1168.3" id="Shape" fill="#666666"></path>
                <polyline id="Shape" fill="#666666" points="330.9 1234.5 308.8 1234.5 308.8 1165.7 330.9 1165.8 330.9 1234.5"></polyline>
            </g>
            <g id="surface1" transform="translate(296.000000, 0.000000)">
                <path d="M120.1,520.6 C81.5,417.7 0.3,309.7 0.3,208.1 C3.9,-22.2 314.4,1.2 516,1.2 C728.8,1.2 1045.7,-22.2 1045.7,208.1 C1045.7,314.6 965.7,415.3 926,520.5 L120.1,520.6 L120.1,520.6 Z" id="Shape" fill="#FFEE93"></path>
                <path d="M315.4,1392.8 C315.4,1694.4 316,1702.3 316,1702.3 C316,1768.8 421.9,1800.5 516,1800.5 C620.1,1800.5 744,1773.1 744,1695.3 L744,1391.8 L315.4,1392.8 L315.4,1392.8 Z" id="Shape" fill="#AFAFAF"></path>
                <path d="M119.6,520.3 L926.4,520.3 C798.9,754.1 832.9,1033.6 807.1,1316.5 C787.2,1371.5 781.4,1377.3 726.4,1397.2 C593.1,1396 459.8,1394.9 326.5,1393.7 C262.2,1390.2 257.5,1383.2 238.8,1320 C216.6,1046.4 248.8,744 119.6,520.3 L119.6,520.3 Z" id="Shape" fill="#E2E2E2"></path>
                <path d="M618.2,1168.3 L618.2,1149.5 C642.7,1149.1 643.7,1148.8 651.7,1149 C664.1,1149.3 671.6,1152.9 677,1158.3 C682.2,1163.6 686.3,1171.6 686.1,1183.2 C686,1189.9 681.8,1214.6 651.9,1216.1 C648.4,1216.4 640.3,1216.1 635.2,1216.3 L640.3,1197 C652.2,1198 661.6,1194.2 662.1,1183 C662.6,1170.4 651.5,1166.4 640.3,1168.3 L618.2,1168.3" id="Shape" fill="#666666"></path>
                <polyline id="Shape" fill="#666666" points="640.3 1234.5 618.2 1234.5 618.2 1164.3 640.3 1164.4 640.3 1234.5"></polyline>
                <path d="M719.6,1179.5 L737.7,1186 C749.8,1190.8 752.3,1200.4 752.2,1208.8 C751.9,1228.1 736.5,1235.3 724.2,1236.4 C710.2,1237.6 699.4,1235.2 695.8,1234.7 L695.8,1213.7 C706.9,1217.1 719.7,1216.9 724.1,1215.2 C727.4,1213.9 729.9,1212 729.7,1209.4 C729.6,1208 729.5,1206.2 725.3,1204.5 L708.6,1198.4 C697.9,1194.5 693.7,1184.3 694.2,1175.3 C695.1,1157 709.8,1147.7 724.4,1148.2 C728.9,1148.4 735,1148.3 743.8,1149.5 L743.8,1170.3 C733.9,1168 729.2,1168 724.1,1168.7 C718.4,1169.4 715.8,1172.4 715.9,1175.5 C716.1,1176.9 717.7,1178.6 719.6,1179.5" id="Shape" fill="#666666"></path>
                <polyline id="Shape" fill="#666666" points="409.6 1181.2 433.4 1181.2 433.4 1149.6 455.5 1149.6 455.5 1234.5 433.4 1234.5 433.4 1200.4 409.6 1200.4 409.6 1234.5 387.5 1234.5 387.5 1149.6 409.6 1149.6 409.6 1181.2"></polyline>
                <polygon id="Shape" fill="#666666" points="476.3 1149.6 498.4 1149.6 498.4 1234.5 476.3 1234.5"></polygon>
                <polygon id="Shape" fill="#666666" points="575 1149.6 597.1 1149.6 597.1 1234.5 575 1234.5"></polygon>
                <polyline id="Shape" fill="#666666" points="541.3 1215.2 564.1 1215.2 564.1 1234.5 519.2 1234.5 519.2 1149.6 541.3 1149.6 541.3 1215.2"></polyline>
                <path d="M308.8,1168.3 L308.8,1149.5 C333.3,1149.1 334.3,1148.8 342.3,1149 C354.7,1149.3 362.2,1152.9 367.6,1158.3 C372.8,1163.6 376.9,1171.6 376.7,1183.2 C376.6,1189.9 372.4,1214.6 342.5,1216.1 C339,1216.4 331.2,1216.1 326,1216.3 L330.8,1197 C342.7,1198 352.1,1194.2 352.6,1183 C353.1,1170.4 342,1166.4 330.8,1168.3 L308.8,1168.3" id="Shape" fill="#666666"></path>
                <polyline id="Shape" fill="#666666" points="330.9 1234.5 308.8 1234.5 308.8 1165.7 330.9 1165.8 330.9 1234.5"></polyline>
            </g>
        </g>
    </g>
</svg>