<?xml version="1.0" encoding="utf-8"?>
<!-- Generator: Adobe Illustrator 18.1.1, SVG Export Plug-In . SVG Version: 6.00 Build 0)  -->
<svg version="1.0" id="Layer_1" xmlns="http://www.w3.org/2000/svg" xmlns:xlink="http://www.w3.org/1999/xlink" x="0px" y="0px"
	 viewBox="0 0 122.8 95" enable-background="new 0 0 122.8 95" xml:space="preserve">
<g>
	<path fill="#4FBBC7" d="M114.8,46.6c-1.3,0-2.7-0.1-4,0c-3.4,0.3-4.9-1.2-4.5-4.6c0.2-2,0.1-4,0-6c-0.3-5.5-3.4-9.4-8.5-11.1
		c-4.9-1.6-10.1,0-13.3,4.4c-3.2,4.4-6.3,9-9.2,13.6c-1.7,2.7-3.7,3.9-6.9,3.7c-3.8-0.2-7.6,0-11.5-0.2c-2.2-0.1-3-1.1-1.6-3.2
		c5.9-8.5,11.3-17.3,17.7-25.4c7.3-9.1,19.8-12,30.8-8.1c11.1,3.9,18.5,14.2,19,26.2c0,0.8,0,1.7,0,2.5
		C122.7,47.5,123.7,46.6,114.8,46.6z"/>
	<path fill="#4FBBC7" d="M0.1,59c0-1.3,0.1-2.7,0-4c-0.3-2.7,0.7-4.2,3.6-3.9c0.7,0.1,1.3,0,2,0c10.2,0,10.2,0,10.9,10.2
		c0.4,5.7,3.3,9.7,8.3,11.2c5.1,1.6,10.4,0,13.7-4.6c3.1-4.3,6.2-8.7,9-13.2c1.7-2.8,3.8-3.8,7-3.6c3.5,0.2,7,0.1,10.5,0
		c2.6,0,4.1,0.7,2.2,3.5c-5.7,8.4-11,17.1-17.4,25c-7.5,9.4-20.2,12.2-31.3,8C6.9,83.2,0.2,72.8,0.1,59z"/>
	<path fill="#4FBBC7" d="M122.8,59.4c-0.1,10.1,1,8.3-10.1,8.4c-7.8,0.1-6.1,0.4-6.3-10.7c-0.1-5.9,0-5.9,10.1-5.9
		C122.8,51.2,122.8,51.2,122.8,59.4z"/>
	<path fill="#4FBBC7" d="M16.2,38.5c0,7.7,0,7.5-10.1,7.9c-4.7,0.2-6.3-1.1-6.1-6c0.4-10.2,0.1-10.3,9.7-10.2
		C17.5,30.2,16.1,29.5,16.2,38.5z"/>
</g>
</svg>
