<?xml version="1.0" encoding="utf-8"?>
<!-- Generator: Adobe Illustrator 18.1.1, SVG Export Plug-In . SVG Version: 6.00 Build 0)  -->
<!DOCTYPE svg PUBLIC "-//W3C//DTD SVG 1.1//EN" "http://www.w3.org/Graphics/SVG/1.1/DTD/svg11.dtd">
<svg version="1.1"
	 id="svg2" xmlns:svg="http://www.w3.org/2000/svg" xmlns:cc="http://creativecommons.org/ns#" xmlns:dc="http://purl.org/dc/elements/1.1/" xmlns:rdf="http://www.w3.org/1999/02/22-rdf-syntax-ns#"
	 xmlns="http://www.w3.org/2000/svg" xmlns:xlink="http://www.w3.org/1999/xlink" x="0px" y="0px" viewBox="-206.5 247.5 300 300"
	 enable-background="new -206.5 247.5 300 300" xml:space="preserve">
<g id="layer1" transform="translate(-158.33296,-510.42709)">
	<g id="g3050" transform="translate(-32.952735,333.1046)">
		<path id="path3064" fill="#278CC0" d="M226,629.4c0.2-47.2,0.1-54.7-1.3-56.7c-1.8-2.7-11.6-10.4-13.3-10.4
			c-0.9,0-1.2,13.5-1.2,53.2c0,29.2,0.3,52.8,0.8,52.4c-0.3,3.3-0.6,2.9-2.3,2.4c0.3-0.5-32.9-0.8-73.6-0.9c-59.7,0-74.3-0.3-75-1.4
			c-0.5-0.7-0.8-24.7-0.7-53.3c0.1-37.1-0.2-52.1-1-52.3c-1.4-0.5-10.4,6.1-13.1,9.5c-2,2.5-2,4-2,57.4v54.9l91.2-0.3l91.2-0.3
			L226,629.4z M150.9,645.2c23.2-7.2,38.3-31.9,34.5-56.6c-1.5-9.7-6.5-20.3-13.1-27.5c-5.2-5.7-15.3-12.4-17-11.3
			c-0.6,0.4-1.1,3.4-1.1,6.8v6.1l5.8,5.6c20,19.2,15.3,50.6-9.6,62.7c-5.2,2.5-6.8,2.8-15.8,2.8c-9.3,0-10.5-0.2-16.7-3.3
			c-14.4-7.1-23.3-23.2-21.3-38.7c1-8.2,6.6-18.5,12.8-24l5.2-4.5l0-6.4c0-3.5-0.3-6.7-0.7-7.1c-1.4-1.4-11.1,5.1-16.8,11.2
			c-18.3,19.6-18.8,50.2-0.9,69.7C110.5,646.1,130.6,651.5,150.9,645.2L150.9,645.2z M139.3,579.3c1.9-1.9,2-3.3,2-25.7
			c0-20.6-0.2-23.9-1.7-25.5c-2.1-2.3-7.1-2.4-9.5-0.2c-1.7,1.5-1.8,3.7-1.8,25.5c0,22.5,0.1,24,2,25.8c1.1,1.1,3.1,2,4.5,2
			S138.2,580.4,139.3,579.3z M68.1,536.6c29.6-22.9,55.9-43.4,58.6-45.5c7.9-6.2,8.1-6.2,32.2,12.5c11.5,9,37.4,29.1,57.5,44.6
			c20.1,15.6,37.3,28.8,38.2,29.4c3.2,2,4.8-0.9,4.8-8.4c0-3.7-0.3-7.5-0.6-8.4c-1.1-2.7-49.3-41.1-113.7-90.4
			c-7.1-5.4-10.6-6.4-14.9-4.1c-4.8,2.6-98.1,75.4-113,88.2l-6.8,5.8v8.3c0,8.5,0.3,9.6,2.7,9.6C13.7,578.3,38.5,559.6,68.1,536.6
			L68.1,536.6z M225.8,492.5c-0.8-4.4-3.3-5.2-16.5-5.2c-9.4,0-11.1,0.3-13.2,2l-2.4,2l3,2.3c1.6,1.2,8.8,6.8,16,12.4l13,10.2
			l0.3-10.2C226.3,500.4,226.1,494.3,225.8,492.5z"/>
	</g>
</g>
</svg>
