<?xml version="1.0" standalone="no"?>
<!DOCTYPE svg PUBLIC "-//W3C//DTD SVG 20010904//EN"
 "http://www.w3.org/TR/2001/REC-SVG-20010904/DTD/svg10.dtd">
<svg version="1.0" xmlns="http://www.w3.org/2000/svg"
 width="256.000000pt" height="256.000000pt" viewBox="0 0 256.000000 256.000000"
 preserveAspectRatio="xMidYMid meet">
<metadata>
Created by potrace 1.13, written by Peter Selinger 2001-2015
</metadata>
<g transform="translate(0.000000,256.000000) scale(0.100000,-0.100000)"
fill="#000000" stroke="none">
<path d="M471 2374 c-68 -18 -113 -45 -174 -103 -59 -57 -92 -112 -112 -187
-22 -87 -22 -1521 0 -1608 20 -75 53 -130 112 -187 62 -59 105 -85 178 -104
89 -23 1521 -23 1610 0 73 19 116 45 178 104 59 57 92 112 112 187 22 87 22
1521 0 1608 -20 75 -53 130 -112 187 -62 59 -105 85 -178 104 -86 22 -1531 21
-1614 -1z m984 -424 c35 -21 65 -73 65 -110 0 -68 -66 -133 -136 -133 -132 0
-184 175 -71 243 41 26 101 25 142 0z m-111 -293 c20 -7 47 -39 92 -107 34
-54 82 -114 105 -134 45 -38 119 -66 176 -66 l33 0 0 -70 0 -70 -43 0 c-89 0
-200 47 -279 118 -21 19 -40 33 -42 31 -2 -2 -11 -44 -21 -94 l-17 -90 71 -65
71 -65 0 -248 0 -247 211 0 c159 0 226 4 271 16 68 17 81 12 76 -32 -3 -24 -9
-29 -53 -41 -27 -7 -63 -13 -79 -13 -35 0 -66 -25 -66 -53 0 -49 -64 -75 -102
-40 -20 18 -24 63 -6 81 9 9 -58 12 -302 12 -278 0 -316 -2 -332 -17 -10 -9
-18 -25 -18 -36 0 -49 -64 -75 -102 -40 -20 18 -24 63 -6 81 9 9 2 12 -33 12
-24 0 -66 6 -94 13 -44 12 -50 17 -53 41 -5 44 8 49 76 32 45 -12 111 -16 266
-16 l206 0 0 198 -1 197 -69 63 -68 62 -12 -52 c-38 -179 -52 -228 -67 -228
-17 0 -446 81 -451 85 -8 7 23 135 33 135 7 0 79 -14 160 -30 82 -17 151 -28
153 -25 8 8 104 507 98 512 -3 3 -28 -3 -56 -13 l-50 -18 0 -113 0 -113 -70 0
-71 0 3 156 3 156 172 74 c205 86 215 88 287 61z"/>
</g>
</svg>
