<?xml version="1.0" encoding="utf-8"?>
<!-- Generator: Adobe Illustrator 18.1.1, SVG Export Plug-In . SVG Version: 6.00 Build 0)  -->
<!DOCTYPE svg PUBLIC "-//W3C//DTD SVG 1.1//EN" "http://www.w3.org/Graphics/SVG/1.1/DTD/svg11.dtd">
<svg version="1.1" id="Layer_1" xmlns="http://www.w3.org/2000/svg" xmlns:xlink="http://www.w3.org/1999/xlink" x="0px" y="0px"
	 viewBox="-94 -4 800 800" enable-background="new -94 -4 800 800" xml:space="preserve">
<path fill="#920DC9" d="M119.2,572.2c-0.7-0.1-1,0-1.2-0.1c-44.3-39-82.2-82.8-101.1-140c-8.2-24.9-14.7-50.3-16.4-76.7
	c-2.2-34.7,1.4-68.9,11.6-102.2C47,140,122.5,70,237.2,41.7c24.1-6,48.7-8.3,73.5-7.7c70.7,1.6,134.6,23.1,189.9,67.8
	c56.7,45.8,92.9,104.6,106,176.4c16.6,91.7-5,174.2-64.3,246.1c-14.3,17.4-31.9,32-48.4,48.3C441.8,522,379.2,495,306.2,495.2
	C233.4,495.2,171.1,521.9,119.2,572.2z M69.3,335.8c0.6,7.7,0.7,18.1,2.2,28.3c5.9,41.2,21.7,78.4,47.6,111.1
	c6.7,8.5,6.6,8.4,15.7,3c68.1-41,141.7-55.5,220.1-44.6c45.3,6.3,87.5,21.9,126.2,46.4c4.5,2.9,6.8,2.5,10.1-1.7
	c36-45.6,53-97.2,50.7-155.4c-1.3-29.7-7.8-57.9-20.4-84.8C474.4,137.6,366.3,84,257.2,106.6C148.5,129.3,70.6,223,69.3,335.8z"/>
<path fill="#920DC9" d="M401.7,664.3c-49.4-52.1-138.8-54.1-190.8,0.1c-13.7-14.4-27.5-28.7-41.3-43.1c72.2-77,202.5-76.2,273.5,0.1
	C429.3,635.7,415.5,650.1,401.7,664.3z"/>
<path fill="#920DC9" d="M262.8,712c22.8-26.4,67.4-24.3,88,1.3c-14.6,15-29.1,29.9-43.5,44.8C292.3,742.7,277.8,727.6,262.8,712z"/>
</svg>
