<?xml version="1.0" encoding="utf-8"?>
<!-- Generator: Adobe Illustrator 18.1.1, SVG Export Plug-In . SVG Version: 6.00 Build 0)  -->
<svg version="1.1" id="Layer_1" xmlns="http://www.w3.org/2000/svg" xmlns:xlink="http://www.w3.org/1999/xlink" x="0px" y="0px"
	 viewBox="0 0 362 362" enable-background="new 0 0 362 362" xml:space="preserve">
<g>
	<path fill="#FFFFFF" d="M1,1c120.6,0,241.2,0,361.9,0c0,120.5,0,241.1,0,361.8c-120.6,0-241.2,0-361.9,0C1,242.3,1,121.7,1,1z
		 M2.9,2.9c0,119.5,0,238.7,0,358.1c119.8,0,239.2,0,358.8,0c0-119.5,0-238.7,0-358.1C242,2.9,122.6,2.9,2.9,2.9z"/>
	<path d="M2.9,2.9c119.7,0,239.1,0,358.8,0c0,119.3,0,238.6,0,358.1c-119.6,0-239,0-358.8,0C2.9,241.6,2.9,122.4,2.9,2.9z
		 M29.4,334.4c102.2,0,203.7,0,305.1,0c0-101.9,0-203.4,0-304.9c-101.9,0-203.5,0-305.1,0C29.4,131.4,29.4,232.8,29.4,334.4z"/>
	<path d="M119.1,244.8c57.2,0,113.8,0,170.6,0c0,15,0,29.5,0,44.3c-71.6,0-143,0-214.8,0c0-71.6,0-143,0-214.8c14.4,0,29,0,44.2,0
		C119.1,131,119.1,187.7,119.1,244.8z"/>
	<path d="M289.8,74.3c0,15,0,29.6,0,44.7c-29.8,0-59.4,0-89.4,0c0,6.1,0,11.7,0,17.6c-15,0-29.6,0-44.5,0c0-20.7,0-41.4,0-62.4
		C200.6,74.3,245,74.3,289.8,74.3z"/>
	<path d="M155.8,208.7c0-20.8,0-41.4,0-62.3c14.6,0,29.2,0,44.2,0c0,5.7,0,11.2,0,17.3c30.1,0,59.6,0,89.6,0c0,15.2,0,29.9,0,45
		C245.2,208.7,200.7,208.7,155.8,208.7z"/>
</g>
</svg>
