<?xml version="1.0" ?><!DOCTYPE svg  PUBLIC '-//W3C//DTD SVG 1.1//EN'  'http://www.w3.org/Graphics/SVG/1.1/DTD/svg11.dtd'><svg enable-background="new 0 0 256 256" height="256px" id="Layer_1" version="1.1" viewBox="0 0 256 256" width="256px" xml:space="preserve" xmlns="http://www.w3.org/2000/svg" xmlns:xlink="http://www.w3.org/1999/xlink"><g><g><path clip-rule="evenodd" d="M50.467,84.201C40.896,47.833,0,61.204,0,82.673v97.895     c0,4.673,3.19,8.428,7.988,8.428h7.369l-9.881,31.164c-0.233,0.639-0.359,1.329-0.359,2.048c0,3.314,2.688,6,6,6h62.867l2.543-12     H19.31L55.508,102.04h144.984l36.197,114.169h-57.217l2.543,12h62.867v-0.002c0.598,0,1.205-0.09,1.805-0.279     c3.158-0.996,4.91-4.365,3.914-7.524l-9.957-31.406h7.367c4.801,0,7.988-3.753,7.988-8.427V82.673     c0-21.47-40.896-34.84-50.467,1.528l-1.535,5.837h-39.895l-2.625-19.287C159.986,59.783,142.955,51.919,128,51.919     s-31.984,7.86-33.479,18.833l-2.625,19.287H52.002L50.467,84.201L50.467,84.201z M32.141,51.996c-11.045,0-20-8.954-20-20     s8.955-20,20-20c11.047,0,20.002,8.954,20.002,20S43.188,51.996,32.141,51.996L32.141,51.996z M128,40c-11.047,0-20-8.954-20-20     c0-11.046,8.953-20,20-20s20,8.954,20,20C148,31.046,139.047,40,128,40L128,40z M223.859,51.996c11.045,0,20-8.954,20-20     s-8.955-20-20-20c-11.047,0-20,8.954-20,20S212.812,51.996,223.859,51.996L223.859,51.996z" fill="#3B4652" fill-rule="evenodd"/><path clip-rule="evenodd" d="M89.574,210.812c2.076-10.924,21.262-18.833,38.426-18.833     s36.35,7.91,38.426,18.833L175.012,256H80.988L89.574,210.812L89.574,210.812z M128,178.998c-14.912,0-27-12.088-27-27     c0-14.912,12.088-27.001,27-27.001s27,12.089,27,27.001C155,166.91,142.912,178.998,128,178.998L128,178.998z" fill="#2B79C2" fill-rule="evenodd"/></g></g></svg>