<?xml version="1.0" encoding="utf-8"?>
<!-- Generator: Adobe Illustrator 18.1.1, SVG Export Plug-In . SVG Version: 6.00 Build 0)  -->
<!DOCTYPE svg PUBLIC "-//W3C//DTD SVG 1.1//EN" "http://www.w3.org/Graphics/SVG/1.1/DTD/svg11.dtd">
<svg version="1.1"
	 id="Layer_1" xmlns:svg="http://www.w3.org/2000/svg" xmlns:sodipodi="http://sodipodi.sourceforge.net/DTD/sodipodi-0.dtd" xmlns:inkscape="http://www.inkscape.org/namespaces/inkscape" xmlns:cc="http://creativecommons.org/ns#" xmlns:dc="http://purl.org/dc/elements/1.1/" xmlns:rdf="http://www.w3.org/1999/02/22-rdf-syntax-ns#" inkscape:version="0.48.5 r10040" sodipodi:docname="meshblu.svg"
	 xmlns="http://www.w3.org/2000/svg" xmlns:xlink="http://www.w3.org/1999/xlink" x="0px" y="0px" viewBox="-94 -4 800 800"
	 enable-background="new -94 -4 800 800" xml:space="preserve">
<sodipodi:namedview  id="namedview35" showgrid="false" guidetolerance="10" inkscape:cx="42.716483" inkscape:zoom="3.0606061" gridtolerance="10" inkscape:cy="31.244911" bordercolor="#666666" objecttolerance="10" pagecolor="#ffffff" borderopacity="1" inkscape:window-width="1926" inkscape:window-height="1045" inkscape:window-maximized="0" inkscape:window-y="0" inkscape:pageopacity="0" inkscape:window-x="0" inkscape:pageshadow="2" inkscape:current-layer="Layer_1" fit-margin-right="0" fit-margin-bottom="0" fit-margin-left="0" fit-margin-top="0">
	</sodipodi:namedview>
<g id="g3" transform="translate(-116.88488,-89.368666)">
	
		<path id="path19" inkscape:connector-curvature="0" fill="#003B71" stroke="#003B71" stroke-width="0.6907" stroke-miterlimit="10" d="
		M458.6,483.1c0,0-14.2-8.9,41.2-43.7c55.4-34.4,40.1-33.3,35.5-60.3c0,0,17.6,17.2-43.4,48.3C431,458.7,455.7,466.3,458.6,483.1
		L458.6,483.1z"/>
	
		<path id="path21" inkscape:connector-curvature="0" fill="#003B71" stroke="#003B71" stroke-width="0.6907" stroke-miterlimit="10" d="
		M463.2,508.1c0,0-3.8-16.4,59.9-2.2c63.6,14.2,51.6,4.5,67.8-17.6c0,0,0.4,24.8-64.7,3.8C461,471.5,472.9,494.4,463.2,508.1z"/>
	
		<path id="path23" inkscape:connector-curvature="0" fill="#003B71" stroke="#003B71" stroke-width="0.6907" stroke-miterlimit="10" d="
		M441.9,529.9c0,0,9.3-13.8,42.3,42.3c33,56.1,32.2,40.8,59.1,37.4c0,0-17.6,16.8-47.2-44.8C467,502.9,458.6,527.2,441.9,529.9z"/>
	
		<path id="path25" inkscape:connector-curvature="0" fill="#003B71" stroke="#003B71" stroke-width="0.6907" stroke-miterlimit="10" d="
		M411.2,526.8c0,0,16.4-2.2-2.9,59.9c-19.8,62.1-8.9,51.2,11.6,68.9c0,0-24.3-1.8,1.8-64.7C447.9,527.9,424.3,537.7,411.2,526.8
		L411.2,526.8z"/>
	
		<path id="path27" inkscape:connector-curvature="0" fill="#003B71" stroke="#003B71" stroke-width="0.6907" stroke-miterlimit="10" d="
		M292.6,583.3c0,0-9.7-13.5,54.3-25.9s49-16.8,55-43.4c0,0,10,22.4-58,29.5C276.1,550.5,295.9,566.5,292.6,583.3z"/>
	
		<path id="path29" inkscape:connector-curvature="0" fill="#003B71" stroke="#003B71" stroke-width="0.6907" stroke-miterlimit="10" d="
		M276.4,489.8c0,0-1.5-16.8,59.9,4.9c61.4,21.7,50.8,10.4,69.2-9.7c0,0-2.6,24.3-64.7-3.8C278.4,453.2,287.7,477.1,276.4,489.8z"/>
	
		<path id="path31" inkscape:connector-curvature="0" fill="#77BC1F" stroke="#77BC1F" stroke-width="0.6907" stroke-miterlimit="10" d="
		M327.8,383.6c0,0,10.4-13.1,39,45.7c28.1,58.7,28.8,43.4,55.8,41.9c0,0-19.1,15.3-43.4-48.6C355.1,359.2,344.6,382.9,327.8,383.6
		L327.8,383.6z"/>
	
		<path id="path33" inkscape:connector-curvature="0" fill="#003B71" stroke="#003B71" stroke-width="0.6907" stroke-miterlimit="10" d="
		M426.5,342.1c0,0,16.4-2.6-1.5,59.9c-18,62.5-7.5,51.2,13.8,68.5c0,0-24.8-1.1,0-64.7C463.2,341.7,439.7,352.5,426.5,342.1z"/>
</g>
<path id="path3085" inkscape:connector-curvature="0" d="M-58.2,481.7c0-27.3,6.9-52.7,20.5-76.2s32.2-41.9,55.8-55.6
	c-3.9-10.8-5.9-21.4-5.9-32.2c0-29.3,10.3-54.2,30.8-74.7c20.5-20.5,45.5-30.8,74.7-30.8c9.8,0,20.5,2,32.2,5.9
	c16.5-37.1,42-66.9,76.2-89.3S298.4,95,340.3,95c54.6,0,101.8,18.3,141.3,54.9s62.2,81.7,68.1,135.5c41,7.8,75,27.8,101.8,60
	c26.8,32.2,40.3,69.8,40.3,112.7c0,48.8-17,90.3-51.2,124.5c-34.2,34.2-75.7,51.2-124.5,51.2h-422c-42,0-77.9-14.9-107.7-44.7
	C-43.2,559.6-58.2,523.7-58.2,481.7L-58.2,481.7z M-11.4,481.7c0,29.3,10.3,54.2,30.8,74.7s45.5,30.8,74.7,30.8h421.7
	c35.2,0,65.4-12.7,90.8-38.1c25.4-25.4,38.1-55.6,38.1-90.8c0-31.2-9.8-58.6-29.3-82c-19.5-23.4-44.5-38.1-74.7-44
	c-17.5-3.9-28.1-7.6-31.5-11c-3.4-3.4-5.6-14-6.6-31.5c-3.9-42-21.4-77.2-52.7-105.5s-67.9-42.5-109.8-42.5
	c-31.2,0-60.5,8.6-87.9,25.6s-47.3,40.3-60,69.6c-4.9,9.8-7.8,15.8-8.8,18.3c-1,2.5-3.2,5.6-6.6,9.6c-3.4,3.9-7.1,5.4-11,4.4
	s-9.3-2.5-16.1-4.4c-10.8-4.9-21.4-6.9-32.2-5.9c-16.5,0-30.5,5.6-41.8,16.8c-11.3,11.3-16.8,25.1-16.8,41.8c0,4.9,1,10.8,2.9,17.5
	c6.9,16.5,9.3,27.8,7.4,33.7c-2,5.9-11.3,13.2-27.8,21.9C6.3,411.3-11.4,441.7-11.4,481.7L-11.4,481.7z"/>
</svg>
