<?xml version="1.0" encoding="utf-8"?>
<!-- Generator: Adobe Illustrator 18.1.1, SVG Export Plug-In . SVG Version: 6.00 Build 0)  -->
<!DOCTYPE svg PUBLIC "-//W3C//DTD SVG 1.1//EN" "http://www.w3.org/Graphics/SVG/1.1/DTD/svg11.dtd">
<svg version="1.1" id="Layer_1" xmlns="http://www.w3.org/2000/svg" xmlns:xlink="http://www.w3.org/1999/xlink" x="0px" y="0px"
	 viewBox="-94 -4 800 800" enable-background="new -94 -4 800 800" xml:space="preserve">
<g id="Layer_1_1_">
</g>
<g id="Layer_2">
	<rect x="152.8" y="46.6" fill="#3F403F" width="22.6" height="205"/>
	<rect x="343.7" y="46.6" fill="#3F403F" width="22.6" height="205"/>
	<path fill="#6B6B6B" d="M179,268.1h-29.8c-3,0-5.5-2.5-5.5-5.5v-8.8c0-3,2.5-5.5,5.5-5.5h29.5c3,0,5.5,2.5,5.5,5.5v8.8
		C184.5,265.6,182,268.1,179,268.1z"/>
	<path fill="#6B6B6B" d="M369.6,268.1h-29.5c-3,0-5.5-2.5-5.5-5.5v-8.8c0-3,2.5-5.5,5.5-5.5h29.5c3,0,5.5,2.5,5.5,5.5v8.8
		C375.1,265.6,372.7,268.1,369.6,268.1z"/>
	<rect x="343.7" y="503.4" fill="#3F403F" width="22.6" height="205"/>
	<path fill="#6B6B6B" d="M369.6,507.8h-29.5c-3,0-5.5-2.5-5.5-5.5v-8.8c0-3,2.5-5.5,5.5-5.5h29.5c3,0,5.5,2.5,5.5,5.5v8.8
		C375.1,505.3,372.7,507.8,369.6,507.8z"/>
	<rect x="152.8" y="503.4" fill="#3F403F" width="22.6" height="205"/>
	<path fill="#6B6B6B" d="M179,507.8h-29.8c-3,0-5.5-2.5-5.5-5.5v-8.8c0-3,2.5-5.5,5.5-5.5h29.5c3,0,5.5,2.5,5.5,5.5v8.8
		C184.5,505.3,182,507.8,179,507.8z"/>
	<rect x="215.1" y="497.9" fill="#3F403F" width="22.6" height="14.3"/>
	<rect x="285.3" y="497.9" fill="#3F403F" width="22.6" height="14.3"/>
	<path fill="#6B6B6B" d="M408.7,497.9H110.6c-7.7,0-13.8-6.1-13.8-13.8V272.2c0-7.7,6.1-13.8,13.8-13.8h298.1
		c7.7,0,13.8,6.1,13.8,13.8v212.1C422.5,491.8,416.5,497.9,408.7,497.9z"/>
	<path fill="#FFECDA" d="M401,486H120.6c-6.1,0-11-5-11-11V277.2c0-6.1,5-11,11-11H401c6.1,0,11,5,11,11V475
		C412.1,481.1,407.1,486,401,486z"/>
	<rect x="147.8" y="286" fill="#6B6B6B" width="5.5" height="184.3"/>
	<rect x="184.2" y="286" fill="#6B6B6B" width="5.5" height="184.3"/>
	<rect x="220.8" y="286" fill="#6B6B6B" width="5.5" height="184.3"/>
	<rect x="256.9" y="286" fill="#6B6B6B" width="5.5" height="184.3"/>
	<rect x="293.9" y="286" fill="#6B6B6B" width="5.5" height="184.3"/>
	<rect x="330.5" y="286" fill="#6B6B6B" width="5.5" height="184.3"/>
	<rect x="366" y="286" fill="#6B6B6B" width="5.5" height="184.3"/>
	<rect x="206.8" y="348" fill="#CB2027" stroke="#FEECDA" stroke-width="2" stroke-miterlimit="10" width="105.8" height="60.3"/>
	<text transform="matrix(1 0 0 1 220.8045 374.4245)" fill="#FFFFFF" font-family="'Rockwell-ExtraBold'" font-size="13.1601">Meshlium</text>
	<text transform="matrix(1 0 0 1 220.8045 390.1271)" fill="#FFFFFF" font-family="'Rockwell-ExtraBold'" font-size="13.1601">Xtreme</text>
	<g>
		<path id="path3824_1_" fill="#488ECC" d="M555.6,150.7c-30.6-36.1-71.9-56.8-113-60.3l-8.3,27c33.1,0.3,70.3,18.7,98.4,51.8
			c27.8,32.8,39.7,72.2,34.7,104.7l28.9-2.5C599.7,230.6,586.2,186.5,555.6,150.7z"/>
		<path id="path3822_1_" fill="#488ECC" d="M458.9,229.5c-13.2-15.7-31.1-25.1-49.9-27.8l-7.2,24.2c13.8,2.5,27,9.4,36.6,20.9
			c9.1,10.7,14.1,24,14.6,36.9l25.1-2.2C478.2,263.1,471.8,244.7,458.9,229.5z"/>
		<path id="path3814_1_" fill="#488ECC" d="M508.5,191.2c-23.1-27.6-54.3-43-82.9-44.4l-8.5,28.7c23.7-1.4,50.7,10.5,70.3,33.9
			c18.2,21.5,25.9,47.7,22.6,69.7l28.9-2.5C541,248.8,530.8,217.4,508.5,191.2z"/>
		<title>Layer 1</title>
	</g>
</g>
</svg>
