<?xml version="1.0" ?><!DOCTYPE svg  PUBLIC '-//W3C//DTD SVG 1.1//EN'  'http://www.w3.org/Graphics/SVG/1.1/DTD/svg11.dtd'><svg enable-background="new -40 -40 512 512" height="512px" id="Layer_1" version="1.1" viewBox="-40 -40 512 512" width="512px" xml:space="preserve" xmlns="http://www.w3.org/2000/svg" xmlns:xlink="http://www.w3.org/1999/xlink"><g id="Layer_5"><g><g><path d="M432,32c0-17.603-14.398-32-32-32H32C14.398,0,0,14.398,0,32v368c0,17.602,14.398,32,32,32h368     c17.602,0,32-14.398,32-32V32z" fill="#5C5D5E"/></g><g><path d="M80,208c0-8.797-7.203-16-16-16H48c-8.797,0-16,7.203-16,16v176c0,8.797,7.203,16,16,16h16     c8.797,0,16-7.203,16-16V208z" fill="#EBF0F2"/></g><g><path d="M144,208c0-8.797-7.203-16-16-16h-16c-8.797,0-16,7.203-16,16v176c0,8.797,7.203,16,16,16h16     c8.797,0,16-7.203,16-16V208z" fill="#EBF0F2"/></g><g><path d="M208,208c0-8.797-7.203-16-16-16h-16c-8.797,0-16,7.203-16,16v176c0,8.797,7.203,16,16,16h16     c8.797,0,16-7.203,16-16V208z" fill="#EBF0F2"/></g><g><path d="M272,208c0-8.797-7.203-16-16-16h-16c-8.797,0-16,7.203-16,16v176c0,8.797,7.203,16,16,16h16     c8.797,0,16-7.203,16-16V208z" fill="#EBF0F2"/></g><g><path d="M336,208c0-8.797-7.203-16-16-16h-16c-8.797,0-16,7.203-16,16v176c0,8.797,7.203,16,16,16h16     c8.797,0,16-7.203,16-16V208z" fill="#EBF0F2"/></g><g><path d="M400,208c0-8.797-7.203-16-16-16h-16c-8.797,0-16,7.203-16,16v176c0,8.797,7.203,16,16,16h16     c8.797,0,16-7.203,16-16V208z" fill="#EBF0F2"/></g><g><path d="M112,208c0-8.797-7.203-16-16-16H80c-8.797,0-16,7.203-16,16v112c0,8.797,7.203,16,16,16h16     c8.797,0,16-7.203,16-16V208z" fill="#464748"/></g><g><path d="M368,208c0-8.797-7.203-16-16-16h-16c-8.797,0-16,7.203-16,16v112c0,8.797,7.203,16,16,16h16     c8.797,0,16-7.203,16-16V208z" fill="#464748"/></g><g><path d="M176,208c0-8.797-7.203-16-16-16h-16c-8.797,0-16,7.203-16,16v112c0,8.797,7.203,16,16,16h16     c8.797,0,16-7.203,16-16V208z" fill="#464748"/></g><g><rect fill="#41C19D" height="112" width="176" x="128" y="48"/></g><g><rect fill="#2F988C" height="16" width="176" x="128" y="32"/></g><g><rect fill="#464748" height="80" width="16" x="144" y="64"/></g><g><rect fill="#464748" height="80" width="16" x="176" y="64"/></g><g><rect fill="#464748" height="80" width="16" x="208" y="64"/></g><g><rect fill="#464748" height="80" width="16" x="240" y="64"/></g><g><rect fill="#464748" height="80" width="16" x="272" y="64"/></g><g><rect fill="#D3D7D9" height="16" width="16" x="208" y="96"/></g><g><rect fill="#D3D7D9" height="16" width="16" x="240" y="80"/></g><g><rect fill="#D3D7D9" height="16" width="16" x="272" y="112"/></g><g><rect fill="#D3D7D9" height="16" width="16" x="176" y="112"/></g><g><rect fill="#D3D7D9" height="16" width="16" x="144" y="80"/></g><g><circle cx="336" cy="96" fill="#D3D7D9" r="16"/></g><g><circle cx="384" cy="96" fill="#D3D7D9" r="16"/></g><g><circle cx="336" cy="144" fill="#D3D7D9" r="16"/></g><g><circle cx="384" cy="144" fill="#D3D7D9" r="16"/></g><g><circle cx="48" cy="96" fill="#D3D7D9" r="16"/></g><g><circle cx="96" cy="96" fill="#D3D7D9" r="16"/></g><g><circle cx="48" cy="144" fill="#D3D7D9" r="16"/></g><g><circle cx="96" cy="144" fill="#D3D7D9" r="16"/></g><g><rect fill="#464748" height="32" width="80" x="32" y="32"/></g><g><rect fill="#F05F50" height="16" width="48" x="48" y="40"/></g><g><rect fill="#464748" height="32" width="80" x="320" y="32"/></g><g><rect fill="#F05F50" height="16" width="48" x="336" y="40"/></g></g></g><g id="Layer_1_1_"/></svg>