<?xml version="1.0" encoding="utf-8"?>
<!-- Generator: Adobe Illustrator 18.1.1, SVG Export Plug-In . SVG Version: 6.00 Build 0)  -->
<svg version="1.0" id="Layer_1" xmlns="http://www.w3.org/2000/svg" xmlns:xlink="http://www.w3.org/1999/xlink" x="0px" y="0px"
	 viewBox="0 0 273 298" enable-background="new 0 0 273 298" xml:space="preserve">
<g>
	<path fill="#81C464" d="M4.7,103.6C4.6,82.5,6.1,64.4,12,46.8c2.7-8.3,7.5-14.5,15.1-18.9c17.4-10.1,36.4-15.3,56-18.6
		c18.9-3.2,38-4.3,57.2-3.9c29.3,0.6,58.4,3.2,86.2,13.8c5.3,2,10.3,4.7,15.4,7c10.4,4.8,16.3,13,19.3,23.9
		c4.1,14.9,5.8,30,6.1,45.3c0.6,26.3-2.5,52.1-11,77c-11.8,34.6-33.9,61.9-61.1,85.4c-16.6,14.3-35,26-54.9,35.1
		c-3,1.4-5.5,1.4-8.4,0c-46.4-21.9-83-54.4-107.4-99.9C13.6,172.9,8.8,150.9,6,128.3C4.9,119.2,5.1,110,4.7,103.6z M136.2,26
		c-14.8-0.2-29.6,0.9-44.3,2.9c-16.5,2.3-32.5,6.3-47.8,13.2c-8.1,3.7-13.3,9-14.6,17.9c-0.4,2.8-1.1,5.5-1.6,8.3
		c-2.8,16.6-3.5,33.3-2,50.2c2,22.5,6.2,44.6,16.8,64.7c20.5,39,51.6,67.3,90.4,87.5c2.4,1.3,4.3,0.7,6.4-0.4
		c23.5-12,44.2-27.8,61.9-47.3c12.9-14.2,24.3-29.6,31.5-47.6c14.1-35.1,16.8-71.5,11.1-108.7c-2-13.4-7.8-22.9-21.4-26.8
		c-3.5-1-6.8-2.7-10.3-3.8C187.6,28.2,162,26.1,136.2,26z"/>
	<path fill="#412F1F" d="M136.2,26c25.8,0.1,51.4,2.2,76.3,10.1c3.5,1.1,6.8,2.8,10.3,3.8c13.6,3.9,19.3,13.4,21.4,26.8
		c5.7,37.3,3,73.6-11.1,108.7c-7.2,18-18.6,33.4-31.5,47.6c-17.7,19.5-38.4,35.3-61.9,47.3c-2.2,1.1-4,1.6-6.4,0.4
		c-38.8-20.2-69.9-48.5-90.4-87.5c-10.6-20.1-14.7-42.2-16.8-64.7c-1.5-16.9-0.8-33.5,2-50.2c0.5-2.8,1.2-5.5,1.6-8.3
		c1.2-8.9,6.4-14.3,14.6-17.9c15.3-6.9,31.3-10.9,47.8-13.2C106.6,26.9,121.3,25.8,136.2,26z M134.1,233c0.5,5.3,1.3,10.6,0.9,15.9
		c-0.2,3.4,2.6,3.9,4.7,3.9c2.8,0.1,1.3-2.5,1.4-3.8c0.3-8-1.5-16.3,2.9-23.9c6.3-3.6,11.2-8.7,15.8-14.2
		c9.7-11.8,17.4-24.6,20.4-39.8c3.2-8.4,3.3-17.2,3.7-25.9c0.2-5.4-0.2-10.9-1.7-16.2c0.7-3.8-1.2-7.1-2.1-10.6
		c-2.5-9.6-5.3-19.1-10.8-27.6c-3-6.5-6.7-12.6-11.1-18.2c-7.4-9.5-17.1-17.2-22-28.7c-0.1-0.4-0.1-1-0.8-0.9
		c-0.1,0-0.2,0.2-0.2,0.4c-1,4.9-4.5,7.8-8,11c-2.5,2.3-4.8,5-7.2,7.4c-2.4,2-4.5,4.3-5.9,7.1c-2.7,2.6-4.6,5.7-6.2,9
		c-2.6,3-4.1,6.6-5.7,10.1c-2.9,4.9-5.2,10.2-6.4,15.8c-3.2,6.7-3.9,14-5.4,21.2c-1.8,11.7-2.2,23.5-0.2,35.2
		c4,22.9,15,42,31.9,57.8c2.7,3.7,6.6,6.1,10.1,8.9C132.7,229,133.4,231,134.1,233z"/>
	<path fill="#4F9446" d="M182.1,129c1.5,5.3,1.9,10.8,1.7,16.2c-0.4,8.7-0.5,17.6-3.7,25.9c-14.2,1.3-28.2,3.6-42.1,7
		c0-6.7,0-13.3-0.1-20c0-7,0.1-14,0.1-21c3-0.7,6.1-1.5,9.1-2C158.8,133,170.6,131.8,182.1,129z"/>
	<path fill="#529848" d="M182.1,129c-11.5,2.8-23.2,4-34.9,6c-3.1,0.5-6.1,1.3-9.1,2c0-1-0.1-2-0.1-3c-0.4-8.6,1.1-17.4-0.9-26
		c0.4-3.3-1-6.8,0.9-10c7.3-1.3,14.6-2.6,21.9-3.8c3.3-0.5,7.2,0.4,9.3-3.4c5.5,8.5,8.4,18,10.8,27.6
		C180.9,121.8,182.7,125.2,182.1,129z"/>
	<path fill="#4B9043" d="M138,178c13.9-3.3,27.9-5.7,42.1-7c-3,15.2-10.7,28-20.4,39.8c-4.6,5.5-9.5,10.7-15.8,14.2
		c-1-0.7-2-1.4-3-2.1c-2.4-5.7-4-11.6-4.1-17.8c0.3-7.1-0.4-14.2,1-21.2C138,182,138,180,138,178z"/>
	<path fill="#5AA84D" d="M90.2,125c1.5-7.1,2.2-14.5,5.4-21.2c2.5,1.5,2.5,4.2,3.3,6.5c10.9,32.4,21.6,64.9,32.5,97.3
		c0.7,2,0.5,4.9,3.6,5.4c-0.4,4.8-0.4,9.7-2.9,14c-3.5-2.8-7.4-5.2-10.1-8.9c1.4-1.8,0.4-3.5-0.1-5.2c-9.2-27.7-18.5-55.5-27.8-83.2
		C93.4,127.6,93,125.3,90.2,125z"/>
	<path fill="#63AC53" d="M135,213c-3.1-0.5-2.9-3.4-3.6-5.4c-10.9-32.4-21.6-64.9-32.5-97.3c-0.8-2.3-0.8-5-3.3-6.5
		C96.8,98.2,99.1,93,102,88c4.3,7.5,6.1,16.1,8.8,24.2c7.5,21.9,14.7,44,22.1,66c0.8,2.5,0.9,5.9,5,5.8c-1.4,7-0.7,14.1-1,21.2
		C135.4,207.6,136.2,210.5,135,213z"/>
	<path fill="#52A449" d="M90.2,125c2.7,0.4,3.1,2.7,3.8,4.7c9.3,27.7,18.5,55.5,27.8,83.2c0.6,1.7,1.5,3.4,0.1,5.2
		c-17-15.8-27.9-34.9-31.9-57.8C88,148.5,88.4,136.7,90.2,125z"/>
	<path fill="#6CB059" d="M137.9,184c-4,0.1-4.1-3.3-5-5.8c-7.4-22-14.6-44-22.1-66c-2.8-8.1-4.5-16.6-8.8-24.2
		c1.6-3.5,3.1-7.2,5.7-10.1c2.5,0.9,2.5,3.4,3.2,5.3c7.7,22.8,15.3,45.7,22.9,68.5c0.8,2.4,1,5.3,4.1,6.3c0,6.7,0,13.3,0.1,20
		C138,180,138,182,137.9,184z"/>
	<path fill="#559B4B" d="M169.1,90.8c-2.1,3.9-5.9,2.9-9.3,3.4c-7.3,1.2-14.6,2.5-21.9,3.8c-2.2-18,0.2-36.1-1.9-54.1
		c4.9,11.5,14.6,19.2,22,28.7C162.5,78.2,166.2,84.3,169.1,90.8z"/>
	<path fill="#73B460" d="M138,158c-3.1-0.9-3.3-3.8-4.1-6.3c-7.7-22.8-15.3-45.7-22.9-68.5c-0.7-1.9-0.6-4.4-3.2-5.3
		c1.7-3.3,3.6-6.4,6.2-9c0,0.5-0.1,1,0.1,1.5c6.7,20,13.5,40.1,20.3,60.1c0.6,1.7,1.3,3.5,3.6,3.5c0,1,0.1,2,0.1,3
		C138,144,138,151,138,158z"/>
	<path fill="#80BB6E" d="M136.1,43.9c2.1,18-0.3,36.1,1.9,54.1c-1.9,3.2-0.5,6.7-0.9,10c-2.1-0.1-2.5-1.8-3.1-3.4
		c-4.7-14.3-9.4-28.6-14.1-42.8c2.4-2.5,4.7-5.1,7.2-7.4c3.4-3.1,7-6.1,8-11c0-0.1,0.1-0.4,0.2-0.4C136,42.9,135.9,43.5,136.1,43.9z
		"/>
	<path fill="#79B766" d="M119.9,61.8c4.7,14.3,9.4,28.6,14.1,42.8c0.5,1.6,0.9,3.3,3.1,3.4c2,8.6,0.4,17.3,0.9,26
		c-2.3,0-3.1-1.8-3.6-3.5c-6.8-20-13.5-40.1-20.3-60.1c-0.2-0.5-0.1-1-0.1-1.5C115.4,66.1,117.5,63.8,119.9,61.8z"/>
	<path fill="#BFBCA2" d="M141,223c1,0.7,2,1.4,3,2.1c-4.4,7.5-2.7,15.8-2.9,23.9c0,1.3,1.4,3.9-1.4,3.8c-2.1-0.1-4.9-0.5-4.7-3.9
		c0.4-5.3-0.4-10.6-0.9-15.9c3-0.5,2.5-3.4,3.5-5.3C138.5,226,138.2,223.4,141,223z"/>
	<path fill="#ACAB8A" d="M141,223c-2.8,0.4-2.5,3-3.4,4.7c-1,1.9-0.5,4.7-3.5,5.3c-0.7-2-1.3-4-2-6c2.5-4.4,2.5-9.2,2.9-14
		c1.2-2.5,0.4-5.4,1.9-7.8C137,211.4,138.5,217.3,141,223z"/>
</g>
</svg>
