<?xml version="1.0" ?><!DOCTYPE svg  PUBLIC '-//W3C//DTD SVG 1.1//EN'  'http://www.w3.org/Graphics/SVG/1.1/DTD/svg11.dtd'><svg enable-background="new 0 0 256 256" height="256px" id="Layer_1" version="1.1" viewBox="0 0 256 256" width="256px" xml:space="preserve" xmlns="http://www.w3.org/2000/svg" xmlns:xlink="http://www.w3.org/1999/xlink"><g><path clip-rule="evenodd" d="M120,183v15.625l-53.548,33.066   c-1.125-0.334-2.314-0.516-3.547-0.516c-6.854,0-12.412,5.558-12.412,12.412S56.051,256,62.906,256   c6.131,0,11.223-4.446,12.229-10.29L120,218.021v14.621h15.999v-14.56l44.865,27.627c1.007,5.844,6.099,10.29,12.229,10.29   c6.854,0,12.412-5.558,12.412-12.412s-5.558-12.412-12.412-12.412c-1.232,0-2.423,0.182-3.548,0.516l-53.547-33.005V183h109   c10.584,0,10.584-16,0-16h-4V28H245c10.583,0,10.583-16,0-16H135.999V0H120v12H11C0.417,12,0.417,28,11,28h4v139H11   c-10.583,0-10.583,16,0,16H120L120,183z M27,167h201.999V28H27V167L27,167z" fill="#3B4652" fill-rule="evenodd"/><path clip-rule="evenodd" d="M122.851,130.947c-2.14-1.231-0.438,2.004-1.236,8.232l-0.85,0.03   c-26.164,0.917-38.214-3.71-55.832-22.185c-2.227-2.335-7.03,0.817-3.895,4.19c17.428,18.742,34.74,23.8,60.096,23.364   l-0.396,5.841c-0.128,0.972-0.429,1.956,0.444,2.314c1.093,0.448,3.687-1.157,4.571-1.692c3.334-2.021,6.527-4.243,9.895-6.242   c3.948-2.342,4.267-2.76,0.087-5.145C131.245,137.093,127.224,133.719,122.851,130.947L122.851,130.947z" fill="#3B4652" fill-rule="evenodd"/><path clip-rule="evenodd" d="M87.351,80.529c-8.166-0.237-15.98-3.395-19.334-11.332   c-2.273-5.381-1.926-12.354,1.238-17.32c2.594-4.07,6.722-7.271,11.185-9.051c2.563-1.023,5.309-1.61,8.072-1.625   c8.509-0.047,14.722,5.135,18.205,12.617c2.826,6.068,3.645,12.986-0.417,18.721C102.095,78.478,94.326,80.732,87.351,80.529   L87.351,80.529z M88.553,70.689c3.469-0.244,8.207-1.628,10.058-4.863c1.937-3.386-0.355-7.561-2.392-10.309   c-1.961-2.648-4.668-4.211-7.998-4.186c-5.392,0.042-10.979,4.338-11.761,9.797c-0.733,5.117,2.303,8.519,7.258,9.367   C85.386,70.781,86.869,70.809,88.553,70.689L88.553,70.689z" fill="#2B79C2" fill-rule="evenodd"/><path clip-rule="evenodd" d="M150.178,140.686c-2.509-1.816-4.974-3.693-7.388-5.633   c-5.633-4.521,0.188-13.217,5.848-8.903c2.355,1.796,4.733,3.563,7.137,5.296c1.842-2.779,3.795-5.484,5.853-8.108   c0.966-1.233,2.365-1.95,3.929-2.024c4.395-0.207,7.986,4.605,4.658,8.257c-1.994,2.577-3.883,5.234-5.678,7.953   c2.832,1.882,5.703,3.708,8.613,5.47c1.332,0.668,2.301,1.816,2.604,3.294c0.884,4.307-3.99,8.284-7.984,5.899   c-2.974-1.775-5.918-3.601-8.82-5.489c-1.477,2.628-2.873,5.298-4.189,8.009c-0.77,1.582-2.178,2.715-3.963,2.859   c-4.376,0.354-7.066-4.566-5.137-8.327C147.132,146.369,148.612,143.504,150.178,140.686L150.178,140.686z" fill="#2B79C2" fill-rule="evenodd"/><path clip-rule="evenodd" d="M150.991,111.065c5.178-0.044,10.374-0.784,15.542-0.589   c0.62,0.023,3.568,0.116,3.949-0.559c0.374-0.661-1.005-3.273-1.308-3.857c-1.805-3.476-3.34-7.05-5.104-10.525   c-0.469-0.924-1.823-3.655-2.988-3.852c-0.207-0.035-0.41,0.004-0.605,0.073c-0.375,0.133-0.844,1.323-0.994,1.657   c-0.576,1.27-1.227,2.482-1.9,3.701l-0.485,0.879l-0.877-0.489c-6.627-3.697-13.477-7.093-20.302-10.406   c-7.623-3.7-15.302-7.278-22.947-10.933c-4.15-1.982-6.57,3.459-2.988,5.238c7.493,3.717,15.104,7.222,22.645,10.844   c7.019,3.372,14.114,6.822,20.89,10.66l0.798,0.451l-0.381,0.834c-0.883,1.932-1.784,3.246-3.013,4.931   c-0.242,0.331-0.478,0.667-0.696,1.015C149.762,110.874,150.269,111.041,150.991,111.065L150.991,111.065z" fill="#3B4652" fill-rule="evenodd"/><path clip-rule="evenodd" d="M61.261,95.617c1.212-2.852,2.355-5.73,3.424-8.637   c2.494-6.777-6.978-11.227-9.602-4.611c-1.093,2.754-2.218,5.494-3.383,8.219c-3.012-1.431-6.08-2.74-9.196-3.928   c-1.464-0.558-3.032-0.451-4.41,0.293c-3.872,2.09-4.467,8.064,0.269,9.476c3.037,1.18,6.025,2.481,8.967,3.885   c-1.456,3.073-2.973,6.118-4.558,9.128c-0.796,1.26-1.035,2.744-0.532,4.166c1.465,4.145,7.692,5.039,9.884,0.936   c1.632-3.055,3.212-6.138,4.726-9.253c2.619,1.489,5.194,3.057,7.721,4.7c1.474,0.959,3.265,1.203,4.869,0.406   c3.931-1.955,3.699-7.559,0.104-9.784C66.802,98.914,64.056,97.225,61.261,95.617L61.261,95.617z" fill="#2B79C2" fill-rule="evenodd"/><path clip-rule="evenodd" d="M175.695,85.648c4.454,2.641,9.284,4.694,13.605,7.535   c0.519,0.34,2.995,1.943,3.67,1.564c0.663-0.373,0.833-3.32,0.876-3.977c0.254-3.908,0.787-7.762,1.076-11.65   c0.076-1.03,0.33-4.07-0.565-4.841c-0.158-0.136-0.353-0.209-0.556-0.251c-0.389-0.078-1.407,0.698-1.708,0.904   c-1.339,0.918-2.778,1.746-4.186,2.555l-0.897,0.516l-0.484-0.913c-4.836-9.134-11.154-19.197-19.165-25.894   c-5.429-4.539-11.415-7.334-18.524-7.777c-8.412-0.523-17.112,2.334-24.919,5.177c-5.438,1.979-1.893,7.448,0.425,6.635   c5.098-1.788,10.4-3.656,15.685-4.797c4.171-0.9,8.446-1.333,12.663-0.467c5.623,1.155,10.131,4.427,14.1,8.441   c2.688,2.72,5.112,5.757,7.365,8.843c2.939,4.026,5.659,8.24,8.271,12.486l0.499,0.813l-0.787,0.537   c-1.123,0.766-2.276,1.423-3.509,1.994c-0.884,0.409-1.792,0.761-2.675,1.169c-0.146,0.067-0.29,0.136-0.434,0.208   C174.743,84.849,175.091,85.254,175.695,85.648L175.695,85.648z" fill="#3B4652" fill-rule="evenodd"/><path clip-rule="evenodd" d="M198.302,144.081c15.162-0.44,26.435-17.562,18.096-30.651   c-8.987-14.108-29.6-14.941-37.462,1.939C171.938,130.395,183.401,144.514,198.302,144.081L198.302,144.081z M197.1,134.242   c-8.552-0.605-13.807-8.881-7.666-17.173c6.058-8.181,18.509-3.127,19.759,5.612C210.306,130.459,203.374,134.687,197.1,134.242   L197.1,134.242z" fill="#2B79C2" fill-rule="evenodd"/></g></svg>