<?xml version="1.0" encoding="utf-8"?>
<!-- Generator: Adobe Illustrator 18.1.1, SVG Export Plug-In . SVG Version: 6.00 Build 0)  -->
<!DOCTYPE svg PUBLIC "-//W3C//DTD SVG 1.1//EN" "http://www.w3.org/Graphics/SVG/1.1/DTD/svg11.dtd">
<svg version="1.1"
	 id="svg2" xmlns:svg="http://www.w3.org/2000/svg" xmlns:sodipodi="http://sodipodi.sourceforge.net/DTD/sodipodi-0.dtd" xmlns:inkscape="http://www.inkscape.org/namespaces/inkscape" xmlns:cc="http://creativecommons.org/ns#" xmlns:dc="http://purl.org/dc/elements/1.1/" xmlns:rdf="http://www.w3.org/1999/02/22-rdf-syntax-ns#" inkscape:version="0.48.5 r10040" sodipodi:docname="myo.svg"
	 xmlns="http://www.w3.org/2000/svg" xmlns:xlink="http://www.w3.org/1999/xlink" x="0px" y="0px" viewBox="-62 -104.2 1000 1000"
	 enable-background="new -62 -104.2 1000 1000" xml:space="preserve">
<sodipodi:namedview  id="base" showgrid="false" inkscape:cx="375" inkscape:zoom="0.85859375" inkscape:cy="520" bordercolor="#666666" pagecolor="#ffffff" borderopacity="1.0" inkscape:window-width="1387" inkscape:window-height="816" inkscape:window-maximized="0" inkscape:window-y="40" inkscape:pageopacity="0.0" inkscape:window-x="40" inkscape:pageshadow="2" inkscape:current-layer="layer1" inkscape:document-units="px">
	</sodipodi:namedview>
<g id="layer1" inkscape:groupmode="layer" inkscape:label="Layer 1">
	<g>
		<g>
			<path fill="#FDFDFD" d="M518.6-49.2c128.7,0,257.4,0.1,386-0.2c8.4,0,10.1,1.7,10.1,10.1c-0.3,278.9-0.3,557.8,0,836.7
				c0,8.4-1.7,10.1-10.1,10.1c-310.7-0.3-621.4-0.3-932.1,0c-8.4,0-10.1-1.7-10.1-10.1c0.3-278.9,0.3-557.8,0-836.7
				c0-8.4,1.7-10.1,10.1-10.1c131.5,0.3,263,0.2,394.5,0.2c0.7,0.8,0.9,1.6,0.8,2.4c-0.1,0.8-0.3,1.3-0.5,1.3
				c-13.2,8.1-22.2,18.8-22,35.3c0,1.5-0.2,3-0.5,4.5c-5.2,33.1-11.4,66-17.7,98.9c-0.3,1.4-0.4,2.8-0.7,4.1
				c-1.1,5.4-1.2,13.3-7.8,13c-7-0.3-6-8.4-6.1-13.6c-0.5-23.7-0.2-47.5-0.2-71.2c0-9.3-0.3-18.6-2.2-27.8
				c-2.9-11.1-12.7-14.6-21.3-19.4c-20.5-8.4-41-8.9-62.5-2.9c-27.7,7.8-55.6,15.2-83.6,22c-5.9,1.4-11.7,3.3-15.9,8
				c-3.8,5.1-5.6,11.2-8.1,16.9c-5.5,9.8-15.2,8.6-23.6,7.6c-17.5-2.2-28.1,4.8-34.9,20.5c-5.5,12.8-13.4,24.5-17.4,38
				c-1.1,10.1,1.4,20.5-2.1,30.4c-14.3,12-15.5,27.9-15.2,45.2c0.5,32.3,2.4,64.8-4.1,97c-2.5,12.7,0,25.9,7.4,37.4
				c1.7,1.5,3.9,2.1,6,2.8c2.2,0.8,4.2,2,5.6,4c2.3,4.5,2.3,9.3,2.2,14.2c-0.1,8.7-0.1,17.4,0,26c0.1,7.4-2.2,13.4-8.8,17.3
				c-7.8,5.2-9.3,12.8-6.8,21c12.5,39.7,10.8,80.9,13.2,121.7c1.1,18,1.1,36.3,4.9,54.2c2.2,10.2,6.8,18.4,16,23.5
				c40,22.1,78.6,46.6,119.5,67.1c6.8,3.4,14.1,5,21.7,2.7c5.2-1.8,10.6-3.4,15.4-6.2c15-6.2,31.1-9.1,46-15.5
				c7.4-3.2,14.2-6.9,16.9-15.3c3.7-8.1-2.1-18.8,8.5-27.2c9.2,26,12.1,52,15.8,77.8c6.7,12.2,16.7,18.9,30.9,18.6
				c74.3,0,148.5-0.1,222.7,0c15.5,1.2,24-7.1,28.3-21.1c4.3-18.7,5.3-37.9,9.1-56.6c1-5.1,0.4-11.9,8.6-12.1c6,3.4,4.8,9.6,5,14.8
				c0.3,10,4.9,16.2,14.2,19.9c13.3,5.3,27,9.6,40.5,14.2c10.4,3.8,20.7,7.8,31.6,10c9.5,0.9,17.2-3.9,24.8-8.3
				c33.7-20,68.6-37.6,102.1-57.9c13.2-8,21.4-18.9,25.2-33.5c1.7-14.6,2.3-29.1-1-43.6c-1.8-12.6-1.1-25.2-0.9-37.8
				c-0.3-30.3-1.8-60.7,5.6-90.6c0.6-2.3,1.3-4.7,0.8-6.9c-9.1-36.4,2.1-71.9,3.8-107.8c1.7-36.5,6.7-72.4,10.2-108.6
				c4.7-12.7,2.6-23.8-8.1-32.8c-10.5-9.4-3.9-22.7-7.7-33.6c-0.7-2-1.3-4.1-1.9-6.2c-8.6-13.2-16.9-26.8-23.6-41
				c-5.7-11.9-13.7-16.7-26.4-15.5c-5.5,0.5-11.1,0.2-16.7-0.2c-6.4-0.4-10-4.2-12.4-9.7c-3-5.5-7.3-10-10.6-15.2
				c-5.9-5.9-13.7-7.7-21.3-9.7c-30.1-8-60.7-14-90.9-21.9c-19-5-36.8,0.7-54.5,6.7c-6.1,2.7-11.5,6.2-14.2,12.7
				c-0.4,1.3-0.9,2.6-1.5,3.9c-1.2,10.4-0.6,20.8-0.3,31.2c1,24.8-0.8,49.5-3,74.1c-0.4,4.1-0.1,10.2-4.5,10.7
				c-6.2,0.7-5.8-6.1-6.7-10.2c-8.2-37.9-13.6-76.3-21.7-114.2c3.4-18.1-10.1-25.3-21.7-33.7C517.6-46.7,517.6-48,518.6-49.2z"/>
			<path fill="#C5C5C6" d="M518.6-49.2c-0.1,0.9-0.1,1.7,0.1,2.6c-1.2,1.5-2.6,2.5-4.4,3.1c-47.7,1.8-95.4,1.8-143.1,0
				c-1.8-0.6-3.2-1.7-4.3-3.2c0.1-0.8,0.2-1.6,0.1-2.5C417.6-49.2,468.1-49.2,518.6-49.2z"/>
			<path fill="#2C2E2F" d="M861.2,124.8c12.5,8,12,19.6,8.8,31.9c-4.9-2.4-3-11.3-10.6-11.1c-18.1,1.4-33.3,11-49.2,18.2
				c-24.9,11.3-50.8,20.3-75.4,32.3c-4.1,2-9,2.9-11.1,7.7c-1.3,2.4-2.3,4.9-3.1,7.5c-2.5,8.8-2.7,18.1-5.4,26.9
				c-14.5,50.1-36,97.9-47.5,148.9c-4.7,20.8-24,32-43,27.8c-5.8-5.3-13.8-8.3-18.1-15.4c-0.5-1.4-0.7-2.9-0.7-4.4
				c5.3-11.2,4.2-22.4,1.4-34.1c-6-24.4-10.3-49.2-14.5-73.9c-2-12.1-9.7-22.1-13.8-33.5c-0.6-1.3-1.2-2.6-1.5-4
				c-4.4-22.5-4.4-22.5-27-22.5c-70.2,0-140.4,0-210.5,0c-17.3,0-17.1,0.2-20.7,17.2c-9.7,47.1-21.5,93.8-27.8,141.6
				c-0.7,5.5-2.2,11-4.7,16.1c-7.7,7.4-11.2,17.2-15.4,26.6c-6.9-9.5-16.7-13.7-27.3-18.1c-10.7-4.4-19.1-13.2-21.9-25.8
				c-10.9-48.4-27.3-95.3-40.8-142.9c-2.6-9-4.3-18.2-6.1-27.3c-0.4-3.3-0.2-6.9-2.5-9.7c-3.3-4.7-7.7-8-13.1-10.1
				c-40.1-15.5-78.9-34.2-119.3-48.8c40.2,14.7,78.7,33.2,118.6,48.7c3.4,1.3,7,2.7,9.4,5.9c4.8,5.2,5.8,11.5,5.8,18.2
				c0,56.9,4.5,113.8,2.8,170.7c-0.1,3.7,0,7.5-0.2,11.2c-0.8,10.9-4.4,20.2-15.6,24.4c-11.4,4.3-21-1-29.7-7.2
				c-14.7-10.5-26-24.9-45.6-29.6c-15.5-3.8-26.9-18.1-39.1-28.6c-7.2-6.2-6.7-18.9-5.1-29.4c1.4-8.8,2.7-17.7-3.8-25.3
				c-1.7-0.2-3.5-0.4-5.2-0.6c0.8-4.9,3.6-9.4,2.8-14.7c-3.7-25.8-2.8-51.8-2.8-71.2c0.4,18.9-1.2,44.4,2.6,69.7
				c1,6.9-0.6,13-8.1,15.9c-12.1-12.1-12.9-28.5-10.1-42.7c7.1-35.6,4.5-71.2,3.2-106.8c-0.6-15.5,1.9-28.6,17.8-35.3
				c1.3,0.4,2.5,1.1,3.5,2c5,4.4,10.9,7.2,17.1,9.3c34.9,12.1,67.9,28.9,102.8,40.9c2.2,0.8,4.9,1.2,6.3,2.9
				c13,15.7,28.3,11.6,44.4,6.2c10.3-3.5,20.8-6.9,31.7-8.4c-7.4,1.3-14.6,2.8-21.8,5c-5.2,1.6-12.8,3.8-14.7-2.6
				c-1.6-5.8,6.2-7,10.9-8.3c13.1-3.4,26.3-6.4,38.5-12.6c4.7-0.5,8.6,1,12.1,4.1c10,16.6,7.1,26.1-10.9,33.6
				c-16.4,6.9-34,10.2-50.6,16.4c-7.3,2.7-10.4,6.6-8.2,14.8c9.9,36.9,17.8,74.4,31.3,110.2c5.6,14.8,9.7,30,15.7,44.5
				c1.1,2.6,2,5.3,3.9,7.4c7,7.5,13.8,6.2,16.1-3.8c2.4-10.4,3.2-21.2,4.9-31.8c6-36.8,13.3-73.4,17.2-110.6
				c3.7-24.9,6.1-49.9,7.1-75.1c0.2-5.2-3.1-16.2,9.9-12.4c2.5,9.5-0.8,19.5,2.7,28.9c0.7,3.2,1.1,6.5,1,9.7
				c-0.2,10.5,5.1,13.2,15,13.1c78.3-1.3,156.7-0.4,235-0.6c8.9,0,17.7,0.6,26.6,1c3.3,0.4,6.2,1.6,8.6,4c1.5,1.7,2.3,3.7,2.7,5.9
				c-0.7,6.6,0.5,12.7,5.1,17.8c3.6,49.9,18.3,98,24.3,147.6c0.6,5,1,11,7.3,12.3c6.3,1.3,10.4-3,13.5-8.1c1.4-2.4,2.2-5.1,3.1-7.8
				c8.3-34.4,19.6-68,29.6-101.9c4.5-15.2,13.2-28.8,16.2-44.6c2.9-15,2.4-15.8-12.3-20.6c-15.1-4.8-30.3-9.4-44.9-15.5
				c-5-2.1-11-3.5-11.9-10.4c2.9-6.4,8.3-4.6,13.1-3.6c14.9,3,29.6,7.1,44.4,10.8c6.7,1.7,13.2,4.3,20.2,1.7
				c10.9-1.5,15.7-14.5,27.4-14.7c20.8-4.5,40.3-12.7,59.8-20.8c18.8-7.8,37.1-16.9,56.2-24.1c1.5-0.6,8.2,0.7,3.7-5
				C854.8,122.1,857.9,123.1,861.2,124.8z"/>
			<path fill="#2B2B2B" d="M861.1,141.7c10.1,0.8,7.9,8.9,8.9,15c-1.5,14.3-2.6,28.7-4.5,43c-2.8,20.3-6.2,40.7-4.1,61.2
				c2.7,26.8-13.4,51.4-8.8,78.1c7.8,44.9-7.6,89.2-3,134c-5.6,5.2-8.8,11.7-11.3,19c-5.7,16.6-17.6,19.8-29.3,7.4
				c-7.7-8.1-12.3-12-22.8-2.3c-12.8,11.8-19.7,8.3-27-8.3c-5.1-11.7-17.6-14.2-27.9-15.7c-11.2-1.6-13.3-6.8-14.9-16.1
				c-4.9-28.7-2.8-57.5-2.7-86.3c0.1-48.1,2.3-96.1,4.3-144.1c-0.3-5.8,0.9-11.6,0.1-17.4c0-2.4,0.5-4.5,2.7-5.8
				c15.5-11.4,33.7-17,51.2-24.2C801.8,167,830.6,152.3,861.1,141.7z"/>
			<path fill="#1F2022" d="M204.5,655.6c-9.1,6.1-17.8,3.3-26.3-1.5c-29.6-16.7-59.1-33.6-88.7-50.2c-10.1-5.7-20.4-11-30.6-16.6
				c-11.5-6.3-18.1-15.9-18.8-29.2c-2.4-42-5.5-83.9-6.9-126c-0.6-17.3-8.9-32.3-10.9-48.9c-1-8.6-3.8-18,7.5-22.6
				c2.9-1.9,6-1.3,9.1-0.8c6,3.9,6,10.2,6.1,16.3c0.4,27.1,3.3,54.1,5.3,81.1c0.6,8.6,1.8,13.3,12.2,14.4
				c11.1,1.1,21.6,5.7,29.7,14.4c6.9,7.3,16.8,10.1,24.9,15.7c7.7,5.3,15.6,10.4,21.5,17.8c6.9,8.7,17.6,10.5,27.2,13.5
				c8,2.5,9.1-4.4,9.8-10.1c1.6-12.6,0.3-25.3-0.3-37.8c-1.7-40.7,1.8-81.4,0.4-122c-0.7-20.5,0.8-40.9-0.9-61.4
				c-0.4-5.2-3.2-12.8,6.3-14.2c4.7,3.7,4.2,9.1,4.3,14.1c1.6,83.9,5,167.8,5.7,251.6c-0.5,21.5-0.2,43-0.3,64.5
				c0,4.2,0.1,8.4-0.7,12.6c-1.7,8.7-4.2,11.7-13.9,6.7c-29-15-57.6-30.7-85.3-48c-7.5-4.7-16.3-6.9-23.7-12
				c37.9,19.6,73.9,42.7,111.8,62.3c11,5.7,8.5-4.1,11.3-7.9c7.2-11.3,12-23.7,16.9-36.2c2-5.2,2.3-13.5,11.7-12.5
				c2.8,3.8,2.5,8.1,1.1,12C212.8,614.5,210.4,635.5,204.5,655.6z"/>
			<path fill="#252525" d="M720.7,225.9c0.7,50.2-3.9,100.2-3.2,150.5c0.4,28.4-1.4,56.7,3.2,85c0.9,5.2,0.6,7.7,8,7.1
				c12.1-1,21.8,7.5,32.2,12.6c3.3,1.6,3.9,5.1,3.4,9.6c-1.1,10.1,4.3,13.1,13.5,7.9c7.6-4.2,15.9-8,17-20
				c6.4,7,11.5,12.2,16.1,17.9c3.7,4.6,7.3,8.5,14,7.1c7.3-1.6,9-7.6,10.5-13.4c2-8.2,2.3-17.4,14.3-17c0.2,12.7,0.4,25.3,0.6,38
				c2.1,6.8,0.7,13.8,1.1,20.6c-3.7,9.5-10.3,17.7-6.6,29.8c2.6,8.5-4.1,12.2-12.7,9c-0.2-0.1-1.1,1.3-1.8,2
				c-35.5,23.5-73.8,41.9-110.3,63.6c-11.5,6.8-16.8,3.9-16.8-9.3c0.1-43.9-2-87.8,1.7-131.7c0.6-7.5,0.9-14.9,0.6-22.4
				c-1.9-49.5,2.5-98.9,3.5-148.4c0.5-22.8,1.6-45.7,2.7-68.5c0.1-1.6,0.4-3.2,0.8-4.8c1.9-5.6,2.4-11.5,3.1-17.4
				C715.8,230.4,715.2,225.8,720.7,225.9z"/>
			<path fill="#151515" d="M305.3,152.3c-8.7-2.9-5.9,4.2-5.7,7.4c1,25.4-3.7,50.4-5.9,75.6c-0.1,1.6-1.6,3.2-2.5,4.7
				c-8.6-7.2-8.4-17.5-9.7-27.3c9.8-4.8,0.8-12.8,3-19.1c0.8-2.3,0.2-7.6-5.1-3.6c1.7,12.3-2.4,22.9-9.5,32.6
				c-21.9,29.5-24.4,63.5-23,98.5c0.5,13.5,1.6,26.9,2.8,40.4c0.5,5.6,3.1,13.5-6.1,16.1c-8.8-25.1-17.4-50.2-26.5-75.2
				c-9.8-27-12.3-55.9-22.1-82.8c-3-8.4-0.6-11.8,7.5-14.1c15.6-4.5,31.1-9.5,46.5-14.6c22.9-7.6,25-11.1,19.9-31.3
				c3.7-7,16-6.4,15.5-17.3c0.1-23-0.3-46.1,0.5-69.1c0.9-3,1.2-7.2,5.3-6.8c3,0.3,4.2,4,4,6.7c-0.6,9.6,1.3,19.4-0.9,25.7
				c2.7-25.8,2.6-54.9,2.2-84c-0.1-9.7-6-10.2-13.4-8.4c-14.5,3.5-28.6,8.4-43.3,11.4c-9.1,1.8-18,5.1-27.6,3c-3-0.9-5.7-2.4-7.6-5
				c-0.4-8.1,5.9-10,11.5-11.7c15.5-4.9,31.2-9.5,47.7-9.3c7,0.1,14-1,20.6-3.2c10.2-3.3,20.1-3.1,29.8,1.4
				c4.9,34,1.5,68.2,3.3,102.2c0.3,4.9,0,9.7,3.1,14.9c7.4-40,14.8-79.9,22.2-119.9c2.7-0.7,8,5.2,7.8-3.2c-0.1-3.2,0.9-6.4,3.2-8.9
				c11.5-7.4,23.7-7.8,36.2-3.2c2.5,2.5,2.8,5.4,1.8,8.6c-3.8,5.6-9.9,4.3-15.3,4.8C368.5-11.1,362.8-9,362-0.7
				c-0.3,1.5-0.7,2.9-1.1,4.4c-2.5,12.5-0.6,25.1-1.1,37.7c1.6,29.4-2.5,58.6-3,87.9c-0.2,14.7-7.2,26.5-21.6,31.3
				C324,164.3,312.9,163.5,305.3,152.3z"/>
			<path fill="#27292A" d="M178.9,287.7c-7.4,12.9-1.1,26.6-0.6,39.4c1.7,52-0.7,104.1,1.7,156.2c0.6,13.9,2,28.3,0.2,42.5
				c-1.8,13.7-5.5,13.6-18.1,11c-21.9-4.5-31.1-25.9-49.9-33.5c-17.1-7-27.8-24.5-47-27.6c-1.7-0.3-3.9-2.6-4.9-2.1
				c-20,9.4-12.3-7.2-13.1-14.4c-3.4-30-5.9-60.1-6-90.4c0-2.6-1.8-5.2-2.7-7.8c2.7-14.1,2.1-28.1,0.5-42.2
				c-0.3-4.6-0.5-9.3-0.8-13.9c11.6,5.1,10.7,15.3,7.5,23.9c-4,10.5,1.7,19.1,2.7,28.5c0.4,3.6,7.6,1.5,11.7,5.9
				c11.7,12.6,24.2,25.8,43.8,25.9c1.8,0,5.1,0,5.3,0.8c3.6,11.8,16,14.1,23,21.8c7.9,8.6,21.9,13.4,32.1,8.1
				c8.1-4.2,9-11.9,8.8-19.1c-1.1-39.6,2.5-79.3-2.1-119c-2.3-20.2-0.7-41-0.4-61.4c0.1-7.3-1-13.8-5.7-19.6c5.1-4.1,7.4,2.5,11.3,3
				c3.2,2.1,2.6,5.5,2.6,8.6c-3.3,9.8,2.3,18.6,3,28c0.4,5.9,1.5,11.8,1.1,17.7C181.6,267.8,185.8,278.5,178.9,287.7z"/>
			<path fill="#3E3F3F" d="M861.2,124.8c-3,0.5-6.5-0.5-8.6,2.8c-28,14.9-57.4,26.5-87,37.6c-11.3,4.2-21.5,11.2-33.7,12.9
				c-9.2,3.2-14.2,14.1-25.2,14.1c-28.4-3.9-56.4-9.4-80.9-25.7c-1-1.1-1.6-2.4-1.7-3.8c0.1-2.1,1-4.1,2-5.9
				c2.9-17,3.1-34.2,3.6-51.3c0.4-14.2,3.8-18.1,17.7-19c8.9,0.9,18.8,5.9,25.1-5.5c7.8-0.8,13.1,2.9,17.1,9.3
				c1.3,11.8,4.7,23.8-2.8,34.9c-8.7-5.7-0.9-14.1-3.9-19.8c1.8,7.4-3.9,16.7,4.1,24.1c18.4-5.3,35.8-13.4,53.6-20.2
				c23.2-15.2,49.6-8.5,74.7-10.6c6.5-0.6,13-0.4,19.5-0.1c7.4,0.4,13.7-1.2,18.2-7.5c4.2,6.9,2.1,14.5,2,21.7
				C854.8,118.3,855.8,122.5,861.2,124.8z"/>
			<path fill="#1B1C1C" d="M687.3,88.4c-6.3-0.1-10.4-7.9-17.5-5.2c-1.1,1-2.4,1.6-3.9,1.8c-10.5-1.8-20.9-4.2-31.4-5.9
				c-9.6-5.7-20.2-7.9-31.1-9.2c-1.2,0.1-2.3,0.3-3.4,0.6c-3.1,1.7-2.6,7.3-7.5,7.1c-9.8-8.4-5.2-21.9-11.5-31.6
				c-1.6-16.2-3.8-32.5,6.5-47.1c7.8-5.9,14.4,1.8,21.7,1.7c-7.8,0.1-15.2-9.2-23.2-0.6c-14.1,8-8.6-4.9-10.6-9.9
				c1.9-6.4,6-10.4,12.6-11.9c7.9-1.6,15.8-0.9,23.5,0.9c30.4,6.8,60,16.7,90.6,22.8c7.7,1.6,13.2,6.5,17.6,12.8
				c4.5,5.6,8,12.4,17,11.7c3.6-0.3,8.4-0.2,9.2,3.9c0.9,4.1-3.8,5.7-6.7,7.7c-1.5,1-3.1,2-4.7,2.9c-14.7,8.7-15.3,8.7-19.3-6.7
				c-3.4-12.9-15.4-9.3-21.2-12.6c23.4,4.7,22.4,5.5,21.6,29.1c-0.7,20.7-0.8,42.1-7.9,62.2c-0.9,2.6-1.3,5.5-2.7,7.9
				c-2.3,4.1-5.8,6.3-10.5,5c-4.2-1.1-5.5-4.5-5.8-8.6C687.8,107.8,690.1,98,687.3,88.4z"/>
			<path fill="#131314" d="M575.2-9.8c4.1,2.1,0,14.9,10.8,8.4c0.9-1.2,1.9-1.2,2.8,0c-6.7,15.3-5.5,31.6-5.6,47.7
				c5.9,34.7,7.5,69.5,0.5,104.3c-7,11-17.5,14.1-29.3,10.6c-13.1-3.8-23.4-11.6-27.3-25.7c-1.7-6.4-1.2-13-1.5-19.5
				c-1.9-37.2-2.4-74.5-3.6-111.8c-4.6-8.8-12.8-9.9-21.5-9.9c-23.7-0.1-47.5,0-71.2-0.1c-6,0-12.1,0.4-18-1.6
				c-3.3-1.3-5.2-3.9-6.1-7.2c-0.5-5.6,2.7-8.9,7.2-11.4c4.5-1.7,9.1-1.5,13.7-0.6c23.4,2.1,46.8,5.7,70.2,6.7
				c17.2,0.8,32.8,1.4,40.5,20.4c-1.1-6.2-9-10-4.1-17.2c4-2.3,7.6-1.6,11.1,1c5.9,32.7,11.9,65.4,17.9,98.1
				c1.7,9.5,3.7,19,7.7,28.4c0.9-28.1,1.8-56.3,2.7-84.4c3.1-11.1-1.1-22.8,2.3-33.9C574.3-8.3,574.4-9.1,575.2-9.8z"/>
			<path fill="#030303" d="M664.1,647.3c-17.6-4.1-35-9.7-50.9-17.8c-12.4-6.3-7.6-20.6-8-32c-5.6-6-3.5-13-2.8-19.9
				c2.5-24.8,12.6-47.8,17.1-72.1c1.8-9.5,8.3-15.8,18.7-15.8c10.2,0,12.8,8,14.8,15.9c6.2,25.4,15.9,49.9,20.7,75.7
				c1,8.5-1.3,16.5-4,24.4c-4.2,12.2-9.4,24.2-0.3,37C672.8,647.7,668.8,649,664.1,647.3z"/>
			<path fill="#030404" d="M282.9,619.2c-1.2,8.8-8.3,11.8-15.2,14.2c-16.3,5.8-32.8,11.1-49.2,16.6c-3.7,1.7-6.7,1.9-5.2-3.4
				c0.7-2.7,3.8-3.9,6.2-5.4c17.4-10.8,17.6-10.8,10-30.2c-5.4-13.9-8.1-27.5-2.1-42c3.2-7.7,4.6-16.1,3.9-24.7
				c1.1-14.6,7.5-27.8,10.7-41.9c1.6-6.7,5.2-12.1,13-12.7c7.9-0.6,13.3,3.5,17.3,9.7c2.8,4.4,3.6,9.6,4.6,14.6
				c3.9,19.2,7.4,38.5,10.8,57.7C290.5,587.8,281.7,603.1,282.9,619.2z"/>
			<path fill="#282929" d="M670.3,582.5c-7.3-25.9-14.6-51.7-21.7-77.6c-1.5-5.3-1.1-11.3-8.8-12.2c-7.8-0.9-14.6,3.5-15.5,9.3
				c-5.1,32.1-20.6,62.2-19,95.5c-6.2-0.3-4.3,4.5-5,7.8c-4.1,20.8-4.8,42.1-10.8,62.6c-5.6,1.4-4.8,7.7-8.3,11
				c-6.2,5.9-10.6,7.2-14.1-2.1c-0.5-2.1-0.6-4.3-0.3-6.5c11.3-52.6,21.2-105.4,32-158.1c1.7-8.3,3.1-16.7,10-22.6
				c9.1-2.9,13.3-12.6,22.3-15.7c7.1-1,14.2-0.8,21.2,0.8c8.3,4,12.5,11.1,14.5,19.5c9.2,38.6,18.7,77.1,34.1,113.8
				c1.8,4.3,2.2,9,3.1,13.6c-0.1,7.4,0.7,14.8,1,22.1c-9.1,5.2-11.3-2.8-14-8.1c-6.6-12.7-10.2-26.8-17-39.5
				C670.3,592.2,673.3,586.6,670.3,582.5z"/>
			<path fill="#28292A" d="M282.9,619.2c4.1-37.8-3.7-74.4-11-111.1c-1.5-7.3-5.1-12.3-11.2-14.7c-5.3-2-12.4-2-13.6,5.3
				c-2.7,16.1-11,30.7-12,47.2c-4.7,8-5.5,17.3-8.5,25.8c-1.5,4.3-1.1,10.5-8.2,10.8c-9.8,10.2-9.5,25-16.8,36.3
				c-3,4.6-3.9,10.5-8.6,14.2c-5.3-7-2.3-14.5-0.5-21.5c9.9-39,24.1-76.8,32-116.3c0.9-4.7,3.3-8.8,8-10.9c1.7-0.8-0.2,0.5,1.2-0.6
				c17.8-13.6,34.1-12.7,48.9,4.6c5.9,5.3,7.7,12.7,9.3,20c3.9,17.3,6.8,34.9,10.7,52.2c8.2,36.8,17.6,73.4,24.2,110.6
				c0,1.4-0.3,2.8-1,4.1c-9.3,4.9-15.5-0.4-21.3-6.7c-0.5-0.5,0-1.5-0.7-2c-0.1,1.4-0.4,2.7-1.6,3.6c-4.8-25.8-9.7-51.6-15.1-80.7
				C282.2,601.3,288.8,611.1,282.9,619.2z"/>
			<path fill="#1D1D1D" d="M313.4-7c-2.4,1-3.7,6.2-6.3,3.9c-3.7-3.3-6.3-5.9-11.8-4.1C266,1.9,233.2-4.1,205.6,13
				c-0.7,0.4-1,1.5-1.5,2.3c-1.3,8.3-8.8,7.6-14,8.7c-11.9,2.6-16.2,9.6-15.9,21c0.3,14,0.2,28,0.2,42.1c0,3.7,0.4,7.5-0.1,11.2
				c-0.9,5.9,2.1,15.6-7,15.6c-7.5-0.1-6-9.2-6.3-14.9c-0.5-8.4-0.2-16.8-0.4-24.3c-6.1,10.9-7,24.6-13.7,36.1
				c-10,3.3-17.3-2-24.7-7.4c0.8-16.7,8.9-30.6,18.5-43.4c3.4-4.5,7.3-8,6-13.8c-8.7,15.5-17.5,31.2-24.3,47.9
				c-1.6,3.9-4.3,7.9-9.4,6.3c-4.4-1.4-4.1-5.7-3.5-9.5c0.5-2.7,0.8-5.5,1.3-8.3c3-12.8,10.5-23.5,15.8-35.3
				c3.5-8,7.9-15.8-5.9-18.4c-4.2-0.8-6.1-4-3.9-8.4c-0.3-6.4,2.2-11.7,6.6-16.2c13.2-3.9,24.2,4.3,36.1,7.1
				c6.6,1.5,11.5,2.7,16.3-2.8c2.9-3.3,6.9-4.8,10.9-6c34.6-9.9,69.6-17.9,104.5-26.7C300.2-20.5,308.9-16.6,313.4-7z"/>
			<path fill="#3F4040" d="M116.8,20.5c0.9,4.2,3.3,6.4,7.8,6.1c14.6-0.8,11.7,7.6,8.2,16c-5.7,13.6-14.3,25.8-18.5,40.1
				c-3.3,12.5-11.7,16.4-24.1,15.6c-12.1-0.7-24.3-0.1-36.4-0.2C45.3,98,39.3,95.3,39,85.7C48,68,57.1,50.4,65.9,32.6
				c2.6-5.1,6.6-5.6,11.5-5.6c9.7,0.1,19.5-0.4,29.2,0.1C112.1,27.4,115.3,25.6,116.8,20.5z"/>
			<path fill="#3C3D3D" d="M771.5,17.8c1.8,7.1,5.7,10.8,13.7,9.2c25.4-5.2,41.1,5.2,50,29.3c3.9,10.5,11.2,19.6,16.9,29.4
				c-0.2,8.8-5,12.1-13.4,12.1c-15,0-29.9,0.2-44.9-0.1c-7.7-0.1-13.8-3.1-17.2-10c-6.7-13.4-16.1-25.2-22.4-38.8
				c-8-17.1-7.1-20,9.8-27.5C766.5,20.4,768.7,18.6,771.5,17.8z"/>
			<path fill="#1F2021" d="M771.5,17.8c0.2,7.6-4.2,8.9-10.8,9c-8.3,0.1-10.3,4.6-6.9,12.3c7.7,17.5,19.4,32.7,28.2,49.5
				c2.5,4.8,5.7,5.4,10.1,5.4c15.9-0.1,31.8-0.5,47.7,0.1c7,0.3,10.1-3,12.4-8.4c0.2,1.7,0.5,3.5,0.7,5.2c0,9-4.6,12.3-13.4,11.5
				c-19.8-1.8-39.6,3-59.5-0.1c-14.8-2.3-26.8,6.1-39.7,11c-7.9-6.3-7.4-15.7-8.1-24.1c-1.4-17.2-5.4-34.6,2.6-51.4
				c2.8-2.2,5.7-4.4,12-9.3c-15.1,4.6-23.7,0.6-28.8-10.4c12.9-10.5,26.8-17.4,44.1-14C764.3,9.4,771.9,10.8,771.5,17.8z"/>
			<path fill="#3B3C3C" d="M544-15.6c-3.8-0.1-7.6-0.2-11.4-0.3c-30.2-6.3-61-4.6-91.6-6.8c-5.1-0.4-10.3,1.3-15.1-1.3
				c-4.7,0-9.4,0-14,0c-7.5,4.4-15,5.9-22.5,0c-12.4,0.7-25.4-3-36.6,5.5c-2.3,4.4-8,2.3-10.8,5.8c0.5-17,7.1-29.6,24.7-34.1
				c1,0.3,2.1,0.6,3.1,0.8c48.5,1.6,97.1,1.5,145.6,0.1c1-0.3,2.1-0.6,3.1-0.8C539.8-38.8,543.6-34,544-15.6z"/>
			<path fill="#3C3D3D" d="M291.3-24.1c-14.6,11.3-33.1,11-49.6,16.5C225-2,207.6,1.1,190.5,5.4c-1.3,0.3-3.1,0.4-3.9,1.3
				c-20.3,20.7-39.5,2.2-59.1-1.6c-1.4-0.3-2.7-0.6-4.1-0.9c4.1-7.4,11.8-8.8,18.8-10.6c34.1-8.9,68.3-17.1,102.3-26
				C261.5-36.8,276-28.8,291.3-24.1z"/>
			<path fill="#3B3C3C" d="M762.1,4.3c-15.5,2.2-29.4,9.3-44.1,14C712.3,9.5,704.1,6.1,694,3.9c-27.5-6.1-54.6-13.6-82-20.4
				c-8-2-16.2-3.5-24.3-5.2c21.7-9.6,43.5-14.3,67.6-7.3c28.6,8.3,57.9,14.5,86.9,21.6C750-5.5,757.5-3.2,762.1,4.3z"/>
			<path fill="#1E1E1E" d="M675.8,593.7c8.2,11.7,10.5,26,16.9,38.5c2.7,5.2,3.5,11.7,11.3,12c42.6-25.9,88.6-46.3,129-75.9
				c4.4-3.6,2.1,7.7,6.1,3c2.9-3.4,4.9-8,2.2-12.7c-6.1-10.9-1.4-18.1,8-23.7c3.6,7.8,1.8,15.9,0.9,23.9
				c-2.9,12.2-9.2,22.4-19.9,28.6c-40.9,23.5-82.3,46.3-123.2,69.9c-4.5,2.6-7.7,1.8-11.7,0.7c-8.4-3.5-12.3-9.8-13.3-18.9
				c-1-10.1-4.3-19.8-6.9-29.6C673.9,604.3,671.4,598.8,675.8,593.7z"/>
			<path fill="#2C2C2D" d="M39,85.7c2.7,5.9,6.6,9,13.9,8.5c11.6-0.8,23.3-0.8,34.9,0c11.2,0.8,20.8-0.3,26.5-11.4
				c2,5.3-6.4,13.1-0.3,14.8c7,2,7.5-7.6,9.3-12.9c5.4-15.7,18.7-28,19.6-45.6c0.1-2.2,1.9-3.3,3.8-3.2c1.1,0.1,3.1,1.3,3.2,2.1
				c0.8,7.2,4.5,17-1.9,20.9c-16.7,10.3-17.1,28.8-25.1,43.3c-28,6.5-54.7,18.9-84.2,19.1c-0.1-0.8-0.2-1.6-0.3-2.4
				C37.5,107.9,37.1,96.7,39,85.7z"/>
			<path fill="#1D1D1D" d="M302.2,670.1c0.2-3.7,0.4-7.3,0.9-15.4c3.1,15.4,11.3,19.6,21.8,20.5c8.3,1.4,16.6,1.7,25,1.7
				c68.9-0.1,137.9,0,206.8-0.1c4.1,0,8.4-0.8,12.4,1.1c3.9,5,7,3.6,10.6-0.6c4-4.7,5.8-10.1,7.7-18.9c1.1,5,1.5,7.2,2,9.5
				c-3.8,13-11.4,21.3-25.9,21.2c-3-2-6.3-1.3-9.5-1.3c-71.3,0-142.6,0-214,0c-3.2,0-6.6-0.7-9.5,1.4
				C317.4,688.3,307.9,682,302.2,670.1z"/>
			<path fill="#0E0E0E" d="M218.3,582.5c6.1-7.8,5.1-18.1,9.2-26.6c1.8-3.7,1.1-9.6,7.5-10c0.8,6.7-0.2,13.3-2.8,19.2
				c-8.2,18.2-3.8,35.1,3.5,52.3c6.7,15.6,5.3,18.2-10.2,24.8c-3.4,1.5-7.4,2.7-9.8,5.2c-2.1,2.3,1.6,1.8,2.8,2.5
				c-4.2,3-8.9,4.7-14,5.6c-1.7-0.8-3.6,0.1-2.6-4C207.8,628.7,212.9,605.6,218.3,582.5z"/>
			<path fill="#121213" d="M675.8,593.7c6.4,21.5,6.5,44.9,19.7,64.2c-11.1-1.7-21.4-5.9-31.4-10.7c1.3-0.7,5-1.1,3.2-2.5
				c-14.4-11.5-5.9-24.6-2.5-36.8c2.4-8.5,6.3-16.5,5.5-25.6C674.8,584.9,671.4,591.3,675.8,593.7z"/>
			<path fill="#050506" d="M330.5,689.1c3.2-3.9,7.7-2.7,11.7-2.7c69.8-0.1,139.7-0.1,209.5,0c4,0,8.5-1.2,11.7,2.6
				C485.9,689.1,408.2,689.1,330.5,689.1z"/>
			<path fill="#141515" d="M27.5,303.8c9.2-10.6,5.6-23,4.1-34.7c-2.9-22.9-0.6-45.7-1.7-70.2c7.5,4.6,5.5,9.7,5.7,14
				c1.2,25.5-2.3,51.2,2.8,76.7c1.1,5.7,0.1,11.1-5.5,14.6C31.1,304,29.3,303.9,27.5,303.8z"/>
			<path fill="#2C2E2F" d="M38.9,318.6c3.5,14.1,4.9,28.2-0.5,42.2c-2.9-0.1-5.7-0.2-8.6-0.3c8.3-1.5,10.4-6.4,9.5-14.5
				C38.4,337,39,327.8,38.9,318.6z"/>
			<path fill="#1B1C1C" d="M342.1-12.7c2.2-4.4,7.1-3.9,10.8-5.8c-0.1,6.2,1.3,12.7-4,17.8c-5.6-0.7-3-7.3-6.8-9.2
				C342-10.8,342.1-11.7,342.1-12.7z"/>
			<path fill="#2B2B2B" d="M850.3,558.8c-0.3-8-0.6-15.9-0.9-23.9c0.3-8,0.5-15.9,0.8-23.9C852.6,526.9,854.1,542.9,850.3,558.8z"/>
			<path fill="#1B1C1C" d="M574.7-7.4c-0.8,11.3,2.7,22.9-2.3,33.9C572.3,15.2,570.9,3.7,574.7-7.4z"/>
			<path fill="#272727" d="M515.6-45.8c-48.5,3.6-97.1,3.8-145.6-0.1C418.6-45.9,467.1-45.8,515.6-45.8z"/>
			<path fill="#3F4040" d="M38.7,121.3c28-6.4,54.7-19,84.2-19.1c7.5,2.8,15,5.6,22.5,8.4c12.1-3.4,20.6,6.4,31.2,8.4
				c7.1,3.4,14.1,7.1,22.3,6.9c4.1-11.2-0.7-23,2.8-34.1c1.1-2,3.6-5,4.9-3c7.9,12.9,19.3,8.7,30.2,7.1c16.8-0.4,20.5,3.2,20.6,19.6
				c0,11-4,21.9-1.4,33c0.7,1,1.4,2.1,2,3.2c0.5,1.2,0.6,2.4,0.1,3.6c-13.9,12.2-33.4,9.8-51.8,19.5c19.1,1.2,33.4-10.6,52.6-5.8
				c-14.6,8.2-28.9,8.4-41.4,13.4c-6.4,2.6-13.4,3.8-20,6c-9.4,3.1-17.9,3.8-24.3-6.1c-2.5-3.9-6.8-5.9-11.3-7.6
				c-36.5-14.1-72.8-28.4-109-43.1C47.4,129.6,40.7,128.4,38.7,121.3z"/>
			<path fill="#090909" d="M235,487c-5.9,0.3-6.3,5.4-6.9,9.1c-7.4,41.2-23.2,80-33,120.5c-1.3,5.5-2.1,10.9-2.1,16.4
				c-4.1,14.6-9.4,11.8-21.7,5.5c-36-18.4-69.2-41.8-105.6-59.4c-3.7-1.8-8.9-2.9-9.4-10c28.9,12.1,53.9,29,80.4,43
				c14,7.4,28.3,14.2,41.7,22.5c9,5.6,9.1,0.9,9.1-5.8c0-23.9,0-47.7,0-71.6c2.1-23.6,4.8-47.1,11.9-69.9c2.8-8.9,5.2-17.9,9.4-26.4
				c8-16,8.9-33.1,1.4-48.8c-16.8-35.4-20.6-73.4-25.8-111.4c-2-14.6-3.6-29.3-5.3-43.9c-0.6-10.6,1.1-21.3-2.3-31.8
				c-1.3-4.1-2.1-9.3,2.2-13c5.5,34,18.3,66,27.2,99.1c6.5,24.2,14,48.1,19.9,72.4c3.5,14.5,13.8,24.7,25.7,26.1
				c13.7,1.6,17.6,7.5,19.5,18.5c4.3,2.5,2.6,7.6,4.8,11.4c7.7-1.3,14.4-9.1,23.2-4.1c1.9,2.1,1.5,4.5-0.1,6.3
				c-9.3,11-21,19.5-30.2,30.6c-1.5,1.8-4,2.6-6.4,2.1C250,471.5,242.6,479.4,235,487z"/>
			<path fill="#3D3E3E" d="M588.8,206.3c-11.1,0-22.3,0-33.4,0c-72,0-144,0-216,0c-1.9,0-3.7,0-5.6,0c-28.2,0.1-28.2,0.1-28.7-28.6
				c4.3-11.8,15.5-11.6,25-14.1c4.9-1.3,10.2-0.8,15.2-0.7c8,0.1,11.8-3.3,12.1-11.6c0.2-5.6-1.4-12.4,5.6-15.7
				c4.7,2.8,5.3,7.7,5.2,12.3c-0.3,12,6.2,14.9,16.8,14.8c23.3-0.3,46.7-0.2,70-0.1c21.5,0.1,43-0.5,64.4,0.3
				c21.1,1.3,42.6-3.6,63.1,5.4c5,3.5,7.9,8.4,9.4,14.2C592.3,190.6,594.8,199,588.8,206.3z"/>
			<path fill="#080809" d="M653.4,374.8c0.3,6.5-2.3,11.9-6.8,16.2c-10.1,9.4-21,7.5-22.4-5.1c-5.6-52.8-24.2-103.5-24.2-157.1
				c-3.9-7.5,7.3-10.8,4.9-17.9c1.6-9.8,4.1-19,13.1-24.8c9.5,16.4,23.2,30.1,31.9,47c10.6,20.6,12.8,43.4,12.3,65.6
				c-0.4,18.9,0,38.4-6,56.9C654.2,361.8,656,368.6,653.4,374.8z"/>
			<path fill="#171819" d="M653.4,374.8c1.2-23.1,4.1-46.2,4.9-69.3c1.3-37.3-3.9-73.9-34.2-100.6c-6.4-5.6-0.6-14.3-8-18
				c-6.6,3.9-11.8,1.2-16.5-3.6c-1.1-1.3,3.2-3.5-1.1-4.6c-11.7-2.9-16.2-11.4-16.8-22.7c-0.7-1.7-1.1-3.5-1.3-5.4
				c3.9-6.9,2.7-14.5,2.8-21.9c0.1-27.5,0-55,0-82.4c9.6,8.1,2.4,22.4,11.1,30.9c8,10.6,1.2,23.5,5.2,34.7c0.9,3.6,1.1,7.3,0.2,10.9
				c-3.5,9.5-12,18.9-0.3,28.4c6.6,1.8,13.2,3.6,19.9,5.4c2.5,1.1,4.7,2.4,5.8,5c0.2,0.8,0.3,1.6,0.4,2.4c1.6,5.6,1,11.4,2.5,17
				c9.1,9.6,22,11.1,33.5,15.2c11.3,4,22.3,9.1,34.6,10.3c5.9,0.6,6.8,3.7,6,9.8c-2.2,15.7-8.6,29.9-13.6,44.7
				c-12.2,35.9-24.6,71.9-32.5,109.1C655.7,371.7,654.3,373.2,653.4,374.8z"/>
			<path fill="#020203" d="M282.9,403.3c8.8-29.1,10.8-59.4,16.5-89C304.7,287,314.9,261,317,233c0.7-9.5,9.3-10,17.3-10
				c48.2,0.1,96.4,0,144.5,0c27.1,0,54.3,0,81.4,0c17.4,0,19.3,1.8,20.1,18.9c0.2,4.3,0.6,8.4,2.9,12.1
				c10.7,35.7,15.8,72.5,22.3,109c2,11.4,2.7,22.8,2.8,34.3c0,0.9,0.1,1.8,0.3,2.7c0.2,4.4-3.1,4.8-6.2,5.4
				c-12.9-2.6-25.2-6-30.8-19.9c-2.8-36.4-0.6-72.8-1.3-109.2c-0.2-9.8,0.2-19.6-0.1-29.4c-0.5-14-2.5-16.2-16.7-16.4
				c-30.8-0.4-61.7-0.1-92.5-0.1c-38.3,0-76.6-0.2-114.9,0.1c-18.4,0.1-22.4,3.8-22.3,22.4c0.2,32.2-2.1,64.4,2.1,96.6
				c1.2,9.2,1.4,18.7-3.5,27.3C312.7,390.5,302.4,403.8,282.9,403.3z"/>
			<path fill="#050506" d="M701.2,621.7c-15.2-40.4-29-81.2-37.1-123.7c-1.7-9.1-6.6-16.1-13.6-22c-10.9-1.5-16.1-15.5-28.8-12.9
				c-5.6-1.4-10.2-4-12.4-9.7c-0.4-2.1,0-4.1,1.1-5.9c1.4-1.4,3.3-2.3,5-3.3c6.2-5.5,2.1-12.9,3.5-19.2c1.1-5-2.7-12.3,6.4-13.6
				c15.7,4.6,35.2-6.5,39-23.8c6.1-28.1,13.2-56.2,24-82.6c9.1-22.3,14.6-45.8,24.3-67.8c7,3.5,3.7,8.9,2.7,13.9c0,0.9,0,1.8,0,2.8
				c-6,31.1-12.9,61.9-22.5,92.1c-6.6,20.8-12.5,42-25.3,60.3c-7.5,10.8-8.1,22.3-3.3,34.6c8.6,22.2,18.2,44,25.2,66.7
				c10.4,33.6,17.9,67.6,15.8,103C704.9,614.5,708.8,620.5,701.2,621.7z"/>
			<path fill="#050505" d="M282.9,211.7c2.8,9.5,5.6,18.9,8.4,28.4c-0.7,35.8-10.6,70.4-15.1,105.7c-1.4,10.5-3.4,21-4.6,31.6
				c-0.9,8.3-2.5,18.1-11.8,17.6c-7.9-0.4-17-5.7-16.2-17.3c5.2-7.2,3.1-15.4,2-22.9c-4.9-31.8-4.3-63.4,2-94.9
				c2.7-13.6,9.8-24.9,17-36.4c6.2-9.9,15.5-18.8,10-32.5c-1-2.5,0.3-5.6,3.6-6.6C284.2,192.6,286.8,201.6,282.9,211.7z"/>
			<path fill="#FCFCFC" d="M282.9,403.3c13.3-5.6,27-10.7,33.9-25.1c7.5-4.5,8.1,2.4,8.6,6.1c2,16.7,1.7,33.4,0.3,50.1
				c-0.7,8.4-6.1,10.9-13.9,8.5c-4.4-1.3-9-2.4-12.2-6.3c-10.6-2.3-17.9,4.5-27,11c-0.5-7.4-1-13.5-1.4-19.6
				C270.4,417.7,271.6,408.1,282.9,403.3z"/>
			<path fill="#FBFBFB" d="M361.8,136.1c-0.6,10,2.4,23-2.8,29.1c-5.6,6.7-19.1,1.4-29,2.4c-9.3,0.9-17.4,4.7-24.9,10.2
				c-4.6-8.5-5.2-17,0.2-25.4c29.8,13.9,47.2,2.8,48.1-30.5c0.7-27,1.9-54.1,2.9-81.1c2.6-1.7,4.8-1.6,6.6,1.2
				c1.9,27.4,3.7,54.9,2.6,82.4C365.3,128.6,365.1,132.8,361.8,136.1z"/>
			<path fill="#2B2B2B" d="M608.4,397.3c-8.6-23.7-8-49.1-13.5-73.4c-5.3-23-7.9-46.6-11.6-69.9c20.3,37.3,19.3,80,30.7,119.6
				C616.5,382.3,611.2,389.6,608.4,397.3z"/>
			<path fill="#2B2B2B" d="M732,178.2c26-15.9,55.5-23.8,83-36.3c12.2-5.5,23.9-12.8,37.7-14.2c6.3,1.4,4.1,4,0.4,5.4
				c-31.3,11.1-59.9,28.9-92.3,37.3c-5.7,1.5-10.9,5.1-16.4,7.4C740.3,179.3,736.3,183.6,732,178.2z"/>
			<path fill="#0C0C0C" d="M861.1,141.7c0.4,2.1,3.1,5.8,1.4,5.9c-28.5,1.6-51,18.9-76.4,28.8c-22,8.6-43.6,18-65.4,27
				c0.4-4,2.2-6.6,6.2-8.3c38.9-16.5,77.6-33.4,116.5-49.9C849,143,854.8,140.7,861.1,141.7z"/>
			<path fill="#2B2B2B" d="M628.1,181c-8.2-4.6-6-10.7-2.5-17c25.1,15,54.4,17.9,81.2,28.2c-0.6,5.9-3.9,4.5-7.9,3.5
				c-19.6-4.9-39.2-9.5-58.8-14.1C636.1,180.7,632.2,178.4,628.1,181z"/>
			<path fill="#090909" d="M176.2,203.5c-4.9,3.2-6.8-4.5-11.3-3c-27.6-12-54.8-24.8-82.8-35.9c-16-6.3-31.7-12.8-46.1-22.9
				c15.4,6,31,11.7,46.3,18c28.4,11.7,56.6,23.7,84.9,35.5C171.4,196.9,174.1,199.8,176.2,203.5z"/>
			<path fill="#959597" d="M258.1,155.4c-0.2-0.8-0.4-1.6-0.7-2.4c-0.8-1.7-1.2-3.4-1.2-5.3c0.7-22.6,9.8-27.4,29.3-15.5
				c2.9,4.9,0,10.6,2.2,15.5c-2.5,10-12.3,8.4-18.9,11.8C265.3,158.1,261.7,156.8,258.1,155.4z"/>
			<path fill="#2B2B2B" d="M625.3,411.4c-4.7,9.6-1.2,19.8-2.5,29.7c-0.5,3.3,2.6,10.3-6,7.3c-0.1-0.9-0.4-1.8-0.4-2.7
				c0.3-15.8,0.5-31.6-13.7-42.8c2-0.9,4-1.9,6-2.8C614.7,403.1,620.7,406.3,625.3,411.4z"/>
			<path fill="#2B2B2B" d="M607.9,211.1c4.5,9.1-6.6,11.2-7.9,17.7c-11.6-0.8-4.2-9.2-5.6-14.1c2.9-2.3,0-6.4,2.6-8.8
				C602.3,204.2,601.2,215.9,607.9,211.1z"/>
			<path fill="#0E0E0F" d="M715.2,251.2c-0.8-4.7,1.8-10-2.7-13.9c2-9.3,1.7-19.1,5.5-28.1c5,4.9,1.7,11.1,2.7,16.6
				C713.9,233.2,722,243.9,715.2,251.2z"/>
			<path fill="#2B2B2B" d="M588.8,206.3c0-8.4,0.1-16.9,0.1-25.3c7.7,1.3,5.5,8,6.9,12.7c1.4,5.3,2.3,10.6-1.5,15.4
				C592.5,208.2,590.6,207.2,588.8,206.3z"/>
			<path fill="#171819" d="M594.3,209.1c0.5-5-0.1-9.7-2.6-14.1c4.1-2.1-3.2-12,6.8-10.1c3.5,7.1,3.9,14.1-1,20.8
				c-0.8,3.1,0.3,6.8-3.1,9C594.4,212.8,594.4,211,594.3,209.1z"/>
			<path fill="#141415" d="M178.9,256.8c4.6,24.4,11,48.5,13.5,73.1c3,29.5,11.1,57.1,22.7,84.1c5.8,13.5,5.9,28.6,0,42.1
				c-13.4,30.4-21,62.2-25.1,95c-0.3,2.1-1.8,4.1-2.7,6.1c-0.1-57.1-2.5-114.1-3.6-171.2c-0.6-29.8-1.2-59.6-2-89.4
				c-0.1-3.3,0.2-6.6-2.8-9C178.9,277.4,178.9,267.1,178.9,256.8z"/>
			<path fill="#0E0E0F" d="M701.2,621.7c5.3-14.9,3.8-30.2,1-45.1c-8.4-45.9-22.2-90.2-41.3-132.8c-6.7-14.8-5.3-28.1,3.7-40.8
				c14.9-20.9,20.9-45.4,27.6-69.4c5.8-20.9,13.2-41.6,15.5-63.5c0.6-5.6,2.1-12.1,7.5-16.1c1.5,42.4-2.1,84.7-3.4,127
				c-2.5,83.6-5.2,167.1-4.9,250.8c0,1.4,0.4,2.7,0.7,4.4c7.2,0.4,11.8-4.7,17.3-7.8c33.4-19.1,68-36.3,100.5-57.2
				c2.3-1.5,5.2-1.9,7.8-2.8c-0.8,6.8-6.9,8.3-11.3,11.3c-30.5,20.5-63,37.7-95.5,54.8c-7.1,3.8-12.3,12.2-22.2,9.8
				C699.5,637.2,701.5,629.3,701.2,621.7z"/>
			<path fill="#1D1D1D" d="M201.2,130.4c-9.1-0.4-17.3-3.8-25.2-8.2c-2.4-26.3,0-52.7-2.5-79.1c-1.1-10.7,3.6-17.5,15-19.5
				c7.2-1.3,14.3-3.6,21.4-5.4c24.9-1.3,48.1-9.9,71.9-16.1c17.3-4.5,17.9-4,17.9,14.2c0,30.6,1.6,61.2-8.5,91.2
				c0-12.6,0-25.2,0-37.8c0-0.2-0.6-0.5-0.9-0.7c-0.7,1-1.3,1.9-2,2.9c-1.2,0.8-2.4,1.3-3.8,1.5c-10.4-1.7-20.3,0.1-30,3.6
				c-13.5,4-27.2,7.2-40.8,11.1c-3.6,1.5-8.3-3.4-11.2,2c-1.6,9.1-1.6,18.2,0.3,27.3C202.2,121.8,204.1,126.4,201.2,130.4z"/>
			<path fill="#1B1C1C" d="M409-10c31.3,0,62.5,0.5,93.7-0.1c10.9-0.2,19,2.2,23.9,12.3C525,3.5,523.7,5,523,7c-1.1,7-0.5,14-0.6,21
				c-0.2,19.4-1.9,21.5-21.5,26.3c-1.6,0-3.1-0.3-4.6-0.8c-1.5-0.5-2.9-1.2-4.2-2c-31.5-2.6-63.1-1.4-94.6-0.6
				c-1.4,0.6-2.8,1.2-4.2,1.8c-1.4,0.5-2.9,0.7-4.3,0.6c-19.3-3-22.6-19.2-27.7-33.9c-1.3-3.8-0.6-8.2-1.6-12.2
				c-0.7-1.9-1.1-3.9-1.2-5.9c0-0.9,0-1.8,0-2.7c4.1-8.8,11.1-12.2,20.5-11.2C389-11.5,399.6-17.2,409-10z"/>
			<path fill="#0A0A0A" d="M209.8,18.2c-4.7,6.4-12.5,6.4-18.9,7.4c-12.8,1.9-16.8,9.3-14.6,20.4c4.6,23.4,1.2,47.1,3.2,70.5
				c0.3,3.5,0,5.3-3.5,5.7c-10.2-3.8-20.4-7.7-30.6-11.6c1-17.7,13.3-32.5,12.8-50.9c11.6,16.1,3.7,35,7.8,52.1
				c6-0.7,4.3-4.9,4.3-7.6c0.2-18.7,0.1-37.3,0.1-56c0-21.3,1.4-22.8,22.2-28.8c3.8-1.1,8.7,0,11.5-4.1
				C206.5,15.4,208.6,15.9,209.8,18.2z"/>
			<path fill="#4B4A4C" d="M285.2,71.9c1,0,2,0,3,0c-0.1,25.3-0.2,50.6-0.3,75.8c-3.2-4.4-1.3-9.6-2.4-14.3c-0.9-1.1-1.8-2.1-3-2.9
				c-15.9-10.2-21.9-7.7-24.8,10.5c-0.6,4-0.1,8.3-2.9,11.8c-8.6-7.4-1.4-16.4-2.2-24.6c-0.4-4.2,0.5-9.1,1.2-13.5
				c2.2-14-4.4-17.3-16.4-15.5c0.8-6.7,6.2-7.3,11.1-8.4c5.4-0.5,9.6,2,13.2,5.7c5,5.1,11,7.7,18.2,7.2
				C285.3,93.8,277.9,81.6,285.2,71.9z"/>
			<path fill="#050506" d="M409-10c-8.4,0-16.8,0.6-25.2-0.1c-9.9-0.8-18.3,1.5-25.3,8.6c-0.6-10.4,6.5-13,14.7-13.9
				c5.4-0.6,10.8-0.2,16.3-0.2c5.6-4.1,11.2-4.9,16.8,0C408.5-14.3,409.1-12.3,409-10z"/>
			<path fill="#D0D2D4" d="M282.9,211.7c-1.6-9.2-3.1-18.3-4.7-27.5c4-0.2,9.7-4.7,9.9,4.1c0.1,7.9,1.1,15.9,0,23.6
				C286.8,220.7,284.7,211.8,282.9,211.7z"/>
			<path fill="#DFDFE0" d="M358.6,1.2c1,1,2,2,3,3c-1,12.2,7.5,24.5-0.8,36.5c-1.5,0-3,0-4.5,0C356.4,27.5,354.1,14.2,358.6,1.2z"/>
			<path fill="#1B1C1C" d="M406.3-15.5c-5.6,0-11.2,0-16.8,0c0-2.8,0-5.6,0-8.4c7.5,0,15,0,22.5,0C410.1-21.1,408.2-18.3,406.3-15.5
				z"/>
			<path fill="#0F1010" d="M734.8,37.9c-0.2,25.3-0.7,50.7,5.5,75.5c-18.7,6.3-36.2,15.8-55.7,19.7c-2.3-2.7-2.3-5.3,0-8
				c5.2-11.9,1.2-24.5,2.7-36.7c5.4,8.1,1.6,17.2,2.6,25.8c0.5,4.3,0.5,8.9,5.7,9.9c5.8,1,6.8-4.1,7.9-7.9c6.2-22.4,5.7-45.8,9-68.6
				c2.1-14.9-4.3-21.3-18.4-23c-6-0.7-13.1,0.3-17.5-6.7c23-2.2,35,4.3,41.7,22.4c1.8,4.9,4.3,5.7,8.1,2
				C728.6,39.7,731.2,37.8,734.8,37.9z"/>
			<path fill="#4C4D50" d="M597,125c0-3.8,0.1-7.6,0.1-11.4c-1.7-15.9-2.7-31.8,0.6-47.6c0.8,0,1.7,0.1,2.5,0.1
				c6.9,10,1.2,21.8,4.7,33.7c6.8-1.8,12.7-4.8,16.3-10.9c4.7-8,11.4-10.2,20-8.3c3.3,1.5,6.9,2.8,6.4,7.6
				c-12.3,1.8-16,8.1-14.5,20.9c1.7,15.1-3.6,30.5-1.4,46c0.1,1-2.5,2.4-3.8,3.6c-5.3,1.2-4.8-3.1-5.2-5.9c-0.6-3.7,1.1-7.3,1.1-11
				c0-6.6-0.8-13.6-6.8-17.2c-5.9-3.5-10,2.6-14.6,5.3c-1.8,1.1-3.6,1.9-5.8,1C595.4,128.7,595.8,126.8,597,125z"/>
			<path fill="#6C6E70" d="M600.3,127.9c5.4-6,12.2-12.1,19.9-7.1c7,4.6,8,14,7.5,22.4c-0.3,5.1-5.2,10.3,0.3,15.3c-1,1-1.9,2-2.9,3
				c-1.9-0.9-3.9-1.8-5.8-2.7c-1-3-3.2-6.1-2.5-9.2C619.8,135.8,613.4,129.5,600.3,127.9z"/>
			<path fill="#242424" d="M851.6,109.1c-2,13-8.2,12.8-38.2,0.5C826.5,101.7,838.6,121.9,851.6,109.1z"/>
			<path fill="#979A9E" d="M647.8,88.1c-2-1.5-4-3.1-6-4.6c-0.6-0.7-0.9-1.5-0.8-2.3c0.1-0.8,0.2-1.3,0.4-1.3
				c9.2-2.8,16.5,7.9,25.8,3.6c0.8-0.3,1.7-0.4,2.5-0.3c4.4,8.7-1.4,9.9-7.5,9.3C657.3,92,652.6,89.6,647.8,88.1z"/>
			<path fill="#6C6F72" d="M684.6,125.1c0,2.7,0,5.4,0,8c-6.7-11.9-1.2-24.3,0-36.5C684.6,106.1,684.6,115.6,684.6,125.1z"/>
			<path fill="#959698" d="M642.1,80.4c-0.1,1-0.2,2.1-0.3,3.1c-8.5-1.7-14.5-0.9-18,9.4c-2.8,8.3-13.1,9.3-20.3,12.7
				c-4.8,2.3-3.8-3.7-3.9-6.3c0-11.1,0.4-22.1,0.6-33.2c11.7,2,24.6,0.6,33.5,11.2C635.9,79.9,640.2,77,642.1,80.4z"/>
			<path fill="#050505" d="M588.8-1.5l-1.4,0c0,0-1.4,0-1.4,0c1.5-3.1,3.5-5.6,7.4-4.6c9.1,2.2,18.1,4.5,29.9,7.5
				C608.9,7.7,599.5-2.1,588.8-1.5z"/>
			<path fill="#BBBEC1" d="M642.1,80.4c-2.9-0.7-6.3-0.2-8.4-3.1c12-2.4,22.7,2.1,33.5,6.2c-2,7.9-7.1,3.6-11,2.4
				C651.4,84.5,646.8,82.3,642.1,80.4z"/>
			<path fill="#131314" d="M597.7,66c-0.2,15.9-0.4,31.7-0.6,47.6c-6-11.8-1.1-24.4-2.8-36.4C594.9,73.2,592.9,68.5,597.7,66z"/>
			<path fill="#F2F2F2" d="M522.1,1.5c1.5,0.2,3,0.5,4.5,0.7c1,41.1,2.2,82.2,3,123.3c0.3,15.4,8.5,24.8,21.4,31
				c11.1,5.3,20.8,2.2,29.4-5.9c0.9,0.8,1.7,1.6,2.6,2.3c2.3,5.4,2.9,10.8-0.4,16.1c-20.1-1.9-40.3-2.8-60.5-2.1
				c-5.6-5-5.1-11.7-5.2-18.2c-0.2-28.9-1.9-57.9,0.6-86.6C519.3,41.9,517.8,21.5,522.1,1.5z"/>
			<path fill="#1B1C1C" d="M426-23.9c28.7,0,57.3,0,86-0.1c8.1,0,15.8,0.5,20.7,8.3c-0.2,5,3.7,6.9,6.5,9.9c2.3,2.4,4.9,7,0.9,9.3
				c-3.2,1.8-8.8,2-9.9-3.9c-2.7-13.6-12.2-15.2-24-15.3C479.2-15.8,452.6-20.2,426-23.9z"/>
			<path fill="#232324" d="M299.6,436.7c7.6-0.5,14.3,3,22.3,6.5c0-21.6-0.1-41.5,0.1-61.4c0-4.2-2-4.5-5.2-3.6
				c9-10.1,5.9-22.4,4.6-33.4c-4-34.1-1.2-68.2-1.6-102.2c-0.1-11.6,6.7-16.9,19.1-16.8c73,0.4,146,0.3,218.9,0.1
				c12.1,0,17.6,3.6,17.4,17c-0.7,48.6-0.3,97.3-0.3,146c2,11.9,0.8,23.9,0.9,35.9c0,7.6,2,11.5,10.5,9.1c4.5-1.3,9.2-1.1,13.2,1.9
				c0.1,8.5,7.7,12,11.8,17.8c3.7,2.8,7.5,5.6,11.2,8.5c4.6,3.5,9.6,6.8,8.5,13.8c-7.3,3.6-8.7,15.5-19.6,14.1
				c0.1-11-20.6-34.3-31-35c-4-0.3-4.6,2.3-4.8,5.2c-0.4,4.6-0.1,9.3-1.7,13.8c-7.3,12.6-6.1,27.1-9.3,40.7
				c-3.2,13.7-5.6,14.7-16.5,5.8c-5.8-4.7-23.8-1.6-28,6.5c-4.5,8.7-11.1,11.9-19.9,13.1c-9,1.3-15.1,6.6-18.9,14.9
				c-5.7,12.6-15.5,18.9-29.5,20.3c-12.6,1.3-25,3.4-37.6,2c-5.9-0.6-10.8,1.7-16.1,3.7c-18.8,7.3-26.5,5.7-40.6-7.9
				c-7.3,16.2-21.2,12.2-34.2,11.2c-1.7-2.8-2.3-5.8-2.3-8.9c-0.7-22.9,1.2-45.7-1.2-68.5c-2.5-13.3-1-26.8-1.5-40.2
				c-0.2-4,1.6-9.2-3-11.3c-4.2-1.8-7.9,1.8-11.3,4.1c-11.1,7.6-22.2,15.3-23.9,30.4c-0.5,0-1.1,0.1-1.3-0.1
				c-13.7-17-28.5-13.9-43.9-2.6c4.6-10.6,11.5-17.6,24.1-14.7c3.7,0.8,7,0,8.7-2.9C275.7,455.8,291,449.5,299.6,436.7z"/>
			<path fill="#020202" d="M571.9,473c1.5-7.9-4.2-19.6,3.1-23.1c6.8-3.3,14.5,5.9,20.9,11.1c5,4.1,9.5,8.9,14.9,12.5
				c8.4,5.5,7.1,10.7,0.6,16.4c-8.6,10.2-8.7,23.2-11.2,35.4c-9.5,46.4-18.7,92.8-28.1,139.1c-0.5,2.7-1.9,5.2-2.9,7.8
				c-4.3,5.4-10.2,5.8-16.5,5.8c-71,0.1-142,0.3-213,0c-5.6,0-11.4,0.4-14.8-5.6c-9.2-19.7-7.5-42-14.2-62.2
				c-11.7-35.3-14.7-72.5-24.4-108.1c-1.2-4.5-2.3-9.1-6.2-12.3c-7.4-21.9,13.1-26.3,23.9-34.8c15.4-12.1,18-9.7,18,10
				c0,13,0.1,26,0.1,38.9c2.8,19.3,0.4,38.7,1.3,58.1c0.2,5-1.3,10.2,1.4,15c0,2.8,0,5.6,0,8.4c5.3,5.2,4.3,12.1,4.4,18.5
				c0.3,14.9,0.2,29.9,0.1,44.8c-0.1,11,4.6,16.3,15.9,16.4c67.7,0.1,135.4,0.1,203.2,0c12.3,0,16.6-6.4,16.2-17.6
				c-1.6-43.4,3.1-86.7,3-130.2C567.6,502.5,566.7,487.4,571.9,473z"/>
			<path fill="#353535" d="M324.9,672.3c5.5,3.3,11.5,2.9,17.6,3.1c32.5,0.9,65.1,1.1,97.5,1.4c38.9,0.4,78-1.1,117-1.7
				c4-0.1,8.1-1.9,12.1-2.9c0,1.9,0,3.8,0,5.7c-5,3.2-10.6,2.9-16.2,2.9c-70.7,0-141.4,0-212.2-0.1c-5.8,0-12.5,1.6-15.9-5.6
				C324.9,674.2,324.9,673.3,324.9,672.3z"/>
			<path fill="#0E0E0F" d="M630.9,475.7c-2-5.1-8.6-7.4-8.5-13.8c5.2-5.5,9.7-2.7,14.1,1.3c4.7,4.3,9.3,8.5,13.9,12.8
				C643.9,479,637.4,476.1,630.9,475.7z"/>
			<path fill="#98999A" d="M248.8,93.6c-3.8,1.9-7.6,3.8-11.4,5.7c-3.6,0.6-7.3,0.9-10.9,1.9c-10.1,2.9-17.2,0.2-20.1-10.5
				c-0.1-0.2-0.8-0.5-1.2-0.4c-0.4,0.1-0.8,0.5-1.1,0.7c-0.9,1-1.9,1.2-3.1,0.7c-0.7-1.1-0.8-2.2-0.3-3.4c3.2-4.1,7.9-2,11.9-3
				c16.3,12,35.7,6.6,41.7-11.4c10.2-3.1,20.1-9.6,31-2.1c-1,12.2,5.1,24.8-2.8,36.5c-7.1-4.8-16.1-6.5-21.1-14.7
				C258.1,88.4,253,92.9,248.8,93.6z"/>
			<path fill="#717173" d="M254.8,152.9c0.4-5.4,0.2-11,1.3-16.3c1.4-7.2,3.3-15.2,12.6-15.7c8.4-0.4,13.8,4.8,16.8,12.5
				c-1.3-0.3-2.7-0.6-4-1c-17.9-5.4-17.9-5.4-21.2,12.9c-0.5,2.6-1.8,5.1-2.7,7.7c0,0-1.4,0-1.4,0L254.8,152.9z"/>
			<path fill="#6B6B6D" d="M201.5,91.1c0.9,0.1,1.8,0.1,2.6,0c-0.2,13.1-0.4,26.2-0.7,39.3c0,0.2-0.7,0.5-1,0.5
				c-0.4,0-0.8-0.3-1.2-0.5c0-4.6-0.1-9.2-0.1-13.8C199.7,108,198.8,99.5,201.5,91.1z"/>
			<path fill="#151515" d="M522.1,1.5c0,55.1,0,110.2,0,165.3c-47.4,0-94.8-0.4-142.2,0.4c-12.9,0.2-17.7-3.5-16.2-16.3
				c0.6-4.8,1.6-10.3-1.9-14.8c-1.7-25.1,2.2-50.5-3.4-75.4c-1.6-7.1,4-13,2.4-19.9c0.3-12.2,0.5-24.4,0.8-36.5
				c5.3,5.4,0.9,12.6,3.6,18.5c5.5,12,10.2,24.6,24.4,29.5c4.6,4.5,3.8,10.3,3.7,15.8c0,18.2,0.6,36.3,0.4,54.5
				c-0.1,10.7,3.1,16,15.3,15.7c22.3-0.7,44.7-0.3,67-0.5c14.1-0.1,15.4-2,16-16.5c0.8-18.6-0.5-37.2,2.1-55.7
				c0.6-4.6,0.7-9.4,3.9-13.2c15.6-2.4,23-10.1,20.9-27C518.1,17.6,515.1,8.6,522.1,1.5z"/>
			<path fill="#131314" d="M582.6,169c0.1-5.4,0.3-10.7,0.4-16.1c2.6,11.3,7.2,20.7,19.1,25.6c3.3,1.4-1.9,2.1-3,3.2
				c-0.2,1.3-1,1.9-2.3,2.1c-4.1,2.7-0.7,8.7-5.1,11.2c-0.8-4.7,1.8-10.1-2.8-14C586.8,177,584.7,173,582.6,169z"/>
			<path fill="#BFC2C4" d="M596.8,183.8c0.8-0.7,1.5-1.4,2.3-2.1c5.5,2.2,10.8,5.3,17.1,5.2c0.9,9.3-9.2,14.9-8.2,24.2
				c-6.5,4-8.6-0.3-10.4-5.4C597.3,198.4,597.1,191.1,596.8,183.8z"/>
			<path fill="#919294" d="M600.3,127.9c18.1-3.2,20.8-0.9,19.3,17.6c-0.4,4.5,2.9,9-0.3,13.4c-7.8-0.5-15.1-2.5-22-6.2
				c-4-7.3-5.8-14.6,0.4-21.8C598.6,129.9,599.5,128.9,600.3,127.9z"/>
			<path fill="#131314" d="M597.7,130.9c-0.1,7.3-0.2,14.5-0.4,21.8c-10.1-5.4-10.3-15.9-0.4-27.7
				C597.3,126.9,597.5,128.9,597.7,130.9z"/>
			<path fill="#FDFDFD" d="M599.2,439.4c-9.6-4.2-9.6-4.2-27.9,2.4c2.1-18-2.4-35.7,3.4-53c7.8,7.8,17.9,10.9,27.9,14.1
				c4.4,6.3,17.1,3,17.3,11.3c0.3,11.3,4.3,23.5-3.2,34.2c-1.7-0.5-3.5-1.1-5.2-1.6C605.4,447.8,601,445.8,599.2,439.4z"/>
			<path fill="#0E0E0F" d="M599.2,439.4c4.1,2.5,8.2,4.9,12.3,7.4c-0.1,2.2-0.2,4.4-0.3,6.6C599.9,448.3,597.8,445.9,599.2,439.4z"
				/>
			<path fill="#C5C6C7" d="M254.2,73.9c1.4,1,4.1,2.1,4,2.9c-1.7,12.3-30,24.8-40.3,17.8c-3.2-2.2-5.4-5.1-5.4-9.2
				C225.8,79.4,240.2,77.5,254.2,73.9z"/>
			<path fill="#3F4040" d="M201.5,91.1c-0.2,8.5-0.3,17-0.5,25.5c-3.8-9.4-3.5-18.8-0.4-28.2C200.9,89.3,201.2,90.2,201.5,91.1z"/>
			<path fill="#ACAEAF" d="M498.1,52.2c-0.5,26.2-1.3,52.3-1.3,78.5c0,8.6-2.9,11.2-11.4,11c-27.6-0.5-55.2-0.5-82.8,0
				c-9.4,0.2-13.2-2.1-13-12.4c0.6-25.7,0-51.4-0.1-77.1c0.9-0.4,1.8-0.7,2.6-1.1c0.7,0.1,1.3,0.2,2,0.3c2.5,1.2,4.8,2.5,4.5,5.9
				c-3.2,13-5.6,26,1.3,38.7c1.7,3.1,3,6.4,3.8,9.9c1.1,6.7,0.5,13.6,0.8,20.4c0.2,3.6,0,7.5,4.9,8.4c8.1,0.4,16.2,0.4,24.2,0.3
				c13.6-2.4,26.9-6.4,41-6.2c7.6,0.1,9.2-6.6,9.2-13.2c0-19.9,1.9-40.1-5.4-59.3c3.6-6.5,10-4.7,15.6-5.1c0.7,0.1,1.5,0.2,2.2,0.2
				C496.7,51.9,497.3,52.2,498.1,52.2z"/>
			<path d="M392.3,49.1c2.2-3.1,5.6-2.8,8.8-2.8c28.8,0,57.5,0,86.3,0c3.2,0,6.6-0.3,8.7,2.9c-7.7,4.6-16.5,3.2-24.6,3.5
				c-21.5,0.9-43,0.4-64.5,0.2C401.8,52.9,396.7,52.3,392.3,49.1z"/>
			<path fill="#565556" d="M392.3,49.1c34.6,0,69.2,0.1,103.9,0.1c0,0.7,0,1.4,0,2.1c0,0-0.2,1.4-0.2,1.4
				c-25.3,3.6-50.8,3.1-76.2,3.2c-9.3,0-18.5-0.5-27.4-3.6l-0.1-1.3C392.2,50.4,392.3,49.7,392.3,49.1z"/>
			<path fill="#6B6B6C" d="M248.8,93.6c6.5-4.5,13-14.2,18,2c2,6.2,13,5,15.5,12.7c-9.7-0.7-19.2-2.1-25-11.4
				C255.4,93.7,251.9,94.3,248.8,93.6z"/>
			<path fill="#1D1D1E" d="M571.9,473c2.2,60.3-4.4,120.4-2.7,180.7c0.3,11.3-4.8,16-16,15.9c-70.6-0.2-141.2-0.2-211.9,0
				c-12.1,0-16.7-5.2-16.5-17c0.4-22.4,0.1-44.9,0.1-67.3c3.2-1.8,6.9-5.7,9.5-5c11.5,2.7,18.1,1,19.7-12.6c0.7-6.1,4.9-2.5,7.4,1
				c10.4,14.7,23.1,17,39,6.7c3.3-2.2,5.8-3.3,10.1-2.3c16.3,3.7,32.4-0.5,48.4-2.4c9.8-1.2,16.5-8.8,19.5-18.2
				c3.7-11.6,12.3-15.4,23-16.5c7.3-0.8,14.3-1.4,14.2-11.3c-0.1-5.8,3.6-6.7,8.3-6.8c2.7-0.1,6-0.1,8.1-1.5c8.9-5.9,16.5-9,20.5,5
				c0.4,1.3,2.8,3.1,4.1,3c2.5-0.3,3.3-2.8,3.7-5.2c1.4-9.1,3.9-18.3,3.9-27.4C564.5,484,567.3,478.4,571.9,473z"/>
			<path fill="#1395AD" d="M488.5,430.3c10.2,16.7,3.6,30.9-6.6,44.5c-6.6,5.4-11.3,14.9-22.5,10.4c-6-0.3-6-4.6-5.9-9
				c0.1-9.8,0.2-19.6,0.2-29.3c0.1-10.8,4.9-10.4,11.7-4.9c3.7,4.8,4.5,10.2,3.7,16.1c-0.7,1.2-1.6,2.3-3,2.6
				c-8.3,1.7-7.3,8.6-5,12.7c2.4,4.4,7.2,0.1,10.6-1.6c2.8-1.4,5.5-3.3,7.1-6.2c0.7-1.1,1.4-2.1,2.2-3.2c7.7-8.8,4.9-19.3,4.8-29.3
				C486.3,431.7,487.2,430.8,488.5,430.3z"/>
			<path fill="#168498" d="M445.6,484.1c-0.9,0.3-1.7,0.5-2.6,0.4c-1.4-1.5-3.6-2.1-4.7-4c-1.8-9.1-2.6-18.7-12.2-23.8
				c-2.5-6.2-1.9-12.5,1.4-18c2.3-3.7,4.8-3.2,4.6,1.8c0,3.2,0,6.4,0,11.6c4-6.1,1.2-17.8,12.8-12.6
				C451.1,454.3,449.8,469.2,445.6,484.1z"/>
			<path fill="#1395AD" d="M473.5,433.6c1.5-2,5.3,5.2,5-0.8c-0.2-3.5-2.8-7.4,1.8-9.1c5.4-2,6.7,2.7,8.1,6.6c0,0-0.8,0.7-0.8,0.7
				c-2.4,11.1,3.1,23.5-5.6,33.6l0.1-0.1c-7.8,8.5-11.3,4.9-12.7-4.5C472.1,451.4,473.1,442.5,473.5,433.6z"/>
			<path fill="#1290A7" d="M432,440.5c-6.3,4.1-3,10.2-3.5,15.6c4,6.2,2.2,10.2-4.7,12.2c-12.1-8.1-13.8-13.2-9.7-28.6
				c1.2-0.9,2.5-1,3.8-0.4c1.9,5.1-0.1,10.7,2.8,14.6c-2.1-5.6-2.4-12.3,0.8-18.8c0.5-0.4,1-0.9,1.4-1.3c3.3-0.5,6-5.3,9.8-1.6
				C435.9,435.1,434.6,437.9,432,440.5z"/>
			<path fill="#1D1D1E" d="M445.6,484.1c-0.3-14.8-0.5-29.7-0.8-44.5c3.8,0,6.3,1.7,6.3,5.8c0.1,12.1,0.1,24.3,0,36.4
				c0,3.6-1.6,6.4-5.1,7.5c-1.2,0.4-4,1.6-2.9-1.9C443.5,486.1,444.7,485.1,445.6,484.1z"/>
			<path fill="#1D1D1E" d="M459.4,485.2c8.7-0.8,15.4-5.9,22.5-10.4c-1.9,7.8-10.7,11.1-12,20c-0.9,5.7-8,4.4-11.8,2.1
				C451.3,492.8,454.5,488.6,459.4,485.2z"/>
			<path fill="#14A3BD" d="M439.2,480.8c1.2,1.2,2.5,2.4,3.7,3.7c-2,0.1-3.9,0.1-5.9,0.2c-13,0.1-19.4-8.6-24.8-18.6
				c-3.8-9.5-4.9-19.3-2.6-29.3c1.3-0.7,2.5-0.5,3.4,0.8c0.7,9.8-1.9,20.4,6.9,28.2C425.2,472.2,435.2,472.6,439.2,480.8z"/>
			<path fill="#1B4C55" d="M473.5,433.6c2.9,8.7,5.8,17.5-1.7,25.5c-1.3,1.3-2.6,1.2-3.8-0.2c-3.4-5.2-2.9-11.1-2.5-16.9
				C473,443.8,466.6,432.4,473.5,433.6z"/>
			<path fill="#1D1D1E" d="M324.9,576.9c-5.7-11.4-1.9-23.6-2.6-35.4c-0.7-12.5-0.1-25.1-0.1-37.6c5.7,11.4,1.9,23.6,2.5,35.4
				C325.4,551.8,324.9,564.4,324.9,576.9z"/>
			<path fill="#1D1D1E" d="M412.3,466c6.7,8.3,14.5,15.1,24.8,18.6C422,490,418.1,487,412.3,466z"/>
			<path fill="#108AA1" d="M411.7,436.5c-0.7,0.1-1.3,0.1-2,0.1c-0.9-3,0.5-5.4,2.3-7.5c2.2-2.6,3.5-7.4,8.1-5.9
				c5.5,1.8,3,6.7,3,10.6c0,0,0.2-0.1,0.2-0.1c-2.6,1.2-0.2,7.4-5.7,5.7l0,0C415.4,438.9,417,430.5,411.7,436.5z"/>
			<path fill="#DADBDC" d="M400.9,105c-1.1-2.7-2.1-5.4-3.2-8.1c-4.9-9.1-2-18.2,0.1-27.2c1.6-6.8,7-9.7,13.5-10.2
				c17.2-1.4,34.5-1.2,51.7,0.1c11.5,0.9,18.5,9.1,21.1,22.7c1.6,8.3,0.8,16.7,0.7,25.1c-0.1,16.4-6.3,22.3-22.9,23.1
				c-9.9,0.5-21-2.9-27.8,8.2c-9.1,0-18.3,0-27.4,0C400.8,128.1,406.2,115.6,400.9,105z"/>
			<path fill="#C8CACC" d="M434.2,138.7c-5.5-5.1-6.6-9.7,2.5-10.7c8.3-0.9,16.8-0.1,25.1-0.4c14.6-0.5,20.2-6.1,20.3-20.4
				c0.1-6.1,0.4-12.2-0.1-18.2c-1.8-19.8-8.7-25.9-28.2-26c-11.6,0-23.2,0.8-34.7-0.2c-12.5-1.1-19,2.5-19.8,16.1
				c-0.4,5.9-1,12-1.5,17.9c-7.8-9.9-7.8-31.9,0.1-42.1c27.2-2.4,54.4-2.5,81.7,0.1c8.2,10.1,8.8,22.1,8.4,34.4
				c-0.2,6.5,0,13,0,19.6c0,24-0.7,25.9-24.1,24C452.6,131.9,444.8,141.3,434.2,138.7z"/>
			<path fill="#E7E7E8" d="M479.5,54.9c-27.2,0-54.4,0-81.7-0.1c-2.1-0.2-4.3-0.1-5.4-2.5c34.5,0.1,69.1,0.3,103.6,0.4
				C490.8,56.1,484.9,53.9,479.5,54.9z"/>
			<path fill="#BCBDBF" d="M400.9,105c7.8,10.2,6.3,22,5.8,33.6c-6.1-0.1-6-4.4-6-8.7C400.8,121.6,400.9,113.3,400.9,105z"/>
			<path fill="#212021" d="M468,458.9c1.3,0.1,2.5,0.1,3.8,0.2c-0.6,9.7,4.5,8.4,10.4,5.4c-0.3,5.5-4.8,7.8-8.4,10.4
				c-4.5,3.2-11.3,7.8-14.9,3.6c-3.1-3.6-2.3-11.7-1.2-17.4C458.9,454.9,464.7,460.8,468,458.9z"/>
			<path fill="#1C474F" d="M482.1,464.6c5.9-10.5-1-23.2,5.6-33.6C489.3,442.8,494.5,455.2,482.1,464.6z"/>
			<path fill="#221C1B" d="M439.2,480.8c-7.5-3-15-6-19.6-13.3c1.2-1.3,2.4-1.4,3.7-0.3c6.9-1.3,6.1-6.2,5.2-11.1
				C443.5,459.4,440.6,470.4,439.2,480.8z"/>
			<path fill="#1E3D43" d="M423.4,467.2c-1.2,0.1-2.5,0.2-3.7,0.3c-10.1-8.4-7.8-20-8-30.9c1.5-1.4,3.1-2.7,4.6-4.1
				c0.4,2.3,0.8,4.6,1.2,6.9C411.1,450.4,416.7,458.9,423.4,467.2z"/>
			<path fill="#1D3F45" d="M417.6,439.3c1.9-1.9,3.8-3.8,5.7-5.7c-0.9,8-2.8,15.9,0.2,25.8C416.6,452.4,418,445.6,417.6,439.3z"/>
		</g>
	</g>
</g>
</svg>
