<?xml version="1.0" encoding="utf-8"?>
<!-- Generator: Adobe Illustrator 18.1.1, SVG Export Plug-In . SVG Version: 6.00 Build 0)  -->
<!DOCTYPE svg PUBLIC "-//W3C//DTD SVG 1.1//EN" "http://www.w3.org/Graphics/SVG/1.1/DTD/svg11.dtd">
<svg version="1.1" id="Layer_1" xmlns="http://www.w3.org/2000/svg" xmlns:xlink="http://www.w3.org/1999/xlink" x="0px" y="0px"
	 viewBox="-94 -4 800 800" enable-background="new -94 -4 800 800" xml:space="preserve">
<g>
	<path fill="#020202" d="M418.6,557.8c-4.2-1.5-8.5-1.5-12.7-2.2c-44.2-8.8-79.9-44.9-88.2-89.4c-11.2-61.1,26.4-118.4,86.9-132.1
		c59.3-13.4,120.2,24.7,134.1,84c7.3,31.7,2.2,61.3-15.6,88.6c-1.2,1.7-0.5,2.7,0.7,3.9c14.9,14.9,29.5,30,44.4,45.2
		c0.5,0.5,1.7,0.7,1.2,2c-15.6,0-31.3,0-46.9,0c-0.2-0.5-0.5-0.7-0.7-1.2c-7.1-7.3-14.2-14.4-21.2-21.7c-1.5-1.5-2.2-1-3.4,0
		c-14.9,11.2-31.3,18.3-49.6,21.5c-3.2,0.5-6.6,0.2-9.8,1.5C431,557.8,424.7,557.8,418.6,557.8z M428.8,367.3
		c-42.5,0-76.7,34.2-76.9,76.7c-0.2,42,34.7,76.9,76.9,76.9c42,0,76.7-34.4,76.7-75.7C505.5,401.7,471.6,367.3,428.8,367.3z"/>
	<path fill="#949698" d="M0,390.7c6.8,0,13.4,0.2,20.3,0c2.4,0,3.7,0.5,3.4,3.2c-0.2,2.7,0,5.4,0,7.8c1,0.2,1.2-0.2,1.5-0.7
		c7.1-8.1,16.1-12.2,26.6-13.2c12.7-1.2,24.4,1.2,35.2,8.5c3.4,2.2,6.1,5.1,8.3,8.5c1,1.5,1.5,2,2.7,0.2c8.5-12.2,21-16.9,35.4-17.3
		c11.5-0.5,22.5,1.2,32.7,7.1c12.7,7.6,18.8,19.3,21.2,33.5c1,5.4,1,11,1,16.4c0.2,22.7,0,45.4,0,67.9c0,2.9-0.7,3.7-3.7,3.7
		c-6.3-0.2-12.5-0.2-18.8,0c-2.7,0-3.4-0.7-3.4-3.2c0-23,0-45.9,0-68.9c0-6.3-1-12.5-3.4-18.3c-3.4-7.6-9-12.5-17.3-13.9
		c-6.3-1.2-12.7-1-18.8,1.2c-10.3,3.9-14.2,12.2-15.4,22.2c-0.7,4.2-0.7,8.5-0.7,12.9c0,21.5,0,43.2,0,64.7c0,2.4-0.5,3.4-3.2,3.4
		c-6.6-0.2-13.2-0.2-19.5,0c-2.2,0-2.9-0.7-2.9-2.9c0-20.5,0-41,0-61.5c0-6.6,0.5-12.9-0.7-19.5c-2.4-12.7-11.7-20.8-24.7-21
		c-6.6-0.2-13.2,0.7-18.8,4.6c-7.3,5.1-10,12.7-11.2,21c-1,6.3-0.5,12.7-0.5,19c0,19,0,38.1,0,57.1c0,2.7-0.7,3.2-3.4,3.2
		c-7.3-0.2-14.7,0-22,0C0,474.5,0,432.5,0,390.7z"/>
	<path fill="#949698" d="M471.3,234.2c5.4,1.5,11,2.7,16.4,4.2c28.6,7.8,54.2,21,77.2,39.8c18.8,15.4,34.4,33.5,46.9,54.2
		c0,0.2,0.2,0.2,0.5,0.2c0,0.2,0,0.5,0,0.5c-3.9,2.2-7.8,4.4-11.5,6.8c-2,1.2-2.9,0.7-4.2-1c-6.6-11-14.4-21-23.2-30.5
		c-9.8-10.5-20.8-19.8-32.5-27.8c-20.5-13.9-43-23.7-67.2-29.1c-1.2-0.2-2.2-0.5-3.4-0.7c-4.2-1-4.2-1-3.2-5.1
		c0.7-3.9,1.5-7.6,2.2-11.5C469.6,234.2,470.6,234.2,471.3,234.2z"/>
	<path fill="#949698" d="M247.9,484c2-5.1,3.7-9.3,5.4-13.4c9.8-25.4,19.8-51,29.5-76.4c1-2.2,2.2-3.2,4.4-3.2c7.3,0,14.4,0,21.7,0
		c2.4,0,2.2,1.2,1.5,2.7c-5.9,14.2-12,28.3-17.8,42.7c-8.1,19.5-16.1,39.1-24.2,58.4c-8.3,20-16.6,40.3-24.9,60.3
		c-0.7,1.7-1.7,2.2-3.4,2c-7.1,0-14.2-0.2-21,0c-2.9,0-2.7-1-1.7-2.9c5.4-12.7,10.5-25.6,15.9-38.3c1-2.2,1-4.2,0-6.6
		c-15.6-38.3-31.3-76.7-46.9-114.8c-1.2-3.2-1.2-3.4,2.2-3.4c6.8,0,13.4,0,20.3,0c2.7,0,3.9,0.7,4.9,3.4
		c9.8,26.1,19.8,52.3,29.5,78.6C244.9,476.2,246.2,479.6,247.9,484z"/>
	<path fill="#949698" d="M464.3,267.7c7.3,1.2,14.4,2.9,21.5,5.4c23.4,7.6,44.7,19.5,63,36.1c12.7,11.5,23.7,24.4,32.7,39.1
		c1.2,2,1,2.9-1,3.9c-3.4,1.7-6.6,3.9-9.8,5.9c-1.5,1-2,1-2.9-0.7c-8.8-14.4-19.5-27.4-32.5-38.1c-21.2-18.1-45.4-29.8-72.5-35.2
		c-2.4-0.5-3.9-1-2.9-4.2c1-3.4,1.5-6.8,2-10.3C462.3,268.6,462.5,267.4,464.3,267.7z"/>
	<path fill="#949698" d="M457.4,300.4c4.4,0.7,8.5,1.7,12.7,2.9c35.4,10.3,63,31,82.5,62.3c1.2,2,1,2.9-1,3.9
		c-3.2,1.7-6.3,3.4-9.3,5.6c-1.7,1.2-2.4,0.7-3.7-1c-9.8-15.6-22.2-28.6-37.4-38.8c-14.2-9.5-29.5-15.6-46.2-18.8
		c-2.4-0.5-2.4-1.5-2-3.4c0.7-3.7,1.5-7.3,2.2-11C455.7,301.1,455.9,300.1,457.4,300.4z"/>
	<path fill="#020202" d="M570.7,504.1c-1.2,2-2.4,3.7-3.7,5.6c-1,1.5-1.5,2-2.4,0c-1.2-2-2.4-3.9-4.2-5.6c0,3.2,0,6.1,0,9.3
		c0,1.5,0,2.4-2,2.4s-2.2-0.7-2.2-2.4c0-4.9,0-9.5,0-14.4c0-1-0.7-2.4,0.7-2.7c1.5,0,3.4-1,4.6,1.2s2.7,4.4,4.2,6.6
		c1.5-2.2,2.7-4.4,4.2-6.3c0.5-0.7,0.7-1.5,2-1.7c3.2-0.5,3.7,0,3.7,3.2c0,4.9,0,9.5,0,14.4c0,1.7-0.5,2-2,2s-2.4,0-2.2-2
		c0.2-3.2,0-6.3,0-9.5C571.2,504.1,571,504.1,570.7,504.1z"/>
	<path fill="#020202" d="M542.2,508c0-0.7,0-1.5,0-2.4c0-1.7,0.5-3.7-0.2-4.9c-0.7-1.2-2.9-0.5-4.4-0.5c-1.7,0-1.2-1.2-1.2-2
		c0-1-0.5-2,1.2-2c4.4,0,9,0,13.4,0c1.7,0,1.2,1.5,1.2,2.2c0.2,1.2,0,1.7-1.5,1.7c-4.2,0.2-4.2,0.2-4.2,4.6c0,2.9-0.2,5.9,0,8.8
		c0,2-1,2-2.2,2s-2.4,0.2-2.2-2C542.2,511.9,542.2,509.9,542.2,508z"/>
	<path fill="#020202" d="M474.8,441.5c-4.6,0-9,0-13.2,0c-2.2,0-2.9,0.5-2.9,2.9c0.2,11,0,22,0,33.2c0,2-0.2,2.4-2.4,2.4
		c-18.6,0-37.1,0-55.7,0c-2,0-2.2-0.5-2.2-2.2c0-11.2,0-22.2,0-33.5c0-2.2-0.5-2.9-2.7-2.7c-4.4,0.2-8.8,0-13.9,0
		c7.8-6.8,14.9-12.9,22.2-19c7.6-6.6,15.1-12.9,22.7-19.5c1-0.7,1.7-1.7,3.2-0.2c14.4,12.5,29.1,24.9,43.5,37.4
		C473.8,440.3,474.3,440.8,474.8,441.5z"/>
</g>
</svg>
