<?xml version="1.0" encoding="UTF-8" standalone="no"?>
<svg width="402px" height="106px" viewBox="0 0 402 106" version="1.1" xmlns="http://www.w3.org/2000/svg" xmlns:xlink="http://www.w3.org/1999/xlink">
    <!-- Generator: Sketch 3.7.2 (28276) - http://www.bohemiancoding.com/sketch -->
    <title>netscaler</title>
    <desc>Created with Sketch.</desc>
    <defs></defs>
    <g id="Page-1" stroke="none" stroke-width="1" fill="none" fill-rule="evenodd">
        <g id="netscaler_logo" fill="#0679BD">
            <path d="M15.9444,21 L14,21 L11,21.0833 L9,21.4722 L8,21.8611 L7.0278,22.2778 L5.2222,23.4722 L4.4167,24.25 L3.0278,26.0278 L1.8333,28 L1.2778,29 L0.47222,31 L0.08333,33 L0.02778,34 L0,36 L0,37 L0,39 L0,49 L0,69 L0,72 L0,73 L0.02778,75 L0.08333,76 L0.41667,78 L0.69444,79 L1.4167,81 L2.5,83 L3.25,84 L5.0278,85.8889 L6,86.6944 L8,87.8889 L9,88.2778 L10,88.5833 L12,88.9167 L15,89 L19,89 L19,91.056 L19.0833,93 L19.2222,94 L19.4167,95 L20.0833,97 L21.0833,99 L22.4167,100.972 L23.2222,101.917 L25.0278,103.528 L27,104.722 L28,105.139 L29,105.528 L30,105.75 L33,106 L35,106 L37,106 L50,106 L95,106 L316,106 L354,106 L365,106 L367,106 L369,105.972 L372,105.528 L373,105.139 L375,104.139 L376,103.528 L377.972,101.917 L378.917,100.972 L380.5,99 L381.528,97 L381.833,96 L382.361,94 L382.611,93 L382.917,91.056 L382.972,90.5 L383,89 L386.056,89 L388,89 L390,88.9722 L392,88.75 L393,88.5 L395,87.5833 L395.972,86.9722 L396.917,86.3056 L398.528,84.7778 L399.139,83.9167 L400.167,82 L400.611,81 L401.306,79 L401.583,78 L401.917,76 L402,74 L402,73 L402,71 L402,61 L402,41 L402,38 L402,37 L401.972,35 L401.917,34 L401.583,32 L401.306,31 L400.583,29 L399.5,27 L398.75,26 L396.972,24.1111 L396,23.3056 L394,22.1111 L393,21.7222 L392,21.4167 L390,21.0833 L387,21 L383,21 L383,18.9444 L383,17.9444 L382.972,16 L382.917,15 L382.611,13 L382.361,12 L382.139,11 L381.528,9 L380.5,7 L379.75,6 L377.972,4.0278 L377,3.1111 L375,1.6389 L373,0.7222 L372,0.4167 L370,0.0833 L368,0 L366,0 L363,0 L357,0 L316,0 L93,0 L50,0 L37,0 L35,0 L33,0 L31,0.0833 L29,0.4722 L28,0.8611 L26,1.8611 L25,2.4722 L23.0833,4.0833 L21.5,6 L20.4167,8 L20.0278,9 L19.4167,11 L19.0556,13 L18.9444,14 L19,21 L15.9444,21 Z M263,80 L263,85 L263,87 L263,88 L263.083,90 L263.25,91 L263.5,92 L264.5,94 L266.083,95.972 L267.028,96.917 L269,98.5 L271,99.5 L273,99.917 L275,100 L277,100 L278,100 L280,100 L287,100 L324,100 L331,100 L333,100 L334,100 L336,100 L337,99.972 L338,99.917 L340,99.5 L341,99.083 L342.917,97.972 L343.778,97.306 L344.583,96.583 L345.972,94.917 L346.583,93.972 L347.528,92 L348.139,90 L348.361,89 L348.611,88 L348.917,86 L348.972,85 L349,83 L349,81 L349,34 L349,28 L349,25 L349,24 L348.944,22.0278 L348.861,21.0833 L348.75,19.3889 L348.75,18.6111 L348.528,16.9167 L348.278,15.9722 L347.972,15 L347.583,14 L346.583,12.0278 L345.306,10.2222 L344.583,9.4167 L342.917,8.0278 L341,6.9167 L340,6.5 L339,6.25 L338,6.0833 L336,6 L335,6 L333,6 L328,6 L292,6 L280,6 L278,6 L277,6 L276,6 L274,6.0833 L273,6.2222 L271,6.7222 L270,7.1111 L268,8.3056 L267.028,9.1111 L266.111,10.0278 L265.306,11 L264.111,13 L263.722,14 L263.194,16 L262.806,18 L262.583,19 L261.972,21 L261.583,21.9722 L261.083,22.9167 L259.75,24.5 L257.972,25.5 L257,25.75 L255,25.9722 L253,26 L249,26 L237,26 L203,26 L100,26 L60,26 L53,26 L51,26 L50,26 L48,26.0833 L46,26.4167 L45,26.6944 L43,27.3889 L42,27.8333 L40.0278,28.8611 L39.0833,29.4722 L37.4722,31.0833 L36.2778,33 L35.8611,34 L35.4722,35 L35.25,36 L35.0833,37 L35,39 L35,40 L35,41 L35,43 L35,48 L35,65 L35,70 L35,72 L35,73 L35,75 L35.0278,76 L35.25,78 L35.5,79 L36.5,81 L38.0833,82.9722 L40,84.6944 L42,85.8889 L43,86.2778 L44,86.5833 L46,86.9167 L47,86.9722 L49,87 L50,87 L52,87 L57,87 L82,87 L87,87 L89,87 L91,87 L92,86.9722 L94,86.75 L95,86.5 L97,85.5278 L99,84.1389 L101,82.7222 L102,82.0833 L103.917,81.1667 L110,81 L112,81 L113,81 L115,81.1111 L117,81.7222 L118,82.3056 L120,83.7778 L121,84.5278 L123,85.7222 L125,86.5278 L126,86.75 L127,86.9167 L129,87 L130,87 L132,87 L140,87 L152,87 L155,87 L156,87 L158,86.9722 L159,86.9167 L161,86.5278 L163,85.7222 L165,84.5278 L166,83.75 L168,82 L169,81.1111 L171,79.7222 L173,79.1111 L174,79.0278 L175,79 L177,79 L183,79 L202,79 L262,79 L263,80 Z M115,100 L116,99 L116,90 L115,89 L111.944,89 L110,89 L108,89.1111 L107.028,89.3333 L106.111,89.7222 L105.333,90.333 L104.722,91.111 L104.333,92.028 L104.028,94 L104.111,96 L104.333,96.972 L104.722,97.889 L106.111,99.278 L107.028,99.667 L108,99.889 L110,100 L111.944,100 L115,100 Z M4,69.9999433 C4,67.7908356 5.79445134,66 8.00002024,66 L14.9999798,66 C17.2091299,66 19,67.7996535 19,69.9999433 L19,71.0000567 C19,73.2091644 17.2055487,75 14.9999798,75 L8.00002024,75 C5.79087006,75 4,73.2003465 4,71.0000567 L4,69.9999433 Z M4,38.9999433 C4,36.7908356 5.79445134,35 8.00002024,35 L14.9999798,35 C17.2091299,35 19,36.7996535 19,38.9999433 L19,40.0000567 C19,42.2091644 17.2055487,44 14.9999798,44 L8.00002024,44 C5.79087006,44 4,42.2003465 4,40.0000567 L4,38.9999433 Z M381,69.9999433 C381,67.7908356 382.794451,66 385.00002,66 L391.99998,66 C394.20913,66 396,67.7996535 396,69.9999433 L396,71.0000567 C396,73.2091644 394.205549,75 391.99998,75 L385.00002,75 C382.79087,75 381,73.2003465 381,71.0000567 L381,69.9999433 Z M381,38.9999433 C381,36.7908356 382.794451,35 385.00002,35 L391.99998,35 C394.20913,35 396,36.7996535 396,38.9999433 L396,40.0000567 C396,42.2091644 394.205549,44 391.99998,44 L385.00002,44 C382.79087,44 381,42.2003465 381,40.0000567 L381,38.9999433 Z" id="Combined-Shape"></path>
            <path d="M76,56.5 L76,58 L76,59 L76.1111,61 L76.3333,61.9722 L76.7222,62.8889 L77.3333,63.6667 L78.1111,64.2778 L79.0278,64.6667 L80,64.8889 L82,65 L83,65 L84,65 L86,65 L93,65 L132,65 L139,65 L141,65 L142,65 L144,64.9167 L145.917,64.5 L146.75,64.0556 L147.5,63.5 L148.056,62.75 L148.5,61.9167 L148.917,60 L149,58 L149,57 L149,55.5 L149,55 L148.917,53 L148.5,51.0833 L148.056,50.25 L147.5,49.5 L146.75,48.9444 L145.917,48.5 L144,48.0833 L142,48 L141,48 L139,48 L132,48 L93,48 L86,48 L84,48 L83,48 L82,48 L80,48.1111 L79.0278,48.3333 L78.1111,48.7222 L77.3333,49.3333 L76.7222,50.1111 L76.3333,51.0278 L76.1111,52 L76,54 L76,55 L76,56.5 Z" id="Combined-Shape"></path>
            <path d="M41,53 L40,54 L40,59 L41,60 L47,60 L47,53 L41,53 L41,53 Z M61,53 L61,60 L67,60 L68,59 L68,54 L67,53 L61,53 L61,53 Z M50,53 L50,60 L51,61 L58.031188,61 L59.031188,60 L59.031188,53 L58.031188,52 L51,52 L50,53 Z M58,44 L57,43 L52,43 L51,44 L51,50 L58,50 L58,44 Z M51,69 L52,70 L57,70 L58,69 L58,63 L51,63 L51,69 L51,69 Z" id="Shape"></path>
            <path d="M287,49 L299,49 L300,48 L300,30.9916143 C300,30.7256928 299,30.1111 299,30.1111 L294,30 L293,30 L292,30 L290,30.1111 L289.028,30.3333 L288.111,30.7222 L287.333,31.3333 L286.722,32.1111 C286.722,32.1111 286.48528,32.6095532 286.358784,33.0006142 C286.281613,33.2391865 286.111,34 286.111,34 L286,36 L286,37 L286,38 L286,41 L286,48 L287,49 Z M322,49 L310,49 L309,48 L309,30.9916143 C309,30.7256928 310,30.1111 310,30.1111 L315,30 L316,30 L317,30 L319,30.1111 L319.972,30.3333 L320.889,30.7222 L321.667,31.3333 L322.278,32.1111 C322.278,32.1111 322.51472,32.6095532 322.641216,33.0006142 C322.718387,33.2391865 322.889,34 322.889,34 L323,36 L323,37 L323,38 L323,41 L323,48 L322,49 Z M287,57 L299,57 L300,58 L300,75.0083857 C300,75.2743072 299,75.8889 299,75.8889 L294,76 L293,76 L292,76 L290,75.8889 L289.028,75.6667 L288.111,75.2778 L287.333,74.6667 L286.722,73.8889 C286.722,73.8889 286.48528,73.3904468 286.358784,72.9993858 C286.281613,72.7608135 286.111,72 286.111,72 L286,70 L286,69 L286,68 L286,65 L286,58 L287,57 Z M322,57 L310,57 L309,58 L309,75.0083857 C309,75.2743072 310,75.8889 310,75.8889 L315,76 L316,76 L317,76 L319,75.8889 L319.972,75.6667 L320.889,75.2778 L321.667,74.6667 L322.278,73.8889 C322.278,73.8889 322.51472,73.3904468 322.641216,72.9993858 C322.718387,72.7608135 322.889,72 322.889,72 L323,70 L323,69 L323,68 L323,65 L323,58 L322,57 Z" id="Combined-Shape"></path>
        </g>
        <g id="citrix_logo" transform="translate(175.000000, 42.000000)" fill="#0679BD">
            <g id="Page-1">
                <g id="Vector-Smart-Object">
                    <g id="Group">
                        <g transform="translate(14.762258, 0.000000)">
                            <path d="M2.51403269,4.94124638 C3.88732709,4.94124638 5.00460754,3.83681715 5.00460754,2.4795186 C5.00460754,1.12182025 3.88732709,0.0173910124 2.51403269,0.0173910124 C1.14073829,0.0173910124 0.0236600567,1.12182025 0.0236600567,2.4795186 C0.0236600567,3.83661725 1.14073829,4.94124638 2.51403269,4.94124638 L2.51403269,4.94124638 L2.51403269,4.94124638 Z" id="Shape"></path>
                            <rect id="Rectangle-path" x="0.521734583" y="6.00169835" width="4.01432295" height="14.409953"></rect>
                        </g>
                        <g transform="translate(47.117891, 5.996901)">
                            <path d="M2.55569056,15.4486162 C1.18239616,15.4486162 0.0653179342,16.5530455 0.0653179342,17.910344 C0.0653179342,19.2676426 1.18259839,20.3720718 2.55569056,20.3720718 C3.92898496,20.3720718 5.04626542,19.2676426 5.04626542,17.910344 C5.04626542,16.5530455 3.92898496,15.4486162 2.55569056,15.4486162 L2.55569056,15.4486162 L2.55569056,15.4486162 Z" id="Shape"></path>
                            <rect id="Rectangle-path" x="0.533665722" y="0.00479752066" width="4.01432295" height="14.409953"></rect>
                        </g>
                        <path d="M11.2280113,15.104594 L11.1010155,15.2655108 C10.6666411,15.8162262 10.1521865,16.2314117 9.61366747,16.46689 C9.0306594,16.7215584 8.43187797,16.8506916 7.83410765,16.8506916 C6.76070952,16.8506916 5.87133406,16.515265 5.19085465,15.8542066 C4.51077969,15.1937479 4.16598998,14.3335925 4.16598998,13.2979277 C4.16598998,12.1823042 4.50693746,11.2705754 5.17912574,10.5887278 C5.85050512,9.90787965 6.74392504,9.56245816 7.83390543,9.56245816 C8.44926912,9.56245816 9.0510839,9.68999225 9.62236304,9.94206198 C10.2575446,10.2215176 10.7117368,10.5911265 11.0953532,11.1406426 L11.2276069,11.3299447 L13.4259699,8.0178564 L13.3266786,7.92890238 C12.1768403,6.89903461 10.9313506,6.22438326 9.62458749,5.92333884 C8.98091262,5.77521539 8.24461974,5.70005424 7.43633559,5.70005424 C5.31441273,5.70005424 3.52514622,6.42268079 2.11808063,7.84714463 C0.71283504,9.27120868 0,11.0806736 0,13.2249654 C0,15.369657 0.711419481,17.1727252 2.11444062,18.5845956 C3.51827065,19.9966658 5.30895271,20.7128957 7.43674003,20.7128957 C8.30245544,20.7128957 9.01488603,20.6381343 9.61467858,20.4842138 C10.2773624,20.3139019 11.9727976,19.7537913 13.4000854,18.2291792 L13.4880523,18.1350279 L11.2280113,15.104594 L11.2280113,15.104594 L11.2280113,15.104594 Z" id="Shape"></path>
                        <polygon id="Shape" points="20.9795947 6.00169835 20.9795947 9.54426756 24.8009972 9.54426756 24.8009972 20.4116513 28.8282624 20.4116513 28.8282624 9.54426756 32.6314648 9.54426756 32.6314648 6.00169835"></polygon>
                        <path d="M42.21399,14.7301875 C43.1721212,14.487313 43.9213563,14.0305491 44.444102,13.3702903 C45.0056744,12.6604571 45.290404,11.7355351 45.290404,10.6219106 C45.290404,9.03233213 44.7975873,7.84974329 43.8250983,7.10692717 C42.8655515,6.3735062 41.1919564,6.00149845 38.8514308,6.00149845 L34.3434822,6.00149845 L34.3434822,20.4114514 L38.3705452,20.4114514 L38.3705452,15.3442701 L41.3947858,20.4114514 L46.1514683,20.4114514 L42.21399,14.7301875 L42.21399,14.7301875 L42.21399,14.7301875 Z M41.1246163,11.0878698 C41.1246163,11.6569757 40.9543447,12.0617665 40.604095,12.3254303 C40.2459586,12.5950909 39.6686128,12.7318202 38.8884376,12.7318202 L38.3705452,12.7318202 L38.3705452,9.29719525 L38.9531488,9.29719525 C39.7539508,9.29719525 40.324421,9.43672314 40.6479773,9.71178099 C40.9642537,9.98124174 41.1246163,10.4442025 41.1246163,11.0878698 L41.1246163,11.0878698 L41.1246163,11.0878698 Z" id="Shape"></path>
                        <polygon id="Shape" points="60.0922972 15.8540067 63.0882266 20.4116513 67.7255977 20.4116513 62.5675032 12.7959871 67.2287365 6.00169835 62.580041 6.00169835 60.0969484 9.78094525 57.6045535 6.00169835 52.9558579 6.00169835 57.6170913 12.7959871 52.4589967 20.4116513 57.0965701 20.4116513"></polygon>
                    </g>
                </g>
            </g>
        </g>
    </g>
</svg>