<?xml version="1.0" encoding="utf-8"?>
<!-- Generator: Adobe Illustrator 18.1.1, SVG Export Plug-In . SVG Version: 6.00 Build 0)  -->
<!DOCTYPE svg PUBLIC "-//W3C//DTD SVG 1.1//EN" "http://www.w3.org/Graphics/SVG/1.1/DTD/svg11.dtd">
<svg version="1.1"
	 id="svg2" xmlns:svg="http://www.w3.org/2000/svg" xmlns:cc="http://creativecommons.org/ns#" xmlns:dc="http://purl.org/dc/elements/1.1/" xmlns:rdf="http://www.w3.org/1999/02/22-rdf-syntax-ns#"
	 xmlns="http://www.w3.org/2000/svg" xmlns:xlink="http://www.w3.org/1999/xlink" x="0px" y="0px" viewBox="-93 97 600 600"
	 enable-background="new -93 97 600 600" xml:space="preserve">
<g id="g3026" transform="matrix(11.377778,0,0,11.377778,-657.06668,-247.46668)">
	<path id="path88" d="M53.4,67.9c0-4.2,2.3-7.8,5.7-9.8c1.2-0.8,1.3-1.9,0-3c-3.4-1.9-5.7-5.6-5.7-9.8c0-6.2,5-11.2,11.2-11.2
		c3.8,0,7.2,1.9,9.2,4.8c1.4,1.3,2.8,1.2,4,0c1.3-1.8,3-3.2,5.1-4c0,0,0,0,0-0.1l0,0.1c1.3-0.5,2.7-0.8,4.1-0.8
		c6.2,0,11.2,5,11.2,11.2c0,4-2.1,7.6-5.3,9.6c-1.1,1.3-1,2.5,0.1,3.4c2,1.3,3.5,3.1,4.4,5.3c0,0,0,0,0,0l0,0
		c0.5,1.3,0.8,2.7,0.8,4.2c0,6.2-5,11.2-11.2,11.2c-3.9,0-7.4-2-9.4-5.1c-1.2-1.5-2.5-1.6-3.7,0.1c-2,3-5.5,5-9.3,5
		C58.5,79.1,53.4,74.1,53.4,67.9z M97,67.7c0-5.5-4.5-10-10-10c-2.4,0-4.7,0.9-6.4,2.4c2.3,2.3,4.6,4.7,6.8,7.1
		c0.1,0,0.1-0.1,0.2-0.1c0.5-0.5,0.6-1,0.9-1.5c0.3-0.6,0.7-1.2,1.1-1.7c1-1.1,1.8-1.9,2.6-2.4c0.1-0.1,0.2-0.1,0.3-0.1
		c0.1,0.1,0.3,0.2,0.3,0.4c0.1,0.2,0.1,0.5,0,0.6c-0.6,1.2-1.4,2.4-2.4,3.5c-0.9,1.1-1.5,1.8-2.2,2.3c0.3,0.3,0.5,0.6,0.8,0.9
		c0.2,0.2,0.2,0.4,0,0.6c-0.2,0.2-0.4,0.2-0.6,0c-0.5-0.4-1-0.8-1.5-1.3c-0.1,0.1-0.1,0.1-0.2,0.2c-0.5,0.7-0.4,1.1-0.7,1.5
		c-0.3,0.7-0.7,1.2-1.1,1.8c-1,1.1-1.8,2-2.6,2.5c-0.1,0.1-0.2,0.1-0.3,0.1c-0.1-0.1-0.3-0.2-0.3-0.4c-0.1-0.2-0.1-0.5,0-0.7
		c0.6-1.3,1.4-2.5,2.4-3.6c0.8-1,1.4-1.7,2-2.2c-2.2-2-4.4-4.2-6.5-6.3c-1.5,1.7-2.4,4-2.4,6.5c0,5.5,4.5,10,10,10S97,73.2,97,67.7
		L97,67.7z M74.8,67.7c0-2.4-0.9-4.7-2.4-6.4c-2.1,2.1-4.3,4.3-6.5,6.3c0.6,0.5,1.2,1.2,2,2.2c0.9,1.2,1.7,2.4,2.4,3.6
		c0.1,0.2,0.1,0.4,0,0.7c-0.1,0.2-0.2,0.3-0.3,0.4c-0.1,0-0.1,0-0.3-0.1C68.9,73.8,68,73,67,71.9c-0.5-0.5-0.9-1.1-1.1-1.8
		c-0.2-0.5-0.2-0.8-0.7-1.5c-0.1-0.1-0.1-0.1-0.2-0.2c-0.5,0.4-1,0.9-1.5,1.3c-0.2,0.2-0.4,0.2-0.6,0c-0.2-0.2-0.2-0.4,0-0.6
		c0.3-0.3,0.5-0.6,0.8-0.9c-0.7-0.5-1.4-1.2-2.2-2.3c-0.9-1.1-1.7-2.3-2.4-3.5c-0.1-0.2-0.1-0.4,0-0.6c0.1-0.2,0.2-0.3,0.3-0.4
		c0.1,0,0.1,0,0.3,0.1c0.8,0.5,1.7,1.4,2.6,2.4c0.5,0.5,0.9,1.1,1.1,1.7c0.2,0.6,0.4,1,0.9,1.5c0.1,0,0.1,0.1,0.2,0.1
		c2.2-2.5,4.5-4.8,6.8-7.1c-1.7-1.5-4-2.3-6.4-2.3c-5.5,0-9.9,4.4-9.9,9.9s4.4,9.9,9.9,9.9S74.8,73.1,74.8,67.7L74.8,67.7z
		 M71.2,53.1c-2.3-2.3-4.5-4.6-6.7-7c-0.1,0-0.1,0.1-0.2,0.1c-0.5,0.5-0.6,1-0.9,1.5c-0.3,0.6-0.7,1.2-1.1,1.7
		c-1,1.1-1.8,1.9-2.6,2.4c-0.1,0.1-0.2,0.1-0.3,0.1c-0.1-0.1-0.3-0.2-0.3-0.4c-0.1-0.2-0.1-0.5,0-0.6c0.6-1.2,1.4-2.4,2.4-3.5
		c0.9-1.1,1.5-1.8,2.2-2.3c-0.3-0.3-0.5-0.6-0.8-0.9c-0.2-0.2-0.2-0.4,0-0.6c0.2-0.2,0.4-0.2,0.6,0c0.5,0.4,1,0.8,1.5,1.3
		c0.1-0.1,0.1-0.1,0.2-0.2c0.5-0.7,0.4-1.1,0.7-1.5c0.3-0.7,0.7-1.2,1.1-1.8c1-1.1,1.8-2,2.6-2.5c0.1-0.1,0.2-0.1,0.3-0.1
		c0.1,0.1,0.3,0.2,0.3,0.4c0.1,0.2,0.1,0.5,0,0.7c-0.6,1.3-1.4,2.5-2.4,3.6c-0.8,1-1.4,1.7-2,2.2c2.2,2,4.3,4.1,6.4,6.2
		c1.5-1.7,2.4-3.9,2.4-6.4c0-5.4-4.4-9.8-9.8-9.8S55,40.1,55,45.6s4.4,9.8,9.8,9.8C67.3,55.4,69.5,54.5,71.2,53.1L71.2,53.1z
		 M96.8,45.5c0-5.3-4.3-9.7-9.7-9.7c-5.3,0-9.7,4.3-9.7,9.7c0,2.4,0.9,4.6,2.3,6.3c2-2.1,4.1-4.1,6.3-6c-0.6-0.5-1.2-1.2-2-2.2
		c-0.9-1.2-1.7-2.4-2.4-3.6c-0.1-0.2-0.1-0.4,0-0.7c0.1-0.2,0.2-0.3,0.3-0.4c0.1,0,0.1,0,0.3,0.1c0.8,0.5,1.7,1.4,2.6,2.5
		c0.5,0.5,0.9,1.1,1.1,1.8c0.2,0.5,0.2,0.8,0.7,1.5c0.1,0.1,0.1,0.1,0.2,0.2c0.5-0.4,1-0.9,1.5-1.3c0.2-0.2,0.4-0.2,0.6,0
		c0.2,0.2,0.2,0.4,0,0.6c-0.3,0.3-0.5,0.6-0.8,0.9c0.7,0.5,1.4,1.2,2.2,2.3c0.9,1.1,1.7,2.3,2.4,3.5c0.1,0.2,0.1,0.4,0,0.6
		c-0.1,0.2-0.2,0.3-0.3,0.4c-0.1,0-0.1,0-0.3-0.1c-0.8-0.5-1.7-1.4-2.6-2.4c-0.5-0.5-0.9-1.1-1.1-1.7c-0.2-0.6-0.4-1-0.9-1.5
		c-0.1,0-0.1-0.1-0.2-0.1c-2.1,2.4-4.3,4.6-6.5,6.9c1.7,1.4,3.9,2.3,6.2,2.3C92.4,55.2,96.8,50.8,96.8,45.5L96.8,45.5z"/>
</g>
</svg>
