<?xml version="1.0" encoding="utf-8"?>
<!-- Generator: Adobe Illustrator 18.1.1, SVG Export Plug-In . SVG Version: 6.00 Build 0)  -->
<!DOCTYPE svg PUBLIC "-//W3C//DTD SVG 1.1//EN" "http://www.w3.org/Graphics/SVG/1.1/DTD/svg11.dtd">
<svg version="1.1" id="Layer_1" xmlns="http://www.w3.org/2000/svg" xmlns:xlink="http://www.w3.org/1999/xlink" x="0px" y="0px"
	 viewBox="0 0 612 792" enable-background="new 0 0 612 792" xml:space="preserve">
<g id="DISCOVERY" display="none">
	<path display="inline" fill="none" d="M-87,245c-0.4-1.5-1.5-3.9-2.7-7.6c-2.2-4.9-2.9-10-3.3-14.8c-1.5-18.8,2.9-40.5,19.3-59.1
		c13.5-15.2,31.2-22.8,46.4-25.2c16.1-2.6,31.2-0.4,45.7,6.3c17,7.9,31.2,22.3,38.6,38.8c5.1,11.3,7.5,22.8,7.1,34.4
		c-0.6,16.6-4.9,34.5-19.6,51.1c-9.2,10.5-20,16.2-30.2,20.6c-9.9,4.2-20.2,5.6-29.9,5.4c-20-0.5-41.7-8.4-58.8-28.8
		C-80.1,259.4-84.2,252.6-87,245z"/>
	
		<text transform="matrix(-0.4186 0.9082 -0.9082 -0.4186 60.4945 241.922)" display="inline" fill="#FFFFFF" font-family="'MyriadPro-Regular'" font-size="23.0679">D</text>
	
		<text transform="matrix(-0.4186 0.9082 -0.9082 -0.4186 48.8283 263.4915)" display="inline" fill="#FFFFFF" font-family="'MyriadPro-Regular'" font-size="23.0679">I</text>
	
		<text transform="matrix(-0.4186 0.9082 -0.9082 -0.4186 39.3527 274.4895)" display="inline" fill="#FFFFFF" font-family="'MyriadPro-Regular'" font-size="23.0679">S</text>
	
		<text transform="matrix(-0.4186 0.9082 -0.9082 -0.4186 21.0344 286.6333)" display="inline" fill="#FFFFFF" font-family="'MyriadPro-Regular'" font-size="23.0679">C</text>
	
		<text transform="matrix(-0.4186 0.9082 -0.9082 -0.4186 -1.4608 294.4989)" display="inline" fill="#FFFFFF" font-family="'MyriadPro-Regular'" font-size="23.0679">O</text>
	
		<text transform="matrix(-0.4186 0.9082 -0.9082 -0.4186 -27.5984 294.1527)" display="inline" fill="#FFFFFF" font-family="'MyriadPro-Regular'" font-size="23.0679">V</text>
	
		<text transform="matrix(-0.4186 0.9082 -0.9082 -0.4186 -50.707 286.0913)" display="inline" fill="#FFFFFF" font-family="'MyriadPro-Regular'" font-size="23.0679">E</text>
	
		<text transform="matrix(-0.4186 0.9082 -0.9082 -0.4186 -68.7138 272.8709)" display="inline" fill="#FFFFFF" font-family="'MyriadPro-Regular'" font-size="23.0679">R</text>
	
		<text transform="matrix(-0.4186 0.9082 -0.9082 -0.4186 -83.3333 254.3609)" display="inline" fill="#FFFFFF" font-family="'MyriadPro-Regular'" font-size="23.0679">Y</text>
</g>
<g>
	<g id="Layer_1_1_">
		<path fill="#FFFFFF" d="M288,146.1c110.8-7.6,184.2,46.6,226.2,112.5c21,33,41.6,83.4,41.8,135.1c0.1,56.1-18,104.7-41.8,140.5
			c-24.4,36.7-55.8,66.9-95.4,86.8c-65.9,33.3-158.2,34.1-218.7,2.2c-67.3-35.6-119-86.5-138.3-174.7c-7.6-35.2-8.6-80.8,2.2-120
			c2.5-9.1,7.1-18.8,10.6-27.8c17.3-43.4,47.1-81.1,83.7-107.2c14.7-10.4,32.5-20.9,48.2-27.8C226.2,156.6,259.2,148,288,146.1z"/>
		<path d="M498.3,400c0,104.7-84.9,189.5-189.6,189.5S119.2,504.6,119.2,400c0-104.7,84.8-189.6,189.5-189.6S498.3,295.3,498.3,400z
			"/>
		<path d="M288,146.1c110.8-7.6,184.2,46.6,226.2,112.5c21,33,41.6,83.4,41.8,135.1c0.1,56.1-18,104.7-41.8,140.5
			c-24.4,36.7-55.8,66.9-95.4,86.8c-65.9,33.3-158.2,34.1-218.7,2.2c-67.3-35.6-119-86.5-138.3-174.7c-7.6-35.2-8.6-80.8,2.2-120
			c2.5-9.1,7.1-18.8,10.6-27.8c17.3-43.4,47.1-81.1,83.7-107.2c14.7-10.4,32.5-20.9,48.2-27.8C226.2,156.6,259.2,148,288,146.1z
			 M250.6,164.3c-41.1,10.6-71.3,29.8-97.6,50.4c-37.8,29.8-62,71.1-76.2,121.1c-15.7,55.6-5.6,122.9,16.1,165
			c22.5,43.8,52.7,77.8,95.4,101.8c41.5,23.3,99.9,38.2,160.8,26.8c54.1-10.2,95.1-33.7,128.6-68.5c44.8-46.6,80.8-132.4,56.8-222.9
			c-6.4-24.2-14.7-49.4-27.8-70.7c-7.1-11.5-17.5-22.9-27.8-34.4c-39.3-43.1-102.8-80.3-184.4-75.1
			C279,158.8,265.4,160.4,250.6,164.3z"/>
		<g>
			<g>
				<line fill="none" stroke="#FFFFFF" stroke-width="2" x1="320.1" y1="627.2" x2="539.1" y2="408.2"/>
				<line fill="none" stroke="#FFFFFF" stroke-width="2" x1="301" y1="610" x2="520.9" y2="389.9"/>
				<line fill="none" stroke="#FFFFFF" stroke-width="2" x1="281.9" y1="592.5" x2="502.8" y2="371.6"/>
				<line fill="none" stroke="#FFFFFF" stroke-width="2" x1="262.6" y1="575.2" x2="484.6" y2="353.3"/>
				<line fill="none" stroke="#FFFFFF" stroke-width="2" x1="243.5" y1="557.8" x2="466.3" y2="335"/>
				<line fill="none" stroke="#FFFFFF" stroke-width="2" x1="224.4" y1="540.5" x2="448.2" y2="316.8"/>
				<line fill="none" stroke="#FFFFFF" stroke-width="2" x1="205.3" y1="523.2" x2="430" y2="298.5"/>
				<line fill="none" stroke="#FFFFFF" stroke-width="2" x1="186.1" y1="505.8" x2="411.8" y2="280.2"/>
				<line fill="none" stroke="#FFFFFF" stroke-width="2" x1="166.9" y1="488.5" x2="393.6" y2="261.9"/>
				<line fill="none" stroke="#FFFFFF" stroke-width="2" x1="147.8" y1="471.1" x2="375.4" y2="243.6"/>
				<line fill="none" stroke="#FFFFFF" stroke-width="2" x1="128.7" y1="453.8" x2="357.2" y2="225.3"/>
				<line fill="none" stroke="#FFFFFF" stroke-width="2" x1="109.6" y1="436.5" x2="339.1" y2="207"/>
				<line fill="none" stroke="#FFFFFF" stroke-width="2" x1="90.4" y1="419.1" x2="320.8" y2="188.7"/>
				<line fill="none" stroke="#FFFFFF" stroke-width="2" x1="71.2" y1="401.8" x2="302.6" y2="170.4"/>
			</g>
			<g>
				<line fill="none" stroke="#FFFFFF" stroke-width="2" x1="71.1" y1="404" x2="294.6" y2="627.3"/>
				<line fill="none" stroke="#FFFFFF" stroke-width="2" x1="89.3" y1="385.6" x2="313" y2="609.4"/>
				<line fill="none" stroke="#FFFFFF" stroke-width="2" x1="107.4" y1="367.3" x2="331.6" y2="591.4"/>
				<line fill="none" stroke="#FFFFFF" stroke-width="2" x1="125.4" y1="348.8" x2="350.1" y2="573.5"/>
				<line fill="none" stroke="#FFFFFF" stroke-width="2" x1="143.6" y1="330.4" x2="368.7" y2="555.6"/>
				<line fill="none" stroke="#FFFFFF" stroke-width="2" x1="161.8" y1="312.1" x2="387.3" y2="537.6"/>
				<line fill="none" stroke="#FFFFFF" stroke-width="2" x1="179.8" y1="293.7" x2="405.8" y2="519.7"/>
				<line fill="none" stroke="#FFFFFF" stroke-width="2" x1="197.9" y1="275.4" x2="424.4" y2="501.9"/>
				<line fill="none" stroke="#FFFFFF" stroke-width="2" x1="216.1" y1="257" x2="442.8" y2="483.8"/>
				<line fill="none" stroke="#FFFFFF" stroke-width="2" x1="234.2" y1="238.7" x2="461.4" y2="465.8"/>
				<line fill="none" stroke="#FFFFFF" stroke-width="2" x1="252.3" y1="220.2" x2="480.1" y2="447.9"/>
				<line fill="none" stroke="#FFFFFF" stroke-width="2" x1="270.4" y1="201.9" x2="498.7" y2="430.1"/>
				<line fill="none" stroke="#FFFFFF" stroke-width="2" x1="288.4" y1="183.5" x2="517.2" y2="412"/>
				<line fill="none" stroke="#FFFFFF" stroke-width="2" x1="306.6" y1="165.1" x2="535.7" y2="394.2"/>
			</g>
		</g>
		<g>
			<g>
				<path d="M466,234c-19.7-19.7-44-37.5-72.9-48.2c-30-11.2-63.9-20.6-104-17.1c-63.8,5.5-108.5,34.1-142.5,67.4
					c-23.8,23.5-41.8,52.1-53.6,85.7c-17.3,49.3-16.2,107.4,3.1,157.5c16.7,42.7,44,77.3,82.6,104c36.3,25.1,88.3,44.6,146.9,39.7
					c71.3-6,123.4-42.6,157.5-84.8c8.7-10.8,17.5-22.9,22.5-37.5c4.9-10.5,7.4-17.6,9.6-21.4c9.6-21.3,14.5-43.8,16.1-68.5
					C536.2,334.4,506.9,274.7,466,234z M445,466.9c-0.1,0.3-0.3,0.5-0.4,0.8c-3.5,10.1-9.6,18.6-15.7,26.1
					c-23.9,29.2-60.3,54.6-110.2,58.8c-41,3.4-77.4-10.1-102.7-27.6c-22.1-15.2-38.9-33.9-50.5-56.5c-0.8-1.4-7.5-17.1-7.6-17.7
					c-9.3-28.9-10.1-75.4-0.5-103.2c6.4-18.6,17.1-38.8,31.1-54.6c19.5-22.1,38.9-36,69.6-46.1c14.1-4.5,26.6-9.1,44-9.6
					c42.2-1.1,85.2,17.7,108.3,38.6c21.2,19.1,45.3,56.2,51.5,91.2C468.1,402.8,461.4,437.8,445,466.9z"/>
			</g>
		</g>
		<g>
			<path fill="#FFFFFF" d="M371.7,501.3c-10.4,0-19.5-6.6-22.7-16.4l-11.6-35.2h-57.9l-10.8,34.9c-3.3,10-12.4,16.7-22.9,16.7
				c-2.5,0-5.1-0.4-7.4-1.2c-12.4-3.8-19.5-17.2-15.8-29.9l49-154.8c3.1-9.8,12.6-16.7,22.7-16.7h25.9c10.2,0,19.7,6.8,22.7,16.5
				l51.3,154.7c4.1,12.6-2.7,26.2-15.2,30.3C376.8,500.9,374.2,501.3,371.7,501.3L371.7,501.3z"/>
			<path d="M320.4,301.2c9,0,17.6,5.9,20.3,14.7L392,470.6c3.7,11.3-2.3,23.5-13.5,27.2c-2.3,0.8-4.5,1.1-6.8,1.1
				c-9,0-17.3-5.6-20.3-14.6l-12.1-37h-61.6L266.3,484c-2.9,9.1-11.5,14.9-20.5,14.9c-2.2,0-4.4-0.3-6.6-1.1
				c-11.3-3.4-17.6-15.6-14.1-26.8l48.9-154.8c2.9-8.7,11.1-15,20.3-15L320.4,301.2 M320.4,296.1h-25.9c-11.5,0-21.6,7.4-25.1,18.4
				l-48.9,154.8l0,0l0,0c-4.2,14.1,3.5,28.9,17.5,33c2.7,0.8,5.3,1.2,8.1,1.2c11.5,0,21.7-7.4,25.3-18.4l0,0l0,0l10.2-33.2h54.2
				l11.1,33.6c3.5,10.8,13.7,18.2,25.1,18.2c2.9,0,5.6-0.4,8.3-1.4c13.8-4.5,21.3-19.5,16.8-33.4l-51.3-154.8
				C341.9,303.5,331.6,296.1,320.4,296.1L320.4,296.1z"/>
		</g>
		<g>
			<path fill="#FFFFFF" d="M179.8,249.3L179.8,249.3c-6.1-8.5-4.4-20.1,4.6-26.6c8.9-6.6,20.5-4.6,26.6,3.7l0.1,0.1
				c6.1,8.3,4.4,20.1-4.6,26.6C197.2,259.4,185.8,257.6,179.8,249.3z M202.8,232.4L202.8,232.4c-3.1-4.2-8.9-5.7-13.2-2.5
				c-4.4,3.1-4.8,8.9-1.6,13.1l0.1,0.1c3.1,4.2,8.7,5.7,13.2,2.5C205.6,242.4,205.8,236.6,202.8,232.4z"/>
			<path fill="#FFFFFF" d="M238.5,194.6l9.1-2.9l25.7,29.8l-10.2,3.3l-4.4-5.3l-13.2,4.2l-0.5,7l-10,3.1L238.5,194.6z M253.6,212.9
				l-7-8.5l-0.8,11.1L253.6,212.9z"/>
			<path fill="#FFFFFF" d="M289.8,203.4l0.1-20.2H300l-0.1,20.1c0,5.2,2.6,7.6,6.6,7.6s6.7-2.3,6.7-7.4l0.1-20.3h10.1l-0.1,19.9
				c-0.1,11.6-6.7,16.7-16.9,16.7C296.2,220,289.8,214.8,289.8,203.4z"/>
			<path fill="#FFFFFF" d="M360.1,199.9l-10.4-3.1l2.6-8.3l30.3,9.1l-2.6,8.3l-10.4-3.1l-7.9,26.1l-9.6-2.9L360.1,199.9z"/>
			<path fill="#FFFFFF" d="M409.5,209.3l8.3,5.5l-7.4,11.2l10.6,7.1l7.4-11.2l8.3,5.5l-19.9,30l-8.3-5.5l7.6-11.3l-10.6-7.1
				l-7.6,11.3l-8.3-5.5L409.5,209.3z"/>
		</g>
	</g>
	<g id="OAUTH">
		<g>
			<path fill="#FFFFFF" d="M438.7,537.1L438.7,537.1c6.6,8.2,5.1,19.9-3.5,26.8c-8.7,6.8-20.3,5.5-26.8-2.6l-0.1-0.1
				c-6.4-8.1-5.1-19.9,3.7-26.8C420.9,527.5,432.5,529,438.7,537.1z M416.3,554.8L416.3,554.8c3.3,4.2,9,5.3,13.4,2
				c4.2-3.3,4.4-9.1,1.2-13.2l-0.1-0.1c-3.3-4.1-8.9-5.3-13.2-1.9C413.3,545,413.2,550.7,416.3,554.8z"/>
			<path fill="#FFFFFF" d="M382.5,594.1l-9,3.3l-27-28.7l10-3.7l4.6,5.1l13-4.8l0.1-7l9.8-3.7L382.5,594.1z M366.7,576.5l7.4,8.2
				l0.3-11.1L366.7,576.5z"/>
			<path fill="#FFFFFF" d="M330.9,587.3l1,20.2l-10.1,0.4l-1-19.9c-0.3-5.2-2.9-7.5-7-7.4c-4,0.1-6.6,2.7-6.3,7.6l1,20.2l-10.1,0.4
				l-1-19.9c-0.5-11.6,5.9-16.9,16.1-17.5C323.7,571.2,330.3,576,330.9,587.3z"/>
			<path fill="#FFFFFF" d="M260.5,593.9l10.4,2.9l-2.3,8.5l-30.4-8.3l2.3-8.5l10.4,2.9l7.1-26.3l9.6,2.6L260.5,593.9z"/>
			<path fill="#FFFFFF" d="M211.2,586.5l-8.5-5.1l7-11.5l-11.1-6.6l-7,11.5l-8.5-5.1l18.6-30.9l8.5,5.1l-7,11.7l11.1,6.6l7-11.7
				l8.5,5.1L211.2,586.5z"/>
		</g>
	</g>
</g>
</svg>
