<?xml version="1.0" encoding="UTF-8"?>
<svg xmlns="http://www.w3.org/2000/svg" xmlns:xlink="http://www.w3.org/1999/xlink" width="1000pt" height="800pt" viewBox="0 0 1000 1000">
<g id="surface1">
<path style=" stroke:none;fill-rule:nonzero;fill:rgb(11.372549%,64.313725%,85.490196%);fill-opacity:1;" d="M 28.855469 1129.027344 C -17.453125 1114.949219 -48.707031 1076.714844 -53.851562 1027.859375 C -59.238281 976.730469 -34.042969 931.996094 12.117188 910.71875 C 31.394531 901.832031 34.664062 901.28125 67.992188 901.28125 C 99.890625 901.28125 105.121094 902.066406 120.859375 909.246094 C 145.1875 920.34375 164.648438 938.820312 176.339844 961.925781 C 195.929688 1000.636719 190.671875 1056.207031 164.257812 1089.699219 C 150.042969 1107.722656 128.019531 1122.820312 107.164062 1128.847656 C 88.140625 1134.34375 46.652344 1134.4375 28.855469 1129.027344 Z M 93.710938 1087.328125 C 119.808594 1076.71875 138.375 1051.28125 141.0625 1022.449219 C 146.441406 964.730469 88.953125 924.601562 35.542969 948.796875 C -9.246094 969.089844 -20.984375 1025.402344 11.054688 1066.269531 C 27.605469 1087.382812 68.160156 1097.714844 93.710938 1087.328125 Z M 252.6875 1130.742188 C 224.148438 1121.632812 204.210938 1103.789062 195.824219 1079.851562 C 190.332031 1064.167969 189.992188 1028.285156 195.203125 1014.527344 C 201.976562 996.660156 217.261719 979.355469 234.402344 970.160156 C 249.867188 961.863281 253.5 961.175781 281.929688 961.175781 C 309.851562 961.175781 314.113281 961.945312 327.789062 969.445312 C 342.730469 977.644531 342.902344 977.664062 347.199219 971.691406 C 349.585938 968.378906 354.921875 965.667969 359.058594 965.667969 C 366.238281 965.667969 366.582031 964.8125 366.582031 946.800781 C 366.582031 936.117188 368.183594 926.375 370.273438 924.339844 C 375.0625 919.679688 401.191406 919.679688 405.984375 924.339844 C 408.074219 926.375 409.675781 936.117188 409.675781 946.800781 L 409.675781 965.667969 L 424.453125 965.667969 C 442.125 965.667969 446.613281 969.308594 446.613281 983.636719 C 446.613281 997.964844 442.125 1001.605469 424.453125 1001.605469 L 409.675781 1001.605469 L 409.675781 1035.902344 C 409.675781 1054.765625 411.214844 1073.484375 413.09375 1077.5 C 416.636719 1085.0625 427.539062 1091.445312 436.910156 1091.445312 C 445.558594 1091.445312 449.695312 1097.742188 449.695312 1110.910156 C 449.695312 1117.664062 448.03125 1124.808594 446 1126.785156 C 440.457031 1132.175781 412.894531 1130.988281 398.773438 1124.75 C 371.394531 1112.648438 363.503906 1092.773438 363.503906 1035.894531 C 363.503906 1004.871094 362.972656 1001.605469 357.960938 1001.605469 C 354.914062 1001.605469 350.964844 1000.1875 349.183594 998.457031 C 346.921875 996.253906 344.402344 997.605469 340.800781 1002.949219 C 334.332031 1012.558594 321.953125 1013.003906 304.351562 1004.269531 C 288.753906 996.527344 269.964844 997.757812 256 1007.429688 C 227.273438 1027.328125 230.710938 1072.960938 262.109375 1088.542969 C 277.984375 1096.425781 291.632812 1095.972656 309.882812 1086.964844 C 331.621094 1076.238281 340.824219 1076.953125 347.152344 1089.871094 C 354.246094 1104.339844 349.503906 1113.074219 328.988281 1123.3125 C 315.757812 1129.917969 307.8125 1131.605469 286.546875 1132.320312 C 272.15625 1132.804688 256.917969 1132.09375 252.6875 1130.742188 Z M 502.003906 1130.746094 C 478.460938 1123.257812 457.117188 1104.574219 446.851562 1082.460938 C 432.753906 1052.097656 440.96875 1007.558594 464.972656 984.207031 C 484.0625 965.632812 496.894531 961.175781 531.265625 961.175781 C 557.140625 961.175781 564.078125 962.230469 574.777344 967.796875 C 605.867188 983.976562 622.035156 1010.945312 621.976562 1046.523438 C 621.921875 1081.667969 605.039062 1109.550781 574.363281 1125.179688 C 560.980469 1131.996094 516.660156 1135.40625 502.003906 1130.746094 Z M 550.316406 1089.480469 C 565.917969 1082.277344 576.613281 1065.050781 576.613281 1047.125 C 576.613281 1018.847656 558.535156 1000.105469 531.265625 1000.105469 C 503.996094 1000.105469 485.921875 1018.847656 485.921875 1047.125 C 485.921875 1081.410156 519.6875 1103.621094 550.316406 1089.480469 Z M 679.777344 1126.121094 C 666.300781 1119.152344 665.703125 1119.09375 664.214844 1124.625 C 662.074219 1132.59375 645.042969 1132.566406 640.652344 1124.589844 C 638.632812 1120.917969 637.464844 1081.089844 637.464844 1015.855469 C 637.464844 903.066406 637.71875 901.410156 654.546875 903.273438 L 663.632812 904.277344 L 665.359375 977.386719 L 679.574219 970.03125 C 690.570312 964.34375 698.4375 962.675781 714.277344 962.675781 C 754.867188 962.675781 780.535156 984.035156 788.347656 1024.308594 C 797.535156 1071.675781 779.03125 1114.703125 743.21875 1129.257812 C 726.472656 1136.066406 696.09375 1134.566406 679.777344 1126.128906 Z M 743.695312 1093.691406 C 759.933594 1077.882812 765.933594 1056.230469 760.550781 1032.859375 C 753.78125 1003.472656 738.796875 989.613281 713.804688 989.636719 C 685.503906 989.664062 667.339844 1011.714844 666.957031 1046.523438 C 666.546875 1083.394531 685.222656 1106.386719 715.597656 1106.410156 C 729.179688 1106.417969 731.878906 1105.195312 743.695312 1093.691406 Z M 892.507812 1127.339844 C 885.136719 1123.546875 879.039062 1117.058594 874.746094 1108.429688 C 868.613281 1096.105469 868.261719 1091.332031 869.042969 1031.230469 L 869.875 967.164062 L 878.957031 966.160156 C 894.644531 964.421875 896.039062 969.6875 896.039062 1030.773438 C 896.039062 1103.1875 899.316406 1109.539062 934.679688 1105.660156 C 952 1103.761719 967.328125 1092.546875 975.757812 1075.609375 C 981.421875 1064.226562 982.230469 1057.1875 982.230469 1019.199219 C 982.230469 970.515625 984.171875 964.484375 999.3125 966.160156 L 1008.394531 967.164062 L 1008.394531 1128.878906 L 998.324219 1129.824219 C 989.570312 1130.644531 987.730469 1129.546875 984.21875 1121.425781 C 980.503906 1112.832031 979.832031 1112.496094 975.820312 1117.214844 C 962.261719 1133.152344 914.996094 1138.894531 892.507812 1127.339844 Z M 821.324219 1124.390625 C 816.824219 1120.945312 811.710938 1113.132812 809.972656 1107.03125 C 808.121094 1100.550781 806.796875 1057.902344 806.785156 1004.421875 C 806.769531 903.976562 807.199219 901.425781 823.851562 903.269531 L 832.933594 904.273438 L 834.621094 1001.605469 C 835.550781 1055.136719 836.589844 1099.339844 836.929688 1099.835938 C 837.273438 1100.332031 842.484375 1102.742188 848.511719 1105.191406 C 858.242188 1109.148438 859.363281 1110.726562 858.515625 1119.261719 C 857.609375 1128.394531 856.847656 1128.925781 843.539062 1129.769531 C 833 1130.4375 827.476562 1129.101562 821.324219 1124.390625 Z M 695.953125 800.597656 C 656.339844 794.394531 608.464844 760.992188 580.476562 720.035156 C 552.21875 678.679688 540.886719 636.933594 541.074219 574.855469 C 541.3125 495.785156 558.402344 453.476562 625.84375 364.984375 C 673.242188 302.792969 686.71875 272.355469 686.71875 227.464844 C 686.71875 183.195312 670.328125 146.960938 634.492188 112.011719 C 608.589844 86.75 576.355469 68.472656 542.039062 59.589844 C 517.25 53.171875 466.746094 52.332031 443.539062 57.953125 C 345.679688 81.65625 282.351562 168.597656 300.429688 254.417969 C 307.679688 288.820312 326.179688 324.140625 372.089844 391.238281 C 418.472656 459.023438 421.359375 464.113281 432.914062 498.488281 C 440.402344 520.769531 441.5 528.796875 441.71875 562.875 C 441.921875 595.117188 440.800781 605.410156 435.183594 622.769531 C 422.898438 660.75 393.863281 698.761719 360.75 720.214844 C 319.089844 747.199219 254.390625 752.734375 205.679688 733.480469 C 151.96875 712.246094 117.117188 663.433594 117.320312 609.726562 C 117.679688 514.710938 203.058594 455.355469 285.308594 492.945312 C 303.589844 501.300781 323.714844 520.265625 332.996094 537.882812 C 341.425781 553.886719 344.425781 588.515625 339.011719 607.328125 C 325.441406 654.480469 265.621094 681.519531 221.179688 660.585938 C 197.542969 649.457031 184.902344 630.855469 189.328125 613.710938 C 194.757812 592.660156 220.558594 587.289062 239.304688 603.304688 C 251.175781 613.445312 255.46875 614.140625 267.816406 607.925781 C 275.953125 603.832031 286.546875 587.5625 286.546875 579.15625 C 286.546875 569.40625 270.617188 549.679688 257.914062 543.695312 C 241.222656 535.835938 228.113281 535.742188 212.726562 543.382812 C 181.371094 558.941406 166.207031 605.070312 181.597656 638.046875 C 202.167969 682.105469 264.527344 701.972656 313.398438 680.035156 C 337.769531 669.097656 360.59375 645.964844 373.511719 619.101562 C 381.425781 602.65625 383.457031 594.164062 384.484375 573.261719 C 386.972656 522.640625 379.035156 504.03125 316.371094 413.519531 C 256.023438 326.351562 240.375 288.214844 240.375 228.324219 C 240.375 191.742188 246.773438 162.839844 261.777344 131.632812 C 284.976562 83.390625 323.695312 45.707031 373.738281 22.671875 C 417.09375 2.714844 431.980469 -0.15625 491.25 0.0078125 C 540.195312 0.140625 545.269531 0.695312 569.746094 8.589844 C 616.898438 23.804688 650.089844 43.710938 681.003906 75.320312 C 743.746094 139.476562 761.433594 226.128906 728.90625 310.019531 C 716.75 341.371094 710.851562 350.851562 673.082031 399.765625 C 634.191406 450.140625 617.296875 478.867188 606.222656 513.460938 C 600.136719 532.46875 599.054688 542.136719 599.171875 576.351562 C 599.304688 613.6875 600.070312 618.996094 609.21875 645.734375 C 624.636719 690.804688 651.511719 721.988281 689.921875 739.382812 C 716.832031 751.570312 738.773438 748.066406 760.097656 728.183594 C 790.746094 699.597656 789.523438 658.53125 757.519531 641.65625 C 737.382812 631.039062 721.144531 639 712.742188 663.609375 C 706.761719 681.128906 695.054688 688.78125 678.78125 685.8125 C 662.671875 682.871094 654.9375 671.050781 656.886719 652.351562 C 659 632.089844 667.992188 615.652344 684.867188 601.199219 C 701.5625 586.90625 715.945312 582.339844 744.300781 582.339844 C 762.050781 582.339844 769.007812 583.914062 784.472656 591.433594 C 805.785156 601.792969 822.941406 618.734375 832.511719 638.875 C 837.84375 650.09375 839.089844 658.390625 839.089844 682.664062 C 839.089844 708.96875 838.074219 714.71875 830.753906 729.925781 C 819.839844 752.578125 792.898438 779.824219 771.179688 790.171875 C 756.441406 797.195312 725.765625 804.644531 715.960938 803.582031 C 714.269531 803.402344 705.265625 802.058594 695.953125 800.597656 Z M 472.183594 793.730469 L 463.546875 786.503906 L 463.546875 685.171875 C 463.546875 629.4375 464.632812 580.042969 465.964844 575.40625 C 467.617188 569.648438 471.867188 565.554688 479.367188 562.507812 C 493.230469 556.871094 506.1875 559.464844 514.300781 569.496094 C 520.238281 576.84375 520.492188 581.480469 520.492188 681.707031 L 520.492188 786.253906 L 512.9375 793.605469 C 502.617188 803.648438 484.105469 803.703125 472.183594 793.730469 Z M 381.734375 328.019531 C 374.246094 320.730469 372.75 316.839844 372.804688 304.808594 C 372.90625 283.621094 385.570312 270.886719 406.550781 270.886719 C 429.316406 270.886719 442.753906 287.082031 439.507812 310.621094 C 437.050781 328.449219 426.445312 336.773438 406.191406 336.773438 C 393.210938 336.773438 389.292969 335.367188 381.734375 328.019531 Z M 557.613281 328.535156 C 545.753906 317.859375 543.035156 302.910156 550.402344 288.898438 C 556.859375 276.621094 566.941406 270.992188 582.589844 270.933594 C 605.722656 270.84375 620.847656 293.699219 612.988281 316.867188 C 608.410156 330.367188 598.011719 336.773438 580.675781 336.773438 C 569.769531 336.773438 564.789062 334.992188 557.613281 328.535156 Z M 481.566406 331.703125 C 472.726562 330.023438 464.292969 320.542969 465.621094 313.785156 C 466.546875 309.074219 470.40625 308.203125 493.59375 307.457031 L 520.492188 306.589844 L 520.492188 315.84375 C 520.492188 323.574219 518.734375 325.8125 509.816406 329.4375 C 499.238281 333.738281 494.328125 334.132812 481.566406 331.703125 Z M 481.566406 331.703125 "/>
</g>
</svg>
