<?xml version="1.0" encoding="utf-8"?>
<!-- Generator: Adobe Illustrator 18.1.1, SVG Export Plug-In . SVG Version: 6.00 Build 0)  -->
<!DOCTYPE svg PUBLIC "-//W3C//DTD SVG 1.1//EN" "http://www.w3.org/Graphics/SVG/1.1/DTD/svg11.dtd">
<svg version="1.1" id="Layer_1" xmlns="http://www.w3.org/2000/svg" xmlns:xlink="http://www.w3.org/1999/xlink" x="0px" y="0px"
	 viewBox="56 146 500 500" enable-background="new 56 146 500 500" xml:space="preserve">
<g>
	<g id="Rounded_Rectangle_2_xA0_Image_1_">
		<g>
			<path fill="#FCFDFD" d="M298.7,196.1c76,0,151.9,0,227.9,0c1.8,0,1.9,0.4,1.9,2c0,117.1,0,234.1,0,351.3c0,1.6-0.2,2-2,2
				c-151.9,0-303.6,0-455.5,0c-1.7,0-2-0.5-2-2.1c0-117.1,0-234.1,0-351.3c0-1.5,0.2-1.9,1.9-1.9
				C146.8,196.1,222.8,196.1,298.7,196.1z M299.1,198.4c-67,0-134,0-201,0c-2.1,0-4.1,0.1-6.3,0.1c-7.6,0-13.1,3.9-17.9,9.5
				c-0.8,0.9-1.1,1.7-1.4,2.9c-1.5,4.4-1.8,8.8-1.8,13.4c0,76.8,0,153.5,0,230.3c0,1.5,0,3,0.1,4.5c0.5,5.4,0.9,10.6,5.2,14.7
				c5.1,4.9,10.5,7.8,17.8,7.8c38.9-0.3,77.9-0.1,116.8-0.1c2.8,0,2.8,0,2.8,2.6c0,15.4,0,30.9,0,46.2c0,0.9,0.1,1.8,0.2,2.6
				c0.9,5.2,4.2,9,8.3,12.1c1.4,1,2.6,2.2,4.4,2.9c4.2,1.6,8.6,1.9,13.1,1.9c87.4,0,174.6,0,262,0c2.5,0,5-0.1,7.5-0.4
				c3-0.4,6.1-1,8.6-3.1c1.9-1.6,3.8-3.1,5.6-4.9c1-0.9,1.6-2,2.1-3.4c1.5-4.6,1.8-9.5,1.8-14.4c0-99.6,0-199.3,0-299
				c0-1.9,0.1-3.6-0.1-5.5c-0.5-5-1-9.9-5.2-13.5c-2.4-2-4.2-4.4-7.4-5.5c-4.5-1.6-9.1-1.6-13.8-1.6
				C433.3,198.4,366.2,198.4,299.1,198.4z"/>
			<path fill="#0F86AD" d="M299.1,198.4c67.1,0,134.3,0,201.4,0c4.6,0,9.2,0,13.8,1.6c3,1.1,5,3.5,7.4,5.5c4.2,3.5,4.8,8.5,5.2,13.5
				c0.3,1.8,0.1,3.6,0.1,5.5c0,99.6,0,199.3,0,299c0,4.9-0.3,9.6-1.8,14.4c-0.4,1.4-1.1,2.5-2.1,3.4c-1.9,1.6-3.8,3.2-5.6,4.9
				c-2.5,2-5.5,2.6-8.6,3.1c-2.5,0.4-5,0.4-7.5,0.4c-87.4,0-174.6,0-262,0c-4.5,0-8.9-0.2-13.1-1.9c-1.8-0.6-3-1.9-4.4-2.9
				c-4-3.1-7.4-6.8-8.3-12.1c-0.1-0.9-0.2-1.8-0.2-2.6c0-15.4,0-30.9,0-46.3c0-2.6,0-2.6-2.8-2.6c-38.9,0-77.9-0.1-116.8,0.1
				c-7.4,0-12.8-3-17.8-7.8c-4.4-4.1-4.8-9.4-5.2-14.8c-0.1-1.5-0.1-3-0.1-4.5c0-76.8,0-153.5,0-230.3c0-4.5,0.2-9,1.8-13.4
				c0.4-1,0.8-2,1.4-2.9c4.6-5.6,10.1-9.5,17.9-9.5c2.1,0,4.1-0.1,6.3-0.1C165.1,198.4,232.1,198.4,299.1,198.4z M503.5,541
				c6.2,1.6,16.4-8.4,15-14.7c0-31.1,0-62.3,0-93.4c0-1.6,0-3.1-0.1-4.7c0-0.8,0.1-1.6,0.1-2.4c0-66.8,0-133.6,0-200.4
				c0-3,0-5.8-1.5-8.8c-2.4-4.6-8.8-9.5-14-9.6c-1,0-2,0-3,0c-134.3,0-268.5,0-402.8,0c-2.6,0-5,0-7.6,1.2
				c-5.9,2.9-10.3,8.6-10.3,15.1c0,76.1,0,152.1,0,228.3c0,3.6-0.6,7.2,1.5,10.8c1.4,2.2,2.5,4.6,4.6,6.1c3.6,2.8,7.8,3.8,12.3,3.8
				c38.3,0,76.6,0,114.9,0c3.1,0,6.1,0.3,9.2-0.4c0.2,0.2,0.5,0.5,0.8,0.9c0,0.4,0,0.8,0,1.1c-0.6,0.5-0.4,1.2-0.4,1.9
				c0,7.9,0,15.8,0,23.6c0,6.8,0.1,13.6-0.1,20.4c-0.2,5.2-0.1,10.4,3.4,14.8c3,3.8,6.6,6.5,11.8,6.4c1,0,1.9,0.1,2.9,0.1
				c86.9,0,173.9,0,260.8,0C501.7,541.1,502.6,541.1,503.5,541z"/>
			<path fill="#6B6969" d="M221.8,472.1c-3.1,0.6-6.1,0.4-9.2,0.4c-38.3,0-76.6,0-114.9,0c-4.5,0-8.6-1.1-12.3-3.8
				c-2.1-1.6-3.3-4-4.6-6.1c-2.1-3.4-1.5-7.1-1.5-10.8c0-76.1,0-152.1,0-228.3c0-6.6,4.4-12.4,10.3-15.1c2.6-1.2,5.1-1.2,7.6-1.2
				c134.3,0,268.5,0,402.8,0c1,0,2,0,3,0c5.3,0,11.6,4.9,14,9.6c1.5,2.9,1.5,5.8,1.5,8.8c0,66.8,0,133.6,0,200.4
				c0,0.8-0.1,1.6-0.1,2.4c-0.6,0-0.9-0.4-1.1-1c-3.2-5.9-8.1-9.2-15.1-9.2c-87.8,0-175.4,0-263.1,0c-3.9,0-7.2,1-10.3,3.4
				c-4.1,3.4-6.9,7.4-6.7,13C221.9,446.8,221.8,459.4,221.8,472.1z"/>
			<path fill="#EE7C1F" d="M518.3,432.8c0,31.1,0,62.3,0,93.4c-0.5,0-0.6,0.4-0.9,0.8c-1.1,1.8-1.1,3.9-2.1,5.5
				c-2.1,3.2-4.9,5.8-8.9,6.8c-1.1,0.2-2.4,0.9-3.1,1.9c-0.9,0-1.8,0.1-2.6,0.1c-86.9,0-173.9,0-260.8,0c-1,0-1.9,0-2.9-0.1
				c-1.1-1.2-2.6-2-4.2-2.2c-1.9-0.2-3.4-1.4-4.5-2.8c-1.7-2-3.6-3.9-4.1-6.9c-0.5-2.2-1.2-4.6-1.2-7c0-15.2,0-30.6,0-45.9
				c0-0.8,0.4-1.6-0.5-2.2c0-0.4,0-0.8,0-1.1c0.8-0.6,0.4-1.5,0.4-2.2c0-12,0.1-24,0-36c0-2.8,1-5.4,2.1-7.4c2.9-5.3,7.9-8.1,14-8.1
				c85.4,0,170.8,0,256,0c4.2,0,8.4-0.2,12.5,1.4c4.1,1.5,8.2,5.8,8.7,10.1C516.5,431.8,516.8,432.9,518.3,432.8z"/>
			<path fill="#CD7A33" d="M518.3,432.8c-1.5,0-1.9-1-2-2.2c-0.5-4.4-4.6-8.6-8.7-10.1c-4.1-1.5-8.3-1.4-12.5-1.4
				c-85.4,0-170.8,0-256,0c-6.1,0-11.1,2.9-14,8.1c-1.1,2-2.1,4.6-2.1,7.4c0.1,12,0,24,0,36c0,0.8,0.4,1.6-0.4,2.2
				c-0.2-0.3-0.5-0.5-0.8-0.9c0-12.6,0.1-25.1,0-37.8c0-5.6,2.8-9.8,6.8-13c2.9-2.4,6.2-3.4,10.2-3.4c87.8,0.1,175.4,0.1,263.1,0
				c7,0,11.9,3.3,15.1,9.2c0.2,0.5,0.5,0.9,1.1,1C518.3,429.7,518.3,431.3,518.3,432.8z"/>
			<path fill="#CD7A33" d="M222.6,474.1c0.8,0.6,0.5,1.5,0.5,2.2c0,15.3,0,30.6,0,45.9c0,2.4,0.8,4.6,1.2,7c0.6,3,2.5,4.7,4.1,6.9
				c1.1,1.4,2.6,2.5,4.5,2.8c1.6,0.2,3.1,0.9,4.2,2.2c-5.1,0.1-8.8-2.6-11.8-6.4c-3.5-4.4-3.6-9.5-3.4-14.7
				c0.4-6.8,0.1-13.6,0.1-20.4c0-7.9,0-15.8,0-23.6C222.2,475.3,221.9,474.6,222.6,474.1z"/>
			<path fill="#CD7A33" d="M503.5,541c0.9-1,2-1.6,3.1-1.9c4-0.9,6.8-3.5,8.9-6.7c1-1.6,1-3.9,2.1-5.5c0.3-0.4,0.4-0.6,0.9-0.8
				C519.7,532.6,509.7,542.6,503.5,541z"/>
		</g>
	</g>
	<g id="OSC">
		<rect x="-83.8" y="253.9" fill="none" width="750" height="546.8"/>
		<g enable-background="new    ">
			<g>
				<path fill="#FEFEFE" d="M152.9,328.4c0-15.2,4.1-27.2,12.3-35.9c8.2-8.6,18.8-13,31.8-13c8.5,0,16.1,2,23,6.1
					c6.9,4,12,9.8,15.6,17c3.6,7.3,5.4,15.5,5.4,24.6c0,9.4-1.9,17.6-5.6,25s-9.1,12.9-16,16.8c-6.9,3.8-14.4,5.6-22.4,5.6
					c-8.6,0-16.4-2.1-23.3-6.2c-6.9-4.1-12-9.9-15.5-17.1S152.9,336.6,152.9,328.4z M165.4,328.7c0,11.1,3,19.8,8.9,26.1
					c6,6.4,13.4,9.6,22.4,9.6c9.1,0,16.8-3.3,22.6-9.6c5.9-6.4,8.9-15.6,8.9-27.4c0-7.5-1.2-14-3.8-19.6c-2.5-5.6-6.2-9.9-11.1-13
					c-4.9-3.1-10.4-4.6-16.4-4.6c-8.6,0-16,3-22.3,8.9C168.6,304.9,165.4,314.8,165.4,328.7z"/>
				<path fill="#FEFEFE" d="M252.3,343.7l11.5-1c0.5,4.6,1.8,8.4,3.8,11.4s5.1,5.4,9.2,7.1c4.1,1.9,8.9,2.8,14.1,2.8
					c4.6,0,8.8-0.8,12.2-2.1c3.5-1.4,6.2-3.2,7.9-5.6c1.8-2.4,2.6-5,2.6-7.9c0-2.9-0.9-5.4-2.5-7.5c-1.6-2.1-4.4-4-8.2-5.4
					c-2.5-1-7.9-2.5-16.4-4.5c-8.5-2-14.4-4-17.8-5.8c-4.4-2.2-7.6-5.1-9.9-8.5c-2.1-3.4-3.2-7.2-3.2-11.5c0-4.6,1.4-9,4-13
					c2.6-4,6.5-7.1,11.5-9.1c5-2.1,10.6-3.1,16.9-3.1c6.9,0,12.9,1.1,18,3.2c5.1,2.1,9.2,5.4,12,9.8c2.8,4.2,4.2,9.1,4.5,14.5
					l-11.6,0.9c-0.6-5.8-2.8-10.2-6.4-13.1c-3.6-3-9-4.5-16-4.5c-7.4,0-12.8,1.4-16.1,4c-3.4,2.8-5,6-5,9.8c0,3.3,1.2,6,3.6,8.1
					c2.4,2.1,8.5,4.4,18.4,6.5c9.9,2.2,16.6,4.2,20.4,5.9c5.4,2.5,9.2,5.6,11.9,9.4c2.5,3.8,3.9,8.1,3.9,13.1
					c0,4.9-1.4,9.5-4.2,13.9c-2.8,4.4-6.9,7.8-12.1,10.1c-5.3,2.4-11.1,3.6-17.8,3.6c-8.4,0-15.2-1.2-20.9-3.6
					c-5.6-2.4-10-6.1-13.2-11C254.2,355.4,252.4,349.8,252.3,343.7z"/>
				<path fill="#FEFEFE" d="M407.7,341.1l12.1,3.1c-2.5,10-7.1,17.6-13.8,22.9s-14.8,7.9-24.2,7.9c-9.9,0-18-2-24.1-6
					c-6.2-4-10.9-9.9-14.1-17.5c-3.2-7.6-4.9-15.9-4.9-24.6c0-9.6,1.9-17.9,5.5-25s8.9-12.5,15.6-16.2c6.8-3.8,14.1-5.5,22.2-5.5
					c9.2,0,16.9,2.4,23.3,7c6.2,4.6,10.6,11.2,13.1,19.8l-12,2.9c-2.1-6.8-5.3-11.5-9.2-14.6c-4-3.1-9.1-4.6-15.3-4.6
					c-7.1,0-13,1.8-17.8,5.1c-4.8,3.4-8.1,7.9-10,13.6s-2.9,11.6-2.9,17.6c0,7.9,1.1,14.6,3.4,20.5c2.2,5.9,5.9,10.2,10.6,13.1
					c4.8,2.9,10,4.4,15.6,4.4c6.9,0,12.6-2,17.2-5.9C402.8,354.6,406.1,348.8,407.7,341.1z"/>
			</g>
		</g>
	</g>
	<g id="UDP">
		<rect x="190.4" y="446.6" fill="none" width="358.8" height="186"/>
		<g enable-background="new    ">
			<path fill="#FEFEFE" d="M328.6,461.8h6.8v29.4c0,5.1-0.6,9.1-1.8,12.2c-1.1,3-3.2,5.5-6.2,7.4c-3,1.9-7,2.9-11.9,2.9
				c-4.7,0-8.6-0.9-11.8-2.5c-3-1.6-5.2-4-6.5-7.1s-2-7.4-2-12.8v-29.4h6.8v29.4c0,4.4,0.4,7.6,1.2,9.8c0.9,2.1,2.2,3.8,4.2,4.9
				c2,1.1,4.5,1.7,7.4,1.7c5,0,8.5-1.1,10.6-3.4c2.1-2.2,3.1-6.6,3.1-13L328.6,461.8L328.6,461.8z"/>
			<path fill="#FEFEFE" d="M346.5,512.8v-50.9H364c4,0,7,0.3,9.1,0.8c2.9,0.6,5.4,1.9,7.5,3.6c2.6,2.2,4.8,5.1,6,8.8
				c1.4,3.5,2,7.6,2,12.1c0,3.9-0.5,7.2-1.4,10.3c-0.9,3-2,5.5-3.5,7.4c-1.4,2-3,3.5-4.6,4.6c-1.6,1.1-3.8,2-6.1,2.5
				c-2.4,0.6-5.1,0.9-8.1,0.9L346.5,512.8L346.5,512.8z M353.2,506.8h10.9c3.4,0,6-0.3,7.9-1c1.9-0.6,3.4-1.5,4.6-2.6
				c1.6-1.6,2.9-3.8,3.8-6.5c0.9-2.8,1.4-6,1.4-9.7c0-5.4-0.9-9.4-2.6-12.2c-1.8-2.9-3.9-4.8-6.4-5.8c-1.8-0.8-4.8-1-8.8-1h-10.8
				V506.8z"/>
			<path fill="#FEFEFE" d="M397.8,512.8v-50.9h19.2c3.4,0,6,0.1,7.8,0.5c2.5,0.4,4.6,1.2,6.2,2.4c1.8,1.1,3,2.8,4.1,4.9
				c1,2.1,1.5,4.4,1.5,7c0,4.4-1.4,8-4.1,11c-2.8,3-7.8,4.5-14.9,4.5h-13V513h-6.9V512.8z M404.6,486.1h13.1c4.4,0,7.5-0.8,9.2-2.4
				c1.9-1.6,2.8-3.9,2.8-6.9c0-2.1-0.5-4-1.6-5.5c-1.1-1.5-2.5-2.5-4.2-3c-1.1-0.3-3.3-0.5-6.2-0.5h-13L404.6,486.1L404.6,486.1z"/>
		</g>
	</g>
</g>
</svg>
