<?xml version="1.0" encoding="utf-8"?>
<!-- Generator: Adobe Illustrator 18.1.1, SVG Export Plug-In . SVG Version: 6.00 Build 0)  -->
<!DOCTYPE svg PUBLIC "-//W3C//DTD SVG 1.1//EN" "http://www.w3.org/Graphics/SVG/1.1/DTD/svg11.dtd">
<svg version="1.1" id="Layer_1" xmlns="http://www.w3.org/2000/svg" xmlns:xlink="http://www.w3.org/1999/xlink" x="0px" y="0px"
	 viewBox="-44 46 700 700" enable-background="new -44 46 700 700" xml:space="preserve">
<g>
	<path fill="#231F20" d="M206.8,109.6c0-10.8-8.8-19.6-19.9-19.6c-10.8,0-19.6,8.8-19.6,19.6v72.6h39.4v-72.6H206.8z"/>
	<path fill="#231F20" d="M167.4,682.4c0,10.8,8.8,19.6,19.6,19.6s19.9-8.8,19.9-19.6v-72.6h-39.4v72.6H167.4z"/>
	<path fill="#231F20" d="M325.8,109.6c0-10.8-8.8-19.6-19.6-19.6c-10.8,0-19.6,8.8-19.6,19.6v72.6H326L325.8,109.6L325.8,109.6z"/>
	<path fill="#231F20" d="M286.5,682.4c0,10.8,8.8,19.6,19.6,19.6c10.8,0,19.6-8.8,19.6-19.6v-72.6h-39.4L286.5,682.4L286.5,682.4z"
		/>
	<path fill="#231F20" d="M444.9,109.6c0-10.8-8.8-19.6-19.6-19.6c-10.8,0-19.6,8.8-19.6,19.6v72.6h39.4L444.9,109.6L444.9,109.6z"/>
	<path fill="#231F20" d="M405.5,682.4c0,10.8,8.8,19.6,19.6,19.6c10.8,0,19.6-8.8,19.6-19.6v-72.6h-39.4L405.5,682.4L405.5,682.4z"
		/>
	<path fill="#231F20" d="M19.6,495.2C8.8,495.2,0,504,0,514.8c0,10.8,8.8,19.6,19.6,19.6h72.6V495L19.6,495.2L19.6,495.2z"/>
	<path fill="#231F20" d="M592.4,534.6c10.8,0,19.6-8.8,19.6-19.6c0-10.8-8.8-19.6-19.6-19.6h-72.3v39.4L592.4,534.6L592.4,534.6z"/>
	<path fill="#231F20" d="M19.6,376.2C8.8,376.2,0,385,0,395.8c0,10.8,8.8,19.9,19.6,19.9h72.6v-39.4H19.6V376.2z"/>
	<path fill="#231F20" d="M592.4,415.8c10.8,0,19.6-8.8,19.6-19.9c0-10.8-8.8-19.6-19.6-19.6h-72.3v39.4h72.3V415.8z"/>
	<path fill="#231F20" d="M19.6,257.1C8.8,257.1,0,265.9,0,276.7c0,10.8,8.8,19.6,19.6,19.6h72.6v-39.4L19.6,257.1L19.6,257.1z"/>
	<path fill="#231F20" d="M592.4,296.5c10.8,0,19.6-8.8,19.6-19.6c0-10.8-8.8-19.6-19.6-19.6h-72.3v39.4L592.4,296.5L592.4,296.5z"/>
	<path fill="#231F20" d="M417.4,548.5c22.7,0,41.4-18.4,41.4-41.4V284.3c0-23-18.4-41.4-41.4-41.4H194.6
		c-22.7,0-41.1,18.4-41.1,41.4v223c0,23,18.4,41.4,41.1,41.4h222.8V548.5z"/>
</g>
</svg>
