<?xml version="1.0" encoding="UTF-8"?>
<svg xmlns="http://www.w3.org/2000/svg" xmlns:xlink="http://www.w3.org/1999/xlink" width="1000pt" height="1000pt" viewBox="0 0 1000 1000">
<g id="surface1">
<path style=" stroke:none;fill-rule:nonzero;fill:rgb(0%,50.196078%,11.764706%);fill-opacity:1;" d="M 488.480469 611.277344 L 230.667969 611.277344 L 230.667969 333.765625 L 353.828125 333.765625 C 345.320312 300.90625 344.742188 267.117188 351.277344 235.273438 L 212.609375 235.273438 C 185.640625 235.273438 163.78125 257.132812 163.78125 284.101562 L 163.78125 853.40625 C 163.78125 880.375 185.640625 902.234375 212.609375 902.234375 L 506.535156 902.234375 C 533.5 902.234375 555.363281 880.375 555.363281 853.40625 L 555.363281 513.398438 C 535.058594 522.5625 511.394531 530.578125 488.480469 537.152344 Z M 291.203125 813.347656 L 230.667969 813.347656 L 230.667969 765.496094 L 291.203125 765.496094 Z M 291.203125 726.835938 L 230.667969 726.835938 L 230.667969 678.984375 L 291.203125 678.984375 Z M 389.84375 813.347656 L 329.300781 813.347656 L 329.300781 765.496094 L 389.84375 765.496094 Z M 389.84375 726.835938 L 329.300781 726.835938 L 329.300781 678.984375 L 389.84375 678.984375 Z M 488.476562 813.347656 L 427.9375 813.347656 L 427.9375 765.496094 L 488.476562 765.496094 Z M 488.476562 726.835938 L 427.9375 726.835938 L 427.9375 678.984375 L 488.476562 678.984375 Z M 620.828125 97.765625 C 507.0625 97.765625 405.441406 174.351562 405.441406 279.101562 C 405.441406 316.25 418.703125 352.730469 442.183594 381.03125 C 443.171875 414.203125 423.832031 461.777344 406.40625 496.4375 C 453.101562 487.917969 519.5 469.097656 549.609375 450.484375 C 715.390625 491.199219 836.21875 388.773438 836.21875 279.101562 C 836.222656 173.773438 733.890625 97.765625 620.828125 97.765625 Z M 545.023438 321.304688 C 538 326.886719 528.1875 329.675781 515.585938 329.675781 C 504.804688 329.675781 495.28125 327.609375 487.007812 323.46875 L 491.625 305.140625 C 499.949219 309.375 508.414062 311.492188 517.03125 311.492188 C 521.984375 311.492188 525.84375 310.554688 528.609375 308.675781 C 533.953125 305.054688 534.265625 297.742188 529.007812 293.59375 C 526.503906 291.621094 522.175781 289.601562 516.015625 287.53125 C 497.449219 281.375 488.164062 271.707031 488.164062 258.523438 C 488.164062 250.007812 491.578125 242.996094 498.410156 237.488281 C 505.242188 231.980469 514.332031 229.226562 525.6875 229.226562 C 535.597656 229.226562 544.257812 230.910156 551.667969 234.277344 L 546.613281 252.027344 C 539.828125 248.851562 532.757812 247.265625 525.402344 247.265625 C 520.878906 247.265625 517.339844 248.136719 514.792969 249.863281 C 509.726562 253.304688 509.8125 259.5 514.179688 263.179688 C 516.320312 264.984375 521.457031 267.324219 529.585938 270.214844 C 538.582031 273.390625 545.164062 277.324219 549.320312 282.011719 C 553.480469 286.703125 555.5625 292.539062 555.5625 299.511719 C 555.5625 308.460938 552.046875 315.726562 545.023438 321.304688 Z M 657.304688 328.085938 C 655.765625 289.507812 655 263.335938 655 249.582031 L 654.5625 249.582031 C 652.203125 259.921875 644.3125 285.5625 630.894531 326.5 L 613.433594 326.5 C 605.394531 298.265625 593.511719 249.582031 593.511719 249.582031 L 593.226562 249.582031 L 589.765625 328.085938 L 568.980469 328.085938 L 575.1875 230.816406 L 605.496094 230.816406 L 622.632812 297.921875 L 643.414062 230.8125 L 674.046875 230.8125 L 679.242188 328.085938 Z M 751.4375 321.71875 C 744.351562 327.351562 734.335938 330.203125 721.667969 330.203125 C 711.425781 330.203125 701.722656 328.375 692.480469 323.753906 L 697.359375 304.371094 C 705.507812 308.515625 713.804688 310.964844 723.113281 310.964844 C 727.9375 310.964844 731.734375 310.046875 734.398438 308.242188 C 739.5 304.78125 739.6875 297.890625 734.765625 294.007812 C 732.324219 292.085938 728.007812 290.074219 721.9375 288.035156 C 703.210938 281.828125 693.722656 271.898438 693.722656 258.523438 C 693.722656 249.882812 697.234375 242.671875 704.164062 237.078125 C 711.058594 231.519531 720.347656 228.703125 731.773438 228.703125 C 741.710938 228.703125 750.527344 230.417969 757.96875 233.796875 L 758.386719 233.988281 L 753.039062 252.769531 C 746.179688 249.558594 739.324219 247.796875 731.484375 247.796875 C 727.09375 247.796875 723.621094 248.640625 721.175781 250.304688 C 716.410156 253.539062 716.496094 259.3125 720.605469 262.773438 C 722.6875 264.53125 727.816406 266.867188 735.847656 269.71875 C 744.890625 272.910156 751.605469 276.929688 755.804688 281.660156 C 760.035156 286.433594 762.179688 292.4375 762.179688 299.515625 C 762.171875 308.585938 758.5625 316.058594 751.4375 321.71875 Z M 751.4375 321.71875 "/>
</g>
</svg>
