<?xml version="1.0" encoding="UTF-8"?>
<svg xmlns="http://www.w3.org/2000/svg" xmlns:xlink="http://www.w3.org/1999/xlink" width="1000pt" height="1703pt" viewBox="0 0 1000 1000">
<g id="surface1">
<path style=" stroke:none;fill-rule:nonzero;fill:rgb(100%,93.333333%,57.647059%);fill-opacity:1;" d="M 129.355469 500.550781 C 93.617188 405.289062 18.417969 305.304688 18.417969 211.1875 C 21.714844 -2.066406 309.289062 19.582031 496 19.582031 C 693.089844 19.582031 986.578125 -2.070312 986.578125 211.1875 C 986.578125 309.765625 912.503906 403 875.683594 500.425781 Z M 129.355469 500.550781 "/>
<path style=" stroke:none;fill-rule:nonzero;fill:rgb(68.627451%,68.627451%,68.627451%);fill-opacity:1;" d="M 310.234375 1308.046875 C 310.234375 1587.335938 310.816406 1594.628906 310.816406 1594.628906 C 310.816406 1656.214844 408.867188 1685.5625 496 1685.5625 C 592.421875 1685.5625 707.175781 1660.222656 707.175781 1588.136719 L 707.175781 1307.113281 Z M 310.234375 1308.046875 "/>
<path style=" stroke:none;fill-rule:nonzero;fill:rgb(88.627451%,88.627451%,88.627451%);fill-opacity:1;" d="M 128.878906 500.214844 C 872.867188 500.214844 876.117188 500.214844 876.117188 500.214844 C 758.074219 716.71875 789.480469 975.4375 765.65625 1237.402344 C 747.246094 1288.28125 741.832031 1293.695312 690.929688 1312.097656 C 567.476562 1311.015625 444.019531 1309.929688 320.5625 1308.847656 C 261 1305.601562 256.667969 1299.105469 239.339844 1240.652344 C 218.761719 987.34375 248.542969 707.398438 128.878906 500.214844 Z M 128.878906 500.214844 "/>
<path style=" stroke:none;fill-rule:nonzero;fill:rgb(40%,40%,40%);fill-opacity:1;" d="M 590.636719 1100.21875 L 590.636719 1082.835938 C 613.296875 1082.496094 614.210938 1082.195312 621.703125 1082.386719 C 633.214844 1082.675781 640.160156 1085.964844 645.152344 1091.019531 C 649.964844 1095.890625 653.78125 1103.316406 653.605469 1114.101562 C 653.5 1120.308594 649.664062 1143.144531 621.890625 1144.570312 C 618.632812 1144.859375 611.15625 1144.605469 606.40625 1144.714844 L 611.101562 1126.882812 C 622.105469 1127.796875 630.835938 1124.328125 631.300781 1113.914062 C 631.808594 1102.226562 621.445312 1098.515625 611.105469 1100.347656 L 590.636719 1100.21875 "/>
<path style=" stroke:none;fill-rule:nonzero;fill:rgb(40%,40%,40%);fill-opacity:1;" d="M 611.089844 1161.523438 L 590.636719 1161.519531 L 590.636719 1096.511719 L 611.089844 1096.644531 L 611.089844 1161.523438 "/>
<path style=" stroke:none;fill-rule:nonzero;fill:rgb(40%,40%,40%);fill-opacity:1;" d="M 684.609375 1110.550781 L 701.394531 1116.527344 C 712.570312 1120.9375 714.945312 1129.882812 714.839844 1137.589844 C 714.589844 1155.464844 700.324219 1162.164062 688.949219 1163.132812 C 676.015625 1164.230469 666.003906 1162.066406 662.640625 1161.519531 L 662.640625 1142.066406 C 672.875 1145.175781 684.789062 1145.050781 688.808594 1143.484375 C 691.851562 1142.296875 694.164062 1140.488281 693.980469 1138.109375 C 693.878906 1136.820312 693.75 1135.179688 689.90625 1133.535156 L 674.421875 1127.921875 C 664.480469 1124.34375 660.644531 1114.910156 661.058594 1106.503906 C 661.902344 1089.523438 675.472656 1080.929688 689.023438 1081.425781 C 693.203125 1081.578125 698.835938 1081.480469 707.023438 1082.613281 L 707.023438 1101.882812 C 697.847656 1099.75 693.546875 1099.785156 688.8125 1100.375 C 683.515625 1101.027344 681.136719 1103.765625 681.246094 1106.6875 C 681.300781 1108.171875 682.78125 1109.796875 684.609375 1110.523438 "/>
<path style=" stroke:none;fill-rule:nonzero;fill:rgb(40%,40%,40%);fill-opacity:1;" d="M 397.503906 1112.160156 L 419.527344 1112.160156 L 419.523438 1082.910156 L 439.976562 1082.910156 L 439.976562 1161.539062 L 419.527344 1161.539062 L 419.527344 1129.96875 L 397.503906 1129.96875 L 397.5 1161.539062 L 377.023438 1161.539062 L 377.023438 1082.910156 L 397.5 1082.910156 L 397.503906 1112.160156 "/>
<path style=" stroke:none;fill-rule:nonzero;fill:rgb(40%,40%,40%);fill-opacity:1;" d="M 459.246094 1082.910156 L 479.714844 1082.910156 L 479.714844 1161.539062 L 459.246094 1161.539062 Z M 459.246094 1082.910156 "/>
<path style=" stroke:none;fill-rule:nonzero;fill:rgb(40%,40%,40%);fill-opacity:1;" d="M 550.703125 1082.910156 L 571.175781 1082.910156 L 571.175781 1161.539062 L 550.703125 1161.539062 Z M 550.703125 1082.910156 "/>
<path style=" stroke:none;fill-rule:nonzero;fill:rgb(40%,40%,40%);fill-opacity:1;" d="M 519.449219 1143.683594 L 540.554688 1143.683594 L 540.554688 1161.53125 L 498.972656 1161.539062 L 498.972656 1082.910156 L 519.449219 1082.910156 L 519.449219 1143.683594 "/>
<path style=" stroke:none;fill-rule:nonzero;fill:rgb(40%,40%,40%);fill-opacity:1;" d="M 304.097656 1100.21875 L 304.097656 1082.835938 C 326.757812 1082.496094 327.671875 1082.195312 335.167969 1082.386719 C 346.675781 1082.675781 353.621094 1085.964844 358.617188 1091.019531 C 363.425781 1095.890625 367.246094 1103.316406 367.070312 1114.101562 C 366.960938 1120.308594 363.125 1143.144531 335.347656 1144.570312 C 332.097656 1144.859375 324.851562 1144.605469 320.101562 1144.714844 L 324.574219 1126.882812 C 335.578125 1127.796875 344.304688 1124.328125 344.757812 1113.914062 C 345.269531 1102.226562 334.898438 1098.515625 324.5625 1100.347656 L 304.097656 1100.21875 "/>
<path style=" stroke:none;fill-rule:nonzero;fill:rgb(40%,40%,40%);fill-opacity:1;" d="M 324.582031 1161.523438 L 304.097656 1161.519531 L 304.097656 1097.863281 L 324.5625 1097.992188 L 324.582031 1161.523438 "/>
</g>
</svg>
