<?xml version="1.0" encoding="utf-8"?>
<!-- Generator: Adobe Illustrator 18.1.1, SVG Export Plug-In . SVG Version: 6.00 Build 0)  -->
<!DOCTYPE svg PUBLIC "-//W3C//DTD SVG 1.1//EN" "http://www.w3.org/Graphics/SVG/1.1/DTD/svg11.dtd">
<svg version="1.1" id="Layer_1" xmlns="http://www.w3.org/2000/svg" xmlns:xlink="http://www.w3.org/1999/xlink" x="0px" y="0px"
	 viewBox="-257.8 331.8 130 130" enable-background="new -257.8 331.8 130 130" xml:space="preserve">
<path fill="#808184" d="M-167.8,409.1h5.6l3.7-3.7h16.6L-142,368c0-5.7-4.6-10.4-10.2-10.4h-86.5c-5.7,0-10.2,4.6-10.2,10.4v57.6
	c0,5.7,4.6,10.4,10.2,10.4h86.5c5.7,0,10.2-4.6,10.2-10.4v-1.8h-25.8V409.1z M-149,361.6c1,0,1.8,0.8,1.8,1.8c0,1-0.8,1.8-1.8,1.8
	c-1,0-1.8-0.8-1.8-1.8C-150.9,362.4-150.1,361.6-149,361.6z M-158.2,361.1c0.7,0,1.2,0.5,1.2,1.2c0,0.7-0.5,1.2-1.2,1.2
	c-0.7,0-1.2-0.5-1.2-1.2C-159.4,361.7-158.8,361.1-158.2,361.1z M-158.2,368.4c0.7,0,1.2,0.5,1.2,1.2c0,0.7-0.5,1.2-1.2,1.2
	c-0.7,0-1.2-0.5-1.2-1.2C-159.4,368.9-158.8,368.4-158.2,368.4z M-159.4,399.8c0.7,0,1.2,0.5,1.2,1.2s-0.5,1.2-1.2,1.2
	s-1.2-0.5-1.2-1.2S-160.1,399.8-159.4,399.8z M-165.4,361.1c0.7,0,1.2,0.5,1.2,1.2c0,0.7-0.5,1.2-1.2,1.2c-0.7,0-1.2-0.5-1.2-1.2
	C-166.6,361.7-166.1,361.1-165.4,361.1z M-165.4,368.4c0.7,0,1.2,0.5,1.2,1.2c0,0.7-0.5,1.2-1.2,1.2c-0.7,0-1.2-0.5-1.2-1.2
	C-166.6,368.9-166.1,368.4-165.4,368.4z M-165.4,375.6c0.7,0,1.2,0.5,1.2,1.2c0,0.7-0.5,1.2-1.2,1.2c-0.7,0-1.2-0.5-1.2-1.2
	C-166.6,376.2-166.1,375.6-165.4,375.6z M-151.6,427.6c1,0,1.8,0.8,1.8,1.8c0,1-0.8,1.8-1.8,1.8c-1,0-1.8-0.8-1.8-1.8
	C-153.4,428.4-152.6,427.6-151.6,427.6z M-163.4,431.3c0.7,0,1.2,0.5,1.2,1.2c0,0.7-0.5,1.2-1.2,1.2s-1.2-0.5-1.2-1.2
	C-164.6,431.8-164.1,431.3-163.4,431.3z M-244.6,423.6c-0.7,0-1.2-0.5-1.2-1.2c0-0.7,0.5-1.2,1.2-1.2c0.7,0,1.2,0.5,1.2,1.2
	C-243.4,423.1-244,423.6-244.6,423.6z M-244.6,416.4c-0.7,0-1.2-0.5-1.2-1.2c0-0.7,0.5-1.2,1.2-1.2c0.7,0,1.2,0.5,1.2,1.2
	C-243.4,415.9-244,416.4-244.6,416.4z M-244.6,409.1c-0.7,0-1.2-0.5-1.2-1.2c0-0.7,0.5-1.2,1.2-1.2c0.7,0,1.2,0.5,1.2,1.2
	C-243.4,408.6-244,409.1-244.6,409.1z M-244.6,401.9c-0.7,0-1.2-0.5-1.2-1.2c0-0.7,0.5-1.2,1.2-1.2c0.7,0,1.2,0.5,1.2,1.2
	C-243.4,401.4-244,401.9-244.6,401.9z M-244.6,394.6c-0.7,0-1.2-0.5-1.2-1.2c0-0.7,0.5-1.2,1.2-1.2c0.7,0,1.2,0.5,1.2,1.2
	C-243.4,394.1-244,394.6-244.6,394.6z M-244.6,387.4c-0.7,0-1.2-0.5-1.2-1.2c0-0.7,0.5-1.2,1.2-1.2c0.7,0,1.2,0.5,1.2,1.2
	C-243.4,386.8-244,387.4-244.6,387.4z M-244.6,380.1c-0.7,0-1.2-0.5-1.2-1.2c0-0.7,0.5-1.2,1.2-1.2c0.7,0,1.2,0.5,1.2,1.2
	C-243.4,379.6-244,380.1-244.6,380.1z M-244.6,372.9c-0.7,0-1.2-0.5-1.2-1.2c0-0.7,0.5-1.2,1.2-1.2c0.7,0,1.2,0.5,1.2,1.2
	C-243.4,372.3-244,372.9-244.6,372.9z M-240,431.2c-1,0-1.8-0.8-1.8-1.8c0-1,0.8-1.8,1.8-1.8c1,0,1.8,0.8,1.8,1.8
	C-238.2,430.4-239,431.2-240,431.2z M-240,366.4c-1,0-1.8-0.8-1.8-1.8c0-1,0.8-1.8,1.8-1.8c1,0,1.8,0.8,1.8,1.8
	C-238.1,365.5-238.9,366.4-240,366.4z M-230.7,363.6c-0.7,0-1.2-0.5-1.2-1.2c0-0.7,0.5-1.2,1.2-1.2c0.7,0,1.2,0.5,1.2,1.2
	C-229.4,363-230,363.6-230.7,363.6z M-227.4,433.7c-0.7,0-1.2-0.5-1.2-1.2c0-0.7,0.5-1.2,1.2-1.2c0.7,0,1.2,0.5,1.2,1.2
	C-226.2,433.2-226.7,433.7-227.4,433.7z M-223.4,363.6c-0.7,0-1.2-0.5-1.2-1.2c0-0.7,0.5-1.2,1.2-1.2c0.7,0,1.2,0.5,1.2,1.2
	C-222.2,363-222.7,363.6-223.4,363.6z M-220.1,433.7c-0.7,0-1.2-0.5-1.2-1.2c0-0.7,0.5-1.2,1.2-1.2c0.7,0,1.2,0.5,1.2,1.2
	C-218.9,433.2-219.5,433.7-220.1,433.7z M-216.2,363.6c-0.7,0-1.2-0.5-1.2-1.2c0-0.7,0.5-1.2,1.2-1.2c0.7,0,1.2,0.5,1.2,1.2
	C-214.9,363-215.5,363.6-216.2,363.6z M-212.9,433.7c-0.7,0-1.2-0.5-1.2-1.2c0-0.7,0.5-1.2,1.2-1.2c0.7,0,1.2,0.5,1.2,1.2
	C-211.7,433.2-212.2,433.7-212.9,433.7z M-208.9,363.6c-0.7,0-1.2-0.5-1.2-1.2c0-0.7,0.5-1.2,1.2-1.2c0.7,0,1.2,0.5,1.2,1.2
	C-207.7,363-208.2,363.6-208.9,363.6z M-205.6,433.7c-0.7,0-1.2-0.5-1.2-1.2c0-0.7,0.5-1.2,1.2-1.2c0.7,0,1.2,0.5,1.2,1.2
	C-204.4,433.2-205,433.7-205.6,433.7z M-201.7,363.6c-0.7,0-1.2-0.5-1.2-1.2c0-0.7,0.5-1.2,1.2-1.2c0.7,0,1.2,0.5,1.2,1.2
	C-200.5,363-201,363.6-201.7,363.6z M-198.4,433.7c-0.7,0-1.2-0.5-1.2-1.2c0-0.7,0.5-1.2,1.2-1.2c0.7,0,1.2,0.5,1.2,1.2
	C-197.2,433.2-197.7,433.7-198.4,433.7z M-194.4,363.6c-0.7,0-1.2-0.5-1.2-1.2c0-0.7,0.5-1.2,1.2-1.2c0.7,0,1.2,0.5,1.2,1.2
	C-193.2,363-193.7,363.6-194.4,363.6z M-191.1,433.7c-0.7,0-1.2-0.5-1.2-1.2c0-0.7,0.5-1.2,1.2-1.2c0.7,0,1.2,0.5,1.2,1.2
	C-189.9,433.2-190.5,433.7-191.1,433.7z M-187.2,363.6c-0.7,0-1.2-0.5-1.2-1.2c0-0.7,0.5-1.2,1.2-1.2c0.7,0,1.2,0.5,1.2,1.2
	C-186,363-186.5,363.6-187.2,363.6z M-183.9,433.7c-0.7,0-1.2-0.5-1.2-1.2c0-0.7,0.5-1.2,1.2-1.2c0.7,0,1.2,0.5,1.2,1.2
	C-182.7,433.2-183.2,433.7-183.9,433.7z M-179.9,363.6c-0.7,0-1.2-0.5-1.2-1.2c0-0.7,0.5-1.2,1.2-1.2c0.7,0,1.2,0.5,1.2,1.2
	C-178.7,363-179.2,363.6-179.9,363.6z M-176.6,433.7c-0.7,0-1.2-0.5-1.2-1.2c0-0.7,0.5-1.2,1.2-1.2s1.2,0.5,1.2,1.2
	C-175.4,433.2-176,433.7-176.6,433.7z M-172.7,378c-0.7,0-1.2-0.5-1.2-1.2c0-0.7,0.5-1.2,1.2-1.2c0.7,0,1.2,0.5,1.2,1.2
	C-171.5,377.5-172,378-172.7,378z M-172.7,370.8c-0.7,0-1.2-0.5-1.2-1.2c0-0.7,0.5-1.2,1.2-1.2c0.7,0,1.2,0.5,1.2,1.2
	C-171.5,370.2-172,370.8-172.7,370.8z M-172.7,363.6c-0.7,0-1.2-0.5-1.2-1.2c0-0.7,0.5-1.2,1.2-1.2c0.7,0,1.2,0.5,1.2,1.2
	C-171.5,363-172,363.6-172.7,363.6z"/>
<path fill="#FFFFFF" d="M-168.1,408.8h5.5l3.7-3.7h16.5l-0.1-37.1c0-5.7-4.6-10.3-10.2-10.3h-85.9c-5.6,0-10.2,4.6-10.2,10.3v57.2
	c0,5.7,4.6,10.3,10.2,10.3h85.9c5.6,0,10.2-4.6,10.2-10.3v-1.8h-25.6V408.8z M-149.4,361.7c1,0,1.8,0.8,1.8,1.8c0,1-0.8,1.8-1.8,1.8
	c-1,0-1.8-0.8-1.8-1.8C-151.3,362.5-150.4,361.7-149.4,361.7z M-158.5,361.2c0.7,0,1.2,0.5,1.2,1.2c0,0.7-0.5,1.2-1.2,1.2
	c-0.7,0-1.2-0.5-1.2-1.2C-159.7,361.8-159.2,361.2-158.5,361.2z M-158.5,368.4c0.7,0,1.2,0.5,1.2,1.2c0,0.7-0.5,1.2-1.2,1.2
	c-0.7,0-1.2-0.5-1.2-1.2C-159.7,368.9-159.2,368.4-158.5,368.4z M-159.8,399.6c0.7,0,1.2,0.5,1.2,1.2c0,0.7-0.5,1.2-1.2,1.2
	c-0.7,0-1.2-0.5-1.2-1.2C-161,400.1-160.4,399.6-159.8,399.6z M-165.7,361.2c0.7,0,1.2,0.5,1.2,1.2c0,0.7-0.5,1.2-1.2,1.2
	c-0.7,0-1.2-0.5-1.2-1.2C-166.9,361.8-166.4,361.2-165.7,361.2z M-165.7,368.4c0.7,0,1.2,0.5,1.2,1.2c0,0.7-0.5,1.2-1.2,1.2
	c-0.7,0-1.2-0.5-1.2-1.2C-166.9,368.9-166.4,368.4-165.7,368.4z M-165.7,375.6c0.7,0,1.2,0.5,1.2,1.2c0,0.7-0.5,1.2-1.2,1.2
	c-0.7,0-1.2-0.5-1.2-1.2C-166.9,376.1-166.4,375.6-165.7,375.6z M-152,427.2c1,0,1.8,0.8,1.8,1.8c0,1-0.8,1.8-1.8,1.8
	c-1,0-1.8-0.8-1.8-1.8C-153.8,428-153,427.2-152,427.2z M-163.7,430.9c0.7,0,1.2,0.5,1.2,1.2c0,0.7-0.5,1.2-1.2,1.2
	c-0.7,0-1.2-0.5-1.2-1.2C-164.9,431.4-164.4,430.9-163.7,430.9z M-244.4,423.3c-0.7,0-1.2-0.5-1.2-1.2c0-0.7,0.5-1.2,1.2-1.2
	c0.7,0,1.2,0.5,1.2,1.2C-243.2,422.7-243.7,423.3-244.4,423.3z M-244.4,416.1c-0.7,0-1.2-0.5-1.2-1.2c0-0.7,0.5-1.2,1.2-1.2
	c0.7,0,1.2,0.5,1.2,1.2C-243.2,415.5-243.7,416.1-244.4,416.1z M-244.4,408.9c-0.7,0-1.2-0.5-1.2-1.2c0-0.7,0.5-1.2,1.2-1.2
	c0.7,0,1.2,0.5,1.2,1.2C-243.2,408.3-243.7,408.9-244.4,408.9z M-244.4,401.7c-0.7,0-1.2-0.5-1.2-1.2c0-0.7,0.5-1.2,1.2-1.2
	c0.7,0,1.2,0.5,1.2,1.2C-243.2,401.1-243.7,401.7-244.4,401.7z M-244.4,394.5c-0.7,0-1.2-0.5-1.2-1.2c0-0.7,0.5-1.2,1.2-1.2
	c0.7,0,1.2,0.5,1.2,1.2C-243.2,393.9-243.7,394.5-244.4,394.5z M-244.4,387.3c-0.7,0-1.2-0.5-1.2-1.2c0-0.7,0.5-1.2,1.2-1.2
	c0.7,0,1.2,0.5,1.2,1.2C-243.2,386.7-243.7,387.3-244.4,387.3z M-244.4,380.1c-0.7,0-1.2-0.5-1.2-1.2c0-0.7,0.5-1.2,1.2-1.2
	c0.7,0,1.2,0.5,1.2,1.2C-243.2,379.5-243.7,380.1-244.4,380.1z M-244.4,372.9c-0.7,0-1.2-0.5-1.2-1.2c0-0.7,0.5-1.2,1.2-1.2
	c0.7,0,1.2,0.5,1.2,1.2C-243.2,372.3-243.7,372.9-244.4,372.9z M-239.8,430.8c-1,0-1.8-0.8-1.8-1.8c0-1,0.8-1.8,1.8-1.8
	c1,0,1.8,0.8,1.8,1.8C-238,430-238.8,430.8-239.8,430.8z M-239.7,366.4c-1,0-1.8-0.8-1.8-1.8c0-1,0.8-1.8,1.8-1.8
	c1,0,1.8,0.8,1.8,1.8C-237.9,365.6-238.7,366.4-239.7,366.4z M-230.5,363.6c-0.7,0-1.2-0.5-1.2-1.2c0-0.7,0.5-1.2,1.2-1.2
	c0.7,0,1.2,0.5,1.2,1.2C-229.3,363.1-229.8,363.6-230.5,363.6z M-227.3,433.3c-0.7,0-1.2-0.5-1.2-1.2c0-0.7,0.5-1.2,1.2-1.2
	c0.7,0,1.2,0.5,1.2,1.2C-226.1,432.7-226.6,433.3-227.3,433.3z M-223.3,363.6c-0.7,0-1.2-0.5-1.2-1.2c0-0.7,0.5-1.2,1.2-1.2
	c0.7,0,1.2,0.5,1.2,1.2C-222.1,363.1-222.6,363.6-223.3,363.6z M-220.1,433.3c-0.7,0-1.2-0.5-1.2-1.2c0-0.7,0.5-1.2,1.2-1.2
	c0.7,0,1.2,0.5,1.2,1.2C-218.9,432.7-219.4,433.3-220.1,433.3z M-216.1,363.6c-0.7,0-1.2-0.5-1.2-1.2c0-0.7,0.5-1.2,1.2-1.2
	c0.7,0,1.2,0.5,1.2,1.2C-214.9,363.1-215.4,363.6-216.1,363.6z M-212.9,433.3c-0.7,0-1.2-0.5-1.2-1.2c0-0.7,0.5-1.2,1.2-1.2
	c0.7,0,1.2,0.5,1.2,1.2C-211.7,432.7-212.2,433.3-212.9,433.3z M-208.9,363.6c-0.7,0-1.2-0.5-1.2-1.2c0-0.7,0.5-1.2,1.2-1.2
	c0.7,0,1.2,0.5,1.2,1.2C-207.7,363.1-208.2,363.6-208.9,363.6z M-205.7,433.3c-0.7,0-1.2-0.5-1.2-1.2c0-0.7,0.5-1.2,1.2-1.2
	c0.7,0,1.2,0.5,1.2,1.2C-204.5,432.7-205,433.3-205.7,433.3z M-201.7,363.6c-0.7,0-1.2-0.5-1.2-1.2c0-0.7,0.5-1.2,1.2-1.2
	c0.7,0,1.2,0.5,1.2,1.2C-200.5,363.1-201,363.6-201.7,363.6z M-198.5,433.3c-0.7,0-1.2-0.5-1.2-1.2c0-0.7,0.5-1.2,1.2-1.2
	c0.7,0,1.2,0.5,1.2,1.2C-197.3,432.7-197.8,433.3-198.5,433.3z M-194.5,363.6c-0.7,0-1.2-0.5-1.2-1.2c0-0.7,0.5-1.2,1.2-1.2
	c0.7,0,1.2,0.5,1.2,1.2C-193.3,363.1-193.8,363.6-194.5,363.6z M-191.3,433.3c-0.7,0-1.2-0.5-1.2-1.2c0-0.7,0.5-1.2,1.2-1.2
	c0.7,0,1.2,0.5,1.2,1.2C-190.1,432.7-190.6,433.3-191.3,433.3z M-187.3,363.6c-0.7,0-1.2-0.5-1.2-1.2c0-0.7,0.5-1.2,1.2-1.2
	s1.2,0.5,1.2,1.2C-186.1,363.1-186.6,363.6-187.3,363.6z M-184.1,433.3c-0.7,0-1.2-0.5-1.2-1.2c0-0.7,0.5-1.2,1.2-1.2
	c0.7,0,1.2,0.5,1.2,1.2C-182.9,432.7-183.4,433.3-184.1,433.3z M-180.1,363.6c-0.7,0-1.2-0.5-1.2-1.2c0-0.7,0.5-1.2,1.2-1.2
	c0.7,0,1.2,0.5,1.2,1.2C-178.9,363.1-179.4,363.6-180.1,363.6z M-176.9,433.3c-0.7,0-1.2-0.5-1.2-1.2c0-0.7,0.5-1.2,1.2-1.2
	c0.7,0,1.2,0.5,1.2,1.2C-175.7,432.7-176.2,433.3-176.9,433.3z M-172.9,378c-0.7,0-1.2-0.5-1.2-1.2c0-0.7,0.5-1.2,1.2-1.2
	c0.7,0,1.2,0.5,1.2,1.2C-171.7,377.5-172.2,378-172.9,378z M-172.9,370.8c-0.7,0-1.2-0.5-1.2-1.2c0-0.7,0.5-1.2,1.2-1.2
	c0.7,0,1.2,0.5,1.2,1.2C-171.7,370.2-172.2,370.8-172.9,370.8z M-172.9,363.6c-0.7,0-1.2-0.5-1.2-1.2c0-0.7,0.5-1.2,1.2-1.2
	c0.7,0,1.2,0.5,1.2,1.2C-171.7,363.1-172.2,363.6-172.9,363.6z"/>
<g id="tactile_switch_smd_3_" transform="matrix(1, 0, 0, 1, 17.021, 74.628)">
	<g transform="matrix(-1, 0, 0, -1, 16.392, 16.392)">
		<polygon fill="#6D6D6D" points="200.4,-298.9 201.9,-297.3 208.6,-297.3 210.2,-298.9 210.2,-305.5 208.6,-307.1 201.9,-307.1 
			200.4,-305.5 		"/>
		<rect x="201.9" y="-307.9" fill="#6D6D6D" width="6.6" height="11.4"/>
		<rect x="199.6" y="-305.5" fill="#6D6D6D" width="11.4" height="6.6"/>
		<polygon fill="#807F7F" points="200.8,-299.2 202.3,-297.8 208.3,-297.8 209.7,-299.2 209.7,-305.2 208.3,-306.6 202.3,-306.6 
			200.8,-305.2 		"/>
		
			<polyline opacity="0.2" fill="none" stroke="#FFFFFF" stroke-width="0.2369" stroke-miterlimit="10" enable-background="new    " points="
			202.4,-306.4 201.1,-305 201.1,-299.4 202.4,-298 208.1,-298 		"/>
		
			<polyline opacity="0.2" fill="none" stroke="#616161" stroke-width="0.2369" stroke-miterlimit="10" enable-background="new    " points="
			208.1,-298 209.5,-299.4 209.5,-305 208.1,-306.4 202.4,-306.4 		"/>
		<g>
			<path fill="#BCA069" d="M205.3-299.6c-1.4,0-2.6-1.2-2.6-2.6c0-1.4,1.2-2.6,2.6-2.6c1.4,0,2.6,1.2,2.6,2.6
				C207.9-300.8,206.7-299.6,205.3-299.6z"/>
			<path fill="#616161" d="M205.3-304.6c1.3,0,2.4,1.1,2.4,2.4c0,1.3-1.1,2.4-2.4,2.4c-1.3,0-2.4-1.1-2.4-2.4
				C202.8-303.5,203.9-304.6,205.3-304.6 M205.3-305c-1.5,0-2.8,1.2-2.8,2.8s1.2,2.8,2.8,2.8c1.5,0,2.8-1.2,2.8-2.8
				C208-303.7,206.8-305,205.3-305L205.3-305z"/>
		</g>
		
			<path opacity="0.2" fill="#BCA069" stroke="#FFFFFF" stroke-width="0.5304" stroke-miterlimit="10" enable-background="new    " d="
			M206.8-300.7c-0.8,0.8-2.2,0.8-3.1,0c-0.8-0.8-0.8-2.2,0-3.1"/>
		
			<path opacity="0.2" fill="#BCA069" stroke="#616161" stroke-width="0.5304" stroke-miterlimit="10" enable-background="new    " d="
			M203.7-303.7c0.8-0.8,2.2-0.8,3.1,0c0.8,0.8,0.8,2.2,0,3.1"/>
	</g>
</g>
<g id="g76790_6_" transform="translate(-0.66285313,-2.715548)">
	<rect id="rect76764_6_" x="-233.7" y="405.4" fill="#8C8C8C" width="12.6" height="5"/>
	<rect id="rect73146_6_" x="-229.7" y="405.8" fill="#D81F26" width="4.6" height="4.2"/>
</g>
<g id="g76790_5_" transform="translate(-0.66285313,-2.715548)">
	<rect id="rect76764_5_" x="-189.3" y="370.9" fill="#8C8C8C" width="12.6" height="5"/>
	<rect id="rect73146_5_" x="-185.2" y="371.3" fill="#D81F26" width="4.6" height="4.2"/>
</g>
<g>
	<rect id="rect76764-8_3_" x="-155.9" y="398.7" fill="#8C8C8C" width="12.6" height="5"/>
	<rect id="rect73146-5_3_" x="-151.9" y="399.2" fill="#FFFFFF" width="4.6" height="4.2"/>
</g>
<path fill="#99906C" d="M-176.9,429.7c-1.3,0-2.4,1.1-2.4,2.4c0,1.3,1.1,2.4,2.4,2.4c1.3,0,2.4-1.1,2.4-2.4
	S-175.5,429.7-176.9,429.7z M-176.9,433.3c-0.7,0-1.2-0.5-1.2-1.2c0-0.7,0.5-1.2,1.2-1.2c0.7,0,1.2,0.5,1.2,1.2
	C-175.7,432.7-176.2,433.3-176.9,433.3z"/>
<path fill="#99906C" d="M-163.7,429.7c-1.3,0-2.4,1.1-2.4,2.4c0,1.3,1.1,2.4,2.4,2.4c1.3,0,2.4-1.1,2.4-2.4
	S-162.4,429.7-163.7,429.7z M-163.7,433.3c-0.7,0-1.2-0.5-1.2-1.2c0-0.7,0.5-1.2,1.2-1.2c0.7,0,1.2,0.5,1.2,1.2
	C-162.5,432.7-163.1,433.3-163.7,433.3z"/>
<path fill="#99906C" d="M-184.1,429.7c-1.3,0-2.4,1.1-2.4,2.4c0,1.3,1.1,2.4,2.4,2.4s2.4-1.1,2.4-2.4S-182.7,429.7-184.1,429.7z
	 M-184.1,433.3c-0.7,0-1.2-0.5-1.2-1.2c0-0.7,0.5-1.2,1.2-1.2s1.2,0.5,1.2,1.2C-182.9,432.7-183.4,433.3-184.1,433.3z"/>
<path fill="#99906C" d="M-227.3,429.7c-1.3,0-2.4,1.1-2.4,2.4c0,1.3,1.1,2.4,2.4,2.4c1.3,0,2.4-1.1,2.4-2.4
	S-225.9,429.7-227.3,429.7z M-227.3,433.3c-0.7,0-1.2-0.5-1.2-1.2c0-0.7,0.5-1.2,1.2-1.2c0.7,0,1.2,0.5,1.2,1.2
	C-226.1,432.7-226.6,433.3-227.3,433.3z"/>
<path fill="#99906C" d="M-220.1,429.7c-1.3,0-2.4,1.1-2.4,2.4c0,1.3,1.1,2.4,2.4,2.4s2.4-1.1,2.4-2.4S-218.7,429.7-220.1,429.7z
	 M-220.1,433.3c-0.7,0-1.2-0.5-1.2-1.2c0-0.7,0.5-1.2,1.2-1.2c0.7,0,1.2,0.5,1.2,1.2C-218.9,432.7-219.4,433.3-220.1,433.3z"/>
<path fill="#99906C" d="M-212.9,429.7c-1.3,0-2.4,1.1-2.4,2.4c0,1.3,1.1,2.4,2.4,2.4c1.3,0,2.4-1.1,2.4-2.4
	S-211.5,429.7-212.9,429.7z M-212.9,433.3c-0.7,0-1.2-0.5-1.2-1.2c0-0.7,0.5-1.2,1.2-1.2c0.7,0,1.2,0.5,1.2,1.2
	C-211.7,432.7-212.2,433.3-212.9,433.3z"/>
<path fill="#99906C" d="M-205.7,429.7c-1.3,0-2.4,1.1-2.4,2.4c0,1.3,1.1,2.4,2.4,2.4c1.3,0,2.4-1.1,2.4-2.4
	S-204.3,429.7-205.7,429.7z M-205.7,433.3c-0.7,0-1.2-0.5-1.2-1.2c0-0.7,0.5-1.2,1.2-1.2c0.7,0,1.2,0.5,1.2,1.2
	C-204.5,432.7-205,433.3-205.7,433.3z"/>
<path fill="#99906C" d="M-198.5,429.7c-1.3,0-2.4,1.1-2.4,2.4c0,1.3,1.1,2.4,2.4,2.4c1.3,0,2.4-1.1,2.4-2.4
	S-197.1,429.7-198.5,429.7z M-198.5,433.3c-0.7,0-1.2-0.5-1.2-1.2c0-0.7,0.5-1.2,1.2-1.2s1.2,0.5,1.2,1.2
	C-197.3,432.7-197.8,433.3-198.5,433.3z"/>
<path fill="#99906C" d="M-191.3,429.7c-1.3,0-2.4,1.1-2.4,2.4c0,1.3,1.1,2.4,2.4,2.4c1.3,0,2.4-1.1,2.4-2.4
	S-189.9,429.7-191.3,429.7z M-191.3,433.3c-0.7,0-1.2-0.5-1.2-1.2c0-0.7,0.5-1.2,1.2-1.2c0.7,0,1.2,0.5,1.2,1.2
	C-190.1,432.7-190.6,433.3-191.3,433.3z"/>
<path fill="#99906C" d="M-239.8,425.4c-2,0-3.6,1.6-3.6,3.6c0,2,1.6,3.6,3.6,3.6c2,0,3.6-1.6,3.6-3.6
	C-236.2,427-237.8,425.4-239.8,425.4z M-239.8,430.8c-1,0-1.8-0.8-1.8-1.8c0-1,0.8-1.8,1.8-1.8c1,0,1.8,0.8,1.8,1.8
	C-238,430-238.8,430.8-239.8,430.8z"/>
<path fill="#99906C" d="M-239.7,361c-2,0-3.6,1.6-3.6,3.6c0,2,1.6,3.6,3.6,3.6c2,0,3.6-1.6,3.6-3.6S-237.7,361-239.7,361z
	 M-239.7,366.4c-1,0-1.8-0.8-1.8-1.8c0-1,0.8-1.8,1.8-1.8c1,0,1.8,0.8,1.8,1.8C-237.9,365.6-238.7,366.4-239.7,366.4z"/>
<path fill="#99906C" d="M-152,425.4c-2,0-3.6,1.6-3.6,3.6c0,2,1.6,3.6,3.6,3.6c2,0,3.6-1.6,3.6-3.6C-148.3,427-150,425.4-152,425.4z
	 M-152,430.8c-1,0-1.8-0.8-1.8-1.8c0-1,0.8-1.8,1.8-1.8s1.8,0.8,1.8,1.8C-150.1,430-151,430.8-152,430.8z"/>
<path fill="#99906C" d="M-149.4,359.9c-2,0-3.6,1.6-3.6,3.6c0,2,1.6,3.6,3.6,3.6c2,0,3.6-1.6,3.6-3.6S-147.4,359.9-149.4,359.9z
	 M-149.4,365.3c-1,0-1.8-0.8-1.8-1.8c0-1,0.8-1.8,1.8-1.8c1,0,1.8,0.8,1.8,1.8C-147.6,364.5-148.4,365.3-149.4,365.3z"/>
<path fill="#99906C" d="M-158.5,360c-1.3,0-2.4,1.1-2.4,2.4c0,1.3,1.1,2.4,2.4,2.4c1.3,0,2.4-1.1,2.4-2.4
	C-156.1,361.1-157.2,360-158.5,360z M-158.5,363.6c-0.7,0-1.2-0.5-1.2-1.2c0-0.7,0.5-1.2,1.2-1.2c0.7,0,1.2,0.5,1.2,1.2
	C-157.3,363.1-157.8,363.6-158.5,363.6z"/>
<path fill="#99906C" d="M-165.7,360c-1.3,0-2.4,1.1-2.4,2.4c0,1.3,1.1,2.4,2.4,2.4s2.4-1.1,2.4-2.4
	C-163.3,361.1-164.4,360-165.7,360z M-165.7,363.6c-0.7,0-1.2-0.5-1.2-1.2c0-0.7,0.5-1.2,1.2-1.2c0.7,0,1.2,0.5,1.2,1.2
	C-164.5,363.1-165,363.6-165.7,363.6z"/>
<path fill="#99906C" d="M-172.9,360c-1.3,0-2.4,1.1-2.4,2.4c0,1.3,1.1,2.4,2.4,2.4c1.3,0,2.4-1.1,2.4-2.4
	C-170.5,361.1-171.6,360-172.9,360z M-172.9,363.6c-0.7,0-1.2-0.5-1.2-1.2c0-0.7,0.5-1.2,1.2-1.2s1.2,0.5,1.2,1.2
	C-171.7,363.1-172.2,363.6-172.9,363.6z"/>
<path fill="#99906C" d="M-158.5,367.2c-1.3,0-2.4,1.1-2.4,2.4c0,1.3,1.1,2.4,2.4,2.4c1.3,0,2.4-1.1,2.4-2.4
	S-157.2,367.2-158.5,367.2z M-158.5,370.8c-0.7,0-1.2-0.5-1.2-1.2c0-0.7,0.5-1.2,1.2-1.2c0.7,0,1.2,0.5,1.2,1.2
	C-157.3,370.2-157.8,370.8-158.5,370.8z"/>
<path fill="#99906C" d="M-165.7,367.2c-1.3,0-2.4,1.1-2.4,2.4c0,1.3,1.1,2.4,2.4,2.4s2.4-1.1,2.4-2.4S-164.4,367.2-165.7,367.2z
	 M-165.7,370.8c-0.7,0-1.2-0.5-1.2-1.2c0-0.7,0.5-1.2,1.2-1.2c0.7,0,1.2,0.5,1.2,1.2C-164.5,370.2-165,370.8-165.7,370.8z"/>
<path fill="#99906C" d="M-172.9,367.2c-1.3,0-2.4,1.1-2.4,2.4c0,1.3,1.1,2.4,2.4,2.4c1.3,0,2.4-1.1,2.4-2.4
	S-171.6,367.2-172.9,367.2z M-172.9,370.8c-0.7,0-1.2-0.5-1.2-1.2c0-0.7,0.5-1.2,1.2-1.2s1.2,0.5,1.2,1.2
	C-171.7,370.2-172.2,370.8-172.9,370.8z"/>
<path fill="#99906C" d="M-165.7,374.4c-1.3,0-2.4,1.1-2.4,2.4c0,1.3,1.1,2.4,2.4,2.4s2.4-1.1,2.4-2.4S-164.4,374.4-165.7,374.4z
	 M-165.7,378c-0.7,0-1.2-0.5-1.2-1.2c0-0.7,0.5-1.2,1.2-1.2c0.7,0,1.2,0.5,1.2,1.2C-164.5,377.5-165,378-165.7,378z"/>
<path fill="#99906C" d="M-172.9,374.4c-1.3,0-2.4,1.1-2.4,2.4c0,1.3,1.1,2.4,2.4,2.4c1.3,0,2.4-1.1,2.4-2.4
	S-171.6,374.4-172.9,374.4z M-172.9,378c-0.7,0-1.2-0.5-1.2-1.2c0-0.7,0.5-1.2,1.2-1.2s1.2,0.5,1.2,1.2
	C-171.7,377.5-172.2,378-172.9,378z"/>
<path fill="#99906C" d="M-246.8,371.7c0,1.3,1.1,2.4,2.4,2.4c1.3,0,2.4-1.1,2.4-2.4c0-1.3-1.1-2.4-2.4-2.4S-246.8,370.4-246.8,371.7
	z M-243.2,371.7c0,0.7-0.5,1.2-1.2,1.2c-0.7,0-1.2-0.5-1.2-1.2c0-0.7,0.5-1.2,1.2-1.2C-243.7,370.5-243.2,371-243.2,371.7z"/>
<path fill="#99906C" d="M-246.8,378.9c0,1.3,1.1,2.4,2.4,2.4c1.3,0,2.4-1.1,2.4-2.4s-1.1-2.4-2.4-2.4S-246.8,377.6-246.8,378.9z
	 M-243.2,378.9c0,0.7-0.5,1.2-1.2,1.2c-0.7,0-1.2-0.5-1.2-1.2s0.5-1.2,1.2-1.2C-243.7,377.7-243.2,378.2-243.2,378.9z"/>
<path fill="#99906C" d="M-246.8,422.1c0,1.3,1.1,2.4,2.4,2.4c1.3,0,2.4-1.1,2.4-2.4c0-1.3-1.1-2.4-2.4-2.4S-246.8,420.8-246.8,422.1
	z M-243.2,422.1c0,0.7-0.5,1.2-1.2,1.2c-0.7,0-1.2-0.5-1.2-1.2c0-0.7,0.5-1.2,1.2-1.2C-243.7,420.9-243.2,421.4-243.2,422.1z"/>
<path fill="#99906C" d="M-246.8,414.9c0,1.3,1.1,2.4,2.4,2.4c1.3,0,2.4-1.1,2.4-2.4c0-1.3-1.1-2.4-2.4-2.4S-246.8,413.6-246.8,414.9
	z M-243.2,414.9c0,0.7-0.5,1.2-1.2,1.2c-0.7,0-1.2-0.5-1.2-1.2s0.5-1.2,1.2-1.2C-243.7,413.7-243.2,414.2-243.2,414.9z"/>
<path fill="#99906C" d="M-246.8,407.7c0,1.3,1.1,2.4,2.4,2.4c1.3,0,2.4-1.1,2.4-2.4c0-1.3-1.1-2.4-2.4-2.4S-246.8,406.4-246.8,407.7
	z M-243.2,407.7c0,0.7-0.5,1.2-1.2,1.2c-0.7,0-1.2-0.5-1.2-1.2c0-0.7,0.5-1.2,1.2-1.2C-243.7,406.5-243.2,407-243.2,407.7z"/>
<path fill="#99906C" d="M-246.8,400.5c0,1.3,1.1,2.4,2.4,2.4c1.3,0,2.4-1.1,2.4-2.4c0-1.3-1.1-2.4-2.4-2.4S-246.8,399.2-246.8,400.5
	z M-243.2,400.5c0,0.7-0.5,1.2-1.2,1.2c-0.7,0-1.2-0.5-1.2-1.2c0-0.7,0.5-1.2,1.2-1.2C-243.7,399.3-243.2,399.8-243.2,400.5z"/>
<path fill="#99906C" d="M-246.8,393.3c0,1.3,1.1,2.4,2.4,2.4c1.3,0,2.4-1.1,2.4-2.4s-1.1-2.4-2.4-2.4S-246.8,392-246.8,393.3z
	 M-243.2,393.3c0,0.7-0.5,1.2-1.2,1.2c-0.7,0-1.2-0.5-1.2-1.2s0.5-1.2,1.2-1.2C-243.7,392.1-243.2,392.6-243.2,393.3z"/>
<path fill="#99906C" d="M-246.8,386.1c0,1.3,1.1,2.4,2.4,2.4c1.3,0,2.4-1.1,2.4-2.4c0-1.3-1.1-2.4-2.4-2.4S-246.8,384.8-246.8,386.1
	z M-243.2,386.1c0,0.7-0.5,1.2-1.2,1.2c-0.7,0-1.2-0.5-1.2-1.2c0-0.7,0.5-1.2,1.2-1.2C-243.7,384.9-243.2,385.4-243.2,386.1z"/>
<rect x="-218.7" y="378.8" fill="#343433" width="19.9" height="19.9"/>
<g id="con2_usb_micro_b_at_8_" transform="matrix(1, 0, 0, 1, 14.5557, 123.449)">
	<g id="con2_usb_micro_b_at_9_" transform="matrix(1, 0, 0, 1, 18.6038, 120.082)">
		<g>
			<rect x="-188.9" y="142.9" fill="#676767" width="1.2" height="1"/>
			<rect x="-188.9" y="143.8" fill="#989897" width="1.1" height="0.1"/>
		</g>
		<g>
			<rect x="-188.9" y="141.1" fill="#676767" width="1.2" height="1"/>
			<rect x="-188.9" y="142" fill="#989897" width="1.1" height="0.1"/>
		</g>
		<g>
			<rect x="-188.9" y="139.2" fill="#676767" width="1.2" height="1"/>
			<rect x="-188.9" y="140.1" fill="#989897" width="1.1" height="0.1"/>
		</g>
		<g>
			<rect x="-188.9" y="137.4" fill="#676767" width="1.2" height="1"/>
			<rect x="-188.9" y="138.3" fill="#989897" width="1.1" height="0.1"/>
		</g>
		<g>
			<rect x="-188.9" y="135.6" fill="#676767" width="1.2" height="1"/>
			<rect x="-188.9" y="136.5" fill="#989897" width="1.1" height="0.1"/>
		</g>
		<g>
			<polygon fill="#B3B2B3" points="-171,130.3 -171,149.1 -188,149.1 -188,130.3 			"/>
			<rect x="-181.4" y="129.1" fill="#676767" width="3" height="1"/>
			<rect x="-181.4" y="149.4" fill="#676767" width="3" height="1"/>
			<rect x="-188" y="130.3" fill="#CDCCCB" width="0.1" height="18.8"/>
			<rect x="-188" y="134.6" fill="#343433" width="15.6" height="10.3"/>
			<polygon fill="#B3B2B3" points="-171.3,149.4 -170.9,149.4 -169.8,150 -169.8,150.4 			"/>
			<polygon fill="#CDCCCB" points="-170.9,149.4 -170.9,149.4 -170.3,149.4 -169.8,150 			"/>
			<polygon fill="#B3B2B3" points="-169.8,129.1 -169.8,129.5 -170.9,130.1 -171.3,130.1 			"/>
			<polygon fill="#CDCCCB" points="-169.8,129.5 -170.3,130.1 -170.9,130.1 -170.9,130.1 			"/>
			<g>
				<g>
					<rect x="-172" y="135.3" fill="#F3F2F2" width="0.6" height="0.5"/>
				</g>
				<g>
					<rect x="-172" y="137.4" fill="#F3F2F2" width="0.6" height="0.5"/>
				</g>
				<g>
					<rect x="-172" y="139.5" fill="#F3F2F2" width="0.6" height="0.5"/>
				</g>
				<g>
					<rect x="-172" y="141.6" fill="#F3F2F2" width="0.6" height="0.5"/>
				</g>
				<g>
					<rect x="-172" y="143.7" fill="#F3F2F2" width="0.6" height="0.5"/>
				</g>
				<g>
					<rect x="-172" y="144" fill="#808080" width="0.6" height="0.1"/>
				</g>
				<g>
					<rect x="-172" y="142" fill="#808080" width="0.6" height="0.1"/>
				</g>
				<g>
					<rect x="-172" y="139.9" fill="#808080" width="0.6" height="0.1"/>
				</g>
				<g>
					<rect x="-172" y="137.8" fill="#808080" width="0.6" height="0.1"/>
				</g>
				<g>
					<rect x="-172" y="135.7" fill="#808080" width="0.6" height="0.1"/>
				</g>
			</g>
			<path fill="#4E4E4E" d="M-171.2,144.7v-0.5h-0.4v-0.5h0.4v-1.6h-0.4v-0.5h0.4V140h-0.4v-0.5h0.4v-1.6h-0.4v-0.5h0.4v-1.6h-0.4
				v-0.5h0.4V135v-0.3c0-0.1-0.1-0.1-0.1-0.1h-1.1c-0.1,0-0.1,0.1-0.1,0.1v10c0,0.1,0.1,0.1,0.1,0.1h1.1
				C-171.2,144.9-171.2,144.8-171.2,144.7L-171.2,144.7z"/>
			<path fill="#CDCCCB" d="M-187.4,149.4l-0.6-0.2v-2.5c0,0,0.1,2.3,0.3,2.4c0.2,0.1,0.3-0.1,0.3-0.1V149.4z"/>
			<path fill="#CDCCCB" d="M-187.4,130.1l-0.6,0.2v2.5c0,0,0.1-2.3,0.3-2.4c0.2-0.1,0.3,0.1,0.3,0.1S-187.4,130.1-187.4,130.1z"/>
			<path fill="#E5E5E5" d="M-188,133.5h1.6v1.6h-1.6v0.5h0.6v8.4h-0.6v0.5h1.6v1.6h-1.6v3.3h17v-19.3h-17V133.5z M-174.1,144.4h0.8
				v1.6h-0.9c-0.3,0.4-0.8,0.7-1.3,0.7c-0.6,0-1.1-0.2-1.4-0.7l0,0h-4.5v-1.6h4.5c0.3-0.5,0.8-0.8,1.4-0.8
				C-174.9,143.6-174.4,144-174.1,144.4z M-174.1,133.6h0.8v1.6h-0.9c-0.3,0.4-0.8,0.7-1.3,0.7c-0.6,0-1.1-0.2-1.4-0.7l0,0h-4.5
				v-1.6h4.5c0.3-0.5,0.8-0.8,1.4-0.8C-174.9,132.7-174.4,133.1-174.1,133.6z"/>
			<polygon fill="#F3F2F2" points="-171,149 -171,149.4 -187.4,149.4 -187.4,147.8 			"/>
			<polygon fill="#989897" points="-171,130.1 -182,130.7 -187.4,131.2 -187.4,130.1 			"/>
			<rect x="-181.4" y="144.4" fill="#CDCCCB" width="0.1" height="1.6"/>
			<rect x="-181.4" y="133.6" fill="#CDCCCB" width="0.1" height="1.6"/>
			<rect x="-171.8" y="131" fill="#B3B2B3" width="0.7" height="17.4"/>
			<rect x="-171.3" y="131" fill="#CDCCCB" width="0.3" height="17.4"/>
		</g>
	</g>
</g>
<g id="_x30_.1.0.2.31.0_25_">
	<title  id="0.1.0.2.31.0.0">text:Arduino</title>
	<g id="_x30_.1.0.2.31.0.1_25_" transform="matrix(1 0 0 1 109.0161 55.1792)">
		<g id="_x30_.1.0.2.31.0.1.0_25_" enable-background="new    ">
			<path fill="#231F20" d="M-323.3,347.2C-323.3,347.2-323.2,347.2-323.3,347.2c0.1,0.1,0.2,0.1,0.2,0.2c0,0.1,0,0,0,0.9l0,0.8h0.8
				h0.8v-0.8c0-0.9,0-0.9,0-0.9c0,0,0-0.1,0.1-0.1c0,0,0.1-0.1,0.1-0.1c0.1,0,0.1,0,0.2,0c0.1,0,0.1,0.1,0.1,0.1c0,0,0,0,0,0.1
				c0,0,0,0.1,0,2s0,2,0,2c0,0,0,0,0,0.1c0,0.1-0.1,0.1-0.1,0.1c-0.1,0-0.1,0-0.2,0c0,0-0.1,0-0.1-0.1c0,0-0.1-0.1-0.1-0.1
				c0-0.1,0,0,0-0.9v-0.8h-0.8h-0.8l0,0.8c0,1,0,0.9,0,0.9c0,0.1-0.1,0.1-0.1,0.1c-0.1,0-0.1,0-0.2,0c0,0-0.1,0-0.1-0.1
				c0,0-0.1-0.1-0.1-0.2c0,0,0-3.9,0-4c0-0.1,0-0.1,0.1-0.2c0,0,0.1-0.1,0.1-0.1C-323.4,347.2-323.3,347.2-323.3,347.2z"/>
			<path fill="#231F20" d="M-318,348.4c0.4,0,0.5,0,0.5,0c0.1,0,0.3,0.1,0.4,0.2c0.1,0.1,0.3,0.2,0.3,0.2c0.1,0.1,0.2,0.3,0.2,0.4
				c0,0.1,0,0.1,0,0.5c0,0.4,0,0.4,0,0.5c0,0,0,0.1-0.1,0.1c0,0-0.1,0-0.1,0.1c0,0-0.1,0-1,0l-1,0l0,0.1c0,0.1,0,0.1,0,0.2
				c0,0.1,0,0.1,0.2,0.2c0.1,0.1,0.2,0.1,0.2,0.1l0,0l0.8,0c0.9,0,0.8,0,0.9,0c0.1,0,0.2,0.1,0.2,0.3c0,0.1-0.1,0.3-0.2,0.3
				c0,0-1.6,0-1.6,0c-0.2,0-0.3-0.1-0.4-0.2c-0.1,0-0.3-0.2-0.3-0.3c-0.1-0.1-0.2-0.3-0.2-0.5c0,0,0-0.1,0-0.7c0-0.6,0-0.6,0-0.7
				c0-0.2,0.1-0.4,0.2-0.5c0,0,0.2-0.2,0.3-0.2c0.1-0.1,0.3-0.2,0.4-0.2C-318.4,348.4-318.3,348.4-318,348.4z M-317.5,349l-0.4,0
				c-0.4,0-0.4,0-0.5,0c0,0-0.1,0-0.2,0.1c-0.1,0.1-0.1,0.1-0.1,0.1c0,0,0,0.1-0.1,0.1l0,0l0,0.2l0,0.2h0.8h0.8l0-0.2
				c0-0.3,0-0.2,0-0.3c0,0,0,0,0-0.1c0,0-0.1-0.1-0.1-0.1C-317.4,349-317.5,349-317.5,349L-317.5,349z"/>
			<path fill="#231F20" d="M-313.7,348.4c0.6,0,0.6,0,0.7,0c0.3,0.1,0.6,0.4,0.6,0.7c0,0,0,0.4,0,0.8l0,1.1c0,0.2,0,0.4,0,0.4
				c0,0.1,0,0.1-0.1,0.2c-0.2,0.1-0.4,0.1-0.5-0.1c0,0,0,0,0,0c0,0,0,0,0,0c0,0-0.1,0.1-0.2,0.1c-0.2,0.1-0.2,0.1-0.3,0.1
				c0,0,0,0-0.5,0c-0.5,0-0.5,0-0.6,0c-0.2,0-0.3-0.1-0.4-0.2c-0.1-0.1-0.2-0.3-0.2-0.5c0,0,0-0.1,0-0.3c0-0.2,0-0.2,0-0.3
				c0-0.2,0.1-0.4,0.2-0.5c0.1-0.1,0.3-0.2,0.5-0.2l0,0h0.6h0.6l0,0c0,0,0.1,0,0.1,0c0,0,0,0,0,0c0,0,0-0.1,0-0.2c0-0.1,0-0.2,0-0.2
				c0-0.1-0.1-0.2-0.2-0.2l0,0l-0.6,0c-0.6,0-0.6,0-0.7,0c-0.1,0-0.1-0.1-0.1-0.2c0,0,0,0,0-0.1c0,0,0-0.1,0-0.1c0,0,0-0.1,0.1-0.1
				c0-0.1,0.1-0.1,0.2-0.1C-314.3,348.4-314,348.4-313.7,348.4z M-313.1,350.2l-0.6,0c-0.3,0-0.6,0-0.6,0c0,0,0,0,0,0
				c-0.1,0-0.1,0.1-0.2,0.2l0,0v0.2v0.2l0,0c0,0.1,0.1,0.2,0.2,0.2c0,0,0,0,0.4,0l0.4,0l0.3-0.2c0.2-0.1,0.3-0.2,0.3-0.2
				c0,0,0-0.1,0-0.1c0-0.1,0-0.1,0-0.2c0-0.1,0-0.1-0.1-0.1C-313,350.2-313,350.2-313.1,350.2L-313.1,350.2z"/>
			<path fill="#231F20" d="M-309.9,347.4C-309.9,347.4-309.9,347.4-309.9,347.4c0.1,0.1,0.2,0.1,0.2,0.2c0,0.1,0,0,0,0.4l0,0.4
				l0.6,0h0.6l0,0c0.1,0,0.1,0.1,0.2,0.1c0,0,0,0.1,0,0.1c0,0.1,0,0.1,0,0.1c0,0.1-0.1,0.1-0.2,0.1l0,0l-0.6,0l-0.6,0l0,0.9v0.9l0,0
				c0,0.1,0,0.1,0.1,0.1c0,0,0.1,0,0.1,0l0,0h0.3c0.4,0,0.3,0,0.4,0c0.1,0,0.1-0.1,0.2-0.2c0-0.1,0-0.1,0.1-0.2
				c0.1-0.1,0.2-0.1,0.2-0.1c0.2,0,0.3,0.2,0.3,0.3c0,0.2-0.1,0.4-0.3,0.5c-0.1,0.1-0.2,0.1-0.4,0.2c-0.1,0-0.1,0-0.5,0l-0.3,0
				l-0.1,0c-0.2,0-0.3-0.1-0.5-0.2c-0.1-0.1-0.2-0.3-0.2-0.5c0-0.1,0-0.1,0-1V349l-0.2,0c-0.2,0-0.2,0-0.2,0c-0.1,0-0.2-0.1-0.2-0.3
				c0-0.1,0.1-0.2,0.2-0.3c0,0,0,0,0.2,0l0.2,0l0-0.4c0-0.4,0-0.4,0-0.4c0-0.1,0.1-0.1,0.2-0.2C-310,347.4-309.9,347.4-309.9,347.4z
				"/>
			<path fill="#231F20" d="M-305.5,348.4c0.5,0,0.5,0,0.5,0c0,0,0.1,0,0.1,0.1c0,0,0,0.1,0.1,0.1c0,0,0,0.1,0,1.2l0,1.2l0.3,0l0.3,0
				l0,0c0.1,0,0.1,0.1,0.2,0.1c0,0,0,0.1,0,0.1c0,0.1,0,0.1,0,0.1c0,0.1-0.1,0.1-0.2,0.1l0,0h-0.9h-0.9l0,0c-0.1,0-0.2-0.1-0.2-0.3
				c0-0.1,0.1-0.2,0.2-0.3l0,0l0.3,0l0.3,0v-1v-1l-0.3,0l-0.3,0l0,0c-0.1,0-0.2-0.2-0.2-0.3c0-0.1,0.1-0.2,0.2-0.2
				C-306,348.4-305.8,348.4-305.5,348.4z M-305.3,346.9c0.2,0,0.2,0,0.3,0c0.1,0,0.1,0.1,0.1,0.1c0,0.1,0,0.1,0,0.2s0,0.2,0,0.2
				c0,0.1-0.1,0.1-0.1,0.1c-0.1,0-0.1,0-0.2,0c-0.2,0-0.2,0-0.3,0c0,0-0.1,0-0.1-0.1c0,0-0.1-0.1-0.1-0.1c0,0,0-0.1,0-0.2
				c0-0.2,0-0.2,0-0.2c0,0,0-0.1,0.1-0.1c0,0,0.1-0.1,0.1-0.1C-305.4,346.9-305.4,346.9-305.3,346.9z"/>
			<path fill="#231F20" d="M-301.3,347.4C-301.3,347.4-301.3,347.4-301.3,347.4c0.1,0.1,0.2,0.1,0.2,0.2c0,0.1,0,0,0,0.4l0,0.4
				l0.6,0h0.6l0,0c0.1,0,0.1,0.1,0.2,0.1c0,0,0,0.1,0,0.1c0,0.1,0,0.1,0,0.1c0,0.1-0.1,0.1-0.2,0.1l0,0l-0.6,0l-0.6,0l0,0.9v0.9l0,0
				c0,0.1,0,0.1,0.1,0.1c0,0,0.1,0,0.1,0l0,0h0.3c0.4,0,0.3,0,0.4,0c0.1,0,0.1-0.1,0.1-0.2c0-0.1,0-0.1,0.1-0.2
				c0.1-0.1,0.2-0.1,0.2-0.1c0.2,0,0.3,0.2,0.3,0.3c0,0.2-0.1,0.4-0.3,0.5c-0.1,0.1-0.2,0.1-0.4,0.2c-0.1,0-0.1,0-0.5,0l-0.3,0
				l-0.1,0c-0.2,0-0.3-0.1-0.5-0.2c-0.1-0.1-0.2-0.3-0.2-0.5c0-0.1,0-0.1,0-1V349l-0.2,0c-0.2,0-0.2,0-0.2,0c-0.1,0-0.2-0.1-0.2-0.3
				s0.1-0.2,0.2-0.3c0,0,0,0,0.2,0l0.2,0l0-0.4c0-0.4,0-0.4,0-0.4c0-0.1,0.1-0.1,0.2-0.2C-301.4,347.4-301.4,347.4-301.3,347.4z"/>
			<path fill="#231F20" d="M-292.6,348.3c0,0.5-0.4,0.8-0.8,0.8c-0.5,0-0.8-0.4-0.8-0.8c0-0.5,0.4-0.8,0.8-0.8
				C-292.9,347.5-292.6,347.9-292.6,348.3z M-293.9,348.3c0,0.3,0.2,0.5,0.5,0.5c0.3,0,0.5-0.2,0.5-0.5c0-0.2-0.1-0.5-0.5-0.5
				C-293.7,347.8-293.9,348.1-293.9,348.3z"/>
			<path fill="#231F20" d="M-289.2,351.5c-0.2,0.1-0.6,0.2-1.1,0.2c-1.1,0-2-0.7-2-2c0-1.3,0.9-2.1,2.1-2.1c0.5,0,0.8,0.1,1,0.2
				l-0.1,0.4c-0.2-0.1-0.5-0.2-0.8-0.2c-0.9,0-1.6,0.6-1.6,1.7c0,1,0.6,1.6,1.5,1.6c0.3,0,0.6-0.1,0.8-0.2L-289.2,351.5z"/>
		</g>
	</g>
</g>
<g id="_x30_.1.0.2.31.0_24_">
	<title  id="0.1.0.2.31.0.0">text:Arduino</title>
	<g id="_x30_.1.0.2.31.0.1_24_" transform="matrix(1 0 0 1 109.0161 55.1792)">
		<g id="_x30_.1.0.2.31.0.1.0_24_" enable-background="new    ">
			<path fill="#231F20" d="M-339,371.1c0.1,0,0.1,0.1,0.1,0.2c0,0.1,0,0.1-0.1,0.2c0,0,0,0-0.4,0l-0.4,0l0,0c0,0,0,0,0,0
				c0,0-0.1,0.1-0.2,0.1c-0.1,0.1-0.2,0.1-0.2,0.1c0,0,0,0,0,0.1l0,0v0.2c0,0.2,0,0.2,0,0.2c0,0,0,0,0,0.1c0,0,0.1,0,0.2,0.1
				c0.1,0.1,0.2,0.1,0.2,0.1c0,0,0,0,0.1,0c0,0,0,0,0.4,0c0.4,0,0.4,0,0.4,0c0.1,0,0.1,0.1,0.1,0.2c0,0.1-0.1,0.1-0.1,0.2
				c0,0-0.7,0-0.8,0c-0.1,0-0.2,0-0.2-0.1c0,0-0.3-0.3-0.3-0.3c-0.1-0.1-0.1-0.1-0.1-0.2c0-0.1,0,0,0-0.3c0-0.2,0-0.2,0-0.3
				c0-0.1,0.1-0.2,0.1-0.3c0,0,0.3-0.3,0.3-0.3c0.1-0.1,0.2-0.1,0.2-0.1C-339.8,371.1-339,371.1-339,371.1z"/>
			<path fill="#231F20" d="M-337.8,370.4C-337.8,370.4-337.8,370.5-337.8,370.4c0.1,0,0.1,0.1,0.1,0.1c0,0,0,0,0,0.5l0,0.4l0.2-0.1
				c0.1-0.1,0.2-0.1,0.2-0.1c0.1,0,0.1,0,0.2,0c0,0,0.3,0,0.3,0c0.1,0,0.2,0.1,0.3,0.1c0.1,0.1,0.1,0.2,0.1,0.3c0,0,0,1.2,0,1.2
				c0,0,0,0,0,0c0,0.1-0.1,0.1-0.2,0.1c-0.1,0-0.1-0.1-0.2-0.1c0,0,0-0.1,0-0.6c0-0.5,0-0.6,0-0.6c0-0.1-0.1-0.1-0.1-0.1l0,0h-0.1
				c-0.1,0-0.1,0-0.2,0c0,0-0.1,0.1-0.3,0.2l-0.2,0.2l0,0.5c0,0.6,0,0.5,0,0.6c0,0,0,0.1-0.1,0.1c0,0-0.1,0-0.1,0c0,0,0,0-0.1,0
				c0,0,0,0,0-0.1c0,0,0-2.3,0-2.3c0,0,0-0.1,0-0.1S-337.9,370.5-337.8,370.4C-337.9,370.4-337.9,370.4-337.8,370.4z"/>
			<path fill="#231F20" d="M-334.7,370.4h0.7v0.5c0,0.5,0,0.5,0,0.6c0,0,0,0,0,0.1c0,0-0.1,0.1-0.3,0.3l-0.3,0.3v0.4
				c0,0.4,0,0.4,0,0.4c0,0,0,0.1-0.1,0.1c0,0-0.1,0-0.1,0c0,0,0,0-0.1,0c0,0,0,0,0-0.1c0,0,0,0,0-0.5s0-0.4,0-0.5c0,0,0,0,0-0.1
				c0,0,0.1-0.1,0.3-0.3l0.3-0.3v-0.3v-0.3h-0.5h-0.5l0,0c0,0,0,0,0,0c0,0,0,0-0.1,0.1c0,0-0.1,0-0.1,0c0,0-0.1,0-0.1-0.1
				c0,0,0,0,0-0.1c0,0,0,0,0-0.1c0-0.1,0-0.1,0-0.1c0,0,0,0,0-0.1c0,0,0.1,0,0.1,0C-335.4,370.4-335.3,370.4-334.7,370.4z"/>
			<path fill="#231F20" d="M-331.6,371.1c0.1,0,0.1,0.1,0.1,0.2c0,0.1,0,0.1-0.1,0.2c0,0,0,0-0.4,0l-0.4,0l0,0c0,0,0,0,0,0
				c0,0-0.1,0.1-0.2,0.1c-0.1,0.1-0.2,0.1-0.2,0.1c0,0,0,0,0,0.1l0,0v0.2c0,0.2,0,0.2,0,0.2c0,0,0,0,0,0.1c0,0,0.1,0,0.2,0.1
				c0.1,0.1,0.2,0.1,0.2,0.1c0,0,0,0,0,0c0,0,0,0,0.4,0c0.4,0,0.4,0,0.4,0c0.1,0,0.1,0.1,0.1,0.2c0,0.1-0.1,0.1-0.1,0.2
				c0,0-0.7,0-0.8,0c-0.1,0-0.2,0-0.2-0.1c0,0-0.3-0.3-0.3-0.3c-0.1-0.1-0.1-0.1-0.1-0.2c0-0.1,0,0,0-0.3c0-0.2,0-0.2,0-0.3
				c0-0.1,0.1-0.2,0.1-0.3c0,0,0.3-0.3,0.3-0.3c0.1-0.1,0.2-0.1,0.2-0.1C-332.4,371.1-331.6,371.1-331.6,371.1z"/>
			<path fill="#231F20" d="M-330.4,370.4C-330.4,370.4-330.4,370.5-330.4,370.4c0.1,0,0.1,0.1,0.1,0.1c0,0,0,0,0,0.5l0,0.4l0.2-0.1
				c0.1-0.1,0.2-0.1,0.2-0.1c0.1,0,0.1,0,0.2,0c0,0,0.3,0,0.3,0c0.1,0,0.2,0.1,0.3,0.1c0.1,0.1,0.1,0.2,0.1,0.3c0,0,0,1.2,0,1.2
				c0,0,0,0,0,0c0,0.1-0.1,0.1-0.2,0.1c-0.1,0-0.1-0.1-0.2-0.1c0,0,0-0.1,0-0.6c0-0.5,0-0.6,0-0.6c0-0.1-0.1-0.1-0.1-0.1l0,0h-0.1
				c-0.1,0-0.1,0-0.2,0c0,0-0.1,0.1-0.3,0.2l-0.2,0.2l0,0.5c0,0.6,0,0.5,0,0.6c0,0,0,0.1-0.1,0.1c0,0-0.1,0-0.1,0c0,0,0,0-0.1,0
				c0,0,0,0,0-0.1c0,0,0-2.3,0-2.3c0,0,0-0.1,0-0.1S-330.5,370.5-330.4,370.4C-330.5,370.4-330.5,370.4-330.4,370.4z"/>
			<path fill="#231F20" d="M-327.8,370.4C-327.8,370.5-327.8,370.5-327.8,370.4c0.1,0.1,0.1,0.1,0.1,0.2c0,0.1-0.1,0.2-0.1,0.2l0,0
				v0.5v0.5l0.6,0c0.6,0,0.6,0,0.6,0c0,0,0,0,0.1,0c0,0,0,0,0,0.1c0,0,0,0,0,0.5s0,0.5,0,0.5c0,0,0,0,0,0.1c0,0,0,0-0.1,0
				c0,0,0,0-0.7,0c-0.5,0-0.7,0-0.7,0c0,0,0,0-0.1,0c0,0,0,0-0.1-0.1c0,0,0,0,0-0.1c0,0,0-2.3,0-2.3c0,0,0-0.1,0-0.1
				c0,0,0.1,0,0.1,0C-328,370.4-327.8,370.4-327.8,370.4z M-326.9,372.2h-0.5h-0.5v0.3v0.3h0.5h0.5v-0.3V372.2z"/>
			<path fill="#231F20" d="M-324.2,371.1c0.1,0,0.1,0.1,0.1,0.2c0,0.1,0,0.1-0.1,0.2c0,0,0,0-0.4,0l-0.4,0l0,0c0,0,0,0,0,0
				c0,0-0.1,0.1-0.2,0.1c-0.1,0.1-0.2,0.1-0.2,0.1c0,0,0,0,0,0.1l0,0v0.2c0,0.2,0,0.2,0,0.2c0,0,0,0,0,0.1c0,0,0.1,0,0.2,0.1
				c0.1,0.1,0.2,0.1,0.2,0.1c0,0,0,0,0,0c0,0,0,0,0.4,0c0.4,0,0.4,0,0.4,0c0.1,0,0.1,0.1,0.1,0.2c0,0.1-0.1,0.1-0.1,0.2
				c0,0-0.7,0-0.8,0c-0.1,0-0.2,0-0.2-0.1c0,0-0.3-0.3-0.3-0.3c-0.1-0.1-0.1-0.1-0.1-0.2c0-0.1,0,0,0-0.3c0-0.2,0-0.2,0-0.3
				c0-0.1,0.1-0.2,0.1-0.3c0,0,0.3-0.3,0.3-0.3c0.1-0.1,0.2-0.1,0.2-0.1C-325,371.1-324.2,371.1-324.2,371.1z"/>
			<path fill="#231F20" d="M-323,370.4C-323,370.4-323,370.5-323,370.4c0.1,0,0.1,0.1,0.1,0.1c0,0,0,0,0,0.5l0,0.4l0.2-0.1
				c0.1-0.1,0.2-0.1,0.2-0.1c0.1,0,0.1,0,0.2,0c0,0,0.3,0,0.3,0c0.1,0,0.2,0.1,0.3,0.1c0.1,0.1,0.1,0.2,0.1,0.3c0,0,0,1.2,0,1.2
				c0,0,0,0,0,0c0,0.1-0.1,0.1-0.2,0.1c-0.1,0-0.1-0.1-0.2-0.1c0,0,0-0.1,0-0.6c0-0.5,0-0.6,0-0.6c0-0.1-0.1-0.1-0.1-0.1l0,0h-0.1
				c-0.1,0-0.1,0-0.2,0c0,0-0.1,0.1-0.3,0.2l-0.2,0.2l0,0.5c0,0.6,0,0.5,0,0.6c0,0,0,0.1-0.1,0.1c0,0-0.1,0-0.1,0c0,0,0,0-0.1,0
				c0,0,0,0,0-0.1c0,0,0-2.3,0-2.3c0,0,0-0.1,0-0.1S-323.1,370.5-323,370.4C-323.1,370.4-323.1,370.4-323,370.4z"/>
			<path fill="#231F20" d="M-320.5,370.4h0.6c0.5,0,0.6,0,0.6,0c0.1,0,0.1,0.1,0.1,0.2c0,0.1-0.1,0.1-0.1,0.2c0,0-0.1,0-0.4,0h-0.4
				v0.4v0.4h0.3c0.4,0,0.4,0,0.4,0c0.1,0,0.2,0.1,0.2,0.3c0,0,0,0.1,0,0.4l0,0.4l0,0c0,0.1,0,0.1-0.1,0.1c0,0.1-0.1,0.1-0.2,0.1
				c0,0,0,0-0.5,0c-0.4,0-0.4,0-0.4,0c0,0-0.1,0-0.1,0c0,0-0.3-0.1-0.3-0.1c0,0-0.1,0-0.1-0.1c0,0,0-0.1,0-0.1
				c0-0.1,0.1-0.1,0.2-0.1c0,0,0.1,0,0.2,0.1c0.1,0,0.1,0.1,0.1,0.1c0,0,0,0,0.4,0l0.4,0v-0.4v-0.4h-0.5h-0.5v-0.7L-320.5,370.4
				L-320.5,370.4z"/>
			<path fill="#231F20" d="M-316.8,371.1c0.1,0,0.1,0.1,0.1,0.2c0,0.1,0,0.1-0.1,0.2c0,0,0,0-0.4,0l-0.4,0l0,0c0,0,0,0,0,0
				c0,0-0.1,0.1-0.2,0.1c-0.1,0.1-0.2,0.1-0.2,0.1c0,0,0,0,0,0.1l0,0v0.2c0,0.2,0,0.2,0,0.2c0,0,0,0,0,0.1c0,0,0.1,0,0.2,0.1
				c0.1,0.1,0.2,0.1,0.2,0.1c0,0,0,0,0.1,0c0,0,0,0,0.4,0c0.4,0,0.4,0,0.4,0c0.1,0,0.1,0.1,0.1,0.2c0,0.1-0.1,0.1-0.1,0.2
				c0,0-0.7,0-0.8,0c-0.1,0-0.2,0-0.2-0.1c0,0-0.3-0.3-0.3-0.3c-0.1-0.1-0.1-0.1-0.1-0.2c0-0.1,0,0,0-0.3c0-0.2,0-0.2,0-0.3
				c0-0.1,0.1-0.2,0.1-0.3c0,0,0.3-0.3,0.3-0.3c0.1-0.1,0.2-0.1,0.2-0.1C-317.6,371.1-316.8,371.1-316.8,371.1z"/>
			<path fill="#231F20" d="M-315.6,370.4C-315.6,370.4-315.6,370.5-315.6,370.4c0.1,0,0.1,0.1,0.1,0.1c0,0,0,0,0,0.5l0,0.4l0.2-0.1
				c0.1-0.1,0.2-0.1,0.2-0.1c0.1,0,0.1,0,0.2,0c0,0,0.3,0,0.3,0c0.1,0,0.2,0.1,0.3,0.1c0.1,0.1,0.1,0.2,0.1,0.3c0,0,0,1.2,0,1.2
				c0,0,0,0,0,0c0,0.1-0.1,0.1-0.2,0.1c-0.1,0-0.1-0.1-0.2-0.1c0,0,0-0.1,0-0.6c0-0.5,0-0.6,0-0.6c0-0.1-0.1-0.1-0.1-0.1l0,0h-0.1
				c-0.1,0-0.1,0-0.2,0c0,0-0.1,0.1-0.3,0.2l-0.2,0.2l0,0.5c0,0.6,0,0.5,0,0.6c0,0,0,0.1-0.1,0.1c0,0-0.1,0-0.1,0c0,0,0,0-0.1,0
				c0,0,0,0,0-0.1c0,0,0-2.3,0-2.3c0,0,0-0.1,0-0.1S-315.7,370.5-315.6,370.4C-315.7,370.4-315.7,370.4-315.6,370.4z"/>
			<path fill="#231F20" d="M-313.1,370.4C-313.1,370.5-313,370.5-313.1,370.4c0.1,0.1,0.1,0.1,0.1,0.1c0,0,0,0,0,0.6v0.6h0.3h0.3
				v-0.5v-0.5l0,0c0-0.1,0.1-0.1,0.1-0.1c0,0,0,0,0,0c0,0,0,0,0.1,0c0,0,0.1,0.1,0.1,0.1l0,0v0.5l0,0.5l0,0c0.1,0,0.1,0,0.1,0.1
				c0,0,0,0.1,0,0.1c0,0.1-0.1,0.1-0.1,0.1l0,0l0,0.3c0,0.4,0,0.4,0,0.4c0,0,0,0.1-0.1,0.1c0,0-0.1,0-0.1,0c0,0,0,0-0.1,0
				c0,0,0,0,0-0.1c0,0,0,0,0-0.4v-0.3h-0.5h-0.5v-0.8c0-0.8,0-0.8,0-0.8c0,0,0,0,0-0.1C-313.2,370.5-313.2,370.5-313.1,370.4
				C-313.1,370.4-313.1,370.4-313.1,370.4z"/>
			<path fill="#231F20" d="M-309.4,371.1c0.1,0,0.1,0.1,0.1,0.2c0,0.1,0,0.1-0.1,0.2c0,0,0,0-0.4,0l-0.4,0l0,0c0,0,0,0,0,0
				c0,0-0.1,0.1-0.2,0.1c-0.1,0.1-0.2,0.1-0.2,0.1c0,0,0,0,0,0.1l0,0v0.2c0,0.2,0,0.2,0,0.2c0,0,0,0,0,0.1c0,0,0.1,0,0.2,0.1
				c0.1,0.1,0.2,0.1,0.2,0.1c0,0,0,0,0,0c0,0,0,0,0.4,0c0.4,0,0.4,0,0.4,0c0.1,0,0.1,0.1,0.1,0.2c0,0.1-0.1,0.1-0.1,0.2
				c0,0-0.7,0-0.8,0c-0.1,0-0.2,0-0.2-0.1c0,0-0.3-0.3-0.3-0.3c-0.1-0.1-0.1-0.1-0.1-0.2c0-0.1,0,0,0-0.3c0-0.2,0-0.2,0-0.3
				c0-0.1,0.1-0.2,0.1-0.3c0,0,0.3-0.3,0.3-0.3c0.1-0.1,0.2-0.1,0.2-0.1C-310.2,371.1-309.4,371.1-309.4,371.1z"/>
			<path fill="#231F20" d="M-308.2,370.4C-308.2,370.4-308.2,370.5-308.2,370.4c0.1,0,0.1,0.1,0.1,0.1c0,0,0,0,0,0.5l0,0.4l0.2-0.1
				c0.1-0.1,0.2-0.1,0.2-0.1c0.1,0,0.1,0,0.2,0c0,0,0.3,0,0.3,0c0.1,0,0.2,0.1,0.3,0.1c0.1,0.1,0.1,0.2,0.1,0.3c0,0,0,1.2,0,1.2
				c0,0,0,0,0,0c0,0.1-0.1,0.1-0.2,0.1c-0.1,0-0.1-0.1-0.2-0.1c0,0,0-0.1,0-0.6c0-0.5,0-0.6,0-0.6c0-0.1-0.1-0.1-0.1-0.1l0,0h-0.1
				c-0.1,0-0.1,0-0.2,0c0,0-0.1,0.1-0.3,0.2l-0.2,0.2l0,0.5c0,0.6,0,0.5,0,0.6c0,0,0,0.1-0.1,0.1c0,0-0.1,0-0.1,0c0,0,0,0-0.1,0
				c0,0,0,0,0-0.1c0,0,0-2.3,0-2.3c0,0,0-0.1,0-0.1S-308.3,370.5-308.2,370.4C-308.3,370.4-308.3,370.4-308.2,370.4z"/>
			<path fill="#231F20" d="M-305.2,370.4c0.6,0,0.6,0,0.6,0c0.1,0,0.2,0.1,0.2,0.3c0,0,0,0.7,0,0.7c0,0.1,0,0.2-0.1,0.3l0,0
				c0,0,0,0,0,0c0,0,0.1,0.1,0.1,0.1c0,0,0,0.1,0,0.1l0,0v0.4v0.4l0,0c0,0.1,0,0.1-0.1,0.1c-0.1,0.1-0.1,0.1-0.2,0.1
				c0,0-0.2,0-0.6,0h-0.6l0,0c-0.1,0-0.1-0.1-0.1-0.2c0-0.1,0-0.1,0.1-0.2l0,0h0.6h0.6v-0.3c0-0.4,0-0.3,0-0.4c0,0,0-0.1-0.1-0.1
				c0,0,0,0-0.4,0c-0.4,0-0.4,0-0.4,0c0,0-0.1-0.1-0.1-0.1c0,0,0,0,0,0c0,0,0,0,0,0c0,0,0-0.1,0.1-0.1c0,0,0,0,0.4,0l0.4,0l0,0
				c0.1,0,0.1-0.1,0.1-0.1c0,0,0,0,0-0.3v-0.3h-0.6h-0.6l0,0c0,0-0.1,0-0.1-0.1c0,0,0-0.1,0-0.1c0,0,0.1-0.1,0.1-0.1
				C-305.8,370.4-305.6,370.4-305.2,370.4z"/>
			<path fill="#231F20" d="M-302,371.1c0.1,0,0.1,0.1,0.1,0.2c0,0.1,0,0.1-0.1,0.2c0,0,0,0-0.4,0l-0.4,0l0,0c0,0,0,0,0,0
				c0,0-0.1,0.1-0.2,0.1c-0.1,0.1-0.2,0.1-0.2,0.1c0,0,0,0,0,0.1l0,0v0.2c0,0.2,0,0.2,0,0.2c0,0,0,0,0,0.1c0,0,0.1,0,0.2,0.1
				c0.1,0.1,0.2,0.1,0.2,0.1c0,0,0,0,0,0c0,0,0,0,0.4,0c0.4,0,0.4,0,0.4,0c0.1,0,0.1,0.1,0.1,0.2c0,0.1-0.1,0.1-0.1,0.2
				c0,0-0.7,0-0.8,0c-0.1,0-0.2,0-0.2-0.1c0,0-0.3-0.3-0.3-0.3c-0.1-0.1-0.1-0.1-0.1-0.2c0-0.1,0,0,0-0.3c0-0.2,0-0.2,0-0.3
				c0-0.1,0.1-0.2,0.1-0.3c0,0,0.3-0.3,0.3-0.3c0.1-0.1,0.2-0.1,0.2-0.1C-302.8,371.1-302,371.1-302,371.1z"/>
			<path fill="#231F20" d="M-300.8,370.4C-300.8,370.4-300.8,370.5-300.8,370.4c0.1,0,0.1,0.1,0.1,0.1c0,0,0,0,0,0.5l0,0.4l0.2-0.1
				c0.1-0.1,0.2-0.1,0.2-0.1c0.1,0,0.1,0,0.2,0c0,0,0.3,0,0.3,0c0.1,0,0.2,0.1,0.3,0.1c0.1,0.1,0.1,0.2,0.1,0.3c0,0,0,1.2,0,1.2
				c0,0,0,0,0,0c0,0.1-0.1,0.1-0.2,0.1c-0.1,0-0.1-0.1-0.2-0.1c0,0,0-0.1,0-0.6c0-0.5,0-0.6,0-0.6c0-0.1-0.1-0.1-0.1-0.1l0,0h-0.1
				c-0.1,0-0.1,0-0.2,0c0,0-0.1,0.1-0.3,0.2l-0.2,0.2l0,0.5c0,0.6,0,0.5,0,0.6c0,0,0,0.1-0.1,0.1c0,0-0.1,0-0.1,0c0,0,0,0-0.1,0
				c0,0,0,0,0-0.1c0,0,0-2.3,0-2.3c0,0,0-0.1,0-0.1S-300.9,370.5-300.8,370.4C-300.9,370.4-300.9,370.4-300.8,370.4z"/>
			<path fill="#231F20" d="M-297.8,370.4c0.6,0,0.6,0,0.6,0c0.1,0,0.2,0.1,0.2,0.3c0,0,0,0.8,0,0.9c0,0.1,0,0.1-0.1,0.2
				c0,0-0.1,0.1-0.2,0.1l0,0l-0.5,0c-0.3,0-0.5,0-0.5,0s0,0.2,0,0.4v0.4h0.6c0.5,0,0.6,0,0.6,0c0.1,0,0.1,0.1,0.1,0.2
				c0,0.1-0.1,0.1-0.1,0.2c0,0-0.1,0-0.8,0h-0.7v-0.6l0-0.6l0,0c0-0.1,0-0.1,0.1-0.2c0.1-0.1,0.1-0.1,0.2-0.1c0,0,0.2,0,0.5,0h0.5
				v-0.4v-0.4h-0.6h-0.6l0,0c0,0-0.1,0-0.1-0.1c0,0,0-0.1,0-0.1c0,0,0.1-0.1,0.1-0.1C-298.4,370.4-298.2,370.4-297.8,370.4z"/>
			<path fill="#231F20" d="M-294.6,371.1c0.1,0,0.1,0.1,0.1,0.2c0,0.1,0,0.1-0.1,0.2c0,0,0,0-0.4,0l-0.4,0l0,0c0,0,0,0,0,0
				c0,0-0.1,0.1-0.2,0.1c-0.1,0.1-0.2,0.1-0.2,0.1c0,0,0,0,0,0.1l0,0v0.2c0,0.2,0,0.2,0,0.2c0,0,0,0,0,0.1c0,0,0.1,0,0.2,0.1
				c0.1,0.1,0.2,0.1,0.2,0.1c0,0,0,0,0,0c0,0,0,0,0.4,0c0.4,0,0.4,0,0.4,0c0.1,0,0.1,0.1,0.1,0.2c0,0.1-0.1,0.1-0.1,0.2
				c0,0-0.7,0-0.8,0c-0.1,0-0.2,0-0.2-0.1c0,0-0.3-0.3-0.3-0.3c-0.1-0.1-0.1-0.1-0.1-0.2c0-0.1,0,0,0-0.3c0-0.2,0-0.2,0-0.3
				c0-0.1,0.1-0.2,0.1-0.3c0,0,0.3-0.3,0.3-0.3c0.1-0.1,0.2-0.1,0.2-0.1C-295.4,371.1-294.6,371.1-294.6,371.1z"/>
			<path fill="#231F20" d="M-293.4,370.4C-293.4,370.4-293.4,370.5-293.4,370.4c0.1,0,0.1,0.1,0.1,0.1c0,0,0,0,0,0.5l0,0.4l0.2-0.1
				c0.1-0.1,0.2-0.1,0.2-0.1c0.1,0,0.1,0,0.2,0c0,0,0.3,0,0.3,0c0.1,0,0.2,0.1,0.3,0.1c0.1,0.1,0.1,0.2,0.1,0.3c0,0,0,1.2,0,1.2
				c0,0,0,0,0,0c0,0.1-0.1,0.1-0.2,0.1c-0.1,0-0.1-0.1-0.2-0.1c0,0,0-0.1,0-0.6c0-0.5,0-0.6,0-0.6c0-0.1,0-0.1-0.1-0.1l0,0h-0.1
				c-0.1,0-0.1,0-0.2,0c0,0-0.1,0.1-0.3,0.2l-0.2,0.2l0,0.5c0,0.6,0,0.5,0,0.6c0,0,0,0.1-0.1,0.1c0,0-0.1,0-0.1,0c0,0,0,0-0.1,0
				c0,0,0,0,0-0.1c0,0,0-2.3,0-2.3c0,0,0-0.1,0-0.1S-293.5,370.5-293.4,370.4C-293.5,370.4-293.5,370.4-293.4,370.4z"/>
			<path fill="#231F20" d="M-290.6,370.4h0.4v1.1v1.1h0.2h0.2v-0.3c0-0.4,0-0.4,0-0.4c0,0,0,0,0,0c0,0,0,0,0.1-0.1c0,0,0,0,0.1,0
				c0,0,0.1,0,0.1,0c0,0,0,0,0.1,0.1c0,0,0,0,0,0.1c0,0,0,0.1,0,0.5c0,0.5,0,0.4,0,0.5c0,0,0,0.1-0.1,0.1c0,0,0,0,0,0c0,0,0,0-0.7,0
				h-0.7l0,0c-0.1,0-0.1-0.1-0.1-0.2c0-0.1,0-0.1,0.1-0.2l0,0l0.3,0h0.3v-0.9v-0.9h-0.3h-0.3l0,0c0,0-0.1,0-0.1-0.1c0,0,0-0.1,0-0.1
				c0,0,0.1-0.1,0.1-0.1C-291,370.4-290.8,370.4-290.6,370.4z"/>
			<path fill="#231F20" d="M-287.2,371.1c0.1,0,0.1,0.1,0.1,0.2c0,0.1,0,0.1-0.1,0.2c0,0,0,0-0.4,0l-0.4,0l0,0c0,0,0,0,0,0
				c0,0-0.1,0.1-0.2,0.1c-0.1,0.1-0.2,0.1-0.2,0.1c0,0,0,0,0,0.1l0,0v0.2c0,0.2,0,0.2,0,0.2c0,0,0,0,0,0.1c0,0,0.1,0,0.2,0.1
				c0.1,0.1,0.2,0.1,0.2,0.1c0,0,0,0,0,0c0,0,0,0,0.4,0c0.4,0,0.4,0,0.4,0c0.1,0,0.1,0.1,0.1,0.2c0,0.1-0.1,0.1-0.1,0.2
				c0,0-0.7,0-0.8,0c-0.1,0-0.2,0-0.2-0.1c0,0-0.3-0.3-0.3-0.3c-0.1-0.1-0.1-0.1-0.1-0.2c0-0.1,0,0,0-0.3c0-0.2,0-0.2,0-0.3
				c0-0.1,0.1-0.2,0.1-0.3c0,0,0.3-0.3,0.3-0.3c0.1-0.1,0.2-0.1,0.2-0.1C-288,371.1-287.2,371.1-287.2,371.1z"/>
			<path fill="#231F20" d="M-286,370.4C-286,370.4-286,370.5-286,370.4c0.1,0,0.1,0.1,0.1,0.1c0,0,0,0,0,0.5l0,0.4l0.2-0.1
				c0.1-0.1,0.2-0.1,0.2-0.1c0.1,0,0.1,0,0.2,0c0,0,0.3,0,0.3,0c0.1,0,0.2,0.1,0.3,0.1c0.1,0.1,0.1,0.2,0.1,0.3c0,0,0,1.2,0,1.2
				c0,0,0,0,0,0c0,0.1-0.1,0.1-0.2,0.1c-0.1,0-0.1-0.1-0.2-0.1c0,0,0-0.1,0-0.6c0-0.5,0-0.6,0-0.6c0-0.1,0-0.1-0.1-0.1l0,0h-0.1
				c-0.1,0-0.1,0-0.2,0c0,0-0.1,0.1-0.3,0.2l-0.2,0.2l0,0.5c0,0.6,0,0.5,0,0.6c0,0,0,0.1-0.1,0.1c0,0-0.1,0-0.1,0c0,0,0,0-0.1,0
				c0,0,0,0,0-0.1c0,0,0-2.3,0-2.3c0,0,0-0.1,0-0.1S-286.1,370.5-286,370.4C-286.1,370.4-286.1,370.4-286,370.4z"/>
			<path fill="#231F20" d="M-283,370.4c0.5,0,0.5,0,0.6,0c0.1,0,0.2,0.1,0.2,0.3c0,0,0,0.3,0,1l0,1l0,0c0,0.1,0,0.1-0.1,0.1
				c-0.1,0.1-0.1,0.1-0.2,0.1c0,0-0.2,0-0.5,0l-0.5,0l0,0c-0.1,0-0.1-0.1-0.2-0.1c0,0-0.1-0.1-0.1-0.1c0,0,0,0,0-1c0-1,0-1,0-1
				c0-0.1,0.1-0.2,0.3-0.2C-283.5,370.4-283.2,370.4-283,370.4z M-282.5,370.8h-0.5h-0.5v0.9v0.9h0.5h0.5v-0.9V370.8z"/>
			<path fill="#231F20" d="M-275.6,371.1c0.1,0,0.2,0,0.2,0c0.1,0,0.2,0,0.2,0.1c0,0,0,0,0.1,0.1l0.1,0.1l0,0c0,0,0-0.1,0-0.1
				c0,0,0-0.1,0.1-0.1c0,0,0,0,0.1,0c0,0,0.1,0,0.1,0c0,0,0,0,0.1,0.1c0,0,0,0,0,0c0,0,0,0,0,1c0,0.9,0,0.9,0,0.9
				c0,0.1-0.1,0.2-0.1,0.3c0,0-0.1,0.1-0.2,0.1c-0.1,0.1-0.2,0.1-0.3,0.1c0,0-0.1,0-0.4,0h-0.4l0,0c-0.1,0-0.1-0.1-0.1-0.2
				c0-0.1,0-0.1,0.1-0.2l0,0l0.4,0l0.4,0l0,0c0,0,0,0,0.1-0.1c0.1-0.1,0.1-0.1,0.1-0.1l0,0v-0.2c0-0.2,0-0.2,0-0.2c0,0,0,0-0.1,0.1
				c-0.1,0.1-0.1,0.1-0.1,0.1c-0.1,0-0.1,0.1-0.2,0.1c0,0-0.3,0-0.4,0c-0.1,0-0.2,0-0.2-0.1c0,0-0.2-0.1-0.2-0.2
				c-0.1-0.1-0.1-0.1-0.1-0.2c0-0.1,0,0,0-0.4c0-0.2,0-0.3,0-0.3c0-0.1,0.1-0.2,0.1-0.3c0,0,0.1-0.1,0.2-0.2
				c0.1-0.1,0.2-0.1,0.2-0.1C-275.8,371.1-275.8,371.1-275.6,371.1z M-275.8,371.5c0,0,0,0-0.1,0.1c-0.1,0.1-0.1,0.1-0.1,0.1
				c0,0,0,0,0,0.3c0,0.3,0,0.3,0,0.3c0,0,0,0,0.1,0.1c0.1,0.1,0.1,0.1,0.1,0.1l0,0h0.1c0.2,0,0.2,0,0.2,0c0,0,0,0,0.1-0.1l0.2-0.1
				c0.1,0,0.1-0.1,0.1-0.1l0,0V372v-0.2l0,0c0,0,0,0,0-0.1c0,0-0.3-0.3-0.3-0.3c0,0,0,0-0.1,0C-275.5,371.5-275.8,371.5-275.8,371.5
				z"/>
			<path fill="#231F20" d="M-273.7,371.2C-273.6,371.2-273.6,371.2-273.7,371.2c0.1,0.1,0.1,0.1,0.1,0.2l0,0.1l0.2-0.1
				c0.1-0.1,0.2-0.1,0.2-0.1c0.1,0,0.1,0,0.2,0c0,0,0.3,0,0.3,0c0.1,0,0.2,0.1,0.3,0.1c0.1,0.1,0.1,0.2,0.1,0.3c0,0,0,1.2,0,1.2
				c0,0,0,0,0,0c0,0.1-0.1,0.1-0.2,0.1c-0.1,0-0.1,0-0.1-0.1c0,0,0,0,0-0.7c0-0.5,0-0.6,0-0.6c0-0.1,0-0.1-0.1-0.1l0,0h-0.1
				c-0.1,0-0.1,0-0.2,0c0,0-0.1,0.1-0.3,0.2l-0.2,0.2l0,0.5c0,0.6,0,0.5,0,0.6c0,0,0,0.1-0.1,0.1c0,0-0.1,0-0.1,0c0,0,0,0-0.1,0
				c0,0,0,0,0-0.1c0,0,0-1.6,0-1.6c0,0,0-0.1,0-0.1c0,0,0.1,0,0.1,0C-273.7,371.1-273.7,371.1-273.7,371.2z"/>
			<path fill="#231F20" d="M-269.9,370.4C-269.9,370.5-269.9,370.5-269.9,370.4c0.1,0.1,0.1,0.1,0.1,0.1c0,0,0,0.1,0,1.2
				s0,1.1,0,1.2c0,0,0,0,0,0c0,0,0,0.1-0.1,0.1c0,0-0.1,0-0.1,0c0,0,0,0-0.1,0c0,0-0.1-0.1-0.1-0.1c0,0,0,0,0,0c0,0,0,0-0.1,0.1
				c0,0-0.1,0.1-0.1,0.1c-0.1,0.1-0.2,0.1-0.2,0.1c0,0-0.3,0-0.4,0c-0.1,0-0.2,0-0.2-0.1c0,0-0.2-0.1-0.2-0.2
				c-0.1-0.1-0.1-0.2-0.1-0.3c0,0,0-0.7,0-0.8c0-0.1,0.1-0.2,0.1-0.3c0,0,0.1-0.1,0.2-0.2c0.1,0,0.1-0.1,0.2-0.1c0.1,0,0.1,0,0.2,0
				c0.1,0,0.2,0,0.2,0c0.1,0,0.2,0,0.2,0.1c0,0,0,0,0.1,0.1l0.1,0.1l0-0.4c0-0.4,0-0.4,0-0.4c0,0,0-0.1,0-0.1
				S-270,370.4-269.9,370.4C-270,370.4-270,370.4-269.9,370.4z M-270.9,371.5c0,0,0,0-0.1,0.1c-0.1,0.1-0.1,0.1-0.1,0.1
				c0,0,0,0,0,0.4c0,0.4,0,0.4,0,0.4c0,0,0,0,0.1,0.1c0.1,0.1,0.1,0.1,0.1,0.1l0,0h0.1c0.2,0,0.2,0,0.2,0c0,0,0,0,0.1-0.1l0.1-0.1
				c0.1,0,0.1-0.1,0.1-0.1l0,0v-0.2v-0.2l0,0c0,0,0,0,0-0.1c0,0-0.3-0.3-0.3-0.3c0,0,0,0-0.1,0
				C-270.6,371.5-270.8,371.5-270.9,371.5z"/>
		</g>
	</g>
</g>
<g id="_x30_.1.0.2.31.0_23_">
	<title  id="0.1.0.2.31.0.0">text:Arduino</title>
	<g id="_x30_.1.0.2.31.0.1_23_" transform="matrix(1 0 0 1 109.0161 55.1792)">
		<g id="_x30_.1.0.2.31.0.1.0_23_" enable-background="new    ">
			<path fill="#231F20" d="M-348.8,370.1c0-0.1,0-0.1,0-0.2c0-0.1,0-0.2,0.1-0.2c0,0,0,0,0.1-0.1l0.1-0.1l0,0c0,0-0.1,0-0.1,0
				c0,0-0.1,0-0.1-0.1c0,0,0,0,0-0.1c0,0,0-0.1,0-0.1c0,0,0,0,0.1-0.1c0,0,0,0,0,0c0,0,0,0,1,0c0.9,0,0.9,0,1,0
				c0.1,0,0.2,0.1,0.3,0.1c0,0,0.1,0.1,0.1,0.2c0.1,0.1,0.1,0.2,0.1,0.3c0,0,0,0.1,0,0.4v0.4l0,0c0,0.1-0.1,0.1-0.2,0.1
				s-0.1,0-0.2-0.1l0,0l0-0.4l0-0.4l0,0c0,0,0,0-0.1-0.1c-0.1-0.1-0.1-0.1-0.1-0.1l0,0h-0.2c-0.2,0-0.2,0-0.2,0c0,0,0,0,0.1,0.1
				c0.1,0.1,0.1,0.1,0.1,0.1c0,0.1,0.1,0.1,0.1,0.2c0,0,0,0.3,0,0.3c0,0.1,0,0.2-0.1,0.2c0,0-0.1,0.1-0.2,0.2
				c-0.1,0.1-0.1,0.1-0.2,0.1c-0.1,0,0,0-0.4,0c-0.2,0-0.3,0-0.3,0c-0.1,0-0.2-0.1-0.3-0.1c0,0-0.1-0.1-0.2-0.2
				c-0.1-0.1-0.1-0.1-0.1-0.2C-348.8,370.3-348.8,370.2-348.8,370.1z M-348.5,370.3c0,0,0,0,0.1,0.1c0.1,0.1,0.1,0.1,0.1,0.1
				c0,0,0,0,0.3,0s0.3,0,0.3,0c0,0,0,0,0.1-0.1c0.1-0.1,0.1-0.1,0.1-0.1l0,0v-0.1c0-0.2,0-0.2,0-0.2c0,0,0,0-0.1-0.1l-0.1-0.1
				c0-0.1-0.1-0.1-0.1-0.1l0,0h-0.2h-0.2l0,0c0,0,0,0-0.1,0c0,0-0.3,0.3-0.3,0.3c0,0,0,0,0,0.1C-348.5,370-348.5,370.2-348.5,370.3z
				"/>
			<path fill="#231F20" d="M-348.8,368.2C-348.8,368.2-348.8,368.2-348.8,368.2c0.1-0.1,0.1-0.1,0.2-0.1l0.1,0l-0.1-0.2
				c-0.1-0.1-0.1-0.2-0.1-0.2c0,0,0-0.1,0-0.2c0,0,0-0.3,0-0.3c0-0.1,0.1-0.2,0.1-0.3c0.1-0.1,0.2-0.1,0.3-0.1c0,0,1.2,0,1.2,0
				c0,0,0,0,0,0c0.1,0,0.1,0.1,0.1,0.2c0,0.1,0,0.1-0.1,0.1c0,0,0,0-0.7,0c-0.5,0-0.6,0-0.6,0c-0.1,0-0.1,0-0.1,0.1l0,0v0.1
				c0,0.1,0,0.1,0,0.2c0,0,0.1,0.1,0.2,0.3l0.2,0.2l0.5,0c0.6,0,0.5,0,0.6,0c0,0,0.1,0,0.1,0.1c0,0,0,0.1,0,0.1c0,0,0,0,0,0.1
				c0,0-0.1,0-0.1,0c0,0-1.6,0-1.6,0c0,0-0.1,0-0.1,0c0,0,0,0,0-0.1C-348.8,368.3-348.8,368.2-348.8,368.2z"/>
			<path fill="#231F20" d="M-349.5,364.6C-349.5,364.6-349.5,364.6-349.5,364.6c0.1-0.1,0.1-0.1,0.1-0.1c0,0,0.1,0,1.2,0
				s1.1,0,1.2,0c0,0,0,0,0,0c0,0,0.1,0,0.1,0.1c0,0,0,0.1,0,0.1c0,0,0,0,0,0.1c0,0-0.1,0-0.1,0c0,0,0,0,0,0c0,0,0,0,0.1,0.1
				c0,0,0.1,0.1,0.1,0.1c0.1,0.1,0.1,0.1,0.1,0.2c0,0,0,0.3,0,0.3c0,0.1,0,0.2-0.1,0.2c0,0-0.1,0.2-0.2,0.2
				c-0.1,0.1-0.2,0.1-0.3,0.1c0,0-0.7,0-0.8,0c-0.1,0-0.2-0.1-0.3-0.1c0,0-0.1-0.1-0.2-0.2c0-0.1-0.1-0.1-0.1-0.2c0,0,0-0.1,0-0.2
				c0-0.1,0-0.1,0-0.2c0-0.1,0-0.2,0.1-0.2c0,0,0,0,0.1-0.1l0.1-0.1l-0.4,0c-0.4,0-0.4,0-0.4,0c0,0-0.1,0-0.1,0
				C-349.5,364.8-349.5,364.7-349.5,364.6C-349.5,364.7-349.5,364.7-349.5,364.6z M-348.5,365.5c0,0,0,0,0.1,0.1
				c0.1,0.1,0.1,0.1,0.1,0.1c0,0,0,0,0.4,0s0.4,0,0.4,0c0,0,0,0,0.1-0.1c0.1-0.1,0.1-0.1,0.1-0.1l0,0v-0.1c0-0.2,0-0.2,0-0.2
				c0,0,0,0-0.1-0.1l-0.1-0.1c0-0.1-0.1-0.1-0.1-0.1l0,0h-0.2h-0.2l0,0c0,0,0,0-0.1,0c0,0-0.3,0.3-0.3,0.3c0,0,0,0,0,0.1
				C-348.5,365.3-348.5,365.5-348.5,365.5z"/>
			<path fill="#231F20" d="M-349.5,361.3v-0.6c0-0.6,0-0.6,0-0.6c0.1-0.2,0.2-0.3,0.4-0.4c0,0,0,0,0.2,0c0.1,0,0.1,0,0.2,0
				c0.2,0,0.3,0.2,0.4,0.3c0,0.1,0,0.1,0,0.2l0,0.1l0.6-0.3c0.3-0.2,0.6-0.3,0.6-0.3c0.1,0,0.1,0,0.2,0c0.1,0.1,0.1,0.2,0,0.2
				c0,0,0,0,0,0l-0.7,0.4l-0.6,0.4v0.1v0.1h0.6c0.6,0,0.6,0,0.6,0c0,0,0,0,0.1,0c0,0,0,0,0,0.1c0,0,0,0.1,0,0.1c0,0,0,0,0,0.1
				c0,0,0,0-0.1,0c0,0,0.1,0-1.2,0H-349.5z M-349.2,360.6v0.4h0.3h0.3l0-0.4c0-0.4,0-0.4,0-0.4c0,0,0-0.1-0.1-0.1c0,0,0,0-0.2,0
				c-0.1,0-0.1,0-0.2,0c0,0-0.1,0.1-0.1,0.1C-349.2,360.2-349.2,360.2-349.2,360.6z"/>
			<path fill="#231F20" d="M-349.5,358.7C-349.5,358.7-349.5,358.7-349.5,358.7c0.1-0.1,0.3-0.2,0.5-0.3l0.4-0.2l0,0l-0.4-0.2
				l-0.4-0.2c-0.1-0.1-0.1-0.2,0-0.2c0,0,0,0,0.1,0c0,0,0.1,0,0.1,0c0,0,0.2,0.1,0.5,0.3c0.3,0.2,0.5,0.3,0.5,0.3
				c0,0,0.2-0.1,0.5-0.3s0.5-0.3,0.5-0.3c0,0,0.1,0,0.1,0c0,0,0.1,0,0.1,0c0.1,0.1,0.1,0.2,0,0.2l-0.4,0.2l-0.4,0.2l0,0l0.4,0.2
				c0.2,0.1,0.4,0.2,0.4,0.3c0,0,0.1,0,0.1,0.1c0,0.1,0,0.2-0.1,0.2c0,0-0.1,0-0.1,0c0,0-0.2-0.1-0.5-0.3c-0.3-0.2-0.5-0.3-0.5-0.3
				c0,0-0.2,0.1-0.5,0.3s-0.5,0.3-0.5,0.3c0,0-0.1,0-0.1,0c0,0-0.1-0.1-0.1-0.1C-349.5,358.8-349.5,358.8-349.5,358.7z"/>
			<path fill="#231F20" d="M-349.5,354.2v-0.8v-0.8h0.2c0.2,0,0.2,0,0.3,0c0,0,0.1,0,0.1,0.1c0,0,0,0,0,0.1c0,0,0,0,0,0.1
				c0,0-0.1,0.1-0.1,0.1c0,0,0,0-0.1,0h-0.1v0.2v0.2h1c1,0,1,0,1.1,0c0,0,0.1,0,0.1,0.1c0,0,0,0.1,0,0.1c0,0,0,0,0,0.1
				c0,0,0,0-0.1,0c0,0,0,0-1.1,0h-1v0.2v0.2h0.1c0.1,0,0.1,0,0.1,0c0,0,0.1,0,0.1,0.1c0,0,0,0,0,0.1c0,0,0,0,0,0.1
				c0,0-0.1,0.1-0.1,0.1c0,0,0,0-0.3,0L-349.5,354.2L-349.5,354.2z"/>
			<path fill="#231F20" d="M-349.5,351.6C-349.5,351.6-349.5,351.6-349.5,351.6c0.1-0.1,0.3-0.2,0.5-0.3l0.4-0.2l0,0l-0.4-0.2
				l-0.4-0.2c-0.1-0.1-0.1-0.2,0-0.2c0,0,0,0,0.1,0c0,0,0.1,0,0.1,0c0,0,0.2,0.1,0.5,0.3c0.3,0.2,0.5,0.3,0.5,0.3
				c0,0,0.2-0.1,0.5-0.3s0.5-0.3,0.5-0.3c0,0,0.1,0,0.1,0c0,0,0.1,0,0.1,0c0.1,0.1,0.1,0.2,0,0.2l-0.4,0.2l-0.4,0.2l0,0l0.4,0.2
				c0.2,0.1,0.4,0.2,0.4,0.3c0,0,0.1,0,0.1,0.1c0,0.1,0,0.2-0.1,0.2c0,0-0.1,0-0.1,0c0,0-0.2-0.1-0.5-0.3c-0.3-0.2-0.5-0.3-0.5-0.3
				c0,0-0.2,0.1-0.5,0.3c-0.3,0.2-0.5,0.3-0.5,0.3c0,0-0.1,0-0.1,0c0,0-0.1-0.1-0.1-0.1C-349.5,351.7-349.5,351.6-349.5,351.6z"/>
			<path fill="#231F20" d="M-349.5,346.3C-349.5,346.3-349.5,346.3-349.5,346.3c0-0.1,0.1-0.1,0.1-0.1c0,0,0.2-0.1,1.1-0.3
				c0.6-0.2,1.1-0.3,1.1-0.3c0,0,0,0,0,0c0.1,0,0.2,0.1,0.2,0.2c0,0-0.1,0.1-0.1,0.1c0,0-0.1,0-0.2,0.1l-0.2,0.1v0.3v0.3l0.2,0.1
				c0.1,0,0.2,0.1,0.2,0.1c0,0,0.1,0,0.1,0.1c0.1,0.1,0,0.2-0.1,0.2c0,0-0.1,0-0.1,0c0,0-2.2-0.6-2.2-0.6c0,0,0,0-0.1,0
				C-349.5,346.4-349.5,346.4-349.5,346.3C-349.5,346.4-349.5,346.3-349.5,346.3z M-348.8,346.3c0,0,0.2,0.1,0.5,0.1l0.5,0.1l0-0.1
				c0-0.1,0-0.2,0-0.3l0-0.1l-0.5,0.1C-348.6,346.3-348.8,346.3-348.8,346.3z"/>
			<path fill="#231F20" d="M-349.5,344c0-0.6,0-0.6,0-0.6c0-0.1,0.1-0.2,0.3-0.2c0,0,0.7,0,0.7,0c0.1,0,0.2,0,0.3,0.1l0,0
				c0,0,0,0,0,0c0,0,0.1-0.1,0.1-0.1c0,0,0.1,0,0.1,0l0,0h0.4h0.4l0,0c0.1,0,0.1,0,0.1,0.1c0.1,0.1,0.1,0.1,0.1,0.2c0,0,0,0.2,0,0.6
				v0.6l0,0c0,0.1-0.1,0.1-0.2,0.1c-0.1,0-0.1,0-0.2-0.1l0,0v-0.6v-0.6h-0.3c-0.4,0-0.3,0-0.4,0c0,0-0.1,0-0.1,0.1c0,0,0,0,0,0.4
				c0,0.4,0,0.3,0,0.4c0,0-0.1,0.1-0.1,0.1c0,0,0,0,0,0c0,0,0,0,0,0c0,0-0.1,0-0.1-0.1c0,0,0,0,0-0.4l0-0.3l0,0
				c0-0.1-0.1-0.1-0.1-0.1c0,0,0,0-0.3,0h-0.3v0.6v0.6l0,0c0,0,0,0.1-0.1,0.1c0,0-0.1,0-0.1,0c0,0-0.1-0.1-0.1-0.1
				C-349.5,344.6-349.5,344.4-349.5,344z"/>
			<path fill="#231F20" d="M-349.5,339.2C-349.5,339.2-349.5,339.2-349.5,339.2c0-0.1,0.1-0.1,0.1-0.1c0,0,0.2-0.1,1.1-0.3
				c0.6-0.2,1.1-0.3,1.1-0.3c0,0,0,0,0,0c0.1,0,0.2,0.1,0.2,0.2c0,0-0.1,0.1-0.1,0.1c0,0-0.1,0-0.2,0.1l-0.2,0.1v0.3v0.3l0.2,0.1
				c0.1,0,0.2,0.1,0.2,0.1c0,0,0.1,0,0.1,0.1c0.1,0.1,0,0.2-0.1,0.2c0,0-0.1,0-0.1,0c0,0-2.2-0.6-2.2-0.6c0,0,0,0-0.1,0
				C-349.5,339.3-349.5,339.3-349.5,339.2C-349.5,339.2-349.5,339.2-349.5,339.2z M-348.8,339.2c0,0,0.2,0.1,0.5,0.1l0.5,0.1l0-0.1
				c0-0.1,0-0.2,0-0.3l0-0.1l-0.5,0.1C-348.6,339.2-348.8,339.2-348.8,339.2z"/>
			<path fill="#231F20" d="M-349.5,336.9c0-0.6,0-0.6,0-0.6c0-0.1,0.1-0.2,0.3-0.2c0,0,0.8,0,0.9,0c0.1,0,0.1,0,0.2,0.1
				c0,0,0.1,0.1,0.1,0.1l0,0l0,0.5c0,0.3,0,0.5,0,0.5s0.2,0,0.4,0h0.4v-0.6c0-0.5,0-0.6,0-0.6c0-0.1,0.1-0.1,0.2-0.1
				c0.1,0,0.1,0.1,0.2,0.1c0,0,0,0.1,0,0.7v0.7h-0.6h-0.6l0,0c-0.1,0-0.1,0-0.2-0.1c-0.1-0.1-0.1-0.1-0.1-0.2c0,0,0-0.2,0-0.5v-0.5
				h-0.4h-0.4v0.6v0.6l0,0c0,0,0,0.1-0.1,0.1c0,0-0.1,0-0.1,0c0,0-0.1-0.1-0.1-0.1C-349.5,337.5-349.5,337.2-349.5,336.9z"/>
			<path fill="#231F20" d="M-349.5,332.1C-349.5,332.1-349.5,332.1-349.5,332.1c0-0.1,0.1-0.1,0.1-0.1c0,0,0.2-0.1,1.1-0.3
				c0.6-0.2,1.1-0.3,1.1-0.3c0,0,0,0,0,0c0.1,0,0.2,0.1,0.2,0.2c0,0-0.1,0.1-0.1,0.1c0,0-0.1,0-0.2,0.1l-0.2,0.1v0.3v0.3l0.2,0.1
				c0.1,0,0.2,0.1,0.2,0.1c0,0,0.1,0,0.1,0.1c0.1,0.1,0,0.2-0.1,0.2c0,0-0.1,0-0.1,0c0,0-2.2-0.6-2.2-0.6c0,0,0,0-0.1,0
				C-349.5,332.2-349.5,332.2-349.5,332.1C-349.5,332.1-349.5,332.1-349.5,332.1z M-348.8,332.1c0,0,0.2,0.1,0.5,0.1l0.5,0.1l0-0.1
				c0-0.1,0-0.2,0-0.3l0-0.1l-0.5,0.1C-348.6,332.1-348.8,332.1-348.8,332.1z"/>
			<path fill="#231F20" d="M-349.5,330v-0.4h1.1h1.1v-0.2v-0.2h-0.3c-0.4,0-0.4,0-0.4,0c0,0,0,0,0,0c0,0,0,0-0.1-0.1c0,0,0,0,0-0.1
				c0,0,0-0.1,0-0.1c0,0,0,0,0.1-0.1c0,0,0,0,0.1,0c0,0,0.1,0,0.5,0c0.5,0,0.4,0,0.5,0c0,0,0.1,0,0.1,0.1c0,0,0,0,0,0c0,0,0,0,0,0.7
				v0.6l0,0c0,0.1-0.1,0.1-0.2,0.1c-0.1,0-0.1,0-0.2-0.1l0,0l0-0.2v-0.2h-0.9h-0.9v0.2v0.2l0,0c0,0,0,0.1-0.1,0.1c0,0-0.1,0-0.1,0
				c0,0-0.1-0.1-0.1-0.1C-349.5,330.4-349.5,330.2-349.5,330z"/>
			<path fill="#231F20" d="M-349.5,325C-349.5,325-349.5,324.9-349.5,325c0-0.1,0.1-0.1,0.1-0.1c0,0,0.2-0.1,1.1-0.3
				c0.6-0.2,1.1-0.3,1.1-0.3c0,0,0,0,0,0c0.1,0,0.2,0.1,0.2,0.2c0,0-0.1,0.1-0.1,0.1c0,0-0.1,0-0.2,0.1l-0.2,0.1v0.3v0.3l0.2,0.1
				c0.1,0,0.2,0.1,0.2,0.1c0,0,0.1,0,0.1,0.1c0.1,0.1,0,0.2-0.1,0.2c0,0-0.1,0-0.1,0c0,0-2.2-0.6-2.2-0.6c0,0,0,0-0.1,0
				C-349.5,325.1-349.5,325.1-349.5,325C-349.5,325-349.5,325-349.5,325z M-348.8,325c0,0,0.2,0.1,0.5,0.1l0.5,0.1l0-0.1
				c0-0.1,0-0.2,0-0.3l0-0.1l-0.5,0.1C-348.6,324.9-348.8,325-348.8,325z"/>
			<path fill="#231F20" d="M-349.5,322.6c0-0.5,0-0.5,0-0.5c0-0.1,0.1-0.2,0.3-0.2c0,0,0.3,0,1,0h1l0,0c0.1,0,0.1,0,0.1,0.1
				c0.1,0.1,0.1,0.1,0.1,0.2c0,0,0,0.2,0,0.5l0,0.5l0,0c0,0.1-0.1,0.1-0.1,0.2c0,0-0.1,0.1-0.1,0.1c0,0,0,0-1,0s-1,0-1,0
				c-0.1,0-0.2-0.1-0.2-0.3C-349.5,323.1-349.5,322.9-349.5,322.6z M-349.2,322.2v0.5v0.5h0.9h0.9v-0.5v-0.5h-0.9H-349.2z"/>
			<path fill="#231F20" d="M-348.8,318.4C-348.8,318.4-348.8,318.4-348.8,318.4C-348.8,318.4-348.7,318.4-348.8,318.4
				c0.1-0.1,0.1-0.1,0.3-0.1h0.1l0.6-0.2c0.3-0.1,0.6-0.2,0.6-0.2s-0.2-0.1-0.6-0.2l-0.6-0.2h-0.1c-0.1,0-0.1,0-0.2,0c0,0,0,0-0.1,0
				c0,0,0,0,0-0.1c0,0,0-0.1,0-0.1c0,0,0,0,0-0.1c0,0,0,0,0.1,0c0,0,0,0,0.2,0c0.2,0,0.2,0,0.2,0c0.1,0,1.3,0.5,1.3,0.5
				c0,0,0,0,0.1,0.1c0,0,0,0,0,0.1c0,0,0,0.2,0,0.3c0,0,0,0,0,0.1c0,0,0,0-0.1,0.1c0,0-1.2,0.5-1.3,0.5c0,0,0,0-0.2,0
				c-0.2,0-0.2,0-0.2,0c0,0,0,0-0.1,0c0,0,0,0,0-0.1S-348.8,318.5-348.8,318.4z"/>
			<path fill="#231F20" d="M-348.8,314.9c0-0.1,0.1-0.1,0.2-0.1c0.1,0,0.1,0,0.2,0.1c0,0,0,0,0,0.4l0,0.4l0,0c0,0,0,0,0,0
				c0,0,0.1,0.1,0.1,0.2c0.1,0.1,0.1,0.1,0.1,0.2c0,0,0,0,0.1,0l0,0h0.2c0.2,0,0.2,0,0.2,0c0,0,0,0,0.1,0c0,0,0-0.1,0.1-0.2
				c0.1-0.1,0.1-0.1,0.1-0.2c0,0,0,0,0,0c0,0,0,0,0-0.4c0-0.4,0-0.4,0-0.4c0-0.1,0.1-0.1,0.2-0.1c0.1,0,0.1,0.1,0.2,0.1
				c0,0,0,0.7,0,0.7c0,0.1,0,0.2-0.1,0.2c0,0-0.3,0.3-0.3,0.3c-0.1,0.1-0.1,0.1-0.2,0.1c-0.1,0,0,0-0.3,0c-0.2,0-0.2,0-0.3,0
				c-0.1,0-0.2-0.1-0.3-0.1c0,0-0.3-0.3-0.3-0.3c-0.1-0.1-0.1-0.1-0.1-0.2C-348.8,315.6-348.8,314.9-348.8,314.9z"/>
			<path fill="#231F20" d="M-348.8,312.5c0-0.1,0.1-0.1,0.2-0.1c0.1,0,0.1,0,0.2,0.1c0,0,0,0,0,0.4l0,0.4l0,0c0,0,0,0,0,0
				c0,0,0.1,0.1,0.1,0.2c0.1,0.1,0.1,0.1,0.1,0.2c0,0,0,0,0.1,0l0,0h0.2c0.2,0,0.2,0,0.2,0c0,0,0,0,0.1,0c0,0,0-0.1,0.1-0.2
				c0.1-0.1,0.1-0.1,0.1-0.2c0,0,0,0,0,0c0,0,0,0,0-0.4c0-0.4,0-0.4,0-0.4c0-0.1,0.1-0.1,0.2-0.1c0.1,0,0.1,0.1,0.2,0.1
				c0,0,0,0.7,0,0.7c0,0.1,0,0.2-0.1,0.2c0,0-0.3,0.3-0.3,0.3c-0.1,0.1-0.1,0.1-0.2,0.1c-0.1,0,0,0-0.3,0c-0.2,0-0.2,0-0.3,0
				c-0.1,0-0.2-0.1-0.3-0.1c0,0-0.3-0.3-0.3-0.3c-0.1-0.1-0.1-0.1-0.1-0.2C-348.8,313.2-348.8,312.5-348.8,312.5z"/>
		</g>
	</g>
</g>
<g id="_x30_.1.0.2.31.0_22_">
	<title  id="0.1.0.2.31.0.0">text:Arduino</title>
	<g id="_x30_.1.0.2.31.0.1_22_" transform="matrix(1 0 0 1 109.0161 55.1792)">
		<g id="_x30_.1.0.2.31.0.1.0_22_" enable-background="new    ">
			<path fill="#231F20" d="M-318.2,312C-318.2,312-318.1,312-318.2,312C-318.1,312.1-318.1,312.1-318.2,312c0.1,0.1,0.1,0.1,0.1,0.3
				v0.1l0.2,0.6c0.1,0.3,0.2,0.6,0.2,0.6c0,0,0.1-0.2,0.2-0.6l0.2-0.6v-0.1c0-0.1,0-0.1,0-0.2c0,0,0,0,0-0.1c0,0,0,0,0.1,0
				c0,0,0.1,0,0.1,0c0,0,0,0,0.1,0c0,0,0,0,0,0.1c0,0,0,0,0,0.2c0,0.2,0,0.2,0,0.2c0,0.1-0.6,1.3-0.6,1.3c0,0,0,0-0.1,0.1
				c0,0,0,0-0.1,0c0,0-0.2,0-0.3,0c0,0,0,0-0.1,0c0,0,0,0-0.1-0.1c0,0-0.5-1.2-0.6-1.3c0,0,0,0,0-0.2c0-0.2,0-0.2,0-0.2
				c0,0,0,0,0-0.1c0,0,0.1,0,0.1,0C-318.2,312-318.2,312-318.2,312z"/>
			<path fill="#231F20" d="M-315.7,311.9c0.1,0,0.1,0.1,0.1,0.1c0,0,0,0,0,0.1l0,0.1l0.1-0.1c0,0,0.1-0.1,0.1-0.1
				c0.1-0.1,0.2-0.1,0.3-0.1c0,0,0.2,0,0.2,0c0.1,0,0.1,0,0.2,0.1c0,0,0,0,0.1,0.1c0.2,0.2,0.3,0.2,0.3,0.2c0.1,0.1,0.1,0.2,0.1,0.3
				c0,0,0,0,0,0.3v0.3l0,0c0,0.1-0.1,0.2-0.1,0.3c0,0-0.3,0.2-0.3,0.3c-0.1,0.1-0.2,0.1-0.3,0.1c0,0-0.1,0-0.2,0
				c-0.1,0-0.2,0-0.3-0.1c0,0,0,0-0.1-0.1l-0.1-0.1l0,0.4c0,0.4,0,0.4,0,0.4c0,0,0,0.1-0.1,0.1c0,0,0,0-0.1,0c0,0,0,0-0.1,0
				c0,0-0.1,0-0.1-0.1c0,0,0,0,0,0c0,0,0-0.1,0-1.2V312l0,0C-315.9,312-315.9,311.9-315.7,311.9
				C-315.8,311.9-315.8,311.9-315.7,311.9z M-315.2,312.2C-315.2,312.2-315.2,312.3-315.2,312.2c-0.1,0-0.4,0.3-0.4,0.4s0,0,0,0.1
				l0,0l0,0.2c0,0.2,0,0.2,0,0.2c0,0,0,0,0,0.1c0,0,0.3,0.3,0.3,0.3c0,0,0,0,0.1,0c0,0,0,0,0.1,0c0.1,0,0.1,0,0.1,0c0,0,0,0,0.2-0.2
				c0.1-0.1,0.2-0.1,0.2-0.1c0,0,0,0,0-0.1l0,0v-0.3c0-0.3,0-0.3,0-0.3c0,0,0,0,0-0.1c0,0-0.3-0.3-0.3-0.3c0,0,0,0,0,0
				C-315.1,312.2-315.2,312.2-315.2,312.2z"/>
			<path fill="#231F20" d="M-313.3,311.9c0.1,0,0.1,0.1,0.1,0.1c0,0,0,0,0,0.1l0,0.1l0.1-0.1c0,0,0.1-0.1,0.1-0.1
				c0.1-0.1,0.2-0.1,0.3-0.1c0,0,0.2,0,0.2,0c0.1,0,0.1,0,0.2,0.1c0,0,0,0,0.1,0.1c0.2,0.2,0.3,0.2,0.3,0.2c0.1,0.1,0.1,0.2,0.1,0.3
				c0,0,0,0,0,0.3v0.3l0,0c0,0.1-0.1,0.2-0.1,0.3c0,0-0.3,0.2-0.3,0.3c-0.1,0.1-0.2,0.1-0.3,0.1c0,0-0.1,0-0.2,0
				c-0.1,0-0.2,0-0.3-0.1c0,0,0,0-0.1-0.1l-0.1-0.1l0,0.4c0,0.4,0,0.4,0,0.4c0,0,0,0.1-0.1,0.1c0,0,0,0-0.1,0c0,0,0,0-0.1,0
				c0,0-0.1,0-0.1-0.1c0,0,0,0,0,0c0,0,0-0.1,0-1.2V312l0,0C-313.5,312-313.4,311.9-313.3,311.9
				C-313.3,311.9-313.3,311.9-313.3,311.9z M-312.7,312.2C-312.8,312.2-312.8,312.3-312.7,312.2c-0.1,0-0.4,0.3-0.4,0.4s0,0,0,0.1
				l0,0l0,0.2c0,0.2,0,0.2,0,0.2c0,0,0,0,0,0.1c0,0,0.3,0.3,0.3,0.3c0,0,0,0,0.1,0c0,0,0,0,0.1,0c0.1,0,0.1,0,0.1,0c0,0,0,0,0.2-0.2
				c0.1-0.1,0.2-0.1,0.2-0.1c0,0,0,0,0-0.1l0,0v-0.3c0-0.3,0-0.3,0-0.3c0,0,0,0,0-0.1c0,0-0.3-0.3-0.3-0.3c0,0,0,0,0,0
				C-312.6,312.2-312.7,312.2-312.7,312.2z"/>
		</g>
	</g>
</g>
<g id="_x30_.1.0.2.31.0_1_">
	<title  id="0.1.0.2.31.0.0">text:Arduino</title>
	<g id="_x30_.1.0.2.31.0.1_1_" transform="matrix(1 0 0 1 109.0161 55.1792)">
		<g id="_x30_.1.0.2.31.0.1.0_1_" enable-background="new    ">
			<path fill="#231F20" d="M-271.3,339.3C-271.3,339.3-271.3,339.4-271.3,339.3C-271.3,339.4-271.3,339.4-271.3,339.3
				c0.1,0.1,0.1,0.1,0.1,0.3v0.1l0.2,0.6c0.1,0.3,0.2,0.6,0.2,0.6s0.1-0.2,0.2-0.6l0.2-0.6v-0.1c0-0.1,0-0.1,0-0.2c0,0,0,0,0-0.1
				c0,0,0,0,0.1,0c0,0,0.1,0,0.1,0c0,0,0,0,0.1,0c0,0,0,0,0,0.1c0,0,0,0,0,0.2c0,0.2,0,0.2,0,0.2c0,0.1-0.6,1.3-0.6,1.3
				c0,0,0,0-0.1,0.1c0,0,0,0-0.1,0c0,0-0.2,0-0.3,0c0,0,0,0-0.1,0c0,0,0,0-0.1-0.1c0,0-0.5-1.2-0.6-1.3c0,0,0,0,0-0.2
				c0-0.2,0-0.2,0-0.2c0,0,0,0,0-0.1c0,0,0.1,0,0.1,0C-271.4,339.3-271.4,339.3-271.3,339.3z"/>
			<path fill="#231F20" d="M-268.9,339.2c0.1,0,0.1,0.1,0.1,0.1c0,0,0,0,0,0.1l0,0.1l0.1-0.1c0,0,0.1-0.1,0.1-0.1
				c0.1-0.1,0.2-0.1,0.3-0.1c0,0,0.2,0,0.2,0c0.1,0,0.1,0,0.2,0.1c0,0,0,0,0.1,0.1c0.2,0.2,0.3,0.2,0.3,0.2c0.1,0.1,0.1,0.2,0.1,0.3
				c0,0,0,0,0,0.3v0.3l0,0c0,0.1-0.1,0.2-0.1,0.3c0,0-0.3,0.2-0.3,0.3c-0.1,0.1-0.2,0.1-0.3,0.1c0,0-0.1,0-0.2,0
				c-0.1,0-0.2,0-0.3-0.1c0,0,0,0-0.1-0.1l-0.1-0.1l0,0.4c0,0.4,0,0.4,0,0.4c0,0,0,0.1-0.1,0.1c0,0,0,0-0.1,0c0,0,0,0-0.1,0
				c0,0-0.1,0-0.1-0.1c0,0,0,0,0,0c0,0,0-0.1,0-1.2v-1.2l0,0C-269.1,339.3-269,339.3-268.9,339.2
				C-269,339.2-268.9,339.2-268.9,339.2z M-268.4,339.6C-268.4,339.6-268.4,339.6-268.4,339.6c-0.1,0-0.4,0.3-0.4,0.4s0,0,0,0.1l0,0
				l0,0.2c0,0.2,0,0.2,0,0.2c0,0,0,0,0,0.1c0,0,0.3,0.3,0.3,0.3c0,0,0,0,0.1,0c0,0,0,0,0.1,0c0.1,0,0.1,0,0.1,0c0,0,0,0,0.2-0.2
				c0.1-0.1,0.2-0.1,0.2-0.1c0,0,0,0,0-0.1l0,0v-0.3c0-0.3,0-0.3,0-0.3c0,0,0,0,0-0.1c0,0-0.3-0.3-0.3-0.3c0,0,0,0,0,0
				C-268.2,339.6-268.3,339.6-268.4,339.6z"/>
			<path fill="#231F20" d="M-266.4,339.2c0.1,0,0.1,0.1,0.1,0.1c0,0,0,0,0,0.1l0,0.1l0.1-0.1c0,0,0.1-0.1,0.1-0.1
				c0.1-0.1,0.2-0.1,0.3-0.1c0,0,0.2,0,0.2,0c0.1,0,0.1,0,0.2,0.1c0,0,0,0,0.1,0.1c0.2,0.2,0.3,0.2,0.3,0.2c0.1,0.1,0.1,0.2,0.1,0.3
				c0,0,0,0,0,0.3v0.3l0,0c0,0.1-0.1,0.2-0.1,0.3c0,0-0.3,0.2-0.3,0.3c-0.1,0.1-0.2,0.1-0.3,0.1c0,0-0.1,0-0.2,0
				c-0.1,0-0.2,0-0.3-0.1c0,0,0,0-0.1-0.1l-0.1-0.1l0,0.4c0,0.4,0,0.4,0,0.4c0,0,0,0.1-0.1,0.1c0,0,0,0-0.1,0c0,0,0,0-0.1,0
				c0,0-0.1,0-0.1-0.1c0,0,0,0,0,0c0,0,0-0.1,0-1.2v-1.2l0,0C-266.6,339.3-266.6,339.3-266.4,339.2
				C-266.5,339.2-266.5,339.2-266.4,339.2z M-265.9,339.6C-265.9,339.6-265.9,339.6-265.9,339.6c-0.1,0-0.4,0.3-0.4,0.4s0,0,0,0.1
				l0,0l0,0.2c0,0.2,0,0.2,0,0.2c0,0,0,0,0,0.1c0,0,0.3,0.3,0.3,0.3c0,0,0,0,0.1,0c0,0,0,0,0.1,0c0.1,0,0.1,0,0.1,0c0,0,0,0,0.2-0.2
				c0.1-0.1,0.2-0.1,0.2-0.1c0,0,0,0,0-0.1l0,0v-0.3c0-0.3,0-0.3,0-0.3c0,0,0,0,0-0.1c0,0-0.3-0.3-0.3-0.3c0,0,0,0,0,0
				C-265.8,339.6-265.9,339.6-265.9,339.6z"/>
		</g>
	</g>
</g>
<g id="_x30_.1.0.2.31.0_2_">
	<title  id="0.1.0.2.31.0.0">text:Arduino</title>
	<g id="_x30_.1.0.2.31.0.1_2_" transform="matrix(1 0 0 1 109.0161 55.1792)">
		<g id="_x30_.1.0.2.31.0.1.0_2_" enable-background="new    ">
			<path fill="#231F20" d="M-265,309.6c0-0.1,0-0.2,0-0.2c0-0.1,0-0.2,0.1-0.2c0,0,0,0,0.1-0.1l0.1-0.1l0,0c0,0-0.1,0-0.1,0
				c0,0-0.1,0-0.1-0.1c0,0,0,0,0-0.1c0,0,0-0.1,0-0.1c0,0,0,0,0.1-0.1c0,0,0,0,0,0c0,0,0,0,1,0c0.9,0,0.9,0,0.9,0
				c0.1,0,0.2,0.1,0.3,0.1c0,0,0.1,0.1,0.1,0.2c0.1,0.1,0.1,0.2,0.1,0.3c0,0,0,0.1,0,0.4v0.4l0,0c0,0.1-0.1,0.1-0.2,0.1
				s-0.1,0-0.2-0.1l0,0l0-0.4l0-0.4l0,0c0,0,0,0-0.1-0.1c-0.1-0.1-0.1-0.1-0.1-0.1l0,0h-0.2c-0.2,0-0.2,0-0.2,0c0,0,0,0,0.1,0.1
				c0.1,0.1,0.1,0.1,0.1,0.1c0,0.1,0.1,0.1,0.1,0.2c0,0,0,0.3,0,0.4c0,0.1,0,0.2-0.1,0.2c0,0-0.1,0.2-0.2,0.2
				c-0.1,0.1-0.1,0.1-0.2,0.1c-0.1,0,0,0-0.4,0c-0.2,0-0.3,0-0.3,0c-0.1,0-0.2-0.1-0.3-0.1c0,0-0.1-0.1-0.2-0.2
				c-0.1-0.1-0.1-0.2-0.1-0.2C-265,309.8-265,309.7-265,309.6z M-264.6,309.8c0,0,0,0,0.1,0.1c0.1,0.1,0.1,0.1,0.1,0.1
				c0,0,0,0,0.3,0s0.3,0,0.3,0c0,0,0,0,0.1-0.1c0.1-0.1,0.1-0.1,0.1-0.1l0,0v-0.1c0-0.2,0-0.2,0-0.2c0,0,0,0-0.1-0.1l-0.1-0.2
				c0-0.1-0.1-0.1-0.1-0.1l0,0h-0.2h-0.2l0,0c0,0,0,0-0.1,0c0,0-0.3,0.3-0.3,0.3c0,0,0,0,0,0.1
				C-264.6,309.5-264.6,309.8-264.6,309.8z"/>
			<path fill="#231F20" d="M-264.9,307.6C-264.9,307.6-264.9,307.6-264.9,307.6c0.1-0.1,0.1-0.1,0.2-0.1l0.1,0l-0.1-0.2
				c-0.1-0.1-0.1-0.2-0.1-0.2c0-0.1,0-0.1,0-0.2c0,0,0-0.3,0-0.3c0-0.1,0.1-0.2,0.1-0.3c0.1-0.1,0.2-0.1,0.3-0.1c0,0,1.2,0,1.2,0
				c0,0,0,0,0,0c0.1,0,0.1,0.1,0.1,0.2c0,0.1,0,0.1-0.1,0.1c0,0,0,0-0.7,0c-0.5,0-0.6,0-0.6,0c-0.1,0-0.1,0.1-0.1,0.1l0,0v0.1
				c0,0.1,0,0.1,0,0.2c0,0,0.1,0.1,0.2,0.3l0.2,0.2l0.5,0c0.6,0,0.5,0,0.6,0c0,0,0.1,0,0.1,0.1c0,0,0,0.1,0,0.1c0,0,0,0,0,0.1
				c0,0,0,0-0.1,0c0,0-1.6,0-1.6,0c0,0-0.1,0-0.1,0c0,0,0-0.1,0-0.1C-265,307.7-265,307.7-264.9,307.6z"/>
			<path fill="#231F20" d="M-265.6,303.9C-265.6,303.9-265.6,303.9-265.6,303.9c0.1-0.1,0.1-0.1,0.1-0.1c0,0,0.1,0,1.2,0
				s1.1,0,1.2,0c0,0,0,0,0,0c0,0,0.1,0,0.1,0.1c0,0,0,0.1,0,0.1c0,0,0,0,0,0.1c0,0-0.1,0.1-0.1,0.1c0,0,0,0,0,0c0,0,0,0,0.1,0.1
				c0,0,0.1,0.1,0.1,0.1c0.1,0.1,0.1,0.2,0.1,0.2c0,0,0,0.3,0,0.4c0,0.1,0,0.2-0.1,0.2c0,0-0.1,0.2-0.2,0.2
				c-0.1,0.1-0.2,0.1-0.3,0.1c0,0-0.7,0-0.8,0c-0.1,0-0.2-0.1-0.3-0.1c0,0-0.1-0.1-0.2-0.2c0-0.1-0.1-0.1-0.1-0.2c0,0,0-0.1,0-0.2
				c0-0.1,0-0.2,0-0.2c0-0.1,0-0.2,0.1-0.2c0,0,0,0,0.1-0.1l0.1-0.1l-0.4,0c-0.4,0-0.4,0-0.4,0c0,0-0.1,0-0.1,0
				C-265.6,304-265.6,304-265.6,303.9C-265.6,304-265.6,303.9-265.6,303.9z M-264.6,304.8c0,0,0,0,0.1,0.1c0.1,0.1,0.1,0.1,0.1,0.1
				c0,0,0,0,0.4,0s0.4,0,0.4,0c0,0,0,0,0.1-0.1c0.1-0.1,0.1-0.1,0.1-0.1l0,0v-0.1c0-0.2,0-0.2,0-0.2c0,0,0,0-0.1-0.1l-0.1-0.1
				c0-0.1-0.1-0.1-0.1-0.1l0,0h-0.2h-0.2l0,0c0,0,0,0-0.1,0c0,0-0.3,0.3-0.3,0.3c0,0,0,0,0,0.1
				C-264.6,304.6-264.6,304.8-264.6,304.8z"/>
		</g>
	</g>
</g>
<g id="_x30_.1.0.2.31.0_4_">
	<title  id="0.1.0.2.31.0.0">text:Arduino</title>
	<g id="_x30_.1.0.2.31.0.1_4_" transform="matrix(1 0 0 1 109.0161 55.1792)">
		<g id="_x30_.1.0.2.31.0.1.0_4_" enable-background="new    ">
			<path fill="#231F20" d="M-271.9,326.6c0-0.1,0-0.2,0-0.2c0-0.1,0-0.2,0.1-0.2c0,0,0,0,0.1-0.1l0.1-0.1l0,0c0,0-0.1,0-0.1,0
				c0,0-0.1,0-0.1-0.1c0,0,0,0,0-0.1c0,0,0-0.1,0-0.1c0,0,0,0,0.1-0.1c0,0,0,0,0,0c0,0,0,0,1,0c0.9,0,0.9,0,1,0
				c0.1,0,0.2,0.1,0.3,0.1c0,0,0.1,0.1,0.1,0.2c0.1,0.1,0.1,0.2,0.1,0.3c0,0,0,0.1,0,0.4v0.4l0,0c0,0.1-0.1,0.1-0.2,0.1
				s-0.1,0-0.2-0.1l0,0l0-0.4l0-0.4l0,0c0,0,0,0-0.1-0.1c-0.1-0.1-0.1-0.1-0.1-0.1l0,0h-0.2c-0.2,0-0.2,0-0.2,0c0,0,0,0,0.1,0.1
				c0.1,0.1,0.1,0.1,0.1,0.1c0,0.1,0.1,0.1,0.1,0.2c0,0,0,0.3,0,0.4c0,0.1,0,0.2-0.1,0.2c0,0-0.1,0.2-0.2,0.2
				c-0.1,0.1-0.1,0.1-0.2,0.1c-0.1,0,0,0-0.4,0c-0.2,0-0.3,0-0.3,0c-0.1,0-0.2-0.1-0.3-0.1c0,0-0.1-0.1-0.2-0.2
				c-0.1-0.1-0.1-0.2-0.1-0.2C-271.9,326.8-271.9,326.7-271.9,326.6z M-271.6,326.8c0,0,0,0,0.1,0.1c0.1,0.1,0.1,0.1,0.1,0.1
				c0,0,0,0,0.3,0s0.3,0,0.3,0c0,0,0,0,0.1-0.1c0.1-0.1,0.1-0.1,0.1-0.1l0,0v-0.1c0-0.2,0-0.2,0-0.2c0,0,0,0-0.1-0.1l-0.1-0.2
				c0-0.1-0.1-0.1-0.1-0.1l0,0h-0.2h-0.2l0,0c0,0,0,0-0.1,0c0,0-0.3,0.3-0.3,0.3c0,0,0,0,0,0.1
				C-271.6,326.5-271.6,326.7-271.6,326.8z"/>
			<path fill="#231F20" d="M-271.9,324.6C-271.9,324.6-271.8,324.6-271.9,324.6c0.1-0.1,0.1-0.1,0.2-0.1l0.1,0l-0.1-0.2
				c-0.1-0.1-0.1-0.2-0.1-0.2c0-0.1,0-0.1,0-0.2c0,0,0-0.3,0-0.3c0-0.1,0.1-0.2,0.1-0.3c0.1-0.1,0.2-0.1,0.3-0.1c0,0,1.2,0,1.2,0
				c0,0,0,0,0,0c0.1,0,0.1,0.1,0.1,0.2c0,0.1,0,0.1-0.1,0.1c0,0,0,0-0.7,0c-0.5,0-0.6,0-0.6,0c-0.1,0-0.1,0-0.1,0.1l0,0v0.1
				c0,0.1,0,0.1,0,0.2c0,0,0.1,0.1,0.2,0.3l0.2,0.2l0.5,0c0.6,0,0.5,0,0.6,0c0,0,0.1,0,0.1,0.1c0,0,0,0.1,0,0.1c0,0,0,0,0,0.1
				c0,0-0.1,0-0.1,0c0,0-1.6,0-1.6,0c0,0-0.1,0-0.1,0c0,0,0-0.1,0-0.1C-271.9,324.7-271.9,324.7-271.9,324.6z"/>
			<path fill="#231F20" d="M-272.6,320.9C-272.6,320.9-272.6,320.8-272.6,320.9c0.1-0.1,0.1-0.1,0.1-0.1c0,0,0.1,0,1.2,0
				s1.1,0,1.2,0c0,0,0,0,0,0c0,0,0.1,0,0.1,0.1c0,0,0,0.1,0,0.1c0,0,0,0,0,0.1c0,0-0.1,0-0.1,0c0,0,0,0,0,0s0,0,0.1,0.1
				c0,0,0.1,0.1,0.1,0.1c0.1,0.1,0.1,0.2,0.1,0.2c0,0,0,0.3,0,0.4c0,0.1,0,0.2-0.1,0.2c0,0-0.1,0.2-0.2,0.2
				c-0.1,0.1-0.2,0.1-0.3,0.1c0,0-0.7,0-0.8,0c-0.1,0-0.2-0.1-0.3-0.1c0,0-0.1-0.1-0.2-0.2c0-0.1-0.1-0.1-0.1-0.2c0,0,0-0.1,0-0.2
				c0-0.1,0-0.2,0-0.2c0-0.1,0-0.2,0.1-0.2c0,0,0,0,0.1-0.1l0.1-0.1l-0.4,0c-0.4,0-0.4,0-0.4,0c0,0-0.1,0-0.1,0
				C-272.6,321-272.6,321-272.6,320.9C-272.6,321-272.6,320.9-272.6,320.9z M-271.6,321.8c0,0,0,0,0.1,0.1c0.1,0.1,0.1,0.1,0.1,0.1
				c0,0,0,0,0.4,0s0.4,0,0.4,0c0,0,0,0,0.1-0.1c0.1-0.1,0.1-0.1,0.1-0.1l0,0v-0.1c0-0.2,0-0.2,0-0.2c0,0,0,0-0.1-0.1l-0.1-0.1
				c0-0.1-0.1-0.1-0.1-0.1l0,0h-0.2h-0.2l0,0c0,0,0,0-0.1,0c0,0-0.3,0.3-0.3,0.3c0,0,0,0,0,0.1
				C-271.6,321.5-271.6,321.8-271.6,321.8z"/>
		</g>
	</g>
</g>
<g id="_x30_.1.0.2.31.0_7_">
	<title  id="0.1.0.2.31.0.0">text:Arduino</title>
	<g id="_x30_.1.0.2.31.0.1_7_" transform="matrix(1 0 0 1 109.0161 55.1792)">
		<g id="_x30_.1.0.2.31.0.1.0_7_" enable-background="new    ">
			<path fill="#231F20" d="M-279.1,327.1C-279,327.1-279,327-279.1,327.1C-279,327-279,327-279.1,327.1c0.1-0.1,0.1-0.1,0.2-0.1
				c0.1,0,0.1,0,0.1,0c0,0-0.1-0.1-0.2-0.2c-0.1-0.1-0.2-0.2-0.2-0.2c0,0,0,0,0-0.1c0,0,0,0,0-0.2c0-0.2,0-0.2,0-0.3
				c0-0.2,0.2-0.3,0.4-0.4c0,0,0.2,0,0.2,0c0.1,0,0.1,0.1,0.1,0.2c0,0.1,0,0.1-0.1,0.2c0,0,0,0-0.1,0l-0.1,0l0,0c0,0,0,0-0.1,0
				c0,0,0,0,0,0.1c0,0,0,0,0,0.2v0.1l0.2,0.3l0.2,0.3l0.5,0c0.5,0,0.5,0,0.5,0c0,0,0.1,0,0.1,0.1c0,0,0,0.1,0,0.1c0,0,0,0,0,0.1
				c0,0-0.1,0-0.1,0c0,0-1.6,0-1.6,0c0,0-0.1,0-0.1,0c0,0,0-0.1,0-0.1C-279.1,327.2-279.1,327.1-279.1,327.1z"/>
			<path fill="#231F20" d="M-279.1,324.1c0-0.3,0-0.3,0-0.3c0-0.1,0.1-0.1,0.1-0.2c0-0.1,0.1-0.1,0.1-0.2c0.1-0.1,0.1-0.1,0.2-0.1
				c0.1,0,0.1,0,0.3,0c0.3,0,0.2,0,0.3,0c0,0,0,0,0.1,0c0,0,0,0,0,0.1c0,0,0,0,0,0.6v0.6h0.1c0.1,0,0.1,0,0.1,0c0,0,0,0,0.1-0.1
				c0.1-0.1,0.1-0.1,0.1-0.1l0,0l0-0.5c0-0.5,0-0.5,0-0.5c0-0.1,0.1-0.1,0.2-0.1c0.1,0,0.1,0.1,0.2,0.1c0,0,0,0.9,0,0.9
				c0,0.1,0,0.2-0.1,0.2c0,0-0.1,0.2-0.2,0.2c-0.1,0.1-0.2,0.1-0.3,0.1c0,0-0.1,0-0.4,0c-0.4,0-0.4,0-0.4,0c-0.1,0-0.2-0.1-0.3-0.1
				c0,0-0.1-0.1-0.1-0.2c-0.1-0.1-0.1-0.2-0.1-0.3C-279.1,324.3-279.1,324.2-279.1,324.1z M-278.7,323.8v0.2c0,0.2,0,0.2,0,0.3
				c0,0,0,0,0.1,0.1c0,0,0.1,0.1,0.1,0.1c0,0,0,0,0.1,0l0,0l0.1,0h0.1v-0.5v-0.5l-0.1,0c-0.2,0-0.1,0-0.2,0c0,0,0,0,0,0
				c0,0,0,0-0.1,0.1C-278.7,323.8-278.7,323.8-278.7,323.8L-278.7,323.8z"/>
			<path fill="#231F20" d="M-279.1,321.2c0-0.1,0.1-0.2,0.1-0.3c0,0,0.1-0.1,0.1-0.1c0,0,0.1,0,0.1,0c0,0,0,0,0,0
				c0.1,0,0.1,0.1,0.1,0.2c0,0,0,0.1-0.1,0.1c0,0-0.1,0.1-0.1,0.1l0,0v0.4c0,0.3,0,0.4,0,0.4c0,0,0,0.1,0.1,0.1c0,0,0,0,0,0
				c0,0,0,0,0,0c0,0,0,0,0,0c0,0,0.1-0.1,0.1-0.3c0.3-0.7,0.3-0.6,0.3-0.7c0.1-0.1,0.1-0.1,0.2-0.2c0.1,0,0.2-0.1,0.3,0
				c0.2,0,0.3,0.2,0.4,0.4c0,0.1,0,0,0,0.4c0,0.3,0,0.4,0,0.4c0,0.1,0,0.1,0,0.2c0,0.1-0.1,0.1-0.1,0.2c0,0-0.1,0.1-0.1,0.1
				c0,0-0.1,0-0.1,0c-0.1,0-0.1-0.1-0.1-0.2c0,0,0-0.1,0-0.1c0,0,0-0.1,0.1-0.1c0,0,0-0.1,0-0.1c0,0,0-0.1,0-0.4l0-0.3l0,0
				c0,0,0-0.1-0.1-0.1c-0.1,0-0.2,0-0.2,0c0,0,0,0,0,0c0,0-0.1,0.2-0.3,0.7c-0.1,0.1-0.1,0.3-0.1,0.3c0,0,0,0.1-0.1,0.1
				c-0.1,0.1-0.2,0.1-0.2,0.1c-0.1,0-0.2,0-0.3-0.1c-0.1-0.1-0.1-0.2-0.2-0.3C-279.1,322-279.1,321.2-279.1,321.2z"/>
		</g>
	</g>
</g>
<g id="_x30_.1.0.2.31.0_8_">
	<title  id="0.1.0.2.31.0.0">text:Arduino</title>
	<g id="_x30_.1.0.2.31.0.1_8_" transform="matrix(1 0 0 1 109.0161 55.1792)">
		<g id="_x30_.1.0.2.31.0.1.0_8_" enable-background="new    ">
			<path fill="#231F20" d="M-279.1,318.6c0-0.1,0.1-0.1,0.2-0.1c0.1,0,0.1,0,0.2,0.1c0,0,0,0,0,0.4l0,0.4l0,0c0,0,0,0,0,0
				c0,0,0.1,0.1,0.1,0.2c0.1,0.1,0.1,0.2,0.1,0.2c0,0,0,0,0.1,0l0,0h0.2c0.2,0,0.2,0,0.2,0c0,0,0,0,0.1,0c0,0,0-0.1,0.1-0.2
				c0.1-0.1,0.1-0.2,0.1-0.2c0,0,0,0,0-0.1c0,0,0,0,0-0.4c0-0.4,0-0.4,0-0.4c0-0.1,0.1-0.1,0.2-0.1c0.1,0,0.1,0.1,0.2,0.1
				c0,0,0,0.7,0,0.8c0,0.1,0,0.2-0.1,0.2c0,0-0.3,0.3-0.3,0.3c-0.1,0.1-0.1,0.1-0.2,0.1c-0.1,0,0,0-0.3,0c-0.2,0-0.2,0-0.3,0
				c-0.1,0-0.2-0.1-0.3-0.1c0,0-0.3-0.3-0.3-0.3c-0.1-0.1-0.1-0.2-0.1-0.2C-279.1,319.3-279.1,318.6-279.1,318.6z"/>
			<path fill="#231F20" d="M-279.8,317c0-0.3,0-0.3,0-0.3c0,0,0.1-0.1,0.1-0.1c0,0,0.1,0,1.1,0h1l0-0.2v-0.2l0,0c0,0,0-0.1,0.1-0.1
				c0,0,0,0,0.1,0s0,0,0.1,0c0,0,0.1,0.1,0.1,0.1l0,0v0.5v0.5l0,0c0,0.1-0.1,0.1-0.2,0.1s-0.1,0-0.2-0.1l0,0v-0.2l0-0.2h-0.9h-0.9
				v0.2l0,0.2l0,0c0,0.1-0.1,0.1-0.2,0.1c-0.1,0-0.1-0.1-0.1-0.1C-279.8,317.3-279.8,317.2-279.8,317z"/>
			<path fill="#231F20" d="M-279.8,314.9C-279.8,314.9-279.8,314.9-279.8,314.9c0.1-0.1,0.1-0.1,0.1-0.1c0,0,0,0,0.7,0l0.7,0
				l-0.4-0.4c-0.2-0.2-0.4-0.4-0.4-0.4c0,0,0,0,0-0.1c0,0,0-0.1,0-0.1c0,0,0,0,0-0.1c0.1-0.1,0.2-0.1,0.2,0c0,0,0.1,0.2,0.3,0.3
				c0.2,0.2,0.3,0.3,0.3,0.3c0,0,0.2-0.2,0.4-0.4c0.2-0.2,0.4-0.4,0.4-0.4c0,0,0.1-0.1,0.1-0.1c0,0,0,0,0,0c0.1,0,0.2,0.2,0.1,0.3
				c0,0-0.7,0.9-0.7,0.9l0,0l0.1,0.1l0.1,0.1l0.3,0c0.3,0,0.3,0,0.3,0c0,0,0.1,0,0.1,0.1c0,0,0,0.1,0,0.1c0,0,0,0,0,0.1
				c0,0,0,0-0.1,0c0,0-2.3,0-2.3,0c0,0-0.1,0-0.1,0S-279.8,315.1-279.8,314.9C-279.8,315-279.8,315-279.8,314.9z"/>
		</g>
	</g>
</g>
<g id="_x30_.1.0.2.31.0_9_">
	<title  id="0.1.0.2.31.0.0">text:Arduino</title>
	<g id="_x30_.1.0.2.31.0.1_9_" transform="matrix(1 0 0 1 109.0161 55.1792)">
		<g id="_x30_.1.0.2.31.0.1.0_9_" enable-background="new    ">
			<path fill="#231F20" d="M-279.1,311.8C-279,311.8-279,311.7-279.1,311.8C-279,311.7-279,311.7-279.1,311.8
				C-279,311.7-279,311.7-279.1,311.8c0-0.2,0-0.2,0-0.3c0-0.1,0-0.2,0.1-0.3c0,0,0,0,0.1-0.1l0,0l0,0c0-0.1,0-0.1-0.1-0.1
				c-0.1-0.1-0.1-0.2-0.1-0.3c0-0.1,0-0.2,0.1-0.2c0.1-0.1,0.1-0.1,0.2-0.1c0,0,1.3,0,1.4,0c0,0,0,0,0.1,0c0,0,0.1,0,0.1,0.1
				c0,0,0,0,0,0.1c0,0,0,0.1,0,0.1c0,0,0,0-0.1,0.1c0,0,0,0-0.1,0c0,0-0.3,0-0.7,0c-0.5,0-0.7,0-0.7,0c0,0,0,0,0,0c0,0,0,0,0,0
				c0,0,0,0,0,0c0,0,0,0,0.1,0.1l0.1,0.1l0.6,0c0.6,0,0.6,0,0.6,0c0,0,0,0,0.1,0c0,0,0,0,0,0.1c0,0,0,0.1,0,0.1c0,0,0,0,0,0.1
				c0,0,0,0-0.1,0c0,0-0.1,0-0.7,0l-0.7,0l0,0c0,0,0,0,0,0c0,0,0,0,0,0c0,0,0,0,0,0c0,0,0,0.1,0.1,0.1l0.1,0.1l0.6,0
				c0.6,0,0.6,0,0.6,0c0,0,0,0,0.1,0c0,0,0,0,0,0.1c0,0,0,0.1,0,0.1c0,0,0,0,0,0.1c0,0,0,0-0.1,0c0,0-1.6,0-1.6,0c0,0-0.1,0-0.1,0
				c0,0,0-0.1,0-0.1C-279.1,311.9-279.1,311.8-279.1,311.8z"/>
			<path fill="#231F20" d="M-279.9,308.8c0-0.1,0-0.1,0-0.1c0,0,0-0.1,0.1-0.1s0,0,0.1,0c0.1,0,0.1,0,0.1,0c0,0,0.1,0,0.1,0.1
				s0,0,0,0.1c0,0.1,0,0.1,0,0.1c0,0,0,0,0,0.1s0,0-0.1,0c0,0,0,0-0.1,0c-0.1,0-0.1,0-0.1,0c0,0,0,0-0.1,0c0,0,0,0,0-0.1
				C-279.9,308.9-279.9,308.9-279.9,308.8z M-279.1,309c0-0.3,0-0.3,0-0.3c0,0,0,0,0-0.1c0,0,0,0,0.1,0c0,0,0,0,0.7,0h0.7l0-0.2
				v-0.2l0,0c0,0,0-0.1,0.1-0.1c0,0,0,0,0.1,0s0,0,0.1,0c0,0,0.1,0.1,0.1,0.1l0,0v0.5v0.5l0,0c0,0.1-0.1,0.1-0.2,0.1s-0.1,0-0.2-0.1
				l0,0v-0.2l0-0.2h-0.6h-0.6v0.2l0,0.2l0,0c0,0.1-0.1,0.1-0.2,0.1c-0.1,0-0.1-0.1-0.1-0.1C-279.1,309.2-279.1,309.1-279.1,309z"/>
			<path fill="#231F20" d="M-279.1,305.9c0-0.1,0.1-0.2,0.1-0.3c0,0,0.1-0.1,0.1-0.1c0,0,0.1,0,0.1,0c0,0,0,0,0,0
				c0.1,0,0.1,0.1,0.1,0.2c0,0,0,0.1-0.1,0.1c0,0-0.1,0.1-0.1,0.1l0,0v0.4c0,0.3,0,0.4,0,0.4c0,0,0,0.1,0.1,0.1c0,0,0,0,0,0
				c0,0,0,0,0,0c0,0,0,0,0,0c0,0,0.1-0.1,0.1-0.3c0.3-0.7,0.3-0.6,0.3-0.7c0.1-0.1,0.1-0.1,0.2-0.2c0.1,0,0.2-0.1,0.3,0
				c0.2,0,0.3,0.2,0.4,0.4c0,0.1,0,0,0,0.4c0,0.3,0,0.4,0,0.4c0,0.1,0,0.1,0,0.2c0,0.1-0.1,0.1-0.1,0.2c0,0-0.1,0.1-0.1,0.1
				c0,0-0.1,0-0.1,0c-0.1,0-0.1-0.1-0.1-0.2c0,0,0-0.1,0-0.1c0,0,0-0.1,0.1-0.1c0,0,0-0.1,0-0.1c0,0,0-0.1,0-0.4l0-0.3l0,0
				c0,0,0-0.1-0.1-0.1c-0.1,0-0.2,0-0.2,0c0,0,0,0,0,0c0,0-0.1,0.2-0.3,0.7c-0.1,0.1-0.1,0.3-0.1,0.3c0,0,0,0.1-0.1,0.1
				c-0.1,0.1-0.2,0.1-0.2,0.1c-0.1,0-0.2,0-0.3-0.1c-0.1-0.1-0.1-0.2-0.2-0.3C-279.1,306.6-279.1,305.9-279.1,305.9z"/>
			<path fill="#231F20" d="M-279.1,303.8c0-0.2,0-0.2,0-0.3c0,0,0-0.1,0-0.1c0,0,0-0.1,0.1-0.1c0-0.1,0.1-0.1,0.1-0.2
				c0.1-0.1,0.2-0.1,0.3-0.1c0,0,0.1,0,0.4,0c0.4,0,0.4,0,0.4,0c0.1,0,0.2,0.1,0.3,0.1c0,0,0.1,0.1,0.1,0.2c0,0.1,0.1,0.1,0.1,0.2
				c0,0.1,0,0.1,0,0.3s0,0.3,0,0.3c0,0.1,0,0.1-0.1,0.2c0,0-0.1,0.2-0.2,0.2c-0.1,0.1-0.2,0.1-0.3,0.1c0,0-0.1,0-0.4,0
				c-0.4,0-0.4,0-0.4,0c-0.1,0-0.2-0.1-0.3-0.1c0,0-0.1-0.1-0.2-0.2c-0.1-0.1-0.1-0.2-0.1-0.2C-279.1,304.1-279.1,304-279.1,303.8z
				 M-278.8,303.8c0,0.2,0,0.2,0,0.3c0,0,0,0,0,0l0.1,0.1c0.1,0.1,0.1,0.1,0.1,0.1l0,0h0.4c0.4,0,0.4,0,0.4,0c0,0,0,0,0.1-0.1
				c0.1-0.1,0.1-0.1,0.1-0.1c0,0,0,0,0-0.3c0-0.3,0-0.2,0-0.3c0,0,0,0-0.1-0.1c-0.1-0.1-0.1-0.1-0.1-0.1l0,0h-0.4
				c-0.3,0-0.4,0-0.4,0c0,0,0,0-0.1,0c0,0-0.1,0.1-0.1,0.2c0,0,0,0,0,0C-278.7,303.6-278.7,303.6-278.8,303.8z"/>
		</g>
	</g>
</g>
<g id="_x30_.1.0.2.31.0_5_">
	<title  id="0.1.0.2.31.0.0">text:Arduino</title>
	<g id="_x30_.1.0.2.31.0.1_5_" transform="matrix(1 0 0 1 109.0161 55.1792)">
		<g id="_x30_.1.0.2.31.0.1.0_5_" enable-background="new    ">
			<path fill="#231F20" d="M-271.9,319.5C-271.9,319.4-271.9,319.4-271.9,319.5C-271.9,319.4-271.8,319.4-271.9,319.5
				C-271.8,319.4-271.8,319.4-271.9,319.5c0-0.2,0-0.2,0-0.3c0-0.1,0-0.2,0.1-0.3c0,0,0,0,0.1-0.1l0,0l0,0c0-0.1,0-0.1-0.1-0.1
				c-0.1-0.1-0.1-0.2-0.1-0.3c0-0.1,0-0.2,0.1-0.2c0.1-0.1,0.1-0.1,0.2-0.1c0,0,1.3,0,1.4,0c0,0,0,0,0.1,0c0,0,0.1,0,0.1,0.1
				c0,0,0,0,0,0.1c0,0,0,0.1,0,0.1c0,0,0,0-0.1,0.1c0,0,0,0-0.1,0c0,0-0.3,0-0.7,0c-0.5,0-0.7,0-0.7,0c0,0,0,0,0,0c0,0,0,0,0,0
				c0,0,0,0,0,0c0,0,0,0,0.1,0.1l0.1,0.1l0.6,0c0.6,0,0.6,0,0.6,0c0,0,0,0,0.1,0c0,0,0,0,0,0.1c0,0,0,0.1,0,0.1c0,0,0,0,0,0.1
				c0,0,0,0-0.1,0c0,0-0.1,0-0.7,0l-0.7,0l0,0c0,0,0,0,0,0c0,0,0,0,0,0c0,0,0,0,0,0c0,0,0,0.1,0.1,0.1l0.1,0.1l0.6,0
				c0.6,0,0.6,0,0.6,0c0,0,0,0,0.1,0c0,0,0,0,0,0.1c0,0,0,0.1,0,0.1c0,0,0,0,0,0.1c0,0,0,0-0.1,0c0,0-1.6,0-1.6,0c0,0-0.1,0-0.1,0
				c0,0,0-0.1,0-0.1C-272,319.5-272,319.5-271.9,319.5z"/>
			<path fill="#231F20" d="M-272,316.4c0-0.2,0-0.2,0-0.3c0,0,0-0.1,0-0.1c0,0,0-0.1,0.1-0.1c0-0.1,0.1-0.1,0.1-0.2
				c0.1-0.1,0.2-0.1,0.3-0.1c0,0,0.1,0,0.4,0c0.4,0,0.4,0,0.4,0c0.1,0,0.2,0.1,0.3,0.1c0,0,0.1,0.1,0.1,0.2c0,0.1,0.1,0.1,0.1,0.2
				c0,0.1,0,0.1,0,0.3s0,0.3,0,0.3c0,0.1,0,0.1-0.1,0.2c0,0-0.1,0.2-0.2,0.2c-0.1,0.1-0.2,0.1-0.3,0.1c0,0-0.1,0-0.4,0
				c-0.4,0-0.4,0-0.4,0c-0.1,0-0.2-0.1-0.3-0.1c0,0-0.1-0.1-0.2-0.2c-0.1-0.1-0.1-0.2-0.1-0.2C-272,316.6-272,316.6-272,316.4z
				 M-271.6,316.4c0,0.2,0,0.2,0,0.3c0,0,0,0,0,0l0.1,0.1c0.1,0.1,0.1,0.1,0.1,0.1l0,0h0.4c0.4,0,0.4,0,0.4,0c0,0,0,0,0.1-0.1
				c0.1-0.1,0.1-0.1,0.1-0.1c0,0,0,0,0-0.3c0-0.3,0-0.2,0-0.3c0,0,0,0-0.1-0.1c-0.1-0.1-0.1-0.1-0.1-0.1l0,0h-0.4
				c-0.3,0-0.4,0-0.4,0c0,0,0,0-0.1,0c0,0-0.1,0.1-0.1,0.2c0,0,0,0,0,0C-271.6,316.2-271.6,316.2-271.6,316.4z"/>
			<path fill="#231F20" d="M-272,313.5c0-0.1,0.1-0.2,0.1-0.3c0,0,0.1-0.1,0.1-0.1c0,0,0.1,0,0.1,0c0,0,0,0,0,0
				c0.1,0,0.1,0.1,0.1,0.2c0,0,0,0.1-0.1,0.1c0,0-0.1,0.1-0.1,0.1l0,0v0.4c0,0.3,0,0.4,0,0.4c0,0,0,0.1,0.1,0.1c0,0,0,0,0,0
				c0,0,0,0,0,0c0,0,0,0,0,0c0,0,0.1-0.1,0.1-0.3c0.3-0.7,0.3-0.6,0.3-0.7c0.1-0.1,0.1-0.1,0.2-0.2c0.1,0,0.2-0.1,0.3,0
				c0.2,0,0.3,0.2,0.4,0.4c0,0.1,0,0,0,0.4c0,0.3,0,0.4,0,0.4c0,0.1,0,0.1,0,0.2c0,0.1-0.1,0.1-0.1,0.2c0,0-0.1,0.1-0.1,0.1
				c0,0-0.1,0-0.1,0c-0.1,0-0.1-0.1-0.1-0.2c0,0,0-0.1,0-0.1c0,0,0-0.1,0.1-0.1c0,0,0-0.1,0-0.1c0,0,0-0.1,0-0.4l0-0.3l0,0
				c0,0,0-0.1-0.1-0.1c-0.1,0-0.2,0-0.2,0c0,0,0,0,0,0c0,0-0.1,0.2-0.3,0.7c-0.1,0.1-0.1,0.3-0.1,0.3c0,0,0,0.1-0.1,0.1
				c-0.1,0.1-0.2,0.1-0.2,0.1c-0.1,0-0.2,0-0.3-0.1c-0.1-0.1-0.1-0.2-0.2-0.3C-272,314.3-272,313.6-272,313.5z"/>
			<path fill="#231F20" d="M-272.8,311.5c0-0.1,0-0.1,0-0.1c0,0,0-0.1,0.1-0.1c0,0,0,0,0.1,0c0.1,0,0.1,0,0.1,0c0,0,0.1,0,0.1,0.1
				s0,0,0,0.1c0,0.1,0,0.1,0,0.1c0,0,0,0,0,0.1s0,0-0.1,0c0,0,0,0-0.1,0c-0.1,0-0.1,0-0.1,0c0,0,0,0-0.1,0c0,0,0,0,0-0.1
				C-272.8,311.7-272.8,311.6-272.8,311.5z M-272,311.7c0-0.3,0-0.3,0-0.3c0,0,0,0,0-0.1c0,0,0,0,0.1,0c0,0,0,0,0.7,0h0.7l0-0.2V311
				l0,0c0,0,0-0.1,0.1-0.1c0,0,0,0,0.1,0s0,0,0.1,0c0,0,0.1,0.1,0.1,0.1l0,0v0.5v0.5l0,0c0,0.1-0.1,0.1-0.2,0.1s-0.1,0-0.2-0.1l0,0
				v-0.2l0-0.2h-0.6h-0.6v0.2l0,0.2l0,0c0,0.1-0.1,0.1-0.2,0.1c-0.1,0-0.1-0.1-0.1-0.1C-272,312-272,311.9-272,311.7z"/>
		</g>
	</g>
</g>
<g id="_x30_.1.0.2.31.0_6_">
	<title  id="0.1.0.2.31.0.0">text:Arduino</title>
	<g id="_x30_.1.0.2.31.0.1_6_" transform="matrix(1 0 0 1 109.0161 55.1792)">
		<g id="_x30_.1.0.2.31.0.1.0_6_" enable-background="new    ">
			<path fill="#231F20" d="M-272,309.9C-271.9,309.9-271.9,309.9-272,309.9C-271.9,309.9-271.9,309.8-272,309.9
				c0.1-0.1,0.1-0.1,0.3-0.1h0.1l0.6-0.2c0.3-0.1,0.6-0.2,0.6-0.2s-0.2-0.1-0.6-0.2l-0.6-0.2h-0.1c-0.1,0-0.1,0-0.2,0c0,0,0,0-0.1,0
				c0,0,0,0,0-0.1c0,0,0-0.1,0-0.1c0,0,0,0,0-0.1c0,0,0,0,0.1,0c0,0,0,0,0.2,0c0.2,0,0.2,0,0.2,0c0.1,0,1.3,0.6,1.3,0.6
				c0,0,0,0,0.1,0.1c0,0,0,0,0,0.1c0,0,0,0.2,0,0.3c0,0,0,0,0,0.1c0,0,0,0-0.1,0.1c0,0-1.2,0.5-1.3,0.6c0,0,0,0-0.2,0
				c-0.2,0-0.2,0-0.2,0c0,0,0,0-0.1,0c0,0,0-0.1,0-0.1C-272,310-272,309.9-272,309.9z"/>
			<path fill="#231F20" d="M-272,306.2c0-0.1,0.1-0.1,0.2-0.1c0.1,0,0.1,0,0.2,0.1c0,0,0,0,0,0.4l0,0.4l0,0c0,0,0,0,0,0
				c0,0,0.1,0.1,0.1,0.2c0.1,0.1,0.1,0.2,0.1,0.2c0,0,0,0,0.1,0l0,0h0.2c0.2,0,0.2,0,0.2,0c0,0,0,0,0.1,0c0,0,0-0.1,0.1-0.2
				c0.1-0.1,0.1-0.2,0.1-0.2c0,0,0,0,0-0.1c0,0,0,0,0-0.4c0-0.4,0-0.4,0-0.4c0-0.1,0.1-0.1,0.2-0.1c0.1,0,0.1,0.1,0.2,0.1
				c0,0,0,0.7,0,0.8c0,0.1,0,0.2-0.1,0.2c0,0-0.3,0.3-0.3,0.3c-0.1,0.1-0.1,0.1-0.2,0.1c-0.1,0,0,0-0.3,0c-0.2,0-0.2,0-0.3,0
				c-0.1,0-0.2-0.1-0.3-0.1c0,0-0.3-0.3-0.3-0.3c-0.1-0.1-0.1-0.2-0.1-0.2C-272,306.9-272,306.2-272,306.2z"/>
			<path fill="#231F20" d="M-272,303.7c0-0.1,0.1-0.1,0.2-0.1c0.1,0,0.1,0,0.2,0.1c0,0,0,0,0,0.4l0,0.4l0,0c0,0,0,0,0,0
				c0,0,0.1,0.1,0.1,0.2c0.1,0.1,0.1,0.2,0.1,0.2c0,0,0,0,0.1,0l0,0h0.2c0.2,0,0.2,0,0.2,0c0,0,0,0,0.1,0c0,0,0-0.1,0.1-0.2
				c0.1-0.1,0.1-0.2,0.1-0.2c0,0,0,0,0,0c0,0,0,0,0-0.4c0-0.4,0-0.4,0-0.4c0-0.1,0.1-0.1,0.2-0.1c0.1,0,0.1,0.1,0.2,0.1
				c0,0,0,0.7,0,0.8c0,0.1,0,0.2-0.1,0.2c0,0-0.3,0.3-0.3,0.3c-0.1,0.1-0.1,0.1-0.2,0.1c-0.1,0,0,0-0.3,0c-0.2,0-0.2,0-0.3,0
				c-0.1,0-0.2-0.1-0.3-0.1c0,0-0.3-0.3-0.3-0.3c-0.1-0.1-0.1-0.2-0.1-0.2C-272,304.5-272,303.8-272,303.7z"/>
		</g>
	</g>
</g>
<g id="_x30_.1.0.2.31.0_3_">
	<title  id="0.1.0.2.31.0.0">text:Arduino</title>
	<g id="_x30_.1.0.2.31.0.1_3_" transform="matrix(1 0 0 1 109.0161 55.1792)">
		<g id="_x30_.1.0.2.31.0.1.0_3_" enable-background="new    ">
			<path fill="#231F20" d="M-265,316c0-0.1,0.1-0.2,0.1-0.3c0,0,0.1-0.1,0.1-0.1c0,0,0.1,0,0.1,0c0,0,0,0,0,0c0.1,0,0.1,0.1,0.1,0.2
				c0,0,0,0.1-0.1,0.1c0,0-0.1,0.1-0.1,0.1l0,0v0.4c0,0.3,0,0.4,0,0.4c0,0,0,0.1,0.1,0.1c0,0,0,0,0,0c0,0,0,0,0,0c0,0,0,0,0,0
				c0,0,0.1-0.1,0.1-0.3c0.3-0.7,0.3-0.6,0.3-0.7c0.1-0.1,0.1-0.1,0.2-0.2c0.1,0,0.2-0.1,0.3,0c0.2,0,0.3,0.2,0.4,0.4
				c0,0.1,0,0,0,0.4c0,0.3,0,0.4,0,0.4c0,0.1,0,0.1,0,0.2c0,0.1-0.1,0.1-0.1,0.2c0,0-0.1,0.1-0.1,0.1c0,0-0.1,0-0.1,0
				c-0.1,0-0.1-0.1-0.1-0.2c0,0,0-0.1,0-0.1c0,0,0-0.1,0.1-0.1c0,0,0-0.1,0-0.1c0,0,0-0.1,0-0.4l0-0.3l0,0c0,0,0-0.1-0.1-0.1
				c-0.1,0-0.2,0-0.2,0c0,0,0,0,0,0c0,0-0.1,0.2-0.3,0.7c-0.1,0.1-0.1,0.3-0.1,0.3c0,0,0,0.1-0.1,0.1c-0.1,0.1-0.2,0.1-0.2,0.1
				c-0.1,0-0.2,0-0.3-0.1c-0.1-0.1-0.1-0.2-0.2-0.3C-265,316.7-265,316-265,316z"/>
			<path fill="#231F20" d="M-265,313.5c0-0.1,0.1-0.2,0.1-0.3c0,0,0.1-0.1,0.1-0.1c0,0,0.1,0,0.1,0c0,0,0,0,0,0
				c0.1,0,0.1,0.1,0.1,0.2c0,0,0,0.1-0.1,0.1c0,0-0.1,0.1-0.1,0.1l0,0v0.4c0,0.3,0,0.4,0,0.4c0,0,0,0.1,0.1,0.1c0,0,0,0,0,0
				c0,0,0,0,0,0c0,0,0,0,0,0c0,0,0.1-0.1,0.1-0.3c0.3-0.7,0.3-0.6,0.3-0.7c0.1-0.1,0.1-0.1,0.2-0.2c0.1,0,0.2-0.1,0.3,0
				c0.2,0,0.3,0.2,0.4,0.4c0,0.1,0,0,0,0.4c0,0.3,0,0.4,0,0.4c0,0.1,0,0.1,0,0.2c0,0.1-0.1,0.1-0.1,0.2c0,0-0.1,0.1-0.1,0.1
				c0,0-0.1,0-0.1,0c-0.1,0-0.1-0.1-0.1-0.2c0,0,0-0.1,0-0.1c0,0,0-0.1,0.1-0.1c0,0,0-0.1,0-0.1c0,0,0-0.1,0-0.4l0-0.3l0,0
				c0,0,0-0.1-0.1-0.1c-0.1,0-0.2,0-0.2,0c0,0,0,0,0,0c0,0-0.1,0.2-0.3,0.7c-0.1,0.1-0.1,0.3-0.1,0.3c0,0,0,0.1-0.1,0.1
				c-0.1,0.1-0.2,0.1-0.2,0.1c-0.1,0-0.2,0-0.3-0.1c-0.1-0.1-0.1-0.2-0.2-0.3C-265,314.3-265,313.5-265,313.5z"/>
		</g>
	</g>
</g>
<g id="_x30_.1.0.2.31.0_21_">
	<title  id="0.1.0.2.31.0.0">text:Arduino</title>
	<g id="_x30_.1.0.2.31.0.1_21_" transform="matrix(1 0 0 1 109.0161 55.1792)">
		<g id="_x30_.1.0.2.31.0.1.0_21_" enable-background="new    ">
			<path fill="#231F20" d="M-291.5,322.1c0.4,0,0.4,0,0.5,0c0.1,0,0.2,0.1,0.3,0.1c0.1,0.1,0.1,0.2,0.1,0.3c0,0.1,0,0.1-0.1,0.2
				c0,0-0.1,0-0.1,0c0,0,0,0,0,0c0,0-0.1,0-0.1,0c0,0,0-0.1,0-0.1c0,0,0,0,0,0c0,0,0-0.1-0.1-0.1l0,0h-0.4h-0.4l0,0c0,0,0,0,0,0.1
				c0,0,0.3,0.4,0.6,0.8c0.3,0.4,0.6,0.8,0.6,0.8c0,0,0,0.1,0.1,0.2c0,0.2-0.1,0.4-0.3,0.4c0,0,0,0-0.5,0c-0.4,0-0.4,0-0.5,0
				c-0.1,0-0.2-0.1-0.3-0.1c-0.1-0.1-0.1-0.2-0.1-0.3c0-0.1,0-0.1,0-0.2c0,0,0,0,0.1,0c0,0,0,0,0,0c0,0,0.1,0,0.1,0
				c0,0,0,0.1,0.1,0.1c0,0,0,0,0,0c0,0,0,0.1,0.1,0.1l0,0h0.4l0.4,0l0,0c0,0,0,0,0-0.1c0,0-0.3-0.4-0.6-0.8s-0.6-0.8-0.6-0.8
				c-0.1-0.1-0.1-0.3,0-0.4c0.1-0.1,0.2-0.1,0.3-0.2C-292,322.1-291.9,322.1-291.5,322.1z"/>
			<path fill="#231F20" d="M-289.8,322.1l0.6,0c0.7,0,0.6,0,0.7,0c0.2,0.1,0.3,0.2,0.4,0.4c0,0,0,0.7,0,0.7c0,0.2-0.2,0.4-0.4,0.4
				c0,0,0,0-0.4,0h-0.4l0,0.4c0,0.5,0,0.4,0,0.5c0,0,0,0.1-0.1,0.1c0,0-0.1,0-0.1,0c0,0,0,0-0.1,0c0,0,0,0,0-0.1c0,0,0,0.1,0-1.2
				V322.1z M-289.1,322.5h-0.4v0.5v0.5h0.4c0.5,0,0.4,0,0.5,0c0,0,0.1,0,0.1-0.1c0,0,0,0,0-0.4v-0.3l0,0c0-0.1-0.1-0.1-0.1-0.1
				C-288.7,322.5-288.7,322.5-289.1,322.5z"/>
			<path fill="#231F20" d="M-286.6,322.1c0.6,0,0.7,0,0.7,0c0.1,0,0.1,0.1,0.1,0.2c0,0.1-0.1,0.1-0.1,0.2c0,0-0.1,0-0.3,0h-0.2v0.9
				v0.9h0.2c0.3,0,0.3,0,0.3,0c0,0,0.1,0,0.1,0.1c0,0.1,0,0.2-0.1,0.2c0,0-0.2,0-0.7,0h-0.7l0,0c-0.1,0-0.1-0.1-0.1-0.2
				c0-0.1,0-0.1,0.1-0.2l0,0l0.3,0h0.3v-0.9v-0.9h-0.3h-0.3l0,0c0,0-0.1,0-0.1-0.1c0,0,0-0.1,0-0.1c0,0,0.1-0.1,0.1-0.1
				C-287.2,322.1-286.9,322.1-286.6,322.1z"/>
		</g>
	</g>
</g>
<g>
	<polygon fill="#232323" points="-137.4,405.2 -158.9,405.2 -162.5,408.8 -168,408.8 -168,423.5 -137.4,423.5 	"/>
	<rect x="-168.1" y="408.8" fill="#232323" width="5.6" height="14.7"/>
	<path fill="#232323" d="M-162.6,408.8"/>
	<rect x="-168.1" y="421.9" width="30.7" height="1.6"/>
	<polygon points="-158.9,405.2 -137.4,405.2 -137.4,406.8 -160.5,406.8 	"/>
	<rect x="-168.1" y="417.7" fill="#111111" fill-opacity="0.4" width="30.7" height="5.8"/>
	<rect x="-168.1" y="411.3" fill="#3D3D3D" fill-opacity="0.3" width="30.7" height="6.4"/>
	<polygon fill="#FFFFFF" points="-148.2,408.6 -152.2,413.7 -149.5,414.2 -152.9,420.4 -146.3,412.9 -149.1,412.3 	"/>
	<rect x="-142" y="405.2" fill="#232323" width="4.6" height="18.4"/>
</g>
<g opacity="0.3">
	<rect x="-177" y="400.8" fill="#343433" width="4.3" height="4.4"/>
	<rect x="-176.2" y="410.8" fill="#343433" width="4.3" height="4.3"/>
	<rect x="-176.2" y="420.3" fill="#343433" width="4.4" height="4.3"/>
	<rect x="-185.7" y="410.8" fill="#343433" width="4.3" height="4.3"/>
	<rect x="-185.8" y="420.3" fill="#343433" width="4.3" height="4.3"/>
	<rect x="-195" y="410.8" fill="#343433" width="4.3" height="4.3"/>
	<rect x="-195" y="420.3" fill="#343433" width="4.3" height="4.3"/>
	<rect x="-204.8" y="410.8" fill="#343433" width="4.3" height="4.3"/>
	<rect x="-204.9" y="420.3" fill="#343433" width="4.3" height="4.3"/>
	<rect x="-214.4" y="410.8" fill="#343433" width="4.3" height="4.3"/>
	<rect x="-214.5" y="420.3" fill="#343433" width="4.4" height="4.3"/>
	<rect x="-224.7" y="410.8" fill="#343433" width="4.3" height="4.3"/>
	<rect x="-224.7" y="420.3" fill="#343433" width="4.3" height="4.3"/>
	<rect x="-234.3" y="410.9" fill="#343433" width="4.3" height="4.4"/>
	<rect x="-234.3" y="420.4" fill="#343433" width="4.3" height="4.4"/>
</g>
<line fill="none" stroke="#000000" stroke-width="1.08" stroke-linecap="round" stroke-linejoin="round" stroke-miterlimit="10" x1="-220.9" y1="362.4" x2="-218.5" y2="362.4"/>
<line fill="none" stroke="#000000" stroke-width="1.08" stroke-linecap="round" stroke-linejoin="round" stroke-miterlimit="10" x1="-213.7" y1="362.4" x2="-211.3" y2="362.4"/>
<line fill="none" stroke="#000000" stroke-width="1.08" stroke-linecap="round" stroke-linejoin="round" stroke-miterlimit="10" x1="-206.5" y1="362.4" x2="-204.1" y2="362.4"/>
<line fill="none" stroke="#000000" stroke-width="1.08" stroke-linecap="round" stroke-linejoin="round" stroke-miterlimit="10" x1="-199.3" y1="362.4" x2="-196.9" y2="362.4"/>
<line fill="none" stroke="#000000" stroke-width="1.08" stroke-linecap="round" stroke-linejoin="round" stroke-miterlimit="10" x1="-192.1" y1="362.4" x2="-189.7" y2="362.4"/>
<line fill="none" stroke="#000000" stroke-width="1.08" stroke-linecap="round" stroke-linejoin="round" stroke-miterlimit="10" x1="-184.9" y1="362.4" x2="-182.5" y2="362.4"/>
<line fill="none" stroke="#000000" stroke-width="1.08" stroke-linecap="round" stroke-linejoin="round" stroke-miterlimit="10" x1="-228.1" y1="362.4" x2="-225.7" y2="362.4"/>
<path fill="#99906C" d="M-180.1,360c-1.3,0-2.4,1.1-2.4,2.4c0,1.3,1.1,2.4,2.4,2.4c1.3,0,2.4-1.1,2.4-2.4
	C-177.7,361.1-178.8,360-180.1,360z M-180.1,363.6c-0.7,0-1.2-0.5-1.2-1.2c0-0.7,0.5-1.2,1.2-1.2c0.7,0,1.2,0.5,1.2,1.2
	C-178.9,363.1-179.4,363.6-180.1,363.6z"/>
<path fill="#99906C" d="M-187.3,360c-1.3,0-2.4,1.1-2.4,2.4c0,1.3,1.1,2.4,2.4,2.4c1.3,0,2.4-1.1,2.4-2.4
	C-184.9,361.1-186,360-187.3,360z M-187.3,363.6c-0.7,0-1.2-0.5-1.2-1.2c0-0.7,0.5-1.2,1.2-1.2c0.7,0,1.2,0.5,1.2,1.2
	C-186.1,363.1-186.6,363.6-187.3,363.6z"/>
<path fill="#99906C" d="M-230.5,360c-1.3,0-2.4,1.1-2.4,2.4c0,1.3,1.1,2.4,2.4,2.4c1.3,0,2.4-1.1,2.4-2.4
	C-228.1,361.1-229.2,360-230.5,360z M-230.5,363.6c-0.7,0-1.2-0.5-1.2-1.2c0-0.7,0.5-1.2,1.2-1.2c0.7,0,1.2,0.5,1.2,1.2
	C-229.3,363.1-229.8,363.6-230.5,363.6z"/>
<path fill="#99906C" d="M-223.3,360c-1.3,0-2.4,1.1-2.4,2.4c0,1.3,1.1,2.4,2.4,2.4c1.3,0,2.4-1.1,2.4-2.4
	C-220.9,361.1-222,360-223.3,360z M-223.3,363.6c-0.7,0-1.2-0.5-1.2-1.2c0-0.7,0.5-1.2,1.2-1.2c0.7,0,1.2,0.5,1.2,1.2
	C-222.1,363.1-222.6,363.6-223.3,363.6z"/>
<path fill="#99906C" d="M-216.1,360c-1.3,0-2.4,1.1-2.4,2.4c0,1.3,1.1,2.4,2.4,2.4c1.3,0,2.4-1.1,2.4-2.4
	C-213.7,361.1-214.8,360-216.1,360z M-216.1,363.6c-0.7,0-1.2-0.5-1.2-1.2c0-0.7,0.5-1.2,1.2-1.2c0.7,0,1.2,0.5,1.2,1.2
	C-214.9,363.1-215.4,363.6-216.1,363.6z"/>
<path fill="#99906C" d="M-208.9,360c-1.3,0-2.4,1.1-2.4,2.4c0,1.3,1.1,2.4,2.4,2.4s2.4-1.1,2.4-2.4
	C-206.5,361.1-207.6,360-208.9,360z M-208.9,363.6c-0.7,0-1.2-0.5-1.2-1.2c0-0.7,0.5-1.2,1.2-1.2s1.2,0.5,1.2,1.2
	C-207.7,363.1-208.2,363.6-208.9,363.6z"/>
<path fill="#99906C" d="M-201.7,360c-1.3,0-2.4,1.1-2.4,2.4c0,1.3,1.1,2.4,2.4,2.4c1.3,0,2.4-1.1,2.4-2.4
	C-199.3,361.1-200.4,360-201.7,360z M-201.7,363.6c-0.7,0-1.2-0.5-1.2-1.2c0-0.7,0.5-1.2,1.2-1.2c0.7,0,1.2,0.5,1.2,1.2
	C-200.5,363.1-201,363.6-201.7,363.6z"/>
<path fill="#99906C" d="M-194.5,360c-1.3,0-2.4,1.1-2.4,2.4c0,1.3,1.1,2.4,2.4,2.4c1.3,0,2.4-1.1,2.4-2.4
	C-192.1,361.1-193.2,360-194.5,360z M-194.5,363.6c-0.7,0-1.2-0.5-1.2-1.2c0-0.7,0.5-1.2,1.2-1.2s1.2,0.5,1.2,1.2
	C-193.3,363.1-193.8,363.6-194.5,363.6z"/>
<path fill="#99906C" d="M-159.8,398.4c-1.3,0-2.4,1.1-2.4,2.4c0,1.3,1.1,2.4,2.4,2.4c1.3,0,2.4-1.1,2.4-2.4
	S-158.4,398.4-159.8,398.4z M-159.8,402c-0.7,0-1.2-0.5-1.2-1.2c0-0.7,0.5-1.2,1.2-1.2c0.7,0,1.2,0.5,1.2,1.2
	C-158.6,401.4-159.1,402-159.8,402z"/>
</svg>
