<?xml version="1.0" encoding="utf-8"?>
<!-- Generator: Adobe Illustrator 18.1.1, SVG Export Plug-In . SVG Version: 6.00 Build 0)  -->
<!DOCTYPE svg PUBLIC "-//W3C//DTD SVG 1.1//EN" "http://www.w3.org/Graphics/SVG/1.1/DTD/svg11.dtd">
<svg version="1.1" id="Layer_1" xmlns="http://www.w3.org/2000/svg" xmlns:xlink="http://www.w3.org/1999/xlink" x="0px" y="0px"
	 viewBox="-9 81 630 630" enable-background="new -9 81 630 630" xml:space="preserve">
<g>
	<path fill="#231F20" d="M606.5,428.6c0-2.8-2.2-3.4-4.5-3.4c-2,0-3.9,0-5.6,0c0,4.2,0,8.7,0,12.9c0.6,0,1.1,0,1.7,0
		c0-2,0-3.9,0-5.9c0.8,0,2,0,2.8,0c1.1,2,2.5,3.9,3.7,5.9c0.6,0,1.4,0,2,0c-1.4-2-2.5-3.9-3.9-5.9
		C604.8,432.3,606.5,431.4,606.5,428.6z M597.8,431.2c0-1.4,0-3.1,0-4.5c1.1,0,2.5,0,3.7,0c1.7,0,3.4,0.3,3.4,2.2
		c0,2-1.7,2.2-3.4,2.2C600.3,431.2,598.9,431.2,597.8,431.2z"/>
	<path fill="#231F20" d="M600.6,420.5c-6.5,0-11.8,5.3-11.8,11.8c0,6.5,5.3,11.8,11.8,11.8s11.8-5.3,11.8-11.8
		C612.1,425.5,607,420.5,600.6,420.5z M600.6,442.1c-5.6,0-9.8-4.8-9.8-10.1c0-5.3,4.2-10.1,9.8-10.1s9.8,4.8,9.8,10.1
		C610.4,437.6,606.2,442.1,600.6,442.1z"/>
	<path fill="#EF3E42" d="M233,389c2.3,30.1-22.5,56.8-52.3,57.7c-31.8,0.8-54.6-26.7-48.4-57.7C165.8,389,199.2,389,233,389z"/>
	<path fill="#EF3E42" d="M229.9,375.2c-7.3-19.1-25.6-30.4-45.8-29.8c-19.7,0.6-38,12.4-47,29.8C168,375.2,198.9,375.2,229.9,375.2z
		"/>
	<path fill="#231F20" d="M30.8,389c18,0,36,0,54,0c3.7,0,7-3.1,7.3-6.8c0.3-3.9-2.5-7-6.5-7c-21.7,0-43.3,0-64.7,0
		c2.8-7.9,5.3-16,8.2-23.9c0.6-2,2.8-3.4,4.8-3.4c19.1,0,38,0,57.1,0c19.4,0,34,16,32.1,35.2c-1.7,18.6-17.7,33.2-36.6,33.2
		c-11.8,0-23.6,0-35.7,0c-3.4,0-6.2,2-7.3,5.1c-2.3,6.2-4.2,12.7-6.5,18.8c-0.6,2-2.5,3.4-4.8,3.4c-8.7,0-17.4,0-26.2,0
		c-4.8,0-7.6-4.5-5.9-8.7c3.7-10.7,7.3-21.4,11-32.1C14.2,394.9,22,389,30.8,389z"/>
	<path fill="#231F20" d="M532.8,443.8c-2-7.6-3.9-15.2-6.2-22.8c-0.8-2.8-3.1-4.8-6.2-4.8c-2.8,0-5.6,0-8.4,0c-3.4,0-6.2,2-7.3,5.1
		c-2.2,6.2-4.2,12.7-6.5,18.8c-0.8,2-2.5,3.4-4.8,3.4c-8.7,0-17.4,0-26.2,0c-4.8,0-7.6-4.5-5.9-8.7c3.7-10.7,7.3-21.4,11-32.1
		c2.8-8.2,10.7-13.8,19.4-13.8c18,0,36,0,54,0c3.7,0,7-3.1,7.3-6.8c0.3-3.9-2.5-7-6.5-7c-21.7,0-43.3,0-64.7,0
		c2.8-7.9,5.3-16,8.2-23.9c0.6-2,2.5-3.4,4.8-3.4c19.1,0,38,0,57.1,0c19.4,0,34,16,32.1,35.2c-1.1,12.9-9.6,24.2-20.8,29.5
		c2.8,10.4,5.6,20.5,8.2,30.9C558.7,443.8,545.7,443.8,532.8,443.8z"/>
	<path fill="#231F20" d="M294.9,375.2c2.5-7,4.8-14.3,7.3-21.4c1.1-3.1-1.1-6.2-4.2-6.2c-9.6,0-19.1,0-28.7,0
		c-2.2,0-4.2,1.4-4.8,3.4c-2.8,7.9-5.3,16-8.2,23.9C269,375.2,281.9,375.2,294.9,375.2z"/>
	<path fill="#231F20" d="M318.8,443.8c-25.9,0-51.5,0-77.3,0c-4.8,0-7.6-4.5-5.9-8.7c5.3-15.2,10.4-30.7,15.8-45.8
		c12.9,0,25.9,0,38.8,0c-1.7,5.3-3.7,10.4-5.3,15.8c-1.4,4.2,1.4,8.7,6.2,8.7c11,0,21.9,0,32.9,0c4.8,0,7.6,4.5,6.2,8.7
		c-2,5.9-4.2,12.1-6.2,18C323,442.1,321,443.8,318.8,443.8z"/>
	<path fill="#231F20" d="M407.9,349.6c-7,8.4-14.3,17.2-21.4,25.6c19.1,0,38.2,0,57.4,0c-0.8-7.9-1.4-15.5-2.2-23.3
		c-0.3-2.2-2.2-3.9-4.5-3.9c-8.4,0-17.2,0-25.6,0C410.2,347.9,408.8,348.5,407.9,349.6z"/>
	<path fill="#231F20" d="M415.5,443.8c9.6,0,19.4,0,29,0c2.8,0,5.3-2.5,5.1-5.6c-1.4-16.3-3.1-32.6-4.5-49.2c-23.3,0-46.7,0-70.3,0
		c-12.1,14.6-24.2,29-36.3,43.6c-3.7,4.5-1.1,11.2,4.8,11.2c7.6,0,15.5,0,23.1,0c1.4,0,3.1-0.8,3.9-2c6.5-7.6,12.7-15.2,19.1-22.8
		c1.4-1.7,3.4-2.5,5.6-2.5c2.5,0,5.1,0,7.9,0c3.4,0,6.2,2.2,6.5,5.6c0.6,5.9,1.1,11.8,1.7,17.4C411.3,441.8,413.3,443.8,415.5,443.8
		z"/>
</g>
</svg>
