<?xml version="1.0" encoding="utf-8"?>
<!-- Generator: Adobe Illustrator 18.1.1, SVG Export Plug-In . SVG Version: 6.00 Build 0)  -->
<svg version="1.1" id="Layer_1" xmlns="http://www.w3.org/2000/svg" xmlns:xlink="http://www.w3.org/1999/xlink" x="0px" y="0px"
	 viewBox="0 0 419 419.1" enable-background="new 0 0 419 419.1" xml:space="preserve">
<g>
	<path fill="#2678C3" d="M209,419.1c-67.8,0-135.7,0-203.5,0c-6.3,0-5.5,0.8-5.5-5.6C0,277.6,0,141.8,0,6c0-1,0.1-2,0-3
		c-0.2-2.1,0.6-3.1,2.8-2.9c1.2,0.1,2.3,0,3.5,0c135.5,0,271,0,406.5,0c1,0,2,0.1,3,0c2.8-0.4,3.5,1,3.3,3.4c-0.1,0.8,0,1.7,0,2.5
		c0,135.7,0,271.3,0,407c0,1.2-0.1,2.3,0,3.5c0.1,1.9-0.6,2.8-2.5,2.6c-1.3-0.1-2.7,0-4,0C344.7,419.1,276.8,419.1,209,419.1z
		 M68.1,380c2.2-1.1,4.2-2,6.1-3c36-18.4,71.9-36.9,107.9-55.3c59.5-30.5,119-61,178.6-91.4c2.6-1.3,3.5-2.8,3.5-5.7
		c-0.1-17.5-0.1-35,0-52.5c0-3.1-1-4.7-3.7-6.1c-45.5-23.2-90.9-46.5-136.4-69.8C173.4,70.3,122.8,44.4,72.1,18.5
		c-4.6-2.4-4.7-2.3-4.7,3c0,19.3,0.1,38.7-0.1,58c0,3.5,1.1,5.3,4.3,6.8c76.2,36.4,152.4,73,228.5,109.5c1.4,0.7,3.3,0.8,3.9,3
		c-12.4,6-24.8,12-37.3,18c-65.1,31.2-130.1,62.4-195.3,93.5c-3.3,1.6-4.1,3.4-4.1,6.8c0.1,19.3,0.1,38.7,0.1,58
		C67.5,376.6,67.1,378.1,68.1,380z M273.2,376.1c13.2,0,26.3,0,39.5,0c14,0,28-0.1,41.9,0.1c3.4,0.1,4.7-1.1,5.1-4.3
		c0.5-3.5,1.2-6.9,2-10.3c0.6-2.5-0.3-3.4-2.7-3.2c-1.2,0.1-2.3,0-3.5,0c-52.3,0-104.5,0-156.8,0c-7.3,0-7.3,0-8.8,7.5
		c-0.4,1.8-0.7,3.6-1.1,5.4c-0.9,4.7-0.9,4.8,4,4.8C219.6,376.1,246.4,376.1,273.2,376.1z"/>
</g>
</svg>
