<?xml version="1.0" encoding="utf-8"?>
<!-- Generator: Adobe Illustrator 18.1.1, SVG Export Plug-In . SVG Version: 6.00 Build 0)  -->
<!DOCTYPE svg PUBLIC "-//W3C//DTD SVG 1.1//EN" "http://www.w3.org/Graphics/SVG/1.1/DTD/svg11.dtd">
<svg version="1.1" id="Layer_1" xmlns="http://www.w3.org/2000/svg" xmlns:xlink="http://www.w3.org/1999/xlink" x="0px" y="0px"
	 viewBox="6 97 600 600" enable-background="new 6 97 600 600" xml:space="preserve">
<g>
	<path stroke="#000000" stroke-miterlimit="10" d="M404,333.9c-2.2,5.3-4.3,10.5-6.5,15.8c-9.4,22.9-18.7,45.9-28.1,68.8
		c-0.9,2.3-1.8,4.6-2.9,6.9c-0.3,0.7-1.2,1.4-1.9,1.5c-7.3,0.7-14.5,1.4-22.4,2.1c8.1-20,16-39.5,24.2-59.6c-2,0.9-3.3,1.6-4.6,2.2
		c-6.3,3.1-12.5,6.2-18.7,9.4c-1.6,0.8-2.5,0.6-3.8-0.7c-4.2-4.2-8.5-8.2-12.9-12.5c-1.8,4.4-3.7,9-5.6,13.6
		c-1.9,4.7-3.8,9.4-5.6,14.1c-0.6,1.6-1.9,1.6-3.2,1.6c-11.8,0-23.7,0-35.5,0c-14,0-28,0-42,0c-1,0-2,0-3.4,0c1.6-4,3-7.8,4.5-11.5
		c9.9-24.3,19.9-48.6,29.8-72.9c1.9-4.5,3.6-9.1,5.6-13.6c0.3-0.8,1.2-1.8,2-1.9c7.5-0.7,15-1.3,23.3-2
		c-12.1,29.5-23.9,58.4-35.9,87.7c1.2,0.1,2,0.2,2.8,0.2c10.2,0,20.5,0,30.7,0.1c1.9,0,2.9-0.5,3.7-2.4
		c6.1-15.1,12.2-30.1,18.4-45.1c0.3-0.8,0.7-1.5,1.1-2.6c4.4,4,8.6,7.9,12.9,11.9c5.3,4.9,10.6,9.8,15.9,14.8
		c1.4,1.3,2.5,1.5,4.3,0.6c16.8-8.6,33.7-17,50.5-25.4c0.9-0.4,1.8-0.9,2.7-1.3C403.7,333.7,403.8,333.8,404,333.9z"/>
	<path stroke="#000000" stroke-miterlimit="10" d="M395.8,422.5c1.1-5.6,4.2-8.1,9.5-9.7c15.8-4.8,30.7-11.6,43.4-22.6
		c5.4-4.7,9.8-10.2,12.4-16.9c4.3-11.4,1.5-21.5-5.6-30.8c-7.4-9.6-17.3-15.9-27.9-21.3c-17.2-8.6-35.4-14-54.4-17.1
		c-13.6-2.2-27.3-3.6-41-5.3c0.4-3.1,0.8-3.5,4.4-3.4c26,0.9,51.6,4.2,76.7,10.8c19,5,37.4,11.6,53.7,22.9
		c6.9,4.8,13.1,10.3,17.5,17.5c7.8,12.8,5.7,25.6-3.1,36.7c-7.1,8.9-16.4,14.9-26.3,20.1c-18.1,9.4-37.5,14.9-57.4,19
		C397.1,422.5,396.5,422.4,395.8,422.5z"/>
	<path stroke="#000000" stroke-miterlimit="10" d="M238.1,302.1c-1,2.4-1.7,4.5-2.7,6.4c-0.5,0.9-1.7,1.4-2.7,1.8
		c-8.9,3.6-18,6.7-26.7,10.7c-9.3,4.3-17.6,10.3-24.7,17.8c-12,12.8-12.7,29.5-1.9,43.2c6.1,7.6,13.7,13.3,22.1,18
		c20,11.2,41.8,17.5,64.3,20.9c11.9,1.8,23.9,2.5,35.9,3.7c0.5,0,1,0.2,1.4,0.3c-0.5,3.9-0.8,4.1-4.6,3.9
		c-22.1-0.7-43.9-3.3-65.5-8.1c-19.5-4.3-38.5-10.2-56-20c-10.1-5.6-19.4-12.2-26-22c-8.1-12.2-7.4-26,1.9-37.5
		c6.5-8,14.6-14,23.6-18.9c17.4-9.5,36.1-15.4,55.4-19.6c1.6-0.3,3.2-0.7,4.9-1C237,301.9,237.4,302,238.1,302.1z"/>
	<path stroke="#000000" stroke-miterlimit="10" d="M339.5,465.4c-2.2,5.6-4.4,11.2-6.6,16.8c-4.1,10.4-8.3,20.8-12.3,31.2
		c-0.7,1.8-1.6,2.4-3.4,2.3c-1.9-0.1-3.8,0-6.2,0c4.3-11.1,8.5-21.9,12.7-32.6c-0.1-0.1-0.3-0.3-0.4-0.4c-4.9,3-9.8,6-14.9,9.1
		c-2.4-3-4.7-6.1-7.4-9.5c-0.6,1.3-1,2.3-1.4,3.3c-2.6,6.6-5.1,13.1-7.6,19.7c-0.5,1.4-1.3,1.9-2.7,1.8c-2.1-0.1-4.3,0-6.9,0
		c5.7-14.4,11.3-28.3,16.9-42.6c4.3,5.5,8.4,10.7,12.5,16c9.2-5.3,18.2-10.4,27.3-15.6C339.1,465.1,339.3,465.3,339.5,465.4z"/>
	<path stroke="#000000" stroke-miterlimit="10" d="M489.7,506.7c0.9-2.4,1.9-4.8,2.8-7.2c1.4-3.6,0-5.7-3.9-5.7
		c-3.5-0.1-7,0-10.4-0.1c-1.5,0-2.2,0.5-2.7,1.9c-1.3,3.4-2.6,6.8-4.1,10.1c-0.2,0.6-0.9,1.3-1.5,1.3c-2.2,0.1-4.4,0.1-7,0.1
		c2.5-6.4,4.9-12.5,7.3-18.5c2.6-6.5,5.2-12.9,7.9-19.3c0.3-0.7,1.2-1.5,1.8-1.5c8.3,0,16.6,0,24.9,0.4c5.1,0.2,6.9,3,5.4,8
		c-0.7,2.4-1.6,4.7-2.7,6.9c-2,4.1-2.9,4.7-9.5,7.5c4.5,2.3,4.8,3.3,2.8,8.4c-0.3,0.9-0.7,1.7-1,2.5
		C497.2,507.7,497,507.8,489.7,506.7z M478.8,487.6c4.2,0,7.9,0,11.5,0c5.8,0,7.8-1.4,10-6.7c0.4-0.9,0.7-1.9,0.9-2.8
		c0.9-2.9,0.2-4-3-4.1c-4.1-0.1-8.3-0.1-12.5,0c-0.7,0-1.7,0.5-1.9,1.1C482.1,479,480.6,483.1,478.8,487.6z"/>
	<path stroke="#000000" stroke-miterlimit="10" d="M451.9,467.2c2.7,0.4,6.3,0.7,9.7,1.5c3.3,0.8,4.5,2.5,3.8,5.7
		c-1.2,5.1-2.7,10.2-4.6,15.1c-1.3,3.5-3.4,6.8-5.2,10.1c-2.2,3.9-5.7,5.9-10,6.7c-6.6,1.3-13.2,1.4-19.9,0.5c-5.3-0.7-7-3-5.9-8.2
		c1.7-8.7,5.4-16.7,10.1-24.1c2.5-4,6.5-5.8,11.1-6.4C444.4,467.7,447.8,467.5,451.9,467.2z M437.2,501.2c1.4-0.1,3-0.1,4.7-0.2
		c3.9-0.2,6.8-2,8.2-5.7c2.2-5.5,4.5-11,6.5-16.6c1.1-3,0.1-4.5-3.1-4.6c-3.8-0.2-7.5-0.2-11.3,0c-2.9,0.2-5.4,1.6-6.6,4.6
		c-0.6,1.5-1.5,2.8-2.1,4.2c-1.7,4.3-3.5,8.6-4.9,13c-1.1,3.3-0.2,4.5,3,5C433.4,501.1,435.2,501.1,437.2,501.2z"/>
	<path stroke="#000000" stroke-miterlimit="10" d="M109.5,508.4c-2.8-0.4-6.5-0.7-10.1-1.6c-2.9-0.7-4.1-2.8-3.7-5.6
		c1.4-9.5,5.5-18,10.5-26.1c2.8-4.5,7.3-6,12.1-6.3c5.5-0.4,11.1-0.4,16.6,0c5.6,0.3,7.6,3.1,6.4,8.5c-1.8,8.1-5,15.6-9.3,22.7
		c-2.7,4.5-6.7,6.8-11.7,7.5C117.1,507.8,113.8,508,109.5,508.4z M124.2,474.2c0,0.1,0,0.2,0,0.3c-1.4,0-2.8-0.1-4.2,0
		c-3.2,0.3-6.4,0.8-7.9,4.3c-2.6,6.1-5.1,12.2-7.4,18.4c-0.9,2.6,0,4,2.6,4.2c4.3,0.3,8.6,0.2,12.9-0.1c1.5-0.1,3.4-1.3,4.3-2.6
		c4.2-6.2,6.6-13.3,8.6-20.5c0.5-1.7-0.3-2.9-2.2-3.2C128.6,474.6,126.4,474.4,124.2,474.2z"/>
	<path stroke="#000000" stroke-miterlimit="10" d="M350.9,507.8c-2.8-0.4-6.3-0.6-9.7-1.3c-3.6-0.8-4.5-2-4.2-5.6
		c0.2-2.5,0.7-5.1,1.6-7.5c2.1-5.3,4.5-10.5,6.8-15.7c2.7-6,7.6-9.2,14.1-9.5c5.4-0.3,10.8-0.1,16.2-0.2c0.7,0,1.5,0.2,2.2,0.4
		c4,1,5.4,2.3,4.7,6.2c-1,5.2-2.8,10.3-4.6,15.4c-1,2.9-2.6,5.7-4.2,8.5c-2.7,5-7,7.9-12.7,8.4C357.8,507.2,354.7,507.5,350.9,507.8
		z M353.7,501.5C353.7,501.5,353.7,501.4,353.7,501.5c1-0.1,2,0,3-0.1c3.2-0.4,6.8,0,8.8-3.1c4.1-6.2,6.6-13.2,8.5-20.3
		c0.6-2.1-0.4-3.6-2.6-3.6c-4.7,0-9.4,0.1-14.1,0.4c-1.1,0.1-2.6,1.1-3.2,2.1c-4,6.4-6.7,13.3-8.7,20.5c-0.5,2,0.5,3.2,2.5,3.5
		C349.9,501.1,351.8,501.3,353.7,501.5z"/>
	<path stroke="#000000" stroke-miterlimit="10" d="M518.7,494.8c0,0.2,0,0.3,0,0.5c-1.7,5.1-1.1,6.1,4.2,6.1c2.8,0,5.7,0,8.5-0.3
		c3.5-0.4,7.2-4.8,6.9-8.3c-0.1-2-1.8-2.2-3.3-2.3c-4-0.4-8-0.5-11.9-1c-7.3-0.9-8.3-2.2-5.9-9.7c2.2-6.8,6.4-11.4,13.9-12.1
		c1.7-0.2,3.5-0.4,5.2-0.4c4,0.1,8,0.2,12,0.7c3.9,0.5,5,2.6,4.2,6.3c-0.1,0.6-0.3,1.1-0.4,1.7c-0.4,2.1-1.4,3.2-3.7,2.9
		c-1.5-0.2-3.1,0-4.7,0c-0.1-0.4-0.2-0.7-0.1-0.9c0.5-4.2,0-4.8-4.3-4.9c-2.3,0-4.7,0.1-7,0.3c-3.9,0.4-6.9,3.8-7.1,7.7
		c-0.1,1.9,1.3,2.1,2.7,2.3c4.1,0.4,8.3,0.7,12.4,1.1c6.9,0.7,8.2,2.7,5.9,9.3c-0.8,2.3-1.9,4.6-3.2,6.8c-2.6,4.6-7.2,6-12,6.3
		c-5,0.3-10.1,0.1-15.1,0c-1.3,0-2.6-0.5-3.9-0.9c-2-0.5-2.7-2.1-2.8-4c0-0.3,0-0.7,0.1-1C510.1,494.8,511.5,493.9,518.7,494.8z"/>
	<path stroke="#000000" stroke-miterlimit="10" d="M211.4,500c-6.1,0-11.9,0-17.7,0c-0.5,0-1,0.5-1.4,0.8c-0.6,0.6-1.4,1.3-1.7,2.1
		c-2.3,5.2-6.6,5.3-11.6,4.3c1.1-1.6,2.2-3.1,3.3-4.6c8-10.6,16.2-21.1,24.1-31.8c1.5-2,3.1-2.8,5.5-2.7c2.7,0.2,5.5,0,8.7,0
		c0,1.7,0,3.3,0,5c-0.3,10.7-0.7,21.4-1,32.2c0,1.6-0.4,2.3-2.1,2.2c-7.4-0.2-5.9,1-6.1-6C211.4,501.2,211.4,500.8,211.4,500z
		 M212,474.5c-5,6.7-10,13.2-15.1,20c5.3,0,10,0,15.1,0C212,487.8,212,481.4,212,474.5z"/>
	<path stroke="#000000" stroke-miterlimit="10" d="M176.2,481c1.4-5.8,2.1-6.2-5.2-6.8c-2.1-0.2-4.3,0.1-6.4,0.3
		c-3.3,0.2-6,1.6-7.2,4.8c-2.4,6-4.8,12-7,18c-0.9,2.5-0.2,3.8,2.5,4c4.2,0.2,8.6,0.2,12.8-0.3c2.5-0.3,4-2.7,4.7-5
		c0.5-1.6,1.3-2.3,3-2.2c1.8,0.1,3.5,0,5.3,0c-0.4,5.7-5.3,11.9-10.7,13.1c-7.4,1.6-15,1.8-22.5,0.1c-3.4-0.8-4.5-2-3.8-5.5
		c1-5,2.6-9.9,4.2-14.8c0.8-2.6,2.1-5,3.2-7.5c2.8-6,7.4-9.9,14.1-10.4c5.9-0.5,11.8-0.5,17.6-0.1c4.5,0.3,5.9,2.6,5,7
		c-1.2,5.6-1.3,5.7-6.9,5.7C177.9,481.3,177.1,481.1,176.2,481z"/>
	<path stroke="#000000" stroke-miterlimit="10" d="M70.9,501.1c6.9,0,13.2,0,19.8,0c-0.8,2.1-1.4,3.9-2.2,5.6
		c-0.2,0.4-1,0.8-1.5,0.8c-8.8,0-17.6,0-26.9,0c1.5-3.8,2.8-7.3,4.2-10.8c4.6-11.6,9.3-23.2,13.8-34.9c0.7-1.7,1.5-2.6,3.4-2.4
		c2,0.2,4,0,6.4,0C82.2,473.3,76.6,486.9,70.9,501.1z"/>
	<path stroke="#000000" stroke-miterlimit="10" d="M389.1,507.2c4.4-11.1,8.6-21.8,13-32.8c-4.2,0-8.1,0-12.4,0
		c0.9-2.2,1.5-4.1,2.4-5.8c0.2-0.4,1.1-0.7,1.6-0.7c10.2-0.1,20.3-0.2,30.5-0.2c0.4,0,0.8,0.3,1.3,0.5c-0.6,1.7-1.1,3.4-1.9,4.9
		c-0.4,0.7-1.5,1.2-2.3,1.3c-3,0.1-6,0.1-9,0c-1.6-0.1-2.4,0.4-3,2c-3.7,9.6-7.6,19.1-11.3,28.6c-0.7,1.8-1.5,2.5-3.4,2.3
		C393,507.1,391.3,507.2,389.1,507.2z"/>
	<path stroke="#000000" stroke-miterlimit="10" d="M257.6,500.9c-0.9,2.2-1.5,3.9-2.3,5.6c-0.2,0.4-0.8,0.9-1.3,0.9
		c-8.9,0-17.8,0-26.7,0c-0.1,0-0.1-0.1-0.4-0.3c0.2-0.7,0.5-1.5,0.7-2.2c4.5-11.4,9.1-22.7,13.5-34.1c0.8-2.2,1.9-3,4.2-2.7
		c1.6,0.2,3.1,0,5,0c-4.3,10.9-8.6,21.7-13,32.8C244.3,500.9,250.8,500.9,257.6,500.9z"/>
	<path stroke="#000000" stroke-miterlimit="10" d="M458,303c1.9-1.7,0.7-5.6,4.6-5.6c0,2.8,0,5.4,0,8c-0.3,0-0.5,0-0.8,0
		c-0.1-1.8-0.2-3.5-0.4-5.3c-0.1,0-0.2-0.1-0.4-0.1c-0.6,1.4-1.1,2.8-1.8,4.2c-0.3,0.5-0.9,0.8-1.3,1.2c-0.3-0.4-0.8-0.8-1-1.3
		c-0.6-1.3-1.2-2.7-2.2-4.1c0,1.8,0,3.5,0,5.5c-1.6-1.3-1.8-3.3-1.2-7.9c1.5-0.9,2.4-0.2,2.9,1.3C457,300.3,457.5,301.6,458,303z"/>
	<path stroke="#000000" stroke-miterlimit="10" d="M448.8,305.4c0-2.1,0-4.2,0-6.3c-1-0.4-1.8-0.7-2.6-1c0-0.2,0-0.3,0.1-0.5
		c2,0,4,0,6,0c0,0.1,0.1,0.3,0.1,0.4c-0.8,0.3-1.5,0.6-2.6,1c0,2,0,4.2,0,6.3C449.4,305.4,449.1,305.4,448.8,305.4z"/>
</g>
</svg>
