<?xml version="1.0" encoding="UTF-8" standalone="no"?>
<!-- Created with Inkscape (http://www.inkscape.org/) -->

<svg
   xmlns:dc="http://purl.org/dc/elements/1.1/"
   xmlns:cc="http://creativecommons.org/ns#"
   xmlns:rdf="http://www.w3.org/1999/02/22-rdf-syntax-ns#"
   xmlns:svg="http://www.w3.org/2000/svg"
   xmlns="http://www.w3.org/2000/svg"
   xmlns:sodipodi="http://sodipodi.sourceforge.net/DTD/sodipodi-0.dtd"
   xmlns:inkscape="http://www.inkscape.org/namespaces/inkscape"
   id="svg3457"
   version="1.1"
   inkscape:version="0.91 r13725"
   width="610"
   height="355"
   viewBox="0 0 610 355"
   sodipodi:docname="relayr.svg">
  <metadata
     id="metadata3463">
    <rdf:RDF>
      <cc:Work
         rdf:about="">
        <dc:format>image/svg+xml</dc:format>
        <dc:type
           rdf:resource="http://purl.org/dc/dcmitype/StillImage" />
        <dc:title />
      </cc:Work>
    </rdf:RDF>
  </metadata>
  <defs
     id="defs3461" />
  <sodipodi:namedview
     pagecolor="#ffffff"
     bordercolor="#666666"
     borderopacity="1"
     objecttolerance="10"
     gridtolerance="10"
     guidetolerance="10"
     inkscape:pageopacity="0"
     inkscape:pageshadow="2"
     inkscape:window-width="2560"
     inkscape:window-height="1391"
     id="namedview3459"
     showgrid="false"
     inkscape:zoom="1.7253521"
     inkscape:cx="500.59661"
     inkscape:cy="152.92443"
     inkscape:window-x="0"
     inkscape:window-y="0"
     inkscape:window-maximized="1"
     inkscape:current-layer="g3467" />
  <g
     id="g3467"
     transform="translate(0.57958825,-0.57959616)">
    <path
       style="fill:#50b4e9"
       d="m 14.12549,193.87257 c -7.6415144,15.01634 -11.2957924,30.7567 -11.3808594,48.62695 -0.172078,36.14885 15.5364454,67.6373 44.7558594,89.71485 13.35125,10.08792 31.285414,17.45379 53,21.76953 6.70105,1.33182 411.94283,0.71947 413.5957,-0.625 0.77192,-0.62789 4.02878,-1.68149 7.23828,-2.33985 14.16965,-2.90659 29.33705,-9.75718 41.63477,-18.80664 25.94001,-19.08835 42.46242,-49.23071 44.55273,-81.27929 1.32899,-20.37606 -2.64244,-39.80486 -11.25,-57.06055 l -4.82617,0 c 11.6808,22.07358 15.43937,48.2727 9.99805,72.12695 -4.78619,20.98226 -14.99592,38.66458 -31.34375,54.2832 -16.53906,15.80133 -34.35506,24.55729 -57.33985,28.18165 -8.53497,1.34584 -34.31634,1.52274 -208.5,1.43164 C 117.17732,349.79812 104.91296,349.68514 95.50049,347.9839 82.485671,345.63156 76.278094,343.65952 66.508303,338.77296 36.575428,323.8014 16.179895,297.66914 8.9301773,264.99952 6.3116437,253.19954 6.3382507,232.68637 8.9887712,220.69874 11.079175,211.24438 14.470469,202.24587 18.932131,193.87257 l -4.806641,0 z"
       id="path3379" />
    <path
       style="fill:#50b4e9"
       d="m 14.12549,193.87257 4.806641,0 c 13.616815,-25.55498 37.388972,-45.17355 66.064453,-53.25391 l 8.49414,-2.39453 0.748047,-4.36133 C 98.439527,109.34768 105.48945,90.783956 117.5415,72.499518 138.80238,40.24415 171.33136,18.131923 210.50049,9.3081118 c 11.78242,-2.6542806 48.6262,-2.6054691 60,0.080078 32.35223,7.638912 58.92587,23.318023 79.84765,47.111328 3.86899,4.4 7.58303,8.138243 8.25391,8.30664 0.67088,0.168398 3.39712,-0.806658 6.05859,-2.166015 34.93893,-17.845215 78.68931,-10.273956 105.625,18.279297 13.25015,14.045863 20.94655,29.44544 24.0293,48.08008 l 1.24024,7.5 9.47265,0.66602 c 32.7253,2.30027 63.12898,20.32921 81.52539,48.34375 1.77432,2.70198 3.38189,5.50848 4.89258,8.36328 l 4.82617,0 c -5.61501,-11.25649 -13.15638,-21.60838 -22.64648,-30.62305 -15.98758,-15.18664 -34.64372,-24.66789 -56.48633,-28.70508 -4.59826,-0.84991 -9.99826,-1.55254 -12,-1.56054 -5.10602,-0.0215 -5.97991,-0.86826 -7.125,-6.90625 -5.7344,-30.23738 -25.00465,-55.299199 -52.38672,-68.130866 -11.72381,-5.493965 -21.94228,-7.972108 -35.62695,-8.638672 -16.55322,-0.806288 -29.68799,1.576433 -44.23047,8.023437 L 360.0415,59.870612 347.77002,47.647955 C 326.10805,26.070712 304.11786,13.517801 275.86572,6.6030337 256.7255,1.9184286 227.568,1.4437033 208.94971,5.51319 c -25.90905,5.663061 -50.38628,18.130883 -70.49219,35.90625 -12.85371,11.363803 -28.39973,32.406821 -35.52149,48.080078 -4.170552,9.178415 -9.856602,27.099682 -11.380852,35.871102 -0.75225,4.32889 -1.971966,8.42588 -2.710938,9.10546 -0.738972,0.67959 -4.26875,2.02007 -7.84375,2.97657 -10.356252,2.77081 -25.701853,10.69051 -35.521484,18.33398 -10.838304,8.43639 -14.543565,12.26365 -21.992188,22.71289 -3.61703,5.07412 -6.719931,10.18244 -9.361328,15.37305 z"
       id="path3477" />
    <path
       style="fill:#3e464f"
       d="m 366.5,265.78415 c -3.94399,-1.39086 -3.77683,-1.04113 -2.59687,-5.43321 l 1.03458,-3.85094 6.94954,0.32886 c 8.18897,0.38751 10.2551,-0.50172 12.58785,-5.41763 l 1.7358,-3.65793 -4.22241,-11.12665 C 379.66617,230.50699 377.16536,224.15 376.43113,222.5 374.14688,217.3667 361,182.72506 361,181.83945 361,181.37775 364.0897,181 367.86601,181 l 6.86601,0 2.01794,5.75 c 1.10987,3.1625 4.12777,12.275 6.70645,20.25 6.59343,20.39133 6.48563,20.15153 8.90131,19.80089 2.06809,-0.30019 3.58214,-4.26666 8.13083,-21.30089 0.73434,-2.75 2.56561,-9.3875 4.0695,-14.75 l 2.73434,-9.75 6.9608,0 c 6.21894,0 6.88909,0.18651 6.28804,1.75 -0.37001,0.9625 -5.8441,17.26665 -12.16466,36.23144 -6.32055,18.96478 -12.72687,36.49096 -14.23627,38.94706 -3.79582,6.17659 -9.57263,9.03131 -18.1403,8.96438 -3.575,-0.0279 -7.85,-0.52686 -9.5,-1.10873 z m -161.45571,-22.7557 c -13.6184,-5.05298 -20.65326,-20.93969 -17.06452,-38.53655 3.30121,-16.18699 12.93618,-24.0116 29.52023,-23.97354 8.72656,0.02 13.03584,1.3185 18.55764,5.59177 5.60027,4.334 9.92483,14.59757 9.93678,23.58317 0.009,6.97949 -1.09673,7.3067 -24.69787,7.3067 l -20.25845,0 -0.60618,2.41525 c -0.82369,3.28183 2.10135,9.12698 6.08965,12.169 1.78207,1.35925 5.76744,3.00147 8.85638,3.64938 4.7837,1.00339 6.9138,0.89954 14.36915,-0.70055 13.33718,-2.86248 13.7529,-2.80482 13.7529,1.90739 0,3.93919 -0.002,3.9411 -6,5.83301 -3.62247,1.14261 -10.16067,2.06822 -16.5,2.33589 -8.81468,0.3722 -11.37568,0.11845 -15.95571,-1.58092 z M 231.8,207.8 c 3.31545,-3.31545 -0.48721,-13.23787 -6.41324,-16.73431 -4.47449,-2.64001 -11.79712,-2.93909 -16.20111,-0.66169 -4.11562,2.12827 -8.14724,7.58444 -8.8629,11.99458 -1.00141,6.17091 0.0485,6.60142 16.09969,6.60142 9.69366,0 14.55708,-0.37952 15.37756,-1.2 z m 69.8838,35.82012 c -7.42965,-2.78395 -10.96995,-8.05065 -10.89663,-16.21027 0.11553,-12.85726 6.73153,-17.22911 27.70421,-18.30694 7.15474,-0.3677 13.62275,-1.04975 14.37336,-1.51566 0.96713,-0.60031 1.2275,-2.2755 0.89366,-5.74982 -0.56613,-5.89181 -3.44976,-9.40796 -8.92459,-10.88218 -4.46925,-1.20345 -17.43748,0.15187 -24.54614,2.56532 -2.5322,0.8597 -4.95302,1.20677 -5.37961,0.77126 -0.42658,-0.4355 -0.9179,-2.56604 -1.09183,-4.73452 l -0.31623,-3.94269 8,-2.33072 c 5.82915,-1.69826 10.84924,-2.37563 18.5,-2.49625 15.02705,-0.23691 20.51312,2.53047 24.79876,12.5094 0.79023,1.84003 1.20124,9.09733 1.20124,21.21058 0,19.10405 -0.0652,18.78478 4.48046,21.93158 1.91116,1.32302 1.92047,1.49682 0.26618,4.96589 -1.93732,4.06261 -2.74125,4.29976 -6.41527,1.89245 -2.99779,-1.96422 -11.1554,-2.10716 -15.83137,-0.27739 -4.82531,1.88821 -22.33285,2.2799 -26.8162,0.59996 z M 329.72018,234.3466 333.5,232.5 l 0,-7.5 0,-7.5 -11.81768,-0.28232 -11.81768,-0.28232 -3.43232,3.43232 c -4.69567,4.69567 -4.66419,8.60045 0.10782,13.37246 l 3.54014,3.54014 7.93004,-0.54353 c 4.65224,-0.31888 9.49239,-1.30682 11.70986,-2.39015 z M 142,216.61078 c 0,-24.65608 0.17566,-27.60614 1.7603,-29.5631 2.52038,-3.11253 13.96263,-5.98317 23.9897,-6.01856 L 176,181 l 0,4.85147 0,4.85147 -8.47096,0.5978 C 153.9394,192.25978 155,189.91201 155,219.03518 L 155,244 l -6.5,0 -6.5,0 0,-27.38922 z m 119,-15.98834 c 0,-33.5077 0.28442,-43.60267 1.25,-44.36694 0.6875,-0.54416 3.6125,-1.28976 6.5,-1.65688 l 5.25,-0.66751 0,45.03445 0,45.03444 -6.5,0 -6.5,0 0,-43.37756 z m 173.66667,42.71089 c -1.09246,-1.09245 -0.7693,-50.74048 0.35119,-53.95471 0.55982,-1.60591 1.87507,-3.45517 2.92278,-4.10948 C 441.27247,183.18838 452.8683,181 460.56205,181 l 7.43795,0 0,5 0,5 -5.25,0.0436 c -7.14755,0.0593 -13.81309,1.44765 -14.85644,3.09444 -0.47462,0.74911 -0.86983,12.27451 -0.87825,25.61201 L 447,244 l -5.83333,0 c -3.20834,0 -6.13334,-0.3 -6.5,-0.66667 z"
       id="path3469"
       inkscape:connector-curvature="0" />
  </g>
</svg>
