<?xml version="1.0" ?><!DOCTYPE svg  PUBLIC '-//W3C//DTD SVG 1.1//EN'  'http://www.w3.org/Graphics/SVG/1.1/DTD/svg11.dtd'><svg enable-background="new 0 0 64 64" version="1.1" viewBox="0 0 64 64" xml:space="preserve" xmlns="http://www.w3.org/2000/svg" xmlns:xlink="http://www.w3.org/1999/xlink"><g id="Icons"><circle cx="32" cy="32" fill="#EFEFEF" r="32"/><g><path d="M44.5,57h-25c-0.83,0-1.5-0.67-1.5-1.5v-47C18,7.68,18.67,7,19.5,7h25C45.33,7,46,7.68,46,8.5v47    C46,56.33,45.33,57,44.5,57z" fill="#3B3B3B"/><rect fill="#FFFFFF" height="40" width="25" x="19.5" y="11"/><path d="M35,9.52h-6c-0.27,0-0.5-0.22-0.5-0.5v0c0-0.27,0.23-0.5,0.5-0.5h6c0.28,0,0.5,0.22,0.5,0.5v0    C35.5,9.29,35.28,9.52,35,9.52z" fill="#C9C9C9"/><path d="M35,54h-6c-0.27,0-0.5-0.22-0.5-0.5l0,0c0-0.28,0.23-0.5,0.5-0.5h6c0.28,0,0.5,0.22,0.5,0.5l0,0    C35.5,53.78,35.28,54,35,54z" fill="#C9C9C9"/></g></g><g id="Layer_2"><g><path d="M33.31,27.03V26.1c-0.53-0.01-1.09-0.18-1.41-0.41l0.22-0.62c0.33,0.22,0.81,0.4,1.33,0.4    c0.65,0,1.1-0.38,1.1-0.9c0-0.51-0.36-0.82-1.04-1.1c-0.94-0.37-1.52-0.79-1.52-1.59c0-0.77,0.54-1.35,1.39-1.48v-0.93h0.57v0.89    c0.55,0.02,0.93,0.17,1.2,0.32l-0.23,0.61c-0.19-0.11-0.57-0.31-1.16-0.31c-0.71,0-0.98,0.42-0.98,0.79    c0,0.48,0.34,0.72,1.14,1.05c0.95,0.39,1.43,0.87,1.43,1.69c0,0.73-0.51,1.41-1.46,1.57v0.96H33.31z" fill="#E83155"/><g><polygon fill="#3B3B3B" points="28.39,32.4 24.23,21.38 21.18,21.38 21.18,20.38 24.92,20.38 29.32,32.04    "/></g><polygon fill="#E83155" points="40.36,37.2 26.54,37.2 23.86,28.36 43.04,28.36   "/><g><circle cx="30.1" cy="40.76" fill="#C9C9C9" r="2.18"/><circle cx="36.8" cy="40.76" fill="#C9C9C9" r="2.18"/></g></g></g></svg>