<?xml version="1.0" encoding="utf-8"?>
<!-- Generator: Adobe Illustrator 18.1.1, SVG Export Plug-In . SVG Version: 6.00 Build 0)  -->
<svg version="1.0" id="Layer_1" xmlns="http://www.w3.org/2000/svg" xmlns:xlink="http://www.w3.org/1999/xlink" x="0px" y="0px"
	 viewBox="0 0 437 189" enable-background="new 0 0 437 189" xml:space="preserve">
<g>
	<path fill="#2D2E2E" d="M105,142c-0.1,0.3,0,0.8-0.2,0.9c-7,4.3-13,10-20.1,13.9c-6.1,3.4-14.2-0.5-17.8-6.6
		c-6.1-10.4-5.2-21.6-4.6-32.8c0.1-2.5,2.3-2.5,3.8-3.3c7.3-1.2,13.8-4.2,20.1-8c1.6-0.8,3.4-1.4,4-3.4c2.2,0.5,1.7-1.2,1.9-2.3
		c0.3-2.1-0.8-4.5,1-6.4c1.8,1.4,0.8,3.4,1.2,5.1c0,2-0.1,4.1-0.1,6.1c-4.2,1.9-4.8,3.9-2.2,8.3c2.8,4.7,1.8,10.7,0.5,16
		c-0.7,2.7-2.5,5.1,0,7.5c3,2.9,4.7-0.2,6.7-1.8c2.2-0.2,4.2,0.1,5.5,2.2c1.7,2.8-2.2,2.7-2.6,4.8C103.1,142,104.1,142,105,142z"/>
	<path fill="#232525" d="M105,142c-1,0-1.9,0-3.1,0c0.4-2.1,4.3-2,2.6-4.8c-1.3-2.1-3.3-2.4-5.5-2.2c-0.6-4.2-0.5-8.6-1.9-12.6
		c-1-2.9-1.2-4.9,0-7.8c1.3-3.3,2.8-7.4-2.1-9.7c0.7-1.1,1.9-0.9,3-1.1c0.2,0.2,0.5,0.3,0.7,0.5c0.1-0.4,0.2-0.8,0.4-1.3
		c6-2.3,12.1-4.5,18-7c3.7-1.6,8.1-1.8,11-5.1c0,0,0,0,0,0c1.1,0.1,2.3,0.2,3-1l0,0c0.9,0,1.6,0,2-1l0,0c5.9,0.1,10.5-3.8,16-5
		c0.2,1.7-0.5,2.9-2.1,3.5c-3.9,1.5-3,4.7-2.6,7.6c0.1,0.9,0.8,2,1.6,2.3c1.2,0.5,2.2-0.4,2.9-1.4c1.3-1.8,1.7-4.3,4.2-5.1
		c0,1.7,0,3.3,0,5c-1.7,0-2.9,1.5-2.5,2.5c1.9,5-3.9,8.2-2.7,13c0.3,1.1-1.1,1.4-2.1,1.5c0.1-2.6,1-5.2-0.2-8
		c-1.8,2.3-3.5,4.5-5.1,6.8c-0.2-3.3-1.8-1.3-2.7-0.6c-2.5,1.9-3.1,4-1.8,5.7c0.3,2.1,1.7,2.2,3.2,1.8c4-0.9,7.9-1.8,11.9-2.7
		c-1.1,3.6,2.1,4.4,4,6c-12.7,3.1-25.4,6.4-38.3,9.2c-5.3,1.1-9.4,2.8-10.4,8.7C106.2,140.7,105.5,141.3,105,142z M117,112
		C117,112,117,112,117,112c-1,0-2.1,0-3.1-0.1c-0.4-2.8,1.4-5.3,1.6-8.1c-5.9-0.8-2.1,5.2-4.5,6.7c-1.9-0.9,0-3.6-2.7-4.1
		c-2.3,4.9-1,10.2-1.6,15.2c0,0.1,0.9,0.3,1.3,0.5c0,0.3,0,0.6,0,0.9c-0.5,1.3-1.7,3.3,1.2,2.7c3.3-0.6,6.5-1.7,9.8-2.6
		c2-4.7,4-9.4,6-14.1c1.3-0.1,2.4-0.5,2.8-1.8c1-3,2-5,6.1-4.8c2.5,0.1,4.3-3.7,4.8-6.7c0.1-0.7-1.1-1.8-1.7-1.3
		c-3,2.4-8,1.2-9.9,5.6c-3-0.4-4.9,0.7-5.6,3.9c-0.3,1.5-1.6,2.8-2.4,4.2c-0.2-0.5-0.1-2-1.2-0.7C116.8,108.7,116.9,110.4,117,112z
		 M134.4,119.9c-3.9-0.9-7.4,0.6-10.8,2.2C127.4,122.8,130.8,121,134.4,119.9z M147.6,100.7c-0.3-0.1-0.6-0.4-0.8-0.3
		c-0.2,0.1-0.3,0.5-0.4,0.8c0.3,0.1,0.6,0.4,0.8,0.3C147.4,101.4,147.5,101,147.6,100.7z"/>
	<path fill="#2D2E2E" d="M345,148c-6.1-0.1-10.1-3.4-11.8-9c-1.4-4.5-3.9-6.4-8.5-7.4c-14-2.9-27.8-6.5-41.7-9.8
		c-0.3-1.5-3-1.5-2.2-3.6c1.5-1.1,1.1-2.6,1.1-4.1c5.9,1.5,11.8,3.1,17.8,4.6c1.6,0.4,3.8,1.2,4.3-1.7c-0.7-2.3-1.3-4.7-4.4-4.9
		c-1.5-2.1-3.8-3.8-3.7-6.8c0-1.9-1.1-4.5,0.8-5.6c1.9-1.1,4.1,0.5,5.9,1.5c2.9,1.7,5.3,4.1,7,6.9c1.4,2.3,3.1,4.3,5.4,5.7
		c0.2,3.6,5.2,4.1,5.1,7.9c-1,1.6,0.5,0.9,1,1.1l0,0c2.8,1.8,6.1,1.6,9.2,2.5c2.2,0.7,1.7-1.3,1.8-2.4c0.8-0.2,2-0.5,1.8-1.3
		c-1.1-4.5-0.4-9.2-1-13.7c-0.1-1.2-1.1-2.2-2.2-2.5c-3.3-1.1-6.5-2.8-11.5-3.1c5.3,6.9,10.1,13,12,20.6c-2.4,0-4.8,0-7.2,0
		c0.2-8.4-4.2-15.3-7-22.8c0.2-0.9,1.4-1.9,0.2-2.5c-1-0.5-1.3,1.2-2.2,1.5c-0.7,0-1.3,0-2,0c-0.2-0.3-0.6-0.6-0.6-0.8
		c1.6-5.2-2.6-5.7-5.5-5.9c-4.2-0.3-7.5-2.5-11.2-3.9c-1.7-0.6-3-1.3-2.7-3.4c1,0,2,0,3,0l0,0c0.7,1.3,1.9,1,3,1l0,0
		c0.7,1.3,1.9,1.1,3,1l0,0c0.4,1,1.2,1,2,1l0,0c0.7,1.3,1.9,1.1,3,1l0,0c0.4,0.9,1.2,1,2,1l0,0c0.7,1.3,1.9,1,3,1l0,0
		c0.7,1.1,1.3,1.1,2,0c0.3-0.3,0.6-0.6,0.9-0.8c5.7,2.3,11.3,4.6,17,6.9c0.1,0.7,0.1,1.6,1,1.8c2.1,3.3,6.4,2.7,9,5.1
		c0,6.7,0,13.3,0,20c0.3,1.3,0.7,2.6,1,4c-3.4,1.5-2.1,3.8-1,6c0.3,0.7,0.7,1.3,1,2l-0.1,0.1c-1.6,0.1-1.8,0.9-1.3,2.3
		C342.8,141.6,343.9,144.8,345,148z M328.3,97.6c0-0.1,0-0.3-0.1-0.3c-0.1-0.1-0.3-0.1-0.4-0.1c0,0.2,0.1,0.4,0.1,0.6
		C328.1,97.7,328.2,97.7,328.3,97.6z"/>
	<path fill="#192225" d="M155,122.1c-1.9-1.6-5.1-2.3-4-6c4.3-0.4,8.5-1.2,12-4.1l0,0c1.3-0.6,2-1.6,2-3c3.7-5.8,4.6-12.5,5.8-19.1
		c0,0,0.1,0.1,0.1,0.1c2.2-1.5,2.3-4.1,3-6.4c0.3-1.2-0.9-0.9-1.6-0.6c-3.8-2.1-2.3,2.8-4.2,3.2c-3.6-1.3-6.3-0.2-8.4,2.9
		c-0.4,0.6-1.7,0.7-2.6,1c-1.1-1.8-1.1-1.8-4.1,1c-2.5,0.8-2.9,3.3-4.2,5.1c-0.7,1-1.7,1.9-2.9,1.4c-0.7-0.3-1.5-1.5-1.6-2.3
		c-0.4-2.9-1.3-6.1,2.6-7.6c1.6-0.6,2.3-1.8,2.1-3.5c1-0.7,2-1.3,3-2c0,0,0,0,0,0c1.1,0.1,2.3,0.2,3-1c3.2-0.8,6.6-1.5,9-4l0,0
		c3-0.2,6-0.4,8-3l0,0c1.9,0.4,3.5-0.4,5.2-1c1.4-0.1,2.3-0.7,2.8-2c14.1-1.1,27.5-7.2,42.1-5.8c4.4,0.4,8.7,0.8,12.9,1.8
		c0.3,2.1,0.6,4.2,1,6.3c-11.9-5.1-23.6-4.5-35.1,1.2c-1.7-2.2-3.9-2.6-6.6-2.2c-2.2,0.4-4.5,0.7-6.8,0.7c-7.3,0.3-8.7,1.4-10.5,9
		c-5.5,8.9-5.4,13.2,0.7,21.1c0.5,0.6,0.9,1.4,1.3,2c-0.2,1.5,0.4,3.8-2,3.7c-4.5-0.3-4,2.6-4,5.5c0,2,0,3.9,0,5.9
		c-2.3,0-4.6,0-6.9-0.1c-0.6-1.3-1.8-1.4-2.9-1.1c-0.9,0.2-0.4,1-0.2,1.5c-0.6,0.2-1.2,0.4-1.8,0.6
		C159.1,121.5,157.1,121.8,155,122.1z"/>
	<path fill="#2D2E2E" d="M365,156.8c-8,2.9-14.3,0.2-19.2-8.5c1.3-4.6-3.1-7.9-2.9-12.2c0,0,0.1-0.1,0.1-0.1
		c1.7-0.2,3.9,0.6,3.9-2.3c0-6.2,0-12.4,0.1-18.5c0.1-3.1-0.7-6.3,1-9.2c0.1-0.5,0.2-1.1,0.2-1.6c0.7,0.2,1.1,0,1.5-0.6
		c3.1,2,6.2,4,9.2,5.9c-0.4,0.5-1.1,1.1-1,1.6c0.6,7.8,4.9,14.9,4.4,22.9c-0.1,1.2,1,2.4,1.6,3.6c0.9,1.7,1.6,3.6,0.9,5.2
		c-1,2.4,0.6,4,1.1,5.9l0,0c-3.7,2-8.4-0.2-13.3,3c4.2,0,7,0,9.8,0C366.3,152.1,367.2,153.6,365,156.8z"/>
	<path fill="#A19E99" d="M86.1,106.1c-6.3,3.8-12.8,6.8-20.1,8c0-11.9,0.3-23.9,0-35.8c-0.2-5,1.2-7.1,6.3-6.2
		c4.7,0.6,9.5-0.9,14.2,0.1c-1.6,2.4-1.8,5.1-1.2,7.7c1.4,6.4,0.4,12.9,0.8,19.4C86.2,101.6,84.5,103.8,86.1,106.1z"/>
	<path fill="#232525" d="M366,149c-0.6-1.9-2.1-3.5-1.1-5.9c0.7-1.6,0-3.6-0.9-5.2c-0.6-1.2-1.7-2.4-1.6-3.6
		c0.5-8.1-3.8-15.1-4.4-22.9c0-0.5,0.7-1.1,1-1.6c2.7,0.7,5.3,1.4,8,2.1c1.6,2.1,3.8,2.5,6.3,2c3.5,0.7,4.4,2.9,4.5,6.4
		c0.2,9.6,1.2,19.1-3.8,28c-2.2,3.9-4.5,7.3-9,8.6c2.2-3.1,1.3-4.7-2.4-4.7c-2.8,0-5.6,0-9.8,0C357.6,148.8,362.3,151,366,149
		c0.1,0.1,0.3,0.2,0.4,0.2C366.3,149.2,366.1,149.1,366,149z"/>
	<path fill="#2D2E2E" d="M236,73.3c-0.3-2.1-0.6-4.2-1-6.3c0.7,0,1.3,0,2-0.1c0.3,0.7,0.7,0.8,1,0.1c7.5,0.9,14.7,3.1,22.4,5.2
		c-1.1-2.5-2.6-2.9-4.5-3.3c-4.3-0.8-8.6-2-12.9-3c0.1-1.4,0.1-2.8,0.2-4.1c3.1,0.2,6.2,0.7,9.1-1c9.7,3.7,18.7,9,27.9,13.6
		c-0.4,0.9-0.8,1.8-1.2,2.7c-5.5-1.8-11-3.7-16.4-5.5c-0.1,0.2-0.2,0.5-0.2,0.7c0.6,0.5,1.2,1.1,1.8,1.6c-1,0.7-2.1,1.4-3.1,2.1
		c-0.9-0.5-1-2-2.3-2c-5.9-1.5-12-1.6-18-2c-0.7,0.4-1.3,0.8-2,1.1c-0.1,0.4-0.2,0.7-0.3,1.1C237.5,73.9,236.7,73.6,236,73.3z"/>
	<path fill="#4FC1F8" d="M100.8,51.6c2,2.1,4.6,1.6,7,1.6c12,0.4,24.1,0.5,37.4,2.6C129.5,58,115.3,60,101.1,62
		c-0.2,0.1-0.3,0.1-0.5,0c1.9-2.5,2.9-4.6-1.9-4.1c-4.5,0.5-8.1-1.6-11.7-3.9c0.2-2.1,1.1-1.6,2.6-1.1
		C93.4,54.1,97.5,55.5,100.8,51.6z"/>
	<path fill="#2D2E2E" d="M180,71c-0.5,1.3-1.4,2-2.8,2c-2.3-2.5-3.6-0.1-5.2,1l0,0c-3,0.2-5.8,0.9-8,3c0,0,0,0,0,0
		c-1.3,0-2.5,0-3.8,0.1c-1.1-0.1-2-0.5-2.4-1.6c12.9-6.1,24.7-14.6,39.2-17.2c0,0.9,0,1.9,0.1,2.8c0,1.6,0,3.2,0,4.9
		c-2.4,0.4-5.2,0.3-7.1,1.5C186.8,69.3,182.3,67.1,180,71z"/>
	<path fill="#666766" d="M373.3,113.8c-2.5,0.5-4.7,0.1-6.3-2c0.2-13.2-0.6-26.5,0.4-39.7c1-0.2,2.1-0.4,3.1-0.6c2.8,0,3,1.8,3,4
		C373.4,88.2,373.3,101,373.3,113.8z"/>
	<path fill="#7DB4F4" d="M72.1,60.9c-6.6,0.6-13.1-0.8-19.7-1.3c-11.8-0.9-23.5-2.2-35.3-3.7c9.3-1.6,18.7-2.9,28.2-2.1
		c0.3,1.3,1.4,1.2,2.4,1.2c8.2-0.3,16.3,0.4,24.4,2l0,0.1c0.1,0.7,0.2,1.4,0.3,2.1C72.3,59.7,72.2,60.3,72.1,60.9z"/>
	<path fill="#0D6CB9" d="M339.2,69.9c-0.1-2.6-0.1-5.3-0.2-7.9c6.7,0,13.3,0,20,0c4.3,2.9,4.3,2.9,5.7-1.4c0.1-0.4,1.4-0.4,2.2-0.6
		c0.1,0.4,0.3,0.8,0.4,1.2c0,1.6-0.1,3.2-0.1,4.9c0.2,3.9-1.2,5.5-5.4,5.1C354.2,70.4,346.7,70.2,339.2,69.9z"/>
	<path fill="#0785D2" d="M366.9,59.9c-0.8,0.2-2.1,0.2-2.2,0.6c-1.4,4.2-1.4,4.3-5.7,1.4c0.5-4.5-4.1-5.1-5.9-7.8
		c-0.3-2.3-1.2-2.4-2.8-0.8c-0.5,0.5-0.3,2.3-0.9,1.6c-3.1-3.1-7.1-0.1-10.3-1.9c0-0.6,0-1.2,0.1-1.8c0.7-0.4,1.4-1,2.1-1.1
		c7-0.6,14-1.1,20.9-1.7c3.5-0.3,5,2,6.6,4.3c3.5,2.7-1.8,2.5-1.4,4.2C367.2,57.9,367,58.9,366.9,59.9z"/>
	<path fill="#0D6CB9" d="M72.1,60.9c0.1-0.6,0.2-1.2,0.3-1.8c0.6-0.8,0.6-1.5-0.3-2.1c0,0,0-0.1,0-0.1c0.3-1.5-0.5-2.7-1.1-4
		c0.7-1,1.5-1.9,2.2-2.9c2.1,1.1,4.1,2.6,6.6,1.8c5-1.6,4,1.2,3.2,4.1c-0.3,2.2-4.6,2-3.2,4.6c1.1,2.2,4.1,1.4,6.3,1.5
		c0.2,2.7-0.6,5.5,1,8c-4.5,2.1-9.4,0.2-14,1c-0.1-0.6-0.2-1.3-0.3-1.9c0-0.4,0-0.8,0-1.3C72.5,65.5,73.4,63.1,72.1,60.9z"/>
	<path fill="#666766" d="M180,71c2.3-3.9,6.8-1.7,9.9-3.6c1.9-1.2,4.7-1,7.1-1.5c3-0.6,6-1.3,9-1.9c9.7-0.4,10.2-0.8,9.8-7.4
		c2.5-0.6,4.9-0.6,7.3,0.1c1.5,1.9-0.8,5.6,3.1,6.3c2.6,0.5,5.2,0.7,7.8,1c3.1,0.1,5.7,2.6,9,2c4.3,1,8.6,2.2,12.9,3
		c1.9,0.3,3.4,0.8,4.5,3.3c-7.7-2.1-14.9-4.3-22.4-5.2c-0.3,0-0.7,0-1-0.1c-0.7,0-1.3,0-2,0.1c-4.3-1-8.5-1.4-12.9-1.8
		C207.5,63.8,194.1,69.9,180,71z"/>
	<path fill="#7DB4F4" d="M366.9,59.9c0.2-1,0.3-2,0.5-3c3.2,0.9,6.2-0.4,9.4-0.7c7.6-0.7,15.2-1.7,22.8-1.3c1.7,0.1,3.7,0.6,5.3-0.7
		c5.5-0.4,10.9,0,17.6,1.9c-19.3,1.8-37.2,3.4-55.2,5C367.2,60.7,367,60.3,366.9,59.9z"/>
	<path fill="#4FC1F8" d="M339.1,53c3.2,1.9,7.2-1.1,10.3,1.9c0.7,0.7,0.4-1.1,0.9-1.6c1.6-1.6,2.5-1.5,2.8,0.8
		c-2.5,3.7-5.6,5.5-10.3,4c-2.4-0.8-4.7,0-5,3.2c-0.6,0-1.2,0-1.7,0c-5.9-3.2-12.3-5-19-5.3c-1.7-0.1-4.1,1.2-5-1.7
		c1.3-0.1,2.7-0.1,4-0.2c1.7,1.3,3.3,1.3,4.9-0.1c0.7,0,1.3-0.1,2-0.1c2.8,0,5.5-0.1,8.3-0.1c2-0.2,4.1-0.4,6.1-0.6
		C338,53.1,338.5,53,339.1,53z"/>
	<path fill="#0D6CB9" d="M240.6,130.1c-1.5,2-2.4,4.7-5.4,5.1c-6.7-0.1-13.3-0.1-20-0.2c-0.5,0-0.9,0-1.4,0c-0.5,0-1.1,0-1.6,0
		c-2-0.1-4.1-0.1-6.1-0.2c-0.5,0-0.9,0-1.4,0c-0.2-0.1-0.5-0.2-0.7-0.3c-0.6-0.6-1.2-0.7-2-0.5c-1.3-0.5-1.3-2-2-3
		c0.6,0,1.2,0,1.9,0c12-0.3,24,1.1,35.9-1C238.7,130,239.6,130.1,240.6,130.1z"/>
	<path fill="#7DB4F4" d="M240.6,130.1c-0.9,0-1.8-0.1-2.7-0.1c-0.4-1.9-2-2-3.5-2c-9.6,0-19.2,0-28.7,0c-2,0-3.6,0.5-3.7,2.9
		c-0.6,0-1.2,0-1.9,0c-0.7-0.3-1.4-0.5-2.1-0.8c0.2-3.5-2.8-3.4-4.8-4.4c0-0.2-0.1-0.5-0.1-0.7c1.3-0.1,2-0.9,2.2-2.1
		c1.6-2.7,3.1-1.3,4.6,0c2.4,3.4,6,3.2,9.4,3.1c9.9-0.3,19.9,1.3,29.7-1.2c0.9,0.1,2.4,0.5,2.7,0.1c2.1-3,3-0.7,4.2,0.8
		C243.5,126.5,241.9,128.2,240.6,130.1L240.6,130.1z"/>
	<path fill="#666766" d="M100.9,70.8c4.4-0.9,5.6,0.8,5.5,5.3c-0.2,7-0.9,14.1,0.5,21.2c-0.7,1.2-1.8,0.5-2.7,0.7
		c-1.9-3.8-2.1-8-2.9-12.1c0.7-4.9,2.3-9.9-1.3-14.4C100.3,71.3,100.6,71.1,100.9,70.8z"/>
	<path fill="#7DB4F4" d="M312.1,54.3c0.8,2.9,3.2,1.6,5,1.7c6.8,0.3,13.1,2.1,19,5.3c-8.4,0-16.6-1.7-24.9-2.8
		c-5.4-0.7-10.7-1.6-16.1-2.3C300.5,54,306.3,53.9,312.1,54.3z"/>
	<path fill="#A19E99" d="M333,98.9c-0.9-0.3-0.9-1.1-1-1.8c2.1-1.2,1.3-3.2,1.3-4.9c0.1-5,0.4-10,0-14.9c-0.5-4.8,1.2-6.7,5.9-6.4
		c1.3,0.4,3-0.3,4,1.1c-1.4,0.1-2.8,0.2-4.2,0.3c-1.5,1.9-0.7,4.1-0.8,6.2c-0.3,6.6,0,13.2-2.5,19.6C334.6,98,333.5,97.7,333,98.9z"
		/>
	<path fill="#A19E99" d="M204.7,134.9c0.5,0,0.9,0,1.4,0c2,1.5,4,1.3,6.1,0.2c0.5,0,1.1,0,1.6,0c0.5,0.6,0.9,0.6,1.4,0
		c6.7,0.1,13.3,0.1,20,0.2c0.6,2.6-0.6,3.7-3.1,3.6c-8.1-0.1-16.2-0.2-24.3-0.2C205.1,138.6,204.1,137.4,204.7,134.9z"/>
	<path fill="#0785D2" d="M83,55.9c0.8-2.8,1.8-5.7-3.2-4.1c-2.4,0.8-4.5-0.7-6.6-1.8c3-3.4,7-1.7,10.2-1.2c4.4,0.8,8.8,0.6,13.2,0.9
		c1.6,0.1,3.4-0.2,4.3,1.8c-3.3,3.8-7.4,2.5-11.2,1.3C88,52.4,87.2,51.8,87,54c0,0,0.1,0,0.1,0c-0.9-0.1-1.7,0.2-2.1,1.2
		C84.3,55.4,83.6,55.7,83,55.9z"/>
	<path fill="#232525" d="M279,77.1c0.4-0.9,0.8-1.8,1.2-2.7c11.6,5.3,23.2,10.5,34.8,15.8c-0.3,0.3-0.6,0.6-0.9,0.8
		c-0.7,0-1.4,0-2,0c0,0,0,0,0,0c-0.7-1.2-1.9-1.1-3-1c0,0,0,0,0,0c-0.4-0.9-1.2-1-2-1c0,0,0,0,0,0c-0.7-1.2-1.9-1-3-1c0,0,0,0,0,0
		c-0.4-0.9-1.2-1-2-1c0,0,0,0,0,0c-0.7-1.2-1.9-1-3-1l0,0c-0.7-1.2-1.9-1.1-3-1c0,0,0,0,0,0c-3.2-1.7-6.2-3.8-10-4l0,0
		c-1.3-1.6-3-2.2-5-2l0,0C280.3,78.4,279.6,77.7,279,77.1z"/>
	<path fill="#4C4E51" d="M104.2,98c0.9-0.2,2.1,0.4,2.7-0.7c5.8-2.9,12.4-3.9,18.1-7.3c0.6,1.4,2,0.9,3,1.1c-2.9,3.3-7.3,3.5-11,5.1
		c-5.9,2.6-12,4.7-18,7c-0.4,0.3-0.7,0.5-1.1,0.8c-1.1,0.1-2.2,0-3,1.1c-0.3,0-0.6,0.1-1,0.1c0-2,0.1-4.1,0.1-6.1
		c1.1-0.3,0.2,4.3,2.5,1C99.5,100.6,101.5,98.1,104.2,98z"/>
	<path fill="#0D6CB9" d="M101.1,62c0,1.7-0.1,3.4-0.1,5.1c-3.4,5.2-8.5,2.1-12.9,2.7c0-2.6,0-5.2,0-7.8c4.2-1.2,8.4,0.7,12.6,0
		C100.7,62.1,100.9,62.1,101.1,62z"/>
	<path fill="#232525" d="M234,64c-2.6-0.3-5.2-0.6-7.8-1c-3.8-0.7-1.6-4.4-3.1-6.3c6.7-0.3,13.3,0,19.8,1.5c0,0.9,0,1.9,0,2.8
		c-2.1,0-4.2,0.1-6.3,0C234.5,60.9,233.9,62.1,234,64z"/>
	<path fill="#232525" d="M215.8,56.6c0.3,6.6-0.2,7-9.8,7.4c0.1-1.9-0.5-3.1-2.7-3c-2.1,0.1-4.2,0-6.2,0.1c0-0.9,0-1.9-0.1-2.8
		C203.2,56.5,209.5,56.6,215.8,56.6z"/>
	<path fill="#4186CB" d="M245.9,125.8c-1.2-1.5-2.1-3.8-4.2-0.8c-0.3,0.4-1.8-0.1-2.7-0.1c0.4-1.6,0.7-3.2,1.1-4.7
		c1.8-2.7,3.5-4.2,4.7,0.4c0.2,0.7,0.6,1.2,1.4,0.5c0.7,0.2,1.4,0.4,2,0.6c2.7,0.5,5.2-0.4,7.7-0.7c0.6,0,1.3,0.1,1.9,0.1
		c0.5-0.1,1.1-0.3,1.6-0.4c0.4,0,0.8,0,1.2,0c0.2,1.4,1.7,1.1,2.3,2c-2.9,0.8-5.7,1.7-8.6,2.5C251.5,125.5,248.8,126.4,245.9,125.8z
		"/>
	<path fill="#4FC1F8" d="M404.8,54.2c-1.6,1.4-3.5,0.8-5.3,0.7c-7.7-0.4-15.3,0.6-22.8,1.3c-3.1,0.3-6.1,1.5-9.4,0.7
		c-0.4-1.7,4.9-1.5,1.4-4.2C380.8,53.5,392.9,52.4,404.8,54.2z"/>
	<path fill="#4186CB" d="M193,125.1c0.1,0.2,0.1,0.5,0.1,0.7c-2.6,0.4-5,0.3-7.5-0.8c-7.9-3-16.3-2.8-24.5-3.8
		c0.6-0.2,1.2-0.4,1.8-0.6c1.1,0,2.2,0.3,3.1-0.5c2.3,0,4.6,0,6.9,0.1c6.3,1.7,12.8-0.3,19.1,1.7C192.4,123,192.7,124.1,193,125.1z"
		/>
	<path fill="#0E9DF5" d="M337.8,61.2c0.3-3.2,2.6-4,5-3.2c4.7,1.6,7.8-0.3,10.3-4c1.8,2.8,6.4,3.4,5.9,7.8c-6.7,0-13.3,0-20,0
		C338.6,61.7,338.2,61.5,337.8,61.2z"/>
	<path fill="#7DB4F4" d="M343.1,71.9c-1.1-1.4-2.7-0.6-4-1.1c0-0.3,0-0.6,0.1-0.9c7.5,0.4,15.1,0.5,22.6,1.2
		c4.2,0.4,5.6-1.2,5.4-5.1c1.4,1.7-0.6,5.4,3.3,5.5c-1,0.2-2.1,0.4-3.1,0.6c-1.5,0.1-3,0-4.4,0.4c-4.7,1.1-9.6-1-14.2,1.3
		c-0.6-0.9-1.6-0.7-2.5-1C345.4,71.8,344.3,71.5,343.1,71.9L343.1,71.9z"/>
	<path fill="#192225" d="M157.8,75.4c0.4,1.2,1.3,1.6,2.4,1.6c-1.7,1-3.4,2-5.2,3c-1.4,0-2.6,0.3-3.1,1.9c0,0,0,0,0,0
		c-4.8-0.5-8.5,3-13,3.5c0-0.5,0-1-0.1-1.5C145.3,81.1,151.5,78.3,157.8,75.4z"/>
	<path fill="#4C4E51" d="M262.9,122.5c-0.6-0.9-2.1-0.7-2.3-2c5.4-1.4,11.1,0.6,16.5-1.4c1.1,0,2.3,0.1,3.1-1c0.2,0,0.5,0,0.7,0.1
		c-0.8,2.1,1.9,2.1,2.2,3.6c-5.2-1-10.5-0.2-15.7,0.1c-0.5,0.1-0.9,0.1-1.4,0.2C264.9,122.3,263.9,122.4,262.9,122.5z"/>
	<path fill="#7DB4F4" d="M88,69.8c4.4-0.6,9.5,2.4,12.9-2.7c1.3,1.2,0.3,2.5,0,3.8c-0.3,0.2-0.7,0.5-1,0.7c-0.2,0-0.4,0-0.5,0.1
		c-0.8,0.1-1.5,0.2-2.3,0.3C96,72,94.8,72,93.7,72.1c-0.6,0-1.1,0-1.7,0.1c-1.8,0-3.7,0.1-5.5,0.1c-4.7-1.1-9.5,0.5-14.2-0.1
		c0.3-0.4,0.5-0.7,0.8-1.1c4.6-0.8,9.5,1.1,14-1C87.4,70,87.7,69.9,88,69.8z"/>
	<path fill="#4186CB" d="M71,52.9c0.6,1.3,1.3,2.5,1.1,4c-8.1-1.6-16.2-2.3-24.4-2c-1,0-2,0.1-2.4-1.2c1.9-0.1,3.8-0.2,5.7-0.4
		c5.4,0.9,10.7,1.1,16-0.3C68.3,53.1,69.6,53,71,52.9z"/>
	<path fill="#0D6CB9" d="M245.9,125.8c2.9,0.6,5.7-0.4,8.5-0.8c0,0.6-0.1,1.1-0.1,1.7c-0.1,0.7-0.1,1.4-0.2,2.1
		c-4.3,2.1-9,0.8-13.5,1.2C241.9,128.2,243.5,126.5,245.9,125.8z"/>
	<path fill="#0D6CB9" d="M185.7,125.1c2.4,1,4.9,1.2,7.5,0.8c2,1,5.1,0.9,4.8,4.4c-0.7,0-1.4,0-2.1-0.1c-0.3-0.2-0.5-0.2-0.8,0
		c-1.7-0.1-3.4-0.2-5.1-0.3c-1.2-1.2-2.6-0.7-4-0.8c0,0,0-0.1,0-0.1c-0.1-0.8-0.1-1.6-0.2-2.3C185.7,126.1,185.7,125.6,185.7,125.1z
		"/>
	<path fill="#2D2E2E" d="M139,83.9c0,0.5,0,1,0.1,1.5c-1.5,2.1-4.6,1.4-6,3.6c0,0,0,0,0,0c-0.8,0-1.6,0.1-2,1c0,0,0,0,0,0
		c-1.1,0-2.3-0.3-3,1c0,0,0,0,0,0c-1.1-0.2-2.4,0.4-3-1.1C129.6,87.9,134.3,85.9,139,83.9z"/>
	<path fill="#4C4E51" d="M243,61c0-0.9,0-1.9,0-2.8c3.2,0.4,6.5,0.9,9.3,2.7c-2.9,1.7-6,1.2-9.1,1C243.1,61.6,243.1,61.3,243,61z"/>
	<path fill="#4C4E51" d="M342.9,136.1c-0.2,4.3,4.2,7.6,2.9,12.2l-0.5,0L345,148c-1.1-3.2-2.2-6.4-3.4-9.6
		C341.1,137,341.3,136.2,342.9,136.1z"/>
	<path fill="#7DB4F4" d="M67,53.1c-5.3,1.4-10.7,1.2-16,0.3C56.3,52.6,61.7,52.8,67,53.1z"/>
	<path fill="#7DB4F4" d="M321,54c-1.6,1.4-3.2,1.4-4.9,0.1C317.7,53.1,319.3,53.1,321,54z"/>
	<path fill="#7DB4F4" d="M331.3,53.8c-2.8,0-5.5,0.1-8.3,0.1C325.7,52.7,328.5,52.9,331.3,53.8z"/>
	<path fill="#4186CB" d="M186,129.1c1.4,0.1,2.8-0.4,4,0.8C188.6,129.9,187.1,130.7,186,129.1z"/>
	<path fill="#7DB4F4" d="M339.1,53c-0.6,0.1-1.1,0.1-1.7,0.2c0.2-1,0.8-1.6,1.7-2C339.1,51.8,339.1,52.4,339.1,53z"/>
	<path fill="#4186CB" d="M202,134c0.8-0.2,1.5-0.1,2,0.5C203.2,134.9,202.6,134.7,202,134z"/>
	<path fill="#4186CB" d="M254,128.9c0.1-0.7,0.1-1.4,0.2-2.1C254.6,127.5,254.8,128.3,254,128.9z"/>
	<path fill="#4186CB" d="M185.7,126.7c0.1,0.8,0.1,1.6,0.2,2.3C185.1,128.3,185.3,127.5,185.7,126.7z"/>
	<path fill="#7DB4F4" d="M72.7,67.9c0,0.4,0,0.8,0,1.3C72.2,68.7,72.2,68.3,72.7,67.9z"/>
	<path fill="#7DB4F4" d="M195.1,130.1c0.3-0.2,0.6-0.2,0.8,0C195.6,130.1,195.4,130.1,195.1,130.1z"/>
	<path fill="#4186CB" d="M266,122.1c0.5,0,0.9-0.1,1.4-0.2C266.9,122,266.4,122.1,266,122.1z"/>
	<path fill="#192225" d="M94,105.1c0.3,0,0.6-0.1,1-0.1c5,2.3,3.5,6.4,2.1,9.7c-1.1,2.9-0.9,4.9,0,7.8c1.3,4,1.3,8.4,1.9,12.6
		c-2,1.6-3.7,4.7-6.7,1.8c-2.5-2.4-0.7-4.8,0-7.5c1.3-5.2,2.3-11.3-0.5-16C89.2,108.9,89.8,106.9,94,105.1z"/>
	<path fill="#666766" d="M86.5,72.3c1.8,0,3.7-0.1,5.5-0.1c-0.1,2.2-0.1,4.5-0.2,6.7c-1.5,1.5-0.8,3.4-0.8,5.2
		c-0.2,6.2,0.5,12.5-0.8,18.6c-0.6,2-2.4,2.6-4,3.4c-1.6-2.2,0.1-4.5-0.1-6.8c-0.4-6.4,0.6-12.9-0.8-19.4
		C84.7,77.4,84.8,74.6,86.5,72.3z"/>
	<path fill="#0D6CB9" d="M90.1,102.6c1.3-6.2,0.7-12.4,0.8-18.6c0-1.7-0.7-3.6,0.8-5.2c0.7,0.7,1.4,1.4,2.1,2.1
		c0.1,1.3,0.1,2.7,0.2,4c-0.4,3-0.7,6-1.1,9c-1.8,1.9-0.7,4.2-1,6.4C91.8,101.4,92.3,103.1,90.1,102.6z"/>
	<path fill="#666766" d="M92.9,93.9c0.4-3,0.7-6,1.1-9c2-1.6,0-4.4,1.9-6c0.6,4.3-0.9,8.8,0.8,13.1l0.1,0.1c0,1.6,0,3.3-0.1,4.9
		c-0.1,0.1-0.3,0.2-0.3,0.3c0.1,0.3,0.2,0.5,0.3,0.8c0,0.7-0.1,1.3-0.1,2c-2.3,3.3-1.4-1.3-2.5-1C93.7,97.3,94.7,95.3,92.9,93.9z"/>
	<path fill="#141718" d="M125,109c-2,4.7-4,9.4-6,14.1c-1.3-0.1-2.6-0.1-3.9-0.2c0-3.7,2.7-7,1.9-10.8c0,0,0,0,0,0
		c1.3-1,1.8-2.4,2-3.9c0.8-1.4,2-2.7,2.4-4.2c0.7-3.2,2.6-4.3,5.6-3.9C126.4,103,125.7,106,125,109z"/>
	<path fill="#2D2E2E" d="M125,109c0.7-3,1.4-6,2.1-9c1.8-4.4,6.9-3.2,9.9-5.6c0.6-0.5,1.8,0.6,1.7,1.3c-0.5,3-2.2,6.8-4.8,6.7
		c-4.2-0.1-5.2,1.8-6.1,4.8C127.3,108.5,126.2,108.9,125,109z"/>
	<path fill="#141718" d="M153,91c2.9-2.8,2.9-2.8,4.1-1c0,1.7,0,3.3,0,5c-0.8,0.2-1.9,0.3-1.6,1.4c1.3,5.5,0.3,11.1,0.7,16.7
		c-0.7,0.3-1.3,0.6-2,0.9c-2.2-5.9-0.5-12-1.1-17.9C153,94.3,153,92.7,153,91z"/>
	<path fill="#141718" d="M108,122c-0.5-0.2-1.3-0.4-1.3-0.5c0.6-5-0.7-10.3,1.6-15.2c2.7,0.6,0.8,3.2,2.7,4.1
		c2.4-1.5-1.3-7.5,4.5-6.7c-0.2,2.8-2,5.2-1.6,8.1c-0.6,0.4-1.3,0.7-1.9,1.1c-2.1,0.1-2,1.5-1.9,3C109.5,118.1,111.4,121,108,122z"
		/>
	<path fill="#2D2E2E" d="M153,96c0.5,6-1.1,12.1,1.1,17.9c-3.8-0.6-7.5,2.4-11.3,0.2c1-0.4,2-0.8,2.9-1.2c1-0.1,2.4-0.4,2.1-1.5
		c-1.2-4.8,4.6-8,2.7-13C150.1,97.6,151.3,96.1,153,96z"/>
	<path fill="#2D2E2E" d="M108,122c3.4-1.1,1.4-4,2-6c2-0.2,1.9-1.6,1.9-3c0.6-0.4,1.3-0.7,1.9-1.1c1,0,2,0.1,3.1,0.1
		c0.7,3.9-2,7.1-1.9,10.8c-2.4,0-4.7,0.1-7.1,0.1C108,122.7,108,122.4,108,122z"/>
	<path fill="#4C4E51" d="M142.7,114.2c3.8,2.2,7.5-0.9,11.3-0.2c0.7-0.3,1.3-0.6,2-0.9c2.3-0.4,4.7-0.7,7-1.1
		c-3.5,2.9-7.7,3.7-12,4.1c-4,0.9-7.9,1.8-11.9,2.7c-1.6,0.4-3,0.3-3.2-1.8c0.8,0,1.7-0.1,2.1-0.9c0.3,0,0.7-0.1,1-0.1
		C140.4,115.7,142.3,116.8,142.7,114.2L142.7,114.2z"/>
	<path fill="#FEFEFE" d="M145.7,113c-1,0.4-2,0.8-2.9,1.2c0,0,0,0.1,0,0.1c-0.9-0.2-1.7-0.4-2.6-0.6c0.1-0.3,0.1-0.5-0.1-0.7
		c0.1-0.4,0.2-0.8,0.4-1.2c1.7-2.2,3.4-4.4,5.1-6.8C146.7,107.9,145.7,110.5,145.7,113z"/>
	<path fill="#4C4E51" d="M133,89c1.4-2.2,4.5-1.5,6-3.6c4.5-0.5,8.2-3.9,13-3.5c-1,0.7-2,1.3-3,2C143.5,85.2,138.9,89.1,133,89z"/>
	<path fill="#2D2E2E" d="M140.4,111.8c-0.1,0.4-0.2,0.8-0.4,1.2c-2.1,0.1-2,1.6-2,3c-0.5,0.8-1.3,0.9-2.1,0.9
		c-1.3-1.8-0.8-3.9,1.8-5.7C138.5,110.6,140.1,108.5,140.4,111.8z"/>
	<path fill="#2D2E2E" d="M134.4,119.9c-3.6,1.1-7,2.8-10.8,2.2C127,120.5,130.4,119,134.4,119.9z"/>
	<path fill="#4C4E51" d="M108,123c2.4,0,4.7-0.1,7.1-0.1c1.3,0.1,2.6,0.1,3.9,0.2c-3.3,0.9-6.5,2.1-9.8,2.6
		C106.3,126.2,107.5,124.3,108,123z"/>
	<path fill="#2D2E2E" d="M119.1,108.1c-0.3,1.5-0.7,3-2,3.9c-0.1-1.6-0.2-3.3,0.8-4.6C119,106,118.8,107.5,119.1,108.1z"/>
	<path fill="#2D2E2E" d="M147.6,100.7c-0.1,0.3-0.2,0.7-0.4,0.8c-0.2,0.1-0.5-0.2-0.8-0.3c0.1-0.3,0.2-0.7,0.4-0.8
		C147,100.3,147.3,100.6,147.6,100.7z"/>
	<path fill="#4C4E51" d="M128,91c0.7-1.3,1.9-1,3-1C130.3,91.2,129.2,91.1,128,91z"/>
	<path fill="#192225" d="M97.9,103.9c0.4-0.3,0.7-0.5,1.1-0.8c-0.1,0.4-0.2,0.8-0.4,1.3C98.4,104.2,98.2,104,97.9,103.9z"/>
	<path fill="#4C4E51" d="M131,90c0.4-0.9,1.2-1,2-1C132.7,90,131.9,90.1,131,90z"/>
	<path fill="#232525" d="M293,85c-0.3,2.1,1,2.8,2.7,3.4c3.7,1.4,7,3.6,11.2,3.9c2.9,0.2,7.1,0.8,5.5,5.9c-0.1,0.2,0.4,0.5,0.6,0.8
		c-0.8,1.5-1.8,3.8,0.2,4.3c4.4,1.2,2.5,5,3.7,7.5c0.6,1.2,0.2,3-1.9,3.2c-2.3-1.5-4-3.4-5.4-5.7c-1.8-2.9-4.1-5.2-7-6.9
		c-1.8-1.1-4.1-2.6-5.9-1.5c-1.8,1.1-0.8,3.6-0.8,5.6c-0.8-0.2-1.9-0.8-2.3-0.5c-1.1,0.9,1.1,8.7,2.5,9c1.4,0.3,3.5,1.4,3.5-1.7
		c3.1,0.2,3.7,2.6,4.4,4.9c-6-1.1-12-2.1-18-3.2c-0.2-1.8,0.6-3.8-0.8-5.6c-1.8,1.5-0.9,3.3-1.2,4.8c-4.1,0.3-6.8-1.9-8.9-5.1
		c-2-0.1-2.1-1.5-2.1-3c0.7-0.5,1-1.2,1-2.1c0-3.5-4.3-6.8-0.7-10.5c-0.5-0.1-0.9-0.3-1.4-0.4c0.3-3.2-1.7-5.9-1.7-9
		c4.3,1.9,9.6,2.8,8,10.4c2.7-2,0.9-5.3,4-5.4c0,0.7-0.1,1.4,0,2c0.6,2.3,0.8,6,3.9,5c2.4-0.8,0.9-3.9,0-6c1.2-1.8,1-3.9,1-5.9
		C289,83.7,291,84.4,293,85z M310.1,95.2c-3.2-0.2-5.2-0.1-5.6,2.4c-0.1,0.9,0.9,2.9,1.4,2.9C309.1,100.3,307.1,96.6,310.1,95.2z
		 M286,97.7c-1.2,2.6-1.5,5.2,0.2,7.7C287,102.8,287.4,100.2,286,97.7z M295.9,94.3c-0.1-0.9-0.6-1.6-1.4-1.9
		c-0.8-0.2-1.3,0.4-1.1,1.1c0.3,0.7,0.7,1.6,1.4,2C295.5,95.8,295.8,95,295.9,94.3z"/>
	<path fill="#192225" d="M273,105c0,1.5,0,2.9,2.1,3c-0.5,5.2,3,5.9,6.9,6.1c0,1.5,0.4,3-1.1,4.1c-0.2,0-0.5-0.1-0.7-0.1
		c-1.2-0.1-2.4-0.4-3.1,1c-5.4,2-11.1,0-16.5,1.4c-0.4,0-0.8,0-1.2,0c-0.5,0.1-1.1,0.3-1.6,0.4c-0.6,0-1.3-0.1-1.9-0.1
		c-2.8-2.2-5.7-5.2-7.7,0.7c-0.7-0.2-1.4-0.4-2-0.6c0-2.2,1-4.1,1.8-6.1c0.3-0.1,0.7-0.2,1-0.3c0.6-0.2,1.2-0.5,1.9-0.7
		c1.9,0,3.9,2.3,5.6,0.4c1.1-1.3-1.5-2.3-1.3-3.9c3-3.1,5.8-6.3,8.9-9.2c3.5-3.3,4.1-6.9,2.4-11.2c-1.8-4.6-3.6-9.2-5.4-13.9
		c1-0.7,2.1-1.4,3.1-2.1c1.6,0.5,3.1,1,4.7,1.4c4.1,1.1,7.7,4,12.2,3.6c0,0,0,0,0,0c1,2.3,3,2.1,5,2c0,0,0,0,0,0
		c-0.1,0.9,0.1,1.7,1,2.1c0.1,2,0.2,4.1-1,5.9c-1.2-0.7-2.5-1.2-4-1c-3,0.1-1.3,3.4-4,5.4c1.6-7.5-3.7-8.4-8-10.4
		c-1.6-1.7-2-0.4-2.3,1c-1.1,1.2-1.1,2.2,0.4,3.1l0.2,0.4C268.3,93.7,270.7,99.4,273,105z M265.3,111.1c-4.9-1.3-4.3,4-6.7,6.9
		c2.4,0,4.1-0.1,5.9,0c2.9,0.3,0.7-2.1,1.6-2.8C258.3,113.3,267.9,113.2,265.3,111.1z"/>
	<path fill="#141718" d="M331.1,122.9c-1.9-7.6-6.6-13.6-12-20.6c5,0.4,8.2,2.1,11.5,3.1c1.1,0.4,2,1.3,2.2,2.5
		c0.6,4.6-0.1,9.2,1,13.7c0.2,0.8-1,1.1-1.8,1.3C331.6,123,331.4,123,331.1,122.9z"/>
	<path fill="#141718" d="M315,114c2.2-0.2,2.5-2,1.9-3.2c-1.2-2.4,0.7-6.3-3.7-7.5c-2-0.5-0.9-2.8-0.2-4.3c0.7,0,1.3,0,2,0
		c0.4,0.8,1.2,0.9,2,1c2.7,7.5,7.2,14.5,7,22.8c-1,0-1.9,0.1-2.9,0.1c0,0,0,0,0,0c-0.3-0.4-0.7-0.7-1-1.1
		C320.2,118.1,315.1,117.6,315,114z"/>
	<path fill="#232525" d="M348,105.9c-1.6,2.9-0.9,6.1-1,9.2c-0.1,6.2-0.1,12.4-0.1,18.5c0,3-2.2,2.2-3.9,2.3c-0.3-0.7-0.7-1.3-1-2
		c1.8-1.8,0.7-4,1-6c-0.3-1.3-0.7-2.6-1-4c2.4-0.3,1.7-2.3,2.1-3.8c1.1-4.7,0-9.7,2.1-14.3C346.8,105.9,347.4,105.9,348,105.9z"/>
	<path fill="#4C4E51" d="M348,105.9c-0.6,0-1.2,0-1.9,0c-1.2-1.1-2.5-1.7-4.1-1.9c-2.6-2.4-6.9-1.8-9-5.1c0.5-1.2,1.6-0.9,2.6-1
		c2.4,1,4.9,2,7.3,3c2,1,2.2-0.3,2.1-1.8c-0.1-3.2,0-6.3,1-9.3c3.3,4.5,1.2,9.7,2.2,14.5C348.1,104.9,348.1,105.4,348,105.9z"/>
	<path fill="#4C4E51" d="M281.9,114.1c-3.9-0.2-7.4-0.8-6.9-6.1c2.1,3.2,4.8,5.3,8.9,5.1c0.5,0.7,1.2,0.9,2,0.8c6,1.1,12,2.1,18,3.2
		c-0.5,2.9-2.7,2.1-4.3,1.7C293.8,117.3,287.9,115.7,281.9,114.1z"/>
	<path fill="#192225" d="M342,104c1.6,0.2,3,0.8,4.1,1.9c-2.1,4.6-1,9.6-2.1,14.3c-0.3,1.5,0.4,3.5-2.1,3.8
		C342,117.3,342,110.7,342,104z"/>
	<path fill="#FEFEFE" d="M299.6,112.1c0,3-2.1,1.9-3.5,1.7c-1.4-0.3-3.6-8.1-2.5-9c0.4-0.3,1.5,0.3,2.3,0.5
		C295.8,108.3,298.1,110,299.6,112.1z"/>
	<path fill="#4C4E51" d="M321,123c1,0,1.9-0.1,2.9-0.1c2.4,0,4.8,0,7.1,0c0.3,0.1,0.6,0.1,0.9,0.2c-0.1,1.2,0.5,3.1-1.8,2.4
		C327.1,124.6,323.8,124.7,321,123z"/>
	<path fill="#4C4E51" d="M287,83.1c-0.9-0.5-1.1-1.2-1-2.1c3.8,0.1,6.8,2.2,10,4c-1,0-2,0-3,0C291,84.4,289,83.7,287,83.1z"/>
	<path fill="#192225" d="M343,128c-0.3,2,0.8,4.3-1,6C340.9,131.8,339.5,129.5,343,128z"/>
	<path fill="#232525" d="M317,100c-0.8,0-1.5-0.2-2-1c0.9-0.3,1.2-2,2.2-1.5C318.4,98.1,317.2,99.2,317,100z"/>
	<path fill="#4C4E51" d="M296,85c1.1,0,2.3-0.2,3,1C297.9,86,296.7,86.3,296,85z"/>
	<path fill="#4C4E51" d="M299,86c1.1,0,2.3-0.2,3,1C300.9,87,299.7,87.3,299,86z"/>
	<path fill="#4C4E51" d="M304,88c1.1,0,2.3-0.2,3,1C305.9,89.1,304.7,89.3,304,88z"/>
	<path fill="#4C4E51" d="M309,90c1.1-0.1,2.3-0.1,3,1C310.9,91,309.7,91.3,309,90z"/>
	<path fill="#4C4E51" d="M320,121.9c0.3,0.4,0.7,0.7,1,1.1C320.5,122.8,319,123.5,320,121.9z"/>
	<path fill="#4C4E51" d="M328.3,97.6c-0.1,0.1-0.3,0.1-0.4,0.2c0-0.2-0.1-0.4-0.1-0.6c0.1,0,0.3,0,0.4,0.1
		C328.3,97.3,328.3,97.5,328.3,97.6z"/>
	<path fill="#4C4E51" d="M312,91c0.7,0,1.4,0,2,0C313.3,92.1,312.7,92.1,312,91z"/>
	<path fill="#4C4E51" d="M307,89c0.8,0,1.6,0.1,2,1C308.2,90,307.4,89.9,307,89z"/>
	<path fill="#4C4E51" d="M302,87c0.8,0,1.6,0.1,2,1C303.2,88,302.4,87.9,302,87z"/>
	<path fill="#0785D2" d="M248.9,114.6c-0.3,0.1-0.7,0.2-1,0.3c-0.7-0.4-1.7-0.6-2.1-1.2c-4.3-6-11.6-8.8-16.2-14.5
		c-1.4-1.7-3.6-2-5.8-2.3c-7.7-1.1-13.7,1.8-19.2,6.9c-3,2.8-6.7,5-9,8.4c-0.9,1.4-3.5,3.7,0.6,4.8c0,1.8-0.3,3.4-2.3,4
		c-0.7-2.4-1.1-5-3.1-6.6c-3.8-3.2-7.8-6.2-11.7-9.3c-0.4-0.7-0.9-1.4-1.3-2c-6-8-6.2-12.2-0.7-21.1c0.1,1.1,0.1,2.1,0.2,3.2
		c-0.6,1.8-1.4,3.6-1.9,5.5c-0.3,1-0.9,2.5,0.9,2.6c1,0,0.8-1.5,1.1-2.4c0.2-0.3,0.5-0.6,0.7-0.9c0,0,0.1-0.1,0.1-0.1
		c0.3,0.4,0.7,0.7,1,1.1c0,0.7-0.1,1.4-0.1,2.1c-0.9,0.6-0.9,1.2,0,1.8l0.3,0.3c0.1,0.3,0.3,0.5,0.6,0.6c1.3,1.1,2.7,2,3.7,3.3
		c3.8,4.5,6.6,8.2,13.8,3.3c6.9-4.6,11.4-8.5,11.7-17.3c1.1-0.2,2.4,0.2,3.1-1.2c1.2,0.8,2.4,1.4,3.9,1c7-0.4,14.1,1.1,21-1.1
		c-2.8,7.9-1.4,11.9,6,17.2c2,2.6,3.9,6.4,7.9,4.2c2.7-1.5,5.3-3.8,6.3-7.2c0.3,0,0.6,0,0.9-0.1c0.7,0,1.3,0,2,0
		c-0.1,2.2-1.8,3.3-2.8,4.9C254.4,106.9,249.7,109.4,248.9,114.6z"/>
	<path fill="#666766" d="M236,73.3c0.8,0.3,1.5,0.7,2.3,1c-1,2.4-2.4,4.3-5.1,5c0.1-3.2-1.5-4.6-4.6-4.3c-3.5,0.4-7,0.8-10.5,1.1
		c3.8,0.7,0.8,2.7,1,3.9c-0.3,0.2-0.5,0.3-0.8,0.5c-2.8-0.6-5.5-0.1-8.1,1.2c-3.1-2.2-6.2-4.4-9.3-6.6c0-0.2,0.1-0.5,0.1-0.7
		C212.4,68.7,224.1,68.1,236,73.3z"/>
	<path fill="#232525" d="M179,105.2c3.9,3.1,7.9,6.1,11.7,9.3c2,1.7,2.4,4.3,3.1,6.6c-0.3,0.3-0.5,0.6-0.8,0.9c-0.3,0-0.7,0-1,0
		c-6.2-2-12.8,0-19.1-1.7c0-2,0.1-3.9,0-5.9c0-2.8-0.5-5.7,4-5.5C179.5,109,178.8,106.7,179,105.2z"/>
	<path fill="#2D2E2E" d="M163,112c-2.3,0.4-4.7,0.7-7,1.1c-0.4-5.5,0.6-11.2-0.7-16.7c-0.3-1.1,0.8-1.2,1.6-1.4
		c0.8,1.1,1.6,0.5,2.6,0.2c2.8-0.8,5.1-3.1,8.2-3.3c2.9,2,1.8-1.8,3-2.1c-1.2,6.6-2.1,13.3-5.8,19.1C163,109.1,162.9,110.5,163,112
		L163,112z"/>
	<path fill="#0E9DF5" d="M200.8,74.4c-0.1,0.2-0.1,0.4-0.1,0.7c-5.2,1.3-10.5,1.2-15.7,0.3c-1.7-0.3-2.7,0.3-2.7,1.9
		c0,2,1.4,1.2,2.5,0.9c1.1-0.3,2.3-0.4,3.2,0.7c-4.3,3.1-6.3,7.8-8.9,12.1c-0.3-0.4-0.7-0.7-1-1.1c0.5-1.7,2.6-3.7-0.8-4.7
		c-0.1-1.1-0.1-2.1-0.2-3.2c1.7-7.6,3.2-8.8,10.5-9c2.3-0.1,4.6-0.4,6.8-0.7C196.9,71.8,199.1,72.3,200.8,74.4z"/>
	<path fill="#232525" d="M167.8,92c-3.1,0.1-5.3,2.4-8.2,3.3c-1,0.3-1.8,0.9-2.6-0.2c0-1.7,0-3.3,0-5c0.9-0.3,2.2-0.4,2.6-1
		c2.1-3.2,4.8-4.2,8.4-2.9C168,88.1,167.9,90,167.8,92z"/>
	<path fill="#0D6CB9" d="M167.8,92c0.1-2,0.2-3.9,0.3-5.9c1.9-0.4,0.4-5.3,4.2-3.2c-0.5,2.3-0.9,4.7-1.4,7c0,0-0.1-0.1-0.1-0.1
		C169.5,90.2,170.6,94,167.8,92z"/>
	<path fill="#666766" d="M155,80.1c1.7-1,3.4-2,5.2-3c1.3,0,2.6,0,3.8-0.1c-2.5,2.5-5.8,3.2-9,4C155,80.7,155,80.4,155,80.1z"/>
	<path fill="#666766" d="M164,77c2.3-2.1,5-2.9,8-3C170,76.6,167,76.9,164,77z"/>
	<path fill="#2D2E2E" d="M170.9,89.9c0.5-2.3,0.9-4.7,1.4-7c0.7-0.2,1.9-0.6,1.6,0.6C173.2,85.8,173.1,88.4,170.9,89.9z"/>
	<path fill="#232525" d="M166,120.2c-0.9,0.8-2,0.5-3.1,0.5c-0.2-0.6-0.6-1.3,0.2-1.5C164.3,118.8,165.4,118.9,166,120.2z"/>
	<path fill="#666766" d="M172,74c1.6-1.1,2.9-3.5,5.2-1C175.5,73.6,173.8,74.4,172,74z"/>
	<path fill="#4C4E51" d="M155,80.1c0,0.3-0.1,0.6,0,1c-0.7,1.1-1.9,1-3,1C152.4,80.4,153.6,80.1,155,80.1z"/>
	<path fill="#4C4E51" d="M163,112c-0.1-1.5,0-2.9,2-3C165,110.4,164.3,111.5,163,112z"/>
	<path fill="#A19E99" d="M348.8,73.7c4.6-2.2,9.5-0.1,14.2-1.3c1.4-0.3,2.9-0.3,4.4-0.4c-1,13.2-0.2,26.5-0.4,39.7
		c-2.7-0.7-5.3-1.4-8-2.1c-3.1-2-6.2-4-9.2-5.9c-0.1-1.8-0.1-3.6-0.2-5.4c0.2-5.5,1.2-11-0.7-16.3c-0.1-0.6-0.1-1.3-0.2-1.9
		C348.7,78,348.8,75.8,348.8,73.7z"/>
	<path fill="#0D6CB9" d="M348.7,80.1c0.1,0.6,0.1,1.3,0.2,1.9c-2.2,5.5,0.8,10.9,0.7,16.3c0.1,1.8,0.1,3.6,0.2,5.4
		c-0.4,0.5-0.9,0.8-1.5,0.5c-0.9-4.8,1.1-10.1-2.2-14.5c0-2.7-0.1-5.3-0.1-8c0.1-1.3,0.1-2.6,0.2-3.9
		C347,78.7,347.8,79.4,348.7,80.1z"/>
	<path fill="#2D2E2E" d="M366,149c0.1,0.1,0.3,0.2,0.4,0.2C366.3,149.2,366.1,149.1,366,149C366,149,366,149,366,149z"/>
	<path fill="#4FC1F8" d="M233.1,79.2c2.7-0.7,4.1-2.6,5.1-5c0.1-0.4,0.2-0.7,0.3-1.1c0.9,0.1,1.7-0.1,2-1.1c6,0.4,12.1,0.5,18,2
		c-0.2,1.6-0.4,3.2-0.7,4.8c-1.9-0.2-3.7-1.2-5.8-0.4c-5.1,1.8-10.4,2.7-15.2,5.4c-6.9,2.2-14,0.7-21,1.1c0.8-1.4,4-1.6,2.2-4.3
		c0.3-0.2,0.5-0.4,0.8-0.5c1,0.3,2.2,0,3,0.9c-0.1,1.6,0.1,2.9,2.2,3.1c2.2,0.1,3-1,3-2.9C229.3,80.8,231.6,81.3,233.1,79.2z"/>
	<path fill="#0D6CB9" d="M257.9,78.9c0.2-1.6,0.4-3.2,0.7-4.8c1.4,0,1.4,1.5,2.3,2c1.8,4.6,3.5,9.3,5.4,13.9
		c1.7,4.3,1.2,7.9-2.4,11.2c-3.1,2.9-5.9,6.1-8.9,9.2c-1.4,1.2-2.8,2.3-4.2,3.5c-0.6,0.2-1.2,0.5-1.9,0.7c0.8-5.2,5.5-7.7,8.2-11.7
		c1.1-1.6,2.8-2.8,2.8-4.9c0,0,0,0,0,0c2.1-0.1,2-1.6,2-3c-0.3-1.4-1.3-3.2-0.8-4.3C263.6,85.7,260.4,82.4,257.9,78.9z"/>
	<path fill="#141718" d="M243,61c0.1,0.3,0.1,0.6,0.2,0.8c-0.1,1.4-0.1,2.8-0.2,4.1c-3.3,0.6-5.9-1.9-9-2c-0.1-1.9,0.5-3.1,2.7-3
		C238.8,61.1,240.9,61,243,61z"/>
	<path fill="#4C4E51" d="M281,79c-4.5,0.4-8.1-2.5-12.2-3.6c-1.6-0.4-3.1-1-4.7-1.4c-0.6-0.5-1.2-1.1-1.8-1.6
		c0.1-0.2,0.2-0.5,0.2-0.7c5.5,1.8,11,3.7,16.4,5.5C279.6,77.7,280.3,78.4,281,79z"/>
	<path fill="#192225" d="M237,66.9c0.3,0,0.7,0,1,0.1C237.6,67.8,237.3,67.6,237,66.9z"/>
	<path fill="#192225" d="M240.6,72c-0.3,1-1.1,1.2-2,1.1C239.2,72.8,239.9,72.4,240.6,72z"/>
	<path fill="#0E9DF5" d="M100.5,62c-4.2,0.7-8.4-1.2-12.6,0c-0.7,0-1.3,0-2,0c-2.2-0.1-5.1,0.7-6.3-1.5c-1.4-2.6,3-2.4,3.2-4.6
		c0.7-0.3,1.3-0.5,2-0.8c0.7-0.4,1.4-0.8,2.1-1.2c0,0-0.1,0-0.1,0c3.6,2.3,7.2,4.4,11.7,3.9C103.5,57.3,102.5,59.4,100.5,62z"/>
	<path fill="#141718" d="M197.1,61.1c2.1,0,4.2,0,6.2-0.1c2.2-0.1,2.8,1.1,2.7,3c-3,0.6-6,1.3-9,1.9C197,64.3,197.1,62.7,197.1,61.1
		z"/>
	<path fill="#4186CB" d="M72.1,57c1,0.6,1,1.3,0.3,2.1C72.3,58.4,72.2,57.7,72.1,57z"/>
	<path fill="#0785D2" d="M86,62c0.7,0,1.3,0,2,0c0,2.6,0,5.2,0,7.8c-0.3,0.1-0.6,0.2-1,0.2C85.4,67.5,86.2,64.7,86,62z"/>
	<path fill="#0E9DF5" d="M201.9,131c0.1-2.4,1.7-2.9,3.7-2.9c9.6,0,19.2,0,28.7,0c1.5,0,3.1,0,3.5,2
		C225.9,132.1,213.9,130.7,201.9,131z"/>
	<path fill="#4186CB" d="M212.2,135.1c-2.1,1.1-4.1,1.3-6.1-0.2C208.1,134.9,210.2,135,212.2,135.1z"/>
	<path fill="#4186CB" d="M215.2,135.1c-0.4,0.6-0.9,0.6-1.4,0C214.3,135.1,214.7,135.1,215.2,135.1z"/>
	<path fill="#0785D2" d="M240,120.2c-0.4,1.6-0.7,3.2-1.1,4.7c-9.8,2.6-19.8,0.9-29.7,1.2c-3.5,0.1-7.1,0.3-9.4-3.1
		c0.1-2.6-0.6-4.7-2.9-6.1c-0.3-3,1.9-2.7,3.9-3.2c2.4-0.6,3.3,0.6,3.6,2.3c0.9,5,5,5.4,8.7,5.8c3.9,0.4,8.1,0.7,11.9-0.1
		c4-0.8,9.8,0.5,10.8-6.2c0.3-2,1.9-1.2,3-0.1C240.3,116.8,239.9,118.5,240,120.2z"/>
	<path fill="#4186CB" d="M197,117c2.3,1.4,3.1,3.5,2.9,6.1c-1.5-1.3-3.1-2.7-4.6,0c-0.8-0.4-1.5-0.7-2.2-1.1
		c0.3-0.3,0.5-0.6,0.8-0.9c2.1-0.6,2.3-2.2,2.3-4C196.4,117,196.7,117,197,117z"/>
	<path fill="#0785D2" d="M193,121.9c0.7,0.4,1.5,0.7,2.2,1.1c-0.3,1.2-0.9,2-2.2,2.1c-0.3-1.1-0.7-2.1-1-3.2
		C192.3,121.9,192.7,121.9,193,121.9z"/>
	<path fill="#192225" d="M96.7,100c0-0.7,0.1-1.3,0.1-2c0-0.4,0-0.7,0-1.1c0-1.6,0-3.3,0.1-4.9c2.7-1.2,0.7-5.7,4.4-6.2
		c0.7,4.1,1,8.3,2.9,12.1C101.5,98.1,99.5,100.6,96.7,100z"/>
	<path fill="#2D2E2E" d="M101.3,85.9c-3.7,0.5-1.7,5-4.4,6.2c0,0-0.1-0.1-0.1-0.1c0.3-3.3,0-6.7,1.1-9.9c3.8-3,2-6.8,1.5-10.4
		c0.2-0.1,0.3-0.1,0.5-0.1C103.6,76,102,81,101.3,85.9z"/>
	<path fill="#232525" d="M342.9,101c-2.4-1-4.9-2-7.3-3c2.5-6.3,2.2-13,2.5-19.6c0.1-2.1-0.7-4.3,0.8-6.2c0.4,2.3-0.9,4.9,1.1,7
		c0.2,3.2-0.7,6.8,3,8.8c0.3,0.7,0.5,1.4,0.8,2.2C343.5,93.8,343.2,97.4,342.9,101z"/>
	<path fill="#4C4E51" d="M340,79.2c-2-2.1-0.7-4.7-1.1-7c1.4-0.1,2.8-0.2,4.2-0.3c0,0,0,0,0,0c0.2,2.1,0.3,4.2,0.5,6.2
		C342.2,77.9,341,78.4,340,79.2z"/>
	<path fill="#4FC1F8" d="M87,54c-0.7,0.4-1.4,0.8-2.1,1.2C85.3,54.2,86.1,53.9,87,54z"/>
	<path fill="#4C4E51" d="M286,81c-2,0.1-4,0.3-5-2C283,78.8,284.7,79.4,286,81z"/>
	<path fill="#0D6CB9" d="M197,117c-0.3,0-0.6,0-0.8,0.1c-4.1-1.1-1.5-3.4-0.6-4.8c2.3-3.4,6-5.6,9-8.4c5.4-5.1,11.5-8,19.2-6.9
		c2.2,0.3,4.5,0.6,5.8,2.3c4.6,5.7,11.8,8.5,16.2,14.5c0.4,0.6,1.4,0.8,2.1,1.2c-0.7,2-1.8,3.9-1.8,6.1c-0.8,0.7-1.2,0.2-1.4-0.5
		c-1.2-4.6-2.9-3.1-4.7-0.4c-0.2-1.6,0.2-3.4-1.1-4.7c-1.1-1.1-2.7-1.9-3,0.1c-1.1,6.7-6.8,5.4-10.8,6.2c-3.8,0.8-8,0.5-11.9,0.1
		c-3.7-0.4-7.8-0.8-8.7-5.8c-0.3-1.6-1.2-2.9-3.6-2.3C198.9,114.3,196.7,114,197,117z"/>
	<path fill="#4C4E51" d="M248.2,121.6c2-5.9,4.9-2.9,7.7-0.7C253.3,121.3,250.8,122.2,248.2,121.6z"/>
	<path fill="#4C4E51" d="M257.8,121c0.5-0.1,1.1-0.3,1.6-0.4C258.9,120.7,258.4,120.9,257.8,121z"/>
	<path fill="#A19E99" d="M343.5,78.1c-0.2-2.1-0.3-4.2-0.5-6.2c1.3-0.5,2.3-0.1,3.2,0.8c-0.1,1.7-0.1,3.5-0.2,5.2
		c-0.1,1.3-0.1,2.6-0.2,3.9c-0.7-0.9-1.4-1.8-2.1-2.7C343.7,78.8,343.6,78.5,343.5,78.1z"/>
	<path fill="#4186CB" d="M346.1,77.9c0.1-1.7,0.1-3.5,0.2-5.2c0.9,0.2,1.9,0,2.5,0.9c0,2.1-0.1,4.3-0.1,6.4
		C347.8,79.4,347,78.7,346.1,77.9z"/>
	<path fill="#2D2E2E" d="M277.1,119.1c0.7-1.4,1.9-1.1,3.1-1C279.3,119.2,278.2,119.1,277.1,119.1z"/>
	<path fill="#0D6CB9" d="M99.4,71.6c0.5,3.6,2.2,7.4-1.5,10.4c-1.2-1.2-0.7-2.9-1-4.3c0.1-1.9,0.1-3.9,0.2-5.8
		C97.9,71.8,98.6,71.7,99.4,71.6z"/>
	<path fill="#A19E99" d="M97.1,71.9c-0.1,1.9-0.1,3.9-0.2,5.8c-0.3,0.4-0.7,0.8-1,1.2c-1.9,1.6,0.1,4.4-1.9,6
		c-0.1-1.3-0.1-2.7-0.2-4c-0.1-2.9-0.1-5.9-0.2-8.8C94.8,72,96,72,97.1,71.9z"/>
	<path fill="#4186CB" d="M93.7,72.1c0.1,2.9,0.1,5.9,0.2,8.8c-0.7-0.7-1.4-1.4-2.1-2.1c0.1-2.2,0.1-4.5,0.2-6.7
		C92.5,72.1,93.1,72.1,93.7,72.1z"/>
	<path fill="#4C4E51" d="M95.9,78.9c0.3-0.4,0.7-0.8,1-1.2c0.3,1.4-0.3,3.1,1,4.3c-1.1,3.2-0.8,6.6-1.1,9.9
		C95,87.7,96.5,83.2,95.9,78.9z"/>
	<path fill="#4C4E51" d="M96.8,97c0,0.4,0,0.7,0,1.1c-0.1-0.3-0.2-0.5-0.3-0.8C96.5,97.2,96.7,97.1,96.8,97z"/>
	<path fill="#232525" d="M112,113c0,1.4,0,2.8-1.9,3C110,114.6,109.9,113.1,112,113z"/>
	<path fill="#2D2E2E" d="M140.1,113.7c0.9,0.2,1.7,0.4,2.6,0.6c-0.4,2.5-2.3,1.4-3.7,1.6C139.4,115.2,139.8,114.5,140.1,113.7z"/>
	<path fill="#232525" d="M140.1,113.7c-0.4,0.7-0.8,1.5-1.1,2.2c-0.3,0-0.7,0.1-1,0.1c0-1.5-0.1-2.9,2-3
		C140.2,113.2,140.3,113.5,140.1,113.7z"/>
	<path fill="#2D2E2E" d="M273,105c-2.3-5.6-4.7-11.3-4.6-17.5c1.9,0.9,0.6,4.3,3.5,4.5c0.5,0.1,0.9,0.3,1.4,0.4
		c-3.5,3.8,0.7,7,0.7,10.5C274,103.8,273.7,104.5,273,105z"/>
	<path fill="#141718" d="M282,88c1.5-0.2,2.7,0.3,4,1c0.9,2.1,2.4,5.3,0,6c-3.2,1-3.4-2.7-3.9-5C281.9,89.4,282,88.7,282,88z"/>
	<path fill="#0D6CB9" d="M271.9,91.9c-2.9-0.1-1.6-3.5-3.5-4.5c0,0-0.2-0.4-0.2-0.4c-0.1-1-0.2-2-0.4-3.1c0.3-1.4,0.6-2.7,2.3-1
		C270.1,86.1,272.2,88.8,271.9,91.9z"/>
	<path fill="#2D2E2E" d="M310.1,95.2c-3,1.4-0.9,5.1-4.3,5.2c-0.4,0-1.5-2-1.4-2.9C304.9,95.1,306.9,95,310.1,95.2z"/>
	<path fill="#141718" d="M286,97.7c1.4,2.6,1,5.1,0.2,7.7C284.5,102.9,284.8,100.3,286,97.7z"/>
	<path fill="#141718" d="M286,113.9c-0.8,0.1-1.5-0.1-2-0.8c0.3-1.5-0.6-3.3,1.2-4.8C286.6,110.1,285.8,112.1,286,113.9z"/>
	<path fill="#2D2E2E" d="M295.9,94.3c-0.1,0.7-0.4,1.5-1.1,1.2c-0.6-0.3-1.1-1.2-1.4-2c-0.3-0.7,0.3-1.3,1.1-1.1
		C295.3,92.7,295.8,93.4,295.9,94.3z"/>
	<path fill="#2D2E2E" d="M265.3,111.1c2.6,2.1-7,2.2,0.7,4.1c-0.9,0.8,1.3,3.1-1.6,2.8c-1.7-0.2-3.5,0-5.9,0
		C261,115.1,260.4,109.8,265.3,111.1z"/>
	<path fill="#2D2E2E" d="M250.8,113.9c1.4-1.2,2.8-2.3,4.2-3.5c-0.2,1.6,2.5,2.6,1.3,3.9C254.7,116.2,252.7,113.9,250.8,113.9z"/>
	<path fill="#2D2E2E" d="M267.8,84c0.1,1,0.2,2,0.4,3.1C266.7,86.2,266.7,85.2,267.8,84z"/>
	<path fill="#666766" d="M343.9,79.2c0.7,0.9,1.4,1.8,2.1,2.7c0,2.7,0.1,5.3,0.1,8c-1,3-1.2,6.2-1,9.3c0.1,1.6-0.1,2.8-2.1,1.8
		c0.3-3.6,0.6-7.2,0.9-10.8c0-2.8,0-5.5,0-8.3C343.8,81,343.8,80.1,343.9,79.2z"/>
	<path fill="#119BB6" d="M179,91c2.6-4.3,4.7-9,8.9-12.1c7.4,0.7,13.9,4.6,21,6.1c-0.2,8.8-4.8,12.6-11.7,17.3
		c-7.2,4.9-10,1.2-13.8-3.3c-1-1.3-2.5-2.2-3.7-3.3c-0.1-0.3-0.3-0.5-0.6-0.6c0,0-0.3-0.3-0.3-0.3c0-0.6,0-1.2,0-1.8
		C178.9,92.4,178.9,91.7,179,91z M197.7,94.7c2.8,0.4,3.7-1.8,4.7-4c1.3-2.7-1.3-3-2.7-3.7c-2.9-1.4-6-1.6-9.1-2.3
		c-2.4-0.6-4.7-0.7-5.1,2c-0.3,2.3,0,5.2,3.2,5.9C191.6,93.3,194.6,93.9,197.7,94.7z"/>
	<path fill="#119BB6" d="M257.9,78.9c2.5,3.5,5.7,6.8,3.3,11.8c-0.5,1.1,0.5,2.8,0.8,4.3c-1,0.4-1.7,1.1-2.1,2.1
		c-0.8,0-1.5,0.1-1.9,0.9c-0.3,0-0.6,0-0.9,0.1c-4.4,2.4-8.8,5.3-14.2,3c-7.4-5.4-8.8-9.3-6-17.2c4.8-2.7,10.1-3.6,15.2-5.4
		C254.2,77.7,256,78.7,257.9,78.9z M242.5,94.4c3.2-0.8,6.4-1.5,9.5-2.6c2.8-0.9,2.1-3.4,1.9-5.5c-0.3-2.5-2.2-2.8-4.1-2.3
		c-3.3,0.9-6.8,1.3-9.8,3.2c-1.4,0.9-2.9,1.9-2,3.9C238.8,93.1,239.9,94.7,242.5,94.4z"/>
	<path fill="#4FC1F8" d="M208.9,85.1c-7.2-1.5-13.6-5.5-21-6.1c-0.9-1.1-2.1-1-3.2-0.7c-1.1,0.3-2.5,1-2.5-0.9c0-1.6,1-2.2,2.7-1.9
		c5.3,0.8,10.5,1,15.7-0.3c3.1,2.2,6.2,4.4,9.3,6.6c0.7,0.7,1.3,1.4,2,2.2C211.4,85.2,210.1,84.9,208.9,85.1z"/>
	<path fill="#0D6CB9" d="M242.9,101.1c5.4,2.2,9.8-0.6,14.2-3c-1,3.4-3.6,5.7-6.3,7.2C246.9,107.5,245,103.7,242.9,101.1z"/>
	<path fill="#7DB4F4" d="M212.1,83.9c-0.7-0.7-1.3-1.4-2-2.2c2.6-1.3,5.3-1.8,8.1-1.2c1.8,2.7-1.4,3-2.2,4.3
		C214.5,85.3,213.2,84.7,212.1,83.9z"/>
	<path fill="#4FC1F8" d="M177.2,85.2c3.4,1,1.3,3,0.8,4.7c0,0-0.1,0.1-0.1,0.1c-0.2,0.3-0.5,0.6-0.7,0.9c-0.3,0.9-0.1,2.4-1.1,2.4
		c-1.7-0.1-1.1-1.6-0.9-2.6C175.9,88.8,176.6,87.1,177.2,85.2z"/>
	<path fill="#0D6CB9" d="M258,98c0.4-0.8,1.1-0.9,1.9-0.9c0,0.3,0,0.6,0.1,0.9c0,0,0,0,0,0C259.3,98,258.7,98,258,98z"/>
	<path fill="#0E9DF5" d="M178.9,93.1c0,0.6,0,1.2,0,1.8C178,94.3,177.9,93.7,178.9,93.1z"/>
	<path fill="#0E9DF5" d="M177.3,90.9c0.2-0.3,0.5-0.6,0.7-0.9C177.7,90.3,177.5,90.6,177.3,90.9z"/>
	<path fill="#0E9DF5" d="M179.1,95.2c0.3,0.1,0.5,0.3,0.6,0.6C179.4,95.7,179.2,95.5,179.1,95.2z"/>
	<path fill="#4C4E51" d="M233.1,79.2c-1.5,2-3.9,1.6-6,1.9c-1.7,0-3.5-0.1-5.2-0.1c-0.8-1-2-0.6-3-0.9c-0.2-1.2,2.8-3.2-1-3.9
		c3.5-0.4,7-0.8,10.5-1.1C231.7,74.6,233.2,76.1,233.1,79.2z"/>
	<path fill="#4186CB" d="M349.6,98.4c0.1-5.5-2.9-10.8-0.7-16.3C350.8,87.4,349.8,92.9,349.6,98.4z"/>
	<path fill="#0E9DF5" d="M222,81c1.7,0,3.5,0.1,5.2,0.1c0,2-0.8,3-3,2.9C222,83.9,221.9,82.6,222,81z"/>
	<path fill="#0785D2" d="M260,98c0-0.3-0.1-0.6-0.1-0.9c0.4-1,1.1-1.7,2.1-2.1C262,96.4,262.1,97.9,260,98z"/>
	<path fill="#2D2E2E" d="M343.9,79.2c0,0.9-0.1,1.8-0.1,2.7c-0.3,0.7-0.6,1.5-0.8,2.2c-1,0.7-0.9,1.3,0,1.9c0,0.7,0,1.4,0,2.1
		c-3.7-2-2.8-5.6-3-8.8c1.1-0.7,2.2-1.3,3.5-1C343.6,78.5,343.7,78.8,343.9,79.2z"/>
	<path fill="#4C4E51" d="M343,88c0-0.7,0-1.4,0-2.1c0-0.6,0-1.3,0-1.9c0.3-0.7,0.6-1.5,0.8-2.2c0,2.8,0,5.5,0,8.3
		C343.5,89.4,343.2,88.7,343,88z"/>
	<path fill="#61E42E" d="M197.7,94.7c-3.2-0.7-6.1-1.4-9-2.1c-3.2-0.8-3.5-3.7-3.2-5.9c0.4-2.7,2.7-2.6,5.1-2c3.1,0.7,6.2,1,9.1,2.3
		c1.4,0.7,4,1,2.7,3.7C201.5,92.8,200.5,95.1,197.7,94.7z"/>
	<path fill="#61E42E" d="M242.5,94.4c-2.6,0.3-3.7-1.4-4.5-3.3c-0.9-2,0.6-3,2-3.9c3-1.9,6.5-2.3,9.8-3.2c1.8-0.5,3.8-0.2,4.1,2.3
		c0.2,2.1,0.8,4.6-1.9,5.5C248.9,92.9,245.6,93.6,242.5,94.4z"/>
	<path fill="#232525" d="M342.9,84.1c0,0.6,0,1.3,0,1.9C342,85.3,341.9,84.7,342.9,84.1z"/>
</g>
</svg>
