<?xml version="1.0" encoding="utf-8"?>
<!-- Generator: Adobe Illustrator 18.1.1, SVG Export Plug-In . SVG Version: 6.00 Build 0)  -->
<!DOCTYPE svg PUBLIC "-//W3C//DTD SVG 1.1//EN" "http://www.w3.org/Graphics/SVG/1.1/DTD/svg11.dtd">
<svg version="1.1" id="Layer_1" xmlns="http://www.w3.org/2000/svg" xmlns:xlink="http://www.w3.org/1999/xlink" x="0px" y="0px"
	 viewBox="94 -4 800 800" enable-background="new 94 -4 800 800" xml:space="preserve">
<g>
	<path fill="#CCCCCC" d="M351.3,67.7c0,0,54.2-6.6,80.8,0c26.6,6.7,94.1,20,108.3,22.8c14.3,2.8,42.8,10.4,41.8,14.2
		c-1,3.8-21.9,50.4-29.5,64.6s-33.2,88.4-42.8,126.4c-9.5,38-27.5,80.8-21.9,117.8c5.7,37.1,24.7,81.7,39,107.4
		c14.2,25.7,17.1,52.3,49.4,77.9c32.3,25.7,37.1,35.2,76,43.7c39,8.6,51.3,9.5,60.8,24.7c9.5,15.2,17.1,35.1,0,42.8
		c-17.1,7.6-32.3,11.4-62.7,13.3c-30.4,1.9-68.4,4.7-109.3,3.8c-40.8-1-65.6-0.7-74.1-9.2c-8.6-8.6-13.3-25-26.6-42.1
		c-13.3-17.1-44.7-69.4-55.1-72.2c-10.5-2.9-30.8-18.1-49.6-23.8c-18.8-5.7-54.9-10.4-64.4-36.1c-9.5-25.7-2.9-54.2,9.5-67.5
		c12.4-13.3,33.3-28.5,44.7-59.9c11.4-31.3,20-49.4,26.6-98.8c6.7-49.4,3.8-114,1-128.3c-2.9-14.2-7.6-83.6-7.6-97.9
		C345.6,77.2,351.3,67.7,351.3,67.7z"/>
	<path fill="#999999" d="M332.4,416.4c2.9,0,57,38,76,36.1c19-1.9-72.5,127.3-72.5,127.3s-2.6,1.7-23-6.2
		c-20.4-8-30.3-4.2-37.3-22.1c-7-17.9-17.4-31.4-6-53.4c11.4-21.9,4.7-18.2,22.4-32.9c17.6-14.7,18.7-16.6,26.2-32.7
		C325.6,416.4,332.4,416.4,332.4,416.4z"/>
	<path fill="#FFFFFF" d="M345.9,120c0,0,52.5-18,113.3,3.8c60.8,21.9,97.4,37.2,97.4,37.2L546,184.6c0,0-65.4-31.7-94.6-35.8
		c-29.2-4.1-102.8-5-102.8-5L345.9,120z"/>
	<path fill="#FFFFFF" d="M351.4,179.6c0,0,42.7-14.7,92.2,3.1c49.5,17.8,90.7,34,90.7,34l-7.6,22.5c0,0-65.7-32.8-89.5-36.1
		c-23.8-3.3-83.7-4.1-83.7-4.1L351.4,179.6z"/>
	<path fill="#999999" d="M659.7,644.1c0,0-30.9,0.3-22.3,17.4c8.6,17.1,17.1,37.1,22.3,40.9c5.2,3.8,23.1,17.3,25.8,16.7
		c2.7-0.6,14-3.3,20.8-6.2c6.9-2.9,14.4-4.6,15.7-11.3c1.3-6.7,2.3-8.9,0-15.4c-2.3-6.5-5.9-14-7.4-16.4c-1.5-2.4-2.8-6.2-7.3-9.6
		c-4.4-3.4-5.8-5.4-14.3-7.9c-8.5-2.5-17.7-5.8-21.5-5.8S659.7,644.1,659.7,644.1z"/>
</g>
</svg>
