<?xml version="1.0" encoding="utf-8"?>
<!-- Generator: Adobe Illustrator 18.1.1, SVG Export Plug-In . SVG Version: 6.00 Build 0)  -->
<!DOCTYPE svg PUBLIC "-//W3C//DTD SVG 1.1//EN" "http://www.w3.org/Graphics/SVG/1.1/DTD/svg11.dtd">
<svg version="1.1" id="Layer_1" xmlns="http://www.w3.org/2000/svg" xmlns:xlink="http://www.w3.org/1999/xlink" x="0px" y="0px"
	 viewBox="-68 122 550 550" enable-background="new -68 122 550 550" xml:space="preserve">
<linearGradient id="SVGID_1_" gradientUnits="userSpaceOnUse" x1="206.8271" y1="785.0001" x2="206.827" y2="565.7597" gradientTransform="matrix(1 0 0 1 0 -279)">
	<stop  offset="0" style="stop-color:#0C80B1"/>
	<stop  offset="1" style="stop-color:#11A7DF"/>
</linearGradient>
<path fill="url(#SVGID_1_)" d="M353,506v-53h-53.1l0,17l-53.2-0.1c-4.1,0-4.5-0.9-6.5-2.7L182.6,407H398v21.3l61.5-30.8L398,366.7
	V388H114.2l59.3-62.2c2-1.8,2.4-2.8,6.5-2.8h54.8c3.8,11,13.9,18.3,25.8,18.3c15.1,0,27.4-12.2,27.4-27.3
	c0-15.2-12.3-27.3-27.4-27.3c-11.9-0.1-22,7.2-25.8,18.2h-62.4c-3.2,0-5.1,1.1-6.4,2.6L88.6,388H45.9c-4.3-21-23-37-45.4-36.9
	c-25.6,0-46.3,20.8-46.3,46.4c0,25.6,20.8,46.4,46.3,46.4c22.4,0,41.1-15.9,45.4-36.9H157l75.8,78.6c1.4,1.5,3.2,2.4,6.5,2.4H300v18
	H353z"/>
</svg>
