<?xml version="1.0" standalone="no"?>
<!DOCTYPE svg PUBLIC "-//W3C//DTD SVG 20010904//EN"
 "http://www.w3.org/TR/2001/REC-SVG-20010904/DTD/svg10.dtd">
<svg version="1.0" xmlns="http://www.w3.org/2000/svg"
 width="256.000000pt" height="256.000000pt" viewBox="0 0 256.000000 256.000000"
 preserveAspectRatio="xMidYMid meet">
<metadata>
Created by potrace 1.13, written by Peter Selinger 2001-2015
</metadata>
<g transform="translate(0.000000,256.000000) scale(0.100000,-0.100000)"
fill="#000000" stroke="none">
<path d="M471 2374 c-68 -18 -113 -45 -174 -103 -59 -57 -92 -112 -112 -187
-22 -87 -22 -1521 0 -1608 20 -75 53 -130 112 -187 62 -59 105 -85 178 -104
89 -23 1521 -23 1610 0 73 19 116 45 178 104 59 57 92 112 112 187 22 87 22
1521 0 1608 -20 75 -53 130 -112 187 -62 59 -105 85 -178 104 -86 22 -1531 21
-1614 -1z m1554 -487 c26 -14 48 -37 63 -67 l23 -45 -3 -481 -3 -480 -28 -42
c-45 -69 -84 -87 -262 -122 -88 -17 -167 -34 -175 -37 -9 -3 13 -18 58 -38 70
-33 89 -56 56 -69 -21 -8 -862 -8 -892 0 -36 10 -22 26 57 66 40 21 67 40 60
42 -8 3 -86 19 -174 37 -88 17 -172 37 -186 45 -39 19 -87 78 -99 121 -8 26
-10 189 -8 514 l3 476 27 35 c54 71 17 68 768 68 l675 0 40 -23z"/>
<path d="M680 1320 l0 -440 630 0 630 0 0 440 0 440 -630 0 -630 0 0 -440z"/>
</g>
</svg>
