<?xml version="1.0" encoding="utf-8"?>
<!-- Generator: Adobe Illustrator 18.1.1, SVG Export Plug-In . SVG Version: 6.00 Build 0)  -->
<svg version="1.1" id="Layer_1" xmlns="http://www.w3.org/2000/svg" xmlns:xlink="http://www.w3.org/1999/xlink" x="0px" y="0px"
	 viewBox="0 0 170.6 171" enable-background="new 0 0 170.6 171" xml:space="preserve">
<g>
	<path fill="#020202" d="M170.6,81.3c-0.2,0.1-0.1,0.3-0.1,0.5c-0.1,1.9-0.1,3.9-0.1,5.8c0.1,3.3,0.1,6.5,0,9.8c-0.1,2-0.3,4-1,6
		c-0.3,0.8-0.6,1.5-1,2.2c-1.3,2-3.2,2.5-5.5,2.3c-0.4,0-0.7-0.1-1.1-0.2c-0.5-0.1-0.5-0.1-0.4-0.6c0.4-1.6,0.8-3.2,1.2-4.8
		c0.6-3,1.1-6.1,1.4-9.2c0.4-4,0.5-8.1,0.2-12.1c-0.9-15.5-5.6-29.6-15-42c-0.2-0.3-0.5-0.6-0.9-0.8c-1.9-1.1-3.4-2.7-4.7-4.5
		c-1.2-1.7-2.2-3.5-3.2-5.2c-1-1.9-2-3.8-3.3-5.6c-0.7-1-1.4-1.8-2.4-2.6c-1.7-1.4-3.7-1.8-5.9-1.5c-0.7,0.1-1.3,0-1.9-0.4
		c-7.4-4.8-15.5-8-24.1-10c-6.1-1.4-12.2-2-18.4-2C76.9,6.5,69.3,7.7,62,10c-0.2,0.1-0.5,0.1-0.7,0.3c-2.2,1.7-4.7,2.7-7.4,3.5
		c-2.6,0.8-5.3,1.5-8,2.2c-1.8,0.5-3.6,1.1-5.3,2c-1.1,0.6-2.2,1.3-3.1,2.2c-1.2,1.2-2.1,2.7-2.5,4.3c-0.1,0.4-0.3,0.7-0.6,0.9
		c-13.1,10.8-21.4,24.6-25.7,41c-0.2,0.9-0.4,1.7-0.7,2.5c-1.1,2.8-1.5,5.8-1.7,8.8c-0.1,3,0.1,5.9,0.3,8.9
		c0.4,3.9,0.9,7.7,1.1,11.6c0.2,3.6,0.1,7.3-0.8,10.8c-0.1,0.5-0.4,0.8-0.8,1c-0.9,0.5-0.9,0.5-1.4-0.4c-1.7-2.7-2.8-5.7-3.5-8.8
		c-0.7-2.9-1-5.7-1.2-8.7c0-0.8,0-1.6-0.2-2.5c0-1.2,0-2.4,0-3.6c0.1-1,0.3-1.9,0.2-2.9c0-0.2,0.1-0.4,0-0.7c0-0.2-0.2-0.1-0.3,0
		c0-0.1,0-0.2,0-0.3c0.1,0.1,0.1,0.2,0.2,0.1c0.1-0.1,0.1-0.2,0.1-0.3c0.3-3.6,0.7-7.1,1.3-10.7c0.8-4.5,1.7-8.9,3.1-13.3
		C8.1,47.4,13.6,37.8,21,29.4C31,18.3,43,10.2,57.1,5C62.3,3.1,67.7,1.8,73.2,1c2.7-0.4,5.5-0.6,8.2-0.8c0.6,0.1,1.1,0,1.7,0
		c0.6,0.1,1.2,0,1.8,0c0.4,0,0.8,0.1,1.1-0.1c1,0,2.1,0,3.1,0c0.5,0.2,1,0.2,1.6,0.1c0.4,0,0.8,0.1,1.1,0c1.8,0.2,3.6,0.3,5.5,0.5
		c5,0.7,9.9,1.8,14.7,3.4c12,4.1,22.6,10.6,31.9,19.3c10.2,9.6,17.7,20.9,22.4,34.1c2.4,6.7,3.9,13.6,4.2,20.7c-0.1,0.4,0,0.8,0,1.3
		c0,0.4-0.1,0.8,0.1,1.2C170.6,80.9,170.6,81.1,170.6,81.3z"/>
	<path fill="#020202" d="M89.5,171.2c-0.1-0.2-0.4-0.2-0.6-0.2c-1-0.4-1.4-1.1-1.2-2.1c0.1-0.6,0.3-1.2,0.6-1.8
		c0.4-0.8,0.9-1.6,1.3-2.4c0.2-0.4,0.5-0.5,1-0.6c1.8,0,3.6-0.2,5.3-0.4c4.9-0.6,9.6-1.7,14.3-3.2c14.2-4.8,26.1-12.9,35.8-24.3
		c0.2-0.2,0.4-0.4,0.6-0.6c1.6-1,2.9-2.5,3.9-4.1c1.3-2,2.2-4.1,3.1-6.2c0.9-2.2,1.8-4.4,2.9-6.5c0.7-1.3,1.4-2.5,2.4-3.6
		c1.9-2.1,4.3-3.1,7.2-3.1c0.2,0,0.5,0,0.7,0.1c-0.7,2.2-1.5,4.3-2.5,6.4c-9,20-23.3,34.7-43,44.2c-4.9,2.3-9.9,4.1-15.2,5.3
		c-1.5,0.3-2.9,0.5-4.4,0.9c-2.3,0.6-4.5,1.2-6.8,1.7c-0.8,0.2-1.5,0.3-2.3,0.4c-0.3,0-0.7-0.1-1,0.1
		C90.9,171.2,90.2,171.2,89.5,171.2z"/>
	<path fill="#979797" d="M0.2,83.3c0.1,1-0.1,1.9-0.2,2.9c0-1,0-1.9,0-2.9C0.1,83.3,0.2,83.3,0.2,83.3z"/>
	<path fill="#929292" d="M0,89.7c0.2,0.8,0.3,1.6,0.2,2.5c-0.1,0-0.2,0-0.2,0C0,91.4,0,90.6,0,89.7z"/>
	<path fill="#636363" d="M86,0c-0.3,0.2-0.7,0.1-1.1,0.1c-0.6,0-1.2,0.1-1.8,0c0,0,0-0.1,0-0.1C84.1,0,85.1,0,86,0z"/>
	<path fill="#B9B9B9" d="M83.2,0c0,0,0,0.1,0,0.1c-0.6,0-1.1,0.1-1.7,0c0,0,0-0.1,0-0.1C82,0,82.6,0,83.2,0z"/>
	<path fill="#636363" d="M90.8,0.1c-0.5,0-1.1,0.1-1.6-0.1c0.5,0,1,0,1.6,0C90.7,0,90.7,0.1,90.8,0.1z"/>
	<path fill="#FFFFFF" d="M0.2,83.3c-0.1,0-0.2,0-0.2,0c0-0.2,0-0.5,0-0.7c0.1-0.1,0.2-0.2,0.3,0C0.3,82.9,0.2,83.1,0.2,83.3z"/>
	<path fill="#B9B9B9" d="M170.5,78.2c0,0,0.1,0,0.1,0c0,0.4,0,0.9,0,1.3c0,0-0.1,0-0.1,0C170.5,79,170.5,78.6,170.5,78.2z"/>
	<path fill="#595959" d="M170.5,79.5c0,0,0.1,0,0.1,0c0,0.4,0,0.8,0,1.1C170.4,80.2,170.5,79.8,170.5,79.5z"/>
	<path fill="#B9B9B9" d="M90.8,0.1c0,0,0-0.1,0-0.1c0.4,0,0.8,0,1.1,0c0,0,0,0.1,0,0.1C91.5,0.2,91.1,0.1,90.8,0.1z"/>
	<path fill="#595959" d="M91.6,171.2c0.3-0.2,0.7-0.2,1-0.1c0,0,0,0.1,0,0.1C92.3,171.2,91.9,171.2,91.6,171.2z"/>
	<path fill="#810202" d="M160.3,110c-0.2,0-0.5,0-0.7,0c-17.4,0.3-34.7,0.3-52.1,0.3c-0.3,0-0.6,0-0.9,0c-2.1-0.6-4.2-0.6-6.3-0.4
		c-3.2,0.2-6.3,0.6-9.4,0.9c-2.5,0.2-5.1,0.4-7.6,0.1c-1.2-0.2-2.4-0.4-3.5-1c-1.7-0.9-2.7-2.5-2.8-4.6c0.7,0,1.5-0.1,2.2-0.1
		c14.7-0.6,29.5-0.6,44.2-0.6c6.8,0,13.6-0.1,20.4-0.1c0.2,0,0.3,0,0.5-0.1c-0.2-0.2-0.4-0.3-0.6-0.5c-3.6-2.6-7.2-5.2-10.7-7.8
		c-0.2-0.1-0.4-0.3-0.6-0.4c-1.4-1.4-3-2.5-4.7-3.5c-2.1-1.3-4.3-2.5-6.4-3.8c-1-0.6-1.9-1.3-2.8-2.1c-0.6-0.6-1.2-1.2-1.7-1.9
		c-1.2-1.9-1.2-3.9-0.1-6c14.6,10.5,29.2,20.9,43.5,31.8C160.4,109.9,160.4,109.9,160.3,110z"/>
	<path fill="#020202" d="M80.8,170.3c-9.6-0.1-18.8-2.1-27.6-5.9c-15.6-6.6-28.3-16.9-38-30.7c-1.4-1.9-2.8-3.8-4.1-5.8
		c-1.7-2.8-3.2-5.6-4.3-8.6c-0.3-0.9-0.6-1.9-0.7-2.9c-0.1-0.6-0.1-1.1,0.1-1.7c0.2-0.8,0.7-1.2,1.4-1.4c0.7-0.2,1.5-0.1,2.2,0.1
		c0.6,0.1,1.1,0.4,1.7,0.5c0.4,0.1,0.6,0.4,0.8,0.8c1,2.6,2.2,5.2,3.5,7.6c8.1,15.1,19.8,26.6,35.2,34.2c0.2,0.1,0.4,0.2,0.6,0.4
		c2.5,2.1,5.3,3.2,8.4,4c2.7,0.6,5.5,0.9,8.2,1.3c3,0.4,6,0.8,8.9,1.7c3,1,5.6,2.7,7.5,5.3c0.1,0.2,0.3,0.3,0.4,0.5
		c0.2,0.4,0.1,0.6-0.3,0.6C83.3,170.3,82.1,170.4,80.8,170.3z"/>
	<path fill="#810202" d="M130.3,23.1c0.1,1.1-0.1,2.1-0.2,3.1c-0.6,3.7-1.7,7.3-2.8,10.8c-1.9,6-4.1,11.9-6.1,17.9
		c-1,2.8-1.7,5.7-2.6,8.6c-1.8,5.6-3.6,11.2-5.4,16.7c-0.1,0.2-0.1,0.3-0.2,0.5c-1.3,2.6-1.9,5.4-2.5,8.1c-0.5,2.2-1,4.5-1.7,6.7
		c-0.5,1.3-1,2.6-1.8,3.8c-1.3,2-3.2,3.1-5.6,3.4c-0.2,0-0.4,0.1-0.6,0c0-0.3,0.1-0.5,0.2-0.7c3.7-11.7,7.5-23.4,11.3-35
		c0.6-1.8,1.1-3.5,1.7-5.3c0.1-0.2,0.1-0.4,0.2-0.5c0.1-2.3,0.9-4.3,1.7-6.4c1.1-2.7,2.3-5.4,3.4-8.1c0.5-1.4,1.1-2.9,1.3-4.4
		c0.1-0.7,0.1-1.4-0.1-2.1c-0.2-0.7-0.7-1.2-1.4-1.5c-0.8-0.2-1.6-0.3-2.4,0.1c-2.2,0.9-4.1,2.2-5.9,3.7c-1.9,1.6-3.7,3.3-5.5,5
		c-1.5,1.4-3,2.7-4.6,3.9c-1.8,1.3-3.8,2.4-6,3c-2.2,0.5-4.4,0.3-6.5-0.4c-0.1,0-0.1,0-0.2-0.2C101.8,43.5,115.7,32.9,130.3,23.1z"
		/>
	<path fill="#810202" d="M26.2,104.7c0.2,0,0.5,0,0.7,0c4.1,0,8.2,0,12.3,0c0.8,0,1.6,0.1,2.3,0.2c2.1,0.1,4.3,0,6.4-0.2
		c2.7-0.3,5.4-0.6,8.1-0.5c1.6,0,3.3,0.2,4.8,0.9c2,0.8,3.4,2.2,4.3,4.1c0.1,0.1,0.1,0.3,0.1,0.4c-0.9,0.2-1.9,0.2-2.8,0.3
		c-1.9,0.1-3.7,0.3-5.6,0.2c-6.1-0.1-12.1,0.1-18.2,0.2c-5.4,0.1-10.8,0.2-16.2-0.1c-3.6-0.2-7.1-0.6-10.6-1.1c-0.1,0-0.1,0-0.2-0.1
		c0-0.2,0.2-0.3,0.4-0.4C25.3,99,38.5,89.3,51.8,79.7c0.2-0.1,0.4-0.3,0.6-0.4c2.5-0.9,4.6-2.4,6.7-4.1c2-1.6,3.8-3.4,5.6-5.1
		c1.6-1.5,3.3-3,5.1-4.3c1.8-1.3,3.8-2.3,6-2.8c1.9-0.4,3.7-0.3,5.6,0.2c0.1,0,0.1,0.1,0.2,0.1c0,0,0,0,0.1,0.1
		c-0.3,0.2-0.6,0.5-0.9,0.7c-9.5,7.5-19.2,14.7-29,21.7c-8.3,6-16.7,12-24.9,18.1c-0.2,0.2-0.4,0.3-0.6,0.5
		C26.1,104.6,26.2,104.6,26.2,104.7z"/>
	<path fill="#810202" d="M56.1,73.2c-0.7-1.5-16.9-50.9-17-51.7c0.2,0,0.4,0.2,0.5,0.3C54,32.3,68.2,42.7,82.5,53
		c0.2,0.1,0.4,0.3,0.6,0.4c2.4,2.5,5.3,4.5,8.3,6.3c2.1,1.3,4.3,2.6,6.4,4c2.1,1.4,4.1,2.9,5.9,4.7c1.5,1.6,2.8,3.3,3.7,5.3
		c0.2,0.4,0.2,0.7,0,1.1c-0.3,0.6-0.4,1.2-0.7,1.7c-0.3-0.1-0.5-0.3-0.8-0.5c-10.8-7.7-21.5-15.6-32.3-23.4c-0.9-0.7-1.8-1.3-2.7-2
		c-0.9-0.6-1.8-1.3-2.8-1.7c-1.3-0.6-2.5-1.5-3.6-2.5c-2.2-1.9-4.4-3.8-6.6-5.6c-1.1-1-2.3-1.8-3.6-2.6c-0.5-0.3-1-0.6-1.6-0.7
		c-1.2-0.3-1.9,0.1-2.2,1.3c-0.3,1-0.2,2-0.1,3c0.2,2.2,0.9,4.2,1.7,6.2c0.9,2.3,2.1,4.5,3.1,6.8c1.1,2.3,2.2,4.6,2.8,7.1
		c0.5,2,0.8,4,0.5,6C58.3,69.9,57.5,71.7,56.1,73.2z"/>
	<path fill="#810202" d="M85.7,148c0.9-2.7,1.7-5.3,2.6-8c0.6-2,1.3-4,1.9-6c0.2-0.5,0.4-1,0.6-1.4c0.8-1.8,1.3-3.7,1.7-5.6
		c0.6-2.5,1-4.9,1.7-7.3c0.4-1.5,1-2.9,1.9-4.1c0.8-1.2,1.9-2.1,3.4-2.5c0.8-0.2,1.6-0.3,2.6-0.1c-5.2,17.1-10.7,34-16.7,50.8
		c-0.2-0.1-0.2-0.3-0.3-0.5c-5.2-15.8-10.4-31.7-15.5-47.5c-0.1-0.4-0.2-0.9-0.2-1.3c-0.2-2.8-1.1-5.4-2.2-8
		c-1.1-2.7-2.5-5.4-3.7-8.1c-1-2.3-1.9-4.7-2.3-7.2c-0.5-3.2,0-6.2,1.8-9c0.1-0.2,0.3-0.5,0.6-0.7c7.4,22.2,14.6,44.5,21.9,66.7
		C85.6,148,85.6,148,85.7,148z"/>
</g>
</svg>
