<?xml version="1.0" encoding="utf-8"?>
<!-- Generator: Adobe Illustrator 18.1.1, SVG Export Plug-In . SVG Version: 6.00 Build 0)  -->
<svg version="1.0" id="Layer_1" xmlns="http://www.w3.org/2000/svg" xmlns:xlink="http://www.w3.org/1999/xlink" x="0px" y="0px"
	 viewBox="0 0 301 291" enable-background="new 0 0 301 291" xml:space="preserve">
<g>
	<path fill="#F6F5E5" d="M46.9,146.1c4.7-5.5,9.9-10.5,16-14.5c2,1.8,4.4,1.3,6.7,1.3c27.5,0,54.9,0.1,82.4,0.1
		c0.1,2.8,0.2,5.6,0.4,8.4c-0.2,0.3-0.5,0.5-0.7,0.8c-13.5-0.9-26.8,9-31,23.2c-6.1,20.9,10.5,43,30.9,41.3c0.2,0.3,0.4,0.6,0.6,0.9
		c-0.1,12.4-0.2,24.9-0.4,37.3c-10.9,0-21.8,0-32.7,0c0-4.2,0-8.3,0.1-12.5c0.1-2.5-0.7-3.6-3.4-3.6c-28.1,0.1-56.2,0.1-84.4,0
		c-2.6,0-3.5,1-3.4,3.5c0.1,4.2,0.1,8.3,0.1,12.5c-6.8,0-13.6,0-20.5-0.1c-0.4-26.5,6.7-50.9,20-73.6c3.2-5.5,6.6-10.8,10.8-15.5
		c22.3,0.1,44.6-0.3,66.9,0.4c7.9,0.2,12.1-3.7,16.5-9.2c-2.2-1-4.2-0.6-6.1-0.6C92.8,146.3,69.8,146.2,46.9,146.1z"/>
	<path fill="#F6F5E5" d="M151.9,283.4c-16.3,0.2-32.6-0.4-48.8-1.5c-23.9-1.6-47.8-3.5-71-9.9c-5.1-1.4-10-3.5-15-5.3
		c0,0,0.1,0.2,0.1,0.2c-0.7-0.5-1.4-1-2.1-1.6c-3.4-2.8-7.5-5.1-7.3-10.4c48.1,0,96.2,0,144.3,0
		C151.9,264.5,151.9,273.9,151.9,283.4z"/>
	<path fill="#D9DBD9" d="M151.9,133c-27.5,0-54.9,0-82.4-0.1c-2.3,0-4.7,0.5-6.7-1.3c9-8,19.2-13.8,30.2-18.5
		c1.3,0.9,2.8,0.8,4.3,0.8c18.1,0,36.3-0.1,54.4-0.1c0,0,0.4,0.1,0.4,0.1c0,6.3,0.1,12.5,0.1,18.8L151.9,133z"/>
	<path fill="#D9DBD9" d="M151.9,255c-48.1,0-96.2,0-144.3,0c-0.5-3.4-0.5-6.8,0-10.1c6.8,0,13.6,0,20.5,0.1c30.3,0,60.7,0,91,0
		c10.9,0,21.8,0,32.7,0c0,0,0.4,0.1,0.4,0.1c0,3.3,0.1,6.5,0.1,9.8L151.9,255z"/>
	<path fill="#F6C136" d="M46.9,146.1c23,0.1,45.9,0.1,68.9,0.2c1.9,0,3.9-0.4,6.1,0.6c-4.5,5.5-8.6,9.4-16.5,9.2
		c-22.3-0.7-44.6-0.3-66.9-0.4C41,152.3,43.6,148.9,46.9,146.1z"/>
	<path fill="#DCCDB6" d="M168.7,101.1c5.4,0.9,10.7,1.9,16.1,2.8c1,0,2,0.1,3.1,0.1c0.8,0.9,1.8,1.1,2.9,1c5,1.8,10.1,3.6,15.1,5.3
		c2.2,1.2,4.3,2.3,6.5,3.5c-20.1,0-40.2,0.1-60.2,0.1c0,0-0.4-0.1-0.4-0.1c0-4.3,1.1-8.7-0.8-13c2.7-1.4,5.5-0.2,8.2-0.5
		c1.6,0.2,3.2,0.4,4.7,0.6C165.6,101,167.1,101.1,168.7,101.1z"/>
	<path fill="#F6F5E5" d="M151,100.9c1.8,4.2,0.7,8.6,0.8,13c-18.1,0-36.3,0.1-54.4,0.1c-1.5,0-3,0-4.3-0.8
		C111.5,104.7,130.7,100.2,151,100.9z"/>
	<path fill="#B2B4B3" d="M188.4,6c0,30.4-0.1,60.8-0.2,91.1c0,2.3-0.2,4.6-0.3,6.9c-1,0-2-0.1-3.1-0.1c0-9.9,0-19.9-0.1-29.8
		c0.1-20.8,0.1-41.5,0.2-62.3C185,9.3,184.2,6.1,188.4,6z"/>
	<path fill="#D9DBD9" d="M164,101c-1.6-0.2-3.2-0.4-4.7-0.6c0-12.7,0-25.3,0.1-38c0-3.2,0-6.6,4.7-6.5C164,70.9,164,85.9,164,101z"
		/>
	<path fill="#B2B4B3" d="M164,101c0-15,0-30,0-45.1c2.1-0.2,3.4,1,4.4,2.7c0.1,14.2,0.2,28.3,0.3,42.5
		C167.1,101.1,165.6,101,164,101z"/>
	<path fill="#DCCDB6" d="M243.2,132.8c5.2,3.9,10,8.3,14.2,13.2c-24.9,0-49.8,0-74.7,0c-0.1,0.5-0.2,1-0.3,1.5
		c4.4,4.4,8,8.9,15.9,8.7c22.5-0.7,45-0.2,67.5-0.2c0.7,0.7,1.4,1.3,2.1,2c0.3,1,0.9,1.8,2,2.1c0,0-0.2,0-0.2,0
		c6.9,11.1,13.7,22.2,18.2,34.7c5.8,16.2,9.1,32.9,8.9,50.1c-5.9,0-11.8,0-17.7,0c0-4.1,0-8.3,0.1-12.4c0.1-2.4-0.8-3.6-3.4-3.6
		c-8.9,0.1-17.9,0.1-26.8,0c-2.5,0-3.6,1-3.6,3.5c0.1,4.1,0,8.3,0.1,12.4c-2.7,0.1-5.3,0.2-8,0.2c-28.4,0-56.8,0.1-85.2,0.1
		c0,0-0.4-0.1-0.4-0.1c0.1-12.4,0.2-24.9,0.4-37.3c1.1-0.2,2.3-0.4,3.4-0.5c20.6-2.3,34.2-22.5,27.9-42.1
		c-4.8-15-15.8-22.3-31.3-23.6c-0.1-2.8-0.2-5.6-0.4-8.4c0,0,0.4-0.2,0.4-0.2C182.6,132.8,212.9,132.8,243.2,132.8z M226.1,202.8
		c-3.7-4.6-11.1-2.9-14.1,0.4c-4,4.4-3.7,9.9,1,14.8c5.4,3.6,10.9,3.1,14.5-1.3C231.1,212.3,230.5,207.1,226.1,202.8z"/>
	<path fill="#494D4E" d="M152.3,141.5c15.4,1.2,26.5,8.6,31.3,23.6c6.3,19.6-7.3,39.9-27.9,42.1c-1.2,0.1-2.3,0.3-3.4,0.5
		c-0.2-0.3-0.4-0.6-0.6-0.9c0.1-1.3,0.1-2.6,0.2-3.9c1.3-0.3,2.6-0.7,3.9-0.8c20.2-2.2,31.1-25.3,20.1-42.6
		c-2.2-3.4-3.8-3.7-6.8-0.8c-9,8.6-18.3,16.9-27.3,25.5c-3.3,3.2-7.2,5.9-9.5,10.1c-8-8.5-10.4-18.4-6.3-29.4
		c3.8-10.2,11.4-16.5,22.4-18c3-0.4,4.2-1.7,3.4-4.6C151.8,142,152.1,141.7,152.3,141.5z"/>
	<path fill="#F6C136" d="M119.1,245c-30.3,0-60.7,0-91,0c0-4.2,0.1-8.3-0.1-12.5c-0.1-2.6,0.8-3.5,3.4-3.5c28.1,0.1,56.2,0.1,84.4,0
		c2.7,0,3.5,1.1,3.4,3.6C119.1,236.7,119.1,240.8,119.1,245z"/>
	<path fill="#3A938C" d="M151.8,202.9c-0.1,1.3-0.1,2.6-0.2,3.9c-20.5,1.7-37-20.4-30.9-41.3c4.1-14.2,17.4-24.1,31-23.2
		c0.8,2.9-0.4,4.2-3.4,4.6c-11,1.5-18.6,7.8-22.4,18c-4.1,10.9-1.7,20.8,6.3,29.4C137.6,199.6,144,202.7,151.8,202.9z"/>
	<path fill="#DCCDB6" d="M151.9,283.4c0-9.4,0-18.9,0.1-28.3c0,0,0.4-0.2,0.4-0.2c6.3,0,12.7,0.1,19,0.1c41.8,0,83.6,0.1,125.5,0.1
		c-0.1,4.1-2.6,6.7-5.7,8.8c-9,6.3-19.6,8.7-30.1,11c-15.1,3.3-30.4,4.8-45.7,6.2c-20.8,2-41.6,1.8-62.4,2.5
		C152.5,283.6,152.2,283.4,151.9,283.4z"/>
	<path fill="#B2B4B3" d="M296.8,255.1c-41.8,0-83.6-0.1-125.5-0.1c-6.3,0-12.7-0.1-19-0.1c0-3.3-0.1-6.5-0.1-9.8
		c28.4,0,56.8,0,85.2-0.1c2.7,0,5.3-0.1,8-0.2c11.2,0,22.5,0.1,33.7,0.1c5.9,0,11.8,0,17.7,0C296.8,248.3,296.8,251.7,296.8,255.1z"
		/>
	<path fill="#F19432" d="M265.9,156c-22.5,0-45-0.4-67.5,0.2c-7.9,0.2-11.5-4.3-15.9-8.7c0.1-0.5,0.2-1,0.3-1.5
		c24.9,0,49.8,0,74.7,0c1.5,1.4,3,2.8,4.5,4.2C263.2,152.2,264.5,154.1,265.9,156z"/>
	<path fill="#B2B4B3" d="M243.2,132.8c-30.3,0-60.6,0-91,0c0-6.3-0.1-12.5-0.1-18.8c20.1,0,40.2-0.1,60.2-0.1
		c3.8,0.6,6.6,3.3,10.1,4.4c6.8,4.6,13.7,9.2,20.5,13.7C243.1,132.3,243.2,132.5,243.2,132.8z"/>
	<path fill="#F19432" d="M279.1,244.9c-11.2,0-22.5-0.1-33.7-0.1c0-4.1,0-8.3-0.1-12.4c-0.1-2.5,1-3.5,3.6-3.5
		c8.9,0.1,17.9,0.1,26.8,0c2.6,0,3.5,1.1,3.4,3.6C279.1,236.7,279.1,240.8,279.1,244.9z"/>
	<path fill="#222629" d="M226.1,202.8c4.5,4.3,5,9.6,1.4,14c-3.6,4.4-9.1,4.9-14.5,1.3c0.2-2.2,2-3.3,3.3-4.8
		C219.5,209.7,223.5,206.9,226.1,202.8z"/>
	<path fill="#494D4E" d="M226.1,202.8c-2.6,4.1-6.6,6.9-9.8,10.5c-1.3,1.5-3.1,2.6-3.3,4.8c-4.7-4.9-5-10.4-1-14.8
		C215,199.9,222.4,198.2,226.1,202.8z"/>
	<path fill="#222629" d="M151.8,202.9c-7.7-0.3-14.2-3.4-19.7-8.7c2.2-4.2,6.1-6.9,9.5-10.1c9-8.6,18.3-16.9,27.3-25.5
		c3-2.9,4.7-2.6,6.8,0.8c11,17.3,0.2,40.4-20.1,42.6C154.3,202.2,153.1,202.6,151.8,202.9z"/>
</g>
</svg>
