<?xml version="1.0" encoding="utf-8"?>
<!-- Generator: Adobe Illustrator 18.1.1, SVG Export Plug-In . SVG Version: 6.00 Build 0)  -->
<svg version="1.1" id="Layer_1" xmlns="http://www.w3.org/2000/svg" xmlns:xlink="http://www.w3.org/1999/xlink" x="0px" y="0px"
	 viewBox="94.8 0 432 792" enable-background="new 94.8 0 432 792" xml:space="preserve">
<g>
	<path display="none" fill="#0CAFE2" d="M-77.2,1014.5c0-349.8,0-699.6,0-1049.4c268.6,0,537.1,0,805.7,0c0,349.8,0,699.6,0,1049.4
		C460,1014.5,191.4,1014.5-77.2,1014.5z M495,451.2c2.6,0,4.8,0.1,6.9,0c18.1-1.2,17.2-2.8,18.1-16.9c0-0.5,0.1-1.1,0.1-1.6
		c1.1-23.3,1.4-46.6-2.7-69.6c-1.3-7.1-4.6-10.2-11.8-10.6c-7.1-0.4-14.2-0.3-21.2,0.1c-3.7,0.2-5.2-0.8-6.3-4.6
		c-10.5-37.8-26.6-73-50.7-104.3c-34.3-44.6-77.1-75.8-134.1-84.1c-5.8-0.9-11.6-0.8-18.3-1.2c9.9,9.8,19.2,18.3,27.8,27.4
		c30,32.4,52.7,68.7,61.2,112.6c1.9,9.5,3.7,19.9,1.9,29.1c-3.6,17.5-12,33.5-21.2,48.8c-19.1,32-44.6,58.8-70.4,85.3
		c-24.9,25.6-50.3,50.6-72.3,78.9c-22,28.2-40.6,58.5-49.8,93.2c-7.2,27-12.8,54.4-17.6,82c-3.9,22.4-4.7,45.3-0.3,67.9
		c3.4,17.3,10.4,32.5,25,43.3c35.6,26.1,74.8,44.7,118.1,54.2c18.8,4.2,37.8,5,57,2.8c20.9-2.4,39.2-11.7,56.8-22.6
		c8.9-5.5,17.2-11.5,28.4-9.7c2.3,0.3,4.7-0.5,7-0.9c34.4-5,63.5-37.2,65.8-71.8c1.4-22.7-4.9-42.6-19.6-60.1
		c-1.3-1.5-2.2-4.3-1.9-6.1c2.4-14.5,5.4-29,7.5-43.5c0.8-5.1,2.6-6.9,7.5-6.2c11.2,1.4,19.8-2.7,26.2-11.9c2.7-3.8,6-7.3,8.6-11.3
		c11.6-17.4,20.2-35.9,18.8-57.5c-1.3-19.9-9.4-37.5-18.8-54.7c-3-5.4-7-7.4-12.6-8c-4.3-0.4-8.5-1-13.1-1.5
		C495,495.5,495,473.8,495,451.2z M163.8,128.3c-3.9-2.4-7-4.6-10.4-6.3c-19.9-10.3-36.2-9.2-50.3,9.1c-2.2,2.8-4.5,5.7-6.4,8.9
		c-10.8,17.9-19.3,36.6-20,58c-0.2,6.6,1.9,12,7.2,15.5c8.4,5.7,17.2,10.9,25.9,16.1c2.5,1.5,3.5,2.6,3,5.9
		c-3.5,23.1-3.4,46,0.1,69.1c1.2,7.9,2.6,15.6,4,23.5c-3.1,0.9-5.4,1.3-7.5,2.2c-9.4,3.8-19,7.2-28,11.9c-7.5,3.9-9.3,8.3-6.6,16.4
		c4.6,13.8,9.6,27.4,15.5,40.7c7.4,16.4,16.1,32.2,27.7,46.2c5.4,6.3,8.4,7.4,16.2,4.6c5.2-1.9,10.4-4.3,15.6-6.4
		c3.9-1.7,7.8-3.7,11.7-5.6c13,22.4,26.2,43.7,42.3,64c6-7.4,11.3-14.1,16.7-20.7c9.3-11,17.8-22.6,28.1-32.6
		c21.8-21.2,44.4-41.5,66.7-62.1c2.6-2.4,2.6-4,0.2-6.7c-6-6.8-11.8-13.8-17.6-20.9c-27.1-33.8-52.5-68.9-70.8-108.4
		c-8.7-18.9-16.3-38.4-14.5-59.8c1.6-19,9.2-36.2,18-52.8c20.9-38.9,48.4-72.9,78.3-105.4c1.7-1.9,3.5-3.8,5.2-5.8
		C253.7,45.7,203.8,79.5,163.8,128.3z"/>
	<path fill="#0CAFE2" d="M470.6,409.9c0,19.2,0,37.7,0,56.5c3.9,0.4,7.5,1,11.2,1.3c4.7,0.4,8.2,2.2,10.7,6.8
		c7.9,14.6,14.8,29.5,16,46.5c1.2,18.4-6,34-16,48.8c-2.2,3.3-5,6.2-7.3,9.6c-5.5,7.8-12.8,11.3-22.3,10.1c-4.2-0.5-5.8,0.9-6.3,5.2
		c-1.7,12.4-4.4,24.6-6.3,36.9c-0.2,1.6,0.5,3.9,1.6,5.2c12.5,14.8,17.9,31.7,16.6,50.9c-1.9,29.4-26.6,56.6-55.9,61
		c-2,0.3-4,1-6,0.8c-9.6-1.5-16.6,3.6-24.2,8.3c-14.9,9.2-30.5,17.1-48.2,19.1c-16.3,1.9-32.4,1.1-48.4-2.4
		c-36.7-8.1-70-23.8-100.2-46c-12.4-9.2-18.3-22.1-21.1-36.7c-3.7-19.2-3.1-38.6,0.2-57.6c4-23.4,8.7-46.7,14.9-69.6
		c7.9-29.4,23.7-55.2,42.3-79.1s40.1-45.3,61.3-66.9c22-22.4,43.5-45.3,59.8-72.4c7.8-13,14.9-26.6,18-41.4c1.6-7.8,0-16.6-1.5-24.7
		c-7.2-37.3-26.6-68.1-51.9-95.5c-7.2-7.8-15.1-15-23.5-23.3c5.7,0.3,10.6,0.3,15.5,1c48.4,7,84.7,33.6,113.9,71.4
		c20.4,26.6,34.1,56.4,43.1,88.5c0.9,3.3,2.2,4,5.4,3.9c6-0.3,12-0.4,18,0c6.1,0.3,9,3,10.1,9c3.5,19.6,3.3,39.4,2.3,59.1
		c0,0.4-0.1,0.9-0.1,1.4c-0.8,12,0,13.4-15.4,14.4C474.7,410,472.8,409.9,470.6,409.9z"/>
	<path fill="#010F08" d="M189.5,136c34-41.4,76.4-70.2,127.6-86.1c-1.5,1.6-3,3.3-4.5,4.9c-25.3,27.4-48.8,56.3-66.4,89.4
		c-7.5,14.1-13.9,28.6-15.3,44.8c-1.5,18.1,4.9,34.7,12.4,50.7c15.5,33.6,37.1,63.3,60.1,92c4.8,6,9.7,12,14.9,17.7
		c2,2.3,2.1,3.6-0.2,5.7c-19,17.5-38.2,34.8-56.6,52.7c-8.6,8.4-16,18.4-23.8,27.7c-4.7,5.6-9.2,11.3-14.2,17.5
		c-13.7-17.2-24.9-35.3-35.9-54.3c-3.4,1.6-6.6,3.3-9.9,4.8c-4.4,2-8.7,3.9-13.2,5.5c-6.6,2.4-9.2,1.5-13.8-3.9
		c-9.8-11.8-17.3-25.3-23.5-39.2c-5-11.2-9.3-22.8-13.2-34.4c-2.3-6.9-0.8-10.6,5.6-13.9c7.7-3.9,15.7-6.8,23.7-10.1
		c1.9-0.8,3.8-1.1,6.4-1.9c-1.2-6.7-2.4-13.3-3.4-19.9c-3-19.6-3.1-39.1-0.1-58.6c0.4-2.7-0.4-3.7-2.5-5c-7.4-4.4-14.9-8.9-22-13.6
		c-4.6-3.1-6.3-7.7-6.1-13.2c0.5-18.3,7.8-34.1,16.9-49.3c1.6-2.6,3.5-5,5.5-7.5c12-15.4,25.8-16.4,42.7-7.7
		C183.5,132.1,186.2,133.9,189.5,136z"/>
	<rect x="80.9" y="811.7" fill="none" width="572.3" height="67.2"/>
	<rect x="39.7" y="822.9" fill="none" width="549.3" height="115.7"/>
	<rect x="204.4" y="501.9" fill="none" width="467.3" height="98.4"/>
</g>
<path fill="#F7F9F9" d="M335.2,639.7l-22.9-19.8l-19.9,23l7.4,6.4l-19.9,23c-1.5,1.8-2.1,1.6-3.6,1.8l-47.6,2.4l80.6-93.1l9.2,8
	l9.7-38.1l-36.3,15.1l9.2,8L194.9,698.8l-4.7-48.9c0-1.5-0.3-2.1,1.2-3.9l20.5-23.7c6.2,2.5,13.2,0.8,17.7-4.4
	c5.3-6.2,4.8-15.7-1-21.4c-6.6-6.3-16.8-5.7-22.7,1.1c-4.5,5.1-5.1,12.2-1.8,18l-23.3,27c-1.2,1.4-1.4,2.6-1.3,3.7l5.9,63.6
	l-8.8,10.1c0,0-0.7-1.3,2.8,3.7c2.9,4.2,5,4,5,4l34.8-40.2l62.3-3.4c1.2,0,2.2-0.5,3.5-1.9l22.7-26.2l7.8,6.7L335.2,639.7z"/>
</svg>
