<?xml version="1.0" encoding="utf-8"?>
<!-- Generator: Adobe Illustrator 18.1.1, SVG Export Plug-In . SVG Version: 6.00 Build 0)  -->
<svg version="1.1" id="Layer_1" xmlns="http://www.w3.org/2000/svg" xmlns:xlink="http://www.w3.org/1999/xlink" x="0px" y="0px"
	 viewBox="0 0 435 724.5" enable-background="new 0 0 435 724.5" xml:space="preserve">
<g>
	<path display="none" fill="#0CAFE2" d="M-133,928c0-320,0-640,0-960c245.7,0,491.3,0,737,0c0,320,0,640,0,960
		C358.4,928,112.7,928-133,928z M390.4,412.7c2.4,0,4.4,0.1,6.3,0c16.6-1.1,15.7-2.6,16.6-15.5c0-0.5,0.1-1,0.1-1.5
		c1-21.3,1.3-42.6-2.5-63.7c-1.2-6.5-4.2-9.3-10.8-9.7c-6.5-0.4-13-0.3-19.4,0.1c-3.4,0.2-4.8-0.7-5.8-4.2
		c-9.6-34.6-24.3-66.8-46.4-95.4c-31.4-40.8-70.5-69.3-122.7-76.9c-5.3-0.8-10.6-0.7-16.7-1.1c9.1,9,17.6,16.7,25.4,25.1
		c27.4,29.6,48.2,62.8,56,103c1.7,8.7,3.4,18.2,1.7,26.6c-3.3,16-11,30.6-19.4,44.6c-17.5,29.3-40.8,53.8-64.4,78
		c-22.8,23.4-46,46.3-66.1,72.2c-20.1,25.8-37.1,53.5-45.6,85.3c-6.6,24.7-11.7,49.8-16.1,75c-3.6,20.5-4.3,41.4-0.3,62.1
		c3.1,15.8,9.5,29.7,22.9,39.6c32.6,23.9,68.4,40.9,108,49.6c17.2,3.8,34.6,4.6,52.1,2.6c19.1-2.2,35.9-10.7,52-20.7
		c8.1-5,15.7-10.5,26-8.9c2.1,0.3,4.3-0.5,6.4-0.8c31.5-4.6,58.1-34,60.2-65.7c1.3-20.8-4.5-39-17.9-55c-1.2-1.4-2-3.9-1.7-5.6
		c2.2-13.3,4.9-26.5,6.9-39.8c0.7-4.7,2.4-6.3,6.9-5.7c10.2,1.3,18.1-2.5,24-10.9c2.5-3.5,5.5-6.7,7.9-10.3
		c10.6-15.9,18.5-32.8,17.2-52.6c-1.2-18.2-8.6-34.3-17.2-50c-2.7-4.9-6.4-6.8-11.5-7.3c-3.9-0.4-7.8-0.9-12-1.4
		C390.4,453.3,390.4,433.4,390.4,412.7z M87.4,117.4c-3.6-2.2-6.4-4.2-9.5-5.8c-18.2-9.4-33.1-8.4-46,8.3c-2,2.6-4.1,5.2-5.9,8.1
		c-9.9,16.4-17.7,33.5-18.3,53.1c-0.2,6,1.7,11,6.6,14.2c7.7,5.2,15.7,10,23.7,14.7c2.3,1.4,3.2,2.4,2.7,5.4
		c-3.2,21.1-3.1,42.1,0.1,63.2c1.1,7.2,2.4,14.3,3.7,21.5c-2.8,0.8-4.9,1.2-6.9,2C29,305.6,20.2,308.7,12,313c-6.9,3.6-8.5,7.6-6,15
		c4.2,12.6,8.8,25.1,14.2,37.2c6.8,15,14.7,29.5,25.3,42.3c4.9,5.8,7.7,6.8,14.8,4.2c4.8-1.7,9.5-3.9,14.3-5.9
		c3.6-1.6,7.1-3.4,10.7-5.1c11.9,20.5,24,40,38.7,58.5c5.5-6.8,10.3-12.9,15.3-18.9c8.5-10.1,16.3-20.7,25.7-29.8
		c19.9-19.4,40.6-38,61-56.8c2.4-2.2,2.4-3.7,0.2-6.1c-5.5-6.2-10.8-12.6-16.1-19.1c-24.8-30.9-48-63-64.8-99.2
		c-8-17.3-14.9-35.1-13.3-54.7c1.5-17.4,8.4-33.1,16.5-48.3c19.1-35.6,44.3-66.7,71.6-96.4c1.6-1.7,3.2-3.5,4.8-5.3
		C169.7,41.8,124,72.7,87.4,117.4z"/>
	<path fill="#0CAFE2" d="M368.1,375c0,17.6,0,34.5,0,51.7c3.6,0.4,6.9,0.9,10.2,1.2c4.3,0.4,7.5,2,9.8,6.2
		c7.2,13.4,13.5,27,14.6,42.5c1.1,16.8-5.5,31.1-14.6,44.6c-2,3-4.6,5.7-6.7,8.8c-5,7.1-11.7,10.3-20.4,9.2
		c-3.8-0.5-5.3,0.8-5.8,4.8c-1.6,11.3-4,22.5-5.8,33.8c-0.2,1.5,0.5,3.6,1.5,4.8c11.4,13.5,16.4,29,15.2,46.6
		c-1.7,26.9-24.3,51.8-51.1,55.8c-1.8,0.3-3.7,0.9-5.5,0.7c-8.8-1.4-15.2,3.3-22.1,7.6c-13.6,8.4-27.9,15.6-44.1,17.5
		c-14.9,1.7-29.6,1-44.3-2.2c-33.6-7.4-64-21.8-91.7-42.1C96,658.1,90.6,646.3,88,632.9c-3.4-17.6-2.8-35.3,0.2-52.7
		c3.7-21.4,8-42.7,13.6-63.7c7.2-26.9,21.7-50.5,38.7-72.4c17-21.9,36.7-41.4,56.1-61.2c20.1-20.5,39.8-41.4,54.7-66.2
		c7.1-11.9,13.6-24.3,16.5-37.9c1.5-7.1,0-15.2-1.4-22.6c-6.6-34.1-24.3-62.3-47.5-87.4c-6.6-7.1-13.8-13.7-21.5-21.3
		c5.2,0.3,9.7,0.3,14.2,0.9c44.3,6.4,77.5,30.7,104.2,65.3c18.7,24.3,31.2,51.6,39.4,81c0.8,3,2,3.7,4.9,3.6c5.5-0.3,11-0.4,16.5,0
		c5.6,0.3,8.2,2.7,9.2,8.2c3.2,17.9,3,36,2.1,54.1c0,0.4-0.1,0.8-0.1,1.3c-0.7,11,0,12.3-14.1,13.2C371.8,375.1,370.1,375,368.1,375
		z"/>
	<path fill="#010F08" d="M110.9,124.4c31.1-37.9,69.9-64.2,116.7-78.8c-1.4,1.5-2.7,3-4.1,4.5c-23.1,25.1-44.6,51.5-60.7,81.8
		c-6.9,12.9-12.7,26.2-14,41c-1.4,16.6,4.5,31.7,11.3,46.4c14.2,30.7,33.9,57.9,55,84.2c4.4,5.5,8.9,11,13.6,16.2
		c1.8,2.1,1.9,3.3-0.2,5.2c-17.4,16-34.9,31.8-51.8,48.2c-7.9,7.7-14.6,16.8-21.8,25.3c-4.3,5.1-8.4,10.3-13,16
		c-12.5-15.7-22.8-32.3-32.8-49.7c-3.1,1.5-6,3-9.1,4.4c-4,1.8-8,3.6-12.1,5c-6,2.2-8.4,1.4-12.6-3.6c-9-10.8-15.8-23.1-21.5-35.9
		c-4.6-10.2-8.5-20.9-12.1-31.5c-2.1-6.3-0.7-9.7,5.1-12.7c7-3.6,14.4-6.2,21.7-9.2c1.7-0.7,3.5-1,5.9-1.7
		c-1.1-6.1-2.2-12.2-3.1-18.2c-2.7-17.9-2.8-35.8-0.1-53.6c0.4-2.5-0.4-3.4-2.3-4.6c-6.8-4-13.6-8.1-20.1-12.4
		c-4.2-2.8-5.8-7-5.6-12.1c0.5-16.7,7.1-31.2,15.5-45.1c1.5-2.4,3.2-4.6,5-6.9c11-14.1,23.6-15,39.1-7
		C105.4,120.8,107.9,122.5,110.9,124.4z"/>
	<rect x="11.6" y="742.5" fill="none" width="523.5" height="61.5"/>
	<text transform="matrix(1 0 0 1 11.5659 779.072)" display="none" fill="#008AAA" font-family="'Roboto-Thin'" font-size="48">The Tentacle cometh</text>
	<rect x="-26.1" y="752.8" fill="none" width="502.5" height="105.8"/>
	<text transform="matrix(1 0 0 1 -26.0895 828.9622)" display="none"><tspan x="0" y="0" display="inline" fill="#0CAFE2" font-family="'Roboto-Medium'" font-size="100">Tentacle</tspan><tspan x="386.6" y="0" display="inline" font-family="'Roboto-Medium'" font-size="72">JS</tspan></text>
	<rect x="124.6" y="459.1" fill="none" width="427.5" height="90"/>
	<text transform="matrix(1 0 0 1 124.5593 504.7789)" display="none"><tspan x="0" y="0" display="inline" fill="#F0FCFF" font-family="'Roboto-Medium'" font-size="60">Tentacle</tspan><tspan x="231.9" y="0" display="inline" fill="#0EE080" font-family="'Roboto-Medium'" font-size="36">JS</tspan></text>
</g>
</svg>
