<?xml version="1.0" encoding="utf-8"?>
<!-- Generator: Adobe Illustrator 18.1.1, SVG Export Plug-In . SVG Version: 6.00 Build 0)  -->
<!DOCTYPE svg PUBLIC "-//W3C//DTD SVG 1.1//EN" "http://www.w3.org/Graphics/SVG/1.1/DTD/svg11.dtd">
<svg version="1.1" id="Layer_1" xmlns="http://www.w3.org/2000/svg" xmlns:xlink="http://www.w3.org/1999/xlink" x="0px" y="0px"
	 viewBox="694 -604 2000 2000" enable-background="new 694 -604 2000 2000" xml:space="preserve">
<g id="surface1">
	<path fill="#55ACEE" d="M2693.8-224.2c-73.6,32.7-152.6,54.8-235.6,64.6c84.7-50.8,149.8-131.1,180.4-226.9
		c-79.3,46.9-167.1,81.2-260.5,99.5c-74.9-79.7-181.5-129.5-299.6-129.5c-226.6,0-410.1,183.6-410.1,410.2
		c0,32.1,3.6,63.5,10.6,93.5C1338,70.1,1035.8-93.2,833.4-341.4c-35.2,60.6-55.5,131.1-55.5,206.2c0,142.4,72.4,267.9,182.4,341.5
		c-67.2-2.2-130.4-20.6-185.8-51.3c-0.1,1.7-0.1,3.5-0.1,5.1c0,198.8,141.4,364.6,329.1,402.3c-34.4,9.3-70.6,14.4-108.1,14.4
		c-26.5,0-52.1-2.6-77.1-7.3c52.1,162.9,203.7,281.5,383.1,284.9c-140.3,110-317.2,175.7-509.4,175.7c-33.1,0-65.8-1.9-97.9-5.8
		c181.5,116.2,397.1,184.2,628.8,184.2c754.5,0,1167.2-625.1,1167.2-1167.2c0-17.8-0.5-35.5-1.2-53.1
		C2569.2-69.6,2638.7-141.8,2693.8-224.2z"/>
</g>
</svg>
