<?xml version="1.0" ?><svg enable-background="new 0 0 48 48" id="Layer_1" version="1.1" viewBox="0 0 48 48" xml:space="preserve" xmlns="http://www.w3.org/2000/svg" xmlns:xlink="http://www.w3.org/1999/xlink"><g><g><g><path d="M28.9,37.9c-2.4,0-4.7-0.9-6.3-2.6c-3.5-3.5-3.5-9.2,0-12.7c1.7-1.7,4-2.6,6.3-2.6s4.7,0.9,6.3,2.6     c3.5,3.5,3.5,9.2,0,12.7C33.5,37,31.3,37.9,28.9,37.9z M28.9,22c-1.9,0-3.6,0.7-4.9,2c-2.7,2.7-2.7,7.1,0,9.9     c1.3,1.3,3.1,2,4.9,2s3.6-0.7,4.9-2c2.7-2.7,2.7-7.1,0-9.9C32.5,22.7,30.7,22,28.9,22z" fill="#010101"/></g><g><path d="M43.8,47.6L43.8,47.6c-0.8,0-1.5-0.2-2.1-0.7c-0.5-0.3-0.8-0.7-1.1-1.2c-1.2-2.1-2.5-3.8-3.9-5.2     l-1.1-1.1c-0.2-0.2-0.3-0.5-0.3-0.8c0-0.3,0.2-0.6,0.5-0.7c0.4-0.2,0.8-0.5,1.1-0.8c0.3-0.3,0.6-0.7,0.8-1.1     c0.2-0.3,0.4-0.5,0.7-0.5c0.3,0,0.6,0.1,0.8,0.3l0.7,0.7c1.9,1.9,3.7,3.2,5.4,4.1c0.4,0.2,0.7,0.4,1,0.7c0.8,0.8,1.2,1.9,1.1,3     s-0.7,2.1-1.7,2.7C45.2,47.4,44.5,47.6,43.8,47.6z M37.9,38.8l0.2,0.2c1.5,1.5,2.9,3.4,4.2,5.6c0.1,0.2,0.3,0.4,0.5,0.6     c0.5,0.4,1.3,0.4,1.9,0c0.5-0.3,0.7-0.7,0.8-1.3c0.1-0.5-0.1-1-0.5-1.4c-0.1-0.1-0.3-0.2-0.4-0.3c-1.9-0.9-3.7-2.3-5.8-4.4     c-0.1,0.2-0.3,0.3-0.4,0.5S38.1,38.7,37.9,38.8z" fill="#010101"/></g></g><g><rect fill="#010101" height="37.3" width="2" x="0.5" y="1.4"/></g><g><rect fill="#010101" height="37.3" width="2" x="4.6" y="1.4"/></g><g><rect fill="#010101" height="37.3" width="2" x="9.8" y="1.4"/></g><g><rect fill="#010101" height="37.3" width="2" x="14.5" y="1.4"/></g><g><rect fill="#010101" height="5.7" width="2" x="21.2" y="33"/></g><g><rect fill="#010101" height="22.5" width="2" x="21.2" y="1.4"/></g><g><rect fill="#010101" height="2.4" width="2" x="26" y="36.3"/></g><g><rect fill="#010101" height="19.5" width="2" x="26" y="1.4"/></g><g><rect fill="#010101" height="2.6" width="2" x="31.6" y="36.1"/></g><g><rect fill="#010101" height="20.6" width="2" x="31.6" y="1.4"/></g><g><rect fill="#010101" height="22.5" width="2" x="36.4" y="1.4"/></g><g><rect fill="#010101" height="33.3" width="2" x="41.5" y="1.4"/></g></g></svg>