<?xml version="1.0" encoding="utf-8"?>
<!-- Generator: Adobe Illustrator 18.1.1, SVG Export Plug-In . SVG Version: 6.00 Build 0)  -->
<svg version="1.1" id="Layer_1" xmlns="http://www.w3.org/2000/svg" xmlns:xlink="http://www.w3.org/1999/xlink" x="0px" y="0px"
	 viewBox="0 0 512 512" enable-background="new 0 0 512 512" xml:space="preserve">
<g>
	<defs>
		<rect id="SVGID_1_" width="512" height="512"/>
	</defs>
	<clipPath id="SVGID_2_">
		<use xlink:href="#SVGID_1_"  overflow="visible"/>
	</clipPath>
	<path clip-path="url(#SVGID_2_)" fill="#03A9F4" d="M0,64v384c0,35.3,28.7,64,64,64h384c35.3,0,64-28.7,64-64V64
		c0-35.3-28.7-64-64-64H64C28.7,0,0,28.7,0,64z"/>
</g>
<g>
	<defs>
		<rect id="SVGID_3_" width="512" height="512"/>
	</defs>
	<clipPath id="SVGID_4_">
		<use xlink:href="#SVGID_3_"  overflow="visible"/>
	</clipPath>
	<polygon clip-path="url(#SVGID_4_)" fill="#FFFFFE" points="269.6,346.9 336.4,432 175.6,432 242.4,346.9 	"/>
</g>
<g>
	<defs>
		<rect id="SVGID_5_" width="512" height="512"/>
	</defs>
	<clipPath id="SVGID_6_">
		<use xlink:href="#SVGID_5_"  overflow="visible"/>
	</clipPath>
	<path clip-path="url(#SVGID_6_)" fill-rule="evenodd" clip-rule="evenodd" fill="#FFFFFE" d="M148,238.2
		c-5.1-22.1-2.7-44.6,5.8-64.5c8.5-19.8,23.2-37,42.8-48.5l8.1,13.7c-16.5,9.7-29,24.3-36.2,41.1c-7.2,16.8-9.2,35.9-4.9,54.6
		L148,238.2L148,238.2z M295.6,180.4C285.5,170.3,271.5,164,256,164s-29.5,6.3-39.6,16.4C206.3,190.5,200,204.5,200,220
		c0,15.5,6.3,29.5,16.4,39.6c10.1,10.1,24.1,16.4,39.6,16.4s29.5-6.3,39.6-16.4c10.1-10.1,16.4-24.1,16.4-39.6
		C312,204.5,305.7,190.5,295.6,180.4L295.6,180.4z M256,148c19.9,0,37.9,8.1,50.9,21.1c13,13,21.1,31,21.1,50.9
		c0,19.9-8.1,37.9-21.1,50.9c-13,13-31,21.1-50.9,21.1c-19.9,0-37.9-8.1-50.9-21.1c-13-13-21.1-31-21.1-50.9
		c0-19.9,8.1-37.9,21.1-50.9C218.1,156.1,236.1,148,256,148z M256,80c38.7,0,73.7,15.7,99,41c25.3,25.3,41,60.3,41,99
		s-15.7,73.7-41,99c-25.3,25.3-60.3,41-99,41s-73.7-15.7-99-41c-25.3-25.3-41-60.3-41-99s15.7-73.7,41-99
		C182.3,95.7,217.3,80,256,80z"/>
</g>
</svg>
