<?xml version="1.0" encoding="utf-8"?>
<!-- Generator: Adobe Illustrator 18.1.1, SVG Export Plug-In . SVG Version: 6.00 Build 0)  -->
<!DOCTYPE svg PUBLIC "-//W3C//DTD SVG 1.1//EN" "http://www.w3.org/Graphics/SVG/1.1/DTD/svg11.dtd">
<svg version="1.1"
	 id="svg3783" sodipodi:docname="New document 6" inkscape:version="0.48.5 r10040" xmlns:rdf="http://www.w3.org/1999/02/22-rdf-syntax-ns#" xmlns:svg="http://www.w3.org/2000/svg" xmlns:cc="http://creativecommons.org/ns#" xmlns:dc="http://purl.org/dc/elements/1.1/" xmlns:sodipodi="http://sodipodi.sourceforge.net/DTD/sodipodi-0.dtd" xmlns:inkscape="http://www.inkscape.org/namespaces/inkscape"
	 xmlns="http://www.w3.org/2000/svg" xmlns:xlink="http://www.w3.org/1999/xlink" x="0px" y="0px" viewBox="-255.2 336.7 120 120"
	 enable-background="new -255.2 336.7 120 120" xml:space="preserve">
<sodipodi:namedview  inkscape:pageopacity="0.0" inkscape:window-x="0" inkscape:pageshadow="2" inkscape:window-y="25" inkscape:current-layer="layer1" fit-margin-right="0" fit-margin-bottom="0" inkscape:document-units="px" inkscape:window-maximized="1" inkscape:window-height="1031" inkscape:window-width="1920" id="base" fit-margin-left="0" fit-margin-top="0" showgrid="false" inkscape:cx="58.643805" pagecolor="#ffffff" inkscape:zoom="5.6" bordercolor="#666666" inkscape:cy="78.075538" borderopacity="1.0">
	</sodipodi:namedview>
<g id="layer1" transform="translate(-320.25,-477.01506)" inkscape:groupmode="layer" inkscape:label="Layer 1">
	<path id="path3687" inkscape:connector-curvature="0" fill="#0E9DD0" d="M90.6,928.3c-2.3-0.5-5.5-1.5-7.1-2.4
		c-3.8-2-10.1-9-11.8-13.2c-1.1-2.7-1.4-10.7-1.4-39.3c0-22.9,0.4-37,1.1-38.8c1.9-4.9,7.8-11.1,13.1-13.8c5.2-2.6,5.2-2.6,40.5-2.6
		c28.3,0,36,0.3,38.7,1.4c5.3,2.2,12.2,9.2,14.2,14.4c1.6,4.2,1.8,8.3,1.8,39.2c0,26.8-0.3,35.4-1.4,38.4c-1.9,5.3-8.6,12.4-14.1,15
		c-4.2,2-6.3,2.1-37,2.3C109.4,929.1,92.9,928.8,90.6,928.3L90.6,928.3z"/>
	<path id="path3685" inkscape:connector-curvature="0" fill="#827767" d="M90.6,928.3c-2.3-0.5-5.5-1.5-7.1-2.4
		c-3.8-2-10.1-9-11.8-13.2c-1.1-2.7-1.4-10.7-1.4-39.3c0-22.9,0.4-37,1.1-38.8c1.9-4.9,7.8-11.1,13.1-13.8c5.2-2.6,5.2-2.6,40.5-2.6
		c28.3,0,36,0.3,38.7,1.4c5.3,2.2,12.2,9.2,14.2,14.4c1.6,4.2,1.8,8.3,1.8,39.2c0,26.8-0.3,35.4-1.4,38.4c-1.9,5.3-8.6,12.4-14.1,15
		c-4.2,2-6.3,2.1-37,2.3C109.4,929.1,92.9,928.8,90.6,928.3L90.6,928.3z M119.4,892.5c0.8-8,2.3-9.8,4.3-5.1
		c0.8,1.9,1.8,4.7,2.1,6.1c1,3.9,2.9,5.1,5.5,3.7c1.8-0.9,2.1-1.8,1.6-4.3c-0.3-1.7-0.9-6.9-1.2-11.4c-0.9-11.2,1.4-19.8,6.6-25.3
		c4.2-4.4,8-5.1,10.3-1.9c1.6,2.3,2.7,1.7,2.7-1.6c0-2.7-3.4-5.4-6.8-5.4c-5.2,0-11.9,5.6-14.8,12.5c-1.3,3.1-1.7,6.7-1.6,16
		c0.1,11.7,0.1,11.9-1.7,9.8c-1-1.2-2.4-5-3-8.5c-1.9-9.5-2.1-10-3.9-9.6c-1.4,0.3-1.7,2-2.2,10.5c-0.5,10.3-2.1,14.8-3.6,10.1
		c-0.4-1.3-1.3-6-1.9-10.4c-1.1-8-1.1-8-4.5-8.3c-1.8-0.2-3.1,0-2.9,0.5c3.7,7.5,5.1,11.6,6,18.5c0.6,4.6,1.3,8.9,1.5,9.6
		c0.2,0.8,1.6,1.2,3.6,1C118.7,898.8,118.8,898.8,119.4,892.5L119.4,892.5z"/>
	<path id="path3683" inkscape:connector-curvature="0" fill="#20768F" d="M91.4,927.3c-6.8-1-12.6-5.1-16.6-11.5
		c-3-4.9-3-4.9-3.3-41.5c-0.2-33.3-0.1-36.9,1.5-40c2.4-4.7,4.6-5.9,6.7-3.8c1.3,1.3,2.1,1.4,3.6,0.6c2.3-1.2,2.5-3.3,0.4-5
		c-1.2-1-1.3-1.5-0.2-2.8c3.2-3.9,6.6-4.2,41.8-4.2c37.2,0,37.5,0,45,6c2.1,1.7,4.9,5.2,6.2,7.8c2.3,4.7,2.3,5.1,2.3,40.2
		c0,39.1,0,38.9-6.4,46.3c-1.7,2-5.3,4.7-7.9,5.9c-4.6,2.3-5.5,2.3-36.2,2.5C110.9,928.1,94.3,927.8,91.4,927.3z M119.4,892.5
		c0.8-8,2.3-9.8,4.3-5.1c0.8,1.9,1.8,4.7,2.1,6.1c1,3.9,2.9,5.1,5.5,3.7c1.8-0.9,2.1-1.8,1.6-4.3c-0.3-1.7-0.9-6.9-1.2-11.4
		c-0.9-11.2,1.4-19.8,6.6-25.3c4.2-4.4,8-5.1,10.3-1.9c1.6,2.3,2.7,1.7,2.7-1.6c0-2.7-3.4-5.4-6.8-5.4c-5.2,0-11.9,5.6-14.8,12.5
		c-1.3,3.1-1.7,6.7-1.6,16c0.1,11.7,0.1,11.9-1.7,9.8c-1-1.2-2.4-5-3-8.5c-1.9-9.5-2.1-10-3.9-9.6c-1.4,0.3-1.7,2-2.2,10.5
		c-0.5,10.3-2.1,14.8-3.6,10.1c-0.4-1.3-1.3-6-1.9-10.4c-1.1-8-1.1-8-4.5-8.3c-1.8-0.2-3.1,0-2.9,0.5c3.7,7.5,5.1,11.6,6,18.5
		c0.6,4.6,1.3,8.9,1.5,9.6c0.2,0.8,1.6,1.2,3.6,1C118.7,898.8,118.8,898.8,119.4,892.5L119.4,892.5z"/>
	<path id="path3681" inkscape:connector-curvature="0" fill="#676457" d="M91.4,927.3c-6.8-1-12.6-5.1-16.6-11.5
		c-3-4.9-3-4.9-3.3-41.5c-0.2-33.3-0.1-36.9,1.5-40c2.4-4.7,4.6-5.9,6.7-3.8c1.3,1.3,2.1,1.4,3.6,0.6c2.3-1.2,2.5-3.3,0.4-5
		c-1.2-1-1.3-1.5-0.2-2.8c3.2-3.9,6.6-4.2,41.8-4.2c37.2,0,37.5,0,45,6c2.1,1.7,4.9,5.2,6.2,7.8c2.3,4.7,2.3,5.1,2.3,40.2
		c0,39.1,0,38.9-6.4,46.3c-1.7,2-5.3,4.7-7.9,5.9c-4.6,2.3-5.5,2.3-36.2,2.5C110.9,928.1,94.3,927.8,91.4,927.3z M120.8,893.3
		c1-5.9,1.2-6.3,2.1-4c0.6,1.4,1.8,4.2,2.6,6.2c1.7,4,3.9,4.8,7.1,2.4c1.7-1.2,1.7-2,0.6-11.2c-1-8.4-1-11,0.3-17.3
		c0.9-4.5,2.5-8.7,4.1-10.8c2.7-3.6,4.5-4.3,4.5-1.9c0,1.8,3,3.4,5,2.8c3-1,5-3.6,5-6.4c0-5.9-6.6-8.7-12.8-5.4
		c-4,2.1-8.9,7.5-10.8,12.1c-1,2.5-1.8,7.2-1.9,12.3c-0.1,4.5-0.5,8.5-0.8,8.8c-0.5,0.5-1.9-5.3-2.9-12.1c-0.3-2.2-3.5-3.1-5.7-1.6
		c-1,0.7-1.3,3.2-1.2,10c0.1,5.2-0.2,9.1-0.8,9.1c-0.9,0-3.2-10.5-3.2-14.8c0-1.2-0.9-2.6-1.9-3.2c-2.5-1.3-6.8-1.3-7.6,0
		c-0.3,0.6,0.3,2.2,1.3,3.8c2.9,4,5,11.2,5.7,18.9c0.3,3.7,0.8,7.4,1,8.1c0.3,0.9,1.8,1.2,4.7,1
		C119.7,899.8,119.7,899.8,120.8,893.3L120.8,893.3z"/>
	<path id="path3679" inkscape:connector-curvature="0" fill="#493A23" d="M88,926c-5.5-1.7-10.4-6-13.5-12
		c-2.7-5.2-2.7-5.2-2.7-40.7c0-32.4,0.2-35.8,1.8-38.3c1.7-2.6,1.9-2.7,4.8-1.1c2.9,1.5,3.2,1.5,6.5-1.1c1.9-1.5,3.7-3.3,4-4.1
		s-0.2-2.5-1.1-3.9c-3.1-4.7-0.7-5,37.4-5c32.4,0,34.7,0.1,38.5,2c6.3,3.1,12,9.4,13.3,14.8c1.6,6.4,1.6,67.1,0,73.6
		c-0.9,3.4-2.5,6-6.3,9.8s-6.3,5.4-9.8,6.3C154.6,927.8,93.3,927.6,88,926L88,926z M118.2,900.3c1.3-0.7,2.1-2.6,2.6-6.5
		c0.4-3.1,0.9-5.3,1.3-5s1.3,2.7,2.2,5.3c1.2,3.5,2.2,4.8,3.9,5.1c1.2,0.2,3.4-0.4,4.8-1.3c1.9-1.2,2.4-2.2,1.9-3.8
		c-0.3-1.2-1.1-5.5-1.7-9.7c-0.8-6-0.7-9,0.5-14.9c1-4.7,2.5-8.7,4.2-10.9c2.6-3.4,2.7-3.5,3.7-1.4c1.4,3.2,4.5,3.7,7.5,1.5
		c1.8-1.3,2.7-3.1,2.9-5.5c0.2-2.8-0.2-3.9-2.4-5.7c-4.8-3.8-9.9-2.4-16.6,4.6c-5.3,5.5-6.8,9.8-6.8,19.6c0,5.6-0.3,7.8-1,6.8
		c-0.5-0.8-1.2-3.8-1.6-6.7c-0.4-3-1.2-5.4-2.1-5.7c-0.8-0.3-2.6-0.1-4,0.5c-2.6,1-2.6,1.1-2.1,8.2c0.3,4,0.2,8.1-0.2,9.2
		c-0.7,1.7-0.9,1.5-1.5-1.5c-0.4-1.9-1-6-1.4-9c-0.7-5.5-0.7-5.5-6.1-5.8c-2.9-0.2-5.2,0.1-5,0.5s1.5,3.1,3,5.8
		c2.9,5.6,4.9,13.4,4.9,19.8c0,4.9,0.7,6.3,3.5,7C116,901.4,116.3,901.4,118.2,900.3L118.2,900.3z"/>
	<path id="path3677" inkscape:connector-curvature="0" fill="#48361D" d="M85.7,924.4c-2.2-1-5.1-3.1-6.3-4.7
		c-2.2-2.8-2.2-2.8-0.1-3.9c2.5-1.3,1.6-2.5-1.7-2.5c-1.8,0-2.8-0.9-3.8-3.5c-1.2-2.8-1.4-9.9-1.4-36.4c0-19.6,0.4-34,1-35.6
		c1-2.6,1-2.6,3.6-0.6c1.4,1.1,3.1,2.1,3.6,2.1c0.5,0,2-1.3,3.4-2.9c1.4-1.6,4.9-3.9,8-5c5-1.9,7.9-2.1,30.2-2.2
		c13.6-0.1,25.8-0.4,27.2-0.9c2.5-0.8,2.5-0.8,0-1.4c-1.4-0.3-13.5-0.7-27-0.9c-21.6-0.2-24.9-0.5-27.3-2.1c-1.5-1-2.5-2.2-2.1-2.8
		c0.9-1.5,64.1-1.1,68.5,0.4c3.1,1,3.5,1.7,3.8,4.9c0.2,2.1,0.6,3.8,0.9,3.8s1.2-0.8,1.9-1.8c1-1.4,1.7-1.5,3.1-0.7
		c1,0.6,2.8,3,4.1,5.5c2.2,4.3,2.2,5,2.2,39.9c0,32.3-0.2,35.9-1.9,39.5c-2.3,5.1-6.5,9.3-11.6,11.6c-3.6,1.7-7.2,1.8-39,1.8
		C92.8,926.3,89.4,926.1,85.7,924.4L85.7,924.4z M162.9,912.1c1.5-1.5,1.8-5.1,2.2-30.6c0.3-15.9,0.2-31.3-0.2-34.3
		c-0.6-4.9-1.1-5.7-5.3-8.9c-4.6-3.5-4.6-3.5-33.4-3.8c-24.6-0.3-29.2-0.1-31.8,1.3c-1.7,0.9-3,1.8-3,2s1.3,0,2.8-0.6
		c1.7-0.6,14.1-0.9,31-0.7c23.5,0.2,28.3,0.5,29.5,1.8c1.1,1.2,1.3,7.3,0.9,32.2c-0.3,23.2-0.7,31.1-1.7,32.5
		c-1.2,1.6-3.8,1.8-31.8,2.1c-26.9,0.3-30.7,0.1-32.1-1.3c-1.4-1.4-1.6-5.4-1.6-31.8c0-20.8-0.3-29.6-1-28.4
		c-0.6,1.1-0.9,12.7-0.7,31.6c0.3,29.9,0.3,29.9,3.8,33.9c1.9,2.2,4.4,4.3,5.5,4.6s16.3,0.4,33.7,0.4
		C157.8,913.8,161.4,913.6,162.9,912.1L162.9,912.1z M121,901.1c0.7-0.6,1.3-2.6,1.4-4.6c0.1-3.6,0.1-3.6,1.1,0.6
		c0.9,3.8,1.3,4.2,3.9,4.2c1.6,0,4.3-0.7,6-1.6c3.1-1.6,3.1-1.6,2.2-7.8c-0.5-3.4-0.9-10.2-0.8-15.2c0-7.2,0.5-10,2.3-14
		c1.9-4.2,2.4-4.7,3.3-3.2c0.7,1.2,2.2,1.8,5,1.8c5.1,0,8.9-3.5,8.9-8c0-3.3-1.5-7-3.4-8.2c-0.6-0.4-3.4-0.7-6.2-0.8
		c-4.1,0-5.9,0.6-9.1,2.9c-5.3,3.9-8.4,8.3-9.9,14.5c-0.7,2.8-1.3,4.5-1.3,3.9c-0.1-0.9-3.1-1.1-12.3-0.9c-10.4,0.3-11,0.3-4.2-0.4
		c4.4-0.4,9.8-1.1,12.1-1.5c3.7-0.7,4.2-1.1,5.3-4.9c0.7-2.4,3.1-6,5.7-8.6c4.5-4.5,4.5-4.5-13.7-4.8c-12.5-0.2-18.6,0.1-19.5,0.9
		c-1.1,0.9-1.4,6.4-1.4,28.3c0,20.4,0.3,27.5,1.2,28.4c0.9,1,3.8,1.1,11.8,0.6C115,902.4,120.3,901.6,121,901.1L121,901.1z
		 M106.3,892.6c-0.8-6.5-2.1-11.6-3.8-15.1c-1.4-2.9-3.2-5.6-3.9-5.9c-0.7-0.3-1.3-1.9-1.3-3.7c0.1-3.1,0.1-3.1,1.1-0.3
		c0.6,1.5,2.1,4,3.4,5.4s3.1,5.1,4,8.2c1.6,5.4,3.2,21.1,2.2,21.1C107.7,902.3,107,897.9,106.3,892.6L106.3,892.6z M152.4,901.7
		c1.7-1.5,1.8-3.6,1.8-22.2c0-17.1-0.2-20.2-1.3-18.8c-0.9,1.3-2.7,1.8-6.2,1.9c-2.7,0-5.5-0.1-6.3-0.3c-0.8-0.3-1.9,1.2-2.9,4
		c-1.2,3.4-1.4,7-1,15c0.3,5.8,0.8,11.9,1.1,13.6c0.9,4.8-1.3,6.6-8.5,7c-11.5,0.6-7.4,1.5,7,1.5C148.2,903.3,150.9,903,152.4,901.7
		L152.4,901.7z"/>
	<path id="path3675" inkscape:connector-curvature="0" fill="#322512" d="M86.8,924.8c-4.4-1.6-8.1-4.8-7.2-6.3
		c1.1-1.7,10.4-3.4,17.4-3.1c3.7,0.2,19.6,0.2,35.4,0.1c26.6-0.2,28.8-0.3,31-2.1c2.4-1.9,2.4-1.9,2.9-40.2
		c0.5-34,0.7-38.7,2.3-41.6c2.1-3.8,4-3.5,6.5,1.1c1.5,2.8,1.7,7.3,2,38.3c0.2,24.3-0.1,36.5-0.9,39.5c-1.5,5.6-8.9,13.1-14.4,14.7
		c-2.6,0.7-16,1.1-37.5,1.1C98.2,926.2,89.9,925.9,86.8,924.8L86.8,924.8z M90.9,900.8c-0.8-2.1-0.8-55.8,0-58
		c0.3-0.9,1.9-2.3,3.5-3.1c2.3-1.2,8-1.5,29.1-1.4c24.4,0,31.7,0.6,27.3,2.3c-0.9,0.4-13.3,0.6-27.4,0.6c-25.6,0-25.8,0-27.9,2.3
		c-2.1,2.3-2.2,3-2.2,29.2C93.2,897.8,92.6,905.3,90.9,900.8L90.9,900.8z"/>
</g>
</svg>
